{
  "header": {
    "keySignatures": [],
    "meta": [],
    "name": "",
    "ppq": 384,
    "tempos": [
      {
        "bpm": 109.00014170018422,
        "ticks": 0
      }
    ],
    "timeSignatures": [
      {
        "ticks": 0,
        "timeSignature": [
          1,
          4
        ],
        "measures": 0
      }
    ]
  },
  "tracks": [
    {
      "channel": 0,
      "controlChanges": {},
      "pitchBends": [],
      "instrument": {
        "family": "synth lead",
        "number": 80,
        "name": "lead 1 (square)"
      },
      "name": "Smooth Synth",
      "notes": [
        {
          "duration": 0.275229,
          "durationTicks": 192,
          "midi": 50,
          "name": "D3",
          "ticks": 0,
          "time": 0,
          "velocity": 0.11811023622047244
        },
        {
          "duration": 0.275229,
          "durationTicks": 192,
          "midi": 66,
          "name": "F#4",
          "ticks": 0,
          "time": 0,
          "velocity": 0.11811023622047244
        },
        {
          "duration": 0.275229,
          "durationTicks": 192,
          "midi": 61,
          "name": "C#4",
          "ticks": 192,
          "time": 0.275229,
          "velocity": 0.11811023622047244
        },
        {
          "duration": 0.275229,
          "durationTicks": 192,
          "midi": 54,
          "name": "F#3",
          "ticks": 192,
          "time": 0.275229,
          "velocity": 0.11811023622047244
        },
        {
          "duration": 0.27522900000000006,
          "durationTicks": 192,
          "midi": 66,
          "name": "F#4",
          "ticks": 384,
          "time": 0.550458,
          "velocity": 0.11811023622047244
        },
        {
          "duration": 0.27522900000000006,
          "durationTicks": 192,
          "midi": 57,
          "name": "A3",
          "ticks": 384,
          "time": 0.550458,
          "velocity": 0.11811023622047244
        },
        {
          "duration": 0.27522899999999995,
          "durationTicks": 192,
          "midi": 61,
          "name": "C#4",
          "ticks": 576,
          "time": 0.8256870000000001,
          "velocity": 0.11811023622047244
        },
        {
          "duration": 0.27522899999999995,
          "durationTicks": 192,
          "midi": 54,
          "name": "F#3",
          "ticks": 576,
          "time": 0.8256870000000001,
          "velocity": 0.11811023622047244
        },
        {
          "duration": 0.27522899999999995,
          "durationTicks": 192,
          "midi": 57,
          "name": "A3",
          "ticks": 768,
          "time": 1.100916,
          "velocity": 0.11811023622047244
        },
        {
          "duration": 0.27522899999999995,
          "durationTicks": 192,
          "midi": 66,
          "name": "F#4",
          "ticks": 768,
          "time": 1.100916,
          "velocity": 0.11811023622047244
        },
        {
          "duration": 0.27522900000000017,
          "durationTicks": 192,
          "midi": 54,
          "name": "F#3",
          "ticks": 960,
          "time": 1.376145,
          "velocity": 0.11811023622047244
        },
        {
          "duration": 0.27522900000000017,
          "durationTicks": 192,
          "midi": 61,
          "name": "C#4",
          "ticks": 960,
          "time": 1.376145,
          "velocity": 0.11811023622047244
        },
        {
          "duration": 0.27522899999999995,
          "durationTicks": 192,
          "midi": 50,
          "name": "D3",
          "ticks": 1152,
          "time": 1.6513740000000001,
          "velocity": 0.11811023622047244
        },
        {
          "duration": 0.27522899999999995,
          "durationTicks": 192,
          "midi": 66,
          "name": "F#4",
          "ticks": 1152,
          "time": 1.6513740000000001,
          "velocity": 0.11811023622047244
        },
        {
          "duration": 0.27522899999999995,
          "durationTicks": 192,
          "midi": 61,
          "name": "C#4",
          "ticks": 1344,
          "time": 1.926603,
          "velocity": 0.11811023622047244
        },
        {
          "duration": 0.27522899999999995,
          "durationTicks": 192,
          "midi": 54,
          "name": "F#3",
          "ticks": 1344,
          "time": 1.926603,
          "velocity": 0.11811023622047244
        },
        {
          "duration": 0.27522899999999995,
          "durationTicks": 192,
          "midi": 66,
          "name": "F#4",
          "ticks": 1536,
          "time": 2.201832,
          "velocity": 0.11811023622047244
        },
        {
          "duration": 0.27522899999999995,
          "durationTicks": 192,
          "midi": 57,
          "name": "A3",
          "ticks": 1536,
          "time": 2.201832,
          "velocity": 0.11811023622047244
        },
        {
          "duration": 0.27522899999999995,
          "durationTicks": 192,
          "midi": 61,
          "name": "C#4",
          "ticks": 1728,
          "time": 2.477061,
          "velocity": 0.11811023622047244
        },
        {
          "duration": 0.27522899999999995,
          "durationTicks": 192,
          "midi": 54,
          "name": "F#3",
          "ticks": 1728,
          "time": 2.477061,
          "velocity": 0.11811023622047244
        },
        {
          "duration": 0.27522899999999995,
          "durationTicks": 192,
          "midi": 66,
          "name": "F#4",
          "ticks": 1920,
          "time": 2.75229,
          "velocity": 0.11811023622047244
        },
        {
          "duration": 0.27522899999999995,
          "durationTicks": 192,
          "midi": 57,
          "name": "A3",
          "ticks": 1920,
          "time": 2.75229,
          "velocity": 0.11811023622047244
        },
        {
          "duration": 0.2752290000000004,
          "durationTicks": 192,
          "midi": 61,
          "name": "C#4",
          "ticks": 2112,
          "time": 3.027519,
          "velocity": 0.11811023622047244
        },
        {
          "duration": 0.2752290000000004,
          "durationTicks": 192,
          "midi": 54,
          "name": "F#3",
          "ticks": 2112,
          "time": 3.027519,
          "velocity": 0.11811023622047244
        },
        {
          "duration": 0.27522899999999995,
          "durationTicks": 192,
          "midi": 47,
          "name": "B2",
          "ticks": 2304,
          "time": 3.3027480000000002,
          "velocity": 0.11811023622047244
        },
        {
          "duration": 0.27522899999999995,
          "durationTicks": 192,
          "midi": 59,
          "name": "B3",
          "ticks": 2304,
          "time": 3.3027480000000002,
          "velocity": 0.11811023622047244
        },
        {
          "duration": 0.27522899999999995,
          "durationTicks": 192,
          "midi": 57,
          "name": "A3",
          "ticks": 2496,
          "time": 3.577977,
          "velocity": 0.11811023622047244
        },
        {
          "duration": 0.27522899999999995,
          "durationTicks": 192,
          "midi": 51,
          "name": "D#3",
          "ticks": 2496,
          "time": 3.577977,
          "velocity": 0.11811023622047244
        },
        {
          "duration": 0.5504579999999999,
          "durationTicks": 384,
          "midi": 61,
          "name": "C#4",
          "ticks": 2688,
          "time": 3.853206,
          "velocity": 0.11811023622047244
        },
        {
          "duration": 0.2752289999999995,
          "durationTicks": 192,
          "midi": 54,
          "name": "F#3",
          "ticks": 2688,
          "time": 3.853206,
          "velocity": 0.11811023622047244
        },
        {
          "duration": 0.2752290000000004,
          "durationTicks": 192,
          "midi": 51,
          "name": "D#3",
          "ticks": 2880,
          "time": 4.128435,
          "velocity": 0.11811023622047244
        },
        {
          "duration": 0.2752290000000004,
          "durationTicks": 192,
          "midi": 54,
          "name": "F#3",
          "ticks": 3072,
          "time": 4.403664,
          "velocity": 0.11811023622047244
        },
        {
          "duration": 0.2752290000000004,
          "durationTicks": 192,
          "midi": 57,
          "name": "A3",
          "ticks": 3072,
          "time": 4.403664,
          "velocity": 0.11811023622047244
        },
        {
          "duration": 0.2752289999999995,
          "durationTicks": 192,
          "midi": 51,
          "name": "D#3",
          "ticks": 3264,
          "time": 4.678893,
          "velocity": 0.11811023622047244
        },
        {
          "duration": 0.2752289999999995,
          "durationTicks": 192,
          "midi": 59,
          "name": "B3",
          "ticks": 3264,
          "time": 4.678893,
          "velocity": 0.11811023622047244
        },
        {
          "duration": 0.2752290000000004,
          "durationTicks": 192,
          "midi": 64,
          "name": "E4",
          "ticks": 3456,
          "time": 4.954122,
          "velocity": 0.11811023622047244
        },
        {
          "duration": 0.2752290000000004,
          "durationTicks": 192,
          "midi": 47,
          "name": "B2",
          "ticks": 3456,
          "time": 4.954122,
          "velocity": 0.11811023622047244
        },
        {
          "duration": 0.2752289999999995,
          "durationTicks": 192,
          "midi": 63,
          "name": "D#4",
          "ticks": 3648,
          "time": 5.229351,
          "velocity": 0.11811023622047244
        },
        {
          "duration": 0.2752289999999995,
          "durationTicks": 192,
          "midi": 51,
          "name": "D#3",
          "ticks": 3648,
          "time": 5.229351,
          "velocity": 0.11811023622047244
        },
        {
          "duration": 0.2752290000000004,
          "durationTicks": 192,
          "midi": 64,
          "name": "E4",
          "ticks": 3840,
          "time": 5.50458,
          "velocity": 0.11811023622047244
        },
        {
          "duration": 0.2752290000000004,
          "durationTicks": 192,
          "midi": 54,
          "name": "F#3",
          "ticks": 3840,
          "time": 5.50458,
          "velocity": 0.11811023622047244
        },
        {
          "duration": 0.2752289999999995,
          "durationTicks": 192,
          "midi": 51,
          "name": "D#3",
          "ticks": 4032,
          "time": 5.779809,
          "velocity": 0.11811023622047244
        },
        {
          "duration": 0.2752289999999995,
          "durationTicks": 192,
          "midi": 66,
          "name": "F#4",
          "ticks": 4032,
          "time": 5.779809,
          "velocity": 0.11811023622047244
        },
        {
          "duration": 0.2752290000000004,
          "durationTicks": 192,
          "midi": 63,
          "name": "D#4",
          "ticks": 4224,
          "time": 6.055038,
          "velocity": 0.11811023622047244
        },
        {
          "duration": 0.2752290000000004,
          "durationTicks": 192,
          "midi": 54,
          "name": "F#3",
          "ticks": 4224,
          "time": 6.055038,
          "velocity": 0.11811023622047244
        },
        {
          "duration": 0.2752290000000004,
          "durationTicks": 192,
          "midi": 51,
          "name": "D#3",
          "ticks": 4416,
          "time": 6.330267,
          "velocity": 0.11811023622047244
        },
        {
          "duration": 0.2752290000000004,
          "durationTicks": 192,
          "midi": 59,
          "name": "B3",
          "ticks": 4416,
          "time": 6.330267,
          "velocity": 0.11811023622047244
        },
        {
          "duration": 0.2752289999999995,
          "durationTicks": 192,
          "midi": 43,
          "name": "G2",
          "ticks": 4608,
          "time": 6.6054960000000005,
          "velocity": 0.11811023622047244
        },
        {
          "duration": 0.2752289999999995,
          "durationTicks": 192,
          "midi": 66,
          "name": "F#4",
          "ticks": 4608,
          "time": 6.6054960000000005,
          "velocity": 0.11811023622047244
        },
        {
          "duration": 0.2752290000000004,
          "durationTicks": 192,
          "midi": 47,
          "name": "B2",
          "ticks": 4800,
          "time": 6.880725,
          "velocity": 0.11811023622047244
        },
        {
          "duration": 0.2752290000000004,
          "durationTicks": 192,
          "midi": 59,
          "name": "B3",
          "ticks": 4800,
          "time": 6.880725,
          "velocity": 0.11811023622047244
        },
        {
          "duration": 0.2752289999999995,
          "durationTicks": 192,
          "midi": 50,
          "name": "D3",
          "ticks": 4992,
          "time": 7.155954,
          "velocity": 0.11811023622047244
        },
        {
          "duration": 0.2752289999999995,
          "durationTicks": 192,
          "midi": 66,
          "name": "F#4",
          "ticks": 4992,
          "time": 7.155954,
          "velocity": 0.11811023622047244
        },
        {
          "duration": 0.2752290000000004,
          "durationTicks": 192,
          "midi": 47,
          "name": "B2",
          "ticks": 5184,
          "time": 7.431183,
          "velocity": 0.11811023622047244
        },
        {
          "duration": 0.2752290000000004,
          "durationTicks": 192,
          "midi": 59,
          "name": "B3",
          "ticks": 5184,
          "time": 7.431183,
          "velocity": 0.11811023622047244
        },
        {
          "duration": 0.2752289999999995,
          "durationTicks": 192,
          "midi": 50,
          "name": "D3",
          "ticks": 5376,
          "time": 7.706412,
          "velocity": 0.11811023622047244
        },
        {
          "duration": 0.2752289999999995,
          "durationTicks": 192,
          "midi": 66,
          "name": "F#4",
          "ticks": 5376,
          "time": 7.706412,
          "velocity": 0.11811023622047244
        },
        {
          "duration": 0.2752289999999995,
          "durationTicks": 192,
          "midi": 47,
          "name": "B2",
          "ticks": 5568,
          "time": 7.981641,
          "velocity": 0.11811023622047244
        },
        {
          "duration": 0.2752289999999995,
          "durationTicks": 192,
          "midi": 59,
          "name": "B3",
          "ticks": 5568,
          "time": 7.981641,
          "velocity": 0.11811023622047244
        },
        {
          "duration": 0.2752290000000013,
          "durationTicks": 192,
          "midi": 66,
          "name": "F#4",
          "ticks": 5760,
          "time": 8.25687,
          "velocity": 0.11811023622047244
        },
        {
          "duration": 0.2752290000000013,
          "durationTicks": 192,
          "midi": 43,
          "name": "G2",
          "ticks": 5760,
          "time": 8.25687,
          "velocity": 0.11811023622047244
        },
        {
          "duration": 0.2752289999999995,
          "durationTicks": 192,
          "midi": 46,
          "name": "A#2",
          "ticks": 5952,
          "time": 8.532099,
          "velocity": 0.11811023622047244
        },
        {
          "duration": 0.2752289999999995,
          "durationTicks": 192,
          "midi": 58,
          "name": "A#3",
          "ticks": 5952,
          "time": 8.532099,
          "velocity": 0.11811023622047244
        },
        {
          "duration": 0.2752289999999995,
          "durationTicks": 192,
          "midi": 66,
          "name": "F#4",
          "ticks": 6144,
          "time": 8.807328,
          "velocity": 0.11811023622047244
        },
        {
          "duration": 0.2752289999999995,
          "durationTicks": 192,
          "midi": 50,
          "name": "D3",
          "ticks": 6144,
          "time": 8.807328,
          "velocity": 0.11811023622047244
        },
        {
          "duration": 0.2752290000000013,
          "durationTicks": 192,
          "midi": 58,
          "name": "A#3",
          "ticks": 6336,
          "time": 9.082557,
          "velocity": 0.11811023622047244
        },
        {
          "duration": 0.2752290000000013,
          "durationTicks": 192,
          "midi": 46,
          "name": "A#2",
          "ticks": 6336,
          "time": 9.082557,
          "velocity": 0.11811023622047244
        },
        {
          "duration": 0.550457999999999,
          "durationTicks": 384,
          "midi": 67,
          "name": "G4",
          "ticks": 6528,
          "time": 9.357786,
          "velocity": 0.11811023622047244
        },
        {
          "duration": 0.2752289999999995,
          "durationTicks": 192,
          "midi": 50,
          "name": "D3",
          "ticks": 6528,
          "time": 9.357786,
          "velocity": 0.11811023622047244
        },
        {
          "duration": 0.2752289999999995,
          "durationTicks": 192,
          "midi": 46,
          "name": "A#2",
          "ticks": 6720,
          "time": 9.633015,
          "velocity": 0.11811023622047244
        },
        {
          "duration": 0.2752289999999995,
          "durationTicks": 192,
          "midi": 50,
          "name": "D3",
          "ticks": 6912,
          "time": 9.908244,
          "velocity": 0.11811023622047244
        },
        {
          "duration": 0.2752289999999995,
          "durationTicks": 192,
          "midi": 66,
          "name": "F#4",
          "ticks": 6912,
          "time": 9.908244,
          "velocity": 0.11811023622047244
        },
        {
          "duration": 0.2752290000000013,
          "durationTicks": 192,
          "midi": 54,
          "name": "F#3",
          "ticks": 7104,
          "time": 10.183473,
          "velocity": 0.11811023622047244
        },
        {
          "duration": 0.2752290000000013,
          "durationTicks": 192,
          "midi": 62,
          "name": "D4",
          "ticks": 7104,
          "time": 10.183473,
          "velocity": 0.11811023622047244
        },
        {
          "duration": 0.2752289999999995,
          "durationTicks": 192,
          "midi": 57,
          "name": "A3",
          "ticks": 7296,
          "time": 10.458702,
          "velocity": 0.11811023622047244
        },
        {
          "duration": 0.2752289999999995,
          "durationTicks": 192,
          "midi": 66,
          "name": "F#4",
          "ticks": 7296,
          "time": 10.458702,
          "velocity": 0.11811023622047244
        },
        {
          "duration": 0.2752289999999995,
          "durationTicks": 192,
          "midi": 54,
          "name": "F#3",
          "ticks": 7488,
          "time": 10.733931,
          "velocity": 0.11811023622047244
        },
        {
          "duration": 0.2752289999999995,
          "durationTicks": 192,
          "midi": 62,
          "name": "D4",
          "ticks": 7488,
          "time": 10.733931,
          "velocity": 0.11811023622047244
        },
        {
          "duration": 0.2752290000000013,
          "durationTicks": 192,
          "midi": 57,
          "name": "A3",
          "ticks": 7680,
          "time": 11.00916,
          "velocity": 0.11811023622047244
        },
        {
          "duration": 0.2752290000000013,
          "durationTicks": 192,
          "midi": 64,
          "name": "E4",
          "ticks": 7680,
          "time": 11.00916,
          "velocity": 0.11811023622047244
        },
        {
          "duration": 0.2752289999999995,
          "durationTicks": 192,
          "midi": 54,
          "name": "F#3",
          "ticks": 7872,
          "time": 11.284389000000001,
          "velocity": 0.11811023622047244
        },
        {
          "duration": 0.2752289999999995,
          "durationTicks": 192,
          "midi": 66,
          "name": "F#4",
          "ticks": 7872,
          "time": 11.284389000000001,
          "velocity": 0.11811023622047244
        },
        {
          "duration": 0.2752289999999995,
          "durationTicks": 192,
          "midi": 49,
          "name": "C#3",
          "ticks": 8064,
          "time": 11.559618,
          "velocity": 0.11811023622047244
        },
        {
          "duration": 0.550457999999999,
          "durationTicks": 384,
          "midi": 64,
          "name": "E4",
          "ticks": 8064,
          "time": 11.559618,
          "velocity": 0.11811023622047244
        },
        {
          "duration": 0.2752289999999995,
          "durationTicks": 192,
          "midi": 52,
          "name": "E3",
          "ticks": 8256,
          "time": 11.834847,
          "velocity": 0.11811023622047244
        },
        {
          "duration": 0.2752290000000013,
          "durationTicks": 192,
          "midi": 57,
          "name": "A3",
          "ticks": 8448,
          "time": 12.110076,
          "velocity": 0.11811023622047244
        },
        {
          "duration": 0.5504580000000008,
          "durationTicks": 384,
          "midi": 62,
          "name": "D4",
          "ticks": 8448,
          "time": 12.110076,
          "velocity": 0.11811023622047244
        },
        {
          "duration": 0.2752289999999995,
          "durationTicks": 192,
          "midi": 52,
          "name": "E3",
          "ticks": 8640,
          "time": 12.385305,
          "velocity": 0.11811023622047244
        },
        {
          "duration": 0.2752289999999995,
          "durationTicks": 192,
          "midi": 57,
          "name": "A3",
          "ticks": 8832,
          "time": 12.660534,
          "velocity": 0.11811023622047244
        },
        {
          "duration": 0.5504580000000008,
          "durationTicks": 384,
          "midi": 61,
          "name": "C#4",
          "ticks": 8832,
          "time": 12.660534,
          "velocity": 0.11811023622047244
        },
        {
          "duration": 0.2752290000000013,
          "durationTicks": 192,
          "midi": 52,
          "name": "E3",
          "ticks": 9024,
          "time": 12.935763,
          "velocity": 0.11811023622047244
        },
        {
          "duration": 0.2752289999999995,
          "durationTicks": 192,
          "midi": 50,
          "name": "D3",
          "ticks": 9216,
          "time": 13.210992000000001,
          "velocity": 0.11811023622047244
        },
        {
          "duration": 0.2752289999999995,
          "durationTicks": 192,
          "midi": 66,
          "name": "F#4",
          "ticks": 9216,
          "time": 13.210992000000001,
          "velocity": 0.11811023622047244
        },
        {
          "duration": 0.2752289999999995,
          "durationTicks": 192,
          "midi": 61,
          "name": "C#4",
          "ticks": 9408,
          "time": 13.486221,
          "velocity": 0.11811023622047244
        },
        {
          "duration": 0.2752289999999995,
          "durationTicks": 192,
          "midi": 54,
          "name": "F#3",
          "ticks": 9408,
          "time": 13.486221,
          "velocity": 0.11811023622047244
        },
        {
          "duration": 0.2752289999999995,
          "durationTicks": 192,
          "midi": 57,
          "name": "A3",
          "ticks": 9600,
          "time": 13.76145,
          "velocity": 0.11811023622047244
        },
        {
          "duration": 0.2752289999999995,
          "durationTicks": 192,
          "midi": 66,
          "name": "F#4",
          "ticks": 9600,
          "time": 13.76145,
          "velocity": 0.11811023622047244
        },
        {
          "duration": 0.2752290000000013,
          "durationTicks": 192,
          "midi": 61,
          "name": "C#4",
          "ticks": 9792,
          "time": 14.036679,
          "velocity": 0.11811023622047244
        },
        {
          "duration": 0.2752290000000013,
          "durationTicks": 192,
          "midi": 54,
          "name": "F#3",
          "ticks": 9792,
          "time": 14.036679,
          "velocity": 0.11811023622047244
        },
        {
          "duration": 0.2752289999999995,
          "durationTicks": 192,
          "midi": 57,
          "name": "A3",
          "ticks": 9984,
          "time": 14.311908,
          "velocity": 0.11811023622047244
        },
        {
          "duration": 0.2752289999999995,
          "durationTicks": 192,
          "midi": 66,
          "name": "F#4",
          "ticks": 9984,
          "time": 14.311908,
          "velocity": 0.11811023622047244
        },
        {
          "duration": 0.2752289999999995,
          "durationTicks": 192,
          "midi": 54,
          "name": "F#3",
          "ticks": 10176,
          "time": 14.587137,
          "velocity": 0.11811023622047244
        },
        {
          "duration": 0.2752289999999995,
          "durationTicks": 192,
          "midi": 61,
          "name": "C#4",
          "ticks": 10176,
          "time": 14.587137,
          "velocity": 0.11811023622047244
        },
        {
          "duration": 0.2752289999999995,
          "durationTicks": 192,
          "midi": 66,
          "name": "F#4",
          "ticks": 10368,
          "time": 14.862366,
          "velocity": 0.11811023622047244
        },
        {
          "duration": 0.2752289999999995,
          "durationTicks": 192,
          "midi": 50,
          "name": "D3",
          "ticks": 10368,
          "time": 14.862366,
          "velocity": 0.11811023622047244
        },
        {
          "duration": 0.2752290000000013,
          "durationTicks": 192,
          "midi": 61,
          "name": "C#4",
          "ticks": 10560,
          "time": 15.137595,
          "velocity": 0.11811023622047244
        },
        {
          "duration": 0.2752290000000013,
          "durationTicks": 192,
          "midi": 54,
          "name": "F#3",
          "ticks": 10560,
          "time": 15.137595,
          "velocity": 0.11811023622047244
        },
        {
          "duration": 0.2752289999999995,
          "durationTicks": 192,
          "midi": 66,
          "name": "F#4",
          "ticks": 10752,
          "time": 15.412824,
          "velocity": 0.11811023622047244
        },
        {
          "duration": 0.2752289999999995,
          "durationTicks": 192,
          "midi": 57,
          "name": "A3",
          "ticks": 10752,
          "time": 15.412824,
          "velocity": 0.11811023622047244
        },
        {
          "duration": 0.2752289999999995,
          "durationTicks": 192,
          "midi": 54,
          "name": "F#3",
          "ticks": 10944,
          "time": 15.688053,
          "velocity": 0.11811023622047244
        },
        {
          "duration": 0.2752289999999995,
          "durationTicks": 192,
          "midi": 61,
          "name": "C#4",
          "ticks": 10944,
          "time": 15.688053,
          "velocity": 0.11811023622047244
        },
        {
          "duration": 0.2752289999999995,
          "durationTicks": 192,
          "midi": 66,
          "name": "F#4",
          "ticks": 11136,
          "time": 15.963282,
          "velocity": 0.11811023622047244
        },
        {
          "duration": 0.2752289999999995,
          "durationTicks": 192,
          "midi": 57,
          "name": "A3",
          "ticks": 11136,
          "time": 15.963282,
          "velocity": 0.11811023622047244
        },
        {
          "duration": 0.2752289999999995,
          "durationTicks": 192,
          "midi": 61,
          "name": "C#4",
          "ticks": 11328,
          "time": 16.238511,
          "velocity": 0.11811023622047244
        },
        {
          "duration": 0.2752289999999995,
          "durationTicks": 192,
          "midi": 54,
          "name": "F#3",
          "ticks": 11328,
          "time": 16.238511,
          "velocity": 0.11811023622047244
        },
        {
          "duration": 0.27522900000000305,
          "durationTicks": 192,
          "midi": 47,
          "name": "B2",
          "ticks": 11520,
          "time": 16.51374,
          "velocity": 0.11811023622047244
        },
        {
          "duration": 0.27522900000000305,
          "durationTicks": 192,
          "midi": 59,
          "name": "B3",
          "ticks": 11520,
          "time": 16.51374,
          "velocity": 0.11811023622047244
        },
        {
          "duration": 0.2752289999999995,
          "durationTicks": 192,
          "midi": 51,
          "name": "D#3",
          "ticks": 11712,
          "time": 16.788969,
          "velocity": 0.11811023622047244
        },
        {
          "duration": 0.2752289999999995,
          "durationTicks": 192,
          "midi": 57,
          "name": "A3",
          "ticks": 11712,
          "time": 16.788969,
          "velocity": 0.11811023622047244
        },
        {
          "duration": 0.550457999999999,
          "durationTicks": 384,
          "midi": 61,
          "name": "C#4",
          "ticks": 11904,
          "time": 17.064198,
          "velocity": 0.11811023622047244
        },
        {
          "duration": 0.2752289999999995,
          "durationTicks": 192,
          "midi": 54,
          "name": "F#3",
          "ticks": 11904,
          "time": 17.064198,
          "velocity": 0.11811023622047244
        },
        {
          "duration": 0.2752289999999995,
          "durationTicks": 192,
          "midi": 51,
          "name": "D#3",
          "ticks": 12096,
          "time": 17.339427,
          "velocity": 0.11811023622047244
        },
        {
          "duration": 0.2752289999999995,
          "durationTicks": 192,
          "midi": 54,
          "name": "F#3",
          "ticks": 12288,
          "time": 17.614656,
          "velocity": 0.11811023622047244
        },
        {
          "duration": 0.2752289999999995,
          "durationTicks": 192,
          "midi": 57,
          "name": "A3",
          "ticks": 12288,
          "time": 17.614656,
          "velocity": 0.11811023622047244
        },
        {
          "duration": 0.2752289999999995,
          "durationTicks": 192,
          "midi": 51,
          "name": "D#3",
          "ticks": 12480,
          "time": 17.889885,
          "velocity": 0.11811023622047244
        },
        {
          "duration": 0.2752289999999995,
          "durationTicks": 192,
          "midi": 59,
          "name": "B3",
          "ticks": 12480,
          "time": 17.889885,
          "velocity": 0.11811023622047244
        },
        {
          "duration": 0.2752289999999995,
          "durationTicks": 192,
          "midi": 47,
          "name": "B2",
          "ticks": 12672,
          "time": 18.165114,
          "velocity": 0.11811023622047244
        },
        {
          "duration": 0.2752289999999995,
          "durationTicks": 192,
          "midi": 64,
          "name": "E4",
          "ticks": 12672,
          "time": 18.165114,
          "velocity": 0.11811023622047244
        },
        {
          "duration": 0.27522900000000305,
          "durationTicks": 192,
          "midi": 51,
          "name": "D#3",
          "ticks": 12864,
          "time": 18.440343,
          "velocity": 0.11811023622047244
        },
        {
          "duration": 0.27522900000000305,
          "durationTicks": 192,
          "midi": 63,
          "name": "D#4",
          "ticks": 12864,
          "time": 18.440343,
          "velocity": 0.11811023622047244
        },
        {
          "duration": 0.2752289999999995,
          "durationTicks": 192,
          "midi": 54,
          "name": "F#3",
          "ticks": 13056,
          "time": 18.715572,
          "velocity": 0.11811023622047244
        },
        {
          "duration": 0.2752289999999995,
          "durationTicks": 192,
          "midi": 64,
          "name": "E4",
          "ticks": 13056,
          "time": 18.715572,
          "velocity": 0.11811023622047244
        },
        {
          "duration": 0.2752289999999995,
          "durationTicks": 192,
          "midi": 66,
          "name": "F#4",
          "ticks": 13248,
          "time": 18.990801,
          "velocity": 0.11811023622047244
        },
        {
          "duration": 0.2752289999999995,
          "durationTicks": 192,
          "midi": 51,
          "name": "D#3",
          "ticks": 13248,
          "time": 18.990801,
          "velocity": 0.11811023622047244
        },
        {
          "duration": 0.2752289999999995,
          "durationTicks": 192,
          "midi": 54,
          "name": "F#3",
          "ticks": 13440,
          "time": 19.26603,
          "velocity": 0.11811023622047244
        },
        {
          "duration": 0.2752289999999995,
          "durationTicks": 192,
          "midi": 63,
          "name": "D#4",
          "ticks": 13440,
          "time": 19.26603,
          "velocity": 0.11811023622047244
        },
        {
          "duration": 0.2752289999999995,
          "durationTicks": 192,
          "midi": 51,
          "name": "D#3",
          "ticks": 13632,
          "time": 19.541259,
          "velocity": 0.11811023622047244
        },
        {
          "duration": 0.2752289999999995,
          "durationTicks": 192,
          "midi": 59,
          "name": "B3",
          "ticks": 13632,
          "time": 19.541259,
          "velocity": 0.11811023622047244
        },
        {
          "duration": 0.2752289999999995,
          "durationTicks": 192,
          "midi": 66,
          "name": "F#4",
          "ticks": 13824,
          "time": 19.816488,
          "velocity": 0.11811023622047244
        },
        {
          "duration": 0.2752289999999995,
          "durationTicks": 192,
          "midi": 43,
          "name": "G2",
          "ticks": 13824,
          "time": 19.816488,
          "velocity": 0.11811023622047244
        },
        {
          "duration": 0.2752289999999995,
          "durationTicks": 192,
          "midi": 59,
          "name": "B3",
          "ticks": 14016,
          "time": 20.091717,
          "velocity": 0.11811023622047244
        },
        {
          "duration": 0.2752289999999995,
          "durationTicks": 192,
          "midi": 47,
          "name": "B2",
          "ticks": 14016,
          "time": 20.091717,
          "velocity": 0.11811023622047244
        },
        {
          "duration": 0.27522900000000305,
          "durationTicks": 192,
          "midi": 50,
          "name": "D3",
          "ticks": 14208,
          "time": 20.366946,
          "velocity": 0.11811023622047244
        },
        {
          "duration": 0.27522900000000305,
          "durationTicks": 192,
          "midi": 66,
          "name": "F#4",
          "ticks": 14208,
          "time": 20.366946,
          "velocity": 0.11811023622047244
        },
        {
          "duration": 0.2752289999999995,
          "durationTicks": 192,
          "midi": 47,
          "name": "B2",
          "ticks": 14400,
          "time": 20.642175,
          "velocity": 0.11811023622047244
        },
        {
          "duration": 0.2752289999999995,
          "durationTicks": 192,
          "midi": 59,
          "name": "B3",
          "ticks": 14400,
          "time": 20.642175,
          "velocity": 0.11811023622047244
        },
        {
          "duration": 0.2752289999999995,
          "durationTicks": 192,
          "midi": 66,
          "name": "F#4",
          "ticks": 14592,
          "time": 20.917404,
          "velocity": 0.11811023622047244
        },
        {
          "duration": 0.2752289999999995,
          "durationTicks": 192,
          "midi": 50,
          "name": "D3",
          "ticks": 14592,
          "time": 20.917404,
          "velocity": 0.11811023622047244
        },
        {
          "duration": 0.2752289999999995,
          "durationTicks": 192,
          "midi": 59,
          "name": "B3",
          "ticks": 14784,
          "time": 21.192633,
          "velocity": 0.11811023622047244
        },
        {
          "duration": 0.2752289999999995,
          "durationTicks": 192,
          "midi": 47,
          "name": "B2",
          "ticks": 14784,
          "time": 21.192633,
          "velocity": 0.11811023622047244
        },
        {
          "duration": 0.2752289999999995,
          "durationTicks": 192,
          "midi": 66,
          "name": "F#4",
          "ticks": 14976,
          "time": 21.467862,
          "velocity": 0.11811023622047244
        },
        {
          "duration": 0.2752289999999995,
          "durationTicks": 192,
          "midi": 43,
          "name": "G2",
          "ticks": 14976,
          "time": 21.467862,
          "velocity": 0.11811023622047244
        },
        {
          "duration": 0.2752289999999995,
          "durationTicks": 192,
          "midi": 58,
          "name": "A#3",
          "ticks": 15168,
          "time": 21.743091,
          "velocity": 0.11811023622047244
        },
        {
          "duration": 0.2752289999999995,
          "durationTicks": 192,
          "midi": 46,
          "name": "A#2",
          "ticks": 15168,
          "time": 21.743091,
          "velocity": 0.11811023622047244
        },
        {
          "duration": 0.2752289999999995,
          "durationTicks": 192,
          "midi": 66,
          "name": "F#4",
          "ticks": 15360,
          "time": 22.01832,
          "velocity": 0.11811023622047244
        },
        {
          "duration": 0.2752289999999995,
          "durationTicks": 192,
          "midi": 50,
          "name": "D3",
          "ticks": 15360,
          "time": 22.01832,
          "velocity": 0.11811023622047244
        },
        {
          "duration": 0.27522900000000305,
          "durationTicks": 192,
          "midi": 58,
          "name": "A#3",
          "ticks": 15552,
          "time": 22.293549,
          "velocity": 0.11811023622047244
        },
        {
          "duration": 0.27522900000000305,
          "durationTicks": 192,
          "midi": 46,
          "name": "A#2",
          "ticks": 15552,
          "time": 22.293549,
          "velocity": 0.11811023622047244
        },
        {
          "duration": 0.2752289999999995,
          "durationTicks": 192,
          "midi": 50,
          "name": "D3",
          "ticks": 15744,
          "time": 22.568778000000002,
          "velocity": 0.11811023622047244
        },
        {
          "duration": 0.550457999999999,
          "durationTicks": 384,
          "midi": 67,
          "name": "G4",
          "ticks": 15744,
          "time": 22.568778000000002,
          "velocity": 0.11811023622047244
        },
        {
          "duration": 0.2752289999999995,
          "durationTicks": 192,
          "midi": 46,
          "name": "A#2",
          "ticks": 15936,
          "time": 22.844007,
          "velocity": 0.11811023622047244
        },
        {
          "duration": 0.2752289999999995,
          "durationTicks": 192,
          "midi": 66,
          "name": "F#4",
          "ticks": 16128,
          "time": 23.119236,
          "velocity": 0.11811023622047244
        },
        {
          "duration": 0.2752289999999995,
          "durationTicks": 192,
          "midi": 50,
          "name": "D3",
          "ticks": 16128,
          "time": 23.119236,
          "velocity": 0.11811023622047244
        },
        {
          "duration": 0.2752289999999995,
          "durationTicks": 192,
          "midi": 54,
          "name": "F#3",
          "ticks": 16320,
          "time": 23.394465,
          "velocity": 0.11811023622047244
        },
        {
          "duration": 0.2752289999999995,
          "durationTicks": 192,
          "midi": 62,
          "name": "D4",
          "ticks": 16320,
          "time": 23.394465,
          "velocity": 0.11811023622047244
        },
        {
          "duration": 0.2752289999999995,
          "durationTicks": 192,
          "midi": 57,
          "name": "A3",
          "ticks": 16512,
          "time": 23.669694,
          "velocity": 0.11811023622047244
        },
        {
          "duration": 0.2752289999999995,
          "durationTicks": 192,
          "midi": 66,
          "name": "F#4",
          "ticks": 16512,
          "time": 23.669694,
          "velocity": 0.11811023622047244
        },
        {
          "duration": 0.2752289999999995,
          "durationTicks": 192,
          "midi": 54,
          "name": "F#3",
          "ticks": 16704,
          "time": 23.944923,
          "velocity": 0.11811023622047244
        },
        {
          "duration": 0.2752289999999995,
          "durationTicks": 192,
          "midi": 62,
          "name": "D4",
          "ticks": 16704,
          "time": 23.944923,
          "velocity": 0.11811023622047244
        },
        {
          "duration": 0.27522900000000305,
          "durationTicks": 192,
          "midi": 64,
          "name": "E4",
          "ticks": 16896,
          "time": 24.220152,
          "velocity": 0.11811023622047244
        },
        {
          "duration": 0.27522900000000305,
          "durationTicks": 192,
          "midi": 57,
          "name": "A3",
          "ticks": 16896,
          "time": 24.220152,
          "velocity": 0.11811023622047244
        },
        {
          "duration": 0.2752289999999995,
          "durationTicks": 192,
          "midi": 54,
          "name": "F#3",
          "ticks": 17088,
          "time": 24.495381000000002,
          "velocity": 0.11811023622047244
        },
        {
          "duration": 0.2752289999999995,
          "durationTicks": 192,
          "midi": 66,
          "name": "F#4",
          "ticks": 17088,
          "time": 24.495381000000002,
          "velocity": 0.11811023622047244
        },
        {
          "duration": 0.2752289999999995,
          "durationTicks": 192,
          "midi": 49,
          "name": "C#3",
          "ticks": 17280,
          "time": 24.77061,
          "velocity": 0.11811023622047244
        },
        {
          "duration": 0.550457999999999,
          "durationTicks": 384,
          "midi": 64,
          "name": "E4",
          "ticks": 17280,
          "time": 24.77061,
          "velocity": 0.11811023622047244
        },
        {
          "duration": 0.2752289999999995,
          "durationTicks": 192,
          "midi": 52,
          "name": "E3",
          "ticks": 17472,
          "time": 25.045839,
          "velocity": 0.11811023622047244
        },
        {
          "duration": 0.550457999999999,
          "durationTicks": 384,
          "midi": 62,
          "name": "D4",
          "ticks": 17664,
          "time": 25.321068,
          "velocity": 0.11811023622047244
        },
        {
          "duration": 0.2752289999999995,
          "durationTicks": 192,
          "midi": 57,
          "name": "A3",
          "ticks": 17664,
          "time": 25.321068,
          "velocity": 0.11811023622047244
        },
        {
          "duration": 0.2752289999999995,
          "durationTicks": 192,
          "midi": 52,
          "name": "E3",
          "ticks": 17856,
          "time": 25.596297,
          "velocity": 0.11811023622047244
        },
        {
          "duration": 0.5504580000000026,
          "durationTicks": 384,
          "midi": 61,
          "name": "C#4",
          "ticks": 18048,
          "time": 25.871526,
          "velocity": 0.11811023622047244
        },
        {
          "duration": 0.2752289999999995,
          "durationTicks": 192,
          "midi": 57,
          "name": "A3",
          "ticks": 18048,
          "time": 25.871526,
          "velocity": 0.11811023622047244
        },
        {
          "duration": 0.27522900000000305,
          "durationTicks": 192,
          "midi": 52,
          "name": "E3",
          "ticks": 18240,
          "time": 26.146755,
          "velocity": 0.11811023622047244
        },
        {
          "duration": 0.2752289999999995,
          "durationTicks": 192,
          "midi": 66,
          "name": "F#4",
          "ticks": 18432,
          "time": 26.421984000000002,
          "velocity": 0.11811023622047244
        },
        {
          "duration": 0.2752289999999995,
          "durationTicks": 192,
          "midi": 50,
          "name": "D3",
          "ticks": 18432,
          "time": 26.421984000000002,
          "velocity": 0.11811023622047244
        },
        {
          "duration": 0.2752289999999995,
          "durationTicks": 192,
          "midi": 61,
          "name": "C#4",
          "ticks": 18624,
          "time": 26.697213,
          "velocity": 0.11811023622047244
        },
        {
          "duration": 0.2752289999999995,
          "durationTicks": 192,
          "midi": 54,
          "name": "F#3",
          "ticks": 18624,
          "time": 26.697213,
          "velocity": 0.11811023622047244
        },
        {
          "duration": 0.2752289999999995,
          "durationTicks": 192,
          "midi": 57,
          "name": "A3",
          "ticks": 18816,
          "time": 26.972442,
          "velocity": 0.11811023622047244
        },
        {
          "duration": 0.2752289999999995,
          "durationTicks": 192,
          "midi": 66,
          "name": "F#4",
          "ticks": 18816,
          "time": 26.972442,
          "velocity": 0.11811023622047244
        },
        {
          "duration": 0.2752289999999995,
          "durationTicks": 192,
          "midi": 61,
          "name": "C#4",
          "ticks": 19008,
          "time": 27.247671,
          "velocity": 0.11811023622047244
        },
        {
          "duration": 0.2752289999999995,
          "durationTicks": 192,
          "midi": 54,
          "name": "F#3",
          "ticks": 19008,
          "time": 27.247671,
          "velocity": 0.11811023622047244
        },
        {
          "duration": 0.2752289999999995,
          "durationTicks": 192,
          "midi": 57,
          "name": "A3",
          "ticks": 19200,
          "time": 27.5229,
          "velocity": 0.11811023622047244
        },
        {
          "duration": 0.2752289999999995,
          "durationTicks": 192,
          "midi": 66,
          "name": "F#4",
          "ticks": 19200,
          "time": 27.5229,
          "velocity": 0.11811023622047244
        },
        {
          "duration": 0.2752289999999995,
          "durationTicks": 192,
          "midi": 61,
          "name": "C#4",
          "ticks": 19392,
          "time": 27.798129,
          "velocity": 0.11811023622047244
        },
        {
          "duration": 0.2752289999999995,
          "durationTicks": 192,
          "midi": 54,
          "name": "F#3",
          "ticks": 19392,
          "time": 27.798129,
          "velocity": 0.11811023622047244
        },
        {
          "duration": 0.2752289999999995,
          "durationTicks": 192,
          "midi": 50,
          "name": "D3",
          "ticks": 19584,
          "time": 28.073358,
          "velocity": 0.11811023622047244
        },
        {
          "duration": 0.2752289999999995,
          "durationTicks": 192,
          "midi": 66,
          "name": "F#4",
          "ticks": 19584,
          "time": 28.073358,
          "velocity": 0.11811023622047244
        },
        {
          "duration": 0.27522900000000305,
          "durationTicks": 192,
          "midi": 54,
          "name": "F#3",
          "ticks": 19776,
          "time": 28.348587,
          "velocity": 0.11811023622047244
        },
        {
          "duration": 0.27522900000000305,
          "durationTicks": 192,
          "midi": 61,
          "name": "C#4",
          "ticks": 19776,
          "time": 28.348587,
          "velocity": 0.11811023622047244
        },
        {
          "duration": 0.2752289999999995,
          "durationTicks": 192,
          "midi": 57,
          "name": "A3",
          "ticks": 19968,
          "time": 28.623816,
          "velocity": 0.11811023622047244
        },
        {
          "duration": 0.2752289999999995,
          "durationTicks": 192,
          "midi": 66,
          "name": "F#4",
          "ticks": 19968,
          "time": 28.623816,
          "velocity": 0.11811023622047244
        },
        {
          "duration": 0.2752289999999995,
          "durationTicks": 192,
          "midi": 61,
          "name": "C#4",
          "ticks": 20160,
          "time": 28.899045,
          "velocity": 0.11811023622047244
        },
        {
          "duration": 0.2752289999999995,
          "durationTicks": 192,
          "midi": 54,
          "name": "F#3",
          "ticks": 20160,
          "time": 28.899045,
          "velocity": 0.11811023622047244
        },
        {
          "duration": 0.2752289999999995,
          "durationTicks": 192,
          "midi": 57,
          "name": "A3",
          "ticks": 20352,
          "time": 29.174274,
          "velocity": 0.11811023622047244
        },
        {
          "duration": 0.2752289999999995,
          "durationTicks": 192,
          "midi": 66,
          "name": "F#4",
          "ticks": 20352,
          "time": 29.174274,
          "velocity": 0.11811023622047244
        },
        {
          "duration": 0.2752289999999995,
          "durationTicks": 192,
          "midi": 61,
          "name": "C#4",
          "ticks": 20544,
          "time": 29.449503,
          "velocity": 0.11811023622047244
        },
        {
          "duration": 0.2752289999999995,
          "durationTicks": 192,
          "midi": 54,
          "name": "F#3",
          "ticks": 20544,
          "time": 29.449503,
          "velocity": 0.11811023622047244
        },
        {
          "duration": 0.2752289999999995,
          "durationTicks": 192,
          "midi": 59,
          "name": "B3",
          "ticks": 20736,
          "time": 29.724732,
          "velocity": 0.11811023622047244
        },
        {
          "duration": 0.2752289999999995,
          "durationTicks": 192,
          "midi": 47,
          "name": "B2",
          "ticks": 20736,
          "time": 29.724732,
          "velocity": 0.11811023622047244
        },
        {
          "duration": 0.2752289999999995,
          "durationTicks": 192,
          "midi": 57,
          "name": "A3",
          "ticks": 20928,
          "time": 29.999961,
          "velocity": 0.11811023622047244
        },
        {
          "duration": 0.2752289999999995,
          "durationTicks": 192,
          "midi": 51,
          "name": "D#3",
          "ticks": 20928,
          "time": 29.999961,
          "velocity": 0.11811023622047244
        },
        {
          "duration": 0.27522900000000305,
          "durationTicks": 192,
          "midi": 54,
          "name": "F#3",
          "ticks": 21120,
          "time": 30.27519,
          "velocity": 0.11811023622047244
        },
        {
          "duration": 0.5504580000000026,
          "durationTicks": 384,
          "midi": 61,
          "name": "C#4",
          "ticks": 21120,
          "time": 30.27519,
          "velocity": 0.11811023622047244
        },
        {
          "duration": 0.2752289999999995,
          "durationTicks": 192,
          "midi": 51,
          "name": "D#3",
          "ticks": 21312,
          "time": 30.550419,
          "velocity": 0.11811023622047244
        },
        {
          "duration": 0.2752289999999995,
          "durationTicks": 192,
          "midi": 57,
          "name": "A3",
          "ticks": 21504,
          "time": 30.825648,
          "velocity": 0.11811023622047244
        },
        {
          "duration": 0.2752289999999995,
          "durationTicks": 192,
          "midi": 54,
          "name": "F#3",
          "ticks": 21504,
          "time": 30.825648,
          "velocity": 0.11811023622047244
        },
        {
          "duration": 0.2752289999999995,
          "durationTicks": 192,
          "midi": 59,
          "name": "B3",
          "ticks": 21696,
          "time": 31.100877,
          "velocity": 0.11811023622047244
        },
        {
          "duration": 0.2752289999999995,
          "durationTicks": 192,
          "midi": 51,
          "name": "D#3",
          "ticks": 21696,
          "time": 31.100877,
          "velocity": 0.11811023622047244
        },
        {
          "duration": 0.2752289999999995,
          "durationTicks": 192,
          "midi": 47,
          "name": "B2",
          "ticks": 21888,
          "time": 31.376106,
          "velocity": 0.11811023622047244
        },
        {
          "duration": 0.2752289999999995,
          "durationTicks": 192,
          "midi": 64,
          "name": "E4",
          "ticks": 21888,
          "time": 31.376106,
          "velocity": 0.11811023622047244
        },
        {
          "duration": 0.2752289999999995,
          "durationTicks": 192,
          "midi": 51,
          "name": "D#3",
          "ticks": 22080,
          "time": 31.651335,
          "velocity": 0.11811023622047244
        },
        {
          "duration": 0.2752289999999995,
          "durationTicks": 192,
          "midi": 63,
          "name": "D#4",
          "ticks": 22080,
          "time": 31.651335,
          "velocity": 0.11811023622047244
        },
        {
          "duration": 0.27522900000000305,
          "durationTicks": 192,
          "midi": 64,
          "name": "E4",
          "ticks": 22272,
          "time": 31.926564,
          "velocity": 0.11811023622047244
        },
        {
          "duration": 0.27522900000000305,
          "durationTicks": 192,
          "midi": 54,
          "name": "F#3",
          "ticks": 22272,
          "time": 31.926564,
          "velocity": 0.11811023622047244
        },
        {
          "duration": 0.27522899999999595,
          "durationTicks": 192,
          "midi": 51,
          "name": "D#3",
          "ticks": 22464,
          "time": 32.201793,
          "velocity": 0.11811023622047244
        },
        {
          "duration": 0.27522899999999595,
          "durationTicks": 192,
          "midi": 66,
          "name": "F#4",
          "ticks": 22464,
          "time": 32.201793,
          "velocity": 0.11811023622047244
        },
        {
          "duration": 0.27522900000000305,
          "durationTicks": 192,
          "midi": 63,
          "name": "D#4",
          "ticks": 22656,
          "time": 32.477022,
          "velocity": 0.11811023622047244
        },
        {
          "duration": 0.27522900000000305,
          "durationTicks": 192,
          "midi": 54,
          "name": "F#3",
          "ticks": 22656,
          "time": 32.477022,
          "velocity": 0.11811023622047244
        },
        {
          "duration": 0.27522899999999595,
          "durationTicks": 192,
          "midi": 51,
          "name": "D#3",
          "ticks": 22848,
          "time": 32.752251,
          "velocity": 0.11811023622047244
        },
        {
          "duration": 0.27522899999999595,
          "durationTicks": 192,
          "midi": 59,
          "name": "B3",
          "ticks": 22848,
          "time": 32.752251,
          "velocity": 0.11811023622047244
        },
        {
          "duration": 0.27522900000000305,
          "durationTicks": 192,
          "midi": 43,
          "name": "G2",
          "ticks": 23040,
          "time": 33.02748,
          "velocity": 0.11811023622047244
        },
        {
          "duration": 0.27522900000000305,
          "durationTicks": 192,
          "midi": 66,
          "name": "F#4",
          "ticks": 23040,
          "time": 33.02748,
          "velocity": 0.11811023622047244
        },
        {
          "duration": 0.27522900000000305,
          "durationTicks": 192,
          "midi": 59,
          "name": "B3",
          "ticks": 23232,
          "time": 33.302709,
          "velocity": 0.11811023622047244
        },
        {
          "duration": 0.27522900000000305,
          "durationTicks": 192,
          "midi": 47,
          "name": "B2",
          "ticks": 23232,
          "time": 33.302709,
          "velocity": 0.11811023622047244
        },
        {
          "duration": 0.27522899999999595,
          "durationTicks": 192,
          "midi": 50,
          "name": "D3",
          "ticks": 23424,
          "time": 33.577938,
          "velocity": 0.11811023622047244
        },
        {
          "duration": 0.27522899999999595,
          "durationTicks": 192,
          "midi": 66,
          "name": "F#4",
          "ticks": 23424,
          "time": 33.577938,
          "velocity": 0.11811023622047244
        },
        {
          "duration": 0.27522900000000305,
          "durationTicks": 192,
          "midi": 59,
          "name": "B3",
          "ticks": 23616,
          "time": 33.853167,
          "velocity": 0.11811023622047244
        },
        {
          "duration": 0.27522900000000305,
          "durationTicks": 192,
          "midi": 47,
          "name": "B2",
          "ticks": 23616,
          "time": 33.853167,
          "velocity": 0.11811023622047244
        },
        {
          "duration": 0.27522899999999595,
          "durationTicks": 192,
          "midi": 66,
          "name": "F#4",
          "ticks": 23808,
          "time": 34.128396,
          "velocity": 0.11811023622047244
        },
        {
          "duration": 0.27522899999999595,
          "durationTicks": 192,
          "midi": 50,
          "name": "D3",
          "ticks": 23808,
          "time": 34.128396,
          "velocity": 0.11811023622047244
        },
        {
          "duration": 0.27522900000000305,
          "durationTicks": 192,
          "midi": 59,
          "name": "B3",
          "ticks": 24000,
          "time": 34.403625,
          "velocity": 0.11811023622047244
        },
        {
          "duration": 0.27522900000000305,
          "durationTicks": 192,
          "midi": 47,
          "name": "B2",
          "ticks": 24000,
          "time": 34.403625,
          "velocity": 0.11811023622047244
        },
        {
          "duration": 0.27522899999999595,
          "durationTicks": 192,
          "midi": 43,
          "name": "G2",
          "ticks": 24192,
          "time": 34.678854,
          "velocity": 0.11811023622047244
        },
        {
          "duration": 0.27522899999999595,
          "durationTicks": 192,
          "midi": 66,
          "name": "F#4",
          "ticks": 24192,
          "time": 34.678854,
          "velocity": 0.11811023622047244
        },
        {
          "duration": 0.27522900000000305,
          "durationTicks": 192,
          "midi": 58,
          "name": "A#3",
          "ticks": 24384,
          "time": 34.954083,
          "velocity": 0.11811023622047244
        },
        {
          "duration": 0.27522900000000305,
          "durationTicks": 192,
          "midi": 46,
          "name": "A#2",
          "ticks": 24384,
          "time": 34.954083,
          "velocity": 0.11811023622047244
        },
        {
          "duration": 0.27522900000000305,
          "durationTicks": 192,
          "midi": 66,
          "name": "F#4",
          "ticks": 24576,
          "time": 35.229312,
          "velocity": 0.11811023622047244
        },
        {
          "duration": 0.27522900000000305,
          "durationTicks": 192,
          "midi": 50,
          "name": "D3",
          "ticks": 24576,
          "time": 35.229312,
          "velocity": 0.11811023622047244
        },
        {
          "duration": 0.27522899999999595,
          "durationTicks": 192,
          "midi": 46,
          "name": "A#2",
          "ticks": 24768,
          "time": 35.504541,
          "velocity": 0.11811023622047244
        },
        {
          "duration": 0.27522899999999595,
          "durationTicks": 192,
          "midi": 58,
          "name": "A#3",
          "ticks": 24768,
          "time": 35.504541,
          "velocity": 0.11811023622047244
        },
        {
          "duration": 0.27522900000000305,
          "durationTicks": 192,
          "midi": 50,
          "name": "D3",
          "ticks": 24960,
          "time": 35.77977,
          "velocity": 0.11811023622047244
        },
        {
          "duration": 0.550457999999999,
          "durationTicks": 384,
          "midi": 67,
          "name": "G4",
          "ticks": 24960,
          "time": 35.77977,
          "velocity": 0.11811023622047244
        },
        {
          "duration": 0.27522899999999595,
          "durationTicks": 192,
          "midi": 46,
          "name": "A#2",
          "ticks": 25152,
          "time": 36.054999,
          "velocity": 0.11811023622047244
        },
        {
          "duration": 0.27522900000000305,
          "durationTicks": 192,
          "midi": 50,
          "name": "D3",
          "ticks": 25344,
          "time": 36.330228,
          "velocity": 0.11811023622047244
        },
        {
          "duration": 0.27522900000000305,
          "durationTicks": 192,
          "midi": 66,
          "name": "F#4",
          "ticks": 25344,
          "time": 36.330228,
          "velocity": 0.11811023622047244
        },
        {
          "duration": 0.27522899999999595,
          "durationTicks": 192,
          "midi": 54,
          "name": "F#3",
          "ticks": 25536,
          "time": 36.605457,
          "velocity": 0.11811023622047244
        },
        {
          "duration": 0.27522899999999595,
          "durationTicks": 192,
          "midi": 62,
          "name": "D4",
          "ticks": 25536,
          "time": 36.605457,
          "velocity": 0.11811023622047244
        },
        {
          "duration": 0.27522900000000305,
          "durationTicks": 192,
          "midi": 57,
          "name": "A3",
          "ticks": 25728,
          "time": 36.880686,
          "velocity": 0.11811023622047244
        },
        {
          "duration": 0.27522900000000305,
          "durationTicks": 192,
          "midi": 66,
          "name": "F#4",
          "ticks": 25728,
          "time": 36.880686,
          "velocity": 0.11811023622047244
        },
        {
          "duration": 0.27522900000000305,
          "durationTicks": 192,
          "midi": 54,
          "name": "F#3",
          "ticks": 25920,
          "time": 37.155915,
          "velocity": 0.11811023622047244
        },
        {
          "duration": 0.27522900000000305,
          "durationTicks": 192,
          "midi": 62,
          "name": "D4",
          "ticks": 25920,
          "time": 37.155915,
          "velocity": 0.11811023622047244
        },
        {
          "duration": 0.27522899999999595,
          "durationTicks": 192,
          "midi": 57,
          "name": "A3",
          "ticks": 26112,
          "time": 37.431144,
          "velocity": 0.11811023622047244
        },
        {
          "duration": 0.27522899999999595,
          "durationTicks": 192,
          "midi": 64,
          "name": "E4",
          "ticks": 26112,
          "time": 37.431144,
          "velocity": 0.11811023622047244
        },
        {
          "duration": 0.27522900000000305,
          "durationTicks": 192,
          "midi": 66,
          "name": "F#4",
          "ticks": 26304,
          "time": 37.706373,
          "velocity": 0.11811023622047244
        },
        {
          "duration": 0.27522900000000305,
          "durationTicks": 192,
          "midi": 54,
          "name": "F#3",
          "ticks": 26304,
          "time": 37.706373,
          "velocity": 0.11811023622047244
        },
        {
          "duration": 0.27522899999999595,
          "durationTicks": 192,
          "midi": 49,
          "name": "C#3",
          "ticks": 26496,
          "time": 37.981602,
          "velocity": 0.11811023622047244
        },
        {
          "duration": 0.550457999999999,
          "durationTicks": 384,
          "midi": 64,
          "name": "E4",
          "ticks": 26496,
          "time": 37.981602,
          "velocity": 0.11811023622047244
        },
        {
          "duration": 0.27522900000000305,
          "durationTicks": 192,
          "midi": 52,
          "name": "E3",
          "ticks": 26688,
          "time": 38.256831,
          "velocity": 0.11811023622047244
        },
        {
          "duration": 0.550457999999999,
          "durationTicks": 384,
          "midi": 62,
          "name": "D4",
          "ticks": 26880,
          "time": 38.53206,
          "velocity": 0.11811023622047244
        },
        {
          "duration": 0.27522899999999595,
          "durationTicks": 192,
          "midi": 57,
          "name": "A3",
          "ticks": 26880,
          "time": 38.53206,
          "velocity": 0.11811023622047244
        },
        {
          "duration": 0.27522900000000305,
          "durationTicks": 192,
          "midi": 52,
          "name": "E3",
          "ticks": 27072,
          "time": 38.807289,
          "velocity": 0.11811023622047244
        },
        {
          "duration": 0.27522900000000305,
          "durationTicks": 192,
          "midi": 57,
          "name": "A3",
          "ticks": 27264,
          "time": 39.082518,
          "velocity": 0.11811023622047244
        },
        {
          "duration": 0.550457999999999,
          "durationTicks": 384,
          "midi": 61,
          "name": "C#4",
          "ticks": 27264,
          "time": 39.082518,
          "velocity": 0.11811023622047244
        },
        {
          "duration": 0.27522899999999595,
          "durationTicks": 192,
          "midi": 52,
          "name": "E3",
          "ticks": 27456,
          "time": 39.357747,
          "velocity": 0.11811023622047244
        },
        {
          "duration": 0.27522900000000305,
          "durationTicks": 192,
          "midi": 50,
          "name": "D3",
          "ticks": 27648,
          "time": 39.632976,
          "velocity": 0.11811023622047244
        },
        {
          "duration": 0.27522900000000305,
          "durationTicks": 192,
          "midi": 66,
          "name": "F#4",
          "ticks": 27648,
          "time": 39.632976,
          "velocity": 0.11811023622047244
        },
        {
          "duration": 0.27522899999999595,
          "durationTicks": 192,
          "midi": 54,
          "name": "F#3",
          "ticks": 27840,
          "time": 39.908205,
          "velocity": 0.11811023622047244
        },
        {
          "duration": 0.27522899999999595,
          "durationTicks": 192,
          "midi": 61,
          "name": "C#4",
          "ticks": 27840,
          "time": 39.908205,
          "velocity": 0.11811023622047244
        },
        {
          "duration": 0.27522900000000305,
          "durationTicks": 192,
          "midi": 66,
          "name": "F#4",
          "ticks": 28032,
          "time": 40.183434,
          "velocity": 0.11811023622047244
        },
        {
          "duration": 0.27522900000000305,
          "durationTicks": 192,
          "midi": 57,
          "name": "A3",
          "ticks": 28032,
          "time": 40.183434,
          "velocity": 0.11811023622047244
        },
        {
          "duration": 0.27522899999999595,
          "durationTicks": 192,
          "midi": 54,
          "name": "F#3",
          "ticks": 28224,
          "time": 40.458663,
          "velocity": 0.11811023622047244
        },
        {
          "duration": 0.27522899999999595,
          "durationTicks": 192,
          "midi": 61,
          "name": "C#4",
          "ticks": 28224,
          "time": 40.458663,
          "velocity": 0.11811023622047244
        },
        {
          "duration": 0.27522900000000305,
          "durationTicks": 192,
          "midi": 57,
          "name": "A3",
          "ticks": 28416,
          "time": 40.733892,
          "velocity": 0.11811023622047244
        },
        {
          "duration": 0.27522900000000305,
          "durationTicks": 192,
          "midi": 66,
          "name": "F#4",
          "ticks": 28416,
          "time": 40.733892,
          "velocity": 0.11811023622047244
        },
        {
          "duration": 0.27522900000000305,
          "durationTicks": 192,
          "midi": 61,
          "name": "C#4",
          "ticks": 28608,
          "time": 41.009121,
          "velocity": 0.11811023622047244
        },
        {
          "duration": 0.27522900000000305,
          "durationTicks": 192,
          "midi": 54,
          "name": "F#3",
          "ticks": 28608,
          "time": 41.009121,
          "velocity": 0.11811023622047244
        },
        {
          "duration": 0.27522899999999595,
          "durationTicks": 192,
          "midi": 66,
          "name": "F#4",
          "ticks": 28800,
          "time": 41.28435,
          "velocity": 0.11811023622047244
        },
        {
          "duration": 0.27522899999999595,
          "durationTicks": 192,
          "midi": 50,
          "name": "D3",
          "ticks": 28800,
          "time": 41.28435,
          "velocity": 0.11811023622047244
        },
        {
          "duration": 0.27522900000000305,
          "durationTicks": 192,
          "midi": 54,
          "name": "F#3",
          "ticks": 28992,
          "time": 41.559579,
          "velocity": 0.11811023622047244
        },
        {
          "duration": 0.27522900000000305,
          "durationTicks": 192,
          "midi": 61,
          "name": "C#4",
          "ticks": 28992,
          "time": 41.559579,
          "velocity": 0.11811023622047244
        },
        {
          "duration": 0.27522899999999595,
          "durationTicks": 192,
          "midi": 57,
          "name": "A3",
          "ticks": 29184,
          "time": 41.834808,
          "velocity": 0.11811023622047244
        },
        {
          "duration": 0.27522899999999595,
          "durationTicks": 192,
          "midi": 66,
          "name": "F#4",
          "ticks": 29184,
          "time": 41.834808,
          "velocity": 0.11811023622047244
        },
        {
          "duration": 0.27522900000000305,
          "durationTicks": 192,
          "midi": 54,
          "name": "F#3",
          "ticks": 29376,
          "time": 42.110037,
          "velocity": 0.11811023622047244
        },
        {
          "duration": 0.27522900000000305,
          "durationTicks": 192,
          "midi": 61,
          "name": "C#4",
          "ticks": 29376,
          "time": 42.110037,
          "velocity": 0.11811023622047244
        },
        {
          "duration": 0.27522899999999595,
          "durationTicks": 192,
          "midi": 57,
          "name": "A3",
          "ticks": 29568,
          "time": 42.385266,
          "velocity": 0.11811023622047244
        },
        {
          "duration": 0.27522899999999595,
          "durationTicks": 192,
          "midi": 66,
          "name": "F#4",
          "ticks": 29568,
          "time": 42.385266,
          "velocity": 0.11811023622047244
        },
        {
          "duration": 0.27522900000000305,
          "durationTicks": 192,
          "midi": 61,
          "name": "C#4",
          "ticks": 29760,
          "time": 42.660495,
          "velocity": 0.11811023622047244
        },
        {
          "duration": 0.27522900000000305,
          "durationTicks": 192,
          "midi": 54,
          "name": "F#3",
          "ticks": 29760,
          "time": 42.660495,
          "velocity": 0.11811023622047244
        },
        {
          "duration": 0.27522900000000305,
          "durationTicks": 192,
          "midi": 47,
          "name": "B2",
          "ticks": 29952,
          "time": 42.935724,
          "velocity": 0.11811023622047244
        },
        {
          "duration": 0.27522900000000305,
          "durationTicks": 192,
          "midi": 59,
          "name": "B3",
          "ticks": 29952,
          "time": 42.935724,
          "velocity": 0.11811023622047244
        },
        {
          "duration": 0.27522899999999595,
          "durationTicks": 192,
          "midi": 57,
          "name": "A3",
          "ticks": 30144,
          "time": 43.210953,
          "velocity": 0.11811023622047244
        },
        {
          "duration": 0.27522899999999595,
          "durationTicks": 192,
          "midi": 51,
          "name": "D#3",
          "ticks": 30144,
          "time": 43.210953,
          "velocity": 0.11811023622047244
        },
        {
          "duration": 0.27522900000000305,
          "durationTicks": 192,
          "midi": 54,
          "name": "F#3",
          "ticks": 30336,
          "time": 43.486182,
          "velocity": 0.11811023622047244
        },
        {
          "duration": 0.550457999999999,
          "durationTicks": 384,
          "midi": 61,
          "name": "C#4",
          "ticks": 30336,
          "time": 43.486182,
          "velocity": 0.11811023622047244
        },
        {
          "duration": 0.27522899999999595,
          "durationTicks": 192,
          "midi": 51,
          "name": "D#3",
          "ticks": 30528,
          "time": 43.761411,
          "velocity": 0.11811023622047244
        },
        {
          "duration": 0.27522900000000305,
          "durationTicks": 192,
          "midi": 57,
          "name": "A3",
          "ticks": 30720,
          "time": 44.03664,
          "velocity": 0.11811023622047244
        },
        {
          "duration": 0.27522900000000305,
          "durationTicks": 192,
          "midi": 54,
          "name": "F#3",
          "ticks": 30720,
          "time": 44.03664,
          "velocity": 0.11811023622047244
        },
        {
          "duration": 0.27522899999999595,
          "durationTicks": 192,
          "midi": 59,
          "name": "B3",
          "ticks": 30912,
          "time": 44.311869,
          "velocity": 0.11811023622047244
        },
        {
          "duration": 0.27522899999999595,
          "durationTicks": 192,
          "midi": 51,
          "name": "D#3",
          "ticks": 30912,
          "time": 44.311869,
          "velocity": 0.11811023622047244
        },
        {
          "duration": 0.27522900000000305,
          "durationTicks": 192,
          "midi": 47,
          "name": "B2",
          "ticks": 31104,
          "time": 44.587098,
          "velocity": 0.11811023622047244
        },
        {
          "duration": 0.27522900000000305,
          "durationTicks": 192,
          "midi": 64,
          "name": "E4",
          "ticks": 31104,
          "time": 44.587098,
          "velocity": 0.11811023622047244
        },
        {
          "duration": 0.27522900000000305,
          "durationTicks": 192,
          "midi": 51,
          "name": "D#3",
          "ticks": 31296,
          "time": 44.862327,
          "velocity": 0.11811023622047244
        },
        {
          "duration": 0.27522900000000305,
          "durationTicks": 192,
          "midi": 63,
          "name": "D#4",
          "ticks": 31296,
          "time": 44.862327,
          "velocity": 0.11811023622047244
        },
        {
          "duration": 0.27522899999999595,
          "durationTicks": 192,
          "midi": 64,
          "name": "E4",
          "ticks": 31488,
          "time": 45.137556000000004,
          "velocity": 0.11811023622047244
        },
        {
          "duration": 0.27522899999999595,
          "durationTicks": 192,
          "midi": 54,
          "name": "F#3",
          "ticks": 31488,
          "time": 45.137556000000004,
          "velocity": 0.11811023622047244
        },
        {
          "duration": 0.27522900000000305,
          "durationTicks": 192,
          "midi": 51,
          "name": "D#3",
          "ticks": 31680,
          "time": 45.412785,
          "velocity": 0.11811023622047244
        },
        {
          "duration": 0.27522900000000305,
          "durationTicks": 192,
          "midi": 66,
          "name": "F#4",
          "ticks": 31680,
          "time": 45.412785,
          "velocity": 0.11811023622047244
        },
        {
          "duration": 0.27522899999999595,
          "durationTicks": 192,
          "midi": 63,
          "name": "D#4",
          "ticks": 31872,
          "time": 45.688014,
          "velocity": 0.11811023622047244
        },
        {
          "duration": 0.27522899999999595,
          "durationTicks": 192,
          "midi": 54,
          "name": "F#3",
          "ticks": 31872,
          "time": 45.688014,
          "velocity": 0.11811023622047244
        },
        {
          "duration": 0.27522900000000305,
          "durationTicks": 192,
          "midi": 51,
          "name": "D#3",
          "ticks": 32064,
          "time": 45.963243,
          "velocity": 0.11811023622047244
        },
        {
          "duration": 0.27522900000000305,
          "durationTicks": 192,
          "midi": 59,
          "name": "B3",
          "ticks": 32064,
          "time": 45.963243,
          "velocity": 0.11811023622047244
        },
        {
          "duration": 0.27522899999999595,
          "durationTicks": 192,
          "midi": 66,
          "name": "F#4",
          "ticks": 32256,
          "time": 46.238472,
          "velocity": 0.11811023622047244
        },
        {
          "duration": 0.27522899999999595,
          "durationTicks": 192,
          "midi": 43,
          "name": "G2",
          "ticks": 32256,
          "time": 46.238472,
          "velocity": 0.11811023622047244
        },
        {
          "duration": 0.27522900000000305,
          "durationTicks": 192,
          "midi": 59,
          "name": "B3",
          "ticks": 32448,
          "time": 46.513701,
          "velocity": 0.11811023622047244
        },
        {
          "duration": 0.27522900000000305,
          "durationTicks": 192,
          "midi": 47,
          "name": "B2",
          "ticks": 32448,
          "time": 46.513701,
          "velocity": 0.11811023622047244
        },
        {
          "duration": 0.27522900000000305,
          "durationTicks": 192,
          "midi": 66,
          "name": "F#4",
          "ticks": 32640,
          "time": 46.78893,
          "velocity": 0.11811023622047244
        },
        {
          "duration": 0.27522900000000305,
          "durationTicks": 192,
          "midi": 50,
          "name": "D3",
          "ticks": 32640,
          "time": 46.78893,
          "velocity": 0.11811023622047244
        },
        {
          "duration": 0.27522899999999595,
          "durationTicks": 192,
          "midi": 47,
          "name": "B2",
          "ticks": 32832,
          "time": 47.064159000000004,
          "velocity": 0.11811023622047244
        },
        {
          "duration": 0.27522899999999595,
          "durationTicks": 192,
          "midi": 59,
          "name": "B3",
          "ticks": 32832,
          "time": 47.064159000000004,
          "velocity": 0.11811023622047244
        },
        {
          "duration": 0.27522900000000305,
          "durationTicks": 192,
          "midi": 66,
          "name": "F#4",
          "ticks": 33024,
          "time": 47.339388,
          "velocity": 0.11811023622047244
        },
        {
          "duration": 0.27522900000000305,
          "durationTicks": 192,
          "midi": 50,
          "name": "D3",
          "ticks": 33024,
          "time": 47.339388,
          "velocity": 0.11811023622047244
        },
        {
          "duration": 0.27522899999999595,
          "durationTicks": 192,
          "midi": 59,
          "name": "B3",
          "ticks": 33216,
          "time": 47.614617,
          "velocity": 0.11811023622047244
        },
        {
          "duration": 0.27522899999999595,
          "durationTicks": 192,
          "midi": 47,
          "name": "B2",
          "ticks": 33216,
          "time": 47.614617,
          "velocity": 0.11811023622047244
        },
        {
          "duration": 0.27522900000000305,
          "durationTicks": 192,
          "midi": 43,
          "name": "G2",
          "ticks": 33408,
          "time": 47.889846,
          "velocity": 0.11811023622047244
        },
        {
          "duration": 0.27522900000000305,
          "durationTicks": 192,
          "midi": 66,
          "name": "F#4",
          "ticks": 33408,
          "time": 47.889846,
          "velocity": 0.11811023622047244
        },
        {
          "duration": 0.27522899999999595,
          "durationTicks": 192,
          "midi": 46,
          "name": "A#2",
          "ticks": 33600,
          "time": 48.165075,
          "velocity": 0.11811023622047244
        },
        {
          "duration": 0.27522899999999595,
          "durationTicks": 192,
          "midi": 58,
          "name": "A#3",
          "ticks": 33600,
          "time": 48.165075,
          "velocity": 0.11811023622047244
        },
        {
          "duration": 0.27522900000000305,
          "durationTicks": 192,
          "midi": 66,
          "name": "F#4",
          "ticks": 33792,
          "time": 48.440304,
          "velocity": 0.11811023622047244
        },
        {
          "duration": 0.27522900000000305,
          "durationTicks": 192,
          "midi": 50,
          "name": "D3",
          "ticks": 33792,
          "time": 48.440304,
          "velocity": 0.11811023622047244
        },
        {
          "duration": 0.27522900000000305,
          "durationTicks": 192,
          "midi": 58,
          "name": "A#3",
          "ticks": 33984,
          "time": 48.715533,
          "velocity": 0.11811023622047244
        },
        {
          "duration": 0.27522900000000305,
          "durationTicks": 192,
          "midi": 46,
          "name": "A#2",
          "ticks": 33984,
          "time": 48.715533,
          "velocity": 0.11811023622047244
        },
        {
          "duration": 0.550457999999999,
          "durationTicks": 384,
          "midi": 67,
          "name": "G4",
          "ticks": 34176,
          "time": 48.990762000000004,
          "velocity": 0.11811023622047244
        },
        {
          "duration": 0.27522899999999595,
          "durationTicks": 192,
          "midi": 50,
          "name": "D3",
          "ticks": 34176,
          "time": 48.990762000000004,
          "velocity": 0.11811023622047244
        },
        {
          "duration": 0.27522900000000305,
          "durationTicks": 192,
          "midi": 46,
          "name": "A#2",
          "ticks": 34368,
          "time": 49.265991,
          "velocity": 0.11811023622047244
        },
        {
          "duration": 0.27522899999999595,
          "durationTicks": 192,
          "midi": 50,
          "name": "D3",
          "ticks": 34560,
          "time": 49.54122,
          "velocity": 0.11811023622047244
        },
        {
          "duration": 0.27522899999999595,
          "durationTicks": 192,
          "midi": 66,
          "name": "F#4",
          "ticks": 34560,
          "time": 49.54122,
          "velocity": 0.11811023622047244
        },
        {
          "duration": 0.27522900000000305,
          "durationTicks": 192,
          "midi": 54,
          "name": "F#3",
          "ticks": 34752,
          "time": 49.816449,
          "velocity": 0.11811023622047244
        },
        {
          "duration": 0.27522900000000305,
          "durationTicks": 192,
          "midi": 62,
          "name": "D4",
          "ticks": 34752,
          "time": 49.816449,
          "velocity": 0.11811023622047244
        },
        {
          "duration": 0.27522899999999595,
          "durationTicks": 192,
          "midi": 66,
          "name": "F#4",
          "ticks": 34944,
          "time": 50.091678,
          "velocity": 0.11811023622047244
        },
        {
          "duration": 0.27522899999999595,
          "durationTicks": 192,
          "midi": 57,
          "name": "A3",
          "ticks": 34944,
          "time": 50.091678,
          "velocity": 0.11811023622047244
        },
        {
          "duration": 0.27522900000000305,
          "durationTicks": 192,
          "midi": 62,
          "name": "D4",
          "ticks": 35136,
          "time": 50.366907,
          "velocity": 0.11811023622047244
        },
        {
          "duration": 0.27522900000000305,
          "durationTicks": 192,
          "midi": 54,
          "name": "F#3",
          "ticks": 35136,
          "time": 50.366907,
          "velocity": 0.11811023622047244
        },
        {
          "duration": 0.27522900000000305,
          "durationTicks": 192,
          "midi": 64,
          "name": "E4",
          "ticks": 35328,
          "time": 50.642136,
          "velocity": 0.11811023622047244
        },
        {
          "duration": 0.27522900000000305,
          "durationTicks": 192,
          "midi": 57,
          "name": "A3",
          "ticks": 35328,
          "time": 50.642136,
          "velocity": 0.11811023622047244
        },
        {
          "duration": 0.27522899999999595,
          "durationTicks": 192,
          "midi": 66,
          "name": "F#4",
          "ticks": 35520,
          "time": 50.917365000000004,
          "velocity": 0.11811023622047244
        },
        {
          "duration": 0.27522899999999595,
          "durationTicks": 192,
          "midi": 54,
          "name": "F#3",
          "ticks": 35520,
          "time": 50.917365000000004,
          "velocity": 0.11811023622047244
        },
        {
          "duration": 0.550457999999999,
          "durationTicks": 384,
          "midi": 61,
          "name": "C#4",
          "ticks": 35712,
          "time": 51.192594,
          "velocity": 0.11811023622047244
        },
        {
          "duration": 0.27522900000000305,
          "durationTicks": 192,
          "midi": 50,
          "name": "D3",
          "ticks": 35712,
          "time": 51.192594,
          "velocity": 0.11811023622047244
        },
        {
          "duration": 0.27522899999999595,
          "durationTicks": 192,
          "midi": 54,
          "name": "F#3",
          "ticks": 35904,
          "time": 51.467823,
          "velocity": 0.11811023622047244
        },
        {
          "duration": 0.27522900000000305,
          "durationTicks": 192,
          "midi": 57,
          "name": "A3",
          "ticks": 36096,
          "time": 51.743052,
          "velocity": 0.11811023622047244
        },
        {
          "duration": 0.550457999999999,
          "durationTicks": 384,
          "midi": 66,
          "name": "F#4",
          "ticks": 36096,
          "time": 51.743052,
          "velocity": 0.11811023622047244
        },
        {
          "duration": 0.27522899999999595,
          "durationTicks": 192,
          "midi": 54,
          "name": "F#3",
          "ticks": 36288,
          "time": 52.018281,
          "velocity": 0.11811023622047244
        },
        {
          "duration": 0.5504580000000061,
          "durationTicks": 384,
          "midi": 61,
          "name": "C#4",
          "ticks": 36480,
          "time": 52.29351,
          "velocity": 0.11811023622047244
        },
        {
          "duration": 0.27522900000000305,
          "durationTicks": 192,
          "midi": 57,
          "name": "A3",
          "ticks": 36480,
          "time": 52.29351,
          "velocity": 0.11811023622047244
        },
        {
          "duration": 0.27522900000000305,
          "durationTicks": 192,
          "midi": 54,
          "name": "F#3",
          "ticks": 36672,
          "time": 52.568739,
          "velocity": 0.11811023622047244
        },
        {
          "duration": 0.27522899999999595,
          "durationTicks": 192,
          "midi": 55,
          "name": "G3",
          "ticks": 36864,
          "time": 52.843968000000004,
          "velocity": 0.11811023622047244
        },
        {
          "duration": 0.825686999999995,
          "durationTicks": 576,
          "midi": 62,
          "name": "D4",
          "ticks": 36864,
          "time": 52.843968000000004,
          "velocity": 0.11811023622047244
        },
        {
          "duration": 0.27522900000000305,
          "durationTicks": 192,
          "midi": 50,
          "name": "D3",
          "ticks": 37056,
          "time": 53.119197,
          "velocity": 0.11811023622047244
        },
        {
          "duration": 0.27522899999999595,
          "durationTicks": 192,
          "midi": 55,
          "name": "G3",
          "ticks": 37248,
          "time": 53.394426,
          "velocity": 0.11811023622047244
        },
        {
          "duration": 0.27522900000000305,
          "durationTicks": 192,
          "midi": 50,
          "name": "D3",
          "ticks": 37440,
          "time": 53.669655,
          "velocity": 0.11811023622047244
        },
        {
          "duration": 0.27522900000000305,
          "durationTicks": 192,
          "midi": 57,
          "name": "A3",
          "ticks": 37440,
          "time": 53.669655,
          "velocity": 0.11811023622047244
        },
        {
          "duration": 0.27522899999999595,
          "durationTicks": 192,
          "midi": 55,
          "name": "G3",
          "ticks": 37632,
          "time": 53.944884,
          "velocity": 0.11811023622047244
        },
        {
          "duration": 0.27522899999999595,
          "durationTicks": 192,
          "midi": 59,
          "name": "B3",
          "ticks": 37632,
          "time": 53.944884,
          "velocity": 0.11811023622047244
        },
        {
          "duration": 0.27522900000000305,
          "durationTicks": 192,
          "midi": 54,
          "name": "F#3",
          "ticks": 37824,
          "time": 54.220113,
          "velocity": 0.11811023622047244
        },
        {
          "duration": 0.27522900000000305,
          "durationTicks": 192,
          "midi": 61,
          "name": "C#4",
          "ticks": 37824,
          "time": 54.220113,
          "velocity": 0.11811023622047244
        },
        {
          "duration": 0.550457999999999,
          "durationTicks": 384,
          "midi": 62,
          "name": "D4",
          "ticks": 38016,
          "time": 54.495342,
          "velocity": 0.11811023622047244
        },
        {
          "duration": 0.27522899999999595,
          "durationTicks": 192,
          "midi": 52,
          "name": "E3",
          "ticks": 38016,
          "time": 54.495342,
          "velocity": 0.11811023622047244
        },
        {
          "duration": 0.27522900000000305,
          "durationTicks": 192,
          "midi": 50,
          "name": "D3",
          "ticks": 38208,
          "time": 54.770571,
          "velocity": 0.11811023622047244
        },
        {
          "duration": 0.550457999999999,
          "durationTicks": 384,
          "midi": 61,
          "name": "C#4",
          "ticks": 38400,
          "time": 55.0458,
          "velocity": 0.11811023622047244
        },
        {
          "duration": 0.27522900000000305,
          "durationTicks": 192,
          "midi": 54,
          "name": "F#3",
          "ticks": 38400,
          "time": 55.0458,
          "velocity": 0.11811023622047244
        },
        {
          "duration": 0.27522899999999595,
          "durationTicks": 192,
          "midi": 45,
          "name": "A2",
          "ticks": 38592,
          "time": 55.321029,
          "velocity": 0.11811023622047244
        },
        {
          "duration": 0.27522900000000305,
          "durationTicks": 192,
          "midi": 47,
          "name": "B2",
          "ticks": 38784,
          "time": 55.596258,
          "velocity": 0.11811023622047244
        },
        {
          "duration": 0.550457999999999,
          "durationTicks": 384,
          "midi": 62,
          "name": "D4",
          "ticks": 38784,
          "time": 55.596258,
          "velocity": 0.11811023622047244
        },
        {
          "duration": 0.27522899999999595,
          "durationTicks": 192,
          "midi": 49,
          "name": "C#3",
          "ticks": 38976,
          "time": 55.871487,
          "velocity": 0.11811023622047244
        },
        {
          "duration": 0.8256870000000021,
          "durationTicks": 576,
          "midi": 57,
          "name": "A3",
          "ticks": 39168,
          "time": 56.146716,
          "velocity": 0.11811023622047244
        },
        {
          "duration": 0.27522900000000305,
          "durationTicks": 192,
          "midi": 52,
          "name": "E3",
          "ticks": 39168,
          "time": 56.146716,
          "velocity": 0.11811023622047244
        },
        {
          "duration": 0.27522899999999595,
          "durationTicks": 192,
          "midi": 54,
          "name": "F#3",
          "ticks": 39360,
          "time": 56.421945,
          "velocity": 0.11811023622047244
        },
        {
          "duration": 0.27522900000000305,
          "durationTicks": 192,
          "midi": 49,
          "name": "C#3",
          "ticks": 39552,
          "time": 56.697174,
          "velocity": 0.11811023622047244
        },
        {
          "duration": 0.27522900000000305,
          "durationTicks": 192,
          "midi": 59,
          "name": "B3",
          "ticks": 39744,
          "time": 56.972403,
          "velocity": 0.11811023622047244
        },
        {
          "duration": 0.27522900000000305,
          "durationTicks": 192,
          "midi": 54,
          "name": "F#3",
          "ticks": 39744,
          "time": 56.972403,
          "velocity": 0.11811023622047244
        },
        {
          "duration": 0.27522899999999595,
          "durationTicks": 192,
          "midi": 49,
          "name": "C#3",
          "ticks": 39936,
          "time": 57.247632,
          "velocity": 0.11811023622047244
        },
        {
          "duration": 0.27522899999999595,
          "durationTicks": 192,
          "midi": 57,
          "name": "A3",
          "ticks": 39936,
          "time": 57.247632,
          "velocity": 0.11811023622047244
        },
        {
          "duration": 0.27522900000000305,
          "durationTicks": 192,
          "midi": 55,
          "name": "G3",
          "ticks": 40128,
          "time": 57.522861,
          "velocity": 0.11811023622047244
        },
        {
          "duration": 0.27522900000000305,
          "durationTicks": 192,
          "midi": 43,
          "name": "G2",
          "ticks": 40128,
          "time": 57.522861,
          "velocity": 0.11811023622047244
        },
        {
          "duration": 0.27522899999999595,
          "durationTicks": 192,
          "midi": 45,
          "name": "A2",
          "ticks": 40320,
          "time": 57.79809,
          "velocity": 0.11811023622047244
        },
        {
          "duration": 0.550457999999999,
          "durationTicks": 384,
          "midi": 54,
          "name": "F#3",
          "ticks": 40320,
          "time": 57.79809,
          "velocity": 0.11811023622047244
        },
        {
          "duration": 0.27522900000000305,
          "durationTicks": 192,
          "midi": 49,
          "name": "C#3",
          "ticks": 40512,
          "time": 58.073319,
          "velocity": 0.11811023622047244
        },
        {
          "duration": 0.27522899999999595,
          "durationTicks": 192,
          "midi": 57,
          "name": "A3",
          "ticks": 40704,
          "time": 58.348548,
          "velocity": 0.11811023622047244
        },
        {
          "duration": 0.550457999999999,
          "durationTicks": 384,
          "midi": 66,
          "name": "F#4",
          "ticks": 40704,
          "time": 58.348548,
          "velocity": 0.11811023622047244
        },
        {
          "duration": 0.27522900000000305,
          "durationTicks": 192,
          "midi": 50,
          "name": "D3",
          "ticks": 40896,
          "time": 58.623777,
          "velocity": 0.11811023622047244
        },
        {
          "duration": 0.27522900000000305,
          "durationTicks": 192,
          "midi": 55,
          "name": "G3",
          "ticks": 41088,
          "time": 58.899006,
          "velocity": 0.11811023622047244
        },
        {
          "duration": 0.550457999999999,
          "durationTicks": 384,
          "midi": 64,
          "name": "E4",
          "ticks": 41088,
          "time": 58.899006,
          "velocity": 0.11811023622047244
        },
        {
          "duration": 0.27522899999999595,
          "durationTicks": 192,
          "midi": 54,
          "name": "F#3",
          "ticks": 41280,
          "time": 59.174235,
          "velocity": 0.11811023622047244
        },
        {
          "duration": 0.8256870000000021,
          "durationTicks": 576,
          "midi": 62,
          "name": "D4",
          "ticks": 41472,
          "time": 59.449464,
          "velocity": 0.11811023622047244
        },
        {
          "duration": 0.27522900000000305,
          "durationTicks": 192,
          "midi": 47,
          "name": "B2",
          "ticks": 41472,
          "time": 59.449464,
          "velocity": 0.11811023622047244
        },
        {
          "duration": 0.27522899999999595,
          "durationTicks": 192,
          "midi": 50,
          "name": "D3",
          "ticks": 41664,
          "time": 59.724693,
          "velocity": 0.11811023622047244
        },
        {
          "duration": 0.27522900000000305,
          "durationTicks": 192,
          "midi": 54,
          "name": "F#3",
          "ticks": 41856,
          "time": 59.999922,
          "velocity": 0.11811023622047244
        },
        {
          "duration": 0.27522899999999595,
          "durationTicks": 192,
          "midi": 57,
          "name": "A3",
          "ticks": 42048,
          "time": 60.275151,
          "velocity": 0.11811023622047244
        },
        {
          "duration": 0.27522899999999595,
          "durationTicks": 192,
          "midi": 50,
          "name": "D3",
          "ticks": 42048,
          "time": 60.275151,
          "velocity": 0.11811023622047244
        },
        {
          "duration": 0.27522900000000305,
          "durationTicks": 192,
          "midi": 54,
          "name": "F#3",
          "ticks": 42240,
          "time": 60.55038,
          "velocity": 0.11811023622047244
        },
        {
          "duration": 0.27522900000000305,
          "durationTicks": 192,
          "midi": 59,
          "name": "B3",
          "ticks": 42240,
          "time": 60.55038,
          "velocity": 0.11811023622047244
        },
        {
          "duration": 0.27522900000000305,
          "durationTicks": 192,
          "midi": 47,
          "name": "B2",
          "ticks": 42432,
          "time": 60.825609,
          "velocity": 0.11811023622047244
        },
        {
          "duration": 0.27522900000000305,
          "durationTicks": 192,
          "midi": 61,
          "name": "C#4",
          "ticks": 42432,
          "time": 60.825609,
          "velocity": 0.11811023622047244
        },
        {
          "duration": 0.550457999999999,
          "durationTicks": 384,
          "midi": 62,
          "name": "D4",
          "ticks": 42624,
          "time": 61.100838,
          "velocity": 0.11811023622047244
        },
        {
          "duration": 0.27522899999999595,
          "durationTicks": 192,
          "midi": 45,
          "name": "A2",
          "ticks": 42624,
          "time": 61.100838,
          "velocity": 0.11811023622047244
        },
        {
          "duration": 0.27522900000000305,
          "durationTicks": 192,
          "midi": 49,
          "name": "C#3",
          "ticks": 42816,
          "time": 61.376067,
          "velocity": 0.11811023622047244
        },
        {
          "duration": 0.550457999999999,
          "durationTicks": 384,
          "midi": 61,
          "name": "C#4",
          "ticks": 43008,
          "time": 61.651296,
          "velocity": 0.11811023622047244
        },
        {
          "duration": 0.27522899999999595,
          "durationTicks": 192,
          "midi": 52,
          "name": "E3",
          "ticks": 43008,
          "time": 61.651296,
          "velocity": 0.11811023622047244
        },
        {
          "duration": 0.27522900000000305,
          "durationTicks": 192,
          "midi": 49,
          "name": "C#3",
          "ticks": 43200,
          "time": 61.926525,
          "velocity": 0.11811023622047244
        },
        {
          "duration": 0.27522899999999595,
          "durationTicks": 192,
          "midi": 54,
          "name": "F#3",
          "ticks": 43392,
          "time": 62.201754,
          "velocity": 0.11811023622047244
        },
        {
          "duration": 0.550457999999999,
          "durationTicks": 384,
          "midi": 62,
          "name": "D4",
          "ticks": 43392,
          "time": 62.201754,
          "velocity": 0.11811023622047244
        },
        {
          "duration": 0.27522900000000305,
          "durationTicks": 192,
          "midi": 58,
          "name": "A#3",
          "ticks": 43584,
          "time": 62.476983,
          "velocity": 0.11811023622047244
        },
        {
          "duration": 0.27522900000000305,
          "durationTicks": 192,
          "midi": 59,
          "name": "B3",
          "ticks": 43776,
          "time": 62.752212,
          "velocity": 0.11811023622047244
        },
        {
          "duration": 0.8256870000000021,
          "durationTicks": 576,
          "midi": 66,
          "name": "F#4",
          "ticks": 43776,
          "time": 62.752212,
          "velocity": 0.11811023622047244
        },
        {
          "duration": 0.27522899999999595,
          "durationTicks": 192,
          "midi": 54,
          "name": "F#3",
          "ticks": 43968,
          "time": 63.027441,
          "velocity": 0.11811023622047244
        },
        {
          "duration": 0.27522900000000305,
          "durationTicks": 192,
          "midi": 52,
          "name": "E3",
          "ticks": 44160,
          "time": 63.30267,
          "velocity": 0.11811023622047244
        },
        {
          "duration": 0.27522899999999595,
          "durationTicks": 192,
          "midi": 47,
          "name": "B2",
          "ticks": 44352,
          "time": 63.577899,
          "velocity": 0.11811023622047244
        },
        {
          "duration": 0.27522899999999595,
          "durationTicks": 192,
          "midi": 67,
          "name": "G4",
          "ticks": 44352,
          "time": 63.577899,
          "velocity": 0.11811023622047244
        },
        {
          "duration": 0.27522899999999595,
          "durationTicks": 192,
          "midi": 50,
          "name": "D3",
          "ticks": 44544,
          "time": 63.853128,
          "velocity": 0.11811023622047244
        },
        {
          "duration": 0.27522899999999595,
          "durationTicks": 192,
          "midi": 66,
          "name": "F#4",
          "ticks": 44544,
          "time": 63.853128,
          "velocity": 0.11811023622047244
        },
        {
          "duration": 0.27522900000001016,
          "durationTicks": 192,
          "midi": 64,
          "name": "E4",
          "ticks": 44736,
          "time": 64.128357,
          "velocity": 0.11811023622047244
        },
        {
          "duration": 0.27522900000001016,
          "durationTicks": 192,
          "midi": 55,
          "name": "G3",
          "ticks": 44736,
          "time": 64.128357,
          "velocity": 0.11811023622047244
        },
        {
          "duration": 0.5504579999999919,
          "durationTicks": 384,
          "midi": 62,
          "name": "D4",
          "ticks": 44928,
          "time": 64.403586,
          "velocity": 0.11811023622047244
        },
        {
          "duration": 0.27522899999999595,
          "durationTicks": 192,
          "midi": 57,
          "name": "A3",
          "ticks": 44928,
          "time": 64.403586,
          "velocity": 0.11811023622047244
        },
        {
          "duration": 0.27522899999999595,
          "durationTicks": 192,
          "midi": 54,
          "name": "F#3",
          "ticks": 45120,
          "time": 64.678815,
          "velocity": 0.11811023622047244
        },
        {
          "duration": 0.27522900000001016,
          "durationTicks": 192,
          "midi": 52,
          "name": "E3",
          "ticks": 45312,
          "time": 64.954044,
          "velocity": 0.11811023622047244
        },
        {
          "duration": 0.5504580000000061,
          "durationTicks": 384,
          "midi": 64,
          "name": "E4",
          "ticks": 45312,
          "time": 64.954044,
          "velocity": 0.11811023622047244
        },
        {
          "duration": 0.27522899999999595,
          "durationTicks": 192,
          "midi": 50,
          "name": "D3",
          "ticks": 45504,
          "time": 65.229273,
          "velocity": 0.11811023622047244
        },
        {
          "duration": 0.27522899999999595,
          "durationTicks": 192,
          "midi": 52,
          "name": "E3",
          "ticks": 45696,
          "time": 65.504502,
          "velocity": 0.11811023622047244
        },
        {
          "duration": 0.5504579999999919,
          "durationTicks": 384,
          "midi": 61,
          "name": "C#4",
          "ticks": 45696,
          "time": 65.504502,
          "velocity": 0.11811023622047244
        },
        {
          "duration": 0.27522899999999595,
          "durationTicks": 192,
          "midi": 54,
          "name": "F#3",
          "ticks": 45888,
          "time": 65.779731,
          "velocity": 0.11811023622047244
        },
        {
          "duration": 0.8256870000000021,
          "durationTicks": 576,
          "midi": 62,
          "name": "D4",
          "ticks": 46080,
          "time": 66.05496,
          "velocity": 0.11811023622047244
        },
        {
          "duration": 0.27522900000001016,
          "durationTicks": 192,
          "midi": 55,
          "name": "G3",
          "ticks": 46080,
          "time": 66.05496,
          "velocity": 0.11811023622047244
        },
        {
          "duration": 0.27522899999999595,
          "durationTicks": 192,
          "midi": 50,
          "name": "D3",
          "ticks": 46272,
          "time": 66.330189,
          "velocity": 0.11811023622047244
        },
        {
          "duration": 0.27522899999999595,
          "durationTicks": 192,
          "midi": 55,
          "name": "G3",
          "ticks": 46464,
          "time": 66.605418,
          "velocity": 0.11811023622047244
        },
        {
          "duration": 0.27522900000001016,
          "durationTicks": 192,
          "midi": 57,
          "name": "A3",
          "ticks": 46656,
          "time": 66.880647,
          "velocity": 0.11811023622047244
        },
        {
          "duration": 0.27522900000001016,
          "durationTicks": 192,
          "midi": 50,
          "name": "D3",
          "ticks": 46656,
          "time": 66.880647,
          "velocity": 0.11811023622047244
        },
        {
          "duration": 0.27522899999999595,
          "durationTicks": 192,
          "midi": 59,
          "name": "B3",
          "ticks": 46848,
          "time": 67.155876,
          "velocity": 0.11811023622047244
        },
        {
          "duration": 0.27522899999999595,
          "durationTicks": 192,
          "midi": 55,
          "name": "G3",
          "ticks": 46848,
          "time": 67.155876,
          "velocity": 0.11811023622047244
        },
        {
          "duration": 0.27522899999999595,
          "durationTicks": 192,
          "midi": 61,
          "name": "C#4",
          "ticks": 47040,
          "time": 67.431105,
          "velocity": 0.11811023622047244
        },
        {
          "duration": 0.27522899999999595,
          "durationTicks": 192,
          "midi": 54,
          "name": "F#3",
          "ticks": 47040,
          "time": 67.431105,
          "velocity": 0.11811023622047244
        },
        {
          "duration": 0.5504580000000061,
          "durationTicks": 384,
          "midi": 62,
          "name": "D4",
          "ticks": 47232,
          "time": 67.706334,
          "velocity": 0.11811023622047244
        },
        {
          "duration": 0.27522899999999595,
          "durationTicks": 192,
          "midi": 52,
          "name": "E3",
          "ticks": 47232,
          "time": 67.706334,
          "velocity": 0.11811023622047244
        },
        {
          "duration": 0.27522900000001016,
          "durationTicks": 192,
          "midi": 50,
          "name": "D3",
          "ticks": 47424,
          "time": 67.981563,
          "velocity": 0.11811023622047244
        },
        {
          "duration": 0.5504579999999919,
          "durationTicks": 384,
          "midi": 61,
          "name": "C#4",
          "ticks": 47616,
          "time": 68.256792,
          "velocity": 0.11811023622047244
        },
        {
          "duration": 0.27522899999999595,
          "durationTicks": 192,
          "midi": 54,
          "name": "F#3",
          "ticks": 47616,
          "time": 68.256792,
          "velocity": 0.11811023622047244
        },
        {
          "duration": 0.27522899999999595,
          "durationTicks": 192,
          "midi": 45,
          "name": "A2",
          "ticks": 47808,
          "time": 68.532021,
          "velocity": 0.11811023622047244
        },
        {
          "duration": 0.5504580000000061,
          "durationTicks": 384,
          "midi": 62,
          "name": "D4",
          "ticks": 48000,
          "time": 68.80725,
          "velocity": 0.11811023622047244
        },
        {
          "duration": 0.27522900000001016,
          "durationTicks": 192,
          "midi": 47,
          "name": "B2",
          "ticks": 48000,
          "time": 68.80725,
          "velocity": 0.11811023622047244
        },
        {
          "duration": 0.27522899999999595,
          "durationTicks": 192,
          "midi": 49,
          "name": "C#3",
          "ticks": 48192,
          "time": 69.082479,
          "velocity": 0.11811023622047244
        },
        {
          "duration": 0.8256870000000021,
          "durationTicks": 576,
          "midi": 57,
          "name": "A3",
          "ticks": 48384,
          "time": 69.357708,
          "velocity": 0.11811023622047244
        },
        {
          "duration": 0.27522899999999595,
          "durationTicks": 192,
          "midi": 52,
          "name": "E3",
          "ticks": 48384,
          "time": 69.357708,
          "velocity": 0.11811023622047244
        },
        {
          "duration": 0.27522899999999595,
          "durationTicks": 192,
          "midi": 54,
          "name": "F#3",
          "ticks": 48576,
          "time": 69.632937,
          "velocity": 0.11811023622047244
        },
        {
          "duration": 0.27522900000001016,
          "durationTicks": 192,
          "midi": 49,
          "name": "C#3",
          "ticks": 48768,
          "time": 69.908166,
          "velocity": 0.11811023622047244
        },
        {
          "duration": 0.27522899999999595,
          "durationTicks": 192,
          "midi": 54,
          "name": "F#3",
          "ticks": 48960,
          "time": 70.183395,
          "velocity": 0.11811023622047244
        },
        {
          "duration": 0.27522899999999595,
          "durationTicks": 192,
          "midi": 59,
          "name": "B3",
          "ticks": 48960,
          "time": 70.183395,
          "velocity": 0.11811023622047244
        },
        {
          "duration": 0.27522899999999595,
          "durationTicks": 192,
          "midi": 57,
          "name": "A3",
          "ticks": 49152,
          "time": 70.458624,
          "velocity": 0.11811023622047244
        },
        {
          "duration": 0.27522899999999595,
          "durationTicks": 192,
          "midi": 49,
          "name": "C#3",
          "ticks": 49152,
          "time": 70.458624,
          "velocity": 0.11811023622047244
        },
        {
          "duration": 0.27522900000001016,
          "durationTicks": 192,
          "midi": 55,
          "name": "G3",
          "ticks": 49344,
          "time": 70.733853,
          "velocity": 0.11811023622047244
        },
        {
          "duration": 0.27522900000001016,
          "durationTicks": 192,
          "midi": 43,
          "name": "G2",
          "ticks": 49344,
          "time": 70.733853,
          "velocity": 0.11811023622047244
        },
        {
          "duration": 0.27522899999999595,
          "durationTicks": 192,
          "midi": 45,
          "name": "A2",
          "ticks": 49536,
          "time": 71.009082,
          "velocity": 0.11811023622047244
        },
        {
          "duration": 0.5504579999999919,
          "durationTicks": 384,
          "midi": 54,
          "name": "F#3",
          "ticks": 49536,
          "time": 71.009082,
          "velocity": 0.11811023622047244
        },
        {
          "duration": 0.27522899999999595,
          "durationTicks": 192,
          "midi": 49,
          "name": "C#3",
          "ticks": 49728,
          "time": 71.284311,
          "velocity": 0.11811023622047244
        },
        {
          "duration": 0.27522899999999595,
          "durationTicks": 192,
          "midi": 57,
          "name": "A3",
          "ticks": 49920,
          "time": 71.55954,
          "velocity": 0.11811023622047244
        },
        {
          "duration": 0.5504580000000061,
          "durationTicks": 384,
          "midi": 62,
          "name": "D4",
          "ticks": 49920,
          "time": 71.55954,
          "velocity": 0.11811023622047244
        },
        {
          "duration": 0.5504580000000061,
          "durationTicks": 384,
          "midi": 66,
          "name": "F#4",
          "ticks": 49920,
          "time": 71.55954,
          "velocity": 0.11811023622047244
        },
        {
          "duration": 0.27522900000001016,
          "durationTicks": 192,
          "midi": 50,
          "name": "D3",
          "ticks": 50112,
          "time": 71.834769,
          "velocity": 0.11811023622047244
        },
        {
          "duration": 0.27522899999999595,
          "durationTicks": 192,
          "midi": 55,
          "name": "G3",
          "ticks": 50304,
          "time": 72.109998,
          "velocity": 0.11811023622047244
        },
        {
          "duration": 0.5504579999999919,
          "durationTicks": 384,
          "midi": 64,
          "name": "E4",
          "ticks": 50304,
          "time": 72.109998,
          "velocity": 0.11811023622047244
        },
        {
          "duration": 0.5504579999999919,
          "durationTicks": 384,
          "midi": 61,
          "name": "C#4",
          "ticks": 50304,
          "time": 72.109998,
          "velocity": 0.11811023622047244
        },
        {
          "duration": 0.27522899999999595,
          "durationTicks": 192,
          "midi": 54,
          "name": "F#3",
          "ticks": 50496,
          "time": 72.385227,
          "velocity": 0.11811023622047244
        },
        {
          "duration": 0.8256870000000021,
          "durationTicks": 576,
          "midi": 59,
          "name": "B3",
          "ticks": 50688,
          "time": 72.660456,
          "velocity": 0.11811023622047244
        },
        {
          "duration": 0.8256870000000021,
          "durationTicks": 576,
          "midi": 62,
          "name": "D4",
          "ticks": 50688,
          "time": 72.660456,
          "velocity": 0.11811023622047244
        },
        {
          "duration": 0.27522900000001016,
          "durationTicks": 192,
          "midi": 47,
          "name": "B2",
          "ticks": 50688,
          "time": 72.660456,
          "velocity": 0.11811023622047244
        },
        {
          "duration": 0.27522899999999595,
          "durationTicks": 192,
          "midi": 50,
          "name": "D3",
          "ticks": 50880,
          "time": 72.935685,
          "velocity": 0.11811023622047244
        },
        {
          "duration": 0.27522899999999595,
          "durationTicks": 192,
          "midi": 54,
          "name": "F#3",
          "ticks": 51072,
          "time": 73.210914,
          "velocity": 0.11811023622047244
        },
        {
          "duration": 0.27522899999999595,
          "durationTicks": 192,
          "midi": 57,
          "name": "A3",
          "ticks": 51264,
          "time": 73.486143,
          "velocity": 0.11811023622047244
        },
        {
          "duration": 0.27522899999999595,
          "durationTicks": 192,
          "midi": 50,
          "name": "D3",
          "ticks": 51264,
          "time": 73.486143,
          "velocity": 0.11811023622047244
        },
        {
          "duration": 0.27522900000001016,
          "durationTicks": 192,
          "midi": 54,
          "name": "F#3",
          "ticks": 51456,
          "time": 73.761372,
          "velocity": 0.11811023622047244
        },
        {
          "duration": 0.27522900000001016,
          "durationTicks": 192,
          "midi": 59,
          "name": "B3",
          "ticks": 51456,
          "time": 73.761372,
          "velocity": 0.11811023622047244
        },
        {
          "duration": 0.27522899999999595,
          "durationTicks": 192,
          "midi": 47,
          "name": "B2",
          "ticks": 51648,
          "time": 74.036601,
          "velocity": 0.11811023622047244
        },
        {
          "duration": 0.27522899999999595,
          "durationTicks": 192,
          "midi": 61,
          "name": "C#4",
          "ticks": 51648,
          "time": 74.036601,
          "velocity": 0.11811023622047244
        },
        {
          "duration": 0.5504580000000061,
          "durationTicks": 384,
          "midi": 62,
          "name": "D4",
          "ticks": 51840,
          "time": 74.31183,
          "velocity": 0.11811023622047244
        },
        {
          "duration": 0.27522899999999595,
          "durationTicks": 192,
          "midi": 45,
          "name": "A2",
          "ticks": 51840,
          "time": 74.31183,
          "velocity": 0.11811023622047244
        },
        {
          "duration": 0.27522900000001016,
          "durationTicks": 192,
          "midi": 49,
          "name": "C#3",
          "ticks": 52032,
          "time": 74.587059,
          "velocity": 0.11811023622047244
        },
        {
          "duration": 0.5504579999999919,
          "durationTicks": 384,
          "midi": 61,
          "name": "C#4",
          "ticks": 52224,
          "time": 74.862288,
          "velocity": 0.11811023622047244
        },
        {
          "duration": 0.27522899999999595,
          "durationTicks": 192,
          "midi": 52,
          "name": "E3",
          "ticks": 52224,
          "time": 74.862288,
          "velocity": 0.11811023622047244
        },
        {
          "duration": 0.27522899999999595,
          "durationTicks": 192,
          "midi": 49,
          "name": "C#3",
          "ticks": 52416,
          "time": 75.137517,
          "velocity": 0.11811023622047244
        },
        {
          "duration": 0.27522899999999595,
          "durationTicks": 192,
          "midi": 54,
          "name": "F#3",
          "ticks": 52608,
          "time": 75.412746,
          "velocity": 0.11811023622047244
        },
        {
          "duration": 0.5504580000000061,
          "durationTicks": 384,
          "midi": 62,
          "name": "D4",
          "ticks": 52608,
          "time": 75.412746,
          "velocity": 0.11811023622047244
        },
        {
          "duration": 0.27522900000001016,
          "durationTicks": 192,
          "midi": 58,
          "name": "A#3",
          "ticks": 52800,
          "time": 75.687975,
          "velocity": 0.11811023622047244
        },
        {
          "duration": 0.27522899999999595,
          "durationTicks": 192,
          "midi": 66,
          "name": "F#4",
          "ticks": 52992,
          "time": 75.963204,
          "velocity": 0.11811023622047244
        },
        {
          "duration": 0.27522899999999595,
          "durationTicks": 192,
          "midi": 59,
          "name": "B3",
          "ticks": 52992,
          "time": 75.963204,
          "velocity": 0.11811023622047244
        },
        {
          "duration": 0.27522899999999595,
          "durationTicks": 192,
          "midi": 62,
          "name": "D4",
          "ticks": 53184,
          "time": 76.238433,
          "velocity": 0.11811023622047244
        },
        {
          "duration": 0.27522899999999595,
          "durationTicks": 192,
          "midi": 54,
          "name": "F#3",
          "ticks": 53184,
          "time": 76.238433,
          "velocity": 0.11811023622047244
        },
        {
          "duration": 0.27522900000001016,
          "durationTicks": 192,
          "midi": 59,
          "name": "B3",
          "ticks": 53376,
          "time": 76.513662,
          "velocity": 0.11811023622047244
        },
        {
          "duration": 0.27522900000001016,
          "durationTicks": 192,
          "midi": 66,
          "name": "F#4",
          "ticks": 53376,
          "time": 76.513662,
          "velocity": 0.11811023622047244
        },
        {
          "duration": 0.27522899999999595,
          "durationTicks": 192,
          "midi": 54,
          "name": "F#3",
          "ticks": 53568,
          "time": 76.788891,
          "velocity": 0.11811023622047244
        },
        {
          "duration": 0.27522899999999595,
          "durationTicks": 192,
          "midi": 62,
          "name": "D4",
          "ticks": 53568,
          "time": 76.788891,
          "velocity": 0.11811023622047244
        },
        {
          "duration": 0.27522899999999595,
          "durationTicks": 192,
          "midi": 64,
          "name": "E4",
          "ticks": 53760,
          "time": 77.06412,
          "velocity": 0.11811023622047244
        },
        {
          "duration": 0.27522899999999595,
          "durationTicks": 192,
          "midi": 59,
          "name": "B3",
          "ticks": 53760,
          "time": 77.06412,
          "velocity": 0.11811023622047244
        },
        {
          "duration": 0.27522899999999595,
          "durationTicks": 192,
          "midi": 54,
          "name": "F#3",
          "ticks": 53952,
          "time": 77.339349,
          "velocity": 0.11811023622047244
        },
        {
          "duration": 0.27522899999999595,
          "durationTicks": 192,
          "midi": 66,
          "name": "F#4",
          "ticks": 53952,
          "time": 77.339349,
          "velocity": 0.11811023622047244
        },
        {
          "duration": 0.5504580000000061,
          "durationTicks": 384,
          "midi": 64,
          "name": "E4",
          "ticks": 54144,
          "time": 77.614578,
          "velocity": 0.11811023622047244
        },
        {
          "duration": 0.27522900000001016,
          "durationTicks": 192,
          "midi": 49,
          "name": "C#3",
          "ticks": 54144,
          "time": 77.614578,
          "velocity": 0.11811023622047244
        },
        {
          "duration": 0.27522899999999595,
          "durationTicks": 192,
          "midi": 52,
          "name": "E3",
          "ticks": 54336,
          "time": 77.889807,
          "velocity": 0.11811023622047244
        },
        {
          "duration": 0.27522899999999595,
          "durationTicks": 192,
          "midi": 57,
          "name": "A3",
          "ticks": 54528,
          "time": 78.165036,
          "velocity": 0.11811023622047244
        },
        {
          "duration": 0.5504580000000061,
          "durationTicks": 384,
          "midi": 62,
          "name": "D4",
          "ticks": 54528,
          "time": 78.165036,
          "velocity": 0.11811023622047244
        },
        {
          "duration": 0.27522900000001016,
          "durationTicks": 192,
          "midi": 52,
          "name": "E3",
          "ticks": 54720,
          "time": 78.440265,
          "velocity": 0.11811023622047244
        },
        {
          "duration": 0.27522899999999595,
          "durationTicks": 192,
          "midi": 57,
          "name": "A3",
          "ticks": 54912,
          "time": 78.715494,
          "velocity": 0.11811023622047244
        },
        {
          "duration": 0.5504579999999919,
          "durationTicks": 384,
          "midi": 61,
          "name": "C#4",
          "ticks": 54912,
          "time": 78.715494,
          "velocity": 0.11811023622047244
        },
        {
          "duration": 0.27522899999999595,
          "durationTicks": 192,
          "midi": 52,
          "name": "E3",
          "ticks": 55104,
          "time": 78.990723,
          "velocity": 0.11811023622047244
        },
        {
          "duration": 0.27522899999999595,
          "durationTicks": 192,
          "midi": 50,
          "name": "D3",
          "ticks": 55296,
          "time": 79.265952,
          "velocity": 0.11811023622047244
        },
        {
          "duration": 0.13761450000001219,
          "durationTicks": 96,
          "midi": 54,
          "name": "F#3",
          "ticks": 55488,
          "time": 79.541181,
          "velocity": 0.11811023622047244
        },
        {
          "duration": 0.13761450000001219,
          "durationTicks": 96,
          "midi": 57,
          "name": "A3",
          "ticks": 55488,
          "time": 79.541181,
          "velocity": 0.11811023622047244
        },
        {
          "duration": 0.13761449999999797,
          "durationTicks": 96,
          "midi": 57,
          "name": "A3",
          "ticks": 55680,
          "time": 79.81641,
          "velocity": 0.11811023622047244
        },
        {
          "duration": 0.13761449999999797,
          "durationTicks": 96,
          "midi": 54,
          "name": "F#3",
          "ticks": 55680,
          "time": 79.81641,
          "velocity": 0.11811023622047244
        },
        {
          "duration": 0.27522899999999595,
          "durationTicks": 192,
          "midi": 57,
          "name": "A3",
          "ticks": 55680,
          "time": 79.81641,
          "velocity": 0.11811023622047244
        },
        {
          "duration": 0.27522899999999595,
          "durationTicks": 192,
          "midi": 50,
          "name": "D3",
          "ticks": 55872,
          "time": 80.091639,
          "velocity": 0.11811023622047244
        },
        {
          "duration": 0.8256870000000021,
          "durationTicks": 576,
          "midi": 69,
          "name": "A4",
          "ticks": 55872,
          "time": 80.091639,
          "velocity": 0.11811023622047244
        },
        {
          "duration": 0.13761449999999797,
          "durationTicks": 96,
          "midi": 54,
          "name": "F#3",
          "ticks": 56064,
          "time": 80.366868,
          "velocity": 0.11811023622047244
        },
        {
          "duration": 0.13761449999999797,
          "durationTicks": 96,
          "midi": 57,
          "name": "A3",
          "ticks": 56064,
          "time": 80.366868,
          "velocity": 0.11811023622047244
        },
        {
          "duration": 0.13761449999999797,
          "durationTicks": 96,
          "midi": 54,
          "name": "F#3",
          "ticks": 56256,
          "time": 80.642097,
          "velocity": 0.11811023622047244
        },
        {
          "duration": 0.13761449999999797,
          "durationTicks": 96,
          "midi": 57,
          "name": "A3",
          "ticks": 56256,
          "time": 80.642097,
          "velocity": 0.11811023622047244
        },
        {
          "duration": 1.6513740000000041,
          "durationTicks": 1152,
          "midi": 64,
          "name": "E4",
          "ticks": 56448,
          "time": 80.917326,
          "velocity": 0.11811023622047244
        },
        {
          "duration": 0.27522899999999595,
          "durationTicks": 192,
          "midi": 49,
          "name": "C#3",
          "ticks": 56448,
          "time": 80.917326,
          "velocity": 0.11811023622047244
        },
        {
          "duration": 0.13761449999999797,
          "durationTicks": 96,
          "midi": 52,
          "name": "E3",
          "ticks": 56640,
          "time": 81.192555,
          "velocity": 0.11811023622047244
        },
        {
          "duration": 0.13761449999999797,
          "durationTicks": 96,
          "midi": 57,
          "name": "A3",
          "ticks": 56640,
          "time": 81.192555,
          "velocity": 0.11811023622047244
        },
        {
          "duration": 0.13761450000001219,
          "durationTicks": 96,
          "midi": 57,
          "name": "A3",
          "ticks": 56832,
          "time": 81.467784,
          "velocity": 0.11811023622047244
        },
        {
          "duration": 0.13761450000001219,
          "durationTicks": 96,
          "midi": 52,
          "name": "E3",
          "ticks": 56832,
          "time": 81.467784,
          "velocity": 0.11811023622047244
        },
        {
          "duration": 0.27522899999999595,
          "durationTicks": 192,
          "midi": 49,
          "name": "C#3",
          "ticks": 57024,
          "time": 81.743013,
          "velocity": 0.11811023622047244
        },
        {
          "duration": 0.13761449999999797,
          "durationTicks": 96,
          "midi": 52,
          "name": "E3",
          "ticks": 57216,
          "time": 82.018242,
          "velocity": 0.11811023622047244
        },
        {
          "duration": 0.13761449999999797,
          "durationTicks": 96,
          "midi": 57,
          "name": "A3",
          "ticks": 57216,
          "time": 82.018242,
          "velocity": 0.11811023622047244
        },
        {
          "duration": 0.13761449999999797,
          "durationTicks": 96,
          "midi": 57,
          "name": "A3",
          "ticks": 57408,
          "time": 82.293471,
          "velocity": 0.11811023622047244
        },
        {
          "duration": 0.13761449999999797,
          "durationTicks": 96,
          "midi": 52,
          "name": "E3",
          "ticks": 57408,
          "time": 82.293471,
          "velocity": 0.11811023622047244
        },
        {
          "duration": 0.8256869999999878,
          "durationTicks": 576,
          "midi": 62,
          "name": "D4",
          "ticks": 57600,
          "time": 82.5687,
          "velocity": 0.11811023622047244
        },
        {
          "duration": 0.27522899999999595,
          "durationTicks": 192,
          "midi": 47,
          "name": "B2",
          "ticks": 57600,
          "time": 82.5687,
          "velocity": 0.11811023622047244
        },
        {
          "duration": 0.13761449999999797,
          "durationTicks": 96,
          "midi": 54,
          "name": "F#3",
          "ticks": 57792,
          "time": 82.843929,
          "velocity": 0.11811023622047244
        },
        {
          "duration": 0.13761449999999797,
          "durationTicks": 96,
          "midi": 50,
          "name": "D3",
          "ticks": 57792,
          "time": 82.843929,
          "velocity": 0.11811023622047244
        },
        {
          "duration": 0.13761449999999797,
          "durationTicks": 96,
          "midi": 54,
          "name": "F#3",
          "ticks": 57984,
          "time": 83.119158,
          "velocity": 0.11811023622047244
        },
        {
          "duration": 0.13761449999999797,
          "durationTicks": 96,
          "midi": 50,
          "name": "D3",
          "ticks": 57984,
          "time": 83.119158,
          "velocity": 0.11811023622047244
        },
        {
          "duration": 0.8256870000000021,
          "durationTicks": 576,
          "midi": 69,
          "name": "A4",
          "ticks": 58176,
          "time": 83.394387,
          "velocity": 0.11811023622047244
        },
        {
          "duration": 0.27522900000001016,
          "durationTicks": 192,
          "midi": 47,
          "name": "B2",
          "ticks": 58176,
          "time": 83.394387,
          "velocity": 0.11811023622047244
        },
        {
          "duration": 0.13761449999999797,
          "durationTicks": 96,
          "midi": 50,
          "name": "D3",
          "ticks": 58368,
          "time": 83.669616,
          "velocity": 0.11811023622047244
        },
        {
          "duration": 0.13761449999999797,
          "durationTicks": 96,
          "midi": 54,
          "name": "F#3",
          "ticks": 58368,
          "time": 83.669616,
          "velocity": 0.11811023622047244
        },
        {
          "duration": 0.13761449999999797,
          "durationTicks": 96,
          "midi": 54,
          "name": "F#3",
          "ticks": 58560,
          "time": 83.944845,
          "velocity": 0.11811023622047244
        },
        {
          "duration": 0.13761449999999797,
          "durationTicks": 96,
          "midi": 50,
          "name": "D3",
          "ticks": 58560,
          "time": 83.944845,
          "velocity": 0.11811023622047244
        },
        {
          "duration": 0.27522900000001016,
          "durationTicks": 192,
          "midi": 45,
          "name": "A2",
          "ticks": 58752,
          "time": 84.220074,
          "velocity": 0.11811023622047244
        },
        {
          "duration": 1.6513740000000041,
          "durationTicks": 1152,
          "midi": 57,
          "name": "A3",
          "ticks": 58752,
          "time": 84.220074,
          "velocity": 0.11811023622047244
        },
        {
          "duration": 0.13761449999999797,
          "durationTicks": 96,
          "midi": 49,
          "name": "C#3",
          "ticks": 58944,
          "time": 84.495303,
          "velocity": 0.11811023622047244
        },
        {
          "duration": 0.13761449999999797,
          "durationTicks": 96,
          "midi": 52,
          "name": "E3",
          "ticks": 58944,
          "time": 84.495303,
          "velocity": 0.11811023622047244
        },
        {
          "duration": 0.13761449999999797,
          "durationTicks": 96,
          "midi": 49,
          "name": "C#3",
          "ticks": 59136,
          "time": 84.770532,
          "velocity": 0.11811023622047244
        },
        {
          "duration": 0.13761449999999797,
          "durationTicks": 96,
          "midi": 52,
          "name": "E3",
          "ticks": 59136,
          "time": 84.770532,
          "velocity": 0.11811023622047244
        },
        {
          "duration": 0.27522899999999595,
          "durationTicks": 192,
          "midi": 45,
          "name": "A2",
          "ticks": 59328,
          "time": 85.045761,
          "velocity": 0.11811023622047244
        },
        {
          "duration": 0.13761450000001219,
          "durationTicks": 96,
          "midi": 49,
          "name": "C#3",
          "ticks": 59520,
          "time": 85.32099,
          "velocity": 0.11811023622047244
        },
        {
          "duration": 0.13761450000001219,
          "durationTicks": 96,
          "midi": 52,
          "name": "E3",
          "ticks": 59520,
          "time": 85.32099,
          "velocity": 0.11811023622047244
        },
        {
          "duration": 0.13761449999999797,
          "durationTicks": 96,
          "midi": 52,
          "name": "E3",
          "ticks": 59712,
          "time": 85.596219,
          "velocity": 0.11811023622047244
        },
        {
          "duration": 0.13761449999999797,
          "durationTicks": 96,
          "midi": 49,
          "name": "C#3",
          "ticks": 59712,
          "time": 85.596219,
          "velocity": 0.11811023622047244
        },
        {
          "duration": 0.8256870000000021,
          "durationTicks": 576,
          "midi": 57,
          "name": "A3",
          "ticks": 59904,
          "time": 85.871448,
          "velocity": 0.11811023622047244
        },
        {
          "duration": 0.27522899999999595,
          "durationTicks": 192,
          "midi": 43,
          "name": "G2",
          "ticks": 59904,
          "time": 85.871448,
          "velocity": 0.11811023622047244
        },
        {
          "duration": 0.13761449999999797,
          "durationTicks": 96,
          "midi": 47,
          "name": "B2",
          "ticks": 60096,
          "time": 86.146677,
          "velocity": 0.11811023622047244
        },
        {
          "duration": 0.13761449999999797,
          "durationTicks": 96,
          "midi": 50,
          "name": "D3",
          "ticks": 60096,
          "time": 86.146677,
          "velocity": 0.11811023622047244
        },
        {
          "duration": 0.13761449999999797,
          "durationTicks": 96,
          "midi": 50,
          "name": "D3",
          "ticks": 60288,
          "time": 86.421906,
          "velocity": 0.11811023622047244
        },
        {
          "duration": 0.13761449999999797,
          "durationTicks": 96,
          "midi": 47,
          "name": "B2",
          "ticks": 60288,
          "time": 86.421906,
          "velocity": 0.11811023622047244
        },
        {
          "duration": 0.8256870000000021,
          "durationTicks": 576,
          "midi": 62,
          "name": "D4",
          "ticks": 60480,
          "time": 86.697135,
          "velocity": 0.11811023622047244
        },
        {
          "duration": 0.27522899999999595,
          "durationTicks": 192,
          "midi": 43,
          "name": "G2",
          "ticks": 60480,
          "time": 86.697135,
          "velocity": 0.11811023622047244
        },
        {
          "duration": 0.13761449999999797,
          "durationTicks": 96,
          "midi": 47,
          "name": "B2",
          "ticks": 60672,
          "time": 86.972364,
          "velocity": 0.11811023622047244
        },
        {
          "duration": 0.13761449999999797,
          "durationTicks": 96,
          "midi": 50,
          "name": "D3",
          "ticks": 60672,
          "time": 86.972364,
          "velocity": 0.11811023622047244
        },
        {
          "duration": 0.13761450000001219,
          "durationTicks": 96,
          "midi": 50,
          "name": "D3",
          "ticks": 60864,
          "time": 87.247593,
          "velocity": 0.11811023622047244
        },
        {
          "duration": 0.13761450000001219,
          "durationTicks": 96,
          "midi": 47,
          "name": "B2",
          "ticks": 60864,
          "time": 87.247593,
          "velocity": 0.11811023622047244
        },
        {
          "duration": 0.27522899999999595,
          "durationTicks": 192,
          "midi": 42,
          "name": "F#2",
          "ticks": 61056,
          "time": 87.522822,
          "velocity": 0.11811023622047244
        },
        {
          "duration": 1.376144999999994,
          "durationTicks": 960,
          "midi": 69,
          "name": "A4",
          "ticks": 61056,
          "time": 87.522822,
          "velocity": 0.11811023622047244
        },
        {
          "duration": 0.13761449999999797,
          "durationTicks": 96,
          "midi": 50,
          "name": "D3",
          "ticks": 61248,
          "time": 87.798051,
          "velocity": 0.11811023622047244
        },
        {
          "duration": 0.13761449999999797,
          "durationTicks": 96,
          "midi": 45,
          "name": "A2",
          "ticks": 61248,
          "time": 87.798051,
          "velocity": 0.11811023622047244
        },
        {
          "duration": 0.13761449999999797,
          "durationTicks": 96,
          "midi": 50,
          "name": "D3",
          "ticks": 61440,
          "time": 88.07328,
          "velocity": 0.11811023622047244
        },
        {
          "duration": 0.13761449999999797,
          "durationTicks": 96,
          "midi": 45,
          "name": "A2",
          "ticks": 61440,
          "time": 88.07328,
          "velocity": 0.11811023622047244
        },
        {
          "duration": 0.27522899999999595,
          "durationTicks": 192,
          "midi": 42,
          "name": "F#2",
          "ticks": 61632,
          "time": 88.348509,
          "velocity": 0.11811023622047244
        },
        {
          "duration": 0.13761449999999797,
          "durationTicks": 96,
          "midi": 45,
          "name": "A2",
          "ticks": 61824,
          "time": 88.623738,
          "velocity": 0.11811023622047244
        },
        {
          "duration": 0.13761449999999797,
          "durationTicks": 96,
          "midi": 50,
          "name": "D3",
          "ticks": 61824,
          "time": 88.623738,
          "velocity": 0.11811023622047244
        },
        {
          "duration": 0.13761449999999797,
          "durationTicks": 96,
          "midi": 50,
          "name": "D3",
          "ticks": 62016,
          "time": 88.898967,
          "velocity": 0.11811023622047244
        },
        {
          "duration": 0.27522899999999595,
          "durationTicks": 192,
          "midi": 71,
          "name": "B4",
          "ticks": 62016,
          "time": 88.898967,
          "velocity": 0.11811023622047244
        },
        {
          "duration": 0.13761449999999797,
          "durationTicks": 96,
          "midi": 45,
          "name": "A2",
          "ticks": 62016,
          "time": 88.898967,
          "velocity": 0.11811023622047244
        },
        {
          "duration": 0.27522900000001016,
          "durationTicks": 192,
          "midi": 40,
          "name": "E2",
          "ticks": 62208,
          "time": 89.174196,
          "velocity": 0.11811023622047244
        },
        {
          "duration": 0.8256870000000021,
          "durationTicks": 576,
          "midi": 69,
          "name": "A4",
          "ticks": 62208,
          "time": 89.174196,
          "velocity": 0.11811023622047244
        },
        {
          "duration": 0.13761449999999797,
          "durationTicks": 96,
          "midi": 47,
          "name": "B2",
          "ticks": 62400,
          "time": 89.449425,
          "velocity": 0.11811023622047244
        },
        {
          "duration": 0.13761449999999797,
          "durationTicks": 96,
          "midi": 43,
          "name": "G2",
          "ticks": 62400,
          "time": 89.449425,
          "velocity": 0.11811023622047244
        },
        {
          "duration": 0.13761449999999797,
          "durationTicks": 96,
          "midi": 43,
          "name": "G2",
          "ticks": 62592,
          "time": 89.724654,
          "velocity": 0.11811023622047244
        },
        {
          "duration": 0.13761449999999797,
          "durationTicks": 96,
          "midi": 47,
          "name": "B2",
          "ticks": 62592,
          "time": 89.724654,
          "velocity": 0.11811023622047244
        },
        {
          "duration": 0.27522900000001016,
          "durationTicks": 192,
          "midi": 40,
          "name": "E2",
          "ticks": 62784,
          "time": 89.999883,
          "velocity": 0.11811023622047244
        },
        {
          "duration": 0.8256870000000021,
          "durationTicks": 576,
          "midi": 64,
          "name": "E4",
          "ticks": 62784,
          "time": 89.999883,
          "velocity": 0.11811023622047244
        },
        {
          "duration": 0.13761449999999797,
          "durationTicks": 96,
          "midi": 47,
          "name": "B2",
          "ticks": 62976,
          "time": 90.27511200000001,
          "velocity": 0.11811023622047244
        },
        {
          "duration": 0.13761449999999797,
          "durationTicks": 96,
          "midi": 43,
          "name": "G2",
          "ticks": 62976,
          "time": 90.27511200000001,
          "velocity": 0.11811023622047244
        },
        {
          "duration": 0.13761449999999797,
          "durationTicks": 96,
          "midi": 43,
          "name": "G2",
          "ticks": 63168,
          "time": 90.550341,
          "velocity": 0.11811023622047244
        },
        {
          "duration": 0.13761449999999797,
          "durationTicks": 96,
          "midi": 47,
          "name": "B2",
          "ticks": 63168,
          "time": 90.550341,
          "velocity": 0.11811023622047244
        },
        {
          "duration": 1.6513740000000041,
          "durationTicks": 1152,
          "midi": 62,
          "name": "D4",
          "ticks": 63360,
          "time": 90.82557,
          "velocity": 0.11811023622047244
        },
        {
          "duration": 0.27522899999999595,
          "durationTicks": 192,
          "midi": 45,
          "name": "A2",
          "ticks": 63360,
          "time": 90.82557,
          "velocity": 0.11811023622047244
        },
        {
          "duration": 0.13761450000001219,
          "durationTicks": 96,
          "midi": 52,
          "name": "E3",
          "ticks": 63552,
          "time": 91.100799,
          "velocity": 0.11811023622047244
        },
        {
          "duration": 0.13761450000001219,
          "durationTicks": 96,
          "midi": 49,
          "name": "C#3",
          "ticks": 63552,
          "time": 91.100799,
          "velocity": 0.11811023622047244
        },
        {
          "duration": 0.13761449999999797,
          "durationTicks": 96,
          "midi": 49,
          "name": "C#3",
          "ticks": 63744,
          "time": 91.376028,
          "velocity": 0.11811023622047244
        },
        {
          "duration": 0.13761449999999797,
          "durationTicks": 96,
          "midi": 52,
          "name": "E3",
          "ticks": 63744,
          "time": 91.376028,
          "velocity": 0.11811023622047244
        },
        {
          "duration": 0.27522899999999595,
          "durationTicks": 192,
          "midi": 45,
          "name": "A2",
          "ticks": 63936,
          "time": 91.651257,
          "velocity": 0.11811023622047244
        },
        {
          "duration": 0.13761449999999797,
          "durationTicks": 96,
          "midi": 49,
          "name": "C#3",
          "ticks": 64128,
          "time": 91.926486,
          "velocity": 0.11811023622047244
        },
        {
          "duration": 0.13761449999999797,
          "durationTicks": 96,
          "midi": 52,
          "name": "E3",
          "ticks": 64128,
          "time": 91.926486,
          "velocity": 0.11811023622047244
        },
        {
          "duration": 0.13761449999999797,
          "durationTicks": 96,
          "midi": 52,
          "name": "E3",
          "ticks": 64320,
          "time": 92.20171500000001,
          "velocity": 0.11811023622047244
        },
        {
          "duration": 0.13761449999999797,
          "durationTicks": 96,
          "midi": 49,
          "name": "C#3",
          "ticks": 64320,
          "time": 92.20171500000001,
          "velocity": 0.11811023622047244
        },
        {
          "duration": 0.27522899999999595,
          "durationTicks": 192,
          "midi": 50,
          "name": "D3",
          "ticks": 64512,
          "time": 92.476944,
          "velocity": 0.11811023622047244
        },
        {
          "duration": 0.13761449999999797,
          "durationTicks": 96,
          "midi": 57,
          "name": "A3",
          "ticks": 64704,
          "time": 92.752173,
          "velocity": 0.11811023622047244
        },
        {
          "duration": 0.13761449999999797,
          "durationTicks": 96,
          "midi": 54,
          "name": "F#3",
          "ticks": 64704,
          "time": 92.752173,
          "velocity": 0.11811023622047244
        },
        {
          "duration": 0.13761450000001219,
          "durationTicks": 96,
          "midi": 57,
          "name": "A3",
          "ticks": 64896,
          "time": 93.027402,
          "velocity": 0.11811023622047244
        },
        {
          "duration": 0.27522900000001016,
          "durationTicks": 192,
          "midi": 57,
          "name": "A3",
          "ticks": 64896,
          "time": 93.027402,
          "velocity": 0.11811023622047244
        },
        {
          "duration": 0.13761450000001219,
          "durationTicks": 96,
          "midi": 54,
          "name": "F#3",
          "ticks": 64896,
          "time": 93.027402,
          "velocity": 0.11811023622047244
        },
        {
          "duration": 0.27522900000001016,
          "durationTicks": 192,
          "midi": 57,
          "name": "A3",
          "ticks": 64896,
          "time": 93.027402,
          "velocity": 0.11811023622047244
        },
        {
          "duration": 0.8256870000000021,
          "durationTicks": 576,
          "midi": 69,
          "name": "A4",
          "ticks": 65088,
          "time": 93.302631,
          "velocity": 0.11811023622047244
        },
        {
          "duration": 0.8256870000000021,
          "durationTicks": 576,
          "midi": 69,
          "name": "A4",
          "ticks": 65088,
          "time": 93.302631,
          "velocity": 0.11811023622047244
        },
        {
          "duration": 0.27522899999999595,
          "durationTicks": 192,
          "midi": 50,
          "name": "D3",
          "ticks": 65088,
          "time": 93.302631,
          "velocity": 0.11811023622047244
        },
        {
          "duration": 0.13761449999999797,
          "durationTicks": 96,
          "midi": 54,
          "name": "F#3",
          "ticks": 65280,
          "time": 93.57786,
          "velocity": 0.11811023622047244
        },
        {
          "duration": 0.13761449999999797,
          "durationTicks": 96,
          "midi": 57,
          "name": "A3",
          "ticks": 65280,
          "time": 93.57786,
          "velocity": 0.11811023622047244
        },
        {
          "duration": 0.13761449999999797,
          "durationTicks": 96,
          "midi": 54,
          "name": "F#3",
          "ticks": 65472,
          "time": 93.853089,
          "velocity": 0.11811023622047244
        },
        {
          "duration": 0.13761449999999797,
          "durationTicks": 96,
          "midi": 57,
          "name": "A3",
          "ticks": 65472,
          "time": 93.853089,
          "velocity": 0.11811023622047244
        },
        {
          "duration": 0.27522899999999595,
          "durationTicks": 192,
          "midi": 64,
          "name": "E4",
          "ticks": 65664,
          "time": 94.12831800000001,
          "velocity": 0.11811023622047244
        },
        {
          "duration": 0.27522899999999595,
          "durationTicks": 192,
          "midi": 49,
          "name": "C#3",
          "ticks": 65664,
          "time": 94.12831800000001,
          "velocity": 0.11811023622047244
        },
        {
          "duration": 0.13761449999999797,
          "durationTicks": 96,
          "midi": 57,
          "name": "A3",
          "ticks": 65856,
          "time": 94.403547,
          "velocity": 0.11811023622047244
        },
        {
          "duration": 0.13761449999999797,
          "durationTicks": 96,
          "midi": 52,
          "name": "E3",
          "ticks": 65856,
          "time": 94.403547,
          "velocity": 0.11811023622047244
        },
        {
          "duration": 0.13761449999999797,
          "durationTicks": 96,
          "midi": 62,
          "name": "D4",
          "ticks": 65856,
          "time": 94.403547,
          "velocity": 0.11811023622047244
        },
        {
          "duration": 0.13761449999999797,
          "durationTicks": 96,
          "midi": 52,
          "name": "E3",
          "ticks": 66048,
          "time": 94.678776,
          "velocity": 0.11811023622047244
        },
        {
          "duration": 0.13761449999999797,
          "durationTicks": 96,
          "midi": 57,
          "name": "A3",
          "ticks": 66048,
          "time": 94.678776,
          "velocity": 0.11811023622047244
        },
        {
          "duration": 0.13761449999999797,
          "durationTicks": 96,
          "midi": 64,
          "name": "E4",
          "ticks": 66048,
          "time": 94.678776,
          "velocity": 0.11811023622047244
        },
        {
          "duration": 0.41284350000000813,
          "durationTicks": 288,
          "midi": 64,
          "name": "E4",
          "ticks": 66048,
          "time": 94.678776,
          "velocity": 0.11811023622047244
        },
        {
          "duration": 0.13761450000001219,
          "durationTicks": 96,
          "midi": 66,
          "name": "F#4",
          "ticks": 66240,
          "time": 94.954005,
          "velocity": 0.11811023622047244
        },
        {
          "duration": 0.27522900000001016,
          "durationTicks": 192,
          "midi": 49,
          "name": "C#3",
          "ticks": 66240,
          "time": 94.954005,
          "velocity": 0.11811023622047244
        },
        {
          "duration": 0.13761449999999797,
          "durationTicks": 96,
          "midi": 62,
          "name": "D4",
          "ticks": 66368,
          "time": 95.13749100000001,
          "velocity": 0.11811023622047244
        },
        {
          "duration": 0.13761449999999797,
          "durationTicks": 96,
          "midi": 52,
          "name": "E3",
          "ticks": 66432,
          "time": 95.229234,
          "velocity": 0.11811023622047244
        },
        {
          "duration": 0.13761449999999797,
          "durationTicks": 96,
          "midi": 57,
          "name": "A3",
          "ticks": 66432,
          "time": 95.229234,
          "velocity": 0.11811023622047244
        },
        {
          "duration": 0.13761449999999797,
          "durationTicks": 96,
          "midi": 52,
          "name": "E3",
          "ticks": 66624,
          "time": 95.504463,
          "velocity": 0.11811023622047244
        },
        {
          "duration": 0.13761449999999797,
          "durationTicks": 96,
          "midi": 57,
          "name": "A3",
          "ticks": 66624,
          "time": 95.504463,
          "velocity": 0.11811023622047244
        },
        {
          "duration": 0.13761449999999797,
          "durationTicks": 96,
          "midi": 64,
          "name": "E4",
          "ticks": 66624,
          "time": 95.504463,
          "velocity": 0.11811023622047244
        },
        {
          "duration": 0.27522899999999595,
          "durationTicks": 192,
          "midi": 64,
          "name": "E4",
          "ticks": 66624,
          "time": 95.504463,
          "velocity": 0.11811023622047244
        },
        {
          "duration": 0.8256870000000021,
          "durationTicks": 576,
          "midi": 62,
          "name": "D4",
          "ticks": 66816,
          "time": 95.779692,
          "velocity": 0.11811023622047244
        },
        {
          "duration": 0.8256870000000021,
          "durationTicks": 576,
          "midi": 62,
          "name": "D4",
          "ticks": 66816,
          "time": 95.779692,
          "velocity": 0.11811023622047244
        },
        {
          "duration": 0.27522900000001016,
          "durationTicks": 192,
          "midi": 47,
          "name": "B2",
          "ticks": 66816,
          "time": 95.779692,
          "velocity": 0.11811023622047244
        },
        {
          "duration": 0.13761449999999797,
          "durationTicks": 96,
          "midi": 50,
          "name": "D3",
          "ticks": 67008,
          "time": 96.05492100000001,
          "velocity": 0.11811023622047244
        },
        {
          "duration": 0.13761449999999797,
          "durationTicks": 96,
          "midi": 54,
          "name": "F#3",
          "ticks": 67008,
          "time": 96.05492100000001,
          "velocity": 0.11811023622047244
        },
        {
          "duration": 0.13761449999999797,
          "durationTicks": 96,
          "midi": 54,
          "name": "F#3",
          "ticks": 67200,
          "time": 96.33015,
          "velocity": 0.11811023622047244
        },
        {
          "duration": 0.13761449999999797,
          "durationTicks": 96,
          "midi": 50,
          "name": "D3",
          "ticks": 67200,
          "time": 96.33015,
          "velocity": 0.11811023622047244
        },
        {
          "duration": 0.27522899999999595,
          "durationTicks": 192,
          "midi": 47,
          "name": "B2",
          "ticks": 67392,
          "time": 96.605379,
          "velocity": 0.11811023622047244
        },
        {
          "duration": 0.8256870000000021,
          "durationTicks": 576,
          "midi": 69,
          "name": "A4",
          "ticks": 67392,
          "time": 96.605379,
          "velocity": 0.11811023622047244
        },
        {
          "duration": 0.8256870000000021,
          "durationTicks": 576,
          "midi": 69,
          "name": "A4",
          "ticks": 67392,
          "time": 96.605379,
          "velocity": 0.11811023622047244
        },
        {
          "duration": 0.13761450000001219,
          "durationTicks": 96,
          "midi": 54,
          "name": "F#3",
          "ticks": 67584,
          "time": 96.880608,
          "velocity": 0.11811023622047244
        },
        {
          "duration": 0.13761450000001219,
          "durationTicks": 96,
          "midi": 50,
          "name": "D3",
          "ticks": 67584,
          "time": 96.880608,
          "velocity": 0.11811023622047244
        },
        {
          "duration": 0.13761449999999797,
          "durationTicks": 96,
          "midi": 54,
          "name": "F#3",
          "ticks": 67776,
          "time": 97.155837,
          "velocity": 0.11811023622047244
        },
        {
          "duration": 0.13761449999999797,
          "durationTicks": 96,
          "midi": 50,
          "name": "D3",
          "ticks": 67776,
          "time": 97.155837,
          "velocity": 0.11811023622047244
        },
        {
          "duration": 0.27522899999999595,
          "durationTicks": 192,
          "midi": 57,
          "name": "A3",
          "ticks": 67968,
          "time": 97.431066,
          "velocity": 0.11811023622047244
        },
        {
          "duration": 0.27522899999999595,
          "durationTicks": 192,
          "midi": 45,
          "name": "A2",
          "ticks": 67968,
          "time": 97.431066,
          "velocity": 0.11811023622047244
        },
        {
          "duration": 1.6513740000000041,
          "durationTicks": 1152,
          "midi": 57,
          "name": "A3",
          "ticks": 67968,
          "time": 97.431066,
          "velocity": 0.11811023622047244
        },
        {
          "duration": 0.13761449999999797,
          "durationTicks": 96,
          "midi": 52,
          "name": "E3",
          "ticks": 68160,
          "time": 97.706295,
          "velocity": 0.11811023622047244
        },
        {
          "duration": 0.13761449999999797,
          "durationTicks": 96,
          "midi": 62,
          "name": "D4",
          "ticks": 68160,
          "time": 97.706295,
          "velocity": 0.11811023622047244
        },
        {
          "duration": 0.6880725000000041,
          "durationTicks": 480,
          "midi": 62,
          "name": "D4",
          "ticks": 68160,
          "time": 97.706295,
          "velocity": 0.11811023622047244
        },
        {
          "duration": 0.13761449999999797,
          "durationTicks": 96,
          "midi": 49,
          "name": "C#3",
          "ticks": 68160,
          "time": 97.706295,
          "velocity": 0.11811023622047244
        },
        {
          "duration": 0.13761449999999797,
          "durationTicks": 96,
          "midi": 49,
          "name": "C#3",
          "ticks": 68352,
          "time": 97.98152400000001,
          "velocity": 0.11811023622047244
        },
        {
          "duration": 0.27522899999999595,
          "durationTicks": 192,
          "midi": 64,
          "name": "E4",
          "ticks": 68352,
          "time": 97.98152400000001,
          "velocity": 0.11811023622047244
        },
        {
          "duration": 0.13761449999999797,
          "durationTicks": 96,
          "midi": 52,
          "name": "E3",
          "ticks": 68352,
          "time": 97.98152400000001,
          "velocity": 0.11811023622047244
        },
        {
          "duration": 0.4128434999999939,
          "durationTicks": 288,
          "midi": 64,
          "name": "E4",
          "ticks": 68352,
          "time": 97.98152400000001,
          "velocity": 0.11811023622047244
        },
        {
          "duration": 0.13761449999999797,
          "durationTicks": 96,
          "midi": 66,
          "name": "F#4",
          "ticks": 68544,
          "time": 98.256753,
          "velocity": 0.11811023622047244
        },
        {
          "duration": 0.27522899999999595,
          "durationTicks": 192,
          "midi": 45,
          "name": "A2",
          "ticks": 68544,
          "time": 98.256753,
          "velocity": 0.11811023622047244
        },
        {
          "duration": 0.13761449999999797,
          "durationTicks": 96,
          "midi": 64,
          "name": "E4",
          "ticks": 68640,
          "time": 98.3943675,
          "velocity": 0.11811023622047244
        },
        {
          "duration": 0.13761449999999797,
          "durationTicks": 96,
          "midi": 52,
          "name": "E3",
          "ticks": 68737,
          "time": 98.533415484375,
          "velocity": 0.11811023622047244
        },
        {
          "duration": 0.13761449999999797,
          "durationTicks": 96,
          "midi": 49,
          "name": "C#3",
          "ticks": 68737,
          "time": 98.533415484375,
          "velocity": 0.11811023622047244
        },
        {
          "duration": 0.13761449999999797,
          "durationTicks": 96,
          "midi": 62,
          "name": "D4",
          "ticks": 68737,
          "time": 98.533415484375,
          "velocity": 0.11811023622047244
        },
        {
          "duration": 0.13761449999999797,
          "durationTicks": 96,
          "midi": 52,
          "name": "E3",
          "ticks": 68929,
          "time": 98.808644484375,
          "velocity": 0.11811023622047244
        },
        {
          "duration": 0.13761449999999797,
          "durationTicks": 96,
          "midi": 49,
          "name": "C#3",
          "ticks": 68929,
          "time": 98.808644484375,
          "velocity": 0.11811023622047244
        },
        {
          "duration": 0.13761449999999797,
          "durationTicks": 96,
          "midi": 69,
          "name": "A4",
          "ticks": 68929,
          "time": 98.808644484375,
          "velocity": 0.11811023622047244
        },
        {
          "duration": 0.27522900000001016,
          "durationTicks": 192,
          "midi": 43,
          "name": "G2",
          "ticks": 69121,
          "time": 99.08387348437499,
          "velocity": 0.11811023622047244
        },
        {
          "duration": 0.8256870000000021,
          "durationTicks": 576,
          "midi": 57,
          "name": "A3",
          "ticks": 69121,
          "time": 99.08387348437499,
          "velocity": 0.11811023622047244
        },
        {
          "duration": 0.8256870000000021,
          "durationTicks": 576,
          "midi": 66,
          "name": "F#4",
          "ticks": 69121,
          "time": 99.08387348437499,
          "velocity": 0.11811023622047244
        },
        {
          "duration": 0.13761449999999797,
          "durationTicks": 96,
          "midi": 50,
          "name": "D3",
          "ticks": 69313,
          "time": 99.359102484375,
          "velocity": 0.11811023622047244
        },
        {
          "duration": 0.13761449999999797,
          "durationTicks": 96,
          "midi": 47,
          "name": "B2",
          "ticks": 69313,
          "time": 99.359102484375,
          "velocity": 0.11811023622047244
        },
        {
          "duration": 0.13761449999999797,
          "durationTicks": 96,
          "midi": 47,
          "name": "B2",
          "ticks": 69505,
          "time": 99.634331484375,
          "velocity": 0.11811023622047244
        },
        {
          "duration": 0.13761449999999797,
          "durationTicks": 96,
          "midi": 50,
          "name": "D3",
          "ticks": 69505,
          "time": 99.634331484375,
          "velocity": 0.11811023622047244
        },
        {
          "duration": 0.27522899999999595,
          "durationTicks": 192,
          "midi": 43,
          "name": "G2",
          "ticks": 69697,
          "time": 99.90956048437499,
          "velocity": 0.11811023622047244
        },
        {
          "duration": 0.5504580000000061,
          "durationTicks": 384,
          "midi": 67,
          "name": "G4",
          "ticks": 69697,
          "time": 99.90956048437499,
          "velocity": 0.11811023622047244
        },
        {
          "duration": 0.8256870000000021,
          "durationTicks": 576,
          "midi": 62,
          "name": "D4",
          "ticks": 69697,
          "time": 99.90956048437499,
          "velocity": 0.11811023622047244
        },
        {
          "duration": 0.13761450000001219,
          "durationTicks": 96,
          "midi": 50,
          "name": "D3",
          "ticks": 69889,
          "time": 100.18478948437499,
          "velocity": 0.11811023622047244
        },
        {
          "duration": 0.13761450000001219,
          "durationTicks": 96,
          "midi": 47,
          "name": "B2",
          "ticks": 69889,
          "time": 100.18478948437499,
          "velocity": 0.11811023622047244
        },
        {
          "duration": 0.13761449999999797,
          "durationTicks": 96,
          "midi": 50,
          "name": "D3",
          "ticks": 70081,
          "time": 100.460018484375,
          "velocity": 0.11811023622047244
        },
        {
          "duration": 0.13761449999999797,
          "durationTicks": 96,
          "midi": 47,
          "name": "B2",
          "ticks": 70081,
          "time": 100.460018484375,
          "velocity": 0.11811023622047244
        },
        {
          "duration": 0.27522899999999595,
          "durationTicks": 192,
          "midi": 66,
          "name": "F#4",
          "ticks": 70081,
          "time": 100.460018484375,
          "velocity": 0.11811023622047244
        },
        {
          "duration": 0.27522899999999595,
          "durationTicks": 192,
          "midi": 42,
          "name": "F#2",
          "ticks": 70273,
          "time": 100.735247484375,
          "velocity": 0.11811023622047244
        },
        {
          "duration": 0.8256870000000021,
          "durationTicks": 576,
          "midi": 64,
          "name": "E4",
          "ticks": 70273,
          "time": 100.735247484375,
          "velocity": 0.11811023622047244
        },
        {
          "duration": 1.376144999999994,
          "durationTicks": 960,
          "midi": 69,
          "name": "A4",
          "ticks": 70273,
          "time": 100.735247484375,
          "velocity": 0.11811023622047244
        },
        {
          "duration": 0.13761449999999797,
          "durationTicks": 96,
          "midi": 50,
          "name": "D3",
          "ticks": 70465,
          "time": 101.01047648437499,
          "velocity": 0.11811023622047244
        },
        {
          "duration": 0.13761449999999797,
          "durationTicks": 96,
          "midi": 45,
          "name": "A2",
          "ticks": 70465,
          "time": 101.01047648437499,
          "velocity": 0.11811023622047244
        },
        {
          "duration": 0.13761449999999797,
          "durationTicks": 96,
          "midi": 50,
          "name": "D3",
          "ticks": 70657,
          "time": 101.285705484375,
          "velocity": 0.11811023622047244
        },
        {
          "duration": 0.13761449999999797,
          "durationTicks": 96,
          "midi": 45,
          "name": "A2",
          "ticks": 70657,
          "time": 101.285705484375,
          "velocity": 0.11811023622047244
        },
        {
          "duration": 0.27522899999999595,
          "durationTicks": 192,
          "midi": 42,
          "name": "F#2",
          "ticks": 70849,
          "time": 101.560934484375,
          "velocity": 0.11811023622047244
        },
        {
          "duration": 0.5504579999999919,
          "durationTicks": 384,
          "midi": 62,
          "name": "D4",
          "ticks": 70849,
          "time": 101.560934484375,
          "velocity": 0.11811023622047244
        },
        {
          "duration": 0.13761449999999797,
          "durationTicks": 96,
          "midi": 50,
          "name": "D3",
          "ticks": 71041,
          "time": 101.83616348437499,
          "velocity": 0.11811023622047244
        },
        {
          "duration": 0.13761449999999797,
          "durationTicks": 96,
          "midi": 45,
          "name": "A2",
          "ticks": 71041,
          "time": 101.83616348437499,
          "velocity": 0.11811023622047244
        },
        {
          "duration": 0.13761450000001219,
          "durationTicks": 96,
          "midi": 50,
          "name": "D3",
          "ticks": 71233,
          "time": 102.11139248437499,
          "velocity": 0.11811023622047244
        },
        {
          "duration": 0.27522900000001016,
          "durationTicks": 192,
          "midi": 64,
          "name": "E4",
          "ticks": 71233,
          "time": 102.11139248437499,
          "velocity": 0.11811023622047244
        },
        {
          "duration": 0.27522900000001016,
          "durationTicks": 192,
          "midi": 71,
          "name": "B4",
          "ticks": 71233,
          "time": 102.11139248437499,
          "velocity": 0.11811023622047244
        },
        {
          "duration": 0.13761450000001219,
          "durationTicks": 96,
          "midi": 45,
          "name": "A2",
          "ticks": 71233,
          "time": 102.11139248437499,
          "velocity": 0.11811023622047244
        },
        {
          "duration": 0.8256870000000021,
          "durationTicks": 576,
          "midi": 66,
          "name": "F#4",
          "ticks": 71425,
          "time": 102.386621484375,
          "velocity": 0.11811023622047244
        },
        {
          "duration": 0.27522899999999595,
          "durationTicks": 192,
          "midi": 40,
          "name": "E2",
          "ticks": 71425,
          "time": 102.386621484375,
          "velocity": 0.11811023622047244
        },
        {
          "duration": 0.8256870000000021,
          "durationTicks": 576,
          "midi": 69,
          "name": "A4",
          "ticks": 71425,
          "time": 102.386621484375,
          "velocity": 0.11811023622047244
        },
        {
          "duration": 0.13761449999999797,
          "durationTicks": 96,
          "midi": 43,
          "name": "G2",
          "ticks": 71617,
          "time": 102.661850484375,
          "velocity": 0.11811023622047244
        },
        {
          "duration": 0.13761449999999797,
          "durationTicks": 96,
          "midi": 47,
          "name": "B2",
          "ticks": 71617,
          "time": 102.661850484375,
          "velocity": 0.11811023622047244
        },
        {
          "duration": 0.13761449999999797,
          "durationTicks": 96,
          "midi": 47,
          "name": "B2",
          "ticks": 71809,
          "time": 102.93707948437499,
          "velocity": 0.11811023622047244
        },
        {
          "duration": 0.13761449999999797,
          "durationTicks": 96,
          "midi": 43,
          "name": "G2",
          "ticks": 71809,
          "time": 102.93707948437499,
          "velocity": 0.11811023622047244
        },
        {
          "duration": 0.27522899999999595,
          "durationTicks": 192,
          "midi": 40,
          "name": "E2",
          "ticks": 72001,
          "time": 103.212308484375,
          "velocity": 0.11811023622047244
        },
        {
          "duration": 0.5504579999999919,
          "durationTicks": 384,
          "midi": 67,
          "name": "G4",
          "ticks": 72001,
          "time": 103.212308484375,
          "velocity": 0.11811023622047244
        },
        {
          "duration": 0.8256869999999878,
          "durationTicks": 576,
          "midi": 64,
          "name": "E4",
          "ticks": 72001,
          "time": 103.212308484375,
          "velocity": 0.11811023622047244
        },
        {
          "duration": 0.13761449999999797,
          "durationTicks": 96,
          "midi": 43,
          "name": "G2",
          "ticks": 72193,
          "time": 103.487537484375,
          "velocity": 0.11811023622047244
        },
        {
          "duration": 0.13761449999999797,
          "durationTicks": 96,
          "midi": 47,
          "name": "B2",
          "ticks": 72193,
          "time": 103.487537484375,
          "velocity": 0.11811023622047244
        },
        {
          "duration": 0.13761449999999797,
          "durationTicks": 96,
          "midi": 47,
          "name": "B2",
          "ticks": 72385,
          "time": 103.76276648437499,
          "velocity": 0.11811023622047244
        },
        {
          "duration": 0.13761449999999797,
          "durationTicks": 96,
          "midi": 43,
          "name": "G2",
          "ticks": 72385,
          "time": 103.76276648437499,
          "velocity": 0.11811023622047244
        },
        {
          "duration": 0.27522899999999595,
          "durationTicks": 192,
          "midi": 71,
          "name": "B4",
          "ticks": 72385,
          "time": 103.76276648437499,
          "velocity": 0.11811023622047244
        },
        {
          "duration": 1.6513740000000041,
          "durationTicks": 1152,
          "midi": 69,
          "name": "A4",
          "ticks": 72577,
          "time": 104.03799548437499,
          "velocity": 0.11811023622047244
        },
        {
          "duration": 0.27522900000001016,
          "durationTicks": 192,
          "midi": 45,
          "name": "A2",
          "ticks": 72577,
          "time": 104.03799548437499,
          "velocity": 0.11811023622047244
        },
        {
          "duration": 1.6513740000000041,
          "durationTicks": 1152,
          "midi": 62,
          "name": "D4",
          "ticks": 72577,
          "time": 104.03799548437499,
          "velocity": 0.11811023622047244
        },
        {
          "duration": 0.13761449999999797,
          "durationTicks": 96,
          "midi": 52,
          "name": "E3",
          "ticks": 72769,
          "time": 104.313224484375,
          "velocity": 0.11811023622047244
        },
        {
          "duration": 0.13761449999999797,
          "durationTicks": 96,
          "midi": 49,
          "name": "C#3",
          "ticks": 72769,
          "time": 104.313224484375,
          "velocity": 0.11811023622047244
        },
        {
          "duration": 0.13761449999999797,
          "durationTicks": 96,
          "midi": 49,
          "name": "C#3",
          "ticks": 72961,
          "time": 104.588453484375,
          "velocity": 0.11811023622047244
        },
        {
          "duration": 0.13761449999999797,
          "durationTicks": 96,
          "midi": 52,
          "name": "E3",
          "ticks": 72961,
          "time": 104.588453484375,
          "velocity": 0.11811023622047244
        },
        {
          "duration": 0.27522900000001016,
          "durationTicks": 192,
          "midi": 45,
          "name": "A2",
          "ticks": 73153,
          "time": 104.86368248437499,
          "velocity": 0.11811023622047244
        },
        {
          "duration": 0.13761449999999797,
          "durationTicks": 96,
          "midi": 52,
          "name": "E3",
          "ticks": 73345,
          "time": 105.138911484375,
          "velocity": 0.11811023622047244
        },
        {
          "duration": 0.13761449999999797,
          "durationTicks": 96,
          "midi": 49,
          "name": "C#3",
          "ticks": 73345,
          "time": 105.138911484375,
          "velocity": 0.11811023622047244
        },
        {
          "duration": 0.13761449999999797,
          "durationTicks": 96,
          "midi": 52,
          "name": "E3",
          "ticks": 73537,
          "time": 105.414140484375,
          "velocity": 0.11811023622047244
        },
        {
          "duration": 0.13761449999999797,
          "durationTicks": 96,
          "midi": 49,
          "name": "C#3",
          "ticks": 73537,
          "time": 105.414140484375,
          "velocity": 0.11811023622047244
        },
        {
          "duration": 0.27522899999999595,
          "durationTicks": 192,
          "midi": 43,
          "name": "G2",
          "ticks": 73729,
          "time": 105.68936948437499,
          "velocity": 0.11811023622047244
        },
        {
          "duration": 0.13761449999999797,
          "durationTicks": 96,
          "midi": 54,
          "name": "F#3",
          "ticks": 73729,
          "time": 105.68936948437499,
          "velocity": 0.11811023622047244
        },
        {
          "duration": 0.8256870000000021,
          "durationTicks": 576,
          "midi": 57,
          "name": "A3",
          "ticks": 73729,
          "time": 105.68936948437499,
          "velocity": 0.11811023622047244
        },
        {
          "duration": 0.8256870000000021,
          "durationTicks": 576,
          "midi": 57,
          "name": "A3",
          "ticks": 73729,
          "time": 105.68936948437499,
          "velocity": 0.11811023622047244
        },
        {
          "duration": 0.13761449999999797,
          "durationTicks": 96,
          "midi": 47,
          "name": "B2",
          "ticks": 73825,
          "time": 105.82698398437499,
          "velocity": 0.11811023622047244
        },
        {
          "duration": 0.13761450000001219,
          "durationTicks": 96,
          "midi": 50,
          "name": "D3",
          "ticks": 73921,
          "time": 105.96459848437499,
          "velocity": 0.11811023622047244
        },
        {
          "duration": 0.13761450000001219,
          "durationTicks": 96,
          "midi": 47,
          "name": "B2",
          "ticks": 73921,
          "time": 105.96459848437499,
          "velocity": 0.11811023622047244
        },
        {
          "duration": 0.13761450000001219,
          "durationTicks": 96,
          "midi": 54,
          "name": "F#3",
          "ticks": 73921,
          "time": 105.96459848437499,
          "velocity": 0.11811023622047244
        },
        {
          "duration": 0.13761449999999797,
          "durationTicks": 96,
          "midi": 47,
          "name": "B2",
          "ticks": 74017,
          "time": 106.102212984375,
          "velocity": 0.11811023622047244
        },
        {
          "duration": 0.13761449999999797,
          "durationTicks": 96,
          "midi": 47,
          "name": "B2",
          "ticks": 74113,
          "time": 106.239827484375,
          "velocity": 0.11811023622047244
        },
        {
          "duration": 0.13761449999999797,
          "durationTicks": 96,
          "midi": 50,
          "name": "D3",
          "ticks": 74113,
          "time": 106.239827484375,
          "velocity": 0.11811023622047244
        },
        {
          "duration": 0.13761449999999797,
          "durationTicks": 96,
          "midi": 54,
          "name": "F#3",
          "ticks": 74113,
          "time": 106.239827484375,
          "velocity": 0.11811023622047244
        },
        {
          "duration": 0.13761449999999797,
          "durationTicks": 96,
          "midi": 47,
          "name": "B2",
          "ticks": 74209,
          "time": 106.377441984375,
          "velocity": 0.11811023622047244
        },
        {
          "duration": 0.13761449999999797,
          "durationTicks": 96,
          "midi": 54,
          "name": "F#3",
          "ticks": 74305,
          "time": 106.515056484375,
          "velocity": 0.11811023622047244
        },
        {
          "duration": 0.5504580000000061,
          "durationTicks": 384,
          "midi": 69,
          "name": "A4",
          "ticks": 74305,
          "time": 106.515056484375,
          "velocity": 0.11811023622047244
        },
        {
          "duration": 0.5504580000000061,
          "durationTicks": 384,
          "midi": 69,
          "name": "A4",
          "ticks": 74305,
          "time": 106.515056484375,
          "velocity": 0.11811023622047244
        },
        {
          "duration": 0.27522899999999595,
          "durationTicks": 192,
          "midi": 43,
          "name": "G2",
          "ticks": 74305,
          "time": 106.515056484375,
          "velocity": 0.11811023622047244
        },
        {
          "duration": 0.13761449999999797,
          "durationTicks": 96,
          "midi": 47,
          "name": "B2",
          "ticks": 74401,
          "time": 106.65267098437499,
          "velocity": 0.11811023622047244
        },
        {
          "duration": 0.13761449999999797,
          "durationTicks": 96,
          "midi": 50,
          "name": "D3",
          "ticks": 74497,
          "time": 106.79028548437499,
          "velocity": 0.11811023622047244
        },
        {
          "duration": 0.13761449999999797,
          "durationTicks": 96,
          "midi": 47,
          "name": "B2",
          "ticks": 74497,
          "time": 106.79028548437499,
          "velocity": 0.11811023622047244
        },
        {
          "duration": 0.13761449999999797,
          "durationTicks": 96,
          "midi": 54,
          "name": "F#3",
          "ticks": 74497,
          "time": 106.79028548437499,
          "velocity": 0.11811023622047244
        },
        {
          "duration": 0.13761450000001219,
          "durationTicks": 96,
          "midi": 47,
          "name": "B2",
          "ticks": 74593,
          "time": 106.92789998437499,
          "velocity": 0.11811023622047244
        },
        {
          "duration": 0.27522899999999595,
          "durationTicks": 192,
          "midi": 66,
          "name": "F#4",
          "ticks": 74689,
          "time": 107.065514484375,
          "velocity": 0.11811023622047244
        },
        {
          "duration": 0.27522899999999595,
          "durationTicks": 192,
          "midi": 66,
          "name": "F#4",
          "ticks": 74689,
          "time": 107.065514484375,
          "velocity": 0.11811023622047244
        },
        {
          "duration": 0.13761449999999797,
          "durationTicks": 96,
          "midi": 54,
          "name": "F#3",
          "ticks": 74689,
          "time": 107.065514484375,
          "velocity": 0.11811023622047244
        },
        {
          "duration": 0.13761449999999797,
          "durationTicks": 96,
          "midi": 47,
          "name": "B2",
          "ticks": 74689,
          "time": 107.065514484375,
          "velocity": 0.11811023622047244
        },
        {
          "duration": 0.13761449999999797,
          "durationTicks": 96,
          "midi": 50,
          "name": "D3",
          "ticks": 74689,
          "time": 107.065514484375,
          "velocity": 0.11811023622047244
        },
        {
          "duration": 0.13761449999999797,
          "durationTicks": 96,
          "midi": 47,
          "name": "B2",
          "ticks": 74785,
          "time": 107.203128984375,
          "velocity": 0.11811023622047244
        },
        {
          "duration": 0.5504579999999919,
          "durationTicks": 384,
          "midi": 64,
          "name": "E4",
          "ticks": 74881,
          "time": 107.340743484375,
          "velocity": 0.11811023622047244
        },
        {
          "duration": 0.27522899999999595,
          "durationTicks": 192,
          "midi": 43,
          "name": "G2",
          "ticks": 74881,
          "time": 107.340743484375,
          "velocity": 0.11811023622047244
        },
        {
          "duration": 0.13761449999999797,
          "durationTicks": 96,
          "midi": 54,
          "name": "F#3",
          "ticks": 74881,
          "time": 107.340743484375,
          "velocity": 0.11811023622047244
        },
        {
          "duration": 0.5504579999999919,
          "durationTicks": 384,
          "midi": 64,
          "name": "E4",
          "ticks": 74881,
          "time": 107.340743484375,
          "velocity": 0.11811023622047244
        },
        {
          "duration": 0.13761449999999797,
          "durationTicks": 96,
          "midi": 47,
          "name": "B2",
          "ticks": 74977,
          "time": 107.478357984375,
          "velocity": 0.11811023622047244
        },
        {
          "duration": 0.13761449999999797,
          "durationTicks": 96,
          "midi": 50,
          "name": "D3",
          "ticks": 75073,
          "time": 107.61597248437499,
          "velocity": 0.11811023622047244
        },
        {
          "duration": 0.13761449999999797,
          "durationTicks": 96,
          "midi": 47,
          "name": "B2",
          "ticks": 75073,
          "time": 107.61597248437499,
          "velocity": 0.11811023622047244
        },
        {
          "duration": 0.13761449999999797,
          "durationTicks": 96,
          "midi": 54,
          "name": "F#3",
          "ticks": 75073,
          "time": 107.61597248437499,
          "velocity": 0.11811023622047244
        },
        {
          "duration": 0.13761449999999797,
          "durationTicks": 96,
          "midi": 47,
          "name": "B2",
          "ticks": 75169,
          "time": 107.75358698437499,
          "velocity": 0.11811023622047244
        },
        {
          "duration": 0.13761450000001219,
          "durationTicks": 96,
          "midi": 47,
          "name": "B2",
          "ticks": 75265,
          "time": 107.89120148437499,
          "velocity": 0.11811023622047244
        },
        {
          "duration": 0.13761450000001219,
          "durationTicks": 96,
          "midi": 54,
          "name": "F#3",
          "ticks": 75265,
          "time": 107.89120148437499,
          "velocity": 0.11811023622047244
        },
        {
          "duration": 0.13761450000001219,
          "durationTicks": 96,
          "midi": 50,
          "name": "D3",
          "ticks": 75265,
          "time": 107.89120148437499,
          "velocity": 0.11811023622047244
        },
        {
          "duration": 0.27522900000001016,
          "durationTicks": 192,
          "midi": 62,
          "name": "D4",
          "ticks": 75265,
          "time": 107.89120148437499,
          "velocity": 0.11811023622047244
        },
        {
          "duration": 0.27522900000001016,
          "durationTicks": 192,
          "midi": 62,
          "name": "D4",
          "ticks": 75265,
          "time": 107.89120148437499,
          "velocity": 0.11811023622047244
        },
        {
          "duration": 0.13761449999999797,
          "durationTicks": 96,
          "midi": 47,
          "name": "B2",
          "ticks": 75361,
          "time": 108.028815984375,
          "velocity": 0.11811023622047244
        },
        {
          "duration": 0.5504579999999919,
          "durationTicks": 384,
          "midi": 61,
          "name": "C#4",
          "ticks": 75457,
          "time": 108.166430484375,
          "velocity": 0.11811023622047244
        },
        {
          "duration": 0.5504579999999919,
          "durationTicks": 384,
          "midi": 61,
          "name": "C#4",
          "ticks": 75457,
          "time": 108.166430484375,
          "velocity": 0.11811023622047244
        },
        {
          "duration": 0.13761449999999797,
          "durationTicks": 96,
          "midi": 54,
          "name": "F#3",
          "ticks": 75457,
          "time": 108.166430484375,
          "velocity": 0.11811023622047244
        },
        {
          "duration": 0.27522899999999595,
          "durationTicks": 192,
          "midi": 43,
          "name": "G2",
          "ticks": 75457,
          "time": 108.166430484375,
          "velocity": 0.11811023622047244
        },
        {
          "duration": 0.13761449999999797,
          "durationTicks": 96,
          "midi": 47,
          "name": "B2",
          "ticks": 75553,
          "time": 108.304044984375,
          "velocity": 0.11811023622047244
        },
        {
          "duration": 0.13761449999999797,
          "durationTicks": 96,
          "midi": 54,
          "name": "F#3",
          "ticks": 75649,
          "time": 108.441659484375,
          "velocity": 0.11811023622047244
        },
        {
          "duration": 0.13761449999999797,
          "durationTicks": 96,
          "midi": 50,
          "name": "D3",
          "ticks": 75649,
          "time": 108.441659484375,
          "velocity": 0.11811023622047244
        },
        {
          "duration": 0.13761449999999797,
          "durationTicks": 96,
          "midi": 47,
          "name": "B2",
          "ticks": 75649,
          "time": 108.441659484375,
          "velocity": 0.11811023622047244
        },
        {
          "duration": 0.13761449999999797,
          "durationTicks": 96,
          "midi": 47,
          "name": "B2",
          "ticks": 75745,
          "time": 108.57927398437499,
          "velocity": 0.11811023622047244
        },
        {
          "duration": 0.27522900000001016,
          "durationTicks": 192,
          "midi": 62,
          "name": "D4",
          "ticks": 75841,
          "time": 108.71688848437499,
          "velocity": 0.11811023622047244
        },
        {
          "duration": 0.27522900000001016,
          "durationTicks": 192,
          "midi": 62,
          "name": "D4",
          "ticks": 75841,
          "time": 108.71688848437499,
          "velocity": 0.11811023622047244
        },
        {
          "duration": 0.13761449999999797,
          "durationTicks": 96,
          "midi": 54,
          "name": "F#3",
          "ticks": 75841,
          "time": 108.71688848437499,
          "velocity": 0.11811023622047244
        },
        {
          "duration": 0.13761449999999797,
          "durationTicks": 96,
          "midi": 50,
          "name": "D3",
          "ticks": 75841,
          "time": 108.71688848437499,
          "velocity": 0.11811023622047244
        },
        {
          "duration": 0.13761449999999797,
          "durationTicks": 96,
          "midi": 47,
          "name": "B2",
          "ticks": 75841,
          "time": 108.71688848437499,
          "velocity": 0.11811023622047244
        },
        {
          "duration": 0.13761450000001219,
          "durationTicks": 96,
          "midi": 47,
          "name": "B2",
          "ticks": 75937,
          "time": 108.85450298437499,
          "velocity": 0.11811023622047244
        },
        {
          "duration": 0.13761450000001219,
          "durationTicks": 96,
          "midi": 47,
          "name": "B2",
          "ticks": 75937,
          "time": 108.85450298437499,
          "velocity": 0.11811023622047244
        },
        {
          "duration": 0.27522899999999595,
          "durationTicks": 192,
          "midi": 42,
          "name": "F#2",
          "ticks": 76033,
          "time": 108.992117484375,
          "velocity": 0.11811023622047244
        },
        {
          "duration": 0.6880724999999899,
          "durationTicks": 480,
          "midi": 64,
          "name": "E4",
          "ticks": 76033,
          "time": 108.992117484375,
          "velocity": 0.11811023622047244
        },
        {
          "duration": 0.13761449999999797,
          "durationTicks": 96,
          "midi": 52,
          "name": "E3",
          "ticks": 76033,
          "time": 108.992117484375,
          "velocity": 0.11811023622047244
        },
        {
          "duration": 0.6880724999999899,
          "durationTicks": 480,
          "midi": 64,
          "name": "E4",
          "ticks": 76033,
          "time": 108.992117484375,
          "velocity": 0.11811023622047244
        },
        {
          "duration": 0.13761449999999797,
          "durationTicks": 96,
          "midi": 45,
          "name": "A2",
          "ticks": 76129,
          "time": 109.129731984375,
          "velocity": 0.11811023622047244
        },
        {
          "duration": 0.13761449999999797,
          "durationTicks": 96,
          "midi": 52,
          "name": "E3",
          "ticks": 76225,
          "time": 109.267346484375,
          "velocity": 0.11811023622047244
        },
        {
          "duration": 0.13761449999999797,
          "durationTicks": 96,
          "midi": 45,
          "name": "A2",
          "ticks": 76225,
          "time": 109.267346484375,
          "velocity": 0.11811023622047244
        },
        {
          "duration": 0.13761449999999797,
          "durationTicks": 96,
          "midi": 49,
          "name": "C#3",
          "ticks": 76225,
          "time": 109.267346484375,
          "velocity": 0.11811023622047244
        },
        {
          "duration": 0.13761449999999797,
          "durationTicks": 96,
          "midi": 45,
          "name": "A2",
          "ticks": 76321,
          "time": 109.404960984375,
          "velocity": 0.11811023622047244
        },
        {
          "duration": 0.13761449999999797,
          "durationTicks": 96,
          "midi": 52,
          "name": "E3",
          "ticks": 76417,
          "time": 109.54257548437499,
          "velocity": 0.11811023622047244
        },
        {
          "duration": 0.13761449999999797,
          "durationTicks": 96,
          "midi": 49,
          "name": "C#3",
          "ticks": 76417,
          "time": 109.54257548437499,
          "velocity": 0.11811023622047244
        },
        {
          "duration": 0.13761449999999797,
          "durationTicks": 96,
          "midi": 45,
          "name": "A2",
          "ticks": 76417,
          "time": 109.54257548437499,
          "velocity": 0.11811023622047244
        },
        {
          "duration": 0.13761449999999797,
          "durationTicks": 96,
          "midi": 71,
          "name": "B4",
          "ticks": 76513,
          "time": 109.68018998437499,
          "velocity": 0.11811023622047244
        },
        {
          "duration": 0.13761449999999797,
          "durationTicks": 96,
          "midi": 71,
          "name": "B4",
          "ticks": 76513,
          "time": 109.68018998437499,
          "velocity": 0.11811023622047244
        },
        {
          "duration": 0.13761449999999797,
          "durationTicks": 96,
          "midi": 45,
          "name": "A2",
          "ticks": 76513,
          "time": 109.68018998437499,
          "velocity": 0.11811023622047244
        },
        {
          "duration": 0.13761449999999797,
          "durationTicks": 96,
          "midi": 72,
          "name": "C5",
          "ticks": 76561,
          "time": 109.748997234375,
          "velocity": 0.11811023622047244
        },
        {
          "duration": 0.13761449999999797,
          "durationTicks": 96,
          "midi": 72,
          "name": "C5",
          "ticks": 76561,
          "time": 109.748997234375,
          "velocity": 0.11811023622047244
        },
        {
          "duration": 0.27522900000001016,
          "durationTicks": 192,
          "midi": 42,
          "name": "F#2",
          "ticks": 76609,
          "time": 109.81780448437499,
          "velocity": 0.11811023622047244
        },
        {
          "duration": 0.13761450000001219,
          "durationTicks": 96,
          "midi": 73,
          "name": "C#5",
          "ticks": 76609,
          "time": 109.81780448437499,
          "velocity": 0.11811023622047244
        },
        {
          "duration": 0.13761450000001219,
          "durationTicks": 96,
          "midi": 52,
          "name": "E3",
          "ticks": 76609,
          "time": 109.81780448437499,
          "velocity": 0.11811023622047244
        },
        {
          "duration": 0.13761450000001219,
          "durationTicks": 96,
          "midi": 73,
          "name": "C#5",
          "ticks": 76609,
          "time": 109.81780448437499,
          "velocity": 0.11811023622047244
        },
        {
          "duration": 0.13761449999999797,
          "durationTicks": 96,
          "midi": 45,
          "name": "A2",
          "ticks": 76705,
          "time": 109.955418984375,
          "velocity": 0.11811023622047244
        },
        {
          "duration": 0.13761449999999797,
          "durationTicks": 96,
          "midi": 72,
          "name": "C5",
          "ticks": 76801,
          "time": 110.093033484375,
          "velocity": 0.11811023622047244
        },
        {
          "duration": 0.13761449999999797,
          "durationTicks": 96,
          "midi": 45,
          "name": "A2",
          "ticks": 76801,
          "time": 110.093033484375,
          "velocity": 0.11811023622047244
        },
        {
          "duration": 0.13761449999999797,
          "durationTicks": 96,
          "midi": 49,
          "name": "C#3",
          "ticks": 76801,
          "time": 110.093033484375,
          "velocity": 0.11811023622047244
        },
        {
          "duration": 0.13761449999999797,
          "durationTicks": 96,
          "midi": 52,
          "name": "E3",
          "ticks": 76801,
          "time": 110.093033484375,
          "velocity": 0.11811023622047244
        },
        {
          "duration": 0.13761449999999797,
          "durationTicks": 96,
          "midi": 72,
          "name": "C5",
          "ticks": 76801,
          "time": 110.093033484375,
          "velocity": 0.11811023622047244
        },
        {
          "duration": 0.13761449999999797,
          "durationTicks": 96,
          "midi": 45,
          "name": "A2",
          "ticks": 76897,
          "time": 110.230647984375,
          "velocity": 0.11811023622047244
        },
        {
          "duration": 0.13761449999999797,
          "durationTicks": 96,
          "midi": 45,
          "name": "A2",
          "ticks": 76993,
          "time": 110.368262484375,
          "velocity": 0.11811023622047244
        },
        {
          "duration": 0.13761449999999797,
          "durationTicks": 96,
          "midi": 49,
          "name": "C#3",
          "ticks": 76993,
          "time": 110.368262484375,
          "velocity": 0.11811023622047244
        },
        {
          "duration": 0.13761449999999797,
          "durationTicks": 96,
          "midi": 71,
          "name": "B4",
          "ticks": 76993,
          "time": 110.368262484375,
          "velocity": 0.11811023622047244
        },
        {
          "duration": 0.13761449999999797,
          "durationTicks": 96,
          "midi": 71,
          "name": "B4",
          "ticks": 76993,
          "time": 110.368262484375,
          "velocity": 0.11811023622047244
        },
        {
          "duration": 0.13761449999999797,
          "durationTicks": 96,
          "midi": 52,
          "name": "E3",
          "ticks": 76993,
          "time": 110.368262484375,
          "velocity": 0.11811023622047244
        },
        {
          "duration": 0.13761449999999797,
          "durationTicks": 96,
          "midi": 45,
          "name": "A2",
          "ticks": 77089,
          "time": 110.50587698437499,
          "velocity": 0.11811023622047244
        },
        {
          "duration": 0.13761449999999797,
          "durationTicks": 96,
          "midi": 52,
          "name": "E3",
          "ticks": 77185,
          "time": 110.64349148437499,
          "velocity": 0.11811023622047244
        },
        {
          "duration": 1.6513740000000041,
          "durationTicks": 1152,
          "midi": 69,
          "name": "A4",
          "ticks": 77185,
          "time": 110.64349148437499,
          "velocity": 0.11811023622047244
        },
        {
          "duration": 1.6513740000000041,
          "durationTicks": 1152,
          "midi": 69,
          "name": "A4",
          "ticks": 77185,
          "time": 110.64349148437499,
          "velocity": 0.11811023622047244
        },
        {
          "duration": 0.27522900000001016,
          "durationTicks": 192,
          "midi": 42,
          "name": "F#2",
          "ticks": 77185,
          "time": 110.64349148437499,
          "velocity": 0.11811023622047244
        },
        {
          "duration": 0.13761450000001219,
          "durationTicks": 96,
          "midi": 45,
          "name": "A2",
          "ticks": 77281,
          "time": 110.78110598437499,
          "velocity": 0.11811023622047244
        },
        {
          "duration": 0.13761449999999797,
          "durationTicks": 96,
          "midi": 52,
          "name": "E3",
          "ticks": 77377,
          "time": 110.918720484375,
          "velocity": 0.11811023622047244
        },
        {
          "duration": 0.13761449999999797,
          "durationTicks": 96,
          "midi": 45,
          "name": "A2",
          "ticks": 77377,
          "time": 110.918720484375,
          "velocity": 0.11811023622047244
        },
        {
          "duration": 0.13761449999999797,
          "durationTicks": 96,
          "midi": 49,
          "name": "C#3",
          "ticks": 77377,
          "time": 110.918720484375,
          "velocity": 0.11811023622047244
        },
        {
          "duration": 0.13761449999999797,
          "durationTicks": 96,
          "midi": 45,
          "name": "A2",
          "ticks": 77473,
          "time": 111.056334984375,
          "velocity": 0.11811023622047244
        },
        {
          "duration": 0.13761449999999797,
          "durationTicks": 96,
          "midi": 45,
          "name": "A2",
          "ticks": 77569,
          "time": 111.193949484375,
          "velocity": 0.11811023622047244
        },
        {
          "duration": 0.13761449999999797,
          "durationTicks": 96,
          "midi": 49,
          "name": "C#3",
          "ticks": 77569,
          "time": 111.193949484375,
          "velocity": 0.11811023622047244
        },
        {
          "duration": 0.13761449999999797,
          "durationTicks": 96,
          "midi": 52,
          "name": "E3",
          "ticks": 77569,
          "time": 111.193949484375,
          "velocity": 0.11811023622047244
        },
        {
          "duration": 0.13761449999999797,
          "durationTicks": 96,
          "midi": 45,
          "name": "A2",
          "ticks": 77665,
          "time": 111.331563984375,
          "velocity": 0.11811023622047244
        },
        {
          "duration": 0.13761449999999797,
          "durationTicks": 96,
          "midi": 52,
          "name": "E3",
          "ticks": 77761,
          "time": 111.46917848437499,
          "velocity": 0.11811023622047244
        },
        {
          "duration": 0.27522899999999595,
          "durationTicks": 192,
          "midi": 42,
          "name": "F#2",
          "ticks": 77761,
          "time": 111.46917848437499,
          "velocity": 0.11811023622047244
        },
        {
          "duration": 0.13761449999999797,
          "durationTicks": 96,
          "midi": 45,
          "name": "A2",
          "ticks": 77857,
          "time": 111.60679298437499,
          "velocity": 0.11811023622047244
        },
        {
          "duration": 0.13761450000001219,
          "durationTicks": 96,
          "midi": 52,
          "name": "E3",
          "ticks": 77953,
          "time": 111.74440748437499,
          "velocity": 0.11811023622047244
        },
        {
          "duration": 0.13761450000001219,
          "durationTicks": 96,
          "midi": 45,
          "name": "A2",
          "ticks": 77953,
          "time": 111.74440748437499,
          "velocity": 0.11811023622047244
        },
        {
          "duration": 0.13761450000001219,
          "durationTicks": 96,
          "midi": 49,
          "name": "C#3",
          "ticks": 77953,
          "time": 111.74440748437499,
          "velocity": 0.11811023622047244
        },
        {
          "duration": 0.13761449999999797,
          "durationTicks": 96,
          "midi": 45,
          "name": "A2",
          "ticks": 78049,
          "time": 111.882021984375,
          "velocity": 0.11811023622047244
        },
        {
          "duration": 0.13761449999999797,
          "durationTicks": 96,
          "midi": 45,
          "name": "A2",
          "ticks": 78145,
          "time": 112.019636484375,
          "velocity": 0.11811023622047244
        },
        {
          "duration": 0.13761449999999797,
          "durationTicks": 96,
          "midi": 52,
          "name": "E3",
          "ticks": 78145,
          "time": 112.019636484375,
          "velocity": 0.11811023622047244
        },
        {
          "duration": 0.13761449999999797,
          "durationTicks": 96,
          "midi": 49,
          "name": "C#3",
          "ticks": 78145,
          "time": 112.019636484375,
          "velocity": 0.11811023622047244
        },
        {
          "duration": 0.13761449999999797,
          "durationTicks": 96,
          "midi": 45,
          "name": "A2",
          "ticks": 78241,
          "time": 112.157250984375,
          "velocity": 0.11811023622047244
        },
        {
          "duration": 0.13761449999999797,
          "durationTicks": 96,
          "midi": 45,
          "name": "A2",
          "ticks": 78241,
          "time": 112.157250984375,
          "velocity": 0.11811023622047244
        },
        {
          "duration": 0.13761449999999797,
          "durationTicks": 96,
          "midi": 47,
          "name": "B2",
          "ticks": 78337,
          "time": 112.294865484375,
          "velocity": 0.11811023622047244
        },
        {
          "duration": 0.8256870000000021,
          "durationTicks": 576,
          "midi": 59,
          "name": "B3",
          "ticks": 78337,
          "time": 112.294865484375,
          "velocity": 0.11811023622047244
        },
        {
          "duration": 0.8256870000000021,
          "durationTicks": 576,
          "midi": 59,
          "name": "B3",
          "ticks": 78337,
          "time": 112.294865484375,
          "velocity": 0.11811023622047244
        },
        {
          "duration": 0.27522899999999595,
          "durationTicks": 192,
          "midi": 40,
          "name": "E2",
          "ticks": 78337,
          "time": 112.294865484375,
          "velocity": 0.11811023622047244
        },
        {
          "duration": 0.13761449999999797,
          "durationTicks": 96,
          "midi": 43,
          "name": "G2",
          "ticks": 78433,
          "time": 112.432479984375,
          "velocity": 0.11811023622047244
        },
        {
          "duration": 0.13761449999999797,
          "durationTicks": 96,
          "midi": 47,
          "name": "B2",
          "ticks": 78529,
          "time": 112.57009448437499,
          "velocity": 0.11811023622047244
        },
        {
          "duration": 0.13761449999999797,
          "durationTicks": 96,
          "midi": 43,
          "name": "G2",
          "ticks": 78529,
          "time": 112.57009448437499,
          "velocity": 0.11811023622047244
        },
        {
          "duration": 0.13761449999999797,
          "durationTicks": 96,
          "midi": 47,
          "name": "B2",
          "ticks": 78529,
          "time": 112.57009448437499,
          "velocity": 0.11811023622047244
        },
        {
          "duration": 0.13761450000001219,
          "durationTicks": 96,
          "midi": 43,
          "name": "G2",
          "ticks": 78625,
          "time": 112.70770898437499,
          "velocity": 0.11811023622047244
        },
        {
          "duration": 0.13761449999999797,
          "durationTicks": 96,
          "midi": 43,
          "name": "G2",
          "ticks": 78721,
          "time": 112.845323484375,
          "velocity": 0.11811023622047244
        },
        {
          "duration": 0.13761449999999797,
          "durationTicks": 96,
          "midi": 47,
          "name": "B2",
          "ticks": 78721,
          "time": 112.845323484375,
          "velocity": 0.11811023622047244
        },
        {
          "duration": 0.13761449999999797,
          "durationTicks": 96,
          "midi": 47,
          "name": "B2",
          "ticks": 78721,
          "time": 112.845323484375,
          "velocity": 0.11811023622047244
        },
        {
          "duration": 0.13761449999999797,
          "durationTicks": 96,
          "midi": 43,
          "name": "G2",
          "ticks": 78817,
          "time": 112.982937984375,
          "velocity": 0.11811023622047244
        },
        {
          "duration": 0.5504579999999919,
          "durationTicks": 384,
          "midi": 69,
          "name": "A4",
          "ticks": 78913,
          "time": 113.120552484375,
          "velocity": 0.11811023622047244
        },
        {
          "duration": 0.5504579999999919,
          "durationTicks": 384,
          "midi": 69,
          "name": "A4",
          "ticks": 78913,
          "time": 113.120552484375,
          "velocity": 0.11811023622047244
        },
        {
          "duration": 0.13761449999999797,
          "durationTicks": 96,
          "midi": 47,
          "name": "B2",
          "ticks": 78913,
          "time": 113.120552484375,
          "velocity": 0.11811023622047244
        },
        {
          "duration": 0.27522899999999595,
          "durationTicks": 192,
          "midi": 40,
          "name": "E2",
          "ticks": 78913,
          "time": 113.120552484375,
          "velocity": 0.11811023622047244
        },
        {
          "duration": 0.13761449999999797,
          "durationTicks": 96,
          "midi": 43,
          "name": "G2",
          "ticks": 79009,
          "time": 113.258166984375,
          "velocity": 0.11811023622047244
        },
        {
          "duration": 0.13761449999999797,
          "durationTicks": 96,
          "midi": 43,
          "name": "G2",
          "ticks": 79105,
          "time": 113.395781484375,
          "velocity": 0.11811023622047244
        },
        {
          "duration": 0.13761449999999797,
          "durationTicks": 96,
          "midi": 47,
          "name": "B2",
          "ticks": 79105,
          "time": 113.395781484375,
          "velocity": 0.11811023622047244
        },
        {
          "duration": 0.13761449999999797,
          "durationTicks": 96,
          "midi": 47,
          "name": "B2",
          "ticks": 79105,
          "time": 113.395781484375,
          "velocity": 0.11811023622047244
        },
        {
          "duration": 0.13761449999999797,
          "durationTicks": 96,
          "midi": 43,
          "name": "G2",
          "ticks": 79201,
          "time": 113.53339598437499,
          "velocity": 0.11811023622047244
        },
        {
          "duration": 0.27522900000001016,
          "durationTicks": 192,
          "midi": 66,
          "name": "F#4",
          "ticks": 79297,
          "time": 113.67101048437499,
          "velocity": 0.11811023622047244
        },
        {
          "duration": 0.13761450000001219,
          "durationTicks": 96,
          "midi": 43,
          "name": "G2",
          "ticks": 79297,
          "time": 113.67101048437499,
          "velocity": 0.11811023622047244
        },
        {
          "duration": 0.13761450000001219,
          "durationTicks": 96,
          "midi": 47,
          "name": "B2",
          "ticks": 79297,
          "time": 113.67101048437499,
          "velocity": 0.11811023622047244
        },
        {
          "duration": 0.13761450000001219,
          "durationTicks": 96,
          "midi": 47,
          "name": "B2",
          "ticks": 79297,
          "time": 113.67101048437499,
          "velocity": 0.11811023622047244
        },
        {
          "duration": 0.27522900000001016,
          "durationTicks": 192,
          "midi": 66,
          "name": "F#4",
          "ticks": 79297,
          "time": 113.67101048437499,
          "velocity": 0.11811023622047244
        },
        {
          "duration": 0.6880725000000041,
          "durationTicks": 480,
          "midi": 66,
          "name": "F#4",
          "ticks": 79297,
          "time": 113.67101048437499,
          "velocity": 0.11811023622047244
        },
        {
          "duration": 0.13761449999999797,
          "durationTicks": 96,
          "midi": 43,
          "name": "G2",
          "ticks": 79393,
          "time": 113.808624984375,
          "velocity": 0.11811023622047244
        },
        {
          "duration": 0.13761449999999797,
          "durationTicks": 96,
          "midi": 43,
          "name": "G2",
          "ticks": 79393,
          "time": 113.808624984375,
          "velocity": 0.11811023622047244
        },
        {
          "duration": 0.13761449999999797,
          "durationTicks": 96,
          "midi": 52,
          "name": "E3",
          "ticks": 79489,
          "time": 113.946239484375,
          "velocity": 0.11811023622047244
        },
        {
          "duration": 0.4128434999999939,
          "durationTicks": 288,
          "midi": 64,
          "name": "E4",
          "ticks": 79489,
          "time": 113.946239484375,
          "velocity": 0.11811023622047244
        },
        {
          "duration": 0.5060199843750013,
          "durationTicks": 353,
          "midi": 64,
          "name": "E4",
          "ticks": 79489,
          "time": 113.946239484375,
          "velocity": 0.11811023622047244
        },
        {
          "duration": 0.13761449999999797,
          "durationTicks": 96,
          "midi": 45,
          "name": "A2",
          "ticks": 79585,
          "time": 114.083853984375,
          "velocity": 0.11811023622047244
        },
        {
          "duration": 0.13761449999999797,
          "durationTicks": 96,
          "midi": 45,
          "name": "A2",
          "ticks": 79585,
          "time": 114.083853984375,
          "velocity": 0.11811023622047244
        },
        {
          "duration": 0.13761449999999797,
          "durationTicks": 96,
          "midi": 49,
          "name": "C#3",
          "ticks": 79681,
          "time": 114.221468484375,
          "velocity": 0.11811023622047244
        },
        {
          "duration": 0.13761449999999797,
          "durationTicks": 96,
          "midi": 52,
          "name": "E3",
          "ticks": 79681,
          "time": 114.221468484375,
          "velocity": 0.11811023622047244
        },
        {
          "duration": 0.13761449999999797,
          "durationTicks": 96,
          "midi": 52,
          "name": "E3",
          "ticks": 79681,
          "time": 114.221468484375,
          "velocity": 0.11811023622047244
        },
        {
          "duration": 0.13761449999999797,
          "durationTicks": 96,
          "midi": 45,
          "name": "A2",
          "ticks": 79777,
          "time": 114.359082984375,
          "velocity": 0.11811023622047244
        },
        {
          "duration": 0.04443801562499061,
          "durationTicks": 31,
          "midi": 64,
          "name": "E4",
          "ticks": 79842,
          "time": 114.45225946875,
          "velocity": 0.11811023622047244
        },
        {
          "duration": 0.27522899999999595,
          "durationTicks": 192,
          "midi": 62,
          "name": "D4",
          "ticks": 79874,
          "time": 114.49813096875,
          "velocity": 0.11811023622047244
        },
        {
          "duration": 0.27522899999999595,
          "durationTicks": 192,
          "midi": 62,
          "name": "D4",
          "ticks": 79874,
          "time": 114.49813096875,
          "velocity": 0.11811023622047244
        },
        {
          "duration": 0.13761449999999797,
          "durationTicks": 96,
          "midi": 52,
          "name": "E3",
          "ticks": 79874,
          "time": 114.49813096875,
          "velocity": 0.11811023622047244
        },
        {
          "duration": 0.13761449999999797,
          "durationTicks": 96,
          "midi": 49,
          "name": "C#3",
          "ticks": 79874,
          "time": 114.49813096875,
          "velocity": 0.11811023622047244
        },
        {
          "duration": 0.13761449999999797,
          "durationTicks": 96,
          "midi": 52,
          "name": "E3",
          "ticks": 79874,
          "time": 114.49813096875,
          "velocity": 0.11811023622047244
        },
        {
          "duration": 0.13761449999999797,
          "durationTicks": 96,
          "midi": 45,
          "name": "A2",
          "ticks": 79970,
          "time": 114.63574546875,
          "velocity": 0.11811023622047244
        },
        {
          "duration": 0.5504580000000061,
          "durationTicks": 384,
          "midi": 64,
          "name": "E4",
          "ticks": 80066,
          "time": 114.77335996875,
          "velocity": 0.11811023622047244
        },
        {
          "duration": 0.13761450000001219,
          "durationTicks": 96,
          "midi": 52,
          "name": "E3",
          "ticks": 80066,
          "time": 114.77335996875,
          "velocity": 0.11811023622047244
        },
        {
          "duration": 0.5504580000000061,
          "durationTicks": 384,
          "midi": 64,
          "name": "E4",
          "ticks": 80066,
          "time": 114.77335996875,
          "velocity": 0.11811023622047244
        },
        {
          "duration": 0.13761449999999797,
          "durationTicks": 96,
          "midi": 45,
          "name": "A2",
          "ticks": 80162,
          "time": 114.91097446875001,
          "velocity": 0.11811023622047244
        },
        {
          "duration": 0.13761449999999797,
          "durationTicks": 96,
          "midi": 45,
          "name": "A2",
          "ticks": 80162,
          "time": 114.91097446875001,
          "velocity": 0.11811023622047244
        },
        {
          "duration": 0.13761449999999797,
          "durationTicks": 96,
          "midi": 52,
          "name": "E3",
          "ticks": 80258,
          "time": 115.04858896875001,
          "velocity": 0.11811023622047244
        },
        {
          "duration": 0.13761449999999797,
          "durationTicks": 96,
          "midi": 49,
          "name": "C#3",
          "ticks": 80258,
          "time": 115.04858896875001,
          "velocity": 0.11811023622047244
        },
        {
          "duration": 0.13761449999999797,
          "durationTicks": 96,
          "midi": 52,
          "name": "E3",
          "ticks": 80258,
          "time": 115.04858896875001,
          "velocity": 0.11811023622047244
        },
        {
          "duration": 0.13761449999999797,
          "durationTicks": 96,
          "midi": 45,
          "name": "A2",
          "ticks": 80354,
          "time": 115.18620346875001,
          "velocity": 0.11811023622047244
        },
        {
          "duration": 0.27522899999999595,
          "durationTicks": 192,
          "midi": 66,
          "name": "F#4",
          "ticks": 80450,
          "time": 115.32381796875,
          "velocity": 0.11811023622047244
        },
        {
          "duration": 0.13761449999999797,
          "durationTicks": 96,
          "midi": 49,
          "name": "C#3",
          "ticks": 80450,
          "time": 115.32381796875,
          "velocity": 0.11811023622047244
        },
        {
          "duration": 0.13761449999999797,
          "durationTicks": 96,
          "midi": 52,
          "name": "E3",
          "ticks": 80450,
          "time": 115.32381796875,
          "velocity": 0.11811023622047244
        },
        {
          "duration": 0.13761449999999797,
          "durationTicks": 96,
          "midi": 52,
          "name": "E3",
          "ticks": 80450,
          "time": 115.32381796875,
          "velocity": 0.11811023622047244
        },
        {
          "duration": 0.27522899999999595,
          "durationTicks": 192,
          "midi": 66,
          "name": "F#4",
          "ticks": 80450,
          "time": 115.32381796875,
          "velocity": 0.11811023622047244
        },
        {
          "duration": 0.13761449999999797,
          "durationTicks": 96,
          "midi": 45,
          "name": "A2",
          "ticks": 80546,
          "time": 115.46143246875,
          "velocity": 0.11811023622047244
        },
        {
          "duration": 0.13761449999999797,
          "durationTicks": 96,
          "midi": 45,
          "name": "A2",
          "ticks": 80546,
          "time": 115.46143246875,
          "velocity": 0.11811023622047244
        },
        {
          "duration": 0.8256870000000021,
          "durationTicks": 576,
          "midi": 61,
          "name": "C#4",
          "ticks": 80642,
          "time": 115.59904696875,
          "velocity": 0.11811023622047244
        },
        {
          "duration": 0.13761449999999797,
          "durationTicks": 96,
          "midi": 52,
          "name": "E3",
          "ticks": 80642,
          "time": 115.59904696875,
          "velocity": 0.11811023622047244
        },
        {
          "duration": 0.8256870000000021,
          "durationTicks": 576,
          "midi": 61,
          "name": "C#4",
          "ticks": 80642,
          "time": 115.59904696875,
          "velocity": 0.11811023622047244
        },
        {
          "duration": 0.13761450000001219,
          "durationTicks": 96,
          "midi": 46,
          "name": "A#2",
          "ticks": 80738,
          "time": 115.73666146875,
          "velocity": 0.11811023622047244
        },
        {
          "duration": 0.13761450000001219,
          "durationTicks": 96,
          "midi": 46,
          "name": "A#2",
          "ticks": 80738,
          "time": 115.73666146875,
          "velocity": 0.11811023622047244
        },
        {
          "duration": 0.13761449999999797,
          "durationTicks": 96,
          "midi": 52,
          "name": "E3",
          "ticks": 80834,
          "time": 115.87427596875001,
          "velocity": 0.11811023622047244
        },
        {
          "duration": 0.13761449999999797,
          "durationTicks": 96,
          "midi": 49,
          "name": "C#3",
          "ticks": 80834,
          "time": 115.87427596875001,
          "velocity": 0.11811023622047244
        },
        {
          "duration": 0.13761449999999797,
          "durationTicks": 96,
          "midi": 52,
          "name": "E3",
          "ticks": 80834,
          "time": 115.87427596875001,
          "velocity": 0.11811023622047244
        },
        {
          "duration": 0.13761449999999797,
          "durationTicks": 96,
          "midi": 46,
          "name": "A#2",
          "ticks": 80930,
          "time": 116.01189046875001,
          "velocity": 0.11811023622047244
        },
        {
          "duration": 0.13761449999999797,
          "durationTicks": 96,
          "midi": 52,
          "name": "E3",
          "ticks": 81026,
          "time": 116.14950496875001,
          "velocity": 0.11811023622047244
        },
        {
          "duration": 0.13761449999999797,
          "durationTicks": 96,
          "midi": 49,
          "name": "C#3",
          "ticks": 81026,
          "time": 116.14950496875001,
          "velocity": 0.11811023622047244
        },
        {
          "duration": 0.13761449999999797,
          "durationTicks": 96,
          "midi": 52,
          "name": "E3",
          "ticks": 81026,
          "time": 116.14950496875001,
          "velocity": 0.11811023622047244
        },
        {
          "duration": 0.13761449999999797,
          "durationTicks": 96,
          "midi": 46,
          "name": "A#2",
          "ticks": 81122,
          "time": 116.28711946875,
          "velocity": 0.11811023622047244
        },
        {
          "duration": 0.13761449999999797,
          "durationTicks": 96,
          "midi": 52,
          "name": "E3",
          "ticks": 81218,
          "time": 116.42473396875,
          "velocity": 0.11811023622047244
        },
        {
          "duration": 0.8256870000000021,
          "durationTicks": 576,
          "midi": 64,
          "name": "E4",
          "ticks": 81218,
          "time": 116.42473396875,
          "velocity": 0.11811023622047244
        },
        {
          "duration": 0.8256870000000021,
          "durationTicks": 576,
          "midi": 64,
          "name": "E4",
          "ticks": 81218,
          "time": 116.42473396875,
          "velocity": 0.11811023622047244
        },
        {
          "duration": 0.13761449999999797,
          "durationTicks": 96,
          "midi": 46,
          "name": "A#2",
          "ticks": 81314,
          "time": 116.56234846875,
          "velocity": 0.11811023622047244
        },
        {
          "duration": 0.13761449999999797,
          "durationTicks": 96,
          "midi": 46,
          "name": "A#2",
          "ticks": 81314,
          "time": 116.56234846875,
          "velocity": 0.11811023622047244
        },
        {
          "duration": 0.13761450000001219,
          "durationTicks": 96,
          "midi": 52,
          "name": "E3",
          "ticks": 81410,
          "time": 116.69996296875,
          "velocity": 0.11811023622047244
        },
        {
          "duration": 0.13761450000001219,
          "durationTicks": 96,
          "midi": 52,
          "name": "E3",
          "ticks": 81410,
          "time": 116.69996296875,
          "velocity": 0.11811023622047244
        },
        {
          "duration": 0.13761450000001219,
          "durationTicks": 96,
          "midi": 49,
          "name": "C#3",
          "ticks": 81410,
          "time": 116.69996296875,
          "velocity": 0.11811023622047244
        },
        {
          "duration": 0.13761449999999797,
          "durationTicks": 96,
          "midi": 46,
          "name": "A#2",
          "ticks": 81506,
          "time": 116.83757746875001,
          "velocity": 0.11811023622047244
        },
        {
          "duration": 0.13761449999999797,
          "durationTicks": 96,
          "midi": 52,
          "name": "E3",
          "ticks": 81602,
          "time": 116.97519196875001,
          "velocity": 0.11811023622047244
        },
        {
          "duration": 0.13761449999999797,
          "durationTicks": 96,
          "midi": 52,
          "name": "E3",
          "ticks": 81602,
          "time": 116.97519196875001,
          "velocity": 0.11811023622047244
        },
        {
          "duration": 0.13761449999999797,
          "durationTicks": 96,
          "midi": 49,
          "name": "C#3",
          "ticks": 81602,
          "time": 116.97519196875001,
          "velocity": 0.11811023622047244
        },
        {
          "duration": 0.27522899999999595,
          "durationTicks": 192,
          "midi": 49,
          "name": "C#3",
          "ticks": 81602,
          "time": 116.97519196875001,
          "velocity": 0.11811023622047244
        },
        {
          "duration": 0.13761449999999797,
          "durationTicks": 96,
          "midi": 46,
          "name": "A#2",
          "ticks": 81698,
          "time": 117.11280646875001,
          "velocity": 0.11811023622047244
        },
        {
          "duration": 0.27522899999999595,
          "durationTicks": 192,
          "midi": 47,
          "name": "B2",
          "ticks": 81794,
          "time": 117.25042096875,
          "velocity": 0.11811023622047244
        },
        {
          "duration": 0.8256870000000021,
          "durationTicks": 576,
          "midi": 47,
          "name": "B2",
          "ticks": 81794,
          "time": 117.25042096875,
          "velocity": 0.11811023622047244
        },
        {
          "duration": 0.5504580000000061,
          "durationTicks": 384,
          "midi": 64,
          "name": "E4",
          "ticks": 81794,
          "time": 117.25042096875,
          "velocity": 0.11811023622047244
        },
        {
          "duration": 0.5504580000000061,
          "durationTicks": 384,
          "midi": 63,
          "name": "D#4",
          "ticks": 81794,
          "time": 117.25042096875,
          "velocity": 0.11811023622047244
        },
        {
          "duration": 0.13761449999999797,
          "durationTicks": 96,
          "midi": 50,
          "name": "D3",
          "ticks": 81986,
          "time": 117.52564996875,
          "velocity": 0.11811023622047244
        },
        {
          "duration": 0.5504580000000061,
          "durationTicks": 384,
          "midi": 50,
          "name": "D3",
          "ticks": 81986,
          "time": 117.52564996875,
          "velocity": 0.11811023622047244
        },
        {
          "duration": 0.13761449999999797,
          "durationTicks": 96,
          "midi": 54,
          "name": "F#3",
          "ticks": 81986,
          "time": 117.52564996875,
          "velocity": 0.11811023622047244
        },
        {
          "duration": 0.13761449999999797,
          "durationTicks": 96,
          "midi": 62,
          "name": "D4",
          "ticks": 82178,
          "time": 117.80087896875001,
          "velocity": 0.11811023622047244
        },
        {
          "duration": 0.13761449999999797,
          "durationTicks": 96,
          "midi": 62,
          "name": "D4",
          "ticks": 82178,
          "time": 117.80087896875001,
          "velocity": 0.11811023622047244
        },
        {
          "duration": 0.13761449999999797,
          "durationTicks": 96,
          "midi": 57,
          "name": "A3",
          "ticks": 82178,
          "time": 117.80087896875001,
          "velocity": 0.11811023622047244
        },
        {
          "duration": 0.13761449999999797,
          "durationTicks": 96,
          "midi": 54,
          "name": "F#3",
          "ticks": 82178,
          "time": 117.80087896875001,
          "velocity": 0.11811023622047244
        },
        {
          "duration": 0.27522899999999595,
          "durationTicks": 192,
          "midi": 54,
          "name": "F#3",
          "ticks": 82178,
          "time": 117.80087896875001,
          "velocity": 0.11811023622047244
        },
        {
          "duration": 0.5504579999999919,
          "durationTicks": 384,
          "midi": 61,
          "name": "C#4",
          "ticks": 82370,
          "time": 118.07610796875001,
          "velocity": 0.11811023622047244
        },
        {
          "duration": 0.27522899999999595,
          "durationTicks": 192,
          "midi": 45,
          "name": "A2",
          "ticks": 82370,
          "time": 118.07610796875001,
          "velocity": 0.11811023622047244
        },
        {
          "duration": 0.5504579999999919,
          "durationTicks": 384,
          "midi": 61,
          "name": "C#4",
          "ticks": 82370,
          "time": 118.07610796875001,
          "velocity": 0.11811023622047244
        },
        {
          "duration": 0.8256870000000021,
          "durationTicks": 576,
          "midi": 45,
          "name": "A2",
          "ticks": 82370,
          "time": 118.07610796875001,
          "velocity": 0.11811023622047244
        },
        {
          "duration": 0.13761449999999797,
          "durationTicks": 96,
          "midi": 49,
          "name": "C#3",
          "ticks": 82562,
          "time": 118.35133696875,
          "velocity": 0.11811023622047244
        },
        {
          "duration": 0.5504580000000061,
          "durationTicks": 384,
          "midi": 49,
          "name": "C#3",
          "ticks": 82562,
          "time": 118.35133696875,
          "velocity": 0.11811023622047244
        },
        {
          "duration": 0.13761449999999797,
          "durationTicks": 96,
          "midi": 52,
          "name": "E3",
          "ticks": 82562,
          "time": 118.35133696875,
          "velocity": 0.11811023622047244
        },
        {
          "duration": 0.13761450000001219,
          "durationTicks": 96,
          "midi": 52,
          "name": "E3",
          "ticks": 82754,
          "time": 118.62656596875,
          "velocity": 0.11811023622047244
        },
        {
          "duration": 0.27522900000001016,
          "durationTicks": 192,
          "midi": 52,
          "name": "E3",
          "ticks": 82754,
          "time": 118.62656596875,
          "velocity": 0.11811023622047244
        },
        {
          "duration": 0.13761450000001219,
          "durationTicks": 96,
          "midi": 57,
          "name": "A3",
          "ticks": 82754,
          "time": 118.62656596875,
          "velocity": 0.11811023622047244
        },
        {
          "duration": 0.13761450000001219,
          "durationTicks": 96,
          "midi": 62,
          "name": "D4",
          "ticks": 82754,
          "time": 118.62656596875,
          "velocity": 0.11811023622047244
        },
        {
          "duration": 0.13761450000001219,
          "durationTicks": 96,
          "midi": 62,
          "name": "D4",
          "ticks": 82754,
          "time": 118.62656596875,
          "velocity": 0.11811023622047244
        },
        {
          "duration": 0.27522899999999595,
          "durationTicks": 192,
          "midi": 43,
          "name": "G2",
          "ticks": 82946,
          "time": 118.90179496875001,
          "velocity": 0.11811023622047244
        },
        {
          "duration": 0.8256870000000021,
          "durationTicks": 576,
          "midi": 57,
          "name": "A3",
          "ticks": 82946,
          "time": 118.90179496875001,
          "velocity": 0.11811023622047244
        },
        {
          "duration": 0.13761449999999797,
          "durationTicks": 96,
          "midi": 54,
          "name": "F#3",
          "ticks": 82946,
          "time": 118.90179496875001,
          "velocity": 0.11811023622047244
        },
        {
          "duration": 0.8256870000000021,
          "durationTicks": 576,
          "midi": 57,
          "name": "A3",
          "ticks": 82946,
          "time": 118.90179496875001,
          "velocity": 0.11811023622047244
        },
        {
          "duration": 0.13761449999999797,
          "durationTicks": 96,
          "midi": 47,
          "name": "B2",
          "ticks": 83042,
          "time": 119.03940946875001,
          "velocity": 0.11811023622047244
        },
        {
          "duration": 0.13761449999999797,
          "durationTicks": 96,
          "midi": 47,
          "name": "B2",
          "ticks": 83138,
          "time": 119.17702396875,
          "velocity": 0.11811023622047244
        },
        {
          "duration": 0.13761449999999797,
          "durationTicks": 96,
          "midi": 50,
          "name": "D3",
          "ticks": 83138,
          "time": 119.17702396875,
          "velocity": 0.11811023622047244
        },
        {
          "duration": 0.13761449999999797,
          "durationTicks": 96,
          "midi": 54,
          "name": "F#3",
          "ticks": 83138,
          "time": 119.17702396875,
          "velocity": 0.11811023622047244
        },
        {
          "duration": 0.13761449999999797,
          "durationTicks": 96,
          "midi": 47,
          "name": "B2",
          "ticks": 83234,
          "time": 119.31463846875,
          "velocity": 0.11811023622047244
        },
        {
          "duration": 0.13761449999999797,
          "durationTicks": 96,
          "midi": 50,
          "name": "D3",
          "ticks": 83330,
          "time": 119.45225296875,
          "velocity": 0.11811023622047244
        },
        {
          "duration": 0.13761449999999797,
          "durationTicks": 96,
          "midi": 54,
          "name": "F#3",
          "ticks": 83330,
          "time": 119.45225296875,
          "velocity": 0.11811023622047244
        },
        {
          "duration": 0.13761449999999797,
          "durationTicks": 96,
          "midi": 47,
          "name": "B2",
          "ticks": 83330,
          "time": 119.45225296875,
          "velocity": 0.11811023622047244
        },
        {
          "duration": 0.13761450000001219,
          "durationTicks": 96,
          "midi": 47,
          "name": "B2",
          "ticks": 83426,
          "time": 119.58986746875,
          "velocity": 0.11811023622047244
        },
        {
          "duration": 0.5504579999999919,
          "durationTicks": 384,
          "midi": 69,
          "name": "A4",
          "ticks": 83522,
          "time": 119.72748196875001,
          "velocity": 0.11811023622047244
        },
        {
          "duration": 0.5504579999999919,
          "durationTicks": 384,
          "midi": 69,
          "name": "A4",
          "ticks": 83522,
          "time": 119.72748196875001,
          "velocity": 0.11811023622047244
        },
        {
          "duration": 0.13761449999999797,
          "durationTicks": 96,
          "midi": 54,
          "name": "F#3",
          "ticks": 83522,
          "time": 119.72748196875001,
          "velocity": 0.11811023622047244
        },
        {
          "duration": 0.27522899999999595,
          "durationTicks": 192,
          "midi": 43,
          "name": "G2",
          "ticks": 83522,
          "time": 119.72748196875001,
          "velocity": 0.11811023622047244
        },
        {
          "duration": 0.13761449999999797,
          "durationTicks": 96,
          "midi": 47,
          "name": "B2",
          "ticks": 83618,
          "time": 119.86509646875001,
          "velocity": 0.11811023622047244
        },
        {
          "duration": 0.13761449999999797,
          "durationTicks": 96,
          "midi": 50,
          "name": "D3",
          "ticks": 83714,
          "time": 120.00271096875001,
          "velocity": 0.11811023622047244
        },
        {
          "duration": 0.13761449999999797,
          "durationTicks": 96,
          "midi": 54,
          "name": "F#3",
          "ticks": 83714,
          "time": 120.00271096875001,
          "velocity": 0.11811023622047244
        },
        {
          "duration": 0.13761449999999797,
          "durationTicks": 96,
          "midi": 47,
          "name": "B2",
          "ticks": 83714,
          "time": 120.00271096875001,
          "velocity": 0.11811023622047244
        },
        {
          "duration": 0.13761449999999797,
          "durationTicks": 96,
          "midi": 47,
          "name": "B2",
          "ticks": 83810,
          "time": 120.14032546875,
          "velocity": 0.11811023622047244
        },
        {
          "duration": 0.27522899999999595,
          "durationTicks": 192,
          "midi": 66,
          "name": "F#4",
          "ticks": 83906,
          "time": 120.27793996875,
          "velocity": 0.11811023622047244
        },
        {
          "duration": 0.13761449999999797,
          "durationTicks": 96,
          "midi": 54,
          "name": "F#3",
          "ticks": 83906,
          "time": 120.27793996875,
          "velocity": 0.11811023622047244
        },
        {
          "duration": 0.27522899999999595,
          "durationTicks": 192,
          "midi": 66,
          "name": "F#4",
          "ticks": 83906,
          "time": 120.27793996875,
          "velocity": 0.11811023622047244
        },
        {
          "duration": 0.13761449999999797,
          "durationTicks": 96,
          "midi": 50,
          "name": "D3",
          "ticks": 83906,
          "time": 120.27793996875,
          "velocity": 0.11811023622047244
        },
        {
          "duration": 0.13761449999999797,
          "durationTicks": 96,
          "midi": 47,
          "name": "B2",
          "ticks": 83906,
          "time": 120.27793996875,
          "velocity": 0.11811023622047244
        },
        {
          "duration": 0.13761449999999797,
          "durationTicks": 96,
          "midi": 47,
          "name": "B2",
          "ticks": 84002,
          "time": 120.41555446875,
          "velocity": 0.11811023622047244
        },
        {
          "duration": 0.13761450000001219,
          "durationTicks": 96,
          "midi": 54,
          "name": "F#3",
          "ticks": 84098,
          "time": 120.55316896875,
          "velocity": 0.11811023622047244
        },
        {
          "duration": 0.27522900000001016,
          "durationTicks": 192,
          "midi": 43,
          "name": "G2",
          "ticks": 84098,
          "time": 120.55316896875,
          "velocity": 0.11811023622047244
        },
        {
          "duration": 0.5504580000000061,
          "durationTicks": 384,
          "midi": 64,
          "name": "E4",
          "ticks": 84098,
          "time": 120.55316896875,
          "velocity": 0.11811023622047244
        },
        {
          "duration": 0.5504580000000061,
          "durationTicks": 384,
          "midi": 64,
          "name": "E4",
          "ticks": 84098,
          "time": 120.55316896875,
          "velocity": 0.11811023622047244
        },
        {
          "duration": 0.13761449999999797,
          "durationTicks": 96,
          "midi": 47,
          "name": "B2",
          "ticks": 84194,
          "time": 120.69078346875001,
          "velocity": 0.11811023622047244
        },
        {
          "duration": 0.13761449999999797,
          "durationTicks": 96,
          "midi": 47,
          "name": "B2",
          "ticks": 84290,
          "time": 120.82839796875001,
          "velocity": 0.11811023622047244
        },
        {
          "duration": 0.13761449999999797,
          "durationTicks": 96,
          "midi": 50,
          "name": "D3",
          "ticks": 84290,
          "time": 120.82839796875001,
          "velocity": 0.11811023622047244
        },
        {
          "duration": 0.13761449999999797,
          "durationTicks": 96,
          "midi": 54,
          "name": "F#3",
          "ticks": 84290,
          "time": 120.82839796875001,
          "velocity": 0.11811023622047244
        },
        {
          "duration": 0.13761449999999797,
          "durationTicks": 96,
          "midi": 47,
          "name": "B2",
          "ticks": 84386,
          "time": 120.96601246875001,
          "velocity": 0.11811023622047244
        },
        {
          "duration": 0.27522899999999595,
          "durationTicks": 192,
          "midi": 62,
          "name": "D4",
          "ticks": 84482,
          "time": 121.10362696875,
          "velocity": 0.11811023622047244
        },
        {
          "duration": 0.13761449999999797,
          "durationTicks": 96,
          "midi": 50,
          "name": "D3",
          "ticks": 84482,
          "time": 121.10362696875,
          "velocity": 0.11811023622047244
        },
        {
          "duration": 0.13761449999999797,
          "durationTicks": 96,
          "midi": 54,
          "name": "F#3",
          "ticks": 84482,
          "time": 121.10362696875,
          "velocity": 0.11811023622047244
        },
        {
          "duration": 0.13761449999999797,
          "durationTicks": 96,
          "midi": 47,
          "name": "B2",
          "ticks": 84482,
          "time": 121.10362696875,
          "velocity": 0.11811023622047244
        },
        {
          "duration": 0.27522899999999595,
          "durationTicks": 192,
          "midi": 62,
          "name": "D4",
          "ticks": 84482,
          "time": 121.10362696875,
          "velocity": 0.11811023622047244
        },
        {
          "duration": 0.13761449999999797,
          "durationTicks": 96,
          "midi": 47,
          "name": "B2",
          "ticks": 84578,
          "time": 121.24124146875,
          "velocity": 0.11811023622047244
        },
        {
          "duration": 0.13761449999999797,
          "durationTicks": 96,
          "midi": 54,
          "name": "F#3",
          "ticks": 84674,
          "time": 121.37885596875,
          "velocity": 0.11811023622047244
        },
        {
          "duration": 0.27522900000001016,
          "durationTicks": 192,
          "midi": 43,
          "name": "G2",
          "ticks": 84674,
          "time": 121.37885596875,
          "velocity": 0.11811023622047244
        },
        {
          "duration": 0.5504580000000061,
          "durationTicks": 384,
          "midi": 61,
          "name": "C#4",
          "ticks": 84674,
          "time": 121.37885596875,
          "velocity": 0.11811023622047244
        },
        {
          "duration": 0.5504580000000061,
          "durationTicks": 384,
          "midi": 61,
          "name": "C#4",
          "ticks": 84674,
          "time": 121.37885596875,
          "velocity": 0.11811023622047244
        },
        {
          "duration": 0.13761450000001219,
          "durationTicks": 96,
          "midi": 47,
          "name": "B2",
          "ticks": 84770,
          "time": 121.51647046875,
          "velocity": 0.11811023622047244
        },
        {
          "duration": 0.13761449999999797,
          "durationTicks": 96,
          "midi": 50,
          "name": "D3",
          "ticks": 84866,
          "time": 121.65408496875001,
          "velocity": 0.11811023622047244
        },
        {
          "duration": 0.13761449999999797,
          "durationTicks": 96,
          "midi": 47,
          "name": "B2",
          "ticks": 84866,
          "time": 121.65408496875001,
          "velocity": 0.11811023622047244
        },
        {
          "duration": 0.13761449999999797,
          "durationTicks": 96,
          "midi": 54,
          "name": "F#3",
          "ticks": 84866,
          "time": 121.65408496875001,
          "velocity": 0.11811023622047244
        },
        {
          "duration": 0.13761449999999797,
          "durationTicks": 96,
          "midi": 47,
          "name": "B2",
          "ticks": 84962,
          "time": 121.79169946875001,
          "velocity": 0.11811023622047244
        },
        {
          "duration": 0.13761449999999797,
          "durationTicks": 96,
          "midi": 50,
          "name": "D3",
          "ticks": 85058,
          "time": 121.92931396875001,
          "velocity": 0.11811023622047244
        },
        {
          "duration": 0.13761449999999797,
          "durationTicks": 96,
          "midi": 47,
          "name": "B2",
          "ticks": 85058,
          "time": 121.92931396875001,
          "velocity": 0.11811023622047244
        },
        {
          "duration": 0.27522899999999595,
          "durationTicks": 192,
          "midi": 62,
          "name": "D4",
          "ticks": 85058,
          "time": 121.92931396875001,
          "velocity": 0.11811023622047244
        },
        {
          "duration": 0.13761449999999797,
          "durationTicks": 96,
          "midi": 54,
          "name": "F#3",
          "ticks": 85058,
          "time": 121.92931396875001,
          "velocity": 0.11811023622047244
        },
        {
          "duration": 0.27522899999999595,
          "durationTicks": 192,
          "midi": 62,
          "name": "D4",
          "ticks": 85058,
          "time": 121.92931396875001,
          "velocity": 0.11811023622047244
        },
        {
          "duration": 0.13761449999999797,
          "durationTicks": 96,
          "midi": 47,
          "name": "B2",
          "ticks": 85154,
          "time": 122.06692846875,
          "velocity": 0.11811023622047244
        },
        {
          "duration": 0.13761449999999797,
          "durationTicks": 96,
          "midi": 47,
          "name": "B2",
          "ticks": 85154,
          "time": 122.06692846875,
          "velocity": 0.11811023622047244
        },
        {
          "duration": 0.13761449999999797,
          "durationTicks": 96,
          "midi": 50,
          "name": "D3",
          "ticks": 85186,
          "time": 122.11279996875,
          "velocity": 0.11811023622047244
        },
        {
          "duration": 0.6880725000000041,
          "durationTicks": 480,
          "midi": 64,
          "name": "E4",
          "ticks": 85250,
          "time": 122.20454296875,
          "velocity": 0.11811023622047244
        },
        {
          "duration": 0.6880725000000041,
          "durationTicks": 480,
          "midi": 57,
          "name": "A3",
          "ticks": 85250,
          "time": 122.20454296875,
          "velocity": 0.11811023622047244
        },
        {
          "duration": 0.6880725000000041,
          "durationTicks": 480,
          "midi": 64,
          "name": "E4",
          "ticks": 85250,
          "time": 122.20454296875,
          "velocity": 0.11811023622047244
        },
        {
          "duration": 0.27522899999999595,
          "durationTicks": 192,
          "midi": 42,
          "name": "F#2",
          "ticks": 85250,
          "time": 122.20454296875,
          "velocity": 0.11811023622047244
        },
        {
          "duration": 0.13761449999999797,
          "durationTicks": 96,
          "midi": 52,
          "name": "E3",
          "ticks": 85250,
          "time": 122.20454296875,
          "velocity": 0.11811023622047244
        },
        {
          "duration": 0.13761449999999797,
          "durationTicks": 96,
          "midi": 45,
          "name": "A2",
          "ticks": 85346,
          "time": 122.34215746875,
          "velocity": 0.11811023622047244
        },
        {
          "duration": 0.13761450000001219,
          "durationTicks": 96,
          "midi": 49,
          "name": "C#3",
          "ticks": 85442,
          "time": 122.47977196875,
          "velocity": 0.11811023622047244
        },
        {
          "duration": 0.13761450000001219,
          "durationTicks": 96,
          "midi": 45,
          "name": "A2",
          "ticks": 85442,
          "time": 122.47977196875,
          "velocity": 0.11811023622047244
        },
        {
          "duration": 0.13761450000001219,
          "durationTicks": 96,
          "midi": 52,
          "name": "E3",
          "ticks": 85442,
          "time": 122.47977196875,
          "velocity": 0.11811023622047244
        },
        {
          "duration": 0.13761449999999797,
          "durationTicks": 96,
          "midi": 45,
          "name": "A2",
          "ticks": 85538,
          "time": 122.61738646875001,
          "velocity": 0.11811023622047244
        },
        {
          "duration": 0.13761449999999797,
          "durationTicks": 96,
          "midi": 52,
          "name": "E3",
          "ticks": 85634,
          "time": 122.75500096875001,
          "velocity": 0.11811023622047244
        },
        {
          "duration": 0.13761449999999797,
          "durationTicks": 96,
          "midi": 49,
          "name": "C#3",
          "ticks": 85634,
          "time": 122.75500096875001,
          "velocity": 0.11811023622047244
        },
        {
          "duration": 0.13761449999999797,
          "durationTicks": 96,
          "midi": 45,
          "name": "A2",
          "ticks": 85634,
          "time": 122.75500096875001,
          "velocity": 0.11811023622047244
        },
        {
          "duration": 0.13761449999999797,
          "durationTicks": 96,
          "midi": 71,
          "name": "B4",
          "ticks": 85730,
          "time": 122.89261546875001,
          "velocity": 0.11811023622047244
        },
        {
          "duration": 0.13761449999999797,
          "durationTicks": 96,
          "midi": 45,
          "name": "A2",
          "ticks": 85730,
          "time": 122.89261546875001,
          "velocity": 0.11811023622047244
        },
        {
          "duration": 0.13761449999999797,
          "durationTicks": 96,
          "midi": 71,
          "name": "B4",
          "ticks": 85730,
          "time": 122.89261546875001,
          "velocity": 0.11811023622047244
        },
        {
          "duration": 0.13761450000001219,
          "durationTicks": 96,
          "midi": 72,
          "name": "C5",
          "ticks": 85778,
          "time": 122.96142271875,
          "velocity": 0.11811023622047244
        },
        {
          "duration": 0.13761450000001219,
          "durationTicks": 96,
          "midi": 72,
          "name": "C5",
          "ticks": 85778,
          "time": 122.96142271875,
          "velocity": 0.11811023622047244
        },
        {
          "duration": 0.13761449999999797,
          "durationTicks": 96,
          "midi": 73,
          "name": "C#5",
          "ticks": 85826,
          "time": 123.03022996875,
          "velocity": 0.11811023622047244
        },
        {
          "duration": 0.13761449999999797,
          "durationTicks": 96,
          "midi": 57,
          "name": "A3",
          "ticks": 85826,
          "time": 123.03022996875,
          "velocity": 0.11811023622047244
        },
        {
          "duration": 0.13761449999999797,
          "durationTicks": 96,
          "midi": 52,
          "name": "E3",
          "ticks": 85826,
          "time": 123.03022996875,
          "velocity": 0.11811023622047244
        },
        {
          "duration": 0.27522899999999595,
          "durationTicks": 192,
          "midi": 42,
          "name": "F#2",
          "ticks": 85826,
          "time": 123.03022996875,
          "velocity": 0.11811023622047244
        },
        {
          "duration": 0.13761449999999797,
          "durationTicks": 96,
          "midi": 73,
          "name": "C#5",
          "ticks": 85826,
          "time": 123.03022996875,
          "velocity": 0.11811023622047244
        },
        {
          "duration": 0.13761449999999797,
          "durationTicks": 96,
          "midi": 45,
          "name": "A2",
          "ticks": 85922,
          "time": 123.16784446875,
          "velocity": 0.11811023622047244
        },
        {
          "duration": 0.13761449999999797,
          "durationTicks": 96,
          "midi": 59,
          "name": "B3",
          "ticks": 86018,
          "time": 123.30545896875,
          "velocity": 0.11811023622047244
        },
        {
          "duration": 0.13761449999999797,
          "durationTicks": 96,
          "midi": 49,
          "name": "C#3",
          "ticks": 86018,
          "time": 123.30545896875,
          "velocity": 0.11811023622047244
        },
        {
          "duration": 0.13761449999999797,
          "durationTicks": 96,
          "midi": 45,
          "name": "A2",
          "ticks": 86018,
          "time": 123.30545896875,
          "velocity": 0.11811023622047244
        },
        {
          "duration": 0.13761449999999797,
          "durationTicks": 96,
          "midi": 72,
          "name": "C5",
          "ticks": 86018,
          "time": 123.30545896875,
          "velocity": 0.11811023622047244
        },
        {
          "duration": 0.13761449999999797,
          "durationTicks": 96,
          "midi": 52,
          "name": "E3",
          "ticks": 86018,
          "time": 123.30545896875,
          "velocity": 0.11811023622047244
        },
        {
          "duration": 0.13761449999999797,
          "durationTicks": 96,
          "midi": 72,
          "name": "C5",
          "ticks": 86018,
          "time": 123.30545896875,
          "velocity": 0.11811023622047244
        },
        {
          "duration": 0.13761450000001219,
          "durationTicks": 96,
          "midi": 45,
          "name": "A2",
          "ticks": 86114,
          "time": 123.44307346875,
          "velocity": 0.11811023622047244
        },
        {
          "duration": 0.13761449999999797,
          "durationTicks": 96,
          "midi": 71,
          "name": "B4",
          "ticks": 86210,
          "time": 123.58068796875001,
          "velocity": 0.11811023622047244
        },
        {
          "duration": 0.13761449999999797,
          "durationTicks": 96,
          "midi": 52,
          "name": "E3",
          "ticks": 86210,
          "time": 123.58068796875001,
          "velocity": 0.11811023622047244
        },
        {
          "duration": 0.13761449999999797,
          "durationTicks": 96,
          "midi": 45,
          "name": "A2",
          "ticks": 86210,
          "time": 123.58068796875001,
          "velocity": 0.11811023622047244
        },
        {
          "duration": 0.13761449999999797,
          "durationTicks": 96,
          "midi": 60,
          "name": "C4",
          "ticks": 86210,
          "time": 123.58068796875001,
          "velocity": 0.11811023622047244
        },
        {
          "duration": 0.13761449999999797,
          "durationTicks": 96,
          "midi": 49,
          "name": "C#3",
          "ticks": 86210,
          "time": 123.58068796875001,
          "velocity": 0.11811023622047244
        },
        {
          "duration": 0.13761449999999797,
          "durationTicks": 96,
          "midi": 71,
          "name": "B4",
          "ticks": 86210,
          "time": 123.58068796875001,
          "velocity": 0.11811023622047244
        },
        {
          "duration": 0.13761449999999797,
          "durationTicks": 96,
          "midi": 45,
          "name": "A2",
          "ticks": 86306,
          "time": 123.71830246875001,
          "velocity": 0.11811023622047244
        },
        {
          "duration": 1.6513740000000041,
          "durationTicks": 1152,
          "midi": 69,
          "name": "A4",
          "ticks": 86402,
          "time": 123.85591696875001,
          "velocity": 0.11811023622047244
        },
        {
          "duration": 1.6513740000000041,
          "durationTicks": 1152,
          "midi": 69,
          "name": "A4",
          "ticks": 86402,
          "time": 123.85591696875001,
          "velocity": 0.11811023622047244
        },
        {
          "duration": 0.13761449999999797,
          "durationTicks": 96,
          "midi": 52,
          "name": "E3",
          "ticks": 86402,
          "time": 123.85591696875001,
          "velocity": 0.11811023622047244
        },
        {
          "duration": 0.27522899999999595,
          "durationTicks": 192,
          "midi": 42,
          "name": "F#2",
          "ticks": 86402,
          "time": 123.85591696875001,
          "velocity": 0.11811023622047244
        },
        {
          "duration": 1.6513740000000041,
          "durationTicks": 1152,
          "midi": 61,
          "name": "C#4",
          "ticks": 86402,
          "time": 123.85591696875001,
          "velocity": 0.11811023622047244
        },
        {
          "duration": 0.13761449999999797,
          "durationTicks": 96,
          "midi": 45,
          "name": "A2",
          "ticks": 86498,
          "time": 123.99353146875,
          "velocity": 0.11811023622047244
        },
        {
          "duration": 0.13761449999999797,
          "durationTicks": 96,
          "midi": 45,
          "name": "A2",
          "ticks": 86594,
          "time": 124.13114596875,
          "velocity": 0.11811023622047244
        },
        {
          "duration": 0.13761449999999797,
          "durationTicks": 96,
          "midi": 52,
          "name": "E3",
          "ticks": 86594,
          "time": 124.13114596875,
          "velocity": 0.11811023622047244
        },
        {
          "duration": 0.13761449999999797,
          "durationTicks": 96,
          "midi": 49,
          "name": "C#3",
          "ticks": 86594,
          "time": 124.13114596875,
          "velocity": 0.11811023622047244
        },
        {
          "duration": 0.13761449999999797,
          "durationTicks": 96,
          "midi": 45,
          "name": "A2",
          "ticks": 86690,
          "time": 124.26876046875,
          "velocity": 0.11811023622047244
        },
        {
          "duration": 0.13761450000001219,
          "durationTicks": 96,
          "midi": 45,
          "name": "A2",
          "ticks": 86786,
          "time": 124.40637496875,
          "velocity": 0.11811023622047244
        },
        {
          "duration": 0.13761450000001219,
          "durationTicks": 96,
          "midi": 49,
          "name": "C#3",
          "ticks": 86786,
          "time": 124.40637496875,
          "velocity": 0.11811023622047244
        },
        {
          "duration": 0.13761450000001219,
          "durationTicks": 96,
          "midi": 52,
          "name": "E3",
          "ticks": 86786,
          "time": 124.40637496875,
          "velocity": 0.11811023622047244
        },
        {
          "duration": 0.13761449999999797,
          "durationTicks": 96,
          "midi": 45,
          "name": "A2",
          "ticks": 86882,
          "time": 124.54398946875001,
          "velocity": 0.11811023622047244
        },
        {
          "duration": 0.13761449999999797,
          "durationTicks": 96,
          "midi": 52,
          "name": "E3",
          "ticks": 86978,
          "time": 124.68160396875001,
          "velocity": 0.11811023622047244
        },
        {
          "duration": 0.27522899999999595,
          "durationTicks": 192,
          "midi": 42,
          "name": "F#2",
          "ticks": 86978,
          "time": 124.68160396875001,
          "velocity": 0.11811023622047244
        },
        {
          "duration": 0.13761449999999797,
          "durationTicks": 96,
          "midi": 45,
          "name": "A2",
          "ticks": 87074,
          "time": 124.81921846875001,
          "velocity": 0.11811023622047244
        },
        {
          "duration": 0.13761449999999797,
          "durationTicks": 96,
          "midi": 52,
          "name": "E3",
          "ticks": 87170,
          "time": 124.95683296875,
          "velocity": 0.11811023622047244
        },
        {
          "duration": 0.13761449999999797,
          "durationTicks": 96,
          "midi": 49,
          "name": "C#3",
          "ticks": 87170,
          "time": 124.95683296875,
          "velocity": 0.11811023622047244
        },
        {
          "duration": 0.13761449999999797,
          "durationTicks": 96,
          "midi": 45,
          "name": "A2",
          "ticks": 87170,
          "time": 124.95683296875,
          "velocity": 0.11811023622047244
        },
        {
          "duration": 0.13761449999999797,
          "durationTicks": 96,
          "midi": 45,
          "name": "A2",
          "ticks": 87266,
          "time": 125.09444746875,
          "velocity": 0.11811023622047244
        },
        {
          "duration": 0.13761449999999797,
          "durationTicks": 96,
          "midi": 45,
          "name": "A2",
          "ticks": 87362,
          "time": 125.23206196875,
          "velocity": 0.11811023622047244
        },
        {
          "duration": 0.13761449999999797,
          "durationTicks": 96,
          "midi": 52,
          "name": "E3",
          "ticks": 87362,
          "time": 125.23206196875,
          "velocity": 0.11811023622047244
        },
        {
          "duration": 0.13761449999999797,
          "durationTicks": 96,
          "midi": 49,
          "name": "C#3",
          "ticks": 87362,
          "time": 125.23206196875,
          "velocity": 0.11811023622047244
        },
        {
          "duration": 0.13761450000001219,
          "durationTicks": 96,
          "midi": 45,
          "name": "A2",
          "ticks": 87458,
          "time": 125.36967646875,
          "velocity": 0.11811023622047244
        },
        {
          "duration": 0.13761450000001219,
          "durationTicks": 96,
          "midi": 45,
          "name": "A2",
          "ticks": 87458,
          "time": 125.36967646875,
          "velocity": 0.11811023622047244
        },
        {
          "duration": 0.8256869999999878,
          "durationTicks": 576,
          "midi": 59,
          "name": "B3",
          "ticks": 87554,
          "time": 125.50729096875001,
          "velocity": 0.11811023622047244
        },
        {
          "duration": 0.13761449999999797,
          "durationTicks": 96,
          "midi": 47,
          "name": "B2",
          "ticks": 87554,
          "time": 125.50729096875001,
          "velocity": 0.11811023622047244
        },
        {
          "duration": 0.27522899999999595,
          "durationTicks": 192,
          "midi": 40,
          "name": "E2",
          "ticks": 87554,
          "time": 125.50729096875001,
          "velocity": 0.11811023622047244
        },
        {
          "duration": 0.8256869999999878,
          "durationTicks": 576,
          "midi": 59,
          "name": "B3",
          "ticks": 87554,
          "time": 125.50729096875001,
          "velocity": 0.11811023622047244
        },
        {
          "duration": 0.13761449999999797,
          "durationTicks": 96,
          "midi": 43,
          "name": "G2",
          "ticks": 87650,
          "time": 125.64490546875001,
          "velocity": 0.11811023622047244
        },
        {
          "duration": 0.13761449999999797,
          "durationTicks": 96,
          "midi": 47,
          "name": "B2",
          "ticks": 87746,
          "time": 125.78251996875001,
          "velocity": 0.11811023622047244
        },
        {
          "duration": 0.13761449999999797,
          "durationTicks": 96,
          "midi": 43,
          "name": "G2",
          "ticks": 87746,
          "time": 125.78251996875001,
          "velocity": 0.11811023622047244
        },
        {
          "duration": 0.13761449999999797,
          "durationTicks": 96,
          "midi": 47,
          "name": "B2",
          "ticks": 87746,
          "time": 125.78251996875001,
          "velocity": 0.11811023622047244
        },
        {
          "duration": 0.13761449999999797,
          "durationTicks": 96,
          "midi": 43,
          "name": "G2",
          "ticks": 87842,
          "time": 125.92013446875,
          "velocity": 0.11811023622047244
        },
        {
          "duration": 0.13761449999999797,
          "durationTicks": 96,
          "midi": 47,
          "name": "B2",
          "ticks": 87938,
          "time": 126.05774896875,
          "velocity": 0.11811023622047244
        },
        {
          "duration": 0.13761449999999797,
          "durationTicks": 96,
          "midi": 47,
          "name": "B2",
          "ticks": 87938,
          "time": 126.05774896875,
          "velocity": 0.11811023622047244
        },
        {
          "duration": 0.13761449999999797,
          "durationTicks": 96,
          "midi": 43,
          "name": "G2",
          "ticks": 87938,
          "time": 126.05774896875,
          "velocity": 0.11811023622047244
        },
        {
          "duration": 0.13761449999999797,
          "durationTicks": 96,
          "midi": 43,
          "name": "G2",
          "ticks": 88034,
          "time": 126.19536346875,
          "velocity": 0.11811023622047244
        },
        {
          "duration": 0.5504580000000061,
          "durationTicks": 384,
          "midi": 69,
          "name": "A4",
          "ticks": 88130,
          "time": 126.33297796875,
          "velocity": 0.11811023622047244
        },
        {
          "duration": 0.5504580000000061,
          "durationTicks": 384,
          "midi": 69,
          "name": "A4",
          "ticks": 88130,
          "time": 126.33297796875,
          "velocity": 0.11811023622047244
        },
        {
          "duration": 0.27522900000001016,
          "durationTicks": 192,
          "midi": 40,
          "name": "E2",
          "ticks": 88130,
          "time": 126.33297796875,
          "velocity": 0.11811023622047244
        },
        {
          "duration": 0.13761450000001219,
          "durationTicks": 96,
          "midi": 47,
          "name": "B2",
          "ticks": 88130,
          "time": 126.33297796875,
          "velocity": 0.11811023622047244
        },
        {
          "duration": 0.13761449999999797,
          "durationTicks": 96,
          "midi": 43,
          "name": "G2",
          "ticks": 88226,
          "time": 126.47059246875001,
          "velocity": 0.11811023622047244
        },
        {
          "duration": 0.13761449999999797,
          "durationTicks": 96,
          "midi": 47,
          "name": "B2",
          "ticks": 88322,
          "time": 126.60820696875001,
          "velocity": 0.11811023622047244
        },
        {
          "duration": 0.13761449999999797,
          "durationTicks": 96,
          "midi": 47,
          "name": "B2",
          "ticks": 88322,
          "time": 126.60820696875001,
          "velocity": 0.11811023622047244
        },
        {
          "duration": 0.13761449999999797,
          "durationTicks": 96,
          "midi": 43,
          "name": "G2",
          "ticks": 88322,
          "time": 126.60820696875001,
          "velocity": 0.11811023622047244
        },
        {
          "duration": 0.13761449999999797,
          "durationTicks": 96,
          "midi": 43,
          "name": "G2",
          "ticks": 88418,
          "time": 126.74582146875001,
          "velocity": 0.11811023622047244
        },
        {
          "duration": 0.27522899999999595,
          "durationTicks": 192,
          "midi": 66,
          "name": "F#4",
          "ticks": 88514,
          "time": 126.88343596875,
          "velocity": 0.11811023622047244
        },
        {
          "duration": 0.13761449999999797,
          "durationTicks": 96,
          "midi": 43,
          "name": "G2",
          "ticks": 88514,
          "time": 126.88343596875,
          "velocity": 0.11811023622047244
        },
        {
          "duration": 0.13761449999999797,
          "durationTicks": 96,
          "midi": 47,
          "name": "B2",
          "ticks": 88514,
          "time": 126.88343596875,
          "velocity": 0.11811023622047244
        },
        {
          "duration": 0.13761449999999797,
          "durationTicks": 96,
          "midi": 47,
          "name": "B2",
          "ticks": 88514,
          "time": 126.88343596875,
          "velocity": 0.11811023622047244
        },
        {
          "duration": 0.27522899999999595,
          "durationTicks": 192,
          "midi": 66,
          "name": "F#4",
          "ticks": 88514,
          "time": 126.88343596875,
          "velocity": 0.11811023622047244
        },
        {
          "duration": 0.6880725000000041,
          "durationTicks": 480,
          "midi": 66,
          "name": "F#4",
          "ticks": 88514,
          "time": 126.88343596875,
          "velocity": 0.11811023622047244
        },
        {
          "duration": 0.13761449999999797,
          "durationTicks": 96,
          "midi": 43,
          "name": "G2",
          "ticks": 88610,
          "time": 127.02105046875,
          "velocity": 0.11811023622047244
        },
        {
          "duration": 0.13761449999999797,
          "durationTicks": 96,
          "midi": 43,
          "name": "G2",
          "ticks": 88610,
          "time": 127.02105046875,
          "velocity": 0.11811023622047244
        },
        {
          "duration": 0.13761449999999797,
          "durationTicks": 96,
          "midi": 52,
          "name": "E3",
          "ticks": 88706,
          "time": 127.15866496875,
          "velocity": 0.11811023622047244
        },
        {
          "duration": 0.41284350000000813,
          "durationTicks": 288,
          "midi": 64,
          "name": "E4",
          "ticks": 88706,
          "time": 127.15866496875,
          "velocity": 0.11811023622047244
        },
        {
          "duration": 0.5060199843749871,
          "durationTicks": 353,
          "midi": 64,
          "name": "E4",
          "ticks": 88706,
          "time": 127.15866496875,
          "velocity": 0.11811023622047244
        },
        {
          "duration": 0.13761450000001219,
          "durationTicks": 96,
          "midi": 45,
          "name": "A2",
          "ticks": 88802,
          "time": 127.29627946875,
          "velocity": 0.11811023622047244
        },
        {
          "duration": 0.13761450000001219,
          "durationTicks": 96,
          "midi": 45,
          "name": "A2",
          "ticks": 88802,
          "time": 127.29627946875,
          "velocity": 0.11811023622047244
        },
        {
          "duration": 0.13761449999999797,
          "durationTicks": 96,
          "midi": 52,
          "name": "E3",
          "ticks": 88898,
          "time": 127.43389396875001,
          "velocity": 0.11811023622047244
        },
        {
          "duration": 0.13761449999999797,
          "durationTicks": 96,
          "midi": 52,
          "name": "E3",
          "ticks": 88898,
          "time": 127.43389396875001,
          "velocity": 0.11811023622047244
        },
        {
          "duration": 0.13761449999999797,
          "durationTicks": 96,
          "midi": 49,
          "name": "C#3",
          "ticks": 88898,
          "time": 127.43389396875001,
          "velocity": 0.11811023622047244
        },
        {
          "duration": 0.13761449999999797,
          "durationTicks": 96,
          "midi": 45,
          "name": "A2",
          "ticks": 88994,
          "time": 127.57150846875001,
          "velocity": 0.11811023622047244
        },
        {
          "duration": 0.044438015625019034,
          "durationTicks": 31,
          "midi": 64,
          "name": "E4",
          "ticks": 89059,
          "time": 127.66468495312499,
          "velocity": 0.11811023622047244
        },
        {
          "duration": 0.27522900000001016,
          "durationTicks": 192,
          "midi": 62,
          "name": "D4",
          "ticks": 89091,
          "time": 127.710556453125,
          "velocity": 0.11811023622047244
        },
        {
          "duration": 0.27522900000001016,
          "durationTicks": 192,
          "midi": 62,
          "name": "D4",
          "ticks": 89091,
          "time": 127.710556453125,
          "velocity": 0.11811023622047244
        },
        {
          "duration": 0.13761450000001219,
          "durationTicks": 96,
          "midi": 52,
          "name": "E3",
          "ticks": 89091,
          "time": 127.710556453125,
          "velocity": 0.11811023622047244
        },
        {
          "duration": 0.13761450000001219,
          "durationTicks": 96,
          "midi": 52,
          "name": "E3",
          "ticks": 89091,
          "time": 127.710556453125,
          "velocity": 0.11811023622047244
        },
        {
          "duration": 0.13761450000001219,
          "durationTicks": 96,
          "midi": 49,
          "name": "C#3",
          "ticks": 89091,
          "time": 127.710556453125,
          "velocity": 0.11811023622047244
        },
        {
          "duration": 0.13761449999999797,
          "durationTicks": 96,
          "midi": 45,
          "name": "A2",
          "ticks": 89187,
          "time": 127.848170953125,
          "velocity": 0.11811023622047244
        },
        {
          "duration": 0.5504579999999919,
          "durationTicks": 384,
          "midi": 64,
          "name": "E4",
          "ticks": 89283,
          "time": 127.985785453125,
          "velocity": 0.11811023622047244
        },
        {
          "duration": 0.13761449999998376,
          "durationTicks": 96,
          "midi": 52,
          "name": "E3",
          "ticks": 89283,
          "time": 127.985785453125,
          "velocity": 0.11811023622047244
        },
        {
          "duration": 0.5504579999999919,
          "durationTicks": 384,
          "midi": 64,
          "name": "E4",
          "ticks": 89283,
          "time": 127.985785453125,
          "velocity": 0.11811023622047244
        },
        {
          "duration": 0.13761450000001219,
          "durationTicks": 96,
          "midi": 45,
          "name": "A2",
          "ticks": 89379,
          "time": 128.123399953125,
          "velocity": 0.11811023622047244
        },
        {
          "duration": 0.13761450000001219,
          "durationTicks": 96,
          "midi": 45,
          "name": "A2",
          "ticks": 89379,
          "time": 128.123399953125,
          "velocity": 0.11811023622047244
        },
        {
          "duration": 0.13761450000001219,
          "durationTicks": 96,
          "midi": 49,
          "name": "C#3",
          "ticks": 89475,
          "time": 128.261014453125,
          "velocity": 0.11811023622047244
        },
        {
          "duration": 0.13761450000001219,
          "durationTicks": 96,
          "midi": 52,
          "name": "E3",
          "ticks": 89475,
          "time": 128.261014453125,
          "velocity": 0.11811023622047244
        },
        {
          "duration": 0.13761450000001219,
          "durationTicks": 96,
          "midi": 52,
          "name": "E3",
          "ticks": 89475,
          "time": 128.261014453125,
          "velocity": 0.11811023622047244
        },
        {
          "duration": 0.13761449999998376,
          "durationTicks": 96,
          "midi": 45,
          "name": "A2",
          "ticks": 89571,
          "time": 128.398628953125,
          "velocity": 0.11811023622047244
        },
        {
          "duration": 0.13761450000001219,
          "durationTicks": 96,
          "midi": 52,
          "name": "E3",
          "ticks": 89667,
          "time": 128.536243453125,
          "velocity": 0.11811023622047244
        },
        {
          "duration": 0.13761450000001219,
          "durationTicks": 96,
          "midi": 52,
          "name": "E3",
          "ticks": 89667,
          "time": 128.536243453125,
          "velocity": 0.11811023622047244
        },
        {
          "duration": 0.27522899999999595,
          "durationTicks": 192,
          "midi": 66,
          "name": "F#4",
          "ticks": 89667,
          "time": 128.536243453125,
          "velocity": 0.11811023622047244
        },
        {
          "duration": 0.27522899999999595,
          "durationTicks": 192,
          "midi": 66,
          "name": "F#4",
          "ticks": 89667,
          "time": 128.536243453125,
          "velocity": 0.11811023622047244
        },
        {
          "duration": 0.13761450000001219,
          "durationTicks": 96,
          "midi": 49,
          "name": "C#3",
          "ticks": 89667,
          "time": 128.536243453125,
          "velocity": 0.11811023622047244
        },
        {
          "duration": 0.13761449999998376,
          "durationTicks": 96,
          "midi": 45,
          "name": "A2",
          "ticks": 89763,
          "time": 128.673857953125,
          "velocity": 0.11811023622047244
        },
        {
          "duration": 0.13761449999998376,
          "durationTicks": 96,
          "midi": 45,
          "name": "A2",
          "ticks": 89763,
          "time": 128.673857953125,
          "velocity": 0.11811023622047244
        },
        {
          "duration": 0.8256870000000163,
          "durationTicks": 576,
          "midi": 58,
          "name": "A#3",
          "ticks": 89859,
          "time": 128.811472453125,
          "velocity": 0.11811023622047244
        },
        {
          "duration": 0.8256870000000163,
          "durationTicks": 576,
          "midi": 61,
          "name": "C#4",
          "ticks": 89859,
          "time": 128.811472453125,
          "velocity": 0.11811023622047244
        },
        {
          "duration": 0.8256870000000163,
          "durationTicks": 576,
          "midi": 61,
          "name": "C#4",
          "ticks": 89859,
          "time": 128.811472453125,
          "velocity": 0.11811023622047244
        },
        {
          "duration": 0.13761450000001219,
          "durationTicks": 96,
          "midi": 52,
          "name": "E3",
          "ticks": 89859,
          "time": 128.811472453125,
          "velocity": 0.11811023622047244
        },
        {
          "duration": 0.13761449999998376,
          "durationTicks": 96,
          "midi": 46,
          "name": "A#2",
          "ticks": 89955,
          "time": 128.949086953125,
          "velocity": 0.11811023622047244
        },
        {
          "duration": 0.13761449999998376,
          "durationTicks": 96,
          "midi": 46,
          "name": "A#2",
          "ticks": 89955,
          "time": 128.949086953125,
          "velocity": 0.11811023622047244
        },
        {
          "duration": 0.13761450000001219,
          "durationTicks": 96,
          "midi": 49,
          "name": "C#3",
          "ticks": 90051,
          "time": 129.086701453125,
          "velocity": 0.11811023622047244
        },
        {
          "duration": 0.13761450000001219,
          "durationTicks": 96,
          "midi": 52,
          "name": "E3",
          "ticks": 90051,
          "time": 129.086701453125,
          "velocity": 0.11811023622047244
        },
        {
          "duration": 0.13761450000001219,
          "durationTicks": 96,
          "midi": 52,
          "name": "E3",
          "ticks": 90051,
          "time": 129.086701453125,
          "velocity": 0.11811023622047244
        },
        {
          "duration": 0.13761450000001219,
          "durationTicks": 96,
          "midi": 46,
          "name": "A#2",
          "ticks": 90147,
          "time": 129.224315953125,
          "velocity": 0.11811023622047244
        },
        {
          "duration": 0.13761449999998376,
          "durationTicks": 96,
          "midi": 49,
          "name": "C#3",
          "ticks": 90243,
          "time": 129.361930453125,
          "velocity": 0.11811023622047244
        },
        {
          "duration": 0.13761449999998376,
          "durationTicks": 96,
          "midi": 52,
          "name": "E3",
          "ticks": 90243,
          "time": 129.361930453125,
          "velocity": 0.11811023622047244
        },
        {
          "duration": 0.13761449999998376,
          "durationTicks": 96,
          "midi": 52,
          "name": "E3",
          "ticks": 90243,
          "time": 129.361930453125,
          "velocity": 0.11811023622047244
        },
        {
          "duration": 0.27522899999999595,
          "durationTicks": 192,
          "midi": 52,
          "name": "E3",
          "ticks": 90243,
          "time": 129.361930453125,
          "velocity": 0.11811023622047244
        },
        {
          "duration": 0.13761450000001219,
          "durationTicks": 96,
          "midi": 46,
          "name": "A#2",
          "ticks": 90339,
          "time": 129.499544953125,
          "velocity": 0.11811023622047244
        },
        {
          "duration": 0.8256869999999878,
          "durationTicks": 576,
          "midi": 64,
          "name": "E4",
          "ticks": 90435,
          "time": 129.637159453125,
          "velocity": 0.11811023622047244
        },
        {
          "duration": 0.8256869999999878,
          "durationTicks": 576,
          "midi": 61,
          "name": "C#4",
          "ticks": 90435,
          "time": 129.637159453125,
          "velocity": 0.11811023622047244
        },
        {
          "duration": 0.8256869999999878,
          "durationTicks": 576,
          "midi": 64,
          "name": "E4",
          "ticks": 90435,
          "time": 129.637159453125,
          "velocity": 0.11811023622047244
        },
        {
          "duration": 0.13761449999998376,
          "durationTicks": 96,
          "midi": 52,
          "name": "E3",
          "ticks": 90435,
          "time": 129.637159453125,
          "velocity": 0.11811023622047244
        },
        {
          "duration": 0.8256869999999878,
          "durationTicks": 576,
          "midi": 58,
          "name": "A#3",
          "ticks": 90435,
          "time": 129.637159453125,
          "velocity": 0.11811023622047244
        },
        {
          "duration": 0.13761450000001219,
          "durationTicks": 96,
          "midi": 46,
          "name": "A#2",
          "ticks": 90531,
          "time": 129.774773953125,
          "velocity": 0.11811023622047244
        },
        {
          "duration": 0.13761450000001219,
          "durationTicks": 96,
          "midi": 46,
          "name": "A#2",
          "ticks": 90531,
          "time": 129.774773953125,
          "velocity": 0.11811023622047244
        },
        {
          "duration": 0.13761449999998376,
          "durationTicks": 96,
          "midi": 52,
          "name": "E3",
          "ticks": 90627,
          "time": 129.912388453125,
          "velocity": 0.11811023622047244
        },
        {
          "duration": 0.13761449999998376,
          "durationTicks": 96,
          "midi": 49,
          "name": "C#3",
          "ticks": 90627,
          "time": 129.912388453125,
          "velocity": 0.11811023622047244
        },
        {
          "duration": 0.13761449999998376,
          "durationTicks": 96,
          "midi": 52,
          "name": "E3",
          "ticks": 90627,
          "time": 129.912388453125,
          "velocity": 0.11811023622047244
        },
        {
          "duration": 0.13761450000001219,
          "durationTicks": 96,
          "midi": 46,
          "name": "A#2",
          "ticks": 90723,
          "time": 130.050002953125,
          "velocity": 0.11811023622047244
        },
        {
          "duration": 0.13761450000001219,
          "durationTicks": 96,
          "midi": 49,
          "name": "C#3",
          "ticks": 90819,
          "time": 130.187617453125,
          "velocity": 0.11811023622047244
        },
        {
          "duration": 0.13761450000001219,
          "durationTicks": 96,
          "midi": 52,
          "name": "E3",
          "ticks": 90819,
          "time": 130.187617453125,
          "velocity": 0.11811023622047244
        },
        {
          "duration": 0.13761450000001219,
          "durationTicks": 96,
          "midi": 52,
          "name": "E3",
          "ticks": 90819,
          "time": 130.187617453125,
          "velocity": 0.11811023622047244
        },
        {
          "duration": 0.27522899999999595,
          "durationTicks": 192,
          "midi": 49,
          "name": "C#3",
          "ticks": 90819,
          "time": 130.187617453125,
          "velocity": 0.11811023622047244
        },
        {
          "duration": 0.27522899999999595,
          "durationTicks": 192,
          "midi": 47,
          "name": "B2",
          "ticks": 91011,
          "time": 130.462846453125,
          "velocity": 0.11811023622047244
        },
        {
          "duration": 0.5504579999999919,
          "durationTicks": 384,
          "midi": 64,
          "name": "E4",
          "ticks": 91011,
          "time": 130.462846453125,
          "velocity": 0.11811023622047244
        },
        {
          "duration": 0.5504579999999919,
          "durationTicks": 384,
          "midi": 64,
          "name": "E4",
          "ticks": 91011,
          "time": 130.462846453125,
          "velocity": 0.11811023622047244
        },
        {
          "duration": 0.8256870000000163,
          "durationTicks": 576,
          "midi": 47,
          "name": "B2",
          "ticks": 91011,
          "time": 130.462846453125,
          "velocity": 0.11811023622047244
        },
        {
          "duration": 0.5504579999999919,
          "durationTicks": 384,
          "midi": 63,
          "name": "D#4",
          "ticks": 91011,
          "time": 130.462846453125,
          "velocity": 0.11811023622047244
        },
        {
          "duration": 0.13761450000001219,
          "durationTicks": 96,
          "midi": 54,
          "name": "F#3",
          "ticks": 91203,
          "time": 130.738075453125,
          "velocity": 0.11811023622047244
        },
        {
          "duration": 0.13761450000001219,
          "durationTicks": 96,
          "midi": 50,
          "name": "D3",
          "ticks": 91203,
          "time": 130.738075453125,
          "velocity": 0.11811023622047244
        },
        {
          "duration": 0.5504580000000203,
          "durationTicks": 384,
          "midi": 50,
          "name": "D3",
          "ticks": 91203,
          "time": 130.738075453125,
          "velocity": 0.11811023622047244
        },
        {
          "duration": 0.13761450000001219,
          "durationTicks": 96,
          "midi": 57,
          "name": "A3",
          "ticks": 91395,
          "time": 131.013304453125,
          "velocity": 0.11811023622047244
        },
        {
          "duration": 0.13761450000001219,
          "durationTicks": 96,
          "midi": 62,
          "name": "D4",
          "ticks": 91395,
          "time": 131.013304453125,
          "velocity": 0.11811023622047244
        },
        {
          "duration": 0.13761450000001219,
          "durationTicks": 96,
          "midi": 62,
          "name": "D4",
          "ticks": 91395,
          "time": 131.013304453125,
          "velocity": 0.11811023622047244
        },
        {
          "duration": 0.13761450000001219,
          "durationTicks": 96,
          "midi": 54,
          "name": "F#3",
          "ticks": 91395,
          "time": 131.013304453125,
          "velocity": 0.11811023622047244
        },
        {
          "duration": 0.13761450000001219,
          "durationTicks": 96,
          "midi": 62,
          "name": "D4",
          "ticks": 91395,
          "time": 131.013304453125,
          "velocity": 0.11811023622047244
        },
        {
          "duration": 0.27522900000002437,
          "durationTicks": 192,
          "midi": 54,
          "name": "F#3",
          "ticks": 91395,
          "time": 131.013304453125,
          "velocity": 0.11811023622047244
        },
        {
          "duration": 0.5504579999999919,
          "durationTicks": 384,
          "midi": 61,
          "name": "C#4",
          "ticks": 91587,
          "time": 131.288533453125,
          "velocity": 0.11811023622047244
        },
        {
          "duration": 0.27522899999999595,
          "durationTicks": 192,
          "midi": 45,
          "name": "A2",
          "ticks": 91587,
          "time": 131.288533453125,
          "velocity": 0.11811023622047244
        },
        {
          "duration": 0.5504579999999919,
          "durationTicks": 384,
          "midi": 61,
          "name": "C#4",
          "ticks": 91587,
          "time": 131.288533453125,
          "velocity": 0.11811023622047244
        },
        {
          "duration": 0.8256869999999878,
          "durationTicks": 576,
          "midi": 45,
          "name": "A2",
          "ticks": 91587,
          "time": 131.288533453125,
          "velocity": 0.11811023622047244
        },
        {
          "duration": 0.5504579999999919,
          "durationTicks": 384,
          "midi": 61,
          "name": "C#4",
          "ticks": 91587,
          "time": 131.288533453125,
          "velocity": 0.11811023622047244
        },
        {
          "duration": 0.13761449999998376,
          "durationTicks": 96,
          "midi": 49,
          "name": "C#3",
          "ticks": 91779,
          "time": 131.563762453125,
          "velocity": 0.11811023622047244
        },
        {
          "duration": 0.13761449999998376,
          "durationTicks": 96,
          "midi": 52,
          "name": "E3",
          "ticks": 91779,
          "time": 131.563762453125,
          "velocity": 0.11811023622047244
        },
        {
          "duration": 0.5504579999999919,
          "durationTicks": 384,
          "midi": 49,
          "name": "C#3",
          "ticks": 91779,
          "time": 131.563762453125,
          "velocity": 0.11811023622047244
        },
        {
          "duration": 0.13761449999998376,
          "durationTicks": 96,
          "midi": 62,
          "name": "D4",
          "ticks": 91971,
          "time": 131.838991453125,
          "velocity": 0.11811023622047244
        },
        {
          "duration": 0.13761449999998376,
          "durationTicks": 96,
          "midi": 62,
          "name": "D4",
          "ticks": 91971,
          "time": 131.838991453125,
          "velocity": 0.11811023622047244
        },
        {
          "duration": 0.13761449999998376,
          "durationTicks": 96,
          "midi": 62,
          "name": "D4",
          "ticks": 91971,
          "time": 131.838991453125,
          "velocity": 0.11811023622047244
        },
        {
          "duration": 0.13761449999998376,
          "durationTicks": 96,
          "midi": 52,
          "name": "E3",
          "ticks": 91971,
          "time": 131.838991453125,
          "velocity": 0.11811023622047244
        },
        {
          "duration": 0.13761449999998376,
          "durationTicks": 96,
          "midi": 57,
          "name": "A3",
          "ticks": 91971,
          "time": 131.838991453125,
          "velocity": 0.11811023622047244
        },
        {
          "duration": 0.27522899999999595,
          "durationTicks": 192,
          "midi": 52,
          "name": "E3",
          "ticks": 91971,
          "time": 131.838991453125,
          "velocity": 0.11811023622047244
        },
        {
          "duration": 1.6513740000000041,
          "durationTicks": 1152,
          "midi": 38,
          "name": "D2",
          "ticks": 92163,
          "time": 132.114220453125,
          "velocity": 0.11811023622047244
        },
        {
          "duration": 0.5504579999999919,
          "durationTicks": 384,
          "midi": 57,
          "name": "A3",
          "ticks": 92163,
          "time": 132.114220453125,
          "velocity": 0.11811023622047244
        },
        {
          "duration": 0.27522899999999595,
          "durationTicks": 192,
          "midi": 50,
          "name": "D3",
          "ticks": 92547,
          "time": 132.664678453125,
          "velocity": 0.11811023622047244
        },
        {
          "duration": 0.5504580000000203,
          "durationTicks": 384,
          "midi": 52,
          "name": "E3",
          "ticks": 92739,
          "time": 132.939907453125,
          "velocity": 0.11811023622047244
        },
        {
          "duration": 0.27522899999999595,
          "durationTicks": 192,
          "midi": 50,
          "name": "D3",
          "ticks": 93123,
          "time": 133.490365453125,
          "velocity": 0.11811023622047244
        },
        {
          "duration": 0.5504579999999919,
          "durationTicks": 384,
          "midi": 44,
          "name": "G#2",
          "ticks": 93315,
          "time": 133.765594453125,
          "velocity": 0.11811023622047244
        },
        {
          "duration": 0.27522899999999595,
          "durationTicks": 192,
          "midi": 50,
          "name": "D3",
          "ticks": 93699,
          "time": 134.316052453125,
          "velocity": 0.11811023622047244
        },
        {
          "duration": 0.5504580000000203,
          "durationTicks": 384,
          "midi": 52,
          "name": "E3",
          "ticks": 93891,
          "time": 134.591281453125,
          "velocity": 0.11811023622047244
        },
        {
          "duration": 0.27522899999999595,
          "durationTicks": 192,
          "midi": 50,
          "name": "D3",
          "ticks": 94275,
          "time": 135.141739453125,
          "velocity": 0.11811023622047244
        },
        {
          "duration": 0.5504579999999919,
          "durationTicks": 384,
          "midi": 43,
          "name": "G2",
          "ticks": 94467,
          "time": 135.416968453125,
          "velocity": 0.11811023622047244
        },
        {
          "duration": 0.27522899999999595,
          "durationTicks": 192,
          "midi": 50,
          "name": "D3",
          "ticks": 94851,
          "time": 135.967426453125,
          "velocity": 0.11811023622047244
        },
        {
          "duration": 0.5504579999999919,
          "durationTicks": 384,
          "midi": 52,
          "name": "E3",
          "ticks": 95043,
          "time": 136.242655453125,
          "velocity": 0.11811023622047244
        },
        {
          "duration": 0.27522900000002437,
          "durationTicks": 192,
          "midi": 55,
          "name": "G3",
          "ticks": 95427,
          "time": 136.793113453125,
          "velocity": 0.11811023622047244
        },
        {
          "duration": 1.6513739999999757,
          "durationTicks": 1152,
          "midi": 38,
          "name": "D2",
          "ticks": 95619,
          "time": 137.068342453125,
          "velocity": 0.11811023622047244
        },
        {
          "duration": 0.5504579999999919,
          "durationTicks": 384,
          "midi": 54,
          "name": "F#3",
          "ticks": 95619,
          "time": 137.068342453125,
          "velocity": 0.11811023622047244
        },
        {
          "duration": 0.27522899999999595,
          "durationTicks": 192,
          "midi": 52,
          "name": "E3",
          "ticks": 96003,
          "time": 137.618800453125,
          "velocity": 0.11811023622047244
        },
        {
          "duration": 0.5504579999999919,
          "durationTicks": 384,
          "midi": 50,
          "name": "D3",
          "ticks": 96195,
          "time": 137.894029453125,
          "velocity": 0.11811023622047244
        },
        {
          "duration": 0.27522899999999595,
          "durationTicks": 192,
          "midi": 45,
          "name": "A2",
          "ticks": 96579,
          "time": 138.444487453125,
          "velocity": 0.11811023622047244
        },
        {
          "duration": 0.5504580000000203,
          "durationTicks": 384,
          "midi": 57,
          "name": "A3",
          "ticks": 96771,
          "time": 138.719716453125,
          "velocity": 0.11811023622047244
        },
        {
          "duration": 1.6513740000000041,
          "durationTicks": 1152,
          "midi": 38,
          "name": "D2",
          "ticks": 96771,
          "time": 138.719716453125,
          "velocity": 0.11811023622047244
        },
        {
          "duration": 0.27522899999999595,
          "durationTicks": 192,
          "midi": 50,
          "name": "D3",
          "ticks": 97155,
          "time": 139.270174453125,
          "velocity": 0.11811023622047244
        },
        {
          "duration": 0.5504579999999919,
          "durationTicks": 384,
          "midi": 52,
          "name": "E3",
          "ticks": 97347,
          "time": 139.545403453125,
          "velocity": 0.11811023622047244
        },
        {
          "duration": 0.27522899999999595,
          "durationTicks": 192,
          "midi": 50,
          "name": "D3",
          "ticks": 97731,
          "time": 140.095861453125,
          "velocity": 0.11811023622047244
        },
        {
          "duration": 0.5504580000000203,
          "durationTicks": 384,
          "midi": 44,
          "name": "G#2",
          "ticks": 97923,
          "time": 140.371090453125,
          "velocity": 0.11811023622047244
        },
        {
          "duration": 0.27522899999999595,
          "durationTicks": 192,
          "midi": 50,
          "name": "D3",
          "ticks": 98307,
          "time": 140.921548453125,
          "velocity": 0.11811023622047244
        },
        {
          "duration": 0.5504579999999919,
          "durationTicks": 384,
          "midi": 52,
          "name": "E3",
          "ticks": 98499,
          "time": 141.196777453125,
          "velocity": 0.11811023622047244
        },
        {
          "duration": 0.27522899999999595,
          "durationTicks": 192,
          "midi": 50,
          "name": "D3",
          "ticks": 98883,
          "time": 141.747235453125,
          "velocity": 0.11811023622047244
        },
        {
          "duration": 0.5504579999999919,
          "durationTicks": 384,
          "midi": 43,
          "name": "G2",
          "ticks": 99075,
          "time": 142.022464453125,
          "velocity": 0.11811023622047244
        },
        {
          "duration": 0.27522900000002437,
          "durationTicks": 192,
          "midi": 50,
          "name": "D3",
          "ticks": 99459,
          "time": 142.572922453125,
          "velocity": 0.11811023622047244
        },
        {
          "duration": 0.5504579999999919,
          "durationTicks": 384,
          "midi": 52,
          "name": "E3",
          "ticks": 99651,
          "time": 142.848151453125,
          "velocity": 0.11811023622047244
        },
        {
          "duration": 0.27522899999999595,
          "durationTicks": 192,
          "midi": 55,
          "name": "G3",
          "ticks": 100035,
          "time": 143.398609453125,
          "velocity": 0.11811023622047244
        },
        {
          "duration": 0.5504579999999919,
          "durationTicks": 384,
          "midi": 54,
          "name": "F#3",
          "ticks": 100227,
          "time": 143.673838453125,
          "velocity": 0.11811023622047244
        },
        {
          "duration": 1.6513740000000041,
          "durationTicks": 1152,
          "midi": 38,
          "name": "D2",
          "ticks": 100227,
          "time": 143.673838453125,
          "velocity": 0.11811023622047244
        },
        {
          "duration": 0.27522899999999595,
          "durationTicks": 192,
          "midi": 52,
          "name": "E3",
          "ticks": 100611,
          "time": 144.224296453125,
          "velocity": 0.11811023622047244
        },
        {
          "duration": 0.5504580000000203,
          "durationTicks": 384,
          "midi": 50,
          "name": "D3",
          "ticks": 100803,
          "time": 144.499525453125,
          "velocity": 0.11811023622047244
        },
        {
          "duration": 1.6513740000000041,
          "durationTicks": 1152,
          "midi": 43,
          "name": "G2",
          "ticks": 101379,
          "time": 145.325212453125,
          "velocity": 0.11811023622047244
        },
        {
          "duration": 0.5504579999999919,
          "durationTicks": 384,
          "midi": 57,
          "name": "A3",
          "ticks": 101379,
          "time": 145.325212453125,
          "velocity": 0.11811023622047244
        },
        {
          "duration": 0.27522899999999595,
          "durationTicks": 192,
          "midi": 50,
          "name": "D3",
          "ticks": 101763,
          "time": 145.875670453125,
          "velocity": 0.11811023622047244
        },
        {
          "duration": 0.5504580000000203,
          "durationTicks": 384,
          "midi": 52,
          "name": "E3",
          "ticks": 101955,
          "time": 146.150899453125,
          "velocity": 0.11811023622047244
        },
        {
          "duration": 0.27522899999999595,
          "durationTicks": 192,
          "midi": 50,
          "name": "D3",
          "ticks": 102339,
          "time": 146.701357453125,
          "velocity": 0.11811023622047244
        },
        {
          "duration": 0.5504579999999919,
          "durationTicks": 384,
          "midi": 45,
          "name": "A2",
          "ticks": 102531,
          "time": 146.976586453125,
          "velocity": 0.11811023622047244
        },
        {
          "duration": 0.27522899999999595,
          "durationTicks": 192,
          "midi": 50,
          "name": "D3",
          "ticks": 102915,
          "time": 147.527044453125,
          "velocity": 0.11811023622047244
        },
        {
          "duration": 0.5504579999999919,
          "durationTicks": 384,
          "midi": 52,
          "name": "E3",
          "ticks": 103107,
          "time": 147.802273453125,
          "velocity": 0.11811023622047244
        },
        {
          "duration": 0.13761450000001219,
          "durationTicks": 96,
          "midi": 54,
          "name": "F#3",
          "ticks": 103491,
          "time": 148.352731453125,
          "velocity": 0.11811023622047244
        },
        {
          "duration": 0.13761450000001219,
          "durationTicks": 96,
          "midi": 52,
          "name": "E3",
          "ticks": 103587,
          "time": 148.490345953125,
          "velocity": 0.11811023622047244
        },
        {
          "duration": 0.27522899999999595,
          "durationTicks": 192,
          "midi": 50,
          "name": "D3",
          "ticks": 103683,
          "time": 148.627960453125,
          "velocity": 0.11811023622047244
        },
        {
          "duration": 1.6513739999999757,
          "durationTicks": 1152,
          "midi": 45,
          "name": "A2",
          "ticks": 103683,
          "time": 148.627960453125,
          "velocity": 0.11811023622047244
        }
      ],
      "endOfTrackTicks": 104835
    },
    {
      "channel": 1,
      "controlChanges": {},
      "pitchBends": [],
      "instrument": {
        "family": "synth lead",
        "number": 80,
        "name": "lead 1 (square)"
      },
      "name": "8-Bit Square",
      "notes": [
        {
          "duration": 0.275229,
          "durationTicks": 192,
          "midi": 50,
          "name": "D3",
          "ticks": 0,
          "time": 0,
          "velocity": 0.11811023622047244
        },
        {
          "duration": 0.275229,
          "durationTicks": 192,
          "midi": 66,
          "name": "F#4",
          "ticks": 0,
          "time": 0,
          "velocity": 0.11811023622047244
        },
        {
          "duration": 0.275229,
          "durationTicks": 192,
          "midi": 61,
          "name": "C#4",
          "ticks": 192,
          "time": 0.275229,
          "velocity": 0.11811023622047244
        },
        {
          "duration": 0.275229,
          "durationTicks": 192,
          "midi": 54,
          "name": "F#3",
          "ticks": 192,
          "time": 0.275229,
          "velocity": 0.11811023622047244
        },
        {
          "duration": 0.27522900000000006,
          "durationTicks": 192,
          "midi": 66,
          "name": "F#4",
          "ticks": 384,
          "time": 0.550458,
          "velocity": 0.11811023622047244
        },
        {
          "duration": 0.27522900000000006,
          "durationTicks": 192,
          "midi": 57,
          "name": "A3",
          "ticks": 384,
          "time": 0.550458,
          "velocity": 0.11811023622047244
        },
        {
          "duration": 0.27522899999999995,
          "durationTicks": 192,
          "midi": 61,
          "name": "C#4",
          "ticks": 576,
          "time": 0.8256870000000001,
          "velocity": 0.11811023622047244
        },
        {
          "duration": 0.27522899999999995,
          "durationTicks": 192,
          "midi": 54,
          "name": "F#3",
          "ticks": 576,
          "time": 0.8256870000000001,
          "velocity": 0.11811023622047244
        },
        {
          "duration": 0.27522899999999995,
          "durationTicks": 192,
          "midi": 57,
          "name": "A3",
          "ticks": 768,
          "time": 1.100916,
          "velocity": 0.11811023622047244
        },
        {
          "duration": 0.27522899999999995,
          "durationTicks": 192,
          "midi": 66,
          "name": "F#4",
          "ticks": 768,
          "time": 1.100916,
          "velocity": 0.11811023622047244
        },
        {
          "duration": 0.27522900000000017,
          "durationTicks": 192,
          "midi": 54,
          "name": "F#3",
          "ticks": 960,
          "time": 1.376145,
          "velocity": 0.11811023622047244
        },
        {
          "duration": 0.27522900000000017,
          "durationTicks": 192,
          "midi": 61,
          "name": "C#4",
          "ticks": 960,
          "time": 1.376145,
          "velocity": 0.11811023622047244
        },
        {
          "duration": 0.27522899999999995,
          "durationTicks": 192,
          "midi": 50,
          "name": "D3",
          "ticks": 1152,
          "time": 1.6513740000000001,
          "velocity": 0.11811023622047244
        },
        {
          "duration": 0.27522899999999995,
          "durationTicks": 192,
          "midi": 66,
          "name": "F#4",
          "ticks": 1152,
          "time": 1.6513740000000001,
          "velocity": 0.11811023622047244
        },
        {
          "duration": 0.27522899999999995,
          "durationTicks": 192,
          "midi": 61,
          "name": "C#4",
          "ticks": 1344,
          "time": 1.926603,
          "velocity": 0.11811023622047244
        },
        {
          "duration": 0.27522899999999995,
          "durationTicks": 192,
          "midi": 54,
          "name": "F#3",
          "ticks": 1344,
          "time": 1.926603,
          "velocity": 0.11811023622047244
        },
        {
          "duration": 0.27522899999999995,
          "durationTicks": 192,
          "midi": 66,
          "name": "F#4",
          "ticks": 1536,
          "time": 2.201832,
          "velocity": 0.11811023622047244
        },
        {
          "duration": 0.27522899999999995,
          "durationTicks": 192,
          "midi": 57,
          "name": "A3",
          "ticks": 1536,
          "time": 2.201832,
          "velocity": 0.11811023622047244
        },
        {
          "duration": 0.27522899999999995,
          "durationTicks": 192,
          "midi": 61,
          "name": "C#4",
          "ticks": 1728,
          "time": 2.477061,
          "velocity": 0.11811023622047244
        },
        {
          "duration": 0.27522899999999995,
          "durationTicks": 192,
          "midi": 54,
          "name": "F#3",
          "ticks": 1728,
          "time": 2.477061,
          "velocity": 0.11811023622047244
        },
        {
          "duration": 0.27522899999999995,
          "durationTicks": 192,
          "midi": 66,
          "name": "F#4",
          "ticks": 1920,
          "time": 2.75229,
          "velocity": 0.11811023622047244
        },
        {
          "duration": 0.27522899999999995,
          "durationTicks": 192,
          "midi": 57,
          "name": "A3",
          "ticks": 1920,
          "time": 2.75229,
          "velocity": 0.11811023622047244
        },
        {
          "duration": 0.2752290000000004,
          "durationTicks": 192,
          "midi": 61,
          "name": "C#4",
          "ticks": 2112,
          "time": 3.027519,
          "velocity": 0.11811023622047244
        },
        {
          "duration": 0.2752290000000004,
          "durationTicks": 192,
          "midi": 54,
          "name": "F#3",
          "ticks": 2112,
          "time": 3.027519,
          "velocity": 0.11811023622047244
        },
        {
          "duration": 0.27522899999999995,
          "durationTicks": 192,
          "midi": 47,
          "name": "B2",
          "ticks": 2304,
          "time": 3.3027480000000002,
          "velocity": 0.11811023622047244
        },
        {
          "duration": 0.27522899999999995,
          "durationTicks": 192,
          "midi": 59,
          "name": "B3",
          "ticks": 2304,
          "time": 3.3027480000000002,
          "velocity": 0.11811023622047244
        },
        {
          "duration": 0.27522899999999995,
          "durationTicks": 192,
          "midi": 57,
          "name": "A3",
          "ticks": 2496,
          "time": 3.577977,
          "velocity": 0.11811023622047244
        },
        {
          "duration": 0.27522899999999995,
          "durationTicks": 192,
          "midi": 51,
          "name": "D#3",
          "ticks": 2496,
          "time": 3.577977,
          "velocity": 0.11811023622047244
        },
        {
          "duration": 0.5504579999999999,
          "durationTicks": 384,
          "midi": 61,
          "name": "C#4",
          "ticks": 2688,
          "time": 3.853206,
          "velocity": 0.11811023622047244
        },
        {
          "duration": 0.2752289999999995,
          "durationTicks": 192,
          "midi": 54,
          "name": "F#3",
          "ticks": 2688,
          "time": 3.853206,
          "velocity": 0.11811023622047244
        },
        {
          "duration": 0.2752290000000004,
          "durationTicks": 192,
          "midi": 51,
          "name": "D#3",
          "ticks": 2880,
          "time": 4.128435,
          "velocity": 0.11811023622047244
        },
        {
          "duration": 0.2752290000000004,
          "durationTicks": 192,
          "midi": 54,
          "name": "F#3",
          "ticks": 3072,
          "time": 4.403664,
          "velocity": 0.11811023622047244
        },
        {
          "duration": 0.2752290000000004,
          "durationTicks": 192,
          "midi": 57,
          "name": "A3",
          "ticks": 3072,
          "time": 4.403664,
          "velocity": 0.11811023622047244
        },
        {
          "duration": 0.2752289999999995,
          "durationTicks": 192,
          "midi": 51,
          "name": "D#3",
          "ticks": 3264,
          "time": 4.678893,
          "velocity": 0.11811023622047244
        },
        {
          "duration": 0.2752289999999995,
          "durationTicks": 192,
          "midi": 59,
          "name": "B3",
          "ticks": 3264,
          "time": 4.678893,
          "velocity": 0.11811023622047244
        },
        {
          "duration": 0.2752290000000004,
          "durationTicks": 192,
          "midi": 64,
          "name": "E4",
          "ticks": 3456,
          "time": 4.954122,
          "velocity": 0.11811023622047244
        },
        {
          "duration": 0.2752290000000004,
          "durationTicks": 192,
          "midi": 47,
          "name": "B2",
          "ticks": 3456,
          "time": 4.954122,
          "velocity": 0.11811023622047244
        },
        {
          "duration": 0.2752289999999995,
          "durationTicks": 192,
          "midi": 63,
          "name": "D#4",
          "ticks": 3648,
          "time": 5.229351,
          "velocity": 0.11811023622047244
        },
        {
          "duration": 0.2752289999999995,
          "durationTicks": 192,
          "midi": 51,
          "name": "D#3",
          "ticks": 3648,
          "time": 5.229351,
          "velocity": 0.11811023622047244
        },
        {
          "duration": 0.2752290000000004,
          "durationTicks": 192,
          "midi": 64,
          "name": "E4",
          "ticks": 3840,
          "time": 5.50458,
          "velocity": 0.11811023622047244
        },
        {
          "duration": 0.2752290000000004,
          "durationTicks": 192,
          "midi": 54,
          "name": "F#3",
          "ticks": 3840,
          "time": 5.50458,
          "velocity": 0.11811023622047244
        },
        {
          "duration": 0.2752289999999995,
          "durationTicks": 192,
          "midi": 51,
          "name": "D#3",
          "ticks": 4032,
          "time": 5.779809,
          "velocity": 0.11811023622047244
        },
        {
          "duration": 0.2752289999999995,
          "durationTicks": 192,
          "midi": 66,
          "name": "F#4",
          "ticks": 4032,
          "time": 5.779809,
          "velocity": 0.11811023622047244
        },
        {
          "duration": 0.2752290000000004,
          "durationTicks": 192,
          "midi": 63,
          "name": "D#4",
          "ticks": 4224,
          "time": 6.055038,
          "velocity": 0.11811023622047244
        },
        {
          "duration": 0.2752290000000004,
          "durationTicks": 192,
          "midi": 54,
          "name": "F#3",
          "ticks": 4224,
          "time": 6.055038,
          "velocity": 0.11811023622047244
        },
        {
          "duration": 0.2752290000000004,
          "durationTicks": 192,
          "midi": 51,
          "name": "D#3",
          "ticks": 4416,
          "time": 6.330267,
          "velocity": 0.11811023622047244
        },
        {
          "duration": 0.2752290000000004,
          "durationTicks": 192,
          "midi": 59,
          "name": "B3",
          "ticks": 4416,
          "time": 6.330267,
          "velocity": 0.11811023622047244
        },
        {
          "duration": 0.2752289999999995,
          "durationTicks": 192,
          "midi": 43,
          "name": "G2",
          "ticks": 4608,
          "time": 6.6054960000000005,
          "velocity": 0.11811023622047244
        },
        {
          "duration": 0.2752289999999995,
          "durationTicks": 192,
          "midi": 66,
          "name": "F#4",
          "ticks": 4608,
          "time": 6.6054960000000005,
          "velocity": 0.11811023622047244
        },
        {
          "duration": 0.2752290000000004,
          "durationTicks": 192,
          "midi": 47,
          "name": "B2",
          "ticks": 4800,
          "time": 6.880725,
          "velocity": 0.11811023622047244
        },
        {
          "duration": 0.2752290000000004,
          "durationTicks": 192,
          "midi": 59,
          "name": "B3",
          "ticks": 4800,
          "time": 6.880725,
          "velocity": 0.11811023622047244
        },
        {
          "duration": 0.2752289999999995,
          "durationTicks": 192,
          "midi": 50,
          "name": "D3",
          "ticks": 4992,
          "time": 7.155954,
          "velocity": 0.11811023622047244
        },
        {
          "duration": 0.2752289999999995,
          "durationTicks": 192,
          "midi": 66,
          "name": "F#4",
          "ticks": 4992,
          "time": 7.155954,
          "velocity": 0.11811023622047244
        },
        {
          "duration": 0.2752290000000004,
          "durationTicks": 192,
          "midi": 47,
          "name": "B2",
          "ticks": 5184,
          "time": 7.431183,
          "velocity": 0.11811023622047244
        },
        {
          "duration": 0.2752290000000004,
          "durationTicks": 192,
          "midi": 59,
          "name": "B3",
          "ticks": 5184,
          "time": 7.431183,
          "velocity": 0.11811023622047244
        },
        {
          "duration": 0.2752289999999995,
          "durationTicks": 192,
          "midi": 50,
          "name": "D3",
          "ticks": 5376,
          "time": 7.706412,
          "velocity": 0.11811023622047244
        },
        {
          "duration": 0.2752289999999995,
          "durationTicks": 192,
          "midi": 66,
          "name": "F#4",
          "ticks": 5376,
          "time": 7.706412,
          "velocity": 0.11811023622047244
        },
        {
          "duration": 0.2752289999999995,
          "durationTicks": 192,
          "midi": 47,
          "name": "B2",
          "ticks": 5568,
          "time": 7.981641,
          "velocity": 0.11811023622047244
        },
        {
          "duration": 0.2752289999999995,
          "durationTicks": 192,
          "midi": 59,
          "name": "B3",
          "ticks": 5568,
          "time": 7.981641,
          "velocity": 0.11811023622047244
        },
        {
          "duration": 0.2752290000000013,
          "durationTicks": 192,
          "midi": 66,
          "name": "F#4",
          "ticks": 5760,
          "time": 8.25687,
          "velocity": 0.11811023622047244
        },
        {
          "duration": 0.2752290000000013,
          "durationTicks": 192,
          "midi": 43,
          "name": "G2",
          "ticks": 5760,
          "time": 8.25687,
          "velocity": 0.11811023622047244
        },
        {
          "duration": 0.2752289999999995,
          "durationTicks": 192,
          "midi": 46,
          "name": "A#2",
          "ticks": 5952,
          "time": 8.532099,
          "velocity": 0.11811023622047244
        },
        {
          "duration": 0.2752289999999995,
          "durationTicks": 192,
          "midi": 58,
          "name": "A#3",
          "ticks": 5952,
          "time": 8.532099,
          "velocity": 0.11811023622047244
        },
        {
          "duration": 0.2752289999999995,
          "durationTicks": 192,
          "midi": 66,
          "name": "F#4",
          "ticks": 6144,
          "time": 8.807328,
          "velocity": 0.11811023622047244
        },
        {
          "duration": 0.2752289999999995,
          "durationTicks": 192,
          "midi": 50,
          "name": "D3",
          "ticks": 6144,
          "time": 8.807328,
          "velocity": 0.11811023622047244
        },
        {
          "duration": 0.2752290000000013,
          "durationTicks": 192,
          "midi": 58,
          "name": "A#3",
          "ticks": 6336,
          "time": 9.082557,
          "velocity": 0.11811023622047244
        },
        {
          "duration": 0.2752290000000013,
          "durationTicks": 192,
          "midi": 46,
          "name": "A#2",
          "ticks": 6336,
          "time": 9.082557,
          "velocity": 0.11811023622047244
        },
        {
          "duration": 0.550457999999999,
          "durationTicks": 384,
          "midi": 67,
          "name": "G4",
          "ticks": 6528,
          "time": 9.357786,
          "velocity": 0.11811023622047244
        },
        {
          "duration": 0.2752289999999995,
          "durationTicks": 192,
          "midi": 50,
          "name": "D3",
          "ticks": 6528,
          "time": 9.357786,
          "velocity": 0.11811023622047244
        },
        {
          "duration": 0.2752289999999995,
          "durationTicks": 192,
          "midi": 46,
          "name": "A#2",
          "ticks": 6720,
          "time": 9.633015,
          "velocity": 0.11811023622047244
        },
        {
          "duration": 0.2752289999999995,
          "durationTicks": 192,
          "midi": 50,
          "name": "D3",
          "ticks": 6912,
          "time": 9.908244,
          "velocity": 0.11811023622047244
        },
        {
          "duration": 0.2752289999999995,
          "durationTicks": 192,
          "midi": 66,
          "name": "F#4",
          "ticks": 6912,
          "time": 9.908244,
          "velocity": 0.11811023622047244
        },
        {
          "duration": 0.2752290000000013,
          "durationTicks": 192,
          "midi": 54,
          "name": "F#3",
          "ticks": 7104,
          "time": 10.183473,
          "velocity": 0.11811023622047244
        },
        {
          "duration": 0.2752290000000013,
          "durationTicks": 192,
          "midi": 62,
          "name": "D4",
          "ticks": 7104,
          "time": 10.183473,
          "velocity": 0.11811023622047244
        },
        {
          "duration": 0.2752289999999995,
          "durationTicks": 192,
          "midi": 57,
          "name": "A3",
          "ticks": 7296,
          "time": 10.458702,
          "velocity": 0.11811023622047244
        },
        {
          "duration": 0.2752289999999995,
          "durationTicks": 192,
          "midi": 66,
          "name": "F#4",
          "ticks": 7296,
          "time": 10.458702,
          "velocity": 0.11811023622047244
        },
        {
          "duration": 0.2752289999999995,
          "durationTicks": 192,
          "midi": 54,
          "name": "F#3",
          "ticks": 7488,
          "time": 10.733931,
          "velocity": 0.11811023622047244
        },
        {
          "duration": 0.2752289999999995,
          "durationTicks": 192,
          "midi": 62,
          "name": "D4",
          "ticks": 7488,
          "time": 10.733931,
          "velocity": 0.11811023622047244
        },
        {
          "duration": 0.2752290000000013,
          "durationTicks": 192,
          "midi": 57,
          "name": "A3",
          "ticks": 7680,
          "time": 11.00916,
          "velocity": 0.11811023622047244
        },
        {
          "duration": 0.2752290000000013,
          "durationTicks": 192,
          "midi": 64,
          "name": "E4",
          "ticks": 7680,
          "time": 11.00916,
          "velocity": 0.11811023622047244
        },
        {
          "duration": 0.2752289999999995,
          "durationTicks": 192,
          "midi": 54,
          "name": "F#3",
          "ticks": 7872,
          "time": 11.284389000000001,
          "velocity": 0.11811023622047244
        },
        {
          "duration": 0.2752289999999995,
          "durationTicks": 192,
          "midi": 66,
          "name": "F#4",
          "ticks": 7872,
          "time": 11.284389000000001,
          "velocity": 0.11811023622047244
        },
        {
          "duration": 0.2752289999999995,
          "durationTicks": 192,
          "midi": 49,
          "name": "C#3",
          "ticks": 8064,
          "time": 11.559618,
          "velocity": 0.11811023622047244
        },
        {
          "duration": 0.550457999999999,
          "durationTicks": 384,
          "midi": 64,
          "name": "E4",
          "ticks": 8064,
          "time": 11.559618,
          "velocity": 0.11811023622047244
        },
        {
          "duration": 0.2752289999999995,
          "durationTicks": 192,
          "midi": 52,
          "name": "E3",
          "ticks": 8256,
          "time": 11.834847,
          "velocity": 0.11811023622047244
        },
        {
          "duration": 0.2752290000000013,
          "durationTicks": 192,
          "midi": 57,
          "name": "A3",
          "ticks": 8448,
          "time": 12.110076,
          "velocity": 0.11811023622047244
        },
        {
          "duration": 0.5504580000000008,
          "durationTicks": 384,
          "midi": 62,
          "name": "D4",
          "ticks": 8448,
          "time": 12.110076,
          "velocity": 0.11811023622047244
        },
        {
          "duration": 0.2752289999999995,
          "durationTicks": 192,
          "midi": 52,
          "name": "E3",
          "ticks": 8640,
          "time": 12.385305,
          "velocity": 0.11811023622047244
        },
        {
          "duration": 0.2752289999999995,
          "durationTicks": 192,
          "midi": 57,
          "name": "A3",
          "ticks": 8832,
          "time": 12.660534,
          "velocity": 0.11811023622047244
        },
        {
          "duration": 0.5504580000000008,
          "durationTicks": 384,
          "midi": 61,
          "name": "C#4",
          "ticks": 8832,
          "time": 12.660534,
          "velocity": 0.11811023622047244
        },
        {
          "duration": 0.2752290000000013,
          "durationTicks": 192,
          "midi": 52,
          "name": "E3",
          "ticks": 9024,
          "time": 12.935763,
          "velocity": 0.11811023622047244
        },
        {
          "duration": 0.2752289999999995,
          "durationTicks": 192,
          "midi": 50,
          "name": "D3",
          "ticks": 9216,
          "time": 13.210992000000001,
          "velocity": 0.11811023622047244
        },
        {
          "duration": 0.2752289999999995,
          "durationTicks": 192,
          "midi": 66,
          "name": "F#4",
          "ticks": 9216,
          "time": 13.210992000000001,
          "velocity": 0.11811023622047244
        },
        {
          "duration": 0.2752289999999995,
          "durationTicks": 192,
          "midi": 61,
          "name": "C#4",
          "ticks": 9408,
          "time": 13.486221,
          "velocity": 0.11811023622047244
        },
        {
          "duration": 0.2752289999999995,
          "durationTicks": 192,
          "midi": 54,
          "name": "F#3",
          "ticks": 9408,
          "time": 13.486221,
          "velocity": 0.11811023622047244
        },
        {
          "duration": 0.2752289999999995,
          "durationTicks": 192,
          "midi": 57,
          "name": "A3",
          "ticks": 9600,
          "time": 13.76145,
          "velocity": 0.11811023622047244
        },
        {
          "duration": 0.2752289999999995,
          "durationTicks": 192,
          "midi": 66,
          "name": "F#4",
          "ticks": 9600,
          "time": 13.76145,
          "velocity": 0.11811023622047244
        },
        {
          "duration": 0.2752290000000013,
          "durationTicks": 192,
          "midi": 61,
          "name": "C#4",
          "ticks": 9792,
          "time": 14.036679,
          "velocity": 0.11811023622047244
        },
        {
          "duration": 0.2752290000000013,
          "durationTicks": 192,
          "midi": 54,
          "name": "F#3",
          "ticks": 9792,
          "time": 14.036679,
          "velocity": 0.11811023622047244
        },
        {
          "duration": 0.2752289999999995,
          "durationTicks": 192,
          "midi": 57,
          "name": "A3",
          "ticks": 9984,
          "time": 14.311908,
          "velocity": 0.11811023622047244
        },
        {
          "duration": 0.2752289999999995,
          "durationTicks": 192,
          "midi": 66,
          "name": "F#4",
          "ticks": 9984,
          "time": 14.311908,
          "velocity": 0.11811023622047244
        },
        {
          "duration": 0.2752289999999995,
          "durationTicks": 192,
          "midi": 54,
          "name": "F#3",
          "ticks": 10176,
          "time": 14.587137,
          "velocity": 0.11811023622047244
        },
        {
          "duration": 0.2752289999999995,
          "durationTicks": 192,
          "midi": 61,
          "name": "C#4",
          "ticks": 10176,
          "time": 14.587137,
          "velocity": 0.11811023622047244
        },
        {
          "duration": 0.2752289999999995,
          "durationTicks": 192,
          "midi": 66,
          "name": "F#4",
          "ticks": 10368,
          "time": 14.862366,
          "velocity": 0.11811023622047244
        },
        {
          "duration": 0.2752289999999995,
          "durationTicks": 192,
          "midi": 50,
          "name": "D3",
          "ticks": 10368,
          "time": 14.862366,
          "velocity": 0.11811023622047244
        },
        {
          "duration": 0.2752290000000013,
          "durationTicks": 192,
          "midi": 61,
          "name": "C#4",
          "ticks": 10560,
          "time": 15.137595,
          "velocity": 0.11811023622047244
        },
        {
          "duration": 0.2752290000000013,
          "durationTicks": 192,
          "midi": 54,
          "name": "F#3",
          "ticks": 10560,
          "time": 15.137595,
          "velocity": 0.11811023622047244
        },
        {
          "duration": 0.2752289999999995,
          "durationTicks": 192,
          "midi": 66,
          "name": "F#4",
          "ticks": 10752,
          "time": 15.412824,
          "velocity": 0.11811023622047244
        },
        {
          "duration": 0.2752289999999995,
          "durationTicks": 192,
          "midi": 57,
          "name": "A3",
          "ticks": 10752,
          "time": 15.412824,
          "velocity": 0.11811023622047244
        },
        {
          "duration": 0.2752289999999995,
          "durationTicks": 192,
          "midi": 54,
          "name": "F#3",
          "ticks": 10944,
          "time": 15.688053,
          "velocity": 0.11811023622047244
        },
        {
          "duration": 0.2752289999999995,
          "durationTicks": 192,
          "midi": 61,
          "name": "C#4",
          "ticks": 10944,
          "time": 15.688053,
          "velocity": 0.11811023622047244
        },
        {
          "duration": 0.2752289999999995,
          "durationTicks": 192,
          "midi": 66,
          "name": "F#4",
          "ticks": 11136,
          "time": 15.963282,
          "velocity": 0.11811023622047244
        },
        {
          "duration": 0.2752289999999995,
          "durationTicks": 192,
          "midi": 57,
          "name": "A3",
          "ticks": 11136,
          "time": 15.963282,
          "velocity": 0.11811023622047244
        },
        {
          "duration": 0.2752289999999995,
          "durationTicks": 192,
          "midi": 61,
          "name": "C#4",
          "ticks": 11328,
          "time": 16.238511,
          "velocity": 0.11811023622047244
        },
        {
          "duration": 0.2752289999999995,
          "durationTicks": 192,
          "midi": 54,
          "name": "F#3",
          "ticks": 11328,
          "time": 16.238511,
          "velocity": 0.11811023622047244
        },
        {
          "duration": 0.27522900000000305,
          "durationTicks": 192,
          "midi": 47,
          "name": "B2",
          "ticks": 11520,
          "time": 16.51374,
          "velocity": 0.11811023622047244
        },
        {
          "duration": 0.27522900000000305,
          "durationTicks": 192,
          "midi": 59,
          "name": "B3",
          "ticks": 11520,
          "time": 16.51374,
          "velocity": 0.11811023622047244
        },
        {
          "duration": 0.2752289999999995,
          "durationTicks": 192,
          "midi": 51,
          "name": "D#3",
          "ticks": 11712,
          "time": 16.788969,
          "velocity": 0.11811023622047244
        },
        {
          "duration": 0.2752289999999995,
          "durationTicks": 192,
          "midi": 57,
          "name": "A3",
          "ticks": 11712,
          "time": 16.788969,
          "velocity": 0.11811023622047244
        },
        {
          "duration": 0.550457999999999,
          "durationTicks": 384,
          "midi": 61,
          "name": "C#4",
          "ticks": 11904,
          "time": 17.064198,
          "velocity": 0.11811023622047244
        },
        {
          "duration": 0.2752289999999995,
          "durationTicks": 192,
          "midi": 54,
          "name": "F#3",
          "ticks": 11904,
          "time": 17.064198,
          "velocity": 0.11811023622047244
        },
        {
          "duration": 0.2752289999999995,
          "durationTicks": 192,
          "midi": 51,
          "name": "D#3",
          "ticks": 12096,
          "time": 17.339427,
          "velocity": 0.11811023622047244
        },
        {
          "duration": 0.2752289999999995,
          "durationTicks": 192,
          "midi": 54,
          "name": "F#3",
          "ticks": 12288,
          "time": 17.614656,
          "velocity": 0.11811023622047244
        },
        {
          "duration": 0.2752289999999995,
          "durationTicks": 192,
          "midi": 57,
          "name": "A3",
          "ticks": 12288,
          "time": 17.614656,
          "velocity": 0.11811023622047244
        },
        {
          "duration": 0.2752289999999995,
          "durationTicks": 192,
          "midi": 51,
          "name": "D#3",
          "ticks": 12480,
          "time": 17.889885,
          "velocity": 0.11811023622047244
        },
        {
          "duration": 0.2752289999999995,
          "durationTicks": 192,
          "midi": 59,
          "name": "B3",
          "ticks": 12480,
          "time": 17.889885,
          "velocity": 0.11811023622047244
        },
        {
          "duration": 0.2752289999999995,
          "durationTicks": 192,
          "midi": 47,
          "name": "B2",
          "ticks": 12672,
          "time": 18.165114,
          "velocity": 0.11811023622047244
        },
        {
          "duration": 0.2752289999999995,
          "durationTicks": 192,
          "midi": 64,
          "name": "E4",
          "ticks": 12672,
          "time": 18.165114,
          "velocity": 0.11811023622047244
        },
        {
          "duration": 0.27522900000000305,
          "durationTicks": 192,
          "midi": 51,
          "name": "D#3",
          "ticks": 12864,
          "time": 18.440343,
          "velocity": 0.11811023622047244
        },
        {
          "duration": 0.27522900000000305,
          "durationTicks": 192,
          "midi": 63,
          "name": "D#4",
          "ticks": 12864,
          "time": 18.440343,
          "velocity": 0.11811023622047244
        },
        {
          "duration": 0.2752289999999995,
          "durationTicks": 192,
          "midi": 54,
          "name": "F#3",
          "ticks": 13056,
          "time": 18.715572,
          "velocity": 0.11811023622047244
        },
        {
          "duration": 0.2752289999999995,
          "durationTicks": 192,
          "midi": 64,
          "name": "E4",
          "ticks": 13056,
          "time": 18.715572,
          "velocity": 0.11811023622047244
        },
        {
          "duration": 0.2752289999999995,
          "durationTicks": 192,
          "midi": 66,
          "name": "F#4",
          "ticks": 13248,
          "time": 18.990801,
          "velocity": 0.11811023622047244
        },
        {
          "duration": 0.2752289999999995,
          "durationTicks": 192,
          "midi": 51,
          "name": "D#3",
          "ticks": 13248,
          "time": 18.990801,
          "velocity": 0.11811023622047244
        },
        {
          "duration": 0.2752289999999995,
          "durationTicks": 192,
          "midi": 54,
          "name": "F#3",
          "ticks": 13440,
          "time": 19.26603,
          "velocity": 0.11811023622047244
        },
        {
          "duration": 0.2752289999999995,
          "durationTicks": 192,
          "midi": 63,
          "name": "D#4",
          "ticks": 13440,
          "time": 19.26603,
          "velocity": 0.11811023622047244
        },
        {
          "duration": 0.2752289999999995,
          "durationTicks": 192,
          "midi": 51,
          "name": "D#3",
          "ticks": 13632,
          "time": 19.541259,
          "velocity": 0.11811023622047244
        },
        {
          "duration": 0.2752289999999995,
          "durationTicks": 192,
          "midi": 59,
          "name": "B3",
          "ticks": 13632,
          "time": 19.541259,
          "velocity": 0.11811023622047244
        },
        {
          "duration": 0.2752289999999995,
          "durationTicks": 192,
          "midi": 66,
          "name": "F#4",
          "ticks": 13824,
          "time": 19.816488,
          "velocity": 0.11811023622047244
        },
        {
          "duration": 0.2752289999999995,
          "durationTicks": 192,
          "midi": 43,
          "name": "G2",
          "ticks": 13824,
          "time": 19.816488,
          "velocity": 0.11811023622047244
        },
        {
          "duration": 0.2752289999999995,
          "durationTicks": 192,
          "midi": 59,
          "name": "B3",
          "ticks": 14016,
          "time": 20.091717,
          "velocity": 0.11811023622047244
        },
        {
          "duration": 0.2752289999999995,
          "durationTicks": 192,
          "midi": 47,
          "name": "B2",
          "ticks": 14016,
          "time": 20.091717,
          "velocity": 0.11811023622047244
        },
        {
          "duration": 0.27522900000000305,
          "durationTicks": 192,
          "midi": 50,
          "name": "D3",
          "ticks": 14208,
          "time": 20.366946,
          "velocity": 0.11811023622047244
        },
        {
          "duration": 0.27522900000000305,
          "durationTicks": 192,
          "midi": 66,
          "name": "F#4",
          "ticks": 14208,
          "time": 20.366946,
          "velocity": 0.11811023622047244
        },
        {
          "duration": 0.2752289999999995,
          "durationTicks": 192,
          "midi": 47,
          "name": "B2",
          "ticks": 14400,
          "time": 20.642175,
          "velocity": 0.11811023622047244
        },
        {
          "duration": 0.2752289999999995,
          "durationTicks": 192,
          "midi": 59,
          "name": "B3",
          "ticks": 14400,
          "time": 20.642175,
          "velocity": 0.11811023622047244
        },
        {
          "duration": 0.2752289999999995,
          "durationTicks": 192,
          "midi": 66,
          "name": "F#4",
          "ticks": 14592,
          "time": 20.917404,
          "velocity": 0.11811023622047244
        },
        {
          "duration": 0.2752289999999995,
          "durationTicks": 192,
          "midi": 50,
          "name": "D3",
          "ticks": 14592,
          "time": 20.917404,
          "velocity": 0.11811023622047244
        },
        {
          "duration": 0.2752289999999995,
          "durationTicks": 192,
          "midi": 59,
          "name": "B3",
          "ticks": 14784,
          "time": 21.192633,
          "velocity": 0.11811023622047244
        },
        {
          "duration": 0.2752289999999995,
          "durationTicks": 192,
          "midi": 47,
          "name": "B2",
          "ticks": 14784,
          "time": 21.192633,
          "velocity": 0.11811023622047244
        },
        {
          "duration": 0.2752289999999995,
          "durationTicks": 192,
          "midi": 66,
          "name": "F#4",
          "ticks": 14976,
          "time": 21.467862,
          "velocity": 0.11811023622047244
        },
        {
          "duration": 0.2752289999999995,
          "durationTicks": 192,
          "midi": 43,
          "name": "G2",
          "ticks": 14976,
          "time": 21.467862,
          "velocity": 0.11811023622047244
        },
        {
          "duration": 0.2752289999999995,
          "durationTicks": 192,
          "midi": 58,
          "name": "A#3",
          "ticks": 15168,
          "time": 21.743091,
          "velocity": 0.11811023622047244
        },
        {
          "duration": 0.2752289999999995,
          "durationTicks": 192,
          "midi": 46,
          "name": "A#2",
          "ticks": 15168,
          "time": 21.743091,
          "velocity": 0.11811023622047244
        },
        {
          "duration": 0.2752289999999995,
          "durationTicks": 192,
          "midi": 66,
          "name": "F#4",
          "ticks": 15360,
          "time": 22.01832,
          "velocity": 0.11811023622047244
        },
        {
          "duration": 0.2752289999999995,
          "durationTicks": 192,
          "midi": 50,
          "name": "D3",
          "ticks": 15360,
          "time": 22.01832,
          "velocity": 0.11811023622047244
        },
        {
          "duration": 0.27522900000000305,
          "durationTicks": 192,
          "midi": 58,
          "name": "A#3",
          "ticks": 15552,
          "time": 22.293549,
          "velocity": 0.11811023622047244
        },
        {
          "duration": 0.27522900000000305,
          "durationTicks": 192,
          "midi": 46,
          "name": "A#2",
          "ticks": 15552,
          "time": 22.293549,
          "velocity": 0.11811023622047244
        },
        {
          "duration": 0.2752289999999995,
          "durationTicks": 192,
          "midi": 50,
          "name": "D3",
          "ticks": 15744,
          "time": 22.568778000000002,
          "velocity": 0.11811023622047244
        },
        {
          "duration": 0.550457999999999,
          "durationTicks": 384,
          "midi": 67,
          "name": "G4",
          "ticks": 15744,
          "time": 22.568778000000002,
          "velocity": 0.11811023622047244
        },
        {
          "duration": 0.2752289999999995,
          "durationTicks": 192,
          "midi": 46,
          "name": "A#2",
          "ticks": 15936,
          "time": 22.844007,
          "velocity": 0.11811023622047244
        },
        {
          "duration": 0.2752289999999995,
          "durationTicks": 192,
          "midi": 66,
          "name": "F#4",
          "ticks": 16128,
          "time": 23.119236,
          "velocity": 0.11811023622047244
        },
        {
          "duration": 0.2752289999999995,
          "durationTicks": 192,
          "midi": 50,
          "name": "D3",
          "ticks": 16128,
          "time": 23.119236,
          "velocity": 0.11811023622047244
        },
        {
          "duration": 0.2752289999999995,
          "durationTicks": 192,
          "midi": 54,
          "name": "F#3",
          "ticks": 16320,
          "time": 23.394465,
          "velocity": 0.11811023622047244
        },
        {
          "duration": 0.2752289999999995,
          "durationTicks": 192,
          "midi": 62,
          "name": "D4",
          "ticks": 16320,
          "time": 23.394465,
          "velocity": 0.11811023622047244
        },
        {
          "duration": 0.2752289999999995,
          "durationTicks": 192,
          "midi": 57,
          "name": "A3",
          "ticks": 16512,
          "time": 23.669694,
          "velocity": 0.11811023622047244
        },
        {
          "duration": 0.2752289999999995,
          "durationTicks": 192,
          "midi": 66,
          "name": "F#4",
          "ticks": 16512,
          "time": 23.669694,
          "velocity": 0.11811023622047244
        },
        {
          "duration": 0.2752289999999995,
          "durationTicks": 192,
          "midi": 54,
          "name": "F#3",
          "ticks": 16704,
          "time": 23.944923,
          "velocity": 0.11811023622047244
        },
        {
          "duration": 0.2752289999999995,
          "durationTicks": 192,
          "midi": 62,
          "name": "D4",
          "ticks": 16704,
          "time": 23.944923,
          "velocity": 0.11811023622047244
        },
        {
          "duration": 0.27522900000000305,
          "durationTicks": 192,
          "midi": 64,
          "name": "E4",
          "ticks": 16896,
          "time": 24.220152,
          "velocity": 0.11811023622047244
        },
        {
          "duration": 0.27522900000000305,
          "durationTicks": 192,
          "midi": 57,
          "name": "A3",
          "ticks": 16896,
          "time": 24.220152,
          "velocity": 0.11811023622047244
        },
        {
          "duration": 0.2752289999999995,
          "durationTicks": 192,
          "midi": 54,
          "name": "F#3",
          "ticks": 17088,
          "time": 24.495381000000002,
          "velocity": 0.11811023622047244
        },
        {
          "duration": 0.2752289999999995,
          "durationTicks": 192,
          "midi": 66,
          "name": "F#4",
          "ticks": 17088,
          "time": 24.495381000000002,
          "velocity": 0.11811023622047244
        },
        {
          "duration": 0.2752289999999995,
          "durationTicks": 192,
          "midi": 49,
          "name": "C#3",
          "ticks": 17280,
          "time": 24.77061,
          "velocity": 0.11811023622047244
        },
        {
          "duration": 0.550457999999999,
          "durationTicks": 384,
          "midi": 64,
          "name": "E4",
          "ticks": 17280,
          "time": 24.77061,
          "velocity": 0.11811023622047244
        },
        {
          "duration": 0.2752289999999995,
          "durationTicks": 192,
          "midi": 52,
          "name": "E3",
          "ticks": 17472,
          "time": 25.045839,
          "velocity": 0.11811023622047244
        },
        {
          "duration": 0.550457999999999,
          "durationTicks": 384,
          "midi": 62,
          "name": "D4",
          "ticks": 17664,
          "time": 25.321068,
          "velocity": 0.11811023622047244
        },
        {
          "duration": 0.2752289999999995,
          "durationTicks": 192,
          "midi": 57,
          "name": "A3",
          "ticks": 17664,
          "time": 25.321068,
          "velocity": 0.11811023622047244
        },
        {
          "duration": 0.2752289999999995,
          "durationTicks": 192,
          "midi": 52,
          "name": "E3",
          "ticks": 17856,
          "time": 25.596297,
          "velocity": 0.11811023622047244
        },
        {
          "duration": 0.5504580000000026,
          "durationTicks": 384,
          "midi": 61,
          "name": "C#4",
          "ticks": 18048,
          "time": 25.871526,
          "velocity": 0.11811023622047244
        },
        {
          "duration": 0.2752289999999995,
          "durationTicks": 192,
          "midi": 57,
          "name": "A3",
          "ticks": 18048,
          "time": 25.871526,
          "velocity": 0.11811023622047244
        },
        {
          "duration": 0.27522900000000305,
          "durationTicks": 192,
          "midi": 52,
          "name": "E3",
          "ticks": 18240,
          "time": 26.146755,
          "velocity": 0.11811023622047244
        },
        {
          "duration": 0.2752289999999995,
          "durationTicks": 192,
          "midi": 66,
          "name": "F#4",
          "ticks": 18432,
          "time": 26.421984000000002,
          "velocity": 0.11811023622047244
        },
        {
          "duration": 0.2752289999999995,
          "durationTicks": 192,
          "midi": 50,
          "name": "D3",
          "ticks": 18432,
          "time": 26.421984000000002,
          "velocity": 0.11811023622047244
        },
        {
          "duration": 0.2752289999999995,
          "durationTicks": 192,
          "midi": 61,
          "name": "C#4",
          "ticks": 18624,
          "time": 26.697213,
          "velocity": 0.11811023622047244
        },
        {
          "duration": 0.2752289999999995,
          "durationTicks": 192,
          "midi": 54,
          "name": "F#3",
          "ticks": 18624,
          "time": 26.697213,
          "velocity": 0.11811023622047244
        },
        {
          "duration": 0.2752289999999995,
          "durationTicks": 192,
          "midi": 57,
          "name": "A3",
          "ticks": 18816,
          "time": 26.972442,
          "velocity": 0.11811023622047244
        },
        {
          "duration": 0.2752289999999995,
          "durationTicks": 192,
          "midi": 66,
          "name": "F#4",
          "ticks": 18816,
          "time": 26.972442,
          "velocity": 0.11811023622047244
        },
        {
          "duration": 0.2752289999999995,
          "durationTicks": 192,
          "midi": 61,
          "name": "C#4",
          "ticks": 19008,
          "time": 27.247671,
          "velocity": 0.11811023622047244
        },
        {
          "duration": 0.2752289999999995,
          "durationTicks": 192,
          "midi": 54,
          "name": "F#3",
          "ticks": 19008,
          "time": 27.247671,
          "velocity": 0.11811023622047244
        },
        {
          "duration": 0.2752289999999995,
          "durationTicks": 192,
          "midi": 57,
          "name": "A3",
          "ticks": 19200,
          "time": 27.5229,
          "velocity": 0.11811023622047244
        },
        {
          "duration": 0.2752289999999995,
          "durationTicks": 192,
          "midi": 66,
          "name": "F#4",
          "ticks": 19200,
          "time": 27.5229,
          "velocity": 0.11811023622047244
        },
        {
          "duration": 0.2752289999999995,
          "durationTicks": 192,
          "midi": 61,
          "name": "C#4",
          "ticks": 19392,
          "time": 27.798129,
          "velocity": 0.11811023622047244
        },
        {
          "duration": 0.2752289999999995,
          "durationTicks": 192,
          "midi": 54,
          "name": "F#3",
          "ticks": 19392,
          "time": 27.798129,
          "velocity": 0.11811023622047244
        },
        {
          "duration": 0.2752289999999995,
          "durationTicks": 192,
          "midi": 50,
          "name": "D3",
          "ticks": 19584,
          "time": 28.073358,
          "velocity": 0.11811023622047244
        },
        {
          "duration": 0.2752289999999995,
          "durationTicks": 192,
          "midi": 66,
          "name": "F#4",
          "ticks": 19584,
          "time": 28.073358,
          "velocity": 0.11811023622047244
        },
        {
          "duration": 0.27522900000000305,
          "durationTicks": 192,
          "midi": 54,
          "name": "F#3",
          "ticks": 19776,
          "time": 28.348587,
          "velocity": 0.11811023622047244
        },
        {
          "duration": 0.27522900000000305,
          "durationTicks": 192,
          "midi": 61,
          "name": "C#4",
          "ticks": 19776,
          "time": 28.348587,
          "velocity": 0.11811023622047244
        },
        {
          "duration": 0.2752289999999995,
          "durationTicks": 192,
          "midi": 57,
          "name": "A3",
          "ticks": 19968,
          "time": 28.623816,
          "velocity": 0.11811023622047244
        },
        {
          "duration": 0.2752289999999995,
          "durationTicks": 192,
          "midi": 66,
          "name": "F#4",
          "ticks": 19968,
          "time": 28.623816,
          "velocity": 0.11811023622047244
        },
        {
          "duration": 0.2752289999999995,
          "durationTicks": 192,
          "midi": 61,
          "name": "C#4",
          "ticks": 20160,
          "time": 28.899045,
          "velocity": 0.11811023622047244
        },
        {
          "duration": 0.2752289999999995,
          "durationTicks": 192,
          "midi": 54,
          "name": "F#3",
          "ticks": 20160,
          "time": 28.899045,
          "velocity": 0.11811023622047244
        },
        {
          "duration": 0.2752289999999995,
          "durationTicks": 192,
          "midi": 57,
          "name": "A3",
          "ticks": 20352,
          "time": 29.174274,
          "velocity": 0.11811023622047244
        },
        {
          "duration": 0.2752289999999995,
          "durationTicks": 192,
          "midi": 66,
          "name": "F#4",
          "ticks": 20352,
          "time": 29.174274,
          "velocity": 0.11811023622047244
        },
        {
          "duration": 0.2752289999999995,
          "durationTicks": 192,
          "midi": 61,
          "name": "C#4",
          "ticks": 20544,
          "time": 29.449503,
          "velocity": 0.11811023622047244
        },
        {
          "duration": 0.2752289999999995,
          "durationTicks": 192,
          "midi": 54,
          "name": "F#3",
          "ticks": 20544,
          "time": 29.449503,
          "velocity": 0.11811023622047244
        },
        {
          "duration": 0.2752289999999995,
          "durationTicks": 192,
          "midi": 59,
          "name": "B3",
          "ticks": 20736,
          "time": 29.724732,
          "velocity": 0.11811023622047244
        },
        {
          "duration": 0.2752289999999995,
          "durationTicks": 192,
          "midi": 47,
          "name": "B2",
          "ticks": 20736,
          "time": 29.724732,
          "velocity": 0.11811023622047244
        },
        {
          "duration": 0.2752289999999995,
          "durationTicks": 192,
          "midi": 57,
          "name": "A3",
          "ticks": 20928,
          "time": 29.999961,
          "velocity": 0.11811023622047244
        },
        {
          "duration": 0.2752289999999995,
          "durationTicks": 192,
          "midi": 51,
          "name": "D#3",
          "ticks": 20928,
          "time": 29.999961,
          "velocity": 0.11811023622047244
        },
        {
          "duration": 0.27522900000000305,
          "durationTicks": 192,
          "midi": 54,
          "name": "F#3",
          "ticks": 21120,
          "time": 30.27519,
          "velocity": 0.11811023622047244
        },
        {
          "duration": 0.5504580000000026,
          "durationTicks": 384,
          "midi": 61,
          "name": "C#4",
          "ticks": 21120,
          "time": 30.27519,
          "velocity": 0.11811023622047244
        },
        {
          "duration": 0.2752289999999995,
          "durationTicks": 192,
          "midi": 51,
          "name": "D#3",
          "ticks": 21312,
          "time": 30.550419,
          "velocity": 0.11811023622047244
        },
        {
          "duration": 0.2752289999999995,
          "durationTicks": 192,
          "midi": 57,
          "name": "A3",
          "ticks": 21504,
          "time": 30.825648,
          "velocity": 0.11811023622047244
        },
        {
          "duration": 0.2752289999999995,
          "durationTicks": 192,
          "midi": 54,
          "name": "F#3",
          "ticks": 21504,
          "time": 30.825648,
          "velocity": 0.11811023622047244
        },
        {
          "duration": 0.2752289999999995,
          "durationTicks": 192,
          "midi": 59,
          "name": "B3",
          "ticks": 21696,
          "time": 31.100877,
          "velocity": 0.11811023622047244
        },
        {
          "duration": 0.2752289999999995,
          "durationTicks": 192,
          "midi": 51,
          "name": "D#3",
          "ticks": 21696,
          "time": 31.100877,
          "velocity": 0.11811023622047244
        },
        {
          "duration": 0.2752289999999995,
          "durationTicks": 192,
          "midi": 47,
          "name": "B2",
          "ticks": 21888,
          "time": 31.376106,
          "velocity": 0.11811023622047244
        },
        {
          "duration": 0.2752289999999995,
          "durationTicks": 192,
          "midi": 64,
          "name": "E4",
          "ticks": 21888,
          "time": 31.376106,
          "velocity": 0.11811023622047244
        },
        {
          "duration": 0.2752289999999995,
          "durationTicks": 192,
          "midi": 51,
          "name": "D#3",
          "ticks": 22080,
          "time": 31.651335,
          "velocity": 0.11811023622047244
        },
        {
          "duration": 0.2752289999999995,
          "durationTicks": 192,
          "midi": 63,
          "name": "D#4",
          "ticks": 22080,
          "time": 31.651335,
          "velocity": 0.11811023622047244
        },
        {
          "duration": 0.27522900000000305,
          "durationTicks": 192,
          "midi": 64,
          "name": "E4",
          "ticks": 22272,
          "time": 31.926564,
          "velocity": 0.11811023622047244
        },
        {
          "duration": 0.27522900000000305,
          "durationTicks": 192,
          "midi": 54,
          "name": "F#3",
          "ticks": 22272,
          "time": 31.926564,
          "velocity": 0.11811023622047244
        },
        {
          "duration": 0.27522899999999595,
          "durationTicks": 192,
          "midi": 51,
          "name": "D#3",
          "ticks": 22464,
          "time": 32.201793,
          "velocity": 0.11811023622047244
        },
        {
          "duration": 0.27522899999999595,
          "durationTicks": 192,
          "midi": 66,
          "name": "F#4",
          "ticks": 22464,
          "time": 32.201793,
          "velocity": 0.11811023622047244
        },
        {
          "duration": 0.27522900000000305,
          "durationTicks": 192,
          "midi": 63,
          "name": "D#4",
          "ticks": 22656,
          "time": 32.477022,
          "velocity": 0.11811023622047244
        },
        {
          "duration": 0.27522900000000305,
          "durationTicks": 192,
          "midi": 54,
          "name": "F#3",
          "ticks": 22656,
          "time": 32.477022,
          "velocity": 0.11811023622047244
        },
        {
          "duration": 0.27522899999999595,
          "durationTicks": 192,
          "midi": 51,
          "name": "D#3",
          "ticks": 22848,
          "time": 32.752251,
          "velocity": 0.11811023622047244
        },
        {
          "duration": 0.27522899999999595,
          "durationTicks": 192,
          "midi": 59,
          "name": "B3",
          "ticks": 22848,
          "time": 32.752251,
          "velocity": 0.11811023622047244
        },
        {
          "duration": 0.27522900000000305,
          "durationTicks": 192,
          "midi": 43,
          "name": "G2",
          "ticks": 23040,
          "time": 33.02748,
          "velocity": 0.11811023622047244
        },
        {
          "duration": 0.27522900000000305,
          "durationTicks": 192,
          "midi": 66,
          "name": "F#4",
          "ticks": 23040,
          "time": 33.02748,
          "velocity": 0.11811023622047244
        },
        {
          "duration": 0.27522900000000305,
          "durationTicks": 192,
          "midi": 59,
          "name": "B3",
          "ticks": 23232,
          "time": 33.302709,
          "velocity": 0.11811023622047244
        },
        {
          "duration": 0.27522900000000305,
          "durationTicks": 192,
          "midi": 47,
          "name": "B2",
          "ticks": 23232,
          "time": 33.302709,
          "velocity": 0.11811023622047244
        },
        {
          "duration": 0.27522899999999595,
          "durationTicks": 192,
          "midi": 50,
          "name": "D3",
          "ticks": 23424,
          "time": 33.577938,
          "velocity": 0.11811023622047244
        },
        {
          "duration": 0.27522899999999595,
          "durationTicks": 192,
          "midi": 66,
          "name": "F#4",
          "ticks": 23424,
          "time": 33.577938,
          "velocity": 0.11811023622047244
        },
        {
          "duration": 0.27522900000000305,
          "durationTicks": 192,
          "midi": 59,
          "name": "B3",
          "ticks": 23616,
          "time": 33.853167,
          "velocity": 0.11811023622047244
        },
        {
          "duration": 0.27522900000000305,
          "durationTicks": 192,
          "midi": 47,
          "name": "B2",
          "ticks": 23616,
          "time": 33.853167,
          "velocity": 0.11811023622047244
        },
        {
          "duration": 0.27522899999999595,
          "durationTicks": 192,
          "midi": 66,
          "name": "F#4",
          "ticks": 23808,
          "time": 34.128396,
          "velocity": 0.11811023622047244
        },
        {
          "duration": 0.27522899999999595,
          "durationTicks": 192,
          "midi": 50,
          "name": "D3",
          "ticks": 23808,
          "time": 34.128396,
          "velocity": 0.11811023622047244
        },
        {
          "duration": 0.27522900000000305,
          "durationTicks": 192,
          "midi": 59,
          "name": "B3",
          "ticks": 24000,
          "time": 34.403625,
          "velocity": 0.11811023622047244
        },
        {
          "duration": 0.27522900000000305,
          "durationTicks": 192,
          "midi": 47,
          "name": "B2",
          "ticks": 24000,
          "time": 34.403625,
          "velocity": 0.11811023622047244
        },
        {
          "duration": 0.27522899999999595,
          "durationTicks": 192,
          "midi": 43,
          "name": "G2",
          "ticks": 24192,
          "time": 34.678854,
          "velocity": 0.11811023622047244
        },
        {
          "duration": 0.27522899999999595,
          "durationTicks": 192,
          "midi": 66,
          "name": "F#4",
          "ticks": 24192,
          "time": 34.678854,
          "velocity": 0.11811023622047244
        },
        {
          "duration": 0.27522900000000305,
          "durationTicks": 192,
          "midi": 58,
          "name": "A#3",
          "ticks": 24384,
          "time": 34.954083,
          "velocity": 0.11811023622047244
        },
        {
          "duration": 0.27522900000000305,
          "durationTicks": 192,
          "midi": 46,
          "name": "A#2",
          "ticks": 24384,
          "time": 34.954083,
          "velocity": 0.11811023622047244
        },
        {
          "duration": 0.27522900000000305,
          "durationTicks": 192,
          "midi": 66,
          "name": "F#4",
          "ticks": 24576,
          "time": 35.229312,
          "velocity": 0.11811023622047244
        },
        {
          "duration": 0.27522900000000305,
          "durationTicks": 192,
          "midi": 50,
          "name": "D3",
          "ticks": 24576,
          "time": 35.229312,
          "velocity": 0.11811023622047244
        },
        {
          "duration": 0.27522899999999595,
          "durationTicks": 192,
          "midi": 46,
          "name": "A#2",
          "ticks": 24768,
          "time": 35.504541,
          "velocity": 0.11811023622047244
        },
        {
          "duration": 0.27522899999999595,
          "durationTicks": 192,
          "midi": 58,
          "name": "A#3",
          "ticks": 24768,
          "time": 35.504541,
          "velocity": 0.11811023622047244
        },
        {
          "duration": 0.27522900000000305,
          "durationTicks": 192,
          "midi": 50,
          "name": "D3",
          "ticks": 24960,
          "time": 35.77977,
          "velocity": 0.11811023622047244
        },
        {
          "duration": 0.550457999999999,
          "durationTicks": 384,
          "midi": 67,
          "name": "G4",
          "ticks": 24960,
          "time": 35.77977,
          "velocity": 0.11811023622047244
        },
        {
          "duration": 0.27522899999999595,
          "durationTicks": 192,
          "midi": 46,
          "name": "A#2",
          "ticks": 25152,
          "time": 36.054999,
          "velocity": 0.11811023622047244
        },
        {
          "duration": 0.27522900000000305,
          "durationTicks": 192,
          "midi": 50,
          "name": "D3",
          "ticks": 25344,
          "time": 36.330228,
          "velocity": 0.11811023622047244
        },
        {
          "duration": 0.27522900000000305,
          "durationTicks": 192,
          "midi": 66,
          "name": "F#4",
          "ticks": 25344,
          "time": 36.330228,
          "velocity": 0.11811023622047244
        },
        {
          "duration": 0.27522899999999595,
          "durationTicks": 192,
          "midi": 54,
          "name": "F#3",
          "ticks": 25536,
          "time": 36.605457,
          "velocity": 0.11811023622047244
        },
        {
          "duration": 0.27522899999999595,
          "durationTicks": 192,
          "midi": 62,
          "name": "D4",
          "ticks": 25536,
          "time": 36.605457,
          "velocity": 0.11811023622047244
        },
        {
          "duration": 0.27522900000000305,
          "durationTicks": 192,
          "midi": 57,
          "name": "A3",
          "ticks": 25728,
          "time": 36.880686,
          "velocity": 0.11811023622047244
        },
        {
          "duration": 0.27522900000000305,
          "durationTicks": 192,
          "midi": 66,
          "name": "F#4",
          "ticks": 25728,
          "time": 36.880686,
          "velocity": 0.11811023622047244
        },
        {
          "duration": 0.27522900000000305,
          "durationTicks": 192,
          "midi": 54,
          "name": "F#3",
          "ticks": 25920,
          "time": 37.155915,
          "velocity": 0.11811023622047244
        },
        {
          "duration": 0.27522900000000305,
          "durationTicks": 192,
          "midi": 62,
          "name": "D4",
          "ticks": 25920,
          "time": 37.155915,
          "velocity": 0.11811023622047244
        },
        {
          "duration": 0.27522899999999595,
          "durationTicks": 192,
          "midi": 57,
          "name": "A3",
          "ticks": 26112,
          "time": 37.431144,
          "velocity": 0.11811023622047244
        },
        {
          "duration": 0.27522899999999595,
          "durationTicks": 192,
          "midi": 64,
          "name": "E4",
          "ticks": 26112,
          "time": 37.431144,
          "velocity": 0.11811023622047244
        },
        {
          "duration": 0.27522900000000305,
          "durationTicks": 192,
          "midi": 66,
          "name": "F#4",
          "ticks": 26304,
          "time": 37.706373,
          "velocity": 0.11811023622047244
        },
        {
          "duration": 0.27522900000000305,
          "durationTicks": 192,
          "midi": 54,
          "name": "F#3",
          "ticks": 26304,
          "time": 37.706373,
          "velocity": 0.11811023622047244
        },
        {
          "duration": 0.27522899999999595,
          "durationTicks": 192,
          "midi": 49,
          "name": "C#3",
          "ticks": 26496,
          "time": 37.981602,
          "velocity": 0.11811023622047244
        },
        {
          "duration": 0.550457999999999,
          "durationTicks": 384,
          "midi": 64,
          "name": "E4",
          "ticks": 26496,
          "time": 37.981602,
          "velocity": 0.11811023622047244
        },
        {
          "duration": 0.27522900000000305,
          "durationTicks": 192,
          "midi": 52,
          "name": "E3",
          "ticks": 26688,
          "time": 38.256831,
          "velocity": 0.11811023622047244
        },
        {
          "duration": 0.550457999999999,
          "durationTicks": 384,
          "midi": 62,
          "name": "D4",
          "ticks": 26880,
          "time": 38.53206,
          "velocity": 0.11811023622047244
        },
        {
          "duration": 0.27522899999999595,
          "durationTicks": 192,
          "midi": 57,
          "name": "A3",
          "ticks": 26880,
          "time": 38.53206,
          "velocity": 0.11811023622047244
        },
        {
          "duration": 0.27522900000000305,
          "durationTicks": 192,
          "midi": 52,
          "name": "E3",
          "ticks": 27072,
          "time": 38.807289,
          "velocity": 0.11811023622047244
        },
        {
          "duration": 0.27522900000000305,
          "durationTicks": 192,
          "midi": 57,
          "name": "A3",
          "ticks": 27264,
          "time": 39.082518,
          "velocity": 0.11811023622047244
        },
        {
          "duration": 0.550457999999999,
          "durationTicks": 384,
          "midi": 61,
          "name": "C#4",
          "ticks": 27264,
          "time": 39.082518,
          "velocity": 0.11811023622047244
        },
        {
          "duration": 0.27522899999999595,
          "durationTicks": 192,
          "midi": 52,
          "name": "E3",
          "ticks": 27456,
          "time": 39.357747,
          "velocity": 0.11811023622047244
        },
        {
          "duration": 0.27522900000000305,
          "durationTicks": 192,
          "midi": 50,
          "name": "D3",
          "ticks": 27648,
          "time": 39.632976,
          "velocity": 0.11811023622047244
        },
        {
          "duration": 0.27522900000000305,
          "durationTicks": 192,
          "midi": 66,
          "name": "F#4",
          "ticks": 27648,
          "time": 39.632976,
          "velocity": 0.11811023622047244
        },
        {
          "duration": 0.27522899999999595,
          "durationTicks": 192,
          "midi": 54,
          "name": "F#3",
          "ticks": 27840,
          "time": 39.908205,
          "velocity": 0.11811023622047244
        },
        {
          "duration": 0.27522899999999595,
          "durationTicks": 192,
          "midi": 61,
          "name": "C#4",
          "ticks": 27840,
          "time": 39.908205,
          "velocity": 0.11811023622047244
        },
        {
          "duration": 0.27522900000000305,
          "durationTicks": 192,
          "midi": 66,
          "name": "F#4",
          "ticks": 28032,
          "time": 40.183434,
          "velocity": 0.11811023622047244
        },
        {
          "duration": 0.27522900000000305,
          "durationTicks": 192,
          "midi": 57,
          "name": "A3",
          "ticks": 28032,
          "time": 40.183434,
          "velocity": 0.11811023622047244
        },
        {
          "duration": 0.27522899999999595,
          "durationTicks": 192,
          "midi": 54,
          "name": "F#3",
          "ticks": 28224,
          "time": 40.458663,
          "velocity": 0.11811023622047244
        },
        {
          "duration": 0.27522899999999595,
          "durationTicks": 192,
          "midi": 61,
          "name": "C#4",
          "ticks": 28224,
          "time": 40.458663,
          "velocity": 0.11811023622047244
        },
        {
          "duration": 0.27522900000000305,
          "durationTicks": 192,
          "midi": 57,
          "name": "A3",
          "ticks": 28416,
          "time": 40.733892,
          "velocity": 0.11811023622047244
        },
        {
          "duration": 0.27522900000000305,
          "durationTicks": 192,
          "midi": 66,
          "name": "F#4",
          "ticks": 28416,
          "time": 40.733892,
          "velocity": 0.11811023622047244
        },
        {
          "duration": 0.27522900000000305,
          "durationTicks": 192,
          "midi": 61,
          "name": "C#4",
          "ticks": 28608,
          "time": 41.009121,
          "velocity": 0.11811023622047244
        },
        {
          "duration": 0.27522900000000305,
          "durationTicks": 192,
          "midi": 54,
          "name": "F#3",
          "ticks": 28608,
          "time": 41.009121,
          "velocity": 0.11811023622047244
        },
        {
          "duration": 0.27522899999999595,
          "durationTicks": 192,
          "midi": 66,
          "name": "F#4",
          "ticks": 28800,
          "time": 41.28435,
          "velocity": 0.11811023622047244
        },
        {
          "duration": 0.27522899999999595,
          "durationTicks": 192,
          "midi": 50,
          "name": "D3",
          "ticks": 28800,
          "time": 41.28435,
          "velocity": 0.11811023622047244
        },
        {
          "duration": 0.27522900000000305,
          "durationTicks": 192,
          "midi": 54,
          "name": "F#3",
          "ticks": 28992,
          "time": 41.559579,
          "velocity": 0.11811023622047244
        },
        {
          "duration": 0.27522900000000305,
          "durationTicks": 192,
          "midi": 61,
          "name": "C#4",
          "ticks": 28992,
          "time": 41.559579,
          "velocity": 0.11811023622047244
        },
        {
          "duration": 0.27522899999999595,
          "durationTicks": 192,
          "midi": 57,
          "name": "A3",
          "ticks": 29184,
          "time": 41.834808,
          "velocity": 0.11811023622047244
        },
        {
          "duration": 0.27522899999999595,
          "durationTicks": 192,
          "midi": 66,
          "name": "F#4",
          "ticks": 29184,
          "time": 41.834808,
          "velocity": 0.11811023622047244
        },
        {
          "duration": 0.27522900000000305,
          "durationTicks": 192,
          "midi": 54,
          "name": "F#3",
          "ticks": 29376,
          "time": 42.110037,
          "velocity": 0.11811023622047244
        },
        {
          "duration": 0.27522900000000305,
          "durationTicks": 192,
          "midi": 61,
          "name": "C#4",
          "ticks": 29376,
          "time": 42.110037,
          "velocity": 0.11811023622047244
        },
        {
          "duration": 0.27522899999999595,
          "durationTicks": 192,
          "midi": 57,
          "name": "A3",
          "ticks": 29568,
          "time": 42.385266,
          "velocity": 0.11811023622047244
        },
        {
          "duration": 0.27522899999999595,
          "durationTicks": 192,
          "midi": 66,
          "name": "F#4",
          "ticks": 29568,
          "time": 42.385266,
          "velocity": 0.11811023622047244
        },
        {
          "duration": 0.27522900000000305,
          "durationTicks": 192,
          "midi": 61,
          "name": "C#4",
          "ticks": 29760,
          "time": 42.660495,
          "velocity": 0.11811023622047244
        },
        {
          "duration": 0.27522900000000305,
          "durationTicks": 192,
          "midi": 54,
          "name": "F#3",
          "ticks": 29760,
          "time": 42.660495,
          "velocity": 0.11811023622047244
        },
        {
          "duration": 0.27522900000000305,
          "durationTicks": 192,
          "midi": 47,
          "name": "B2",
          "ticks": 29952,
          "time": 42.935724,
          "velocity": 0.11811023622047244
        },
        {
          "duration": 0.27522900000000305,
          "durationTicks": 192,
          "midi": 59,
          "name": "B3",
          "ticks": 29952,
          "time": 42.935724,
          "velocity": 0.11811023622047244
        },
        {
          "duration": 0.27522899999999595,
          "durationTicks": 192,
          "midi": 57,
          "name": "A3",
          "ticks": 30144,
          "time": 43.210953,
          "velocity": 0.11811023622047244
        },
        {
          "duration": 0.27522899999999595,
          "durationTicks": 192,
          "midi": 51,
          "name": "D#3",
          "ticks": 30144,
          "time": 43.210953,
          "velocity": 0.11811023622047244
        },
        {
          "duration": 0.27522900000000305,
          "durationTicks": 192,
          "midi": 54,
          "name": "F#3",
          "ticks": 30336,
          "time": 43.486182,
          "velocity": 0.11811023622047244
        },
        {
          "duration": 0.550457999999999,
          "durationTicks": 384,
          "midi": 61,
          "name": "C#4",
          "ticks": 30336,
          "time": 43.486182,
          "velocity": 0.11811023622047244
        },
        {
          "duration": 0.27522899999999595,
          "durationTicks": 192,
          "midi": 51,
          "name": "D#3",
          "ticks": 30528,
          "time": 43.761411,
          "velocity": 0.11811023622047244
        },
        {
          "duration": 0.27522900000000305,
          "durationTicks": 192,
          "midi": 57,
          "name": "A3",
          "ticks": 30720,
          "time": 44.03664,
          "velocity": 0.11811023622047244
        },
        {
          "duration": 0.27522900000000305,
          "durationTicks": 192,
          "midi": 54,
          "name": "F#3",
          "ticks": 30720,
          "time": 44.03664,
          "velocity": 0.11811023622047244
        },
        {
          "duration": 0.27522899999999595,
          "durationTicks": 192,
          "midi": 59,
          "name": "B3",
          "ticks": 30912,
          "time": 44.311869,
          "velocity": 0.11811023622047244
        },
        {
          "duration": 0.27522899999999595,
          "durationTicks": 192,
          "midi": 51,
          "name": "D#3",
          "ticks": 30912,
          "time": 44.311869,
          "velocity": 0.11811023622047244
        },
        {
          "duration": 0.27522900000000305,
          "durationTicks": 192,
          "midi": 47,
          "name": "B2",
          "ticks": 31104,
          "time": 44.587098,
          "velocity": 0.11811023622047244
        },
        {
          "duration": 0.27522900000000305,
          "durationTicks": 192,
          "midi": 64,
          "name": "E4",
          "ticks": 31104,
          "time": 44.587098,
          "velocity": 0.11811023622047244
        },
        {
          "duration": 0.27522900000000305,
          "durationTicks": 192,
          "midi": 51,
          "name": "D#3",
          "ticks": 31296,
          "time": 44.862327,
          "velocity": 0.11811023622047244
        },
        {
          "duration": 0.27522900000000305,
          "durationTicks": 192,
          "midi": 63,
          "name": "D#4",
          "ticks": 31296,
          "time": 44.862327,
          "velocity": 0.11811023622047244
        },
        {
          "duration": 0.27522899999999595,
          "durationTicks": 192,
          "midi": 64,
          "name": "E4",
          "ticks": 31488,
          "time": 45.137556000000004,
          "velocity": 0.11811023622047244
        },
        {
          "duration": 0.27522899999999595,
          "durationTicks": 192,
          "midi": 54,
          "name": "F#3",
          "ticks": 31488,
          "time": 45.137556000000004,
          "velocity": 0.11811023622047244
        },
        {
          "duration": 0.27522900000000305,
          "durationTicks": 192,
          "midi": 51,
          "name": "D#3",
          "ticks": 31680,
          "time": 45.412785,
          "velocity": 0.11811023622047244
        },
        {
          "duration": 0.27522900000000305,
          "durationTicks": 192,
          "midi": 66,
          "name": "F#4",
          "ticks": 31680,
          "time": 45.412785,
          "velocity": 0.11811023622047244
        },
        {
          "duration": 0.27522899999999595,
          "durationTicks": 192,
          "midi": 63,
          "name": "D#4",
          "ticks": 31872,
          "time": 45.688014,
          "velocity": 0.11811023622047244
        },
        {
          "duration": 0.27522899999999595,
          "durationTicks": 192,
          "midi": 54,
          "name": "F#3",
          "ticks": 31872,
          "time": 45.688014,
          "velocity": 0.11811023622047244
        },
        {
          "duration": 0.27522900000000305,
          "durationTicks": 192,
          "midi": 51,
          "name": "D#3",
          "ticks": 32064,
          "time": 45.963243,
          "velocity": 0.11811023622047244
        },
        {
          "duration": 0.27522900000000305,
          "durationTicks": 192,
          "midi": 59,
          "name": "B3",
          "ticks": 32064,
          "time": 45.963243,
          "velocity": 0.11811023622047244
        },
        {
          "duration": 0.27522899999999595,
          "durationTicks": 192,
          "midi": 66,
          "name": "F#4",
          "ticks": 32256,
          "time": 46.238472,
          "velocity": 0.11811023622047244
        },
        {
          "duration": 0.27522899999999595,
          "durationTicks": 192,
          "midi": 43,
          "name": "G2",
          "ticks": 32256,
          "time": 46.238472,
          "velocity": 0.11811023622047244
        },
        {
          "duration": 0.27522900000000305,
          "durationTicks": 192,
          "midi": 59,
          "name": "B3",
          "ticks": 32448,
          "time": 46.513701,
          "velocity": 0.11811023622047244
        },
        {
          "duration": 0.27522900000000305,
          "durationTicks": 192,
          "midi": 47,
          "name": "B2",
          "ticks": 32448,
          "time": 46.513701,
          "velocity": 0.11811023622047244
        },
        {
          "duration": 0.27522900000000305,
          "durationTicks": 192,
          "midi": 66,
          "name": "F#4",
          "ticks": 32640,
          "time": 46.78893,
          "velocity": 0.11811023622047244
        },
        {
          "duration": 0.27522900000000305,
          "durationTicks": 192,
          "midi": 50,
          "name": "D3",
          "ticks": 32640,
          "time": 46.78893,
          "velocity": 0.11811023622047244
        },
        {
          "duration": 0.27522899999999595,
          "durationTicks": 192,
          "midi": 47,
          "name": "B2",
          "ticks": 32832,
          "time": 47.064159000000004,
          "velocity": 0.11811023622047244
        },
        {
          "duration": 0.27522899999999595,
          "durationTicks": 192,
          "midi": 59,
          "name": "B3",
          "ticks": 32832,
          "time": 47.064159000000004,
          "velocity": 0.11811023622047244
        },
        {
          "duration": 0.27522900000000305,
          "durationTicks": 192,
          "midi": 66,
          "name": "F#4",
          "ticks": 33024,
          "time": 47.339388,
          "velocity": 0.11811023622047244
        },
        {
          "duration": 0.27522900000000305,
          "durationTicks": 192,
          "midi": 50,
          "name": "D3",
          "ticks": 33024,
          "time": 47.339388,
          "velocity": 0.11811023622047244
        },
        {
          "duration": 0.27522899999999595,
          "durationTicks": 192,
          "midi": 59,
          "name": "B3",
          "ticks": 33216,
          "time": 47.614617,
          "velocity": 0.11811023622047244
        },
        {
          "duration": 0.27522899999999595,
          "durationTicks": 192,
          "midi": 47,
          "name": "B2",
          "ticks": 33216,
          "time": 47.614617,
          "velocity": 0.11811023622047244
        },
        {
          "duration": 0.27522900000000305,
          "durationTicks": 192,
          "midi": 43,
          "name": "G2",
          "ticks": 33408,
          "time": 47.889846,
          "velocity": 0.11811023622047244
        },
        {
          "duration": 0.27522900000000305,
          "durationTicks": 192,
          "midi": 66,
          "name": "F#4",
          "ticks": 33408,
          "time": 47.889846,
          "velocity": 0.11811023622047244
        },
        {
          "duration": 0.27522899999999595,
          "durationTicks": 192,
          "midi": 46,
          "name": "A#2",
          "ticks": 33600,
          "time": 48.165075,
          "velocity": 0.11811023622047244
        },
        {
          "duration": 0.27522899999999595,
          "durationTicks": 192,
          "midi": 58,
          "name": "A#3",
          "ticks": 33600,
          "time": 48.165075,
          "velocity": 0.11811023622047244
        },
        {
          "duration": 0.27522900000000305,
          "durationTicks": 192,
          "midi": 66,
          "name": "F#4",
          "ticks": 33792,
          "time": 48.440304,
          "velocity": 0.11811023622047244
        },
        {
          "duration": 0.27522900000000305,
          "durationTicks": 192,
          "midi": 50,
          "name": "D3",
          "ticks": 33792,
          "time": 48.440304,
          "velocity": 0.11811023622047244
        },
        {
          "duration": 0.27522900000000305,
          "durationTicks": 192,
          "midi": 58,
          "name": "A#3",
          "ticks": 33984,
          "time": 48.715533,
          "velocity": 0.11811023622047244
        },
        {
          "duration": 0.27522900000000305,
          "durationTicks": 192,
          "midi": 46,
          "name": "A#2",
          "ticks": 33984,
          "time": 48.715533,
          "velocity": 0.11811023622047244
        },
        {
          "duration": 0.550457999999999,
          "durationTicks": 384,
          "midi": 67,
          "name": "G4",
          "ticks": 34176,
          "time": 48.990762000000004,
          "velocity": 0.11811023622047244
        },
        {
          "duration": 0.27522899999999595,
          "durationTicks": 192,
          "midi": 50,
          "name": "D3",
          "ticks": 34176,
          "time": 48.990762000000004,
          "velocity": 0.11811023622047244
        },
        {
          "duration": 0.27522900000000305,
          "durationTicks": 192,
          "midi": 46,
          "name": "A#2",
          "ticks": 34368,
          "time": 49.265991,
          "velocity": 0.11811023622047244
        },
        {
          "duration": 0.27522899999999595,
          "durationTicks": 192,
          "midi": 50,
          "name": "D3",
          "ticks": 34560,
          "time": 49.54122,
          "velocity": 0.11811023622047244
        },
        {
          "duration": 0.27522899999999595,
          "durationTicks": 192,
          "midi": 66,
          "name": "F#4",
          "ticks": 34560,
          "time": 49.54122,
          "velocity": 0.11811023622047244
        },
        {
          "duration": 0.27522900000000305,
          "durationTicks": 192,
          "midi": 54,
          "name": "F#3",
          "ticks": 34752,
          "time": 49.816449,
          "velocity": 0.11811023622047244
        },
        {
          "duration": 0.27522900000000305,
          "durationTicks": 192,
          "midi": 62,
          "name": "D4",
          "ticks": 34752,
          "time": 49.816449,
          "velocity": 0.11811023622047244
        },
        {
          "duration": 0.27522899999999595,
          "durationTicks": 192,
          "midi": 66,
          "name": "F#4",
          "ticks": 34944,
          "time": 50.091678,
          "velocity": 0.11811023622047244
        },
        {
          "duration": 0.27522899999999595,
          "durationTicks": 192,
          "midi": 57,
          "name": "A3",
          "ticks": 34944,
          "time": 50.091678,
          "velocity": 0.11811023622047244
        },
        {
          "duration": 0.27522900000000305,
          "durationTicks": 192,
          "midi": 62,
          "name": "D4",
          "ticks": 35136,
          "time": 50.366907,
          "velocity": 0.11811023622047244
        },
        {
          "duration": 0.27522900000000305,
          "durationTicks": 192,
          "midi": 54,
          "name": "F#3",
          "ticks": 35136,
          "time": 50.366907,
          "velocity": 0.11811023622047244
        },
        {
          "duration": 0.27522900000000305,
          "durationTicks": 192,
          "midi": 64,
          "name": "E4",
          "ticks": 35328,
          "time": 50.642136,
          "velocity": 0.11811023622047244
        },
        {
          "duration": 0.27522900000000305,
          "durationTicks": 192,
          "midi": 57,
          "name": "A3",
          "ticks": 35328,
          "time": 50.642136,
          "velocity": 0.11811023622047244
        },
        {
          "duration": 0.27522899999999595,
          "durationTicks": 192,
          "midi": 66,
          "name": "F#4",
          "ticks": 35520,
          "time": 50.917365000000004,
          "velocity": 0.11811023622047244
        },
        {
          "duration": 0.27522899999999595,
          "durationTicks": 192,
          "midi": 54,
          "name": "F#3",
          "ticks": 35520,
          "time": 50.917365000000004,
          "velocity": 0.11811023622047244
        },
        {
          "duration": 0.550457999999999,
          "durationTicks": 384,
          "midi": 61,
          "name": "C#4",
          "ticks": 35712,
          "time": 51.192594,
          "velocity": 0.11811023622047244
        },
        {
          "duration": 0.27522900000000305,
          "durationTicks": 192,
          "midi": 50,
          "name": "D3",
          "ticks": 35712,
          "time": 51.192594,
          "velocity": 0.11811023622047244
        },
        {
          "duration": 0.27522899999999595,
          "durationTicks": 192,
          "midi": 54,
          "name": "F#3",
          "ticks": 35904,
          "time": 51.467823,
          "velocity": 0.11811023622047244
        },
        {
          "duration": 0.27522900000000305,
          "durationTicks": 192,
          "midi": 57,
          "name": "A3",
          "ticks": 36096,
          "time": 51.743052,
          "velocity": 0.11811023622047244
        },
        {
          "duration": 0.550457999999999,
          "durationTicks": 384,
          "midi": 66,
          "name": "F#4",
          "ticks": 36096,
          "time": 51.743052,
          "velocity": 0.11811023622047244
        },
        {
          "duration": 0.27522899999999595,
          "durationTicks": 192,
          "midi": 54,
          "name": "F#3",
          "ticks": 36288,
          "time": 52.018281,
          "velocity": 0.11811023622047244
        },
        {
          "duration": 0.5504580000000061,
          "durationTicks": 384,
          "midi": 61,
          "name": "C#4",
          "ticks": 36480,
          "time": 52.29351,
          "velocity": 0.11811023622047244
        },
        {
          "duration": 0.27522900000000305,
          "durationTicks": 192,
          "midi": 57,
          "name": "A3",
          "ticks": 36480,
          "time": 52.29351,
          "velocity": 0.11811023622047244
        },
        {
          "duration": 0.27522900000000305,
          "durationTicks": 192,
          "midi": 54,
          "name": "F#3",
          "ticks": 36672,
          "time": 52.568739,
          "velocity": 0.11811023622047244
        },
        {
          "duration": 0.27522899999999595,
          "durationTicks": 192,
          "midi": 55,
          "name": "G3",
          "ticks": 36864,
          "time": 52.843968000000004,
          "velocity": 0.11811023622047244
        },
        {
          "duration": 0.825686999999995,
          "durationTicks": 576,
          "midi": 62,
          "name": "D4",
          "ticks": 36864,
          "time": 52.843968000000004,
          "velocity": 0.11811023622047244
        },
        {
          "duration": 0.27522900000000305,
          "durationTicks": 192,
          "midi": 50,
          "name": "D3",
          "ticks": 37056,
          "time": 53.119197,
          "velocity": 0.11811023622047244
        },
        {
          "duration": 0.27522899999999595,
          "durationTicks": 192,
          "midi": 55,
          "name": "G3",
          "ticks": 37248,
          "time": 53.394426,
          "velocity": 0.11811023622047244
        },
        {
          "duration": 0.27522900000000305,
          "durationTicks": 192,
          "midi": 50,
          "name": "D3",
          "ticks": 37440,
          "time": 53.669655,
          "velocity": 0.11811023622047244
        },
        {
          "duration": 0.27522900000000305,
          "durationTicks": 192,
          "midi": 57,
          "name": "A3",
          "ticks": 37440,
          "time": 53.669655,
          "velocity": 0.11811023622047244
        },
        {
          "duration": 0.27522899999999595,
          "durationTicks": 192,
          "midi": 55,
          "name": "G3",
          "ticks": 37632,
          "time": 53.944884,
          "velocity": 0.11811023622047244
        },
        {
          "duration": 0.27522899999999595,
          "durationTicks": 192,
          "midi": 59,
          "name": "B3",
          "ticks": 37632,
          "time": 53.944884,
          "velocity": 0.11811023622047244
        },
        {
          "duration": 0.27522900000000305,
          "durationTicks": 192,
          "midi": 54,
          "name": "F#3",
          "ticks": 37824,
          "time": 54.220113,
          "velocity": 0.11811023622047244
        },
        {
          "duration": 0.27522900000000305,
          "durationTicks": 192,
          "midi": 61,
          "name": "C#4",
          "ticks": 37824,
          "time": 54.220113,
          "velocity": 0.11811023622047244
        },
        {
          "duration": 0.550457999999999,
          "durationTicks": 384,
          "midi": 62,
          "name": "D4",
          "ticks": 38016,
          "time": 54.495342,
          "velocity": 0.11811023622047244
        },
        {
          "duration": 0.27522899999999595,
          "durationTicks": 192,
          "midi": 52,
          "name": "E3",
          "ticks": 38016,
          "time": 54.495342,
          "velocity": 0.11811023622047244
        },
        {
          "duration": 0.27522900000000305,
          "durationTicks": 192,
          "midi": 50,
          "name": "D3",
          "ticks": 38208,
          "time": 54.770571,
          "velocity": 0.11811023622047244
        },
        {
          "duration": 0.550457999999999,
          "durationTicks": 384,
          "midi": 61,
          "name": "C#4",
          "ticks": 38400,
          "time": 55.0458,
          "velocity": 0.11811023622047244
        },
        {
          "duration": 0.27522900000000305,
          "durationTicks": 192,
          "midi": 54,
          "name": "F#3",
          "ticks": 38400,
          "time": 55.0458,
          "velocity": 0.11811023622047244
        },
        {
          "duration": 0.27522899999999595,
          "durationTicks": 192,
          "midi": 45,
          "name": "A2",
          "ticks": 38592,
          "time": 55.321029,
          "velocity": 0.11811023622047244
        },
        {
          "duration": 0.27522900000000305,
          "durationTicks": 192,
          "midi": 47,
          "name": "B2",
          "ticks": 38784,
          "time": 55.596258,
          "velocity": 0.11811023622047244
        },
        {
          "duration": 0.550457999999999,
          "durationTicks": 384,
          "midi": 62,
          "name": "D4",
          "ticks": 38784,
          "time": 55.596258,
          "velocity": 0.11811023622047244
        },
        {
          "duration": 0.27522899999999595,
          "durationTicks": 192,
          "midi": 49,
          "name": "C#3",
          "ticks": 38976,
          "time": 55.871487,
          "velocity": 0.11811023622047244
        },
        {
          "duration": 0.8256870000000021,
          "durationTicks": 576,
          "midi": 57,
          "name": "A3",
          "ticks": 39168,
          "time": 56.146716,
          "velocity": 0.11811023622047244
        },
        {
          "duration": 0.27522900000000305,
          "durationTicks": 192,
          "midi": 52,
          "name": "E3",
          "ticks": 39168,
          "time": 56.146716,
          "velocity": 0.11811023622047244
        },
        {
          "duration": 0.27522899999999595,
          "durationTicks": 192,
          "midi": 54,
          "name": "F#3",
          "ticks": 39360,
          "time": 56.421945,
          "velocity": 0.11811023622047244
        },
        {
          "duration": 0.27522900000000305,
          "durationTicks": 192,
          "midi": 49,
          "name": "C#3",
          "ticks": 39552,
          "time": 56.697174,
          "velocity": 0.11811023622047244
        },
        {
          "duration": 0.27522900000000305,
          "durationTicks": 192,
          "midi": 59,
          "name": "B3",
          "ticks": 39744,
          "time": 56.972403,
          "velocity": 0.11811023622047244
        },
        {
          "duration": 0.27522900000000305,
          "durationTicks": 192,
          "midi": 54,
          "name": "F#3",
          "ticks": 39744,
          "time": 56.972403,
          "velocity": 0.11811023622047244
        },
        {
          "duration": 0.27522899999999595,
          "durationTicks": 192,
          "midi": 49,
          "name": "C#3",
          "ticks": 39936,
          "time": 57.247632,
          "velocity": 0.11811023622047244
        },
        {
          "duration": 0.27522899999999595,
          "durationTicks": 192,
          "midi": 57,
          "name": "A3",
          "ticks": 39936,
          "time": 57.247632,
          "velocity": 0.11811023622047244
        },
        {
          "duration": 0.27522900000000305,
          "durationTicks": 192,
          "midi": 55,
          "name": "G3",
          "ticks": 40128,
          "time": 57.522861,
          "velocity": 0.11811023622047244
        },
        {
          "duration": 0.27522900000000305,
          "durationTicks": 192,
          "midi": 43,
          "name": "G2",
          "ticks": 40128,
          "time": 57.522861,
          "velocity": 0.11811023622047244
        },
        {
          "duration": 0.27522899999999595,
          "durationTicks": 192,
          "midi": 45,
          "name": "A2",
          "ticks": 40320,
          "time": 57.79809,
          "velocity": 0.11811023622047244
        },
        {
          "duration": 0.550457999999999,
          "durationTicks": 384,
          "midi": 54,
          "name": "F#3",
          "ticks": 40320,
          "time": 57.79809,
          "velocity": 0.11811023622047244
        },
        {
          "duration": 0.27522900000000305,
          "durationTicks": 192,
          "midi": 49,
          "name": "C#3",
          "ticks": 40512,
          "time": 58.073319,
          "velocity": 0.11811023622047244
        },
        {
          "duration": 0.27522899999999595,
          "durationTicks": 192,
          "midi": 57,
          "name": "A3",
          "ticks": 40704,
          "time": 58.348548,
          "velocity": 0.11811023622047244
        },
        {
          "duration": 0.550457999999999,
          "durationTicks": 384,
          "midi": 66,
          "name": "F#4",
          "ticks": 40704,
          "time": 58.348548,
          "velocity": 0.11811023622047244
        },
        {
          "duration": 0.27522900000000305,
          "durationTicks": 192,
          "midi": 50,
          "name": "D3",
          "ticks": 40896,
          "time": 58.623777,
          "velocity": 0.11811023622047244
        },
        {
          "duration": 0.27522900000000305,
          "durationTicks": 192,
          "midi": 55,
          "name": "G3",
          "ticks": 41088,
          "time": 58.899006,
          "velocity": 0.11811023622047244
        },
        {
          "duration": 0.550457999999999,
          "durationTicks": 384,
          "midi": 64,
          "name": "E4",
          "ticks": 41088,
          "time": 58.899006,
          "velocity": 0.11811023622047244
        },
        {
          "duration": 0.27522899999999595,
          "durationTicks": 192,
          "midi": 54,
          "name": "F#3",
          "ticks": 41280,
          "time": 59.174235,
          "velocity": 0.11811023622047244
        },
        {
          "duration": 0.8256870000000021,
          "durationTicks": 576,
          "midi": 62,
          "name": "D4",
          "ticks": 41472,
          "time": 59.449464,
          "velocity": 0.11811023622047244
        },
        {
          "duration": 0.27522900000000305,
          "durationTicks": 192,
          "midi": 47,
          "name": "B2",
          "ticks": 41472,
          "time": 59.449464,
          "velocity": 0.11811023622047244
        },
        {
          "duration": 0.27522899999999595,
          "durationTicks": 192,
          "midi": 50,
          "name": "D3",
          "ticks": 41664,
          "time": 59.724693,
          "velocity": 0.11811023622047244
        },
        {
          "duration": 0.27522900000000305,
          "durationTicks": 192,
          "midi": 54,
          "name": "F#3",
          "ticks": 41856,
          "time": 59.999922,
          "velocity": 0.11811023622047244
        },
        {
          "duration": 0.27522899999999595,
          "durationTicks": 192,
          "midi": 57,
          "name": "A3",
          "ticks": 42048,
          "time": 60.275151,
          "velocity": 0.11811023622047244
        },
        {
          "duration": 0.27522899999999595,
          "durationTicks": 192,
          "midi": 50,
          "name": "D3",
          "ticks": 42048,
          "time": 60.275151,
          "velocity": 0.11811023622047244
        },
        {
          "duration": 0.27522900000000305,
          "durationTicks": 192,
          "midi": 54,
          "name": "F#3",
          "ticks": 42240,
          "time": 60.55038,
          "velocity": 0.11811023622047244
        },
        {
          "duration": 0.27522900000000305,
          "durationTicks": 192,
          "midi": 59,
          "name": "B3",
          "ticks": 42240,
          "time": 60.55038,
          "velocity": 0.11811023622047244
        },
        {
          "duration": 0.27522900000000305,
          "durationTicks": 192,
          "midi": 47,
          "name": "B2",
          "ticks": 42432,
          "time": 60.825609,
          "velocity": 0.11811023622047244
        },
        {
          "duration": 0.27522900000000305,
          "durationTicks": 192,
          "midi": 61,
          "name": "C#4",
          "ticks": 42432,
          "time": 60.825609,
          "velocity": 0.11811023622047244
        },
        {
          "duration": 0.550457999999999,
          "durationTicks": 384,
          "midi": 62,
          "name": "D4",
          "ticks": 42624,
          "time": 61.100838,
          "velocity": 0.11811023622047244
        },
        {
          "duration": 0.27522899999999595,
          "durationTicks": 192,
          "midi": 45,
          "name": "A2",
          "ticks": 42624,
          "time": 61.100838,
          "velocity": 0.11811023622047244
        },
        {
          "duration": 0.27522900000000305,
          "durationTicks": 192,
          "midi": 49,
          "name": "C#3",
          "ticks": 42816,
          "time": 61.376067,
          "velocity": 0.11811023622047244
        },
        {
          "duration": 0.550457999999999,
          "durationTicks": 384,
          "midi": 61,
          "name": "C#4",
          "ticks": 43008,
          "time": 61.651296,
          "velocity": 0.11811023622047244
        },
        {
          "duration": 0.27522899999999595,
          "durationTicks": 192,
          "midi": 52,
          "name": "E3",
          "ticks": 43008,
          "time": 61.651296,
          "velocity": 0.11811023622047244
        },
        {
          "duration": 0.27522900000000305,
          "durationTicks": 192,
          "midi": 49,
          "name": "C#3",
          "ticks": 43200,
          "time": 61.926525,
          "velocity": 0.11811023622047244
        },
        {
          "duration": 0.27522899999999595,
          "durationTicks": 192,
          "midi": 54,
          "name": "F#3",
          "ticks": 43392,
          "time": 62.201754,
          "velocity": 0.11811023622047244
        },
        {
          "duration": 0.550457999999999,
          "durationTicks": 384,
          "midi": 62,
          "name": "D4",
          "ticks": 43392,
          "time": 62.201754,
          "velocity": 0.11811023622047244
        },
        {
          "duration": 0.27522900000000305,
          "durationTicks": 192,
          "midi": 58,
          "name": "A#3",
          "ticks": 43584,
          "time": 62.476983,
          "velocity": 0.11811023622047244
        },
        {
          "duration": 0.27522900000000305,
          "durationTicks": 192,
          "midi": 59,
          "name": "B3",
          "ticks": 43776,
          "time": 62.752212,
          "velocity": 0.11811023622047244
        },
        {
          "duration": 0.8256870000000021,
          "durationTicks": 576,
          "midi": 66,
          "name": "F#4",
          "ticks": 43776,
          "time": 62.752212,
          "velocity": 0.11811023622047244
        },
        {
          "duration": 0.27522899999999595,
          "durationTicks": 192,
          "midi": 54,
          "name": "F#3",
          "ticks": 43968,
          "time": 63.027441,
          "velocity": 0.11811023622047244
        },
        {
          "duration": 0.27522900000000305,
          "durationTicks": 192,
          "midi": 52,
          "name": "E3",
          "ticks": 44160,
          "time": 63.30267,
          "velocity": 0.11811023622047244
        },
        {
          "duration": 0.27522899999999595,
          "durationTicks": 192,
          "midi": 47,
          "name": "B2",
          "ticks": 44352,
          "time": 63.577899,
          "velocity": 0.11811023622047244
        },
        {
          "duration": 0.27522899999999595,
          "durationTicks": 192,
          "midi": 67,
          "name": "G4",
          "ticks": 44352,
          "time": 63.577899,
          "velocity": 0.11811023622047244
        },
        {
          "duration": 0.27522899999999595,
          "durationTicks": 192,
          "midi": 50,
          "name": "D3",
          "ticks": 44544,
          "time": 63.853128,
          "velocity": 0.11811023622047244
        },
        {
          "duration": 0.27522899999999595,
          "durationTicks": 192,
          "midi": 66,
          "name": "F#4",
          "ticks": 44544,
          "time": 63.853128,
          "velocity": 0.11811023622047244
        },
        {
          "duration": 0.27522900000001016,
          "durationTicks": 192,
          "midi": 64,
          "name": "E4",
          "ticks": 44736,
          "time": 64.128357,
          "velocity": 0.11811023622047244
        },
        {
          "duration": 0.27522900000001016,
          "durationTicks": 192,
          "midi": 55,
          "name": "G3",
          "ticks": 44736,
          "time": 64.128357,
          "velocity": 0.11811023622047244
        },
        {
          "duration": 0.5504579999999919,
          "durationTicks": 384,
          "midi": 62,
          "name": "D4",
          "ticks": 44928,
          "time": 64.403586,
          "velocity": 0.11811023622047244
        },
        {
          "duration": 0.27522899999999595,
          "durationTicks": 192,
          "midi": 57,
          "name": "A3",
          "ticks": 44928,
          "time": 64.403586,
          "velocity": 0.11811023622047244
        },
        {
          "duration": 0.27522899999999595,
          "durationTicks": 192,
          "midi": 54,
          "name": "F#3",
          "ticks": 45120,
          "time": 64.678815,
          "velocity": 0.11811023622047244
        },
        {
          "duration": 0.27522900000001016,
          "durationTicks": 192,
          "midi": 52,
          "name": "E3",
          "ticks": 45312,
          "time": 64.954044,
          "velocity": 0.11811023622047244
        },
        {
          "duration": 0.5504580000000061,
          "durationTicks": 384,
          "midi": 64,
          "name": "E4",
          "ticks": 45312,
          "time": 64.954044,
          "velocity": 0.11811023622047244
        },
        {
          "duration": 0.27522899999999595,
          "durationTicks": 192,
          "midi": 50,
          "name": "D3",
          "ticks": 45504,
          "time": 65.229273,
          "velocity": 0.11811023622047244
        },
        {
          "duration": 0.27522899999999595,
          "durationTicks": 192,
          "midi": 52,
          "name": "E3",
          "ticks": 45696,
          "time": 65.504502,
          "velocity": 0.11811023622047244
        },
        {
          "duration": 0.5504579999999919,
          "durationTicks": 384,
          "midi": 61,
          "name": "C#4",
          "ticks": 45696,
          "time": 65.504502,
          "velocity": 0.11811023622047244
        },
        {
          "duration": 0.27522899999999595,
          "durationTicks": 192,
          "midi": 54,
          "name": "F#3",
          "ticks": 45888,
          "time": 65.779731,
          "velocity": 0.11811023622047244
        },
        {
          "duration": 0.8256870000000021,
          "durationTicks": 576,
          "midi": 62,
          "name": "D4",
          "ticks": 46080,
          "time": 66.05496,
          "velocity": 0.11811023622047244
        },
        {
          "duration": 0.27522900000001016,
          "durationTicks": 192,
          "midi": 55,
          "name": "G3",
          "ticks": 46080,
          "time": 66.05496,
          "velocity": 0.11811023622047244
        },
        {
          "duration": 0.27522899999999595,
          "durationTicks": 192,
          "midi": 50,
          "name": "D3",
          "ticks": 46272,
          "time": 66.330189,
          "velocity": 0.11811023622047244
        },
        {
          "duration": 0.27522899999999595,
          "durationTicks": 192,
          "midi": 55,
          "name": "G3",
          "ticks": 46464,
          "time": 66.605418,
          "velocity": 0.11811023622047244
        },
        {
          "duration": 0.27522900000001016,
          "durationTicks": 192,
          "midi": 57,
          "name": "A3",
          "ticks": 46656,
          "time": 66.880647,
          "velocity": 0.11811023622047244
        },
        {
          "duration": 0.27522900000001016,
          "durationTicks": 192,
          "midi": 50,
          "name": "D3",
          "ticks": 46656,
          "time": 66.880647,
          "velocity": 0.11811023622047244
        },
        {
          "duration": 0.27522899999999595,
          "durationTicks": 192,
          "midi": 59,
          "name": "B3",
          "ticks": 46848,
          "time": 67.155876,
          "velocity": 0.11811023622047244
        },
        {
          "duration": 0.27522899999999595,
          "durationTicks": 192,
          "midi": 55,
          "name": "G3",
          "ticks": 46848,
          "time": 67.155876,
          "velocity": 0.11811023622047244
        },
        {
          "duration": 0.27522899999999595,
          "durationTicks": 192,
          "midi": 61,
          "name": "C#4",
          "ticks": 47040,
          "time": 67.431105,
          "velocity": 0.11811023622047244
        },
        {
          "duration": 0.27522899999999595,
          "durationTicks": 192,
          "midi": 54,
          "name": "F#3",
          "ticks": 47040,
          "time": 67.431105,
          "velocity": 0.11811023622047244
        },
        {
          "duration": 0.5504580000000061,
          "durationTicks": 384,
          "midi": 62,
          "name": "D4",
          "ticks": 47232,
          "time": 67.706334,
          "velocity": 0.11811023622047244
        },
        {
          "duration": 0.27522899999999595,
          "durationTicks": 192,
          "midi": 52,
          "name": "E3",
          "ticks": 47232,
          "time": 67.706334,
          "velocity": 0.11811023622047244
        },
        {
          "duration": 0.27522900000001016,
          "durationTicks": 192,
          "midi": 50,
          "name": "D3",
          "ticks": 47424,
          "time": 67.981563,
          "velocity": 0.11811023622047244
        },
        {
          "duration": 0.5504579999999919,
          "durationTicks": 384,
          "midi": 61,
          "name": "C#4",
          "ticks": 47616,
          "time": 68.256792,
          "velocity": 0.11811023622047244
        },
        {
          "duration": 0.27522899999999595,
          "durationTicks": 192,
          "midi": 54,
          "name": "F#3",
          "ticks": 47616,
          "time": 68.256792,
          "velocity": 0.11811023622047244
        },
        {
          "duration": 0.27522899999999595,
          "durationTicks": 192,
          "midi": 45,
          "name": "A2",
          "ticks": 47808,
          "time": 68.532021,
          "velocity": 0.11811023622047244
        },
        {
          "duration": 0.5504580000000061,
          "durationTicks": 384,
          "midi": 62,
          "name": "D4",
          "ticks": 48000,
          "time": 68.80725,
          "velocity": 0.11811023622047244
        },
        {
          "duration": 0.27522900000001016,
          "durationTicks": 192,
          "midi": 47,
          "name": "B2",
          "ticks": 48000,
          "time": 68.80725,
          "velocity": 0.11811023622047244
        },
        {
          "duration": 0.27522899999999595,
          "durationTicks": 192,
          "midi": 49,
          "name": "C#3",
          "ticks": 48192,
          "time": 69.082479,
          "velocity": 0.11811023622047244
        },
        {
          "duration": 0.8256870000000021,
          "durationTicks": 576,
          "midi": 57,
          "name": "A3",
          "ticks": 48384,
          "time": 69.357708,
          "velocity": 0.11811023622047244
        },
        {
          "duration": 0.27522899999999595,
          "durationTicks": 192,
          "midi": 52,
          "name": "E3",
          "ticks": 48384,
          "time": 69.357708,
          "velocity": 0.11811023622047244
        },
        {
          "duration": 0.27522899999999595,
          "durationTicks": 192,
          "midi": 54,
          "name": "F#3",
          "ticks": 48576,
          "time": 69.632937,
          "velocity": 0.11811023622047244
        },
        {
          "duration": 0.27522900000001016,
          "durationTicks": 192,
          "midi": 49,
          "name": "C#3",
          "ticks": 48768,
          "time": 69.908166,
          "velocity": 0.11811023622047244
        },
        {
          "duration": 0.27522899999999595,
          "durationTicks": 192,
          "midi": 54,
          "name": "F#3",
          "ticks": 48960,
          "time": 70.183395,
          "velocity": 0.11811023622047244
        },
        {
          "duration": 0.27522899999999595,
          "durationTicks": 192,
          "midi": 59,
          "name": "B3",
          "ticks": 48960,
          "time": 70.183395,
          "velocity": 0.11811023622047244
        },
        {
          "duration": 0.27522899999999595,
          "durationTicks": 192,
          "midi": 57,
          "name": "A3",
          "ticks": 49152,
          "time": 70.458624,
          "velocity": 0.11811023622047244
        },
        {
          "duration": 0.27522899999999595,
          "durationTicks": 192,
          "midi": 49,
          "name": "C#3",
          "ticks": 49152,
          "time": 70.458624,
          "velocity": 0.11811023622047244
        },
        {
          "duration": 0.27522900000001016,
          "durationTicks": 192,
          "midi": 55,
          "name": "G3",
          "ticks": 49344,
          "time": 70.733853,
          "velocity": 0.11811023622047244
        },
        {
          "duration": 0.27522900000001016,
          "durationTicks": 192,
          "midi": 43,
          "name": "G2",
          "ticks": 49344,
          "time": 70.733853,
          "velocity": 0.11811023622047244
        },
        {
          "duration": 0.27522899999999595,
          "durationTicks": 192,
          "midi": 45,
          "name": "A2",
          "ticks": 49536,
          "time": 71.009082,
          "velocity": 0.11811023622047244
        },
        {
          "duration": 0.5504579999999919,
          "durationTicks": 384,
          "midi": 54,
          "name": "F#3",
          "ticks": 49536,
          "time": 71.009082,
          "velocity": 0.11811023622047244
        },
        {
          "duration": 0.27522899999999595,
          "durationTicks": 192,
          "midi": 49,
          "name": "C#3",
          "ticks": 49728,
          "time": 71.284311,
          "velocity": 0.11811023622047244
        },
        {
          "duration": 0.27522899999999595,
          "durationTicks": 192,
          "midi": 57,
          "name": "A3",
          "ticks": 49920,
          "time": 71.55954,
          "velocity": 0.11811023622047244
        },
        {
          "duration": 0.5504580000000061,
          "durationTicks": 384,
          "midi": 62,
          "name": "D4",
          "ticks": 49920,
          "time": 71.55954,
          "velocity": 0.11811023622047244
        },
        {
          "duration": 0.5504580000000061,
          "durationTicks": 384,
          "midi": 66,
          "name": "F#4",
          "ticks": 49920,
          "time": 71.55954,
          "velocity": 0.11811023622047244
        },
        {
          "duration": 0.27522900000001016,
          "durationTicks": 192,
          "midi": 50,
          "name": "D3",
          "ticks": 50112,
          "time": 71.834769,
          "velocity": 0.11811023622047244
        },
        {
          "duration": 0.27522899999999595,
          "durationTicks": 192,
          "midi": 55,
          "name": "G3",
          "ticks": 50304,
          "time": 72.109998,
          "velocity": 0.11811023622047244
        },
        {
          "duration": 0.5504579999999919,
          "durationTicks": 384,
          "midi": 64,
          "name": "E4",
          "ticks": 50304,
          "time": 72.109998,
          "velocity": 0.11811023622047244
        },
        {
          "duration": 0.5504579999999919,
          "durationTicks": 384,
          "midi": 61,
          "name": "C#4",
          "ticks": 50304,
          "time": 72.109998,
          "velocity": 0.11811023622047244
        },
        {
          "duration": 0.27522899999999595,
          "durationTicks": 192,
          "midi": 54,
          "name": "F#3",
          "ticks": 50496,
          "time": 72.385227,
          "velocity": 0.11811023622047244
        },
        {
          "duration": 0.8256870000000021,
          "durationTicks": 576,
          "midi": 59,
          "name": "B3",
          "ticks": 50688,
          "time": 72.660456,
          "velocity": 0.11811023622047244
        },
        {
          "duration": 0.8256870000000021,
          "durationTicks": 576,
          "midi": 62,
          "name": "D4",
          "ticks": 50688,
          "time": 72.660456,
          "velocity": 0.11811023622047244
        },
        {
          "duration": 0.27522900000001016,
          "durationTicks": 192,
          "midi": 47,
          "name": "B2",
          "ticks": 50688,
          "time": 72.660456,
          "velocity": 0.11811023622047244
        },
        {
          "duration": 0.27522899999999595,
          "durationTicks": 192,
          "midi": 50,
          "name": "D3",
          "ticks": 50880,
          "time": 72.935685,
          "velocity": 0.11811023622047244
        },
        {
          "duration": 0.27522899999999595,
          "durationTicks": 192,
          "midi": 54,
          "name": "F#3",
          "ticks": 51072,
          "time": 73.210914,
          "velocity": 0.11811023622047244
        },
        {
          "duration": 0.27522899999999595,
          "durationTicks": 192,
          "midi": 57,
          "name": "A3",
          "ticks": 51264,
          "time": 73.486143,
          "velocity": 0.11811023622047244
        },
        {
          "duration": 0.27522899999999595,
          "durationTicks": 192,
          "midi": 50,
          "name": "D3",
          "ticks": 51264,
          "time": 73.486143,
          "velocity": 0.11811023622047244
        },
        {
          "duration": 0.27522900000001016,
          "durationTicks": 192,
          "midi": 54,
          "name": "F#3",
          "ticks": 51456,
          "time": 73.761372,
          "velocity": 0.11811023622047244
        },
        {
          "duration": 0.27522900000001016,
          "durationTicks": 192,
          "midi": 59,
          "name": "B3",
          "ticks": 51456,
          "time": 73.761372,
          "velocity": 0.11811023622047244
        },
        {
          "duration": 0.27522899999999595,
          "durationTicks": 192,
          "midi": 47,
          "name": "B2",
          "ticks": 51648,
          "time": 74.036601,
          "velocity": 0.11811023622047244
        },
        {
          "duration": 0.27522899999999595,
          "durationTicks": 192,
          "midi": 61,
          "name": "C#4",
          "ticks": 51648,
          "time": 74.036601,
          "velocity": 0.11811023622047244
        },
        {
          "duration": 0.5504580000000061,
          "durationTicks": 384,
          "midi": 62,
          "name": "D4",
          "ticks": 51840,
          "time": 74.31183,
          "velocity": 0.11811023622047244
        },
        {
          "duration": 0.27522899999999595,
          "durationTicks": 192,
          "midi": 45,
          "name": "A2",
          "ticks": 51840,
          "time": 74.31183,
          "velocity": 0.11811023622047244
        },
        {
          "duration": 0.27522900000001016,
          "durationTicks": 192,
          "midi": 49,
          "name": "C#3",
          "ticks": 52032,
          "time": 74.587059,
          "velocity": 0.11811023622047244
        },
        {
          "duration": 0.5504579999999919,
          "durationTicks": 384,
          "midi": 61,
          "name": "C#4",
          "ticks": 52224,
          "time": 74.862288,
          "velocity": 0.11811023622047244
        },
        {
          "duration": 0.27522899999999595,
          "durationTicks": 192,
          "midi": 52,
          "name": "E3",
          "ticks": 52224,
          "time": 74.862288,
          "velocity": 0.11811023622047244
        },
        {
          "duration": 0.27522899999999595,
          "durationTicks": 192,
          "midi": 49,
          "name": "C#3",
          "ticks": 52416,
          "time": 75.137517,
          "velocity": 0.11811023622047244
        },
        {
          "duration": 0.27522899999999595,
          "durationTicks": 192,
          "midi": 54,
          "name": "F#3",
          "ticks": 52608,
          "time": 75.412746,
          "velocity": 0.11811023622047244
        },
        {
          "duration": 0.5504580000000061,
          "durationTicks": 384,
          "midi": 62,
          "name": "D4",
          "ticks": 52608,
          "time": 75.412746,
          "velocity": 0.11811023622047244
        },
        {
          "duration": 0.27522900000001016,
          "durationTicks": 192,
          "midi": 58,
          "name": "A#3",
          "ticks": 52800,
          "time": 75.687975,
          "velocity": 0.11811023622047244
        },
        {
          "duration": 0.27522899999999595,
          "durationTicks": 192,
          "midi": 66,
          "name": "F#4",
          "ticks": 52992,
          "time": 75.963204,
          "velocity": 0.11811023622047244
        },
        {
          "duration": 0.27522899999999595,
          "durationTicks": 192,
          "midi": 59,
          "name": "B3",
          "ticks": 52992,
          "time": 75.963204,
          "velocity": 0.11811023622047244
        },
        {
          "duration": 0.27522899999999595,
          "durationTicks": 192,
          "midi": 62,
          "name": "D4",
          "ticks": 53184,
          "time": 76.238433,
          "velocity": 0.11811023622047244
        },
        {
          "duration": 0.27522899999999595,
          "durationTicks": 192,
          "midi": 54,
          "name": "F#3",
          "ticks": 53184,
          "time": 76.238433,
          "velocity": 0.11811023622047244
        },
        {
          "duration": 0.27522900000001016,
          "durationTicks": 192,
          "midi": 59,
          "name": "B3",
          "ticks": 53376,
          "time": 76.513662,
          "velocity": 0.11811023622047244
        },
        {
          "duration": 0.27522900000001016,
          "durationTicks": 192,
          "midi": 66,
          "name": "F#4",
          "ticks": 53376,
          "time": 76.513662,
          "velocity": 0.11811023622047244
        },
        {
          "duration": 0.27522899999999595,
          "durationTicks": 192,
          "midi": 54,
          "name": "F#3",
          "ticks": 53568,
          "time": 76.788891,
          "velocity": 0.11811023622047244
        },
        {
          "duration": 0.27522899999999595,
          "durationTicks": 192,
          "midi": 62,
          "name": "D4",
          "ticks": 53568,
          "time": 76.788891,
          "velocity": 0.11811023622047244
        },
        {
          "duration": 0.27522899999999595,
          "durationTicks": 192,
          "midi": 64,
          "name": "E4",
          "ticks": 53760,
          "time": 77.06412,
          "velocity": 0.11811023622047244
        },
        {
          "duration": 0.27522899999999595,
          "durationTicks": 192,
          "midi": 59,
          "name": "B3",
          "ticks": 53760,
          "time": 77.06412,
          "velocity": 0.11811023622047244
        },
        {
          "duration": 0.27522899999999595,
          "durationTicks": 192,
          "midi": 54,
          "name": "F#3",
          "ticks": 53952,
          "time": 77.339349,
          "velocity": 0.11811023622047244
        },
        {
          "duration": 0.27522899999999595,
          "durationTicks": 192,
          "midi": 66,
          "name": "F#4",
          "ticks": 53952,
          "time": 77.339349,
          "velocity": 0.11811023622047244
        },
        {
          "duration": 0.5504580000000061,
          "durationTicks": 384,
          "midi": 64,
          "name": "E4",
          "ticks": 54144,
          "time": 77.614578,
          "velocity": 0.11811023622047244
        },
        {
          "duration": 0.27522900000001016,
          "durationTicks": 192,
          "midi": 49,
          "name": "C#3",
          "ticks": 54144,
          "time": 77.614578,
          "velocity": 0.11811023622047244
        },
        {
          "duration": 0.27522899999999595,
          "durationTicks": 192,
          "midi": 52,
          "name": "E3",
          "ticks": 54336,
          "time": 77.889807,
          "velocity": 0.11811023622047244
        },
        {
          "duration": 0.27522899999999595,
          "durationTicks": 192,
          "midi": 57,
          "name": "A3",
          "ticks": 54528,
          "time": 78.165036,
          "velocity": 0.11811023622047244
        },
        {
          "duration": 0.5504580000000061,
          "durationTicks": 384,
          "midi": 62,
          "name": "D4",
          "ticks": 54528,
          "time": 78.165036,
          "velocity": 0.11811023622047244
        },
        {
          "duration": 0.27522900000001016,
          "durationTicks": 192,
          "midi": 52,
          "name": "E3",
          "ticks": 54720,
          "time": 78.440265,
          "velocity": 0.11811023622047244
        },
        {
          "duration": 0.27522899999999595,
          "durationTicks": 192,
          "midi": 57,
          "name": "A3",
          "ticks": 54912,
          "time": 78.715494,
          "velocity": 0.11811023622047244
        },
        {
          "duration": 0.5504579999999919,
          "durationTicks": 384,
          "midi": 61,
          "name": "C#4",
          "ticks": 54912,
          "time": 78.715494,
          "velocity": 0.11811023622047244
        },
        {
          "duration": 0.27522899999999595,
          "durationTicks": 192,
          "midi": 52,
          "name": "E3",
          "ticks": 55104,
          "time": 78.990723,
          "velocity": 0.11811023622047244
        },
        {
          "duration": 0.27522899999999595,
          "durationTicks": 192,
          "midi": 50,
          "name": "D3",
          "ticks": 55296,
          "time": 79.265952,
          "velocity": 0.11811023622047244
        },
        {
          "duration": 0.13761450000001219,
          "durationTicks": 96,
          "midi": 54,
          "name": "F#3",
          "ticks": 55488,
          "time": 79.541181,
          "velocity": 0.11811023622047244
        },
        {
          "duration": 0.13761450000001219,
          "durationTicks": 96,
          "midi": 57,
          "name": "A3",
          "ticks": 55488,
          "time": 79.541181,
          "velocity": 0.11811023622047244
        },
        {
          "duration": 0.13761449999999797,
          "durationTicks": 96,
          "midi": 57,
          "name": "A3",
          "ticks": 55680,
          "time": 79.81641,
          "velocity": 0.11811023622047244
        },
        {
          "duration": 0.13761449999999797,
          "durationTicks": 96,
          "midi": 54,
          "name": "F#3",
          "ticks": 55680,
          "time": 79.81641,
          "velocity": 0.11811023622047244
        },
        {
          "duration": 0.27522899999999595,
          "durationTicks": 192,
          "midi": 57,
          "name": "A3",
          "ticks": 55680,
          "time": 79.81641,
          "velocity": 0.11811023622047244
        },
        {
          "duration": 0.27522899999999595,
          "durationTicks": 192,
          "midi": 50,
          "name": "D3",
          "ticks": 55872,
          "time": 80.091639,
          "velocity": 0.11811023622047244
        },
        {
          "duration": 0.8256870000000021,
          "durationTicks": 576,
          "midi": 69,
          "name": "A4",
          "ticks": 55872,
          "time": 80.091639,
          "velocity": 0.11811023622047244
        },
        {
          "duration": 0.13761449999999797,
          "durationTicks": 96,
          "midi": 54,
          "name": "F#3",
          "ticks": 56064,
          "time": 80.366868,
          "velocity": 0.11811023622047244
        },
        {
          "duration": 0.13761449999999797,
          "durationTicks": 96,
          "midi": 57,
          "name": "A3",
          "ticks": 56064,
          "time": 80.366868,
          "velocity": 0.11811023622047244
        },
        {
          "duration": 0.13761449999999797,
          "durationTicks": 96,
          "midi": 54,
          "name": "F#3",
          "ticks": 56256,
          "time": 80.642097,
          "velocity": 0.11811023622047244
        },
        {
          "duration": 0.13761449999999797,
          "durationTicks": 96,
          "midi": 57,
          "name": "A3",
          "ticks": 56256,
          "time": 80.642097,
          "velocity": 0.11811023622047244
        },
        {
          "duration": 1.6513740000000041,
          "durationTicks": 1152,
          "midi": 64,
          "name": "E4",
          "ticks": 56448,
          "time": 80.917326,
          "velocity": 0.11811023622047244
        },
        {
          "duration": 0.27522899999999595,
          "durationTicks": 192,
          "midi": 49,
          "name": "C#3",
          "ticks": 56448,
          "time": 80.917326,
          "velocity": 0.11811023622047244
        },
        {
          "duration": 0.13761449999999797,
          "durationTicks": 96,
          "midi": 52,
          "name": "E3",
          "ticks": 56640,
          "time": 81.192555,
          "velocity": 0.11811023622047244
        },
        {
          "duration": 0.13761449999999797,
          "durationTicks": 96,
          "midi": 57,
          "name": "A3",
          "ticks": 56640,
          "time": 81.192555,
          "velocity": 0.11811023622047244
        },
        {
          "duration": 0.13761450000001219,
          "durationTicks": 96,
          "midi": 57,
          "name": "A3",
          "ticks": 56832,
          "time": 81.467784,
          "velocity": 0.11811023622047244
        },
        {
          "duration": 0.13761450000001219,
          "durationTicks": 96,
          "midi": 52,
          "name": "E3",
          "ticks": 56832,
          "time": 81.467784,
          "velocity": 0.11811023622047244
        },
        {
          "duration": 0.27522899999999595,
          "durationTicks": 192,
          "midi": 49,
          "name": "C#3",
          "ticks": 57024,
          "time": 81.743013,
          "velocity": 0.11811023622047244
        },
        {
          "duration": 0.13761449999999797,
          "durationTicks": 96,
          "midi": 52,
          "name": "E3",
          "ticks": 57216,
          "time": 82.018242,
          "velocity": 0.11811023622047244
        },
        {
          "duration": 0.13761449999999797,
          "durationTicks": 96,
          "midi": 57,
          "name": "A3",
          "ticks": 57216,
          "time": 82.018242,
          "velocity": 0.11811023622047244
        },
        {
          "duration": 0.13761449999999797,
          "durationTicks": 96,
          "midi": 57,
          "name": "A3",
          "ticks": 57408,
          "time": 82.293471,
          "velocity": 0.11811023622047244
        },
        {
          "duration": 0.13761449999999797,
          "durationTicks": 96,
          "midi": 52,
          "name": "E3",
          "ticks": 57408,
          "time": 82.293471,
          "velocity": 0.11811023622047244
        },
        {
          "duration": 0.8256869999999878,
          "durationTicks": 576,
          "midi": 62,
          "name": "D4",
          "ticks": 57600,
          "time": 82.5687,
          "velocity": 0.11811023622047244
        },
        {
          "duration": 0.27522899999999595,
          "durationTicks": 192,
          "midi": 47,
          "name": "B2",
          "ticks": 57600,
          "time": 82.5687,
          "velocity": 0.11811023622047244
        },
        {
          "duration": 0.13761449999999797,
          "durationTicks": 96,
          "midi": 54,
          "name": "F#3",
          "ticks": 57792,
          "time": 82.843929,
          "velocity": 0.11811023622047244
        },
        {
          "duration": 0.13761449999999797,
          "durationTicks": 96,
          "midi": 50,
          "name": "D3",
          "ticks": 57792,
          "time": 82.843929,
          "velocity": 0.11811023622047244
        },
        {
          "duration": 0.13761449999999797,
          "durationTicks": 96,
          "midi": 54,
          "name": "F#3",
          "ticks": 57984,
          "time": 83.119158,
          "velocity": 0.11811023622047244
        },
        {
          "duration": 0.13761449999999797,
          "durationTicks": 96,
          "midi": 50,
          "name": "D3",
          "ticks": 57984,
          "time": 83.119158,
          "velocity": 0.11811023622047244
        },
        {
          "duration": 0.8256870000000021,
          "durationTicks": 576,
          "midi": 69,
          "name": "A4",
          "ticks": 58176,
          "time": 83.394387,
          "velocity": 0.11811023622047244
        },
        {
          "duration": 0.27522900000001016,
          "durationTicks": 192,
          "midi": 47,
          "name": "B2",
          "ticks": 58176,
          "time": 83.394387,
          "velocity": 0.11811023622047244
        },
        {
          "duration": 0.13761449999999797,
          "durationTicks": 96,
          "midi": 50,
          "name": "D3",
          "ticks": 58368,
          "time": 83.669616,
          "velocity": 0.11811023622047244
        },
        {
          "duration": 0.13761449999999797,
          "durationTicks": 96,
          "midi": 54,
          "name": "F#3",
          "ticks": 58368,
          "time": 83.669616,
          "velocity": 0.11811023622047244
        },
        {
          "duration": 0.13761449999999797,
          "durationTicks": 96,
          "midi": 54,
          "name": "F#3",
          "ticks": 58560,
          "time": 83.944845,
          "velocity": 0.11811023622047244
        },
        {
          "duration": 0.13761449999999797,
          "durationTicks": 96,
          "midi": 50,
          "name": "D3",
          "ticks": 58560,
          "time": 83.944845,
          "velocity": 0.11811023622047244
        },
        {
          "duration": 0.27522900000001016,
          "durationTicks": 192,
          "midi": 45,
          "name": "A2",
          "ticks": 58752,
          "time": 84.220074,
          "velocity": 0.11811023622047244
        },
        {
          "duration": 1.6513740000000041,
          "durationTicks": 1152,
          "midi": 57,
          "name": "A3",
          "ticks": 58752,
          "time": 84.220074,
          "velocity": 0.11811023622047244
        },
        {
          "duration": 0.13761449999999797,
          "durationTicks": 96,
          "midi": 49,
          "name": "C#3",
          "ticks": 58944,
          "time": 84.495303,
          "velocity": 0.11811023622047244
        },
        {
          "duration": 0.13761449999999797,
          "durationTicks": 96,
          "midi": 52,
          "name": "E3",
          "ticks": 58944,
          "time": 84.495303,
          "velocity": 0.11811023622047244
        },
        {
          "duration": 0.13761449999999797,
          "durationTicks": 96,
          "midi": 49,
          "name": "C#3",
          "ticks": 59136,
          "time": 84.770532,
          "velocity": 0.11811023622047244
        },
        {
          "duration": 0.13761449999999797,
          "durationTicks": 96,
          "midi": 52,
          "name": "E3",
          "ticks": 59136,
          "time": 84.770532,
          "velocity": 0.11811023622047244
        },
        {
          "duration": 0.27522899999999595,
          "durationTicks": 192,
          "midi": 45,
          "name": "A2",
          "ticks": 59328,
          "time": 85.045761,
          "velocity": 0.11811023622047244
        },
        {
          "duration": 0.13761450000001219,
          "durationTicks": 96,
          "midi": 49,
          "name": "C#3",
          "ticks": 59520,
          "time": 85.32099,
          "velocity": 0.11811023622047244
        },
        {
          "duration": 0.13761450000001219,
          "durationTicks": 96,
          "midi": 52,
          "name": "E3",
          "ticks": 59520,
          "time": 85.32099,
          "velocity": 0.11811023622047244
        },
        {
          "duration": 0.13761449999999797,
          "durationTicks": 96,
          "midi": 52,
          "name": "E3",
          "ticks": 59712,
          "time": 85.596219,
          "velocity": 0.11811023622047244
        },
        {
          "duration": 0.13761449999999797,
          "durationTicks": 96,
          "midi": 49,
          "name": "C#3",
          "ticks": 59712,
          "time": 85.596219,
          "velocity": 0.11811023622047244
        },
        {
          "duration": 0.8256870000000021,
          "durationTicks": 576,
          "midi": 57,
          "name": "A3",
          "ticks": 59904,
          "time": 85.871448,
          "velocity": 0.11811023622047244
        },
        {
          "duration": 0.27522899999999595,
          "durationTicks": 192,
          "midi": 43,
          "name": "G2",
          "ticks": 59904,
          "time": 85.871448,
          "velocity": 0.11811023622047244
        },
        {
          "duration": 0.13761449999999797,
          "durationTicks": 96,
          "midi": 47,
          "name": "B2",
          "ticks": 60096,
          "time": 86.146677,
          "velocity": 0.11811023622047244
        },
        {
          "duration": 0.13761449999999797,
          "durationTicks": 96,
          "midi": 50,
          "name": "D3",
          "ticks": 60096,
          "time": 86.146677,
          "velocity": 0.11811023622047244
        },
        {
          "duration": 0.13761449999999797,
          "durationTicks": 96,
          "midi": 50,
          "name": "D3",
          "ticks": 60288,
          "time": 86.421906,
          "velocity": 0.11811023622047244
        },
        {
          "duration": 0.13761449999999797,
          "durationTicks": 96,
          "midi": 47,
          "name": "B2",
          "ticks": 60288,
          "time": 86.421906,
          "velocity": 0.11811023622047244
        },
        {
          "duration": 0.8256870000000021,
          "durationTicks": 576,
          "midi": 62,
          "name": "D4",
          "ticks": 60480,
          "time": 86.697135,
          "velocity": 0.11811023622047244
        },
        {
          "duration": 0.27522899999999595,
          "durationTicks": 192,
          "midi": 43,
          "name": "G2",
          "ticks": 60480,
          "time": 86.697135,
          "velocity": 0.11811023622047244
        },
        {
          "duration": 0.13761449999999797,
          "durationTicks": 96,
          "midi": 47,
          "name": "B2",
          "ticks": 60672,
          "time": 86.972364,
          "velocity": 0.11811023622047244
        },
        {
          "duration": 0.13761449999999797,
          "durationTicks": 96,
          "midi": 50,
          "name": "D3",
          "ticks": 60672,
          "time": 86.972364,
          "velocity": 0.11811023622047244
        },
        {
          "duration": 0.13761450000001219,
          "durationTicks": 96,
          "midi": 50,
          "name": "D3",
          "ticks": 60864,
          "time": 87.247593,
          "velocity": 0.11811023622047244
        },
        {
          "duration": 0.13761450000001219,
          "durationTicks": 96,
          "midi": 47,
          "name": "B2",
          "ticks": 60864,
          "time": 87.247593,
          "velocity": 0.11811023622047244
        },
        {
          "duration": 0.27522899999999595,
          "durationTicks": 192,
          "midi": 42,
          "name": "F#2",
          "ticks": 61056,
          "time": 87.522822,
          "velocity": 0.11811023622047244
        },
        {
          "duration": 1.376144999999994,
          "durationTicks": 960,
          "midi": 69,
          "name": "A4",
          "ticks": 61056,
          "time": 87.522822,
          "velocity": 0.11811023622047244
        },
        {
          "duration": 0.13761449999999797,
          "durationTicks": 96,
          "midi": 50,
          "name": "D3",
          "ticks": 61248,
          "time": 87.798051,
          "velocity": 0.11811023622047244
        },
        {
          "duration": 0.13761449999999797,
          "durationTicks": 96,
          "midi": 45,
          "name": "A2",
          "ticks": 61248,
          "time": 87.798051,
          "velocity": 0.11811023622047244
        },
        {
          "duration": 0.13761449999999797,
          "durationTicks": 96,
          "midi": 50,
          "name": "D3",
          "ticks": 61440,
          "time": 88.07328,
          "velocity": 0.11811023622047244
        },
        {
          "duration": 0.13761449999999797,
          "durationTicks": 96,
          "midi": 45,
          "name": "A2",
          "ticks": 61440,
          "time": 88.07328,
          "velocity": 0.11811023622047244
        },
        {
          "duration": 0.27522899999999595,
          "durationTicks": 192,
          "midi": 42,
          "name": "F#2",
          "ticks": 61632,
          "time": 88.348509,
          "velocity": 0.11811023622047244
        },
        {
          "duration": 0.13761449999999797,
          "durationTicks": 96,
          "midi": 45,
          "name": "A2",
          "ticks": 61824,
          "time": 88.623738,
          "velocity": 0.11811023622047244
        },
        {
          "duration": 0.13761449999999797,
          "durationTicks": 96,
          "midi": 50,
          "name": "D3",
          "ticks": 61824,
          "time": 88.623738,
          "velocity": 0.11811023622047244
        },
        {
          "duration": 0.13761449999999797,
          "durationTicks": 96,
          "midi": 50,
          "name": "D3",
          "ticks": 62016,
          "time": 88.898967,
          "velocity": 0.11811023622047244
        },
        {
          "duration": 0.27522899999999595,
          "durationTicks": 192,
          "midi": 71,
          "name": "B4",
          "ticks": 62016,
          "time": 88.898967,
          "velocity": 0.11811023622047244
        },
        {
          "duration": 0.13761449999999797,
          "durationTicks": 96,
          "midi": 45,
          "name": "A2",
          "ticks": 62016,
          "time": 88.898967,
          "velocity": 0.11811023622047244
        },
        {
          "duration": 0.27522900000001016,
          "durationTicks": 192,
          "midi": 40,
          "name": "E2",
          "ticks": 62208,
          "time": 89.174196,
          "velocity": 0.11811023622047244
        },
        {
          "duration": 0.8256870000000021,
          "durationTicks": 576,
          "midi": 69,
          "name": "A4",
          "ticks": 62208,
          "time": 89.174196,
          "velocity": 0.11811023622047244
        },
        {
          "duration": 0.13761449999999797,
          "durationTicks": 96,
          "midi": 47,
          "name": "B2",
          "ticks": 62400,
          "time": 89.449425,
          "velocity": 0.11811023622047244
        },
        {
          "duration": 0.13761449999999797,
          "durationTicks": 96,
          "midi": 43,
          "name": "G2",
          "ticks": 62400,
          "time": 89.449425,
          "velocity": 0.11811023622047244
        },
        {
          "duration": 0.13761449999999797,
          "durationTicks": 96,
          "midi": 43,
          "name": "G2",
          "ticks": 62592,
          "time": 89.724654,
          "velocity": 0.11811023622047244
        },
        {
          "duration": 0.13761449999999797,
          "durationTicks": 96,
          "midi": 47,
          "name": "B2",
          "ticks": 62592,
          "time": 89.724654,
          "velocity": 0.11811023622047244
        },
        {
          "duration": 0.27522900000001016,
          "durationTicks": 192,
          "midi": 40,
          "name": "E2",
          "ticks": 62784,
          "time": 89.999883,
          "velocity": 0.11811023622047244
        },
        {
          "duration": 0.8256870000000021,
          "durationTicks": 576,
          "midi": 64,
          "name": "E4",
          "ticks": 62784,
          "time": 89.999883,
          "velocity": 0.11811023622047244
        },
        {
          "duration": 0.13761449999999797,
          "durationTicks": 96,
          "midi": 47,
          "name": "B2",
          "ticks": 62976,
          "time": 90.27511200000001,
          "velocity": 0.11811023622047244
        },
        {
          "duration": 0.13761449999999797,
          "durationTicks": 96,
          "midi": 43,
          "name": "G2",
          "ticks": 62976,
          "time": 90.27511200000001,
          "velocity": 0.11811023622047244
        },
        {
          "duration": 0.13761449999999797,
          "durationTicks": 96,
          "midi": 43,
          "name": "G2",
          "ticks": 63168,
          "time": 90.550341,
          "velocity": 0.11811023622047244
        },
        {
          "duration": 0.13761449999999797,
          "durationTicks": 96,
          "midi": 47,
          "name": "B2",
          "ticks": 63168,
          "time": 90.550341,
          "velocity": 0.11811023622047244
        },
        {
          "duration": 1.6513740000000041,
          "durationTicks": 1152,
          "midi": 62,
          "name": "D4",
          "ticks": 63360,
          "time": 90.82557,
          "velocity": 0.11811023622047244
        },
        {
          "duration": 0.27522899999999595,
          "durationTicks": 192,
          "midi": 45,
          "name": "A2",
          "ticks": 63360,
          "time": 90.82557,
          "velocity": 0.11811023622047244
        },
        {
          "duration": 0.13761450000001219,
          "durationTicks": 96,
          "midi": 52,
          "name": "E3",
          "ticks": 63552,
          "time": 91.100799,
          "velocity": 0.11811023622047244
        },
        {
          "duration": 0.13761450000001219,
          "durationTicks": 96,
          "midi": 49,
          "name": "C#3",
          "ticks": 63552,
          "time": 91.100799,
          "velocity": 0.11811023622047244
        },
        {
          "duration": 0.13761449999999797,
          "durationTicks": 96,
          "midi": 49,
          "name": "C#3",
          "ticks": 63744,
          "time": 91.376028,
          "velocity": 0.11811023622047244
        },
        {
          "duration": 0.13761449999999797,
          "durationTicks": 96,
          "midi": 52,
          "name": "E3",
          "ticks": 63744,
          "time": 91.376028,
          "velocity": 0.11811023622047244
        },
        {
          "duration": 0.27522899999999595,
          "durationTicks": 192,
          "midi": 45,
          "name": "A2",
          "ticks": 63936,
          "time": 91.651257,
          "velocity": 0.11811023622047244
        },
        {
          "duration": 0.13761449999999797,
          "durationTicks": 96,
          "midi": 49,
          "name": "C#3",
          "ticks": 64128,
          "time": 91.926486,
          "velocity": 0.11811023622047244
        },
        {
          "duration": 0.13761449999999797,
          "durationTicks": 96,
          "midi": 52,
          "name": "E3",
          "ticks": 64128,
          "time": 91.926486,
          "velocity": 0.11811023622047244
        },
        {
          "duration": 0.13761449999999797,
          "durationTicks": 96,
          "midi": 52,
          "name": "E3",
          "ticks": 64320,
          "time": 92.20171500000001,
          "velocity": 0.11811023622047244
        },
        {
          "duration": 0.13761449999999797,
          "durationTicks": 96,
          "midi": 49,
          "name": "C#3",
          "ticks": 64320,
          "time": 92.20171500000001,
          "velocity": 0.11811023622047244
        },
        {
          "duration": 0.27522899999999595,
          "durationTicks": 192,
          "midi": 50,
          "name": "D3",
          "ticks": 64512,
          "time": 92.476944,
          "velocity": 0.11811023622047244
        },
        {
          "duration": 0.13761449999999797,
          "durationTicks": 96,
          "midi": 57,
          "name": "A3",
          "ticks": 64704,
          "time": 92.752173,
          "velocity": 0.11811023622047244
        },
        {
          "duration": 0.13761449999999797,
          "durationTicks": 96,
          "midi": 54,
          "name": "F#3",
          "ticks": 64704,
          "time": 92.752173,
          "velocity": 0.11811023622047244
        },
        {
          "duration": 0.13761450000001219,
          "durationTicks": 96,
          "midi": 57,
          "name": "A3",
          "ticks": 64896,
          "time": 93.027402,
          "velocity": 0.11811023622047244
        },
        {
          "duration": 0.27522900000001016,
          "durationTicks": 192,
          "midi": 57,
          "name": "A3",
          "ticks": 64896,
          "time": 93.027402,
          "velocity": 0.11811023622047244
        },
        {
          "duration": 0.13761450000001219,
          "durationTicks": 96,
          "midi": 54,
          "name": "F#3",
          "ticks": 64896,
          "time": 93.027402,
          "velocity": 0.11811023622047244
        },
        {
          "duration": 0.27522900000001016,
          "durationTicks": 192,
          "midi": 57,
          "name": "A3",
          "ticks": 64896,
          "time": 93.027402,
          "velocity": 0.11811023622047244
        },
        {
          "duration": 0.8256870000000021,
          "durationTicks": 576,
          "midi": 69,
          "name": "A4",
          "ticks": 65088,
          "time": 93.302631,
          "velocity": 0.11811023622047244
        },
        {
          "duration": 0.8256870000000021,
          "durationTicks": 576,
          "midi": 69,
          "name": "A4",
          "ticks": 65088,
          "time": 93.302631,
          "velocity": 0.11811023622047244
        },
        {
          "duration": 0.27522899999999595,
          "durationTicks": 192,
          "midi": 50,
          "name": "D3",
          "ticks": 65088,
          "time": 93.302631,
          "velocity": 0.11811023622047244
        },
        {
          "duration": 0.13761449999999797,
          "durationTicks": 96,
          "midi": 54,
          "name": "F#3",
          "ticks": 65280,
          "time": 93.57786,
          "velocity": 0.11811023622047244
        },
        {
          "duration": 0.13761449999999797,
          "durationTicks": 96,
          "midi": 57,
          "name": "A3",
          "ticks": 65280,
          "time": 93.57786,
          "velocity": 0.11811023622047244
        },
        {
          "duration": 0.13761449999999797,
          "durationTicks": 96,
          "midi": 54,
          "name": "F#3",
          "ticks": 65472,
          "time": 93.853089,
          "velocity": 0.11811023622047244
        },
        {
          "duration": 0.13761449999999797,
          "durationTicks": 96,
          "midi": 57,
          "name": "A3",
          "ticks": 65472,
          "time": 93.853089,
          "velocity": 0.11811023622047244
        },
        {
          "duration": 0.27522899999999595,
          "durationTicks": 192,
          "midi": 64,
          "name": "E4",
          "ticks": 65664,
          "time": 94.12831800000001,
          "velocity": 0.11811023622047244
        },
        {
          "duration": 0.27522899999999595,
          "durationTicks": 192,
          "midi": 49,
          "name": "C#3",
          "ticks": 65664,
          "time": 94.12831800000001,
          "velocity": 0.11811023622047244
        },
        {
          "duration": 0.13761449999999797,
          "durationTicks": 96,
          "midi": 57,
          "name": "A3",
          "ticks": 65856,
          "time": 94.403547,
          "velocity": 0.11811023622047244
        },
        {
          "duration": 0.13761449999999797,
          "durationTicks": 96,
          "midi": 52,
          "name": "E3",
          "ticks": 65856,
          "time": 94.403547,
          "velocity": 0.11811023622047244
        },
        {
          "duration": 0.13761449999999797,
          "durationTicks": 96,
          "midi": 62,
          "name": "D4",
          "ticks": 65856,
          "time": 94.403547,
          "velocity": 0.11811023622047244
        },
        {
          "duration": 0.13761449999999797,
          "durationTicks": 96,
          "midi": 52,
          "name": "E3",
          "ticks": 66048,
          "time": 94.678776,
          "velocity": 0.11811023622047244
        },
        {
          "duration": 0.13761449999999797,
          "durationTicks": 96,
          "midi": 57,
          "name": "A3",
          "ticks": 66048,
          "time": 94.678776,
          "velocity": 0.11811023622047244
        },
        {
          "duration": 0.13761449999999797,
          "durationTicks": 96,
          "midi": 64,
          "name": "E4",
          "ticks": 66048,
          "time": 94.678776,
          "velocity": 0.11811023622047244
        },
        {
          "duration": 0.41284350000000813,
          "durationTicks": 288,
          "midi": 64,
          "name": "E4",
          "ticks": 66048,
          "time": 94.678776,
          "velocity": 0.11811023622047244
        },
        {
          "duration": 0.13761450000001219,
          "durationTicks": 96,
          "midi": 66,
          "name": "F#4",
          "ticks": 66240,
          "time": 94.954005,
          "velocity": 0.11811023622047244
        },
        {
          "duration": 0.27522900000001016,
          "durationTicks": 192,
          "midi": 49,
          "name": "C#3",
          "ticks": 66240,
          "time": 94.954005,
          "velocity": 0.11811023622047244
        },
        {
          "duration": 0.13761449999999797,
          "durationTicks": 96,
          "midi": 62,
          "name": "D4",
          "ticks": 66368,
          "time": 95.13749100000001,
          "velocity": 0.11811023622047244
        },
        {
          "duration": 0.13761449999999797,
          "durationTicks": 96,
          "midi": 52,
          "name": "E3",
          "ticks": 66432,
          "time": 95.229234,
          "velocity": 0.11811023622047244
        },
        {
          "duration": 0.13761449999999797,
          "durationTicks": 96,
          "midi": 57,
          "name": "A3",
          "ticks": 66432,
          "time": 95.229234,
          "velocity": 0.11811023622047244
        },
        {
          "duration": 0.13761449999999797,
          "durationTicks": 96,
          "midi": 52,
          "name": "E3",
          "ticks": 66624,
          "time": 95.504463,
          "velocity": 0.11811023622047244
        },
        {
          "duration": 0.13761449999999797,
          "durationTicks": 96,
          "midi": 57,
          "name": "A3",
          "ticks": 66624,
          "time": 95.504463,
          "velocity": 0.11811023622047244
        },
        {
          "duration": 0.13761449999999797,
          "durationTicks": 96,
          "midi": 64,
          "name": "E4",
          "ticks": 66624,
          "time": 95.504463,
          "velocity": 0.11811023622047244
        },
        {
          "duration": 0.27522899999999595,
          "durationTicks": 192,
          "midi": 64,
          "name": "E4",
          "ticks": 66624,
          "time": 95.504463,
          "velocity": 0.11811023622047244
        },
        {
          "duration": 0.8256870000000021,
          "durationTicks": 576,
          "midi": 62,
          "name": "D4",
          "ticks": 66816,
          "time": 95.779692,
          "velocity": 0.11811023622047244
        },
        {
          "duration": 0.8256870000000021,
          "durationTicks": 576,
          "midi": 62,
          "name": "D4",
          "ticks": 66816,
          "time": 95.779692,
          "velocity": 0.11811023622047244
        },
        {
          "duration": 0.27522900000001016,
          "durationTicks": 192,
          "midi": 47,
          "name": "B2",
          "ticks": 66816,
          "time": 95.779692,
          "velocity": 0.11811023622047244
        },
        {
          "duration": 0.13761449999999797,
          "durationTicks": 96,
          "midi": 50,
          "name": "D3",
          "ticks": 67008,
          "time": 96.05492100000001,
          "velocity": 0.11811023622047244
        },
        {
          "duration": 0.13761449999999797,
          "durationTicks": 96,
          "midi": 54,
          "name": "F#3",
          "ticks": 67008,
          "time": 96.05492100000001,
          "velocity": 0.11811023622047244
        },
        {
          "duration": 0.13761449999999797,
          "durationTicks": 96,
          "midi": 54,
          "name": "F#3",
          "ticks": 67200,
          "time": 96.33015,
          "velocity": 0.11811023622047244
        },
        {
          "duration": 0.13761449999999797,
          "durationTicks": 96,
          "midi": 50,
          "name": "D3",
          "ticks": 67200,
          "time": 96.33015,
          "velocity": 0.11811023622047244
        },
        {
          "duration": 0.27522899999999595,
          "durationTicks": 192,
          "midi": 47,
          "name": "B2",
          "ticks": 67392,
          "time": 96.605379,
          "velocity": 0.11811023622047244
        },
        {
          "duration": 0.8256870000000021,
          "durationTicks": 576,
          "midi": 69,
          "name": "A4",
          "ticks": 67392,
          "time": 96.605379,
          "velocity": 0.11811023622047244
        },
        {
          "duration": 0.8256870000000021,
          "durationTicks": 576,
          "midi": 69,
          "name": "A4",
          "ticks": 67392,
          "time": 96.605379,
          "velocity": 0.11811023622047244
        },
        {
          "duration": 0.13761450000001219,
          "durationTicks": 96,
          "midi": 54,
          "name": "F#3",
          "ticks": 67584,
          "time": 96.880608,
          "velocity": 0.11811023622047244
        },
        {
          "duration": 0.13761450000001219,
          "durationTicks": 96,
          "midi": 50,
          "name": "D3",
          "ticks": 67584,
          "time": 96.880608,
          "velocity": 0.11811023622047244
        },
        {
          "duration": 0.13761449999999797,
          "durationTicks": 96,
          "midi": 54,
          "name": "F#3",
          "ticks": 67776,
          "time": 97.155837,
          "velocity": 0.11811023622047244
        },
        {
          "duration": 0.13761449999999797,
          "durationTicks": 96,
          "midi": 50,
          "name": "D3",
          "ticks": 67776,
          "time": 97.155837,
          "velocity": 0.11811023622047244
        },
        {
          "duration": 0.27522899999999595,
          "durationTicks": 192,
          "midi": 57,
          "name": "A3",
          "ticks": 67968,
          "time": 97.431066,
          "velocity": 0.11811023622047244
        },
        {
          "duration": 0.27522899999999595,
          "durationTicks": 192,
          "midi": 45,
          "name": "A2",
          "ticks": 67968,
          "time": 97.431066,
          "velocity": 0.11811023622047244
        },
        {
          "duration": 1.6513740000000041,
          "durationTicks": 1152,
          "midi": 57,
          "name": "A3",
          "ticks": 67968,
          "time": 97.431066,
          "velocity": 0.11811023622047244
        },
        {
          "duration": 0.13761449999999797,
          "durationTicks": 96,
          "midi": 52,
          "name": "E3",
          "ticks": 68160,
          "time": 97.706295,
          "velocity": 0.11811023622047244
        },
        {
          "duration": 0.13761449999999797,
          "durationTicks": 96,
          "midi": 62,
          "name": "D4",
          "ticks": 68160,
          "time": 97.706295,
          "velocity": 0.11811023622047244
        },
        {
          "duration": 0.6880725000000041,
          "durationTicks": 480,
          "midi": 62,
          "name": "D4",
          "ticks": 68160,
          "time": 97.706295,
          "velocity": 0.11811023622047244
        },
        {
          "duration": 0.13761449999999797,
          "durationTicks": 96,
          "midi": 49,
          "name": "C#3",
          "ticks": 68160,
          "time": 97.706295,
          "velocity": 0.11811023622047244
        },
        {
          "duration": 0.13761449999999797,
          "durationTicks": 96,
          "midi": 49,
          "name": "C#3",
          "ticks": 68352,
          "time": 97.98152400000001,
          "velocity": 0.11811023622047244
        },
        {
          "duration": 0.27522899999999595,
          "durationTicks": 192,
          "midi": 64,
          "name": "E4",
          "ticks": 68352,
          "time": 97.98152400000001,
          "velocity": 0.11811023622047244
        },
        {
          "duration": 0.13761449999999797,
          "durationTicks": 96,
          "midi": 52,
          "name": "E3",
          "ticks": 68352,
          "time": 97.98152400000001,
          "velocity": 0.11811023622047244
        },
        {
          "duration": 0.4128434999999939,
          "durationTicks": 288,
          "midi": 64,
          "name": "E4",
          "ticks": 68352,
          "time": 97.98152400000001,
          "velocity": 0.11811023622047244
        },
        {
          "duration": 0.13761449999999797,
          "durationTicks": 96,
          "midi": 66,
          "name": "F#4",
          "ticks": 68544,
          "time": 98.256753,
          "velocity": 0.11811023622047244
        },
        {
          "duration": 0.27522899999999595,
          "durationTicks": 192,
          "midi": 45,
          "name": "A2",
          "ticks": 68544,
          "time": 98.256753,
          "velocity": 0.11811023622047244
        },
        {
          "duration": 0.13761449999999797,
          "durationTicks": 96,
          "midi": 64,
          "name": "E4",
          "ticks": 68640,
          "time": 98.3943675,
          "velocity": 0.11811023622047244
        },
        {
          "duration": 0.13761449999999797,
          "durationTicks": 96,
          "midi": 52,
          "name": "E3",
          "ticks": 68737,
          "time": 98.533415484375,
          "velocity": 0.11811023622047244
        },
        {
          "duration": 0.13761449999999797,
          "durationTicks": 96,
          "midi": 49,
          "name": "C#3",
          "ticks": 68737,
          "time": 98.533415484375,
          "velocity": 0.11811023622047244
        },
        {
          "duration": 0.13761449999999797,
          "durationTicks": 96,
          "midi": 62,
          "name": "D4",
          "ticks": 68737,
          "time": 98.533415484375,
          "velocity": 0.11811023622047244
        },
        {
          "duration": 0.13761449999999797,
          "durationTicks": 96,
          "midi": 52,
          "name": "E3",
          "ticks": 68929,
          "time": 98.808644484375,
          "velocity": 0.11811023622047244
        },
        {
          "duration": 0.13761449999999797,
          "durationTicks": 96,
          "midi": 49,
          "name": "C#3",
          "ticks": 68929,
          "time": 98.808644484375,
          "velocity": 0.11811023622047244
        },
        {
          "duration": 0.13761449999999797,
          "durationTicks": 96,
          "midi": 69,
          "name": "A4",
          "ticks": 68929,
          "time": 98.808644484375,
          "velocity": 0.11811023622047244
        },
        {
          "duration": 0.27522900000001016,
          "durationTicks": 192,
          "midi": 43,
          "name": "G2",
          "ticks": 69121,
          "time": 99.08387348437499,
          "velocity": 0.11811023622047244
        },
        {
          "duration": 0.8256870000000021,
          "durationTicks": 576,
          "midi": 57,
          "name": "A3",
          "ticks": 69121,
          "time": 99.08387348437499,
          "velocity": 0.11811023622047244
        },
        {
          "duration": 0.8256870000000021,
          "durationTicks": 576,
          "midi": 66,
          "name": "F#4",
          "ticks": 69121,
          "time": 99.08387348437499,
          "velocity": 0.11811023622047244
        },
        {
          "duration": 0.13761449999999797,
          "durationTicks": 96,
          "midi": 50,
          "name": "D3",
          "ticks": 69313,
          "time": 99.359102484375,
          "velocity": 0.11811023622047244
        },
        {
          "duration": 0.13761449999999797,
          "durationTicks": 96,
          "midi": 47,
          "name": "B2",
          "ticks": 69313,
          "time": 99.359102484375,
          "velocity": 0.11811023622047244
        },
        {
          "duration": 0.13761449999999797,
          "durationTicks": 96,
          "midi": 47,
          "name": "B2",
          "ticks": 69505,
          "time": 99.634331484375,
          "velocity": 0.11811023622047244
        },
        {
          "duration": 0.13761449999999797,
          "durationTicks": 96,
          "midi": 50,
          "name": "D3",
          "ticks": 69505,
          "time": 99.634331484375,
          "velocity": 0.11811023622047244
        },
        {
          "duration": 0.27522899999999595,
          "durationTicks": 192,
          "midi": 43,
          "name": "G2",
          "ticks": 69697,
          "time": 99.90956048437499,
          "velocity": 0.11811023622047244
        },
        {
          "duration": 0.5504580000000061,
          "durationTicks": 384,
          "midi": 67,
          "name": "G4",
          "ticks": 69697,
          "time": 99.90956048437499,
          "velocity": 0.11811023622047244
        },
        {
          "duration": 0.8256870000000021,
          "durationTicks": 576,
          "midi": 62,
          "name": "D4",
          "ticks": 69697,
          "time": 99.90956048437499,
          "velocity": 0.11811023622047244
        },
        {
          "duration": 0.13761450000001219,
          "durationTicks": 96,
          "midi": 50,
          "name": "D3",
          "ticks": 69889,
          "time": 100.18478948437499,
          "velocity": 0.11811023622047244
        },
        {
          "duration": 0.13761450000001219,
          "durationTicks": 96,
          "midi": 47,
          "name": "B2",
          "ticks": 69889,
          "time": 100.18478948437499,
          "velocity": 0.11811023622047244
        },
        {
          "duration": 0.13761449999999797,
          "durationTicks": 96,
          "midi": 50,
          "name": "D3",
          "ticks": 70081,
          "time": 100.460018484375,
          "velocity": 0.11811023622047244
        },
        {
          "duration": 0.13761449999999797,
          "durationTicks": 96,
          "midi": 47,
          "name": "B2",
          "ticks": 70081,
          "time": 100.460018484375,
          "velocity": 0.11811023622047244
        },
        {
          "duration": 0.27522899999999595,
          "durationTicks": 192,
          "midi": 66,
          "name": "F#4",
          "ticks": 70081,
          "time": 100.460018484375,
          "velocity": 0.11811023622047244
        },
        {
          "duration": 0.27522899999999595,
          "durationTicks": 192,
          "midi": 42,
          "name": "F#2",
          "ticks": 70273,
          "time": 100.735247484375,
          "velocity": 0.11811023622047244
        },
        {
          "duration": 0.8256870000000021,
          "durationTicks": 576,
          "midi": 64,
          "name": "E4",
          "ticks": 70273,
          "time": 100.735247484375,
          "velocity": 0.11811023622047244
        },
        {
          "duration": 1.376144999999994,
          "durationTicks": 960,
          "midi": 69,
          "name": "A4",
          "ticks": 70273,
          "time": 100.735247484375,
          "velocity": 0.11811023622047244
        },
        {
          "duration": 0.13761449999999797,
          "durationTicks": 96,
          "midi": 50,
          "name": "D3",
          "ticks": 70465,
          "time": 101.01047648437499,
          "velocity": 0.11811023622047244
        },
        {
          "duration": 0.13761449999999797,
          "durationTicks": 96,
          "midi": 45,
          "name": "A2",
          "ticks": 70465,
          "time": 101.01047648437499,
          "velocity": 0.11811023622047244
        },
        {
          "duration": 0.13761449999999797,
          "durationTicks": 96,
          "midi": 50,
          "name": "D3",
          "ticks": 70657,
          "time": 101.285705484375,
          "velocity": 0.11811023622047244
        },
        {
          "duration": 0.13761449999999797,
          "durationTicks": 96,
          "midi": 45,
          "name": "A2",
          "ticks": 70657,
          "time": 101.285705484375,
          "velocity": 0.11811023622047244
        },
        {
          "duration": 0.27522899999999595,
          "durationTicks": 192,
          "midi": 42,
          "name": "F#2",
          "ticks": 70849,
          "time": 101.560934484375,
          "velocity": 0.11811023622047244
        },
        {
          "duration": 0.5504579999999919,
          "durationTicks": 384,
          "midi": 62,
          "name": "D4",
          "ticks": 70849,
          "time": 101.560934484375,
          "velocity": 0.11811023622047244
        },
        {
          "duration": 0.13761449999999797,
          "durationTicks": 96,
          "midi": 50,
          "name": "D3",
          "ticks": 71041,
          "time": 101.83616348437499,
          "velocity": 0.11811023622047244
        },
        {
          "duration": 0.13761449999999797,
          "durationTicks": 96,
          "midi": 45,
          "name": "A2",
          "ticks": 71041,
          "time": 101.83616348437499,
          "velocity": 0.11811023622047244
        },
        {
          "duration": 0.13761450000001219,
          "durationTicks": 96,
          "midi": 50,
          "name": "D3",
          "ticks": 71233,
          "time": 102.11139248437499,
          "velocity": 0.11811023622047244
        },
        {
          "duration": 0.27522900000001016,
          "durationTicks": 192,
          "midi": 64,
          "name": "E4",
          "ticks": 71233,
          "time": 102.11139248437499,
          "velocity": 0.11811023622047244
        },
        {
          "duration": 0.27522900000001016,
          "durationTicks": 192,
          "midi": 71,
          "name": "B4",
          "ticks": 71233,
          "time": 102.11139248437499,
          "velocity": 0.11811023622047244
        },
        {
          "duration": 0.13761450000001219,
          "durationTicks": 96,
          "midi": 45,
          "name": "A2",
          "ticks": 71233,
          "time": 102.11139248437499,
          "velocity": 0.11811023622047244
        },
        {
          "duration": 0.8256870000000021,
          "durationTicks": 576,
          "midi": 66,
          "name": "F#4",
          "ticks": 71425,
          "time": 102.386621484375,
          "velocity": 0.11811023622047244
        },
        {
          "duration": 0.27522899999999595,
          "durationTicks": 192,
          "midi": 40,
          "name": "E2",
          "ticks": 71425,
          "time": 102.386621484375,
          "velocity": 0.11811023622047244
        },
        {
          "duration": 0.8256870000000021,
          "durationTicks": 576,
          "midi": 69,
          "name": "A4",
          "ticks": 71425,
          "time": 102.386621484375,
          "velocity": 0.11811023622047244
        },
        {
          "duration": 0.13761449999999797,
          "durationTicks": 96,
          "midi": 43,
          "name": "G2",
          "ticks": 71617,
          "time": 102.661850484375,
          "velocity": 0.11811023622047244
        },
        {
          "duration": 0.13761449999999797,
          "durationTicks": 96,
          "midi": 47,
          "name": "B2",
          "ticks": 71617,
          "time": 102.661850484375,
          "velocity": 0.11811023622047244
        },
        {
          "duration": 0.13761449999999797,
          "durationTicks": 96,
          "midi": 47,
          "name": "B2",
          "ticks": 71809,
          "time": 102.93707948437499,
          "velocity": 0.11811023622047244
        },
        {
          "duration": 0.13761449999999797,
          "durationTicks": 96,
          "midi": 43,
          "name": "G2",
          "ticks": 71809,
          "time": 102.93707948437499,
          "velocity": 0.11811023622047244
        },
        {
          "duration": 0.27522899999999595,
          "durationTicks": 192,
          "midi": 40,
          "name": "E2",
          "ticks": 72001,
          "time": 103.212308484375,
          "velocity": 0.11811023622047244
        },
        {
          "duration": 0.5504579999999919,
          "durationTicks": 384,
          "midi": 67,
          "name": "G4",
          "ticks": 72001,
          "time": 103.212308484375,
          "velocity": 0.11811023622047244
        },
        {
          "duration": 0.8256869999999878,
          "durationTicks": 576,
          "midi": 64,
          "name": "E4",
          "ticks": 72001,
          "time": 103.212308484375,
          "velocity": 0.11811023622047244
        },
        {
          "duration": 0.13761449999999797,
          "durationTicks": 96,
          "midi": 43,
          "name": "G2",
          "ticks": 72193,
          "time": 103.487537484375,
          "velocity": 0.11811023622047244
        },
        {
          "duration": 0.13761449999999797,
          "durationTicks": 96,
          "midi": 47,
          "name": "B2",
          "ticks": 72193,
          "time": 103.487537484375,
          "velocity": 0.11811023622047244
        },
        {
          "duration": 0.13761449999999797,
          "durationTicks": 96,
          "midi": 47,
          "name": "B2",
          "ticks": 72385,
          "time": 103.76276648437499,
          "velocity": 0.11811023622047244
        },
        {
          "duration": 0.13761449999999797,
          "durationTicks": 96,
          "midi": 43,
          "name": "G2",
          "ticks": 72385,
          "time": 103.76276648437499,
          "velocity": 0.11811023622047244
        },
        {
          "duration": 0.27522899999999595,
          "durationTicks": 192,
          "midi": 71,
          "name": "B4",
          "ticks": 72385,
          "time": 103.76276648437499,
          "velocity": 0.11811023622047244
        },
        {
          "duration": 1.6513740000000041,
          "durationTicks": 1152,
          "midi": 69,
          "name": "A4",
          "ticks": 72577,
          "time": 104.03799548437499,
          "velocity": 0.11811023622047244
        },
        {
          "duration": 0.27522900000001016,
          "durationTicks": 192,
          "midi": 45,
          "name": "A2",
          "ticks": 72577,
          "time": 104.03799548437499,
          "velocity": 0.11811023622047244
        },
        {
          "duration": 1.6513740000000041,
          "durationTicks": 1152,
          "midi": 62,
          "name": "D4",
          "ticks": 72577,
          "time": 104.03799548437499,
          "velocity": 0.11811023622047244
        },
        {
          "duration": 0.13761449999999797,
          "durationTicks": 96,
          "midi": 52,
          "name": "E3",
          "ticks": 72769,
          "time": 104.313224484375,
          "velocity": 0.11811023622047244
        },
        {
          "duration": 0.13761449999999797,
          "durationTicks": 96,
          "midi": 49,
          "name": "C#3",
          "ticks": 72769,
          "time": 104.313224484375,
          "velocity": 0.11811023622047244
        },
        {
          "duration": 0.13761449999999797,
          "durationTicks": 96,
          "midi": 49,
          "name": "C#3",
          "ticks": 72961,
          "time": 104.588453484375,
          "velocity": 0.11811023622047244
        },
        {
          "duration": 0.13761449999999797,
          "durationTicks": 96,
          "midi": 52,
          "name": "E3",
          "ticks": 72961,
          "time": 104.588453484375,
          "velocity": 0.11811023622047244
        },
        {
          "duration": 0.27522900000001016,
          "durationTicks": 192,
          "midi": 45,
          "name": "A2",
          "ticks": 73153,
          "time": 104.86368248437499,
          "velocity": 0.11811023622047244
        },
        {
          "duration": 0.13761449999999797,
          "durationTicks": 96,
          "midi": 52,
          "name": "E3",
          "ticks": 73345,
          "time": 105.138911484375,
          "velocity": 0.11811023622047244
        },
        {
          "duration": 0.13761449999999797,
          "durationTicks": 96,
          "midi": 49,
          "name": "C#3",
          "ticks": 73345,
          "time": 105.138911484375,
          "velocity": 0.11811023622047244
        },
        {
          "duration": 0.13761449999999797,
          "durationTicks": 96,
          "midi": 52,
          "name": "E3",
          "ticks": 73537,
          "time": 105.414140484375,
          "velocity": 0.11811023622047244
        },
        {
          "duration": 0.13761449999999797,
          "durationTicks": 96,
          "midi": 49,
          "name": "C#3",
          "ticks": 73537,
          "time": 105.414140484375,
          "velocity": 0.11811023622047244
        },
        {
          "duration": 0.27522899999999595,
          "durationTicks": 192,
          "midi": 43,
          "name": "G2",
          "ticks": 73729,
          "time": 105.68936948437499,
          "velocity": 0.11811023622047244
        },
        {
          "duration": 0.13761449999999797,
          "durationTicks": 96,
          "midi": 54,
          "name": "F#3",
          "ticks": 73729,
          "time": 105.68936948437499,
          "velocity": 0.11811023622047244
        },
        {
          "duration": 0.8256870000000021,
          "durationTicks": 576,
          "midi": 57,
          "name": "A3",
          "ticks": 73729,
          "time": 105.68936948437499,
          "velocity": 0.11811023622047244
        },
        {
          "duration": 0.8256870000000021,
          "durationTicks": 576,
          "midi": 57,
          "name": "A3",
          "ticks": 73729,
          "time": 105.68936948437499,
          "velocity": 0.11811023622047244
        },
        {
          "duration": 0.13761449999999797,
          "durationTicks": 96,
          "midi": 47,
          "name": "B2",
          "ticks": 73825,
          "time": 105.82698398437499,
          "velocity": 0.11811023622047244
        },
        {
          "duration": 0.13761450000001219,
          "durationTicks": 96,
          "midi": 50,
          "name": "D3",
          "ticks": 73921,
          "time": 105.96459848437499,
          "velocity": 0.11811023622047244
        },
        {
          "duration": 0.13761450000001219,
          "durationTicks": 96,
          "midi": 47,
          "name": "B2",
          "ticks": 73921,
          "time": 105.96459848437499,
          "velocity": 0.11811023622047244
        },
        {
          "duration": 0.13761450000001219,
          "durationTicks": 96,
          "midi": 54,
          "name": "F#3",
          "ticks": 73921,
          "time": 105.96459848437499,
          "velocity": 0.11811023622047244
        },
        {
          "duration": 0.13761449999999797,
          "durationTicks": 96,
          "midi": 47,
          "name": "B2",
          "ticks": 74017,
          "time": 106.102212984375,
          "velocity": 0.11811023622047244
        },
        {
          "duration": 0.13761449999999797,
          "durationTicks": 96,
          "midi": 47,
          "name": "B2",
          "ticks": 74113,
          "time": 106.239827484375,
          "velocity": 0.11811023622047244
        },
        {
          "duration": 0.13761449999999797,
          "durationTicks": 96,
          "midi": 50,
          "name": "D3",
          "ticks": 74113,
          "time": 106.239827484375,
          "velocity": 0.11811023622047244
        },
        {
          "duration": 0.13761449999999797,
          "durationTicks": 96,
          "midi": 54,
          "name": "F#3",
          "ticks": 74113,
          "time": 106.239827484375,
          "velocity": 0.11811023622047244
        },
        {
          "duration": 0.13761449999999797,
          "durationTicks": 96,
          "midi": 47,
          "name": "B2",
          "ticks": 74209,
          "time": 106.377441984375,
          "velocity": 0.11811023622047244
        },
        {
          "duration": 0.13761449999999797,
          "durationTicks": 96,
          "midi": 54,
          "name": "F#3",
          "ticks": 74305,
          "time": 106.515056484375,
          "velocity": 0.11811023622047244
        },
        {
          "duration": 0.5504580000000061,
          "durationTicks": 384,
          "midi": 69,
          "name": "A4",
          "ticks": 74305,
          "time": 106.515056484375,
          "velocity": 0.11811023622047244
        },
        {
          "duration": 0.5504580000000061,
          "durationTicks": 384,
          "midi": 69,
          "name": "A4",
          "ticks": 74305,
          "time": 106.515056484375,
          "velocity": 0.11811023622047244
        },
        {
          "duration": 0.27522899999999595,
          "durationTicks": 192,
          "midi": 43,
          "name": "G2",
          "ticks": 74305,
          "time": 106.515056484375,
          "velocity": 0.11811023622047244
        },
        {
          "duration": 0.13761449999999797,
          "durationTicks": 96,
          "midi": 47,
          "name": "B2",
          "ticks": 74401,
          "time": 106.65267098437499,
          "velocity": 0.11811023622047244
        },
        {
          "duration": 0.13761449999999797,
          "durationTicks": 96,
          "midi": 50,
          "name": "D3",
          "ticks": 74497,
          "time": 106.79028548437499,
          "velocity": 0.11811023622047244
        },
        {
          "duration": 0.13761449999999797,
          "durationTicks": 96,
          "midi": 47,
          "name": "B2",
          "ticks": 74497,
          "time": 106.79028548437499,
          "velocity": 0.11811023622047244
        },
        {
          "duration": 0.13761449999999797,
          "durationTicks": 96,
          "midi": 54,
          "name": "F#3",
          "ticks": 74497,
          "time": 106.79028548437499,
          "velocity": 0.11811023622047244
        },
        {
          "duration": 0.13761450000001219,
          "durationTicks": 96,
          "midi": 47,
          "name": "B2",
          "ticks": 74593,
          "time": 106.92789998437499,
          "velocity": 0.11811023622047244
        },
        {
          "duration": 0.27522899999999595,
          "durationTicks": 192,
          "midi": 66,
          "name": "F#4",
          "ticks": 74689,
          "time": 107.065514484375,
          "velocity": 0.11811023622047244
        },
        {
          "duration": 0.27522899999999595,
          "durationTicks": 192,
          "midi": 66,
          "name": "F#4",
          "ticks": 74689,
          "time": 107.065514484375,
          "velocity": 0.11811023622047244
        },
        {
          "duration": 0.13761449999999797,
          "durationTicks": 96,
          "midi": 54,
          "name": "F#3",
          "ticks": 74689,
          "time": 107.065514484375,
          "velocity": 0.11811023622047244
        },
        {
          "duration": 0.13761449999999797,
          "durationTicks": 96,
          "midi": 47,
          "name": "B2",
          "ticks": 74689,
          "time": 107.065514484375,
          "velocity": 0.11811023622047244
        },
        {
          "duration": 0.13761449999999797,
          "durationTicks": 96,
          "midi": 50,
          "name": "D3",
          "ticks": 74689,
          "time": 107.065514484375,
          "velocity": 0.11811023622047244
        },
        {
          "duration": 0.13761449999999797,
          "durationTicks": 96,
          "midi": 47,
          "name": "B2",
          "ticks": 74785,
          "time": 107.203128984375,
          "velocity": 0.11811023622047244
        },
        {
          "duration": 0.5504579999999919,
          "durationTicks": 384,
          "midi": 64,
          "name": "E4",
          "ticks": 74881,
          "time": 107.340743484375,
          "velocity": 0.11811023622047244
        },
        {
          "duration": 0.27522899999999595,
          "durationTicks": 192,
          "midi": 43,
          "name": "G2",
          "ticks": 74881,
          "time": 107.340743484375,
          "velocity": 0.11811023622047244
        },
        {
          "duration": 0.13761449999999797,
          "durationTicks": 96,
          "midi": 54,
          "name": "F#3",
          "ticks": 74881,
          "time": 107.340743484375,
          "velocity": 0.11811023622047244
        },
        {
          "duration": 0.5504579999999919,
          "durationTicks": 384,
          "midi": 64,
          "name": "E4",
          "ticks": 74881,
          "time": 107.340743484375,
          "velocity": 0.11811023622047244
        },
        {
          "duration": 0.13761449999999797,
          "durationTicks": 96,
          "midi": 47,
          "name": "B2",
          "ticks": 74977,
          "time": 107.478357984375,
          "velocity": 0.11811023622047244
        },
        {
          "duration": 0.13761449999999797,
          "durationTicks": 96,
          "midi": 50,
          "name": "D3",
          "ticks": 75073,
          "time": 107.61597248437499,
          "velocity": 0.11811023622047244
        },
        {
          "duration": 0.13761449999999797,
          "durationTicks": 96,
          "midi": 47,
          "name": "B2",
          "ticks": 75073,
          "time": 107.61597248437499,
          "velocity": 0.11811023622047244
        },
        {
          "duration": 0.13761449999999797,
          "durationTicks": 96,
          "midi": 54,
          "name": "F#3",
          "ticks": 75073,
          "time": 107.61597248437499,
          "velocity": 0.11811023622047244
        },
        {
          "duration": 0.13761449999999797,
          "durationTicks": 96,
          "midi": 47,
          "name": "B2",
          "ticks": 75169,
          "time": 107.75358698437499,
          "velocity": 0.11811023622047244
        },
        {
          "duration": 0.13761450000001219,
          "durationTicks": 96,
          "midi": 47,
          "name": "B2",
          "ticks": 75265,
          "time": 107.89120148437499,
          "velocity": 0.11811023622047244
        },
        {
          "duration": 0.13761450000001219,
          "durationTicks": 96,
          "midi": 54,
          "name": "F#3",
          "ticks": 75265,
          "time": 107.89120148437499,
          "velocity": 0.11811023622047244
        },
        {
          "duration": 0.13761450000001219,
          "durationTicks": 96,
          "midi": 50,
          "name": "D3",
          "ticks": 75265,
          "time": 107.89120148437499,
          "velocity": 0.11811023622047244
        },
        {
          "duration": 0.27522900000001016,
          "durationTicks": 192,
          "midi": 62,
          "name": "D4",
          "ticks": 75265,
          "time": 107.89120148437499,
          "velocity": 0.11811023622047244
        },
        {
          "duration": 0.27522900000001016,
          "durationTicks": 192,
          "midi": 62,
          "name": "D4",
          "ticks": 75265,
          "time": 107.89120148437499,
          "velocity": 0.11811023622047244
        },
        {
          "duration": 0.13761449999999797,
          "durationTicks": 96,
          "midi": 47,
          "name": "B2",
          "ticks": 75361,
          "time": 108.028815984375,
          "velocity": 0.11811023622047244
        },
        {
          "duration": 0.5504579999999919,
          "durationTicks": 384,
          "midi": 61,
          "name": "C#4",
          "ticks": 75457,
          "time": 108.166430484375,
          "velocity": 0.11811023622047244
        },
        {
          "duration": 0.5504579999999919,
          "durationTicks": 384,
          "midi": 61,
          "name": "C#4",
          "ticks": 75457,
          "time": 108.166430484375,
          "velocity": 0.11811023622047244
        },
        {
          "duration": 0.13761449999999797,
          "durationTicks": 96,
          "midi": 54,
          "name": "F#3",
          "ticks": 75457,
          "time": 108.166430484375,
          "velocity": 0.11811023622047244
        },
        {
          "duration": 0.27522899999999595,
          "durationTicks": 192,
          "midi": 43,
          "name": "G2",
          "ticks": 75457,
          "time": 108.166430484375,
          "velocity": 0.11811023622047244
        },
        {
          "duration": 0.13761449999999797,
          "durationTicks": 96,
          "midi": 47,
          "name": "B2",
          "ticks": 75553,
          "time": 108.304044984375,
          "velocity": 0.11811023622047244
        },
        {
          "duration": 0.13761449999999797,
          "durationTicks": 96,
          "midi": 54,
          "name": "F#3",
          "ticks": 75649,
          "time": 108.441659484375,
          "velocity": 0.11811023622047244
        },
        {
          "duration": 0.13761449999999797,
          "durationTicks": 96,
          "midi": 50,
          "name": "D3",
          "ticks": 75649,
          "time": 108.441659484375,
          "velocity": 0.11811023622047244
        },
        {
          "duration": 0.13761449999999797,
          "durationTicks": 96,
          "midi": 47,
          "name": "B2",
          "ticks": 75649,
          "time": 108.441659484375,
          "velocity": 0.11811023622047244
        },
        {
          "duration": 0.13761449999999797,
          "durationTicks": 96,
          "midi": 47,
          "name": "B2",
          "ticks": 75745,
          "time": 108.57927398437499,
          "velocity": 0.11811023622047244
        },
        {
          "duration": 0.27522900000001016,
          "durationTicks": 192,
          "midi": 62,
          "name": "D4",
          "ticks": 75841,
          "time": 108.71688848437499,
          "velocity": 0.11811023622047244
        },
        {
          "duration": 0.27522900000001016,
          "durationTicks": 192,
          "midi": 62,
          "name": "D4",
          "ticks": 75841,
          "time": 108.71688848437499,
          "velocity": 0.11811023622047244
        },
        {
          "duration": 0.13761449999999797,
          "durationTicks": 96,
          "midi": 54,
          "name": "F#3",
          "ticks": 75841,
          "time": 108.71688848437499,
          "velocity": 0.11811023622047244
        },
        {
          "duration": 0.13761449999999797,
          "durationTicks": 96,
          "midi": 50,
          "name": "D3",
          "ticks": 75841,
          "time": 108.71688848437499,
          "velocity": 0.11811023622047244
        },
        {
          "duration": 0.13761449999999797,
          "durationTicks": 96,
          "midi": 47,
          "name": "B2",
          "ticks": 75841,
          "time": 108.71688848437499,
          "velocity": 0.11811023622047244
        },
        {
          "duration": 0.13761450000001219,
          "durationTicks": 96,
          "midi": 47,
          "name": "B2",
          "ticks": 75937,
          "time": 108.85450298437499,
          "velocity": 0.11811023622047244
        },
        {
          "duration": 0.13761450000001219,
          "durationTicks": 96,
          "midi": 47,
          "name": "B2",
          "ticks": 75937,
          "time": 108.85450298437499,
          "velocity": 0.11811023622047244
        },
        {
          "duration": 0.27522899999999595,
          "durationTicks": 192,
          "midi": 42,
          "name": "F#2",
          "ticks": 76033,
          "time": 108.992117484375,
          "velocity": 0.11811023622047244
        },
        {
          "duration": 0.6880724999999899,
          "durationTicks": 480,
          "midi": 64,
          "name": "E4",
          "ticks": 76033,
          "time": 108.992117484375,
          "velocity": 0.11811023622047244
        },
        {
          "duration": 0.13761449999999797,
          "durationTicks": 96,
          "midi": 52,
          "name": "E3",
          "ticks": 76033,
          "time": 108.992117484375,
          "velocity": 0.11811023622047244
        },
        {
          "duration": 0.6880724999999899,
          "durationTicks": 480,
          "midi": 64,
          "name": "E4",
          "ticks": 76033,
          "time": 108.992117484375,
          "velocity": 0.11811023622047244
        },
        {
          "duration": 0.13761449999999797,
          "durationTicks": 96,
          "midi": 45,
          "name": "A2",
          "ticks": 76129,
          "time": 109.129731984375,
          "velocity": 0.11811023622047244
        },
        {
          "duration": 0.13761449999999797,
          "durationTicks": 96,
          "midi": 52,
          "name": "E3",
          "ticks": 76225,
          "time": 109.267346484375,
          "velocity": 0.11811023622047244
        },
        {
          "duration": 0.13761449999999797,
          "durationTicks": 96,
          "midi": 45,
          "name": "A2",
          "ticks": 76225,
          "time": 109.267346484375,
          "velocity": 0.11811023622047244
        },
        {
          "duration": 0.13761449999999797,
          "durationTicks": 96,
          "midi": 49,
          "name": "C#3",
          "ticks": 76225,
          "time": 109.267346484375,
          "velocity": 0.11811023622047244
        },
        {
          "duration": 0.13761449999999797,
          "durationTicks": 96,
          "midi": 45,
          "name": "A2",
          "ticks": 76321,
          "time": 109.404960984375,
          "velocity": 0.11811023622047244
        },
        {
          "duration": 0.13761449999999797,
          "durationTicks": 96,
          "midi": 52,
          "name": "E3",
          "ticks": 76417,
          "time": 109.54257548437499,
          "velocity": 0.11811023622047244
        },
        {
          "duration": 0.13761449999999797,
          "durationTicks": 96,
          "midi": 49,
          "name": "C#3",
          "ticks": 76417,
          "time": 109.54257548437499,
          "velocity": 0.11811023622047244
        },
        {
          "duration": 0.13761449999999797,
          "durationTicks": 96,
          "midi": 45,
          "name": "A2",
          "ticks": 76417,
          "time": 109.54257548437499,
          "velocity": 0.11811023622047244
        },
        {
          "duration": 0.13761449999999797,
          "durationTicks": 96,
          "midi": 71,
          "name": "B4",
          "ticks": 76513,
          "time": 109.68018998437499,
          "velocity": 0.11811023622047244
        },
        {
          "duration": 0.13761449999999797,
          "durationTicks": 96,
          "midi": 71,
          "name": "B4",
          "ticks": 76513,
          "time": 109.68018998437499,
          "velocity": 0.11811023622047244
        },
        {
          "duration": 0.13761449999999797,
          "durationTicks": 96,
          "midi": 45,
          "name": "A2",
          "ticks": 76513,
          "time": 109.68018998437499,
          "velocity": 0.11811023622047244
        },
        {
          "duration": 0.13761449999999797,
          "durationTicks": 96,
          "midi": 72,
          "name": "C5",
          "ticks": 76561,
          "time": 109.748997234375,
          "velocity": 0.11811023622047244
        },
        {
          "duration": 0.13761449999999797,
          "durationTicks": 96,
          "midi": 72,
          "name": "C5",
          "ticks": 76561,
          "time": 109.748997234375,
          "velocity": 0.11811023622047244
        },
        {
          "duration": 0.27522900000001016,
          "durationTicks": 192,
          "midi": 42,
          "name": "F#2",
          "ticks": 76609,
          "time": 109.81780448437499,
          "velocity": 0.11811023622047244
        },
        {
          "duration": 0.13761450000001219,
          "durationTicks": 96,
          "midi": 73,
          "name": "C#5",
          "ticks": 76609,
          "time": 109.81780448437499,
          "velocity": 0.11811023622047244
        },
        {
          "duration": 0.13761450000001219,
          "durationTicks": 96,
          "midi": 52,
          "name": "E3",
          "ticks": 76609,
          "time": 109.81780448437499,
          "velocity": 0.11811023622047244
        },
        {
          "duration": 0.13761450000001219,
          "durationTicks": 96,
          "midi": 73,
          "name": "C#5",
          "ticks": 76609,
          "time": 109.81780448437499,
          "velocity": 0.11811023622047244
        },
        {
          "duration": 0.13761449999999797,
          "durationTicks": 96,
          "midi": 45,
          "name": "A2",
          "ticks": 76705,
          "time": 109.955418984375,
          "velocity": 0.11811023622047244
        },
        {
          "duration": 0.13761449999999797,
          "durationTicks": 96,
          "midi": 72,
          "name": "C5",
          "ticks": 76801,
          "time": 110.093033484375,
          "velocity": 0.11811023622047244
        },
        {
          "duration": 0.13761449999999797,
          "durationTicks": 96,
          "midi": 45,
          "name": "A2",
          "ticks": 76801,
          "time": 110.093033484375,
          "velocity": 0.11811023622047244
        },
        {
          "duration": 0.13761449999999797,
          "durationTicks": 96,
          "midi": 49,
          "name": "C#3",
          "ticks": 76801,
          "time": 110.093033484375,
          "velocity": 0.11811023622047244
        },
        {
          "duration": 0.13761449999999797,
          "durationTicks": 96,
          "midi": 52,
          "name": "E3",
          "ticks": 76801,
          "time": 110.093033484375,
          "velocity": 0.11811023622047244
        },
        {
          "duration": 0.13761449999999797,
          "durationTicks": 96,
          "midi": 72,
          "name": "C5",
          "ticks": 76801,
          "time": 110.093033484375,
          "velocity": 0.11811023622047244
        },
        {
          "duration": 0.13761449999999797,
          "durationTicks": 96,
          "midi": 45,
          "name": "A2",
          "ticks": 76897,
          "time": 110.230647984375,
          "velocity": 0.11811023622047244
        },
        {
          "duration": 0.13761449999999797,
          "durationTicks": 96,
          "midi": 45,
          "name": "A2",
          "ticks": 76993,
          "time": 110.368262484375,
          "velocity": 0.11811023622047244
        },
        {
          "duration": 0.13761449999999797,
          "durationTicks": 96,
          "midi": 49,
          "name": "C#3",
          "ticks": 76993,
          "time": 110.368262484375,
          "velocity": 0.11811023622047244
        },
        {
          "duration": 0.13761449999999797,
          "durationTicks": 96,
          "midi": 71,
          "name": "B4",
          "ticks": 76993,
          "time": 110.368262484375,
          "velocity": 0.11811023622047244
        },
        {
          "duration": 0.13761449999999797,
          "durationTicks": 96,
          "midi": 71,
          "name": "B4",
          "ticks": 76993,
          "time": 110.368262484375,
          "velocity": 0.11811023622047244
        },
        {
          "duration": 0.13761449999999797,
          "durationTicks": 96,
          "midi": 52,
          "name": "E3",
          "ticks": 76993,
          "time": 110.368262484375,
          "velocity": 0.11811023622047244
        },
        {
          "duration": 0.13761449999999797,
          "durationTicks": 96,
          "midi": 45,
          "name": "A2",
          "ticks": 77089,
          "time": 110.50587698437499,
          "velocity": 0.11811023622047244
        },
        {
          "duration": 0.13761449999999797,
          "durationTicks": 96,
          "midi": 52,
          "name": "E3",
          "ticks": 77185,
          "time": 110.64349148437499,
          "velocity": 0.11811023622047244
        },
        {
          "duration": 1.6513740000000041,
          "durationTicks": 1152,
          "midi": 69,
          "name": "A4",
          "ticks": 77185,
          "time": 110.64349148437499,
          "velocity": 0.11811023622047244
        },
        {
          "duration": 1.6513740000000041,
          "durationTicks": 1152,
          "midi": 69,
          "name": "A4",
          "ticks": 77185,
          "time": 110.64349148437499,
          "velocity": 0.11811023622047244
        },
        {
          "duration": 0.27522900000001016,
          "durationTicks": 192,
          "midi": 42,
          "name": "F#2",
          "ticks": 77185,
          "time": 110.64349148437499,
          "velocity": 0.11811023622047244
        },
        {
          "duration": 0.13761450000001219,
          "durationTicks": 96,
          "midi": 45,
          "name": "A2",
          "ticks": 77281,
          "time": 110.78110598437499,
          "velocity": 0.11811023622047244
        },
        {
          "duration": 0.13761449999999797,
          "durationTicks": 96,
          "midi": 52,
          "name": "E3",
          "ticks": 77377,
          "time": 110.918720484375,
          "velocity": 0.11811023622047244
        },
        {
          "duration": 0.13761449999999797,
          "durationTicks": 96,
          "midi": 45,
          "name": "A2",
          "ticks": 77377,
          "time": 110.918720484375,
          "velocity": 0.11811023622047244
        },
        {
          "duration": 0.13761449999999797,
          "durationTicks": 96,
          "midi": 49,
          "name": "C#3",
          "ticks": 77377,
          "time": 110.918720484375,
          "velocity": 0.11811023622047244
        },
        {
          "duration": 0.13761449999999797,
          "durationTicks": 96,
          "midi": 45,
          "name": "A2",
          "ticks": 77473,
          "time": 111.056334984375,
          "velocity": 0.11811023622047244
        },
        {
          "duration": 0.13761449999999797,
          "durationTicks": 96,
          "midi": 45,
          "name": "A2",
          "ticks": 77569,
          "time": 111.193949484375,
          "velocity": 0.11811023622047244
        },
        {
          "duration": 0.13761449999999797,
          "durationTicks": 96,
          "midi": 49,
          "name": "C#3",
          "ticks": 77569,
          "time": 111.193949484375,
          "velocity": 0.11811023622047244
        },
        {
          "duration": 0.13761449999999797,
          "durationTicks": 96,
          "midi": 52,
          "name": "E3",
          "ticks": 77569,
          "time": 111.193949484375,
          "velocity": 0.11811023622047244
        },
        {
          "duration": 0.13761449999999797,
          "durationTicks": 96,
          "midi": 45,
          "name": "A2",
          "ticks": 77665,
          "time": 111.331563984375,
          "velocity": 0.11811023622047244
        },
        {
          "duration": 0.13761449999999797,
          "durationTicks": 96,
          "midi": 52,
          "name": "E3",
          "ticks": 77761,
          "time": 111.46917848437499,
          "velocity": 0.11811023622047244
        },
        {
          "duration": 0.27522899999999595,
          "durationTicks": 192,
          "midi": 42,
          "name": "F#2",
          "ticks": 77761,
          "time": 111.46917848437499,
          "velocity": 0.11811023622047244
        },
        {
          "duration": 0.13761449999999797,
          "durationTicks": 96,
          "midi": 45,
          "name": "A2",
          "ticks": 77857,
          "time": 111.60679298437499,
          "velocity": 0.11811023622047244
        },
        {
          "duration": 0.13761450000001219,
          "durationTicks": 96,
          "midi": 52,
          "name": "E3",
          "ticks": 77953,
          "time": 111.74440748437499,
          "velocity": 0.11811023622047244
        },
        {
          "duration": 0.13761450000001219,
          "durationTicks": 96,
          "midi": 45,
          "name": "A2",
          "ticks": 77953,
          "time": 111.74440748437499,
          "velocity": 0.11811023622047244
        },
        {
          "duration": 0.13761450000001219,
          "durationTicks": 96,
          "midi": 49,
          "name": "C#3",
          "ticks": 77953,
          "time": 111.74440748437499,
          "velocity": 0.11811023622047244
        },
        {
          "duration": 0.13761449999999797,
          "durationTicks": 96,
          "midi": 45,
          "name": "A2",
          "ticks": 78049,
          "time": 111.882021984375,
          "velocity": 0.11811023622047244
        },
        {
          "duration": 0.13761449999999797,
          "durationTicks": 96,
          "midi": 45,
          "name": "A2",
          "ticks": 78145,
          "time": 112.019636484375,
          "velocity": 0.11811023622047244
        },
        {
          "duration": 0.13761449999999797,
          "durationTicks": 96,
          "midi": 52,
          "name": "E3",
          "ticks": 78145,
          "time": 112.019636484375,
          "velocity": 0.11811023622047244
        },
        {
          "duration": 0.13761449999999797,
          "durationTicks": 96,
          "midi": 49,
          "name": "C#3",
          "ticks": 78145,
          "time": 112.019636484375,
          "velocity": 0.11811023622047244
        },
        {
          "duration": 0.13761449999999797,
          "durationTicks": 96,
          "midi": 45,
          "name": "A2",
          "ticks": 78241,
          "time": 112.157250984375,
          "velocity": 0.11811023622047244
        },
        {
          "duration": 0.13761449999999797,
          "durationTicks": 96,
          "midi": 45,
          "name": "A2",
          "ticks": 78241,
          "time": 112.157250984375,
          "velocity": 0.11811023622047244
        },
        {
          "duration": 0.13761449999999797,
          "durationTicks": 96,
          "midi": 47,
          "name": "B2",
          "ticks": 78337,
          "time": 112.294865484375,
          "velocity": 0.11811023622047244
        },
        {
          "duration": 0.8256870000000021,
          "durationTicks": 576,
          "midi": 59,
          "name": "B3",
          "ticks": 78337,
          "time": 112.294865484375,
          "velocity": 0.11811023622047244
        },
        {
          "duration": 0.8256870000000021,
          "durationTicks": 576,
          "midi": 59,
          "name": "B3",
          "ticks": 78337,
          "time": 112.294865484375,
          "velocity": 0.11811023622047244
        },
        {
          "duration": 0.27522899999999595,
          "durationTicks": 192,
          "midi": 40,
          "name": "E2",
          "ticks": 78337,
          "time": 112.294865484375,
          "velocity": 0.11811023622047244
        },
        {
          "duration": 0.13761449999999797,
          "durationTicks": 96,
          "midi": 43,
          "name": "G2",
          "ticks": 78433,
          "time": 112.432479984375,
          "velocity": 0.11811023622047244
        },
        {
          "duration": 0.13761449999999797,
          "durationTicks": 96,
          "midi": 47,
          "name": "B2",
          "ticks": 78529,
          "time": 112.57009448437499,
          "velocity": 0.11811023622047244
        },
        {
          "duration": 0.13761449999999797,
          "durationTicks": 96,
          "midi": 43,
          "name": "G2",
          "ticks": 78529,
          "time": 112.57009448437499,
          "velocity": 0.11811023622047244
        },
        {
          "duration": 0.13761449999999797,
          "durationTicks": 96,
          "midi": 47,
          "name": "B2",
          "ticks": 78529,
          "time": 112.57009448437499,
          "velocity": 0.11811023622047244
        },
        {
          "duration": 0.13761450000001219,
          "durationTicks": 96,
          "midi": 43,
          "name": "G2",
          "ticks": 78625,
          "time": 112.70770898437499,
          "velocity": 0.11811023622047244
        },
        {
          "duration": 0.13761449999999797,
          "durationTicks": 96,
          "midi": 43,
          "name": "G2",
          "ticks": 78721,
          "time": 112.845323484375,
          "velocity": 0.11811023622047244
        },
        {
          "duration": 0.13761449999999797,
          "durationTicks": 96,
          "midi": 47,
          "name": "B2",
          "ticks": 78721,
          "time": 112.845323484375,
          "velocity": 0.11811023622047244
        },
        {
          "duration": 0.13761449999999797,
          "durationTicks": 96,
          "midi": 47,
          "name": "B2",
          "ticks": 78721,
          "time": 112.845323484375,
          "velocity": 0.11811023622047244
        },
        {
          "duration": 0.13761449999999797,
          "durationTicks": 96,
          "midi": 43,
          "name": "G2",
          "ticks": 78817,
          "time": 112.982937984375,
          "velocity": 0.11811023622047244
        },
        {
          "duration": 0.5504579999999919,
          "durationTicks": 384,
          "midi": 69,
          "name": "A4",
          "ticks": 78913,
          "time": 113.120552484375,
          "velocity": 0.11811023622047244
        },
        {
          "duration": 0.5504579999999919,
          "durationTicks": 384,
          "midi": 69,
          "name": "A4",
          "ticks": 78913,
          "time": 113.120552484375,
          "velocity": 0.11811023622047244
        },
        {
          "duration": 0.13761449999999797,
          "durationTicks": 96,
          "midi": 47,
          "name": "B2",
          "ticks": 78913,
          "time": 113.120552484375,
          "velocity": 0.11811023622047244
        },
        {
          "duration": 0.27522899999999595,
          "durationTicks": 192,
          "midi": 40,
          "name": "E2",
          "ticks": 78913,
          "time": 113.120552484375,
          "velocity": 0.11811023622047244
        },
        {
          "duration": 0.13761449999999797,
          "durationTicks": 96,
          "midi": 43,
          "name": "G2",
          "ticks": 79009,
          "time": 113.258166984375,
          "velocity": 0.11811023622047244
        },
        {
          "duration": 0.13761449999999797,
          "durationTicks": 96,
          "midi": 43,
          "name": "G2",
          "ticks": 79105,
          "time": 113.395781484375,
          "velocity": 0.11811023622047244
        },
        {
          "duration": 0.13761449999999797,
          "durationTicks": 96,
          "midi": 47,
          "name": "B2",
          "ticks": 79105,
          "time": 113.395781484375,
          "velocity": 0.11811023622047244
        },
        {
          "duration": 0.13761449999999797,
          "durationTicks": 96,
          "midi": 47,
          "name": "B2",
          "ticks": 79105,
          "time": 113.395781484375,
          "velocity": 0.11811023622047244
        },
        {
          "duration": 0.13761449999999797,
          "durationTicks": 96,
          "midi": 43,
          "name": "G2",
          "ticks": 79201,
          "time": 113.53339598437499,
          "velocity": 0.11811023622047244
        },
        {
          "duration": 0.27522900000001016,
          "durationTicks": 192,
          "midi": 66,
          "name": "F#4",
          "ticks": 79297,
          "time": 113.67101048437499,
          "velocity": 0.11811023622047244
        },
        {
          "duration": 0.13761450000001219,
          "durationTicks": 96,
          "midi": 43,
          "name": "G2",
          "ticks": 79297,
          "time": 113.67101048437499,
          "velocity": 0.11811023622047244
        },
        {
          "duration": 0.13761450000001219,
          "durationTicks": 96,
          "midi": 47,
          "name": "B2",
          "ticks": 79297,
          "time": 113.67101048437499,
          "velocity": 0.11811023622047244
        },
        {
          "duration": 0.13761450000001219,
          "durationTicks": 96,
          "midi": 47,
          "name": "B2",
          "ticks": 79297,
          "time": 113.67101048437499,
          "velocity": 0.11811023622047244
        },
        {
          "duration": 0.27522900000001016,
          "durationTicks": 192,
          "midi": 66,
          "name": "F#4",
          "ticks": 79297,
          "time": 113.67101048437499,
          "velocity": 0.11811023622047244
        },
        {
          "duration": 0.6880725000000041,
          "durationTicks": 480,
          "midi": 66,
          "name": "F#4",
          "ticks": 79297,
          "time": 113.67101048437499,
          "velocity": 0.11811023622047244
        },
        {
          "duration": 0.13761449999999797,
          "durationTicks": 96,
          "midi": 43,
          "name": "G2",
          "ticks": 79393,
          "time": 113.808624984375,
          "velocity": 0.11811023622047244
        },
        {
          "duration": 0.13761449999999797,
          "durationTicks": 96,
          "midi": 43,
          "name": "G2",
          "ticks": 79393,
          "time": 113.808624984375,
          "velocity": 0.11811023622047244
        },
        {
          "duration": 0.13761449999999797,
          "durationTicks": 96,
          "midi": 52,
          "name": "E3",
          "ticks": 79489,
          "time": 113.946239484375,
          "velocity": 0.11811023622047244
        },
        {
          "duration": 0.4128434999999939,
          "durationTicks": 288,
          "midi": 64,
          "name": "E4",
          "ticks": 79489,
          "time": 113.946239484375,
          "velocity": 0.11811023622047244
        },
        {
          "duration": 0.5060199843750013,
          "durationTicks": 353,
          "midi": 64,
          "name": "E4",
          "ticks": 79489,
          "time": 113.946239484375,
          "velocity": 0.11811023622047244
        },
        {
          "duration": 0.13761449999999797,
          "durationTicks": 96,
          "midi": 45,
          "name": "A2",
          "ticks": 79585,
          "time": 114.083853984375,
          "velocity": 0.11811023622047244
        },
        {
          "duration": 0.13761449999999797,
          "durationTicks": 96,
          "midi": 45,
          "name": "A2",
          "ticks": 79585,
          "time": 114.083853984375,
          "velocity": 0.11811023622047244
        },
        {
          "duration": 0.13761449999999797,
          "durationTicks": 96,
          "midi": 49,
          "name": "C#3",
          "ticks": 79681,
          "time": 114.221468484375,
          "velocity": 0.11811023622047244
        },
        {
          "duration": 0.13761449999999797,
          "durationTicks": 96,
          "midi": 52,
          "name": "E3",
          "ticks": 79681,
          "time": 114.221468484375,
          "velocity": 0.11811023622047244
        },
        {
          "duration": 0.13761449999999797,
          "durationTicks": 96,
          "midi": 52,
          "name": "E3",
          "ticks": 79681,
          "time": 114.221468484375,
          "velocity": 0.11811023622047244
        },
        {
          "duration": 0.13761449999999797,
          "durationTicks": 96,
          "midi": 45,
          "name": "A2",
          "ticks": 79777,
          "time": 114.359082984375,
          "velocity": 0.11811023622047244
        },
        {
          "duration": 0.04443801562499061,
          "durationTicks": 31,
          "midi": 64,
          "name": "E4",
          "ticks": 79842,
          "time": 114.45225946875,
          "velocity": 0.11811023622047244
        },
        {
          "duration": 0.27522899999999595,
          "durationTicks": 192,
          "midi": 62,
          "name": "D4",
          "ticks": 79874,
          "time": 114.49813096875,
          "velocity": 0.11811023622047244
        },
        {
          "duration": 0.27522899999999595,
          "durationTicks": 192,
          "midi": 62,
          "name": "D4",
          "ticks": 79874,
          "time": 114.49813096875,
          "velocity": 0.11811023622047244
        },
        {
          "duration": 0.13761449999999797,
          "durationTicks": 96,
          "midi": 52,
          "name": "E3",
          "ticks": 79874,
          "time": 114.49813096875,
          "velocity": 0.11811023622047244
        },
        {
          "duration": 0.13761449999999797,
          "durationTicks": 96,
          "midi": 49,
          "name": "C#3",
          "ticks": 79874,
          "time": 114.49813096875,
          "velocity": 0.11811023622047244
        },
        {
          "duration": 0.13761449999999797,
          "durationTicks": 96,
          "midi": 52,
          "name": "E3",
          "ticks": 79874,
          "time": 114.49813096875,
          "velocity": 0.11811023622047244
        },
        {
          "duration": 0.13761449999999797,
          "durationTicks": 96,
          "midi": 45,
          "name": "A2",
          "ticks": 79970,
          "time": 114.63574546875,
          "velocity": 0.11811023622047244
        },
        {
          "duration": 0.5504580000000061,
          "durationTicks": 384,
          "midi": 64,
          "name": "E4",
          "ticks": 80066,
          "time": 114.77335996875,
          "velocity": 0.11811023622047244
        },
        {
          "duration": 0.13761450000001219,
          "durationTicks": 96,
          "midi": 52,
          "name": "E3",
          "ticks": 80066,
          "time": 114.77335996875,
          "velocity": 0.11811023622047244
        },
        {
          "duration": 0.5504580000000061,
          "durationTicks": 384,
          "midi": 64,
          "name": "E4",
          "ticks": 80066,
          "time": 114.77335996875,
          "velocity": 0.11811023622047244
        },
        {
          "duration": 0.13761449999999797,
          "durationTicks": 96,
          "midi": 45,
          "name": "A2",
          "ticks": 80162,
          "time": 114.91097446875001,
          "velocity": 0.11811023622047244
        },
        {
          "duration": 0.13761449999999797,
          "durationTicks": 96,
          "midi": 45,
          "name": "A2",
          "ticks": 80162,
          "time": 114.91097446875001,
          "velocity": 0.11811023622047244
        },
        {
          "duration": 0.13761449999999797,
          "durationTicks": 96,
          "midi": 52,
          "name": "E3",
          "ticks": 80258,
          "time": 115.04858896875001,
          "velocity": 0.11811023622047244
        },
        {
          "duration": 0.13761449999999797,
          "durationTicks": 96,
          "midi": 49,
          "name": "C#3",
          "ticks": 80258,
          "time": 115.04858896875001,
          "velocity": 0.11811023622047244
        },
        {
          "duration": 0.13761449999999797,
          "durationTicks": 96,
          "midi": 52,
          "name": "E3",
          "ticks": 80258,
          "time": 115.04858896875001,
          "velocity": 0.11811023622047244
        },
        {
          "duration": 0.13761449999999797,
          "durationTicks": 96,
          "midi": 45,
          "name": "A2",
          "ticks": 80354,
          "time": 115.18620346875001,
          "velocity": 0.11811023622047244
        },
        {
          "duration": 0.27522899999999595,
          "durationTicks": 192,
          "midi": 66,
          "name": "F#4",
          "ticks": 80450,
          "time": 115.32381796875,
          "velocity": 0.11811023622047244
        },
        {
          "duration": 0.13761449999999797,
          "durationTicks": 96,
          "midi": 49,
          "name": "C#3",
          "ticks": 80450,
          "time": 115.32381796875,
          "velocity": 0.11811023622047244
        },
        {
          "duration": 0.13761449999999797,
          "durationTicks": 96,
          "midi": 52,
          "name": "E3",
          "ticks": 80450,
          "time": 115.32381796875,
          "velocity": 0.11811023622047244
        },
        {
          "duration": 0.13761449999999797,
          "durationTicks": 96,
          "midi": 52,
          "name": "E3",
          "ticks": 80450,
          "time": 115.32381796875,
          "velocity": 0.11811023622047244
        },
        {
          "duration": 0.27522899999999595,
          "durationTicks": 192,
          "midi": 66,
          "name": "F#4",
          "ticks": 80450,
          "time": 115.32381796875,
          "velocity": 0.11811023622047244
        },
        {
          "duration": 0.13761449999999797,
          "durationTicks": 96,
          "midi": 45,
          "name": "A2",
          "ticks": 80546,
          "time": 115.46143246875,
          "velocity": 0.11811023622047244
        },
        {
          "duration": 0.13761449999999797,
          "durationTicks": 96,
          "midi": 45,
          "name": "A2",
          "ticks": 80546,
          "time": 115.46143246875,
          "velocity": 0.11811023622047244
        },
        {
          "duration": 0.8256870000000021,
          "durationTicks": 576,
          "midi": 61,
          "name": "C#4",
          "ticks": 80642,
          "time": 115.59904696875,
          "velocity": 0.11811023622047244
        },
        {
          "duration": 0.13761449999999797,
          "durationTicks": 96,
          "midi": 52,
          "name": "E3",
          "ticks": 80642,
          "time": 115.59904696875,
          "velocity": 0.11811023622047244
        },
        {
          "duration": 0.8256870000000021,
          "durationTicks": 576,
          "midi": 61,
          "name": "C#4",
          "ticks": 80642,
          "time": 115.59904696875,
          "velocity": 0.11811023622047244
        },
        {
          "duration": 0.13761450000001219,
          "durationTicks": 96,
          "midi": 46,
          "name": "A#2",
          "ticks": 80738,
          "time": 115.73666146875,
          "velocity": 0.11811023622047244
        },
        {
          "duration": 0.13761450000001219,
          "durationTicks": 96,
          "midi": 46,
          "name": "A#2",
          "ticks": 80738,
          "time": 115.73666146875,
          "velocity": 0.11811023622047244
        },
        {
          "duration": 0.13761449999999797,
          "durationTicks": 96,
          "midi": 52,
          "name": "E3",
          "ticks": 80834,
          "time": 115.87427596875001,
          "velocity": 0.11811023622047244
        },
        {
          "duration": 0.13761449999999797,
          "durationTicks": 96,
          "midi": 49,
          "name": "C#3",
          "ticks": 80834,
          "time": 115.87427596875001,
          "velocity": 0.11811023622047244
        },
        {
          "duration": 0.13761449999999797,
          "durationTicks": 96,
          "midi": 52,
          "name": "E3",
          "ticks": 80834,
          "time": 115.87427596875001,
          "velocity": 0.11811023622047244
        },
        {
          "duration": 0.13761449999999797,
          "durationTicks": 96,
          "midi": 46,
          "name": "A#2",
          "ticks": 80930,
          "time": 116.01189046875001,
          "velocity": 0.11811023622047244
        },
        {
          "duration": 0.13761449999999797,
          "durationTicks": 96,
          "midi": 52,
          "name": "E3",
          "ticks": 81026,
          "time": 116.14950496875001,
          "velocity": 0.11811023622047244
        },
        {
          "duration": 0.13761449999999797,
          "durationTicks": 96,
          "midi": 49,
          "name": "C#3",
          "ticks": 81026,
          "time": 116.14950496875001,
          "velocity": 0.11811023622047244
        },
        {
          "duration": 0.13761449999999797,
          "durationTicks": 96,
          "midi": 52,
          "name": "E3",
          "ticks": 81026,
          "time": 116.14950496875001,
          "velocity": 0.11811023622047244
        },
        {
          "duration": 0.13761449999999797,
          "durationTicks": 96,
          "midi": 46,
          "name": "A#2",
          "ticks": 81122,
          "time": 116.28711946875,
          "velocity": 0.11811023622047244
        },
        {
          "duration": 0.13761449999999797,
          "durationTicks": 96,
          "midi": 52,
          "name": "E3",
          "ticks": 81218,
          "time": 116.42473396875,
          "velocity": 0.11811023622047244
        },
        {
          "duration": 0.8256870000000021,
          "durationTicks": 576,
          "midi": 64,
          "name": "E4",
          "ticks": 81218,
          "time": 116.42473396875,
          "velocity": 0.11811023622047244
        },
        {
          "duration": 0.8256870000000021,
          "durationTicks": 576,
          "midi": 64,
          "name": "E4",
          "ticks": 81218,
          "time": 116.42473396875,
          "velocity": 0.11811023622047244
        },
        {
          "duration": 0.13761449999999797,
          "durationTicks": 96,
          "midi": 46,
          "name": "A#2",
          "ticks": 81314,
          "time": 116.56234846875,
          "velocity": 0.11811023622047244
        },
        {
          "duration": 0.13761449999999797,
          "durationTicks": 96,
          "midi": 46,
          "name": "A#2",
          "ticks": 81314,
          "time": 116.56234846875,
          "velocity": 0.11811023622047244
        },
        {
          "duration": 0.13761450000001219,
          "durationTicks": 96,
          "midi": 52,
          "name": "E3",
          "ticks": 81410,
          "time": 116.69996296875,
          "velocity": 0.11811023622047244
        },
        {
          "duration": 0.13761450000001219,
          "durationTicks": 96,
          "midi": 52,
          "name": "E3",
          "ticks": 81410,
          "time": 116.69996296875,
          "velocity": 0.11811023622047244
        },
        {
          "duration": 0.13761450000001219,
          "durationTicks": 96,
          "midi": 49,
          "name": "C#3",
          "ticks": 81410,
          "time": 116.69996296875,
          "velocity": 0.11811023622047244
        },
        {
          "duration": 0.13761449999999797,
          "durationTicks": 96,
          "midi": 46,
          "name": "A#2",
          "ticks": 81506,
          "time": 116.83757746875001,
          "velocity": 0.11811023622047244
        },
        {
          "duration": 0.13761449999999797,
          "durationTicks": 96,
          "midi": 52,
          "name": "E3",
          "ticks": 81602,
          "time": 116.97519196875001,
          "velocity": 0.11811023622047244
        },
        {
          "duration": 0.13761449999999797,
          "durationTicks": 96,
          "midi": 52,
          "name": "E3",
          "ticks": 81602,
          "time": 116.97519196875001,
          "velocity": 0.11811023622047244
        },
        {
          "duration": 0.13761449999999797,
          "durationTicks": 96,
          "midi": 49,
          "name": "C#3",
          "ticks": 81602,
          "time": 116.97519196875001,
          "velocity": 0.11811023622047244
        },
        {
          "duration": 0.27522899999999595,
          "durationTicks": 192,
          "midi": 49,
          "name": "C#3",
          "ticks": 81602,
          "time": 116.97519196875001,
          "velocity": 0.11811023622047244
        },
        {
          "duration": 0.13761449999999797,
          "durationTicks": 96,
          "midi": 46,
          "name": "A#2",
          "ticks": 81698,
          "time": 117.11280646875001,
          "velocity": 0.11811023622047244
        },
        {
          "duration": 0.27522899999999595,
          "durationTicks": 192,
          "midi": 47,
          "name": "B2",
          "ticks": 81794,
          "time": 117.25042096875,
          "velocity": 0.11811023622047244
        },
        {
          "duration": 0.8256870000000021,
          "durationTicks": 576,
          "midi": 47,
          "name": "B2",
          "ticks": 81794,
          "time": 117.25042096875,
          "velocity": 0.11811023622047244
        },
        {
          "duration": 0.5504580000000061,
          "durationTicks": 384,
          "midi": 64,
          "name": "E4",
          "ticks": 81794,
          "time": 117.25042096875,
          "velocity": 0.11811023622047244
        },
        {
          "duration": 0.5504580000000061,
          "durationTicks": 384,
          "midi": 63,
          "name": "D#4",
          "ticks": 81794,
          "time": 117.25042096875,
          "velocity": 0.11811023622047244
        },
        {
          "duration": 0.13761449999999797,
          "durationTicks": 96,
          "midi": 50,
          "name": "D3",
          "ticks": 81986,
          "time": 117.52564996875,
          "velocity": 0.11811023622047244
        },
        {
          "duration": 0.5504580000000061,
          "durationTicks": 384,
          "midi": 50,
          "name": "D3",
          "ticks": 81986,
          "time": 117.52564996875,
          "velocity": 0.11811023622047244
        },
        {
          "duration": 0.13761449999999797,
          "durationTicks": 96,
          "midi": 54,
          "name": "F#3",
          "ticks": 81986,
          "time": 117.52564996875,
          "velocity": 0.11811023622047244
        },
        {
          "duration": 0.13761449999999797,
          "durationTicks": 96,
          "midi": 62,
          "name": "D4",
          "ticks": 82178,
          "time": 117.80087896875001,
          "velocity": 0.11811023622047244
        },
        {
          "duration": 0.13761449999999797,
          "durationTicks": 96,
          "midi": 62,
          "name": "D4",
          "ticks": 82178,
          "time": 117.80087896875001,
          "velocity": 0.11811023622047244
        },
        {
          "duration": 0.13761449999999797,
          "durationTicks": 96,
          "midi": 57,
          "name": "A3",
          "ticks": 82178,
          "time": 117.80087896875001,
          "velocity": 0.11811023622047244
        },
        {
          "duration": 0.13761449999999797,
          "durationTicks": 96,
          "midi": 54,
          "name": "F#3",
          "ticks": 82178,
          "time": 117.80087896875001,
          "velocity": 0.11811023622047244
        },
        {
          "duration": 0.27522899999999595,
          "durationTicks": 192,
          "midi": 54,
          "name": "F#3",
          "ticks": 82178,
          "time": 117.80087896875001,
          "velocity": 0.11811023622047244
        },
        {
          "duration": 0.5504579999999919,
          "durationTicks": 384,
          "midi": 61,
          "name": "C#4",
          "ticks": 82370,
          "time": 118.07610796875001,
          "velocity": 0.11811023622047244
        },
        {
          "duration": 0.27522899999999595,
          "durationTicks": 192,
          "midi": 45,
          "name": "A2",
          "ticks": 82370,
          "time": 118.07610796875001,
          "velocity": 0.11811023622047244
        },
        {
          "duration": 0.5504579999999919,
          "durationTicks": 384,
          "midi": 61,
          "name": "C#4",
          "ticks": 82370,
          "time": 118.07610796875001,
          "velocity": 0.11811023622047244
        },
        {
          "duration": 0.8256870000000021,
          "durationTicks": 576,
          "midi": 45,
          "name": "A2",
          "ticks": 82370,
          "time": 118.07610796875001,
          "velocity": 0.11811023622047244
        },
        {
          "duration": 0.13761449999999797,
          "durationTicks": 96,
          "midi": 49,
          "name": "C#3",
          "ticks": 82562,
          "time": 118.35133696875,
          "velocity": 0.11811023622047244
        },
        {
          "duration": 0.5504580000000061,
          "durationTicks": 384,
          "midi": 49,
          "name": "C#3",
          "ticks": 82562,
          "time": 118.35133696875,
          "velocity": 0.11811023622047244
        },
        {
          "duration": 0.13761449999999797,
          "durationTicks": 96,
          "midi": 52,
          "name": "E3",
          "ticks": 82562,
          "time": 118.35133696875,
          "velocity": 0.11811023622047244
        },
        {
          "duration": 0.13761450000001219,
          "durationTicks": 96,
          "midi": 52,
          "name": "E3",
          "ticks": 82754,
          "time": 118.62656596875,
          "velocity": 0.11811023622047244
        },
        {
          "duration": 0.27522900000001016,
          "durationTicks": 192,
          "midi": 52,
          "name": "E3",
          "ticks": 82754,
          "time": 118.62656596875,
          "velocity": 0.11811023622047244
        },
        {
          "duration": 0.13761450000001219,
          "durationTicks": 96,
          "midi": 57,
          "name": "A3",
          "ticks": 82754,
          "time": 118.62656596875,
          "velocity": 0.11811023622047244
        },
        {
          "duration": 0.13761450000001219,
          "durationTicks": 96,
          "midi": 62,
          "name": "D4",
          "ticks": 82754,
          "time": 118.62656596875,
          "velocity": 0.11811023622047244
        },
        {
          "duration": 0.13761450000001219,
          "durationTicks": 96,
          "midi": 62,
          "name": "D4",
          "ticks": 82754,
          "time": 118.62656596875,
          "velocity": 0.11811023622047244
        },
        {
          "duration": 0.27522899999999595,
          "durationTicks": 192,
          "midi": 43,
          "name": "G2",
          "ticks": 82946,
          "time": 118.90179496875001,
          "velocity": 0.11811023622047244
        },
        {
          "duration": 0.8256870000000021,
          "durationTicks": 576,
          "midi": 57,
          "name": "A3",
          "ticks": 82946,
          "time": 118.90179496875001,
          "velocity": 0.11811023622047244
        },
        {
          "duration": 0.13761449999999797,
          "durationTicks": 96,
          "midi": 54,
          "name": "F#3",
          "ticks": 82946,
          "time": 118.90179496875001,
          "velocity": 0.11811023622047244
        },
        {
          "duration": 0.8256870000000021,
          "durationTicks": 576,
          "midi": 57,
          "name": "A3",
          "ticks": 82946,
          "time": 118.90179496875001,
          "velocity": 0.11811023622047244
        },
        {
          "duration": 0.13761449999999797,
          "durationTicks": 96,
          "midi": 47,
          "name": "B2",
          "ticks": 83042,
          "time": 119.03940946875001,
          "velocity": 0.11811023622047244
        },
        {
          "duration": 0.13761449999999797,
          "durationTicks": 96,
          "midi": 47,
          "name": "B2",
          "ticks": 83138,
          "time": 119.17702396875,
          "velocity": 0.11811023622047244
        },
        {
          "duration": 0.13761449999999797,
          "durationTicks": 96,
          "midi": 50,
          "name": "D3",
          "ticks": 83138,
          "time": 119.17702396875,
          "velocity": 0.11811023622047244
        },
        {
          "duration": 0.13761449999999797,
          "durationTicks": 96,
          "midi": 54,
          "name": "F#3",
          "ticks": 83138,
          "time": 119.17702396875,
          "velocity": 0.11811023622047244
        },
        {
          "duration": 0.13761449999999797,
          "durationTicks": 96,
          "midi": 47,
          "name": "B2",
          "ticks": 83234,
          "time": 119.31463846875,
          "velocity": 0.11811023622047244
        },
        {
          "duration": 0.13761449999999797,
          "durationTicks": 96,
          "midi": 50,
          "name": "D3",
          "ticks": 83330,
          "time": 119.45225296875,
          "velocity": 0.11811023622047244
        },
        {
          "duration": 0.13761449999999797,
          "durationTicks": 96,
          "midi": 54,
          "name": "F#3",
          "ticks": 83330,
          "time": 119.45225296875,
          "velocity": 0.11811023622047244
        },
        {
          "duration": 0.13761449999999797,
          "durationTicks": 96,
          "midi": 47,
          "name": "B2",
          "ticks": 83330,
          "time": 119.45225296875,
          "velocity": 0.11811023622047244
        },
        {
          "duration": 0.13761450000001219,
          "durationTicks": 96,
          "midi": 47,
          "name": "B2",
          "ticks": 83426,
          "time": 119.58986746875,
          "velocity": 0.11811023622047244
        },
        {
          "duration": 0.5504579999999919,
          "durationTicks": 384,
          "midi": 69,
          "name": "A4",
          "ticks": 83522,
          "time": 119.72748196875001,
          "velocity": 0.11811023622047244
        },
        {
          "duration": 0.5504579999999919,
          "durationTicks": 384,
          "midi": 69,
          "name": "A4",
          "ticks": 83522,
          "time": 119.72748196875001,
          "velocity": 0.11811023622047244
        },
        {
          "duration": 0.13761449999999797,
          "durationTicks": 96,
          "midi": 54,
          "name": "F#3",
          "ticks": 83522,
          "time": 119.72748196875001,
          "velocity": 0.11811023622047244
        },
        {
          "duration": 0.27522899999999595,
          "durationTicks": 192,
          "midi": 43,
          "name": "G2",
          "ticks": 83522,
          "time": 119.72748196875001,
          "velocity": 0.11811023622047244
        },
        {
          "duration": 0.13761449999999797,
          "durationTicks": 96,
          "midi": 47,
          "name": "B2",
          "ticks": 83618,
          "time": 119.86509646875001,
          "velocity": 0.11811023622047244
        },
        {
          "duration": 0.13761449999999797,
          "durationTicks": 96,
          "midi": 50,
          "name": "D3",
          "ticks": 83714,
          "time": 120.00271096875001,
          "velocity": 0.11811023622047244
        },
        {
          "duration": 0.13761449999999797,
          "durationTicks": 96,
          "midi": 54,
          "name": "F#3",
          "ticks": 83714,
          "time": 120.00271096875001,
          "velocity": 0.11811023622047244
        },
        {
          "duration": 0.13761449999999797,
          "durationTicks": 96,
          "midi": 47,
          "name": "B2",
          "ticks": 83714,
          "time": 120.00271096875001,
          "velocity": 0.11811023622047244
        },
        {
          "duration": 0.13761449999999797,
          "durationTicks": 96,
          "midi": 47,
          "name": "B2",
          "ticks": 83810,
          "time": 120.14032546875,
          "velocity": 0.11811023622047244
        },
        {
          "duration": 0.27522899999999595,
          "durationTicks": 192,
          "midi": 66,
          "name": "F#4",
          "ticks": 83906,
          "time": 120.27793996875,
          "velocity": 0.11811023622047244
        },
        {
          "duration": 0.13761449999999797,
          "durationTicks": 96,
          "midi": 54,
          "name": "F#3",
          "ticks": 83906,
          "time": 120.27793996875,
          "velocity": 0.11811023622047244
        },
        {
          "duration": 0.27522899999999595,
          "durationTicks": 192,
          "midi": 66,
          "name": "F#4",
          "ticks": 83906,
          "time": 120.27793996875,
          "velocity": 0.11811023622047244
        },
        {
          "duration": 0.13761449999999797,
          "durationTicks": 96,
          "midi": 50,
          "name": "D3",
          "ticks": 83906,
          "time": 120.27793996875,
          "velocity": 0.11811023622047244
        },
        {
          "duration": 0.13761449999999797,
          "durationTicks": 96,
          "midi": 47,
          "name": "B2",
          "ticks": 83906,
          "time": 120.27793996875,
          "velocity": 0.11811023622047244
        },
        {
          "duration": 0.13761449999999797,
          "durationTicks": 96,
          "midi": 47,
          "name": "B2",
          "ticks": 84002,
          "time": 120.41555446875,
          "velocity": 0.11811023622047244
        },
        {
          "duration": 0.13761450000001219,
          "durationTicks": 96,
          "midi": 54,
          "name": "F#3",
          "ticks": 84098,
          "time": 120.55316896875,
          "velocity": 0.11811023622047244
        },
        {
          "duration": 0.27522900000001016,
          "durationTicks": 192,
          "midi": 43,
          "name": "G2",
          "ticks": 84098,
          "time": 120.55316896875,
          "velocity": 0.11811023622047244
        },
        {
          "duration": 0.5504580000000061,
          "durationTicks": 384,
          "midi": 64,
          "name": "E4",
          "ticks": 84098,
          "time": 120.55316896875,
          "velocity": 0.11811023622047244
        },
        {
          "duration": 0.5504580000000061,
          "durationTicks": 384,
          "midi": 64,
          "name": "E4",
          "ticks": 84098,
          "time": 120.55316896875,
          "velocity": 0.11811023622047244
        },
        {
          "duration": 0.13761449999999797,
          "durationTicks": 96,
          "midi": 47,
          "name": "B2",
          "ticks": 84194,
          "time": 120.69078346875001,
          "velocity": 0.11811023622047244
        },
        {
          "duration": 0.13761449999999797,
          "durationTicks": 96,
          "midi": 47,
          "name": "B2",
          "ticks": 84290,
          "time": 120.82839796875001,
          "velocity": 0.11811023622047244
        },
        {
          "duration": 0.13761449999999797,
          "durationTicks": 96,
          "midi": 50,
          "name": "D3",
          "ticks": 84290,
          "time": 120.82839796875001,
          "velocity": 0.11811023622047244
        },
        {
          "duration": 0.13761449999999797,
          "durationTicks": 96,
          "midi": 54,
          "name": "F#3",
          "ticks": 84290,
          "time": 120.82839796875001,
          "velocity": 0.11811023622047244
        },
        {
          "duration": 0.13761449999999797,
          "durationTicks": 96,
          "midi": 47,
          "name": "B2",
          "ticks": 84386,
          "time": 120.96601246875001,
          "velocity": 0.11811023622047244
        },
        {
          "duration": 0.27522899999999595,
          "durationTicks": 192,
          "midi": 62,
          "name": "D4",
          "ticks": 84482,
          "time": 121.10362696875,
          "velocity": 0.11811023622047244
        },
        {
          "duration": 0.13761449999999797,
          "durationTicks": 96,
          "midi": 50,
          "name": "D3",
          "ticks": 84482,
          "time": 121.10362696875,
          "velocity": 0.11811023622047244
        },
        {
          "duration": 0.13761449999999797,
          "durationTicks": 96,
          "midi": 54,
          "name": "F#3",
          "ticks": 84482,
          "time": 121.10362696875,
          "velocity": 0.11811023622047244
        },
        {
          "duration": 0.13761449999999797,
          "durationTicks": 96,
          "midi": 47,
          "name": "B2",
          "ticks": 84482,
          "time": 121.10362696875,
          "velocity": 0.11811023622047244
        },
        {
          "duration": 0.27522899999999595,
          "durationTicks": 192,
          "midi": 62,
          "name": "D4",
          "ticks": 84482,
          "time": 121.10362696875,
          "velocity": 0.11811023622047244
        },
        {
          "duration": 0.13761449999999797,
          "durationTicks": 96,
          "midi": 47,
          "name": "B2",
          "ticks": 84578,
          "time": 121.24124146875,
          "velocity": 0.11811023622047244
        },
        {
          "duration": 0.13761449999999797,
          "durationTicks": 96,
          "midi": 54,
          "name": "F#3",
          "ticks": 84674,
          "time": 121.37885596875,
          "velocity": 0.11811023622047244
        },
        {
          "duration": 0.27522900000001016,
          "durationTicks": 192,
          "midi": 43,
          "name": "G2",
          "ticks": 84674,
          "time": 121.37885596875,
          "velocity": 0.11811023622047244
        },
        {
          "duration": 0.5504580000000061,
          "durationTicks": 384,
          "midi": 61,
          "name": "C#4",
          "ticks": 84674,
          "time": 121.37885596875,
          "velocity": 0.11811023622047244
        },
        {
          "duration": 0.5504580000000061,
          "durationTicks": 384,
          "midi": 61,
          "name": "C#4",
          "ticks": 84674,
          "time": 121.37885596875,
          "velocity": 0.11811023622047244
        },
        {
          "duration": 0.13761450000001219,
          "durationTicks": 96,
          "midi": 47,
          "name": "B2",
          "ticks": 84770,
          "time": 121.51647046875,
          "velocity": 0.11811023622047244
        },
        {
          "duration": 0.13761449999999797,
          "durationTicks": 96,
          "midi": 50,
          "name": "D3",
          "ticks": 84866,
          "time": 121.65408496875001,
          "velocity": 0.11811023622047244
        },
        {
          "duration": 0.13761449999999797,
          "durationTicks": 96,
          "midi": 47,
          "name": "B2",
          "ticks": 84866,
          "time": 121.65408496875001,
          "velocity": 0.11811023622047244
        },
        {
          "duration": 0.13761449999999797,
          "durationTicks": 96,
          "midi": 54,
          "name": "F#3",
          "ticks": 84866,
          "time": 121.65408496875001,
          "velocity": 0.11811023622047244
        },
        {
          "duration": 0.13761449999999797,
          "durationTicks": 96,
          "midi": 47,
          "name": "B2",
          "ticks": 84962,
          "time": 121.79169946875001,
          "velocity": 0.11811023622047244
        },
        {
          "duration": 0.13761449999999797,
          "durationTicks": 96,
          "midi": 50,
          "name": "D3",
          "ticks": 85058,
          "time": 121.92931396875001,
          "velocity": 0.11811023622047244
        },
        {
          "duration": 0.13761449999999797,
          "durationTicks": 96,
          "midi": 47,
          "name": "B2",
          "ticks": 85058,
          "time": 121.92931396875001,
          "velocity": 0.11811023622047244
        },
        {
          "duration": 0.27522899999999595,
          "durationTicks": 192,
          "midi": 62,
          "name": "D4",
          "ticks": 85058,
          "time": 121.92931396875001,
          "velocity": 0.11811023622047244
        },
        {
          "duration": 0.13761449999999797,
          "durationTicks": 96,
          "midi": 54,
          "name": "F#3",
          "ticks": 85058,
          "time": 121.92931396875001,
          "velocity": 0.11811023622047244
        },
        {
          "duration": 0.27522899999999595,
          "durationTicks": 192,
          "midi": 62,
          "name": "D4",
          "ticks": 85058,
          "time": 121.92931396875001,
          "velocity": 0.11811023622047244
        },
        {
          "duration": 0.13761449999999797,
          "durationTicks": 96,
          "midi": 47,
          "name": "B2",
          "ticks": 85154,
          "time": 122.06692846875,
          "velocity": 0.11811023622047244
        },
        {
          "duration": 0.13761449999999797,
          "durationTicks": 96,
          "midi": 47,
          "name": "B2",
          "ticks": 85154,
          "time": 122.06692846875,
          "velocity": 0.11811023622047244
        },
        {
          "duration": 0.13761449999999797,
          "durationTicks": 96,
          "midi": 50,
          "name": "D3",
          "ticks": 85186,
          "time": 122.11279996875,
          "velocity": 0.11811023622047244
        },
        {
          "duration": 0.6880725000000041,
          "durationTicks": 480,
          "midi": 64,
          "name": "E4",
          "ticks": 85250,
          "time": 122.20454296875,
          "velocity": 0.11811023622047244
        },
        {
          "duration": 0.6880725000000041,
          "durationTicks": 480,
          "midi": 57,
          "name": "A3",
          "ticks": 85250,
          "time": 122.20454296875,
          "velocity": 0.11811023622047244
        },
        {
          "duration": 0.6880725000000041,
          "durationTicks": 480,
          "midi": 64,
          "name": "E4",
          "ticks": 85250,
          "time": 122.20454296875,
          "velocity": 0.11811023622047244
        },
        {
          "duration": 0.27522899999999595,
          "durationTicks": 192,
          "midi": 42,
          "name": "F#2",
          "ticks": 85250,
          "time": 122.20454296875,
          "velocity": 0.11811023622047244
        },
        {
          "duration": 0.13761449999999797,
          "durationTicks": 96,
          "midi": 52,
          "name": "E3",
          "ticks": 85250,
          "time": 122.20454296875,
          "velocity": 0.11811023622047244
        },
        {
          "duration": 0.13761449999999797,
          "durationTicks": 96,
          "midi": 45,
          "name": "A2",
          "ticks": 85346,
          "time": 122.34215746875,
          "velocity": 0.11811023622047244
        },
        {
          "duration": 0.13761450000001219,
          "durationTicks": 96,
          "midi": 49,
          "name": "C#3",
          "ticks": 85442,
          "time": 122.47977196875,
          "velocity": 0.11811023622047244
        },
        {
          "duration": 0.13761450000001219,
          "durationTicks": 96,
          "midi": 45,
          "name": "A2",
          "ticks": 85442,
          "time": 122.47977196875,
          "velocity": 0.11811023622047244
        },
        {
          "duration": 0.13761450000001219,
          "durationTicks": 96,
          "midi": 52,
          "name": "E3",
          "ticks": 85442,
          "time": 122.47977196875,
          "velocity": 0.11811023622047244
        },
        {
          "duration": 0.13761449999999797,
          "durationTicks": 96,
          "midi": 45,
          "name": "A2",
          "ticks": 85538,
          "time": 122.61738646875001,
          "velocity": 0.11811023622047244
        },
        {
          "duration": 0.13761449999999797,
          "durationTicks": 96,
          "midi": 52,
          "name": "E3",
          "ticks": 85634,
          "time": 122.75500096875001,
          "velocity": 0.11811023622047244
        },
        {
          "duration": 0.13761449999999797,
          "durationTicks": 96,
          "midi": 49,
          "name": "C#3",
          "ticks": 85634,
          "time": 122.75500096875001,
          "velocity": 0.11811023622047244
        },
        {
          "duration": 0.13761449999999797,
          "durationTicks": 96,
          "midi": 45,
          "name": "A2",
          "ticks": 85634,
          "time": 122.75500096875001,
          "velocity": 0.11811023622047244
        },
        {
          "duration": 0.13761449999999797,
          "durationTicks": 96,
          "midi": 71,
          "name": "B4",
          "ticks": 85730,
          "time": 122.89261546875001,
          "velocity": 0.11811023622047244
        },
        {
          "duration": 0.13761449999999797,
          "durationTicks": 96,
          "midi": 45,
          "name": "A2",
          "ticks": 85730,
          "time": 122.89261546875001,
          "velocity": 0.11811023622047244
        },
        {
          "duration": 0.13761449999999797,
          "durationTicks": 96,
          "midi": 71,
          "name": "B4",
          "ticks": 85730,
          "time": 122.89261546875001,
          "velocity": 0.11811023622047244
        },
        {
          "duration": 0.13761450000001219,
          "durationTicks": 96,
          "midi": 72,
          "name": "C5",
          "ticks": 85778,
          "time": 122.96142271875,
          "velocity": 0.11811023622047244
        },
        {
          "duration": 0.13761450000001219,
          "durationTicks": 96,
          "midi": 72,
          "name": "C5",
          "ticks": 85778,
          "time": 122.96142271875,
          "velocity": 0.11811023622047244
        },
        {
          "duration": 0.13761449999999797,
          "durationTicks": 96,
          "midi": 73,
          "name": "C#5",
          "ticks": 85826,
          "time": 123.03022996875,
          "velocity": 0.11811023622047244
        },
        {
          "duration": 0.13761449999999797,
          "durationTicks": 96,
          "midi": 57,
          "name": "A3",
          "ticks": 85826,
          "time": 123.03022996875,
          "velocity": 0.11811023622047244
        },
        {
          "duration": 0.13761449999999797,
          "durationTicks": 96,
          "midi": 52,
          "name": "E3",
          "ticks": 85826,
          "time": 123.03022996875,
          "velocity": 0.11811023622047244
        },
        {
          "duration": 0.27522899999999595,
          "durationTicks": 192,
          "midi": 42,
          "name": "F#2",
          "ticks": 85826,
          "time": 123.03022996875,
          "velocity": 0.11811023622047244
        },
        {
          "duration": 0.13761449999999797,
          "durationTicks": 96,
          "midi": 73,
          "name": "C#5",
          "ticks": 85826,
          "time": 123.03022996875,
          "velocity": 0.11811023622047244
        },
        {
          "duration": 0.13761449999999797,
          "durationTicks": 96,
          "midi": 45,
          "name": "A2",
          "ticks": 85922,
          "time": 123.16784446875,
          "velocity": 0.11811023622047244
        },
        {
          "duration": 0.13761449999999797,
          "durationTicks": 96,
          "midi": 59,
          "name": "B3",
          "ticks": 86018,
          "time": 123.30545896875,
          "velocity": 0.11811023622047244
        },
        {
          "duration": 0.13761449999999797,
          "durationTicks": 96,
          "midi": 49,
          "name": "C#3",
          "ticks": 86018,
          "time": 123.30545896875,
          "velocity": 0.11811023622047244
        },
        {
          "duration": 0.13761449999999797,
          "durationTicks": 96,
          "midi": 45,
          "name": "A2",
          "ticks": 86018,
          "time": 123.30545896875,
          "velocity": 0.11811023622047244
        },
        {
          "duration": 0.13761449999999797,
          "durationTicks": 96,
          "midi": 72,
          "name": "C5",
          "ticks": 86018,
          "time": 123.30545896875,
          "velocity": 0.11811023622047244
        },
        {
          "duration": 0.13761449999999797,
          "durationTicks": 96,
          "midi": 52,
          "name": "E3",
          "ticks": 86018,
          "time": 123.30545896875,
          "velocity": 0.11811023622047244
        },
        {
          "duration": 0.13761449999999797,
          "durationTicks": 96,
          "midi": 72,
          "name": "C5",
          "ticks": 86018,
          "time": 123.30545896875,
          "velocity": 0.11811023622047244
        },
        {
          "duration": 0.13761450000001219,
          "durationTicks": 96,
          "midi": 45,
          "name": "A2",
          "ticks": 86114,
          "time": 123.44307346875,
          "velocity": 0.11811023622047244
        },
        {
          "duration": 0.13761449999999797,
          "durationTicks": 96,
          "midi": 71,
          "name": "B4",
          "ticks": 86210,
          "time": 123.58068796875001,
          "velocity": 0.11811023622047244
        },
        {
          "duration": 0.13761449999999797,
          "durationTicks": 96,
          "midi": 52,
          "name": "E3",
          "ticks": 86210,
          "time": 123.58068796875001,
          "velocity": 0.11811023622047244
        },
        {
          "duration": 0.13761449999999797,
          "durationTicks": 96,
          "midi": 45,
          "name": "A2",
          "ticks": 86210,
          "time": 123.58068796875001,
          "velocity": 0.11811023622047244
        },
        {
          "duration": 0.13761449999999797,
          "durationTicks": 96,
          "midi": 60,
          "name": "C4",
          "ticks": 86210,
          "time": 123.58068796875001,
          "velocity": 0.11811023622047244
        },
        {
          "duration": 0.13761449999999797,
          "durationTicks": 96,
          "midi": 49,
          "name": "C#3",
          "ticks": 86210,
          "time": 123.58068796875001,
          "velocity": 0.11811023622047244
        },
        {
          "duration": 0.13761449999999797,
          "durationTicks": 96,
          "midi": 71,
          "name": "B4",
          "ticks": 86210,
          "time": 123.58068796875001,
          "velocity": 0.11811023622047244
        },
        {
          "duration": 0.13761449999999797,
          "durationTicks": 96,
          "midi": 45,
          "name": "A2",
          "ticks": 86306,
          "time": 123.71830246875001,
          "velocity": 0.11811023622047244
        },
        {
          "duration": 1.6513740000000041,
          "durationTicks": 1152,
          "midi": 69,
          "name": "A4",
          "ticks": 86402,
          "time": 123.85591696875001,
          "velocity": 0.11811023622047244
        },
        {
          "duration": 1.6513740000000041,
          "durationTicks": 1152,
          "midi": 69,
          "name": "A4",
          "ticks": 86402,
          "time": 123.85591696875001,
          "velocity": 0.11811023622047244
        },
        {
          "duration": 0.13761449999999797,
          "durationTicks": 96,
          "midi": 52,
          "name": "E3",
          "ticks": 86402,
          "time": 123.85591696875001,
          "velocity": 0.11811023622047244
        },
        {
          "duration": 0.27522899999999595,
          "durationTicks": 192,
          "midi": 42,
          "name": "F#2",
          "ticks": 86402,
          "time": 123.85591696875001,
          "velocity": 0.11811023622047244
        },
        {
          "duration": 1.6513740000000041,
          "durationTicks": 1152,
          "midi": 61,
          "name": "C#4",
          "ticks": 86402,
          "time": 123.85591696875001,
          "velocity": 0.11811023622047244
        },
        {
          "duration": 0.13761449999999797,
          "durationTicks": 96,
          "midi": 45,
          "name": "A2",
          "ticks": 86498,
          "time": 123.99353146875,
          "velocity": 0.11811023622047244
        },
        {
          "duration": 0.13761449999999797,
          "durationTicks": 96,
          "midi": 45,
          "name": "A2",
          "ticks": 86594,
          "time": 124.13114596875,
          "velocity": 0.11811023622047244
        },
        {
          "duration": 0.13761449999999797,
          "durationTicks": 96,
          "midi": 52,
          "name": "E3",
          "ticks": 86594,
          "time": 124.13114596875,
          "velocity": 0.11811023622047244
        },
        {
          "duration": 0.13761449999999797,
          "durationTicks": 96,
          "midi": 49,
          "name": "C#3",
          "ticks": 86594,
          "time": 124.13114596875,
          "velocity": 0.11811023622047244
        },
        {
          "duration": 0.13761449999999797,
          "durationTicks": 96,
          "midi": 45,
          "name": "A2",
          "ticks": 86690,
          "time": 124.26876046875,
          "velocity": 0.11811023622047244
        },
        {
          "duration": 0.13761450000001219,
          "durationTicks": 96,
          "midi": 45,
          "name": "A2",
          "ticks": 86786,
          "time": 124.40637496875,
          "velocity": 0.11811023622047244
        },
        {
          "duration": 0.13761450000001219,
          "durationTicks": 96,
          "midi": 49,
          "name": "C#3",
          "ticks": 86786,
          "time": 124.40637496875,
          "velocity": 0.11811023622047244
        },
        {
          "duration": 0.13761450000001219,
          "durationTicks": 96,
          "midi": 52,
          "name": "E3",
          "ticks": 86786,
          "time": 124.40637496875,
          "velocity": 0.11811023622047244
        },
        {
          "duration": 0.13761449999999797,
          "durationTicks": 96,
          "midi": 45,
          "name": "A2",
          "ticks": 86882,
          "time": 124.54398946875001,
          "velocity": 0.11811023622047244
        },
        {
          "duration": 0.13761449999999797,
          "durationTicks": 96,
          "midi": 52,
          "name": "E3",
          "ticks": 86978,
          "time": 124.68160396875001,
          "velocity": 0.11811023622047244
        },
        {
          "duration": 0.27522899999999595,
          "durationTicks": 192,
          "midi": 42,
          "name": "F#2",
          "ticks": 86978,
          "time": 124.68160396875001,
          "velocity": 0.11811023622047244
        },
        {
          "duration": 0.13761449999999797,
          "durationTicks": 96,
          "midi": 45,
          "name": "A2",
          "ticks": 87074,
          "time": 124.81921846875001,
          "velocity": 0.11811023622047244
        },
        {
          "duration": 0.13761449999999797,
          "durationTicks": 96,
          "midi": 52,
          "name": "E3",
          "ticks": 87170,
          "time": 124.95683296875,
          "velocity": 0.11811023622047244
        },
        {
          "duration": 0.13761449999999797,
          "durationTicks": 96,
          "midi": 49,
          "name": "C#3",
          "ticks": 87170,
          "time": 124.95683296875,
          "velocity": 0.11811023622047244
        },
        {
          "duration": 0.13761449999999797,
          "durationTicks": 96,
          "midi": 45,
          "name": "A2",
          "ticks": 87170,
          "time": 124.95683296875,
          "velocity": 0.11811023622047244
        },
        {
          "duration": 0.13761449999999797,
          "durationTicks": 96,
          "midi": 45,
          "name": "A2",
          "ticks": 87266,
          "time": 125.09444746875,
          "velocity": 0.11811023622047244
        },
        {
          "duration": 0.13761449999999797,
          "durationTicks": 96,
          "midi": 45,
          "name": "A2",
          "ticks": 87362,
          "time": 125.23206196875,
          "velocity": 0.11811023622047244
        },
        {
          "duration": 0.13761449999999797,
          "durationTicks": 96,
          "midi": 52,
          "name": "E3",
          "ticks": 87362,
          "time": 125.23206196875,
          "velocity": 0.11811023622047244
        },
        {
          "duration": 0.13761449999999797,
          "durationTicks": 96,
          "midi": 49,
          "name": "C#3",
          "ticks": 87362,
          "time": 125.23206196875,
          "velocity": 0.11811023622047244
        },
        {
          "duration": 0.13761450000001219,
          "durationTicks": 96,
          "midi": 45,
          "name": "A2",
          "ticks": 87458,
          "time": 125.36967646875,
          "velocity": 0.11811023622047244
        },
        {
          "duration": 0.13761450000001219,
          "durationTicks": 96,
          "midi": 45,
          "name": "A2",
          "ticks": 87458,
          "time": 125.36967646875,
          "velocity": 0.11811023622047244
        },
        {
          "duration": 0.8256869999999878,
          "durationTicks": 576,
          "midi": 59,
          "name": "B3",
          "ticks": 87554,
          "time": 125.50729096875001,
          "velocity": 0.11811023622047244
        },
        {
          "duration": 0.13761449999999797,
          "durationTicks": 96,
          "midi": 47,
          "name": "B2",
          "ticks": 87554,
          "time": 125.50729096875001,
          "velocity": 0.11811023622047244
        },
        {
          "duration": 0.27522899999999595,
          "durationTicks": 192,
          "midi": 40,
          "name": "E2",
          "ticks": 87554,
          "time": 125.50729096875001,
          "velocity": 0.11811023622047244
        },
        {
          "duration": 0.8256869999999878,
          "durationTicks": 576,
          "midi": 59,
          "name": "B3",
          "ticks": 87554,
          "time": 125.50729096875001,
          "velocity": 0.11811023622047244
        },
        {
          "duration": 0.13761449999999797,
          "durationTicks": 96,
          "midi": 43,
          "name": "G2",
          "ticks": 87650,
          "time": 125.64490546875001,
          "velocity": 0.11811023622047244
        },
        {
          "duration": 0.13761449999999797,
          "durationTicks": 96,
          "midi": 47,
          "name": "B2",
          "ticks": 87746,
          "time": 125.78251996875001,
          "velocity": 0.11811023622047244
        },
        {
          "duration": 0.13761449999999797,
          "durationTicks": 96,
          "midi": 43,
          "name": "G2",
          "ticks": 87746,
          "time": 125.78251996875001,
          "velocity": 0.11811023622047244
        },
        {
          "duration": 0.13761449999999797,
          "durationTicks": 96,
          "midi": 47,
          "name": "B2",
          "ticks": 87746,
          "time": 125.78251996875001,
          "velocity": 0.11811023622047244
        },
        {
          "duration": 0.13761449999999797,
          "durationTicks": 96,
          "midi": 43,
          "name": "G2",
          "ticks": 87842,
          "time": 125.92013446875,
          "velocity": 0.11811023622047244
        },
        {
          "duration": 0.13761449999999797,
          "durationTicks": 96,
          "midi": 47,
          "name": "B2",
          "ticks": 87938,
          "time": 126.05774896875,
          "velocity": 0.11811023622047244
        },
        {
          "duration": 0.13761449999999797,
          "durationTicks": 96,
          "midi": 47,
          "name": "B2",
          "ticks": 87938,
          "time": 126.05774896875,
          "velocity": 0.11811023622047244
        },
        {
          "duration": 0.13761449999999797,
          "durationTicks": 96,
          "midi": 43,
          "name": "G2",
          "ticks": 87938,
          "time": 126.05774896875,
          "velocity": 0.11811023622047244
        },
        {
          "duration": 0.13761449999999797,
          "durationTicks": 96,
          "midi": 43,
          "name": "G2",
          "ticks": 88034,
          "time": 126.19536346875,
          "velocity": 0.11811023622047244
        },
        {
          "duration": 0.5504580000000061,
          "durationTicks": 384,
          "midi": 69,
          "name": "A4",
          "ticks": 88130,
          "time": 126.33297796875,
          "velocity": 0.11811023622047244
        },
        {
          "duration": 0.5504580000000061,
          "durationTicks": 384,
          "midi": 69,
          "name": "A4",
          "ticks": 88130,
          "time": 126.33297796875,
          "velocity": 0.11811023622047244
        },
        {
          "duration": 0.27522900000001016,
          "durationTicks": 192,
          "midi": 40,
          "name": "E2",
          "ticks": 88130,
          "time": 126.33297796875,
          "velocity": 0.11811023622047244
        },
        {
          "duration": 0.13761450000001219,
          "durationTicks": 96,
          "midi": 47,
          "name": "B2",
          "ticks": 88130,
          "time": 126.33297796875,
          "velocity": 0.11811023622047244
        },
        {
          "duration": 0.13761449999999797,
          "durationTicks": 96,
          "midi": 43,
          "name": "G2",
          "ticks": 88226,
          "time": 126.47059246875001,
          "velocity": 0.11811023622047244
        },
        {
          "duration": 0.13761449999999797,
          "durationTicks": 96,
          "midi": 47,
          "name": "B2",
          "ticks": 88322,
          "time": 126.60820696875001,
          "velocity": 0.11811023622047244
        },
        {
          "duration": 0.13761449999999797,
          "durationTicks": 96,
          "midi": 47,
          "name": "B2",
          "ticks": 88322,
          "time": 126.60820696875001,
          "velocity": 0.11811023622047244
        },
        {
          "duration": 0.13761449999999797,
          "durationTicks": 96,
          "midi": 43,
          "name": "G2",
          "ticks": 88322,
          "time": 126.60820696875001,
          "velocity": 0.11811023622047244
        },
        {
          "duration": 0.13761449999999797,
          "durationTicks": 96,
          "midi": 43,
          "name": "G2",
          "ticks": 88418,
          "time": 126.74582146875001,
          "velocity": 0.11811023622047244
        },
        {
          "duration": 0.27522899999999595,
          "durationTicks": 192,
          "midi": 66,
          "name": "F#4",
          "ticks": 88514,
          "time": 126.88343596875,
          "velocity": 0.11811023622047244
        },
        {
          "duration": 0.13761449999999797,
          "durationTicks": 96,
          "midi": 43,
          "name": "G2",
          "ticks": 88514,
          "time": 126.88343596875,
          "velocity": 0.11811023622047244
        },
        {
          "duration": 0.13761449999999797,
          "durationTicks": 96,
          "midi": 47,
          "name": "B2",
          "ticks": 88514,
          "time": 126.88343596875,
          "velocity": 0.11811023622047244
        },
        {
          "duration": 0.13761449999999797,
          "durationTicks": 96,
          "midi": 47,
          "name": "B2",
          "ticks": 88514,
          "time": 126.88343596875,
          "velocity": 0.11811023622047244
        },
        {
          "duration": 0.27522899999999595,
          "durationTicks": 192,
          "midi": 66,
          "name": "F#4",
          "ticks": 88514,
          "time": 126.88343596875,
          "velocity": 0.11811023622047244
        },
        {
          "duration": 0.6880725000000041,
          "durationTicks": 480,
          "midi": 66,
          "name": "F#4",
          "ticks": 88514,
          "time": 126.88343596875,
          "velocity": 0.11811023622047244
        },
        {
          "duration": 0.13761449999999797,
          "durationTicks": 96,
          "midi": 43,
          "name": "G2",
          "ticks": 88610,
          "time": 127.02105046875,
          "velocity": 0.11811023622047244
        },
        {
          "duration": 0.13761449999999797,
          "durationTicks": 96,
          "midi": 43,
          "name": "G2",
          "ticks": 88610,
          "time": 127.02105046875,
          "velocity": 0.11811023622047244
        },
        {
          "duration": 0.13761449999999797,
          "durationTicks": 96,
          "midi": 52,
          "name": "E3",
          "ticks": 88706,
          "time": 127.15866496875,
          "velocity": 0.11811023622047244
        },
        {
          "duration": 0.41284350000000813,
          "durationTicks": 288,
          "midi": 64,
          "name": "E4",
          "ticks": 88706,
          "time": 127.15866496875,
          "velocity": 0.11811023622047244
        },
        {
          "duration": 0.5060199843749871,
          "durationTicks": 353,
          "midi": 64,
          "name": "E4",
          "ticks": 88706,
          "time": 127.15866496875,
          "velocity": 0.11811023622047244
        },
        {
          "duration": 0.13761450000001219,
          "durationTicks": 96,
          "midi": 45,
          "name": "A2",
          "ticks": 88802,
          "time": 127.29627946875,
          "velocity": 0.11811023622047244
        },
        {
          "duration": 0.13761450000001219,
          "durationTicks": 96,
          "midi": 45,
          "name": "A2",
          "ticks": 88802,
          "time": 127.29627946875,
          "velocity": 0.11811023622047244
        },
        {
          "duration": 0.13761449999999797,
          "durationTicks": 96,
          "midi": 52,
          "name": "E3",
          "ticks": 88898,
          "time": 127.43389396875001,
          "velocity": 0.11811023622047244
        },
        {
          "duration": 0.13761449999999797,
          "durationTicks": 96,
          "midi": 52,
          "name": "E3",
          "ticks": 88898,
          "time": 127.43389396875001,
          "velocity": 0.11811023622047244
        },
        {
          "duration": 0.13761449999999797,
          "durationTicks": 96,
          "midi": 49,
          "name": "C#3",
          "ticks": 88898,
          "time": 127.43389396875001,
          "velocity": 0.11811023622047244
        },
        {
          "duration": 0.13761449999999797,
          "durationTicks": 96,
          "midi": 45,
          "name": "A2",
          "ticks": 88994,
          "time": 127.57150846875001,
          "velocity": 0.11811023622047244
        },
        {
          "duration": 0.044438015625019034,
          "durationTicks": 31,
          "midi": 64,
          "name": "E4",
          "ticks": 89059,
          "time": 127.66468495312499,
          "velocity": 0.11811023622047244
        },
        {
          "duration": 0.27522900000001016,
          "durationTicks": 192,
          "midi": 62,
          "name": "D4",
          "ticks": 89091,
          "time": 127.710556453125,
          "velocity": 0.11811023622047244
        },
        {
          "duration": 0.27522900000001016,
          "durationTicks": 192,
          "midi": 62,
          "name": "D4",
          "ticks": 89091,
          "time": 127.710556453125,
          "velocity": 0.11811023622047244
        },
        {
          "duration": 0.13761450000001219,
          "durationTicks": 96,
          "midi": 52,
          "name": "E3",
          "ticks": 89091,
          "time": 127.710556453125,
          "velocity": 0.11811023622047244
        },
        {
          "duration": 0.13761450000001219,
          "durationTicks": 96,
          "midi": 52,
          "name": "E3",
          "ticks": 89091,
          "time": 127.710556453125,
          "velocity": 0.11811023622047244
        },
        {
          "duration": 0.13761450000001219,
          "durationTicks": 96,
          "midi": 49,
          "name": "C#3",
          "ticks": 89091,
          "time": 127.710556453125,
          "velocity": 0.11811023622047244
        },
        {
          "duration": 0.13761449999999797,
          "durationTicks": 96,
          "midi": 45,
          "name": "A2",
          "ticks": 89187,
          "time": 127.848170953125,
          "velocity": 0.11811023622047244
        },
        {
          "duration": 0.5504579999999919,
          "durationTicks": 384,
          "midi": 64,
          "name": "E4",
          "ticks": 89283,
          "time": 127.985785453125,
          "velocity": 0.11811023622047244
        },
        {
          "duration": 0.13761449999998376,
          "durationTicks": 96,
          "midi": 52,
          "name": "E3",
          "ticks": 89283,
          "time": 127.985785453125,
          "velocity": 0.11811023622047244
        },
        {
          "duration": 0.5504579999999919,
          "durationTicks": 384,
          "midi": 64,
          "name": "E4",
          "ticks": 89283,
          "time": 127.985785453125,
          "velocity": 0.11811023622047244
        },
        {
          "duration": 0.13761450000001219,
          "durationTicks": 96,
          "midi": 45,
          "name": "A2",
          "ticks": 89379,
          "time": 128.123399953125,
          "velocity": 0.11811023622047244
        },
        {
          "duration": 0.13761450000001219,
          "durationTicks": 96,
          "midi": 45,
          "name": "A2",
          "ticks": 89379,
          "time": 128.123399953125,
          "velocity": 0.11811023622047244
        },
        {
          "duration": 0.13761450000001219,
          "durationTicks": 96,
          "midi": 49,
          "name": "C#3",
          "ticks": 89475,
          "time": 128.261014453125,
          "velocity": 0.11811023622047244
        },
        {
          "duration": 0.13761450000001219,
          "durationTicks": 96,
          "midi": 52,
          "name": "E3",
          "ticks": 89475,
          "time": 128.261014453125,
          "velocity": 0.11811023622047244
        },
        {
          "duration": 0.13761450000001219,
          "durationTicks": 96,
          "midi": 52,
          "name": "E3",
          "ticks": 89475,
          "time": 128.261014453125,
          "velocity": 0.11811023622047244
        },
        {
          "duration": 0.13761449999998376,
          "durationTicks": 96,
          "midi": 45,
          "name": "A2",
          "ticks": 89571,
          "time": 128.398628953125,
          "velocity": 0.11811023622047244
        },
        {
          "duration": 0.13761450000001219,
          "durationTicks": 96,
          "midi": 52,
          "name": "E3",
          "ticks": 89667,
          "time": 128.536243453125,
          "velocity": 0.11811023622047244
        },
        {
          "duration": 0.13761450000001219,
          "durationTicks": 96,
          "midi": 52,
          "name": "E3",
          "ticks": 89667,
          "time": 128.536243453125,
          "velocity": 0.11811023622047244
        },
        {
          "duration": 0.27522899999999595,
          "durationTicks": 192,
          "midi": 66,
          "name": "F#4",
          "ticks": 89667,
          "time": 128.536243453125,
          "velocity": 0.11811023622047244
        },
        {
          "duration": 0.27522899999999595,
          "durationTicks": 192,
          "midi": 66,
          "name": "F#4",
          "ticks": 89667,
          "time": 128.536243453125,
          "velocity": 0.11811023622047244
        },
        {
          "duration": 0.13761450000001219,
          "durationTicks": 96,
          "midi": 49,
          "name": "C#3",
          "ticks": 89667,
          "time": 128.536243453125,
          "velocity": 0.11811023622047244
        },
        {
          "duration": 0.13761449999998376,
          "durationTicks": 96,
          "midi": 45,
          "name": "A2",
          "ticks": 89763,
          "time": 128.673857953125,
          "velocity": 0.11811023622047244
        },
        {
          "duration": 0.13761449999998376,
          "durationTicks": 96,
          "midi": 45,
          "name": "A2",
          "ticks": 89763,
          "time": 128.673857953125,
          "velocity": 0.11811023622047244
        },
        {
          "duration": 0.8256870000000163,
          "durationTicks": 576,
          "midi": 58,
          "name": "A#3",
          "ticks": 89859,
          "time": 128.811472453125,
          "velocity": 0.11811023622047244
        },
        {
          "duration": 0.8256870000000163,
          "durationTicks": 576,
          "midi": 61,
          "name": "C#4",
          "ticks": 89859,
          "time": 128.811472453125,
          "velocity": 0.11811023622047244
        },
        {
          "duration": 0.8256870000000163,
          "durationTicks": 576,
          "midi": 61,
          "name": "C#4",
          "ticks": 89859,
          "time": 128.811472453125,
          "velocity": 0.11811023622047244
        },
        {
          "duration": 0.13761450000001219,
          "durationTicks": 96,
          "midi": 52,
          "name": "E3",
          "ticks": 89859,
          "time": 128.811472453125,
          "velocity": 0.11811023622047244
        },
        {
          "duration": 0.13761449999998376,
          "durationTicks": 96,
          "midi": 46,
          "name": "A#2",
          "ticks": 89955,
          "time": 128.949086953125,
          "velocity": 0.11811023622047244
        },
        {
          "duration": 0.13761449999998376,
          "durationTicks": 96,
          "midi": 46,
          "name": "A#2",
          "ticks": 89955,
          "time": 128.949086953125,
          "velocity": 0.11811023622047244
        },
        {
          "duration": 0.13761450000001219,
          "durationTicks": 96,
          "midi": 49,
          "name": "C#3",
          "ticks": 90051,
          "time": 129.086701453125,
          "velocity": 0.11811023622047244
        },
        {
          "duration": 0.13761450000001219,
          "durationTicks": 96,
          "midi": 52,
          "name": "E3",
          "ticks": 90051,
          "time": 129.086701453125,
          "velocity": 0.11811023622047244
        },
        {
          "duration": 0.13761450000001219,
          "durationTicks": 96,
          "midi": 52,
          "name": "E3",
          "ticks": 90051,
          "time": 129.086701453125,
          "velocity": 0.11811023622047244
        },
        {
          "duration": 0.13761450000001219,
          "durationTicks": 96,
          "midi": 46,
          "name": "A#2",
          "ticks": 90147,
          "time": 129.224315953125,
          "velocity": 0.11811023622047244
        },
        {
          "duration": 0.13761449999998376,
          "durationTicks": 96,
          "midi": 49,
          "name": "C#3",
          "ticks": 90243,
          "time": 129.361930453125,
          "velocity": 0.11811023622047244
        },
        {
          "duration": 0.13761449999998376,
          "durationTicks": 96,
          "midi": 52,
          "name": "E3",
          "ticks": 90243,
          "time": 129.361930453125,
          "velocity": 0.11811023622047244
        },
        {
          "duration": 0.13761449999998376,
          "durationTicks": 96,
          "midi": 52,
          "name": "E3",
          "ticks": 90243,
          "time": 129.361930453125,
          "velocity": 0.11811023622047244
        },
        {
          "duration": 0.27522899999999595,
          "durationTicks": 192,
          "midi": 52,
          "name": "E3",
          "ticks": 90243,
          "time": 129.361930453125,
          "velocity": 0.11811023622047244
        },
        {
          "duration": 0.13761450000001219,
          "durationTicks": 96,
          "midi": 46,
          "name": "A#2",
          "ticks": 90339,
          "time": 129.499544953125,
          "velocity": 0.11811023622047244
        },
        {
          "duration": 0.8256869999999878,
          "durationTicks": 576,
          "midi": 64,
          "name": "E4",
          "ticks": 90435,
          "time": 129.637159453125,
          "velocity": 0.11811023622047244
        },
        {
          "duration": 0.8256869999999878,
          "durationTicks": 576,
          "midi": 61,
          "name": "C#4",
          "ticks": 90435,
          "time": 129.637159453125,
          "velocity": 0.11811023622047244
        },
        {
          "duration": 0.8256869999999878,
          "durationTicks": 576,
          "midi": 64,
          "name": "E4",
          "ticks": 90435,
          "time": 129.637159453125,
          "velocity": 0.11811023622047244
        },
        {
          "duration": 0.13761449999998376,
          "durationTicks": 96,
          "midi": 52,
          "name": "E3",
          "ticks": 90435,
          "time": 129.637159453125,
          "velocity": 0.11811023622047244
        },
        {
          "duration": 0.8256869999999878,
          "durationTicks": 576,
          "midi": 58,
          "name": "A#3",
          "ticks": 90435,
          "time": 129.637159453125,
          "velocity": 0.11811023622047244
        },
        {
          "duration": 0.13761450000001219,
          "durationTicks": 96,
          "midi": 46,
          "name": "A#2",
          "ticks": 90531,
          "time": 129.774773953125,
          "velocity": 0.11811023622047244
        },
        {
          "duration": 0.13761450000001219,
          "durationTicks": 96,
          "midi": 46,
          "name": "A#2",
          "ticks": 90531,
          "time": 129.774773953125,
          "velocity": 0.11811023622047244
        },
        {
          "duration": 0.13761449999998376,
          "durationTicks": 96,
          "midi": 52,
          "name": "E3",
          "ticks": 90627,
          "time": 129.912388453125,
          "velocity": 0.11811023622047244
        },
        {
          "duration": 0.13761449999998376,
          "durationTicks": 96,
          "midi": 49,
          "name": "C#3",
          "ticks": 90627,
          "time": 129.912388453125,
          "velocity": 0.11811023622047244
        },
        {
          "duration": 0.13761449999998376,
          "durationTicks": 96,
          "midi": 52,
          "name": "E3",
          "ticks": 90627,
          "time": 129.912388453125,
          "velocity": 0.11811023622047244
        },
        {
          "duration": 0.13761450000001219,
          "durationTicks": 96,
          "midi": 46,
          "name": "A#2",
          "ticks": 90723,
          "time": 130.050002953125,
          "velocity": 0.11811023622047244
        },
        {
          "duration": 0.13761450000001219,
          "durationTicks": 96,
          "midi": 49,
          "name": "C#3",
          "ticks": 90819,
          "time": 130.187617453125,
          "velocity": 0.11811023622047244
        },
        {
          "duration": 0.13761450000001219,
          "durationTicks": 96,
          "midi": 52,
          "name": "E3",
          "ticks": 90819,
          "time": 130.187617453125,
          "velocity": 0.11811023622047244
        },
        {
          "duration": 0.13761450000001219,
          "durationTicks": 96,
          "midi": 52,
          "name": "E3",
          "ticks": 90819,
          "time": 130.187617453125,
          "velocity": 0.11811023622047244
        },
        {
          "duration": 0.27522899999999595,
          "durationTicks": 192,
          "midi": 49,
          "name": "C#3",
          "ticks": 90819,
          "time": 130.187617453125,
          "velocity": 0.11811023622047244
        },
        {
          "duration": 0.27522899999999595,
          "durationTicks": 192,
          "midi": 47,
          "name": "B2",
          "ticks": 91011,
          "time": 130.462846453125,
          "velocity": 0.11811023622047244
        },
        {
          "duration": 0.5504579999999919,
          "durationTicks": 384,
          "midi": 64,
          "name": "E4",
          "ticks": 91011,
          "time": 130.462846453125,
          "velocity": 0.11811023622047244
        },
        {
          "duration": 0.5504579999999919,
          "durationTicks": 384,
          "midi": 64,
          "name": "E4",
          "ticks": 91011,
          "time": 130.462846453125,
          "velocity": 0.11811023622047244
        },
        {
          "duration": 0.8256870000000163,
          "durationTicks": 576,
          "midi": 47,
          "name": "B2",
          "ticks": 91011,
          "time": 130.462846453125,
          "velocity": 0.11811023622047244
        },
        {
          "duration": 0.5504579999999919,
          "durationTicks": 384,
          "midi": 63,
          "name": "D#4",
          "ticks": 91011,
          "time": 130.462846453125,
          "velocity": 0.11811023622047244
        },
        {
          "duration": 0.13761450000001219,
          "durationTicks": 96,
          "midi": 54,
          "name": "F#3",
          "ticks": 91203,
          "time": 130.738075453125,
          "velocity": 0.11811023622047244
        },
        {
          "duration": 0.13761450000001219,
          "durationTicks": 96,
          "midi": 50,
          "name": "D3",
          "ticks": 91203,
          "time": 130.738075453125,
          "velocity": 0.11811023622047244
        },
        {
          "duration": 0.5504580000000203,
          "durationTicks": 384,
          "midi": 50,
          "name": "D3",
          "ticks": 91203,
          "time": 130.738075453125,
          "velocity": 0.11811023622047244
        },
        {
          "duration": 0.13761450000001219,
          "durationTicks": 96,
          "midi": 57,
          "name": "A3",
          "ticks": 91395,
          "time": 131.013304453125,
          "velocity": 0.11811023622047244
        },
        {
          "duration": 0.13761450000001219,
          "durationTicks": 96,
          "midi": 62,
          "name": "D4",
          "ticks": 91395,
          "time": 131.013304453125,
          "velocity": 0.11811023622047244
        },
        {
          "duration": 0.13761450000001219,
          "durationTicks": 96,
          "midi": 62,
          "name": "D4",
          "ticks": 91395,
          "time": 131.013304453125,
          "velocity": 0.11811023622047244
        },
        {
          "duration": 0.13761450000001219,
          "durationTicks": 96,
          "midi": 54,
          "name": "F#3",
          "ticks": 91395,
          "time": 131.013304453125,
          "velocity": 0.11811023622047244
        },
        {
          "duration": 0.13761450000001219,
          "durationTicks": 96,
          "midi": 62,
          "name": "D4",
          "ticks": 91395,
          "time": 131.013304453125,
          "velocity": 0.11811023622047244
        },
        {
          "duration": 0.27522900000002437,
          "durationTicks": 192,
          "midi": 54,
          "name": "F#3",
          "ticks": 91395,
          "time": 131.013304453125,
          "velocity": 0.11811023622047244
        },
        {
          "duration": 0.5504579999999919,
          "durationTicks": 384,
          "midi": 61,
          "name": "C#4",
          "ticks": 91587,
          "time": 131.288533453125,
          "velocity": 0.11811023622047244
        },
        {
          "duration": 0.27522899999999595,
          "durationTicks": 192,
          "midi": 45,
          "name": "A2",
          "ticks": 91587,
          "time": 131.288533453125,
          "velocity": 0.11811023622047244
        },
        {
          "duration": 0.5504579999999919,
          "durationTicks": 384,
          "midi": 61,
          "name": "C#4",
          "ticks": 91587,
          "time": 131.288533453125,
          "velocity": 0.11811023622047244
        },
        {
          "duration": 0.8256869999999878,
          "durationTicks": 576,
          "midi": 45,
          "name": "A2",
          "ticks": 91587,
          "time": 131.288533453125,
          "velocity": 0.11811023622047244
        },
        {
          "duration": 0.5504579999999919,
          "durationTicks": 384,
          "midi": 61,
          "name": "C#4",
          "ticks": 91587,
          "time": 131.288533453125,
          "velocity": 0.11811023622047244
        },
        {
          "duration": 0.13761449999998376,
          "durationTicks": 96,
          "midi": 49,
          "name": "C#3",
          "ticks": 91779,
          "time": 131.563762453125,
          "velocity": 0.11811023622047244
        },
        {
          "duration": 0.13761449999998376,
          "durationTicks": 96,
          "midi": 52,
          "name": "E3",
          "ticks": 91779,
          "time": 131.563762453125,
          "velocity": 0.11811023622047244
        },
        {
          "duration": 0.5504579999999919,
          "durationTicks": 384,
          "midi": 49,
          "name": "C#3",
          "ticks": 91779,
          "time": 131.563762453125,
          "velocity": 0.11811023622047244
        },
        {
          "duration": 0.13761449999998376,
          "durationTicks": 96,
          "midi": 62,
          "name": "D4",
          "ticks": 91971,
          "time": 131.838991453125,
          "velocity": 0.11811023622047244
        },
        {
          "duration": 0.13761449999998376,
          "durationTicks": 96,
          "midi": 62,
          "name": "D4",
          "ticks": 91971,
          "time": 131.838991453125,
          "velocity": 0.11811023622047244
        },
        {
          "duration": 0.13761449999998376,
          "durationTicks": 96,
          "midi": 62,
          "name": "D4",
          "ticks": 91971,
          "time": 131.838991453125,
          "velocity": 0.11811023622047244
        },
        {
          "duration": 0.13761449999998376,
          "durationTicks": 96,
          "midi": 52,
          "name": "E3",
          "ticks": 91971,
          "time": 131.838991453125,
          "velocity": 0.11811023622047244
        },
        {
          "duration": 0.13761449999998376,
          "durationTicks": 96,
          "midi": 57,
          "name": "A3",
          "ticks": 91971,
          "time": 131.838991453125,
          "velocity": 0.11811023622047244
        },
        {
          "duration": 0.27522899999999595,
          "durationTicks": 192,
          "midi": 52,
          "name": "E3",
          "ticks": 91971,
          "time": 131.838991453125,
          "velocity": 0.11811023622047244
        },
        {
          "duration": 1.6513740000000041,
          "durationTicks": 1152,
          "midi": 38,
          "name": "D2",
          "ticks": 92163,
          "time": 132.114220453125,
          "velocity": 0.11811023622047244
        },
        {
          "duration": 0.5504579999999919,
          "durationTicks": 384,
          "midi": 57,
          "name": "A3",
          "ticks": 92163,
          "time": 132.114220453125,
          "velocity": 0.11811023622047244
        },
        {
          "duration": 0.27522899999999595,
          "durationTicks": 192,
          "midi": 50,
          "name": "D3",
          "ticks": 92547,
          "time": 132.664678453125,
          "velocity": 0.11811023622047244
        },
        {
          "duration": 0.5504580000000203,
          "durationTicks": 384,
          "midi": 52,
          "name": "E3",
          "ticks": 92739,
          "time": 132.939907453125,
          "velocity": 0.11811023622047244
        },
        {
          "duration": 0.27522899999999595,
          "durationTicks": 192,
          "midi": 50,
          "name": "D3",
          "ticks": 93123,
          "time": 133.490365453125,
          "velocity": 0.11811023622047244
        },
        {
          "duration": 0.5504579999999919,
          "durationTicks": 384,
          "midi": 44,
          "name": "G#2",
          "ticks": 93315,
          "time": 133.765594453125,
          "velocity": 0.11811023622047244
        },
        {
          "duration": 0.27522899999999595,
          "durationTicks": 192,
          "midi": 50,
          "name": "D3",
          "ticks": 93699,
          "time": 134.316052453125,
          "velocity": 0.11811023622047244
        },
        {
          "duration": 0.5504580000000203,
          "durationTicks": 384,
          "midi": 52,
          "name": "E3",
          "ticks": 93891,
          "time": 134.591281453125,
          "velocity": 0.11811023622047244
        },
        {
          "duration": 0.27522899999999595,
          "durationTicks": 192,
          "midi": 50,
          "name": "D3",
          "ticks": 94275,
          "time": 135.141739453125,
          "velocity": 0.11811023622047244
        },
        {
          "duration": 0.5504579999999919,
          "durationTicks": 384,
          "midi": 43,
          "name": "G2",
          "ticks": 94467,
          "time": 135.416968453125,
          "velocity": 0.11811023622047244
        },
        {
          "duration": 0.27522899999999595,
          "durationTicks": 192,
          "midi": 50,
          "name": "D3",
          "ticks": 94851,
          "time": 135.967426453125,
          "velocity": 0.11811023622047244
        },
        {
          "duration": 0.5504579999999919,
          "durationTicks": 384,
          "midi": 52,
          "name": "E3",
          "ticks": 95043,
          "time": 136.242655453125,
          "velocity": 0.11811023622047244
        },
        {
          "duration": 0.27522900000002437,
          "durationTicks": 192,
          "midi": 55,
          "name": "G3",
          "ticks": 95427,
          "time": 136.793113453125,
          "velocity": 0.11811023622047244
        },
        {
          "duration": 1.6513739999999757,
          "durationTicks": 1152,
          "midi": 38,
          "name": "D2",
          "ticks": 95619,
          "time": 137.068342453125,
          "velocity": 0.11811023622047244
        },
        {
          "duration": 0.5504579999999919,
          "durationTicks": 384,
          "midi": 54,
          "name": "F#3",
          "ticks": 95619,
          "time": 137.068342453125,
          "velocity": 0.11811023622047244
        },
        {
          "duration": 0.27522899999999595,
          "durationTicks": 192,
          "midi": 52,
          "name": "E3",
          "ticks": 96003,
          "time": 137.618800453125,
          "velocity": 0.11811023622047244
        },
        {
          "duration": 0.5504579999999919,
          "durationTicks": 384,
          "midi": 50,
          "name": "D3",
          "ticks": 96195,
          "time": 137.894029453125,
          "velocity": 0.11811023622047244
        },
        {
          "duration": 0.27522899999999595,
          "durationTicks": 192,
          "midi": 45,
          "name": "A2",
          "ticks": 96579,
          "time": 138.444487453125,
          "velocity": 0.11811023622047244
        },
        {
          "duration": 0.5504580000000203,
          "durationTicks": 384,
          "midi": 57,
          "name": "A3",
          "ticks": 96771,
          "time": 138.719716453125,
          "velocity": 0.11811023622047244
        },
        {
          "duration": 1.6513740000000041,
          "durationTicks": 1152,
          "midi": 38,
          "name": "D2",
          "ticks": 96771,
          "time": 138.719716453125,
          "velocity": 0.11811023622047244
        },
        {
          "duration": 0.27522899999999595,
          "durationTicks": 192,
          "midi": 50,
          "name": "D3",
          "ticks": 97155,
          "time": 139.270174453125,
          "velocity": 0.11811023622047244
        },
        {
          "duration": 0.5504579999999919,
          "durationTicks": 384,
          "midi": 52,
          "name": "E3",
          "ticks": 97347,
          "time": 139.545403453125,
          "velocity": 0.11811023622047244
        },
        {
          "duration": 0.27522899999999595,
          "durationTicks": 192,
          "midi": 50,
          "name": "D3",
          "ticks": 97731,
          "time": 140.095861453125,
          "velocity": 0.11811023622047244
        },
        {
          "duration": 0.5504580000000203,
          "durationTicks": 384,
          "midi": 44,
          "name": "G#2",
          "ticks": 97923,
          "time": 140.371090453125,
          "velocity": 0.11811023622047244
        },
        {
          "duration": 0.27522899999999595,
          "durationTicks": 192,
          "midi": 50,
          "name": "D3",
          "ticks": 98307,
          "time": 140.921548453125,
          "velocity": 0.11811023622047244
        },
        {
          "duration": 0.5504579999999919,
          "durationTicks": 384,
          "midi": 52,
          "name": "E3",
          "ticks": 98499,
          "time": 141.196777453125,
          "velocity": 0.11811023622047244
        },
        {
          "duration": 0.27522899999999595,
          "durationTicks": 192,
          "midi": 50,
          "name": "D3",
          "ticks": 98883,
          "time": 141.747235453125,
          "velocity": 0.11811023622047244
        },
        {
          "duration": 0.5504579999999919,
          "durationTicks": 384,
          "midi": 43,
          "name": "G2",
          "ticks": 99075,
          "time": 142.022464453125,
          "velocity": 0.11811023622047244
        },
        {
          "duration": 0.27522900000002437,
          "durationTicks": 192,
          "midi": 50,
          "name": "D3",
          "ticks": 99459,
          "time": 142.572922453125,
          "velocity": 0.11811023622047244
        },
        {
          "duration": 0.5504579999999919,
          "durationTicks": 384,
          "midi": 52,
          "name": "E3",
          "ticks": 99651,
          "time": 142.848151453125,
          "velocity": 0.11811023622047244
        },
        {
          "duration": 0.27522899999999595,
          "durationTicks": 192,
          "midi": 55,
          "name": "G3",
          "ticks": 100035,
          "time": 143.398609453125,
          "velocity": 0.11811023622047244
        },
        {
          "duration": 0.5504579999999919,
          "durationTicks": 384,
          "midi": 54,
          "name": "F#3",
          "ticks": 100227,
          "time": 143.673838453125,
          "velocity": 0.11811023622047244
        },
        {
          "duration": 1.6513740000000041,
          "durationTicks": 1152,
          "midi": 38,
          "name": "D2",
          "ticks": 100227,
          "time": 143.673838453125,
          "velocity": 0.11811023622047244
        },
        {
          "duration": 0.27522899999999595,
          "durationTicks": 192,
          "midi": 52,
          "name": "E3",
          "ticks": 100611,
          "time": 144.224296453125,
          "velocity": 0.11811023622047244
        },
        {
          "duration": 0.5504580000000203,
          "durationTicks": 384,
          "midi": 50,
          "name": "D3",
          "ticks": 100803,
          "time": 144.499525453125,
          "velocity": 0.11811023622047244
        },
        {
          "duration": 1.6513740000000041,
          "durationTicks": 1152,
          "midi": 43,
          "name": "G2",
          "ticks": 101379,
          "time": 145.325212453125,
          "velocity": 0.11811023622047244
        },
        {
          "duration": 0.5504579999999919,
          "durationTicks": 384,
          "midi": 57,
          "name": "A3",
          "ticks": 101379,
          "time": 145.325212453125,
          "velocity": 0.11811023622047244
        },
        {
          "duration": 0.27522899999999595,
          "durationTicks": 192,
          "midi": 50,
          "name": "D3",
          "ticks": 101763,
          "time": 145.875670453125,
          "velocity": 0.11811023622047244
        },
        {
          "duration": 0.5504580000000203,
          "durationTicks": 384,
          "midi": 52,
          "name": "E3",
          "ticks": 101955,
          "time": 146.150899453125,
          "velocity": 0.11811023622047244
        },
        {
          "duration": 0.27522899999999595,
          "durationTicks": 192,
          "midi": 50,
          "name": "D3",
          "ticks": 102339,
          "time": 146.701357453125,
          "velocity": 0.11811023622047244
        },
        {
          "duration": 0.5504579999999919,
          "durationTicks": 384,
          "midi": 45,
          "name": "A2",
          "ticks": 102531,
          "time": 146.976586453125,
          "velocity": 0.11811023622047244
        },
        {
          "duration": 0.27522899999999595,
          "durationTicks": 192,
          "midi": 50,
          "name": "D3",
          "ticks": 102915,
          "time": 147.527044453125,
          "velocity": 0.11811023622047244
        },
        {
          "duration": 0.5504579999999919,
          "durationTicks": 384,
          "midi": 52,
          "name": "E3",
          "ticks": 103107,
          "time": 147.802273453125,
          "velocity": 0.11811023622047244
        },
        {
          "duration": 0.13761450000001219,
          "durationTicks": 96,
          "midi": 54,
          "name": "F#3",
          "ticks": 103491,
          "time": 148.352731453125,
          "velocity": 0.11811023622047244
        },
        {
          "duration": 0.13761450000001219,
          "durationTicks": 96,
          "midi": 52,
          "name": "E3",
          "ticks": 103587,
          "time": 148.490345953125,
          "velocity": 0.11811023622047244
        },
        {
          "duration": 0.27522899999999595,
          "durationTicks": 192,
          "midi": 50,
          "name": "D3",
          "ticks": 103683,
          "time": 148.627960453125,
          "velocity": 0.11811023622047244
        },
        {
          "duration": 1.6513739999999757,
          "durationTicks": 1152,
          "midi": 45,
          "name": "A2",
          "ticks": 103683,
          "time": 148.627960453125,
          "velocity": 0.11811023622047244
        }
      ],
      "endOfTrackTicks": 104835
    },
    {
      "channel": 2,
      "controlChanges": {},
      "pitchBends": [],
      "instrument": {
        "family": "synth lead",
        "number": 81,
        "name": "lead 2 (sawtooth)"
      },
      "name": "8-Bit Sawtooth",
      "notes": [
        {
          "duration": 0.275229,
          "durationTicks": 192,
          "midi": 50,
          "name": "D3",
          "ticks": 0,
          "time": 0,
          "velocity": 0.11811023622047244
        },
        {
          "duration": 0.275229,
          "durationTicks": 192,
          "midi": 66,
          "name": "F#4",
          "ticks": 0,
          "time": 0,
          "velocity": 0.11811023622047244
        },
        {
          "duration": 0.275229,
          "durationTicks": 192,
          "midi": 61,
          "name": "C#4",
          "ticks": 192,
          "time": 0.275229,
          "velocity": 0.11811023622047244
        },
        {
          "duration": 0.275229,
          "durationTicks": 192,
          "midi": 54,
          "name": "F#3",
          "ticks": 192,
          "time": 0.275229,
          "velocity": 0.11811023622047244
        },
        {
          "duration": 0.27522900000000006,
          "durationTicks": 192,
          "midi": 66,
          "name": "F#4",
          "ticks": 384,
          "time": 0.550458,
          "velocity": 0.11811023622047244
        },
        {
          "duration": 0.27522900000000006,
          "durationTicks": 192,
          "midi": 57,
          "name": "A3",
          "ticks": 384,
          "time": 0.550458,
          "velocity": 0.11811023622047244
        },
        {
          "duration": 0.27522899999999995,
          "durationTicks": 192,
          "midi": 61,
          "name": "C#4",
          "ticks": 576,
          "time": 0.8256870000000001,
          "velocity": 0.11811023622047244
        },
        {
          "duration": 0.27522899999999995,
          "durationTicks": 192,
          "midi": 54,
          "name": "F#3",
          "ticks": 576,
          "time": 0.8256870000000001,
          "velocity": 0.11811023622047244
        },
        {
          "duration": 0.27522899999999995,
          "durationTicks": 192,
          "midi": 57,
          "name": "A3",
          "ticks": 768,
          "time": 1.100916,
          "velocity": 0.11811023622047244
        },
        {
          "duration": 0.27522899999999995,
          "durationTicks": 192,
          "midi": 66,
          "name": "F#4",
          "ticks": 768,
          "time": 1.100916,
          "velocity": 0.11811023622047244
        },
        {
          "duration": 0.27522900000000017,
          "durationTicks": 192,
          "midi": 54,
          "name": "F#3",
          "ticks": 960,
          "time": 1.376145,
          "velocity": 0.11811023622047244
        },
        {
          "duration": 0.27522900000000017,
          "durationTicks": 192,
          "midi": 61,
          "name": "C#4",
          "ticks": 960,
          "time": 1.376145,
          "velocity": 0.11811023622047244
        },
        {
          "duration": 0.27522899999999995,
          "durationTicks": 192,
          "midi": 50,
          "name": "D3",
          "ticks": 1152,
          "time": 1.6513740000000001,
          "velocity": 0.11811023622047244
        },
        {
          "duration": 0.27522899999999995,
          "durationTicks": 192,
          "midi": 66,
          "name": "F#4",
          "ticks": 1152,
          "time": 1.6513740000000001,
          "velocity": 0.11811023622047244
        },
        {
          "duration": 0.27522899999999995,
          "durationTicks": 192,
          "midi": 61,
          "name": "C#4",
          "ticks": 1344,
          "time": 1.926603,
          "velocity": 0.11811023622047244
        },
        {
          "duration": 0.27522899999999995,
          "durationTicks": 192,
          "midi": 54,
          "name": "F#3",
          "ticks": 1344,
          "time": 1.926603,
          "velocity": 0.11811023622047244
        },
        {
          "duration": 0.27522899999999995,
          "durationTicks": 192,
          "midi": 66,
          "name": "F#4",
          "ticks": 1536,
          "time": 2.201832,
          "velocity": 0.11811023622047244
        },
        {
          "duration": 0.27522899999999995,
          "durationTicks": 192,
          "midi": 57,
          "name": "A3",
          "ticks": 1536,
          "time": 2.201832,
          "velocity": 0.11811023622047244
        },
        {
          "duration": 0.27522899999999995,
          "durationTicks": 192,
          "midi": 61,
          "name": "C#4",
          "ticks": 1728,
          "time": 2.477061,
          "velocity": 0.11811023622047244
        },
        {
          "duration": 0.27522899999999995,
          "durationTicks": 192,
          "midi": 54,
          "name": "F#3",
          "ticks": 1728,
          "time": 2.477061,
          "velocity": 0.11811023622047244
        },
        {
          "duration": 0.27522899999999995,
          "durationTicks": 192,
          "midi": 66,
          "name": "F#4",
          "ticks": 1920,
          "time": 2.75229,
          "velocity": 0.11811023622047244
        },
        {
          "duration": 0.27522899999999995,
          "durationTicks": 192,
          "midi": 57,
          "name": "A3",
          "ticks": 1920,
          "time": 2.75229,
          "velocity": 0.11811023622047244
        },
        {
          "duration": 0.2752290000000004,
          "durationTicks": 192,
          "midi": 61,
          "name": "C#4",
          "ticks": 2112,
          "time": 3.027519,
          "velocity": 0.11811023622047244
        },
        {
          "duration": 0.2752290000000004,
          "durationTicks": 192,
          "midi": 54,
          "name": "F#3",
          "ticks": 2112,
          "time": 3.027519,
          "velocity": 0.11811023622047244
        },
        {
          "duration": 0.27522899999999995,
          "durationTicks": 192,
          "midi": 47,
          "name": "B2",
          "ticks": 2304,
          "time": 3.3027480000000002,
          "velocity": 0.11811023622047244
        },
        {
          "duration": 0.27522899999999995,
          "durationTicks": 192,
          "midi": 59,
          "name": "B3",
          "ticks": 2304,
          "time": 3.3027480000000002,
          "velocity": 0.11811023622047244
        },
        {
          "duration": 0.27522899999999995,
          "durationTicks": 192,
          "midi": 57,
          "name": "A3",
          "ticks": 2496,
          "time": 3.577977,
          "velocity": 0.11811023622047244
        },
        {
          "duration": 0.27522899999999995,
          "durationTicks": 192,
          "midi": 51,
          "name": "D#3",
          "ticks": 2496,
          "time": 3.577977,
          "velocity": 0.11811023622047244
        },
        {
          "duration": 0.5504579999999999,
          "durationTicks": 384,
          "midi": 61,
          "name": "C#4",
          "ticks": 2688,
          "time": 3.853206,
          "velocity": 0.11811023622047244
        },
        {
          "duration": 0.2752289999999995,
          "durationTicks": 192,
          "midi": 54,
          "name": "F#3",
          "ticks": 2688,
          "time": 3.853206,
          "velocity": 0.11811023622047244
        },
        {
          "duration": 0.2752290000000004,
          "durationTicks": 192,
          "midi": 51,
          "name": "D#3",
          "ticks": 2880,
          "time": 4.128435,
          "velocity": 0.11811023622047244
        },
        {
          "duration": 0.2752290000000004,
          "durationTicks": 192,
          "midi": 54,
          "name": "F#3",
          "ticks": 3072,
          "time": 4.403664,
          "velocity": 0.11811023622047244
        },
        {
          "duration": 0.2752290000000004,
          "durationTicks": 192,
          "midi": 57,
          "name": "A3",
          "ticks": 3072,
          "time": 4.403664,
          "velocity": 0.11811023622047244
        },
        {
          "duration": 0.2752289999999995,
          "durationTicks": 192,
          "midi": 51,
          "name": "D#3",
          "ticks": 3264,
          "time": 4.678893,
          "velocity": 0.11811023622047244
        },
        {
          "duration": 0.2752289999999995,
          "durationTicks": 192,
          "midi": 59,
          "name": "B3",
          "ticks": 3264,
          "time": 4.678893,
          "velocity": 0.11811023622047244
        },
        {
          "duration": 0.2752290000000004,
          "durationTicks": 192,
          "midi": 64,
          "name": "E4",
          "ticks": 3456,
          "time": 4.954122,
          "velocity": 0.11811023622047244
        },
        {
          "duration": 0.2752290000000004,
          "durationTicks": 192,
          "midi": 47,
          "name": "B2",
          "ticks": 3456,
          "time": 4.954122,
          "velocity": 0.11811023622047244
        },
        {
          "duration": 0.2752289999999995,
          "durationTicks": 192,
          "midi": 63,
          "name": "D#4",
          "ticks": 3648,
          "time": 5.229351,
          "velocity": 0.11811023622047244
        },
        {
          "duration": 0.2752289999999995,
          "durationTicks": 192,
          "midi": 51,
          "name": "D#3",
          "ticks": 3648,
          "time": 5.229351,
          "velocity": 0.11811023622047244
        },
        {
          "duration": 0.2752290000000004,
          "durationTicks": 192,
          "midi": 64,
          "name": "E4",
          "ticks": 3840,
          "time": 5.50458,
          "velocity": 0.11811023622047244
        },
        {
          "duration": 0.2752290000000004,
          "durationTicks": 192,
          "midi": 54,
          "name": "F#3",
          "ticks": 3840,
          "time": 5.50458,
          "velocity": 0.11811023622047244
        },
        {
          "duration": 0.2752289999999995,
          "durationTicks": 192,
          "midi": 51,
          "name": "D#3",
          "ticks": 4032,
          "time": 5.779809,
          "velocity": 0.11811023622047244
        },
        {
          "duration": 0.2752289999999995,
          "durationTicks": 192,
          "midi": 66,
          "name": "F#4",
          "ticks": 4032,
          "time": 5.779809,
          "velocity": 0.11811023622047244
        },
        {
          "duration": 0.2752290000000004,
          "durationTicks": 192,
          "midi": 63,
          "name": "D#4",
          "ticks": 4224,
          "time": 6.055038,
          "velocity": 0.11811023622047244
        },
        {
          "duration": 0.2752290000000004,
          "durationTicks": 192,
          "midi": 54,
          "name": "F#3",
          "ticks": 4224,
          "time": 6.055038,
          "velocity": 0.11811023622047244
        },
        {
          "duration": 0.2752290000000004,
          "durationTicks": 192,
          "midi": 51,
          "name": "D#3",
          "ticks": 4416,
          "time": 6.330267,
          "velocity": 0.11811023622047244
        },
        {
          "duration": 0.2752290000000004,
          "durationTicks": 192,
          "midi": 59,
          "name": "B3",
          "ticks": 4416,
          "time": 6.330267,
          "velocity": 0.11811023622047244
        },
        {
          "duration": 0.2752289999999995,
          "durationTicks": 192,
          "midi": 43,
          "name": "G2",
          "ticks": 4608,
          "time": 6.6054960000000005,
          "velocity": 0.11811023622047244
        },
        {
          "duration": 0.2752289999999995,
          "durationTicks": 192,
          "midi": 66,
          "name": "F#4",
          "ticks": 4608,
          "time": 6.6054960000000005,
          "velocity": 0.11811023622047244
        },
        {
          "duration": 0.2752290000000004,
          "durationTicks": 192,
          "midi": 47,
          "name": "B2",
          "ticks": 4800,
          "time": 6.880725,
          "velocity": 0.11811023622047244
        },
        {
          "duration": 0.2752290000000004,
          "durationTicks": 192,
          "midi": 59,
          "name": "B3",
          "ticks": 4800,
          "time": 6.880725,
          "velocity": 0.11811023622047244
        },
        {
          "duration": 0.2752289999999995,
          "durationTicks": 192,
          "midi": 50,
          "name": "D3",
          "ticks": 4992,
          "time": 7.155954,
          "velocity": 0.11811023622047244
        },
        {
          "duration": 0.2752289999999995,
          "durationTicks": 192,
          "midi": 66,
          "name": "F#4",
          "ticks": 4992,
          "time": 7.155954,
          "velocity": 0.11811023622047244
        },
        {
          "duration": 0.2752290000000004,
          "durationTicks": 192,
          "midi": 47,
          "name": "B2",
          "ticks": 5184,
          "time": 7.431183,
          "velocity": 0.11811023622047244
        },
        {
          "duration": 0.2752290000000004,
          "durationTicks": 192,
          "midi": 59,
          "name": "B3",
          "ticks": 5184,
          "time": 7.431183,
          "velocity": 0.11811023622047244
        },
        {
          "duration": 0.2752289999999995,
          "durationTicks": 192,
          "midi": 50,
          "name": "D3",
          "ticks": 5376,
          "time": 7.706412,
          "velocity": 0.11811023622047244
        },
        {
          "duration": 0.2752289999999995,
          "durationTicks": 192,
          "midi": 66,
          "name": "F#4",
          "ticks": 5376,
          "time": 7.706412,
          "velocity": 0.11811023622047244
        },
        {
          "duration": 0.2752289999999995,
          "durationTicks": 192,
          "midi": 47,
          "name": "B2",
          "ticks": 5568,
          "time": 7.981641,
          "velocity": 0.11811023622047244
        },
        {
          "duration": 0.2752289999999995,
          "durationTicks": 192,
          "midi": 59,
          "name": "B3",
          "ticks": 5568,
          "time": 7.981641,
          "velocity": 0.11811023622047244
        },
        {
          "duration": 0.2752290000000013,
          "durationTicks": 192,
          "midi": 66,
          "name": "F#4",
          "ticks": 5760,
          "time": 8.25687,
          "velocity": 0.11811023622047244
        },
        {
          "duration": 0.2752290000000013,
          "durationTicks": 192,
          "midi": 43,
          "name": "G2",
          "ticks": 5760,
          "time": 8.25687,
          "velocity": 0.11811023622047244
        },
        {
          "duration": 0.2752289999999995,
          "durationTicks": 192,
          "midi": 46,
          "name": "A#2",
          "ticks": 5952,
          "time": 8.532099,
          "velocity": 0.11811023622047244
        },
        {
          "duration": 0.2752289999999995,
          "durationTicks": 192,
          "midi": 58,
          "name": "A#3",
          "ticks": 5952,
          "time": 8.532099,
          "velocity": 0.11811023622047244
        },
        {
          "duration": 0.2752289999999995,
          "durationTicks": 192,
          "midi": 66,
          "name": "F#4",
          "ticks": 6144,
          "time": 8.807328,
          "velocity": 0.11811023622047244
        },
        {
          "duration": 0.2752289999999995,
          "durationTicks": 192,
          "midi": 50,
          "name": "D3",
          "ticks": 6144,
          "time": 8.807328,
          "velocity": 0.11811023622047244
        },
        {
          "duration": 0.2752290000000013,
          "durationTicks": 192,
          "midi": 58,
          "name": "A#3",
          "ticks": 6336,
          "time": 9.082557,
          "velocity": 0.11811023622047244
        },
        {
          "duration": 0.2752290000000013,
          "durationTicks": 192,
          "midi": 46,
          "name": "A#2",
          "ticks": 6336,
          "time": 9.082557,
          "velocity": 0.11811023622047244
        },
        {
          "duration": 0.550457999999999,
          "durationTicks": 384,
          "midi": 67,
          "name": "G4",
          "ticks": 6528,
          "time": 9.357786,
          "velocity": 0.11811023622047244
        },
        {
          "duration": 0.2752289999999995,
          "durationTicks": 192,
          "midi": 50,
          "name": "D3",
          "ticks": 6528,
          "time": 9.357786,
          "velocity": 0.11811023622047244
        },
        {
          "duration": 0.2752289999999995,
          "durationTicks": 192,
          "midi": 46,
          "name": "A#2",
          "ticks": 6720,
          "time": 9.633015,
          "velocity": 0.11811023622047244
        },
        {
          "duration": 0.2752289999999995,
          "durationTicks": 192,
          "midi": 50,
          "name": "D3",
          "ticks": 6912,
          "time": 9.908244,
          "velocity": 0.11811023622047244
        },
        {
          "duration": 0.2752289999999995,
          "durationTicks": 192,
          "midi": 66,
          "name": "F#4",
          "ticks": 6912,
          "time": 9.908244,
          "velocity": 0.11811023622047244
        },
        {
          "duration": 0.2752290000000013,
          "durationTicks": 192,
          "midi": 54,
          "name": "F#3",
          "ticks": 7104,
          "time": 10.183473,
          "velocity": 0.11811023622047244
        },
        {
          "duration": 0.2752290000000013,
          "durationTicks": 192,
          "midi": 62,
          "name": "D4",
          "ticks": 7104,
          "time": 10.183473,
          "velocity": 0.11811023622047244
        },
        {
          "duration": 0.2752289999999995,
          "durationTicks": 192,
          "midi": 57,
          "name": "A3",
          "ticks": 7296,
          "time": 10.458702,
          "velocity": 0.11811023622047244
        },
        {
          "duration": 0.2752289999999995,
          "durationTicks": 192,
          "midi": 66,
          "name": "F#4",
          "ticks": 7296,
          "time": 10.458702,
          "velocity": 0.11811023622047244
        },
        {
          "duration": 0.2752289999999995,
          "durationTicks": 192,
          "midi": 54,
          "name": "F#3",
          "ticks": 7488,
          "time": 10.733931,
          "velocity": 0.11811023622047244
        },
        {
          "duration": 0.2752289999999995,
          "durationTicks": 192,
          "midi": 62,
          "name": "D4",
          "ticks": 7488,
          "time": 10.733931,
          "velocity": 0.11811023622047244
        },
        {
          "duration": 0.2752290000000013,
          "durationTicks": 192,
          "midi": 57,
          "name": "A3",
          "ticks": 7680,
          "time": 11.00916,
          "velocity": 0.11811023622047244
        },
        {
          "duration": 0.2752290000000013,
          "durationTicks": 192,
          "midi": 64,
          "name": "E4",
          "ticks": 7680,
          "time": 11.00916,
          "velocity": 0.11811023622047244
        },
        {
          "duration": 0.2752289999999995,
          "durationTicks": 192,
          "midi": 54,
          "name": "F#3",
          "ticks": 7872,
          "time": 11.284389000000001,
          "velocity": 0.11811023622047244
        },
        {
          "duration": 0.2752289999999995,
          "durationTicks": 192,
          "midi": 66,
          "name": "F#4",
          "ticks": 7872,
          "time": 11.284389000000001,
          "velocity": 0.11811023622047244
        },
        {
          "duration": 0.2752289999999995,
          "durationTicks": 192,
          "midi": 49,
          "name": "C#3",
          "ticks": 8064,
          "time": 11.559618,
          "velocity": 0.11811023622047244
        },
        {
          "duration": 0.550457999999999,
          "durationTicks": 384,
          "midi": 64,
          "name": "E4",
          "ticks": 8064,
          "time": 11.559618,
          "velocity": 0.11811023622047244
        },
        {
          "duration": 0.2752289999999995,
          "durationTicks": 192,
          "midi": 52,
          "name": "E3",
          "ticks": 8256,
          "time": 11.834847,
          "velocity": 0.11811023622047244
        },
        {
          "duration": 0.2752290000000013,
          "durationTicks": 192,
          "midi": 57,
          "name": "A3",
          "ticks": 8448,
          "time": 12.110076,
          "velocity": 0.11811023622047244
        },
        {
          "duration": 0.5504580000000008,
          "durationTicks": 384,
          "midi": 62,
          "name": "D4",
          "ticks": 8448,
          "time": 12.110076,
          "velocity": 0.11811023622047244
        },
        {
          "duration": 0.2752289999999995,
          "durationTicks": 192,
          "midi": 52,
          "name": "E3",
          "ticks": 8640,
          "time": 12.385305,
          "velocity": 0.11811023622047244
        },
        {
          "duration": 0.2752289999999995,
          "durationTicks": 192,
          "midi": 57,
          "name": "A3",
          "ticks": 8832,
          "time": 12.660534,
          "velocity": 0.11811023622047244
        },
        {
          "duration": 0.5504580000000008,
          "durationTicks": 384,
          "midi": 61,
          "name": "C#4",
          "ticks": 8832,
          "time": 12.660534,
          "velocity": 0.11811023622047244
        },
        {
          "duration": 0.2752290000000013,
          "durationTicks": 192,
          "midi": 52,
          "name": "E3",
          "ticks": 9024,
          "time": 12.935763,
          "velocity": 0.11811023622047244
        },
        {
          "duration": 0.2752289999999995,
          "durationTicks": 192,
          "midi": 50,
          "name": "D3",
          "ticks": 9216,
          "time": 13.210992000000001,
          "velocity": 0.11811023622047244
        },
        {
          "duration": 0.2752289999999995,
          "durationTicks": 192,
          "midi": 66,
          "name": "F#4",
          "ticks": 9216,
          "time": 13.210992000000001,
          "velocity": 0.11811023622047244
        },
        {
          "duration": 0.2752289999999995,
          "durationTicks": 192,
          "midi": 61,
          "name": "C#4",
          "ticks": 9408,
          "time": 13.486221,
          "velocity": 0.11811023622047244
        },
        {
          "duration": 0.2752289999999995,
          "durationTicks": 192,
          "midi": 54,
          "name": "F#3",
          "ticks": 9408,
          "time": 13.486221,
          "velocity": 0.11811023622047244
        },
        {
          "duration": 0.2752289999999995,
          "durationTicks": 192,
          "midi": 57,
          "name": "A3",
          "ticks": 9600,
          "time": 13.76145,
          "velocity": 0.11811023622047244
        },
        {
          "duration": 0.2752289999999995,
          "durationTicks": 192,
          "midi": 66,
          "name": "F#4",
          "ticks": 9600,
          "time": 13.76145,
          "velocity": 0.11811023622047244
        },
        {
          "duration": 0.2752290000000013,
          "durationTicks": 192,
          "midi": 61,
          "name": "C#4",
          "ticks": 9792,
          "time": 14.036679,
          "velocity": 0.11811023622047244
        },
        {
          "duration": 0.2752290000000013,
          "durationTicks": 192,
          "midi": 54,
          "name": "F#3",
          "ticks": 9792,
          "time": 14.036679,
          "velocity": 0.11811023622047244
        },
        {
          "duration": 0.2752289999999995,
          "durationTicks": 192,
          "midi": 57,
          "name": "A3",
          "ticks": 9984,
          "time": 14.311908,
          "velocity": 0.11811023622047244
        },
        {
          "duration": 0.2752289999999995,
          "durationTicks": 192,
          "midi": 66,
          "name": "F#4",
          "ticks": 9984,
          "time": 14.311908,
          "velocity": 0.11811023622047244
        },
        {
          "duration": 0.2752289999999995,
          "durationTicks": 192,
          "midi": 54,
          "name": "F#3",
          "ticks": 10176,
          "time": 14.587137,
          "velocity": 0.11811023622047244
        },
        {
          "duration": 0.2752289999999995,
          "durationTicks": 192,
          "midi": 61,
          "name": "C#4",
          "ticks": 10176,
          "time": 14.587137,
          "velocity": 0.11811023622047244
        },
        {
          "duration": 0.2752289999999995,
          "durationTicks": 192,
          "midi": 66,
          "name": "F#4",
          "ticks": 10368,
          "time": 14.862366,
          "velocity": 0.11811023622047244
        },
        {
          "duration": 0.2752289999999995,
          "durationTicks": 192,
          "midi": 50,
          "name": "D3",
          "ticks": 10368,
          "time": 14.862366,
          "velocity": 0.11811023622047244
        },
        {
          "duration": 0.2752290000000013,
          "durationTicks": 192,
          "midi": 61,
          "name": "C#4",
          "ticks": 10560,
          "time": 15.137595,
          "velocity": 0.11811023622047244
        },
        {
          "duration": 0.2752290000000013,
          "durationTicks": 192,
          "midi": 54,
          "name": "F#3",
          "ticks": 10560,
          "time": 15.137595,
          "velocity": 0.11811023622047244
        },
        {
          "duration": 0.2752289999999995,
          "durationTicks": 192,
          "midi": 66,
          "name": "F#4",
          "ticks": 10752,
          "time": 15.412824,
          "velocity": 0.11811023622047244
        },
        {
          "duration": 0.2752289999999995,
          "durationTicks": 192,
          "midi": 57,
          "name": "A3",
          "ticks": 10752,
          "time": 15.412824,
          "velocity": 0.11811023622047244
        },
        {
          "duration": 0.2752289999999995,
          "durationTicks": 192,
          "midi": 54,
          "name": "F#3",
          "ticks": 10944,
          "time": 15.688053,
          "velocity": 0.11811023622047244
        },
        {
          "duration": 0.2752289999999995,
          "durationTicks": 192,
          "midi": 61,
          "name": "C#4",
          "ticks": 10944,
          "time": 15.688053,
          "velocity": 0.11811023622047244
        },
        {
          "duration": 0.2752289999999995,
          "durationTicks": 192,
          "midi": 66,
          "name": "F#4",
          "ticks": 11136,
          "time": 15.963282,
          "velocity": 0.11811023622047244
        },
        {
          "duration": 0.2752289999999995,
          "durationTicks": 192,
          "midi": 57,
          "name": "A3",
          "ticks": 11136,
          "time": 15.963282,
          "velocity": 0.11811023622047244
        },
        {
          "duration": 0.2752289999999995,
          "durationTicks": 192,
          "midi": 61,
          "name": "C#4",
          "ticks": 11328,
          "time": 16.238511,
          "velocity": 0.11811023622047244
        },
        {
          "duration": 0.2752289999999995,
          "durationTicks": 192,
          "midi": 54,
          "name": "F#3",
          "ticks": 11328,
          "time": 16.238511,
          "velocity": 0.11811023622047244
        },
        {
          "duration": 0.27522900000000305,
          "durationTicks": 192,
          "midi": 47,
          "name": "B2",
          "ticks": 11520,
          "time": 16.51374,
          "velocity": 0.11811023622047244
        },
        {
          "duration": 0.27522900000000305,
          "durationTicks": 192,
          "midi": 59,
          "name": "B3",
          "ticks": 11520,
          "time": 16.51374,
          "velocity": 0.11811023622047244
        },
        {
          "duration": 0.2752289999999995,
          "durationTicks": 192,
          "midi": 51,
          "name": "D#3",
          "ticks": 11712,
          "time": 16.788969,
          "velocity": 0.11811023622047244
        },
        {
          "duration": 0.2752289999999995,
          "durationTicks": 192,
          "midi": 57,
          "name": "A3",
          "ticks": 11712,
          "time": 16.788969,
          "velocity": 0.11811023622047244
        },
        {
          "duration": 0.550457999999999,
          "durationTicks": 384,
          "midi": 61,
          "name": "C#4",
          "ticks": 11904,
          "time": 17.064198,
          "velocity": 0.11811023622047244
        },
        {
          "duration": 0.2752289999999995,
          "durationTicks": 192,
          "midi": 54,
          "name": "F#3",
          "ticks": 11904,
          "time": 17.064198,
          "velocity": 0.11811023622047244
        },
        {
          "duration": 0.2752289999999995,
          "durationTicks": 192,
          "midi": 51,
          "name": "D#3",
          "ticks": 12096,
          "time": 17.339427,
          "velocity": 0.11811023622047244
        },
        {
          "duration": 0.2752289999999995,
          "durationTicks": 192,
          "midi": 54,
          "name": "F#3",
          "ticks": 12288,
          "time": 17.614656,
          "velocity": 0.11811023622047244
        },
        {
          "duration": 0.2752289999999995,
          "durationTicks": 192,
          "midi": 57,
          "name": "A3",
          "ticks": 12288,
          "time": 17.614656,
          "velocity": 0.11811023622047244
        },
        {
          "duration": 0.2752289999999995,
          "durationTicks": 192,
          "midi": 51,
          "name": "D#3",
          "ticks": 12480,
          "time": 17.889885,
          "velocity": 0.11811023622047244
        },
        {
          "duration": 0.2752289999999995,
          "durationTicks": 192,
          "midi": 59,
          "name": "B3",
          "ticks": 12480,
          "time": 17.889885,
          "velocity": 0.11811023622047244
        },
        {
          "duration": 0.2752289999999995,
          "durationTicks": 192,
          "midi": 47,
          "name": "B2",
          "ticks": 12672,
          "time": 18.165114,
          "velocity": 0.11811023622047244
        },
        {
          "duration": 0.2752289999999995,
          "durationTicks": 192,
          "midi": 64,
          "name": "E4",
          "ticks": 12672,
          "time": 18.165114,
          "velocity": 0.11811023622047244
        },
        {
          "duration": 0.27522900000000305,
          "durationTicks": 192,
          "midi": 51,
          "name": "D#3",
          "ticks": 12864,
          "time": 18.440343,
          "velocity": 0.11811023622047244
        },
        {
          "duration": 0.27522900000000305,
          "durationTicks": 192,
          "midi": 63,
          "name": "D#4",
          "ticks": 12864,
          "time": 18.440343,
          "velocity": 0.11811023622047244
        },
        {
          "duration": 0.2752289999999995,
          "durationTicks": 192,
          "midi": 54,
          "name": "F#3",
          "ticks": 13056,
          "time": 18.715572,
          "velocity": 0.11811023622047244
        },
        {
          "duration": 0.2752289999999995,
          "durationTicks": 192,
          "midi": 64,
          "name": "E4",
          "ticks": 13056,
          "time": 18.715572,
          "velocity": 0.11811023622047244
        },
        {
          "duration": 0.2752289999999995,
          "durationTicks": 192,
          "midi": 66,
          "name": "F#4",
          "ticks": 13248,
          "time": 18.990801,
          "velocity": 0.11811023622047244
        },
        {
          "duration": 0.2752289999999995,
          "durationTicks": 192,
          "midi": 51,
          "name": "D#3",
          "ticks": 13248,
          "time": 18.990801,
          "velocity": 0.11811023622047244
        },
        {
          "duration": 0.2752289999999995,
          "durationTicks": 192,
          "midi": 54,
          "name": "F#3",
          "ticks": 13440,
          "time": 19.26603,
          "velocity": 0.11811023622047244
        },
        {
          "duration": 0.2752289999999995,
          "durationTicks": 192,
          "midi": 63,
          "name": "D#4",
          "ticks": 13440,
          "time": 19.26603,
          "velocity": 0.11811023622047244
        },
        {
          "duration": 0.2752289999999995,
          "durationTicks": 192,
          "midi": 51,
          "name": "D#3",
          "ticks": 13632,
          "time": 19.541259,
          "velocity": 0.11811023622047244
        },
        {
          "duration": 0.2752289999999995,
          "durationTicks": 192,
          "midi": 59,
          "name": "B3",
          "ticks": 13632,
          "time": 19.541259,
          "velocity": 0.11811023622047244
        },
        {
          "duration": 0.2752289999999995,
          "durationTicks": 192,
          "midi": 66,
          "name": "F#4",
          "ticks": 13824,
          "time": 19.816488,
          "velocity": 0.11811023622047244
        },
        {
          "duration": 0.2752289999999995,
          "durationTicks": 192,
          "midi": 43,
          "name": "G2",
          "ticks": 13824,
          "time": 19.816488,
          "velocity": 0.11811023622047244
        },
        {
          "duration": 0.2752289999999995,
          "durationTicks": 192,
          "midi": 59,
          "name": "B3",
          "ticks": 14016,
          "time": 20.091717,
          "velocity": 0.11811023622047244
        },
        {
          "duration": 0.2752289999999995,
          "durationTicks": 192,
          "midi": 47,
          "name": "B2",
          "ticks": 14016,
          "time": 20.091717,
          "velocity": 0.11811023622047244
        },
        {
          "duration": 0.27522900000000305,
          "durationTicks": 192,
          "midi": 50,
          "name": "D3",
          "ticks": 14208,
          "time": 20.366946,
          "velocity": 0.11811023622047244
        },
        {
          "duration": 0.27522900000000305,
          "durationTicks": 192,
          "midi": 66,
          "name": "F#4",
          "ticks": 14208,
          "time": 20.366946,
          "velocity": 0.11811023622047244
        },
        {
          "duration": 0.2752289999999995,
          "durationTicks": 192,
          "midi": 47,
          "name": "B2",
          "ticks": 14400,
          "time": 20.642175,
          "velocity": 0.11811023622047244
        },
        {
          "duration": 0.2752289999999995,
          "durationTicks": 192,
          "midi": 59,
          "name": "B3",
          "ticks": 14400,
          "time": 20.642175,
          "velocity": 0.11811023622047244
        },
        {
          "duration": 0.2752289999999995,
          "durationTicks": 192,
          "midi": 66,
          "name": "F#4",
          "ticks": 14592,
          "time": 20.917404,
          "velocity": 0.11811023622047244
        },
        {
          "duration": 0.2752289999999995,
          "durationTicks": 192,
          "midi": 50,
          "name": "D3",
          "ticks": 14592,
          "time": 20.917404,
          "velocity": 0.11811023622047244
        },
        {
          "duration": 0.2752289999999995,
          "durationTicks": 192,
          "midi": 59,
          "name": "B3",
          "ticks": 14784,
          "time": 21.192633,
          "velocity": 0.11811023622047244
        },
        {
          "duration": 0.2752289999999995,
          "durationTicks": 192,
          "midi": 47,
          "name": "B2",
          "ticks": 14784,
          "time": 21.192633,
          "velocity": 0.11811023622047244
        },
        {
          "duration": 0.2752289999999995,
          "durationTicks": 192,
          "midi": 66,
          "name": "F#4",
          "ticks": 14976,
          "time": 21.467862,
          "velocity": 0.11811023622047244
        },
        {
          "duration": 0.2752289999999995,
          "durationTicks": 192,
          "midi": 43,
          "name": "G2",
          "ticks": 14976,
          "time": 21.467862,
          "velocity": 0.11811023622047244
        },
        {
          "duration": 0.2752289999999995,
          "durationTicks": 192,
          "midi": 58,
          "name": "A#3",
          "ticks": 15168,
          "time": 21.743091,
          "velocity": 0.11811023622047244
        },
        {
          "duration": 0.2752289999999995,
          "durationTicks": 192,
          "midi": 46,
          "name": "A#2",
          "ticks": 15168,
          "time": 21.743091,
          "velocity": 0.11811023622047244
        },
        {
          "duration": 0.2752289999999995,
          "durationTicks": 192,
          "midi": 66,
          "name": "F#4",
          "ticks": 15360,
          "time": 22.01832,
          "velocity": 0.11811023622047244
        },
        {
          "duration": 0.2752289999999995,
          "durationTicks": 192,
          "midi": 50,
          "name": "D3",
          "ticks": 15360,
          "time": 22.01832,
          "velocity": 0.11811023622047244
        },
        {
          "duration": 0.27522900000000305,
          "durationTicks": 192,
          "midi": 58,
          "name": "A#3",
          "ticks": 15552,
          "time": 22.293549,
          "velocity": 0.11811023622047244
        },
        {
          "duration": 0.27522900000000305,
          "durationTicks": 192,
          "midi": 46,
          "name": "A#2",
          "ticks": 15552,
          "time": 22.293549,
          "velocity": 0.11811023622047244
        },
        {
          "duration": 0.2752289999999995,
          "durationTicks": 192,
          "midi": 50,
          "name": "D3",
          "ticks": 15744,
          "time": 22.568778000000002,
          "velocity": 0.11811023622047244
        },
        {
          "duration": 0.550457999999999,
          "durationTicks": 384,
          "midi": 67,
          "name": "G4",
          "ticks": 15744,
          "time": 22.568778000000002,
          "velocity": 0.11811023622047244
        },
        {
          "duration": 0.2752289999999995,
          "durationTicks": 192,
          "midi": 46,
          "name": "A#2",
          "ticks": 15936,
          "time": 22.844007,
          "velocity": 0.11811023622047244
        },
        {
          "duration": 0.2752289999999995,
          "durationTicks": 192,
          "midi": 66,
          "name": "F#4",
          "ticks": 16128,
          "time": 23.119236,
          "velocity": 0.11811023622047244
        },
        {
          "duration": 0.2752289999999995,
          "durationTicks": 192,
          "midi": 50,
          "name": "D3",
          "ticks": 16128,
          "time": 23.119236,
          "velocity": 0.11811023622047244
        },
        {
          "duration": 0.2752289999999995,
          "durationTicks": 192,
          "midi": 54,
          "name": "F#3",
          "ticks": 16320,
          "time": 23.394465,
          "velocity": 0.11811023622047244
        },
        {
          "duration": 0.2752289999999995,
          "durationTicks": 192,
          "midi": 62,
          "name": "D4",
          "ticks": 16320,
          "time": 23.394465,
          "velocity": 0.11811023622047244
        },
        {
          "duration": 0.2752289999999995,
          "durationTicks": 192,
          "midi": 57,
          "name": "A3",
          "ticks": 16512,
          "time": 23.669694,
          "velocity": 0.11811023622047244
        },
        {
          "duration": 0.2752289999999995,
          "durationTicks": 192,
          "midi": 66,
          "name": "F#4",
          "ticks": 16512,
          "time": 23.669694,
          "velocity": 0.11811023622047244
        },
        {
          "duration": 0.2752289999999995,
          "durationTicks": 192,
          "midi": 54,
          "name": "F#3",
          "ticks": 16704,
          "time": 23.944923,
          "velocity": 0.11811023622047244
        },
        {
          "duration": 0.2752289999999995,
          "durationTicks": 192,
          "midi": 62,
          "name": "D4",
          "ticks": 16704,
          "time": 23.944923,
          "velocity": 0.11811023622047244
        },
        {
          "duration": 0.27522900000000305,
          "durationTicks": 192,
          "midi": 64,
          "name": "E4",
          "ticks": 16896,
          "time": 24.220152,
          "velocity": 0.11811023622047244
        },
        {
          "duration": 0.27522900000000305,
          "durationTicks": 192,
          "midi": 57,
          "name": "A3",
          "ticks": 16896,
          "time": 24.220152,
          "velocity": 0.11811023622047244
        },
        {
          "duration": 0.2752289999999995,
          "durationTicks": 192,
          "midi": 54,
          "name": "F#3",
          "ticks": 17088,
          "time": 24.495381000000002,
          "velocity": 0.11811023622047244
        },
        {
          "duration": 0.2752289999999995,
          "durationTicks": 192,
          "midi": 66,
          "name": "F#4",
          "ticks": 17088,
          "time": 24.495381000000002,
          "velocity": 0.11811023622047244
        },
        {
          "duration": 0.2752289999999995,
          "durationTicks": 192,
          "midi": 49,
          "name": "C#3",
          "ticks": 17280,
          "time": 24.77061,
          "velocity": 0.11811023622047244
        },
        {
          "duration": 0.550457999999999,
          "durationTicks": 384,
          "midi": 64,
          "name": "E4",
          "ticks": 17280,
          "time": 24.77061,
          "velocity": 0.11811023622047244
        },
        {
          "duration": 0.2752289999999995,
          "durationTicks": 192,
          "midi": 52,
          "name": "E3",
          "ticks": 17472,
          "time": 25.045839,
          "velocity": 0.11811023622047244
        },
        {
          "duration": 0.550457999999999,
          "durationTicks": 384,
          "midi": 62,
          "name": "D4",
          "ticks": 17664,
          "time": 25.321068,
          "velocity": 0.11811023622047244
        },
        {
          "duration": 0.2752289999999995,
          "durationTicks": 192,
          "midi": 57,
          "name": "A3",
          "ticks": 17664,
          "time": 25.321068,
          "velocity": 0.11811023622047244
        },
        {
          "duration": 0.2752289999999995,
          "durationTicks": 192,
          "midi": 52,
          "name": "E3",
          "ticks": 17856,
          "time": 25.596297,
          "velocity": 0.11811023622047244
        },
        {
          "duration": 0.5504580000000026,
          "durationTicks": 384,
          "midi": 61,
          "name": "C#4",
          "ticks": 18048,
          "time": 25.871526,
          "velocity": 0.11811023622047244
        },
        {
          "duration": 0.2752289999999995,
          "durationTicks": 192,
          "midi": 57,
          "name": "A3",
          "ticks": 18048,
          "time": 25.871526,
          "velocity": 0.11811023622047244
        },
        {
          "duration": 0.27522900000000305,
          "durationTicks": 192,
          "midi": 52,
          "name": "E3",
          "ticks": 18240,
          "time": 26.146755,
          "velocity": 0.11811023622047244
        },
        {
          "duration": 0.2752289999999995,
          "durationTicks": 192,
          "midi": 66,
          "name": "F#4",
          "ticks": 18432,
          "time": 26.421984000000002,
          "velocity": 0.11811023622047244
        },
        {
          "duration": 0.2752289999999995,
          "durationTicks": 192,
          "midi": 50,
          "name": "D3",
          "ticks": 18432,
          "time": 26.421984000000002,
          "velocity": 0.11811023622047244
        },
        {
          "duration": 0.2752289999999995,
          "durationTicks": 192,
          "midi": 61,
          "name": "C#4",
          "ticks": 18624,
          "time": 26.697213,
          "velocity": 0.11811023622047244
        },
        {
          "duration": 0.2752289999999995,
          "durationTicks": 192,
          "midi": 54,
          "name": "F#3",
          "ticks": 18624,
          "time": 26.697213,
          "velocity": 0.11811023622047244
        },
        {
          "duration": 0.2752289999999995,
          "durationTicks": 192,
          "midi": 57,
          "name": "A3",
          "ticks": 18816,
          "time": 26.972442,
          "velocity": 0.11811023622047244
        },
        {
          "duration": 0.2752289999999995,
          "durationTicks": 192,
          "midi": 66,
          "name": "F#4",
          "ticks": 18816,
          "time": 26.972442,
          "velocity": 0.11811023622047244
        },
        {
          "duration": 0.2752289999999995,
          "durationTicks": 192,
          "midi": 61,
          "name": "C#4",
          "ticks": 19008,
          "time": 27.247671,
          "velocity": 0.11811023622047244
        },
        {
          "duration": 0.2752289999999995,
          "durationTicks": 192,
          "midi": 54,
          "name": "F#3",
          "ticks": 19008,
          "time": 27.247671,
          "velocity": 0.11811023622047244
        },
        {
          "duration": 0.2752289999999995,
          "durationTicks": 192,
          "midi": 57,
          "name": "A3",
          "ticks": 19200,
          "time": 27.5229,
          "velocity": 0.11811023622047244
        },
        {
          "duration": 0.2752289999999995,
          "durationTicks": 192,
          "midi": 66,
          "name": "F#4",
          "ticks": 19200,
          "time": 27.5229,
          "velocity": 0.11811023622047244
        },
        {
          "duration": 0.2752289999999995,
          "durationTicks": 192,
          "midi": 61,
          "name": "C#4",
          "ticks": 19392,
          "time": 27.798129,
          "velocity": 0.11811023622047244
        },
        {
          "duration": 0.2752289999999995,
          "durationTicks": 192,
          "midi": 54,
          "name": "F#3",
          "ticks": 19392,
          "time": 27.798129,
          "velocity": 0.11811023622047244
        },
        {
          "duration": 0.2752289999999995,
          "durationTicks": 192,
          "midi": 50,
          "name": "D3",
          "ticks": 19584,
          "time": 28.073358,
          "velocity": 0.11811023622047244
        },
        {
          "duration": 0.2752289999999995,
          "durationTicks": 192,
          "midi": 66,
          "name": "F#4",
          "ticks": 19584,
          "time": 28.073358,
          "velocity": 0.11811023622047244
        },
        {
          "duration": 0.27522900000000305,
          "durationTicks": 192,
          "midi": 54,
          "name": "F#3",
          "ticks": 19776,
          "time": 28.348587,
          "velocity": 0.11811023622047244
        },
        {
          "duration": 0.27522900000000305,
          "durationTicks": 192,
          "midi": 61,
          "name": "C#4",
          "ticks": 19776,
          "time": 28.348587,
          "velocity": 0.11811023622047244
        },
        {
          "duration": 0.2752289999999995,
          "durationTicks": 192,
          "midi": 57,
          "name": "A3",
          "ticks": 19968,
          "time": 28.623816,
          "velocity": 0.11811023622047244
        },
        {
          "duration": 0.2752289999999995,
          "durationTicks": 192,
          "midi": 66,
          "name": "F#4",
          "ticks": 19968,
          "time": 28.623816,
          "velocity": 0.11811023622047244
        },
        {
          "duration": 0.2752289999999995,
          "durationTicks": 192,
          "midi": 61,
          "name": "C#4",
          "ticks": 20160,
          "time": 28.899045,
          "velocity": 0.11811023622047244
        },
        {
          "duration": 0.2752289999999995,
          "durationTicks": 192,
          "midi": 54,
          "name": "F#3",
          "ticks": 20160,
          "time": 28.899045,
          "velocity": 0.11811023622047244
        },
        {
          "duration": 0.2752289999999995,
          "durationTicks": 192,
          "midi": 57,
          "name": "A3",
          "ticks": 20352,
          "time": 29.174274,
          "velocity": 0.11811023622047244
        },
        {
          "duration": 0.2752289999999995,
          "durationTicks": 192,
          "midi": 66,
          "name": "F#4",
          "ticks": 20352,
          "time": 29.174274,
          "velocity": 0.11811023622047244
        },
        {
          "duration": 0.2752289999999995,
          "durationTicks": 192,
          "midi": 61,
          "name": "C#4",
          "ticks": 20544,
          "time": 29.449503,
          "velocity": 0.11811023622047244
        },
        {
          "duration": 0.2752289999999995,
          "durationTicks": 192,
          "midi": 54,
          "name": "F#3",
          "ticks": 20544,
          "time": 29.449503,
          "velocity": 0.11811023622047244
        },
        {
          "duration": 0.2752289999999995,
          "durationTicks": 192,
          "midi": 59,
          "name": "B3",
          "ticks": 20736,
          "time": 29.724732,
          "velocity": 0.11811023622047244
        },
        {
          "duration": 0.2752289999999995,
          "durationTicks": 192,
          "midi": 47,
          "name": "B2",
          "ticks": 20736,
          "time": 29.724732,
          "velocity": 0.11811023622047244
        },
        {
          "duration": 0.2752289999999995,
          "durationTicks": 192,
          "midi": 57,
          "name": "A3",
          "ticks": 20928,
          "time": 29.999961,
          "velocity": 0.11811023622047244
        },
        {
          "duration": 0.2752289999999995,
          "durationTicks": 192,
          "midi": 51,
          "name": "D#3",
          "ticks": 20928,
          "time": 29.999961,
          "velocity": 0.11811023622047244
        },
        {
          "duration": 0.27522900000000305,
          "durationTicks": 192,
          "midi": 54,
          "name": "F#3",
          "ticks": 21120,
          "time": 30.27519,
          "velocity": 0.11811023622047244
        },
        {
          "duration": 0.5504580000000026,
          "durationTicks": 384,
          "midi": 61,
          "name": "C#4",
          "ticks": 21120,
          "time": 30.27519,
          "velocity": 0.11811023622047244
        },
        {
          "duration": 0.2752289999999995,
          "durationTicks": 192,
          "midi": 51,
          "name": "D#3",
          "ticks": 21312,
          "time": 30.550419,
          "velocity": 0.11811023622047244
        },
        {
          "duration": 0.2752289999999995,
          "durationTicks": 192,
          "midi": 57,
          "name": "A3",
          "ticks": 21504,
          "time": 30.825648,
          "velocity": 0.11811023622047244
        },
        {
          "duration": 0.2752289999999995,
          "durationTicks": 192,
          "midi": 54,
          "name": "F#3",
          "ticks": 21504,
          "time": 30.825648,
          "velocity": 0.11811023622047244
        },
        {
          "duration": 0.2752289999999995,
          "durationTicks": 192,
          "midi": 59,
          "name": "B3",
          "ticks": 21696,
          "time": 31.100877,
          "velocity": 0.11811023622047244
        },
        {
          "duration": 0.2752289999999995,
          "durationTicks": 192,
          "midi": 51,
          "name": "D#3",
          "ticks": 21696,
          "time": 31.100877,
          "velocity": 0.11811023622047244
        },
        {
          "duration": 0.2752289999999995,
          "durationTicks": 192,
          "midi": 47,
          "name": "B2",
          "ticks": 21888,
          "time": 31.376106,
          "velocity": 0.11811023622047244
        },
        {
          "duration": 0.2752289999999995,
          "durationTicks": 192,
          "midi": 64,
          "name": "E4",
          "ticks": 21888,
          "time": 31.376106,
          "velocity": 0.11811023622047244
        },
        {
          "duration": 0.2752289999999995,
          "durationTicks": 192,
          "midi": 51,
          "name": "D#3",
          "ticks": 22080,
          "time": 31.651335,
          "velocity": 0.11811023622047244
        },
        {
          "duration": 0.2752289999999995,
          "durationTicks": 192,
          "midi": 63,
          "name": "D#4",
          "ticks": 22080,
          "time": 31.651335,
          "velocity": 0.11811023622047244
        },
        {
          "duration": 0.27522900000000305,
          "durationTicks": 192,
          "midi": 64,
          "name": "E4",
          "ticks": 22272,
          "time": 31.926564,
          "velocity": 0.11811023622047244
        },
        {
          "duration": 0.27522900000000305,
          "durationTicks": 192,
          "midi": 54,
          "name": "F#3",
          "ticks": 22272,
          "time": 31.926564,
          "velocity": 0.11811023622047244
        },
        {
          "duration": 0.27522899999999595,
          "durationTicks": 192,
          "midi": 51,
          "name": "D#3",
          "ticks": 22464,
          "time": 32.201793,
          "velocity": 0.11811023622047244
        },
        {
          "duration": 0.27522899999999595,
          "durationTicks": 192,
          "midi": 66,
          "name": "F#4",
          "ticks": 22464,
          "time": 32.201793,
          "velocity": 0.11811023622047244
        },
        {
          "duration": 0.27522900000000305,
          "durationTicks": 192,
          "midi": 63,
          "name": "D#4",
          "ticks": 22656,
          "time": 32.477022,
          "velocity": 0.11811023622047244
        },
        {
          "duration": 0.27522900000000305,
          "durationTicks": 192,
          "midi": 54,
          "name": "F#3",
          "ticks": 22656,
          "time": 32.477022,
          "velocity": 0.11811023622047244
        },
        {
          "duration": 0.27522899999999595,
          "durationTicks": 192,
          "midi": 51,
          "name": "D#3",
          "ticks": 22848,
          "time": 32.752251,
          "velocity": 0.11811023622047244
        },
        {
          "duration": 0.27522899999999595,
          "durationTicks": 192,
          "midi": 59,
          "name": "B3",
          "ticks": 22848,
          "time": 32.752251,
          "velocity": 0.11811023622047244
        },
        {
          "duration": 0.27522900000000305,
          "durationTicks": 192,
          "midi": 43,
          "name": "G2",
          "ticks": 23040,
          "time": 33.02748,
          "velocity": 0.11811023622047244
        },
        {
          "duration": 0.27522900000000305,
          "durationTicks": 192,
          "midi": 66,
          "name": "F#4",
          "ticks": 23040,
          "time": 33.02748,
          "velocity": 0.11811023622047244
        },
        {
          "duration": 0.27522900000000305,
          "durationTicks": 192,
          "midi": 59,
          "name": "B3",
          "ticks": 23232,
          "time": 33.302709,
          "velocity": 0.11811023622047244
        },
        {
          "duration": 0.27522900000000305,
          "durationTicks": 192,
          "midi": 47,
          "name": "B2",
          "ticks": 23232,
          "time": 33.302709,
          "velocity": 0.11811023622047244
        },
        {
          "duration": 0.27522899999999595,
          "durationTicks": 192,
          "midi": 50,
          "name": "D3",
          "ticks": 23424,
          "time": 33.577938,
          "velocity": 0.11811023622047244
        },
        {
          "duration": 0.27522899999999595,
          "durationTicks": 192,
          "midi": 66,
          "name": "F#4",
          "ticks": 23424,
          "time": 33.577938,
          "velocity": 0.11811023622047244
        },
        {
          "duration": 0.27522900000000305,
          "durationTicks": 192,
          "midi": 59,
          "name": "B3",
          "ticks": 23616,
          "time": 33.853167,
          "velocity": 0.11811023622047244
        },
        {
          "duration": 0.27522900000000305,
          "durationTicks": 192,
          "midi": 47,
          "name": "B2",
          "ticks": 23616,
          "time": 33.853167,
          "velocity": 0.11811023622047244
        },
        {
          "duration": 0.27522899999999595,
          "durationTicks": 192,
          "midi": 66,
          "name": "F#4",
          "ticks": 23808,
          "time": 34.128396,
          "velocity": 0.11811023622047244
        },
        {
          "duration": 0.27522899999999595,
          "durationTicks": 192,
          "midi": 50,
          "name": "D3",
          "ticks": 23808,
          "time": 34.128396,
          "velocity": 0.11811023622047244
        },
        {
          "duration": 0.27522900000000305,
          "durationTicks": 192,
          "midi": 59,
          "name": "B3",
          "ticks": 24000,
          "time": 34.403625,
          "velocity": 0.11811023622047244
        },
        {
          "duration": 0.27522900000000305,
          "durationTicks": 192,
          "midi": 47,
          "name": "B2",
          "ticks": 24000,
          "time": 34.403625,
          "velocity": 0.11811023622047244
        },
        {
          "duration": 0.27522899999999595,
          "durationTicks": 192,
          "midi": 43,
          "name": "G2",
          "ticks": 24192,
          "time": 34.678854,
          "velocity": 0.11811023622047244
        },
        {
          "duration": 0.27522899999999595,
          "durationTicks": 192,
          "midi": 66,
          "name": "F#4",
          "ticks": 24192,
          "time": 34.678854,
          "velocity": 0.11811023622047244
        },
        {
          "duration": 0.27522900000000305,
          "durationTicks": 192,
          "midi": 58,
          "name": "A#3",
          "ticks": 24384,
          "time": 34.954083,
          "velocity": 0.11811023622047244
        },
        {
          "duration": 0.27522900000000305,
          "durationTicks": 192,
          "midi": 46,
          "name": "A#2",
          "ticks": 24384,
          "time": 34.954083,
          "velocity": 0.11811023622047244
        },
        {
          "duration": 0.27522900000000305,
          "durationTicks": 192,
          "midi": 66,
          "name": "F#4",
          "ticks": 24576,
          "time": 35.229312,
          "velocity": 0.11811023622047244
        },
        {
          "duration": 0.27522900000000305,
          "durationTicks": 192,
          "midi": 50,
          "name": "D3",
          "ticks": 24576,
          "time": 35.229312,
          "velocity": 0.11811023622047244
        },
        {
          "duration": 0.27522899999999595,
          "durationTicks": 192,
          "midi": 46,
          "name": "A#2",
          "ticks": 24768,
          "time": 35.504541,
          "velocity": 0.11811023622047244
        },
        {
          "duration": 0.27522899999999595,
          "durationTicks": 192,
          "midi": 58,
          "name": "A#3",
          "ticks": 24768,
          "time": 35.504541,
          "velocity": 0.11811023622047244
        },
        {
          "duration": 0.27522900000000305,
          "durationTicks": 192,
          "midi": 50,
          "name": "D3",
          "ticks": 24960,
          "time": 35.77977,
          "velocity": 0.11811023622047244
        },
        {
          "duration": 0.550457999999999,
          "durationTicks": 384,
          "midi": 67,
          "name": "G4",
          "ticks": 24960,
          "time": 35.77977,
          "velocity": 0.11811023622047244
        },
        {
          "duration": 0.27522899999999595,
          "durationTicks": 192,
          "midi": 46,
          "name": "A#2",
          "ticks": 25152,
          "time": 36.054999,
          "velocity": 0.11811023622047244
        },
        {
          "duration": 0.27522900000000305,
          "durationTicks": 192,
          "midi": 50,
          "name": "D3",
          "ticks": 25344,
          "time": 36.330228,
          "velocity": 0.11811023622047244
        },
        {
          "duration": 0.27522900000000305,
          "durationTicks": 192,
          "midi": 66,
          "name": "F#4",
          "ticks": 25344,
          "time": 36.330228,
          "velocity": 0.11811023622047244
        },
        {
          "duration": 0.27522899999999595,
          "durationTicks": 192,
          "midi": 54,
          "name": "F#3",
          "ticks": 25536,
          "time": 36.605457,
          "velocity": 0.11811023622047244
        },
        {
          "duration": 0.27522899999999595,
          "durationTicks": 192,
          "midi": 62,
          "name": "D4",
          "ticks": 25536,
          "time": 36.605457,
          "velocity": 0.11811023622047244
        },
        {
          "duration": 0.27522900000000305,
          "durationTicks": 192,
          "midi": 57,
          "name": "A3",
          "ticks": 25728,
          "time": 36.880686,
          "velocity": 0.11811023622047244
        },
        {
          "duration": 0.27522900000000305,
          "durationTicks": 192,
          "midi": 66,
          "name": "F#4",
          "ticks": 25728,
          "time": 36.880686,
          "velocity": 0.11811023622047244
        },
        {
          "duration": 0.27522900000000305,
          "durationTicks": 192,
          "midi": 54,
          "name": "F#3",
          "ticks": 25920,
          "time": 37.155915,
          "velocity": 0.11811023622047244
        },
        {
          "duration": 0.27522900000000305,
          "durationTicks": 192,
          "midi": 62,
          "name": "D4",
          "ticks": 25920,
          "time": 37.155915,
          "velocity": 0.11811023622047244
        },
        {
          "duration": 0.27522899999999595,
          "durationTicks": 192,
          "midi": 57,
          "name": "A3",
          "ticks": 26112,
          "time": 37.431144,
          "velocity": 0.11811023622047244
        },
        {
          "duration": 0.27522899999999595,
          "durationTicks": 192,
          "midi": 64,
          "name": "E4",
          "ticks": 26112,
          "time": 37.431144,
          "velocity": 0.11811023622047244
        },
        {
          "duration": 0.27522900000000305,
          "durationTicks": 192,
          "midi": 66,
          "name": "F#4",
          "ticks": 26304,
          "time": 37.706373,
          "velocity": 0.11811023622047244
        },
        {
          "duration": 0.27522900000000305,
          "durationTicks": 192,
          "midi": 54,
          "name": "F#3",
          "ticks": 26304,
          "time": 37.706373,
          "velocity": 0.11811023622047244
        },
        {
          "duration": 0.27522899999999595,
          "durationTicks": 192,
          "midi": 49,
          "name": "C#3",
          "ticks": 26496,
          "time": 37.981602,
          "velocity": 0.11811023622047244
        },
        {
          "duration": 0.550457999999999,
          "durationTicks": 384,
          "midi": 64,
          "name": "E4",
          "ticks": 26496,
          "time": 37.981602,
          "velocity": 0.11811023622047244
        },
        {
          "duration": 0.27522900000000305,
          "durationTicks": 192,
          "midi": 52,
          "name": "E3",
          "ticks": 26688,
          "time": 38.256831,
          "velocity": 0.11811023622047244
        },
        {
          "duration": 0.550457999999999,
          "durationTicks": 384,
          "midi": 62,
          "name": "D4",
          "ticks": 26880,
          "time": 38.53206,
          "velocity": 0.11811023622047244
        },
        {
          "duration": 0.27522899999999595,
          "durationTicks": 192,
          "midi": 57,
          "name": "A3",
          "ticks": 26880,
          "time": 38.53206,
          "velocity": 0.11811023622047244
        },
        {
          "duration": 0.27522900000000305,
          "durationTicks": 192,
          "midi": 52,
          "name": "E3",
          "ticks": 27072,
          "time": 38.807289,
          "velocity": 0.11811023622047244
        },
        {
          "duration": 0.27522900000000305,
          "durationTicks": 192,
          "midi": 57,
          "name": "A3",
          "ticks": 27264,
          "time": 39.082518,
          "velocity": 0.11811023622047244
        },
        {
          "duration": 0.550457999999999,
          "durationTicks": 384,
          "midi": 61,
          "name": "C#4",
          "ticks": 27264,
          "time": 39.082518,
          "velocity": 0.11811023622047244
        },
        {
          "duration": 0.27522899999999595,
          "durationTicks": 192,
          "midi": 52,
          "name": "E3",
          "ticks": 27456,
          "time": 39.357747,
          "velocity": 0.11811023622047244
        },
        {
          "duration": 0.27522900000000305,
          "durationTicks": 192,
          "midi": 50,
          "name": "D3",
          "ticks": 27648,
          "time": 39.632976,
          "velocity": 0.11811023622047244
        },
        {
          "duration": 0.27522900000000305,
          "durationTicks": 192,
          "midi": 66,
          "name": "F#4",
          "ticks": 27648,
          "time": 39.632976,
          "velocity": 0.11811023622047244
        },
        {
          "duration": 0.27522899999999595,
          "durationTicks": 192,
          "midi": 54,
          "name": "F#3",
          "ticks": 27840,
          "time": 39.908205,
          "velocity": 0.11811023622047244
        },
        {
          "duration": 0.27522899999999595,
          "durationTicks": 192,
          "midi": 61,
          "name": "C#4",
          "ticks": 27840,
          "time": 39.908205,
          "velocity": 0.11811023622047244
        },
        {
          "duration": 0.27522900000000305,
          "durationTicks": 192,
          "midi": 66,
          "name": "F#4",
          "ticks": 28032,
          "time": 40.183434,
          "velocity": 0.11811023622047244
        },
        {
          "duration": 0.27522900000000305,
          "durationTicks": 192,
          "midi": 57,
          "name": "A3",
          "ticks": 28032,
          "time": 40.183434,
          "velocity": 0.11811023622047244
        },
        {
          "duration": 0.27522899999999595,
          "durationTicks": 192,
          "midi": 54,
          "name": "F#3",
          "ticks": 28224,
          "time": 40.458663,
          "velocity": 0.11811023622047244
        },
        {
          "duration": 0.27522899999999595,
          "durationTicks": 192,
          "midi": 61,
          "name": "C#4",
          "ticks": 28224,
          "time": 40.458663,
          "velocity": 0.11811023622047244
        },
        {
          "duration": 0.27522900000000305,
          "durationTicks": 192,
          "midi": 57,
          "name": "A3",
          "ticks": 28416,
          "time": 40.733892,
          "velocity": 0.11811023622047244
        },
        {
          "duration": 0.27522900000000305,
          "durationTicks": 192,
          "midi": 66,
          "name": "F#4",
          "ticks": 28416,
          "time": 40.733892,
          "velocity": 0.11811023622047244
        },
        {
          "duration": 0.27522900000000305,
          "durationTicks": 192,
          "midi": 61,
          "name": "C#4",
          "ticks": 28608,
          "time": 41.009121,
          "velocity": 0.11811023622047244
        },
        {
          "duration": 0.27522900000000305,
          "durationTicks": 192,
          "midi": 54,
          "name": "F#3",
          "ticks": 28608,
          "time": 41.009121,
          "velocity": 0.11811023622047244
        },
        {
          "duration": 0.27522899999999595,
          "durationTicks": 192,
          "midi": 66,
          "name": "F#4",
          "ticks": 28800,
          "time": 41.28435,
          "velocity": 0.11811023622047244
        },
        {
          "duration": 0.27522899999999595,
          "durationTicks": 192,
          "midi": 50,
          "name": "D3",
          "ticks": 28800,
          "time": 41.28435,
          "velocity": 0.11811023622047244
        },
        {
          "duration": 0.27522900000000305,
          "durationTicks": 192,
          "midi": 54,
          "name": "F#3",
          "ticks": 28992,
          "time": 41.559579,
          "velocity": 0.11811023622047244
        },
        {
          "duration": 0.27522900000000305,
          "durationTicks": 192,
          "midi": 61,
          "name": "C#4",
          "ticks": 28992,
          "time": 41.559579,
          "velocity": 0.11811023622047244
        },
        {
          "duration": 0.27522899999999595,
          "durationTicks": 192,
          "midi": 57,
          "name": "A3",
          "ticks": 29184,
          "time": 41.834808,
          "velocity": 0.11811023622047244
        },
        {
          "duration": 0.27522899999999595,
          "durationTicks": 192,
          "midi": 66,
          "name": "F#4",
          "ticks": 29184,
          "time": 41.834808,
          "velocity": 0.11811023622047244
        },
        {
          "duration": 0.27522900000000305,
          "durationTicks": 192,
          "midi": 54,
          "name": "F#3",
          "ticks": 29376,
          "time": 42.110037,
          "velocity": 0.11811023622047244
        },
        {
          "duration": 0.27522900000000305,
          "durationTicks": 192,
          "midi": 61,
          "name": "C#4",
          "ticks": 29376,
          "time": 42.110037,
          "velocity": 0.11811023622047244
        },
        {
          "duration": 0.27522899999999595,
          "durationTicks": 192,
          "midi": 57,
          "name": "A3",
          "ticks": 29568,
          "time": 42.385266,
          "velocity": 0.11811023622047244
        },
        {
          "duration": 0.27522899999999595,
          "durationTicks": 192,
          "midi": 66,
          "name": "F#4",
          "ticks": 29568,
          "time": 42.385266,
          "velocity": 0.11811023622047244
        },
        {
          "duration": 0.27522900000000305,
          "durationTicks": 192,
          "midi": 61,
          "name": "C#4",
          "ticks": 29760,
          "time": 42.660495,
          "velocity": 0.11811023622047244
        },
        {
          "duration": 0.27522900000000305,
          "durationTicks": 192,
          "midi": 54,
          "name": "F#3",
          "ticks": 29760,
          "time": 42.660495,
          "velocity": 0.11811023622047244
        },
        {
          "duration": 0.27522900000000305,
          "durationTicks": 192,
          "midi": 47,
          "name": "B2",
          "ticks": 29952,
          "time": 42.935724,
          "velocity": 0.11811023622047244
        },
        {
          "duration": 0.27522900000000305,
          "durationTicks": 192,
          "midi": 59,
          "name": "B3",
          "ticks": 29952,
          "time": 42.935724,
          "velocity": 0.11811023622047244
        },
        {
          "duration": 0.27522899999999595,
          "durationTicks": 192,
          "midi": 57,
          "name": "A3",
          "ticks": 30144,
          "time": 43.210953,
          "velocity": 0.11811023622047244
        },
        {
          "duration": 0.27522899999999595,
          "durationTicks": 192,
          "midi": 51,
          "name": "D#3",
          "ticks": 30144,
          "time": 43.210953,
          "velocity": 0.11811023622047244
        },
        {
          "duration": 0.27522900000000305,
          "durationTicks": 192,
          "midi": 54,
          "name": "F#3",
          "ticks": 30336,
          "time": 43.486182,
          "velocity": 0.11811023622047244
        },
        {
          "duration": 0.550457999999999,
          "durationTicks": 384,
          "midi": 61,
          "name": "C#4",
          "ticks": 30336,
          "time": 43.486182,
          "velocity": 0.11811023622047244
        },
        {
          "duration": 0.27522899999999595,
          "durationTicks": 192,
          "midi": 51,
          "name": "D#3",
          "ticks": 30528,
          "time": 43.761411,
          "velocity": 0.11811023622047244
        },
        {
          "duration": 0.27522900000000305,
          "durationTicks": 192,
          "midi": 57,
          "name": "A3",
          "ticks": 30720,
          "time": 44.03664,
          "velocity": 0.11811023622047244
        },
        {
          "duration": 0.27522900000000305,
          "durationTicks": 192,
          "midi": 54,
          "name": "F#3",
          "ticks": 30720,
          "time": 44.03664,
          "velocity": 0.11811023622047244
        },
        {
          "duration": 0.27522899999999595,
          "durationTicks": 192,
          "midi": 59,
          "name": "B3",
          "ticks": 30912,
          "time": 44.311869,
          "velocity": 0.11811023622047244
        },
        {
          "duration": 0.27522899999999595,
          "durationTicks": 192,
          "midi": 51,
          "name": "D#3",
          "ticks": 30912,
          "time": 44.311869,
          "velocity": 0.11811023622047244
        },
        {
          "duration": 0.27522900000000305,
          "durationTicks": 192,
          "midi": 47,
          "name": "B2",
          "ticks": 31104,
          "time": 44.587098,
          "velocity": 0.11811023622047244
        },
        {
          "duration": 0.27522900000000305,
          "durationTicks": 192,
          "midi": 64,
          "name": "E4",
          "ticks": 31104,
          "time": 44.587098,
          "velocity": 0.11811023622047244
        },
        {
          "duration": 0.27522900000000305,
          "durationTicks": 192,
          "midi": 51,
          "name": "D#3",
          "ticks": 31296,
          "time": 44.862327,
          "velocity": 0.11811023622047244
        },
        {
          "duration": 0.27522900000000305,
          "durationTicks": 192,
          "midi": 63,
          "name": "D#4",
          "ticks": 31296,
          "time": 44.862327,
          "velocity": 0.11811023622047244
        },
        {
          "duration": 0.27522899999999595,
          "durationTicks": 192,
          "midi": 64,
          "name": "E4",
          "ticks": 31488,
          "time": 45.137556000000004,
          "velocity": 0.11811023622047244
        },
        {
          "duration": 0.27522899999999595,
          "durationTicks": 192,
          "midi": 54,
          "name": "F#3",
          "ticks": 31488,
          "time": 45.137556000000004,
          "velocity": 0.11811023622047244
        },
        {
          "duration": 0.27522900000000305,
          "durationTicks": 192,
          "midi": 51,
          "name": "D#3",
          "ticks": 31680,
          "time": 45.412785,
          "velocity": 0.11811023622047244
        },
        {
          "duration": 0.27522900000000305,
          "durationTicks": 192,
          "midi": 66,
          "name": "F#4",
          "ticks": 31680,
          "time": 45.412785,
          "velocity": 0.11811023622047244
        },
        {
          "duration": 0.27522899999999595,
          "durationTicks": 192,
          "midi": 63,
          "name": "D#4",
          "ticks": 31872,
          "time": 45.688014,
          "velocity": 0.11811023622047244
        },
        {
          "duration": 0.27522899999999595,
          "durationTicks": 192,
          "midi": 54,
          "name": "F#3",
          "ticks": 31872,
          "time": 45.688014,
          "velocity": 0.11811023622047244
        },
        {
          "duration": 0.27522900000000305,
          "durationTicks": 192,
          "midi": 51,
          "name": "D#3",
          "ticks": 32064,
          "time": 45.963243,
          "velocity": 0.11811023622047244
        },
        {
          "duration": 0.27522900000000305,
          "durationTicks": 192,
          "midi": 59,
          "name": "B3",
          "ticks": 32064,
          "time": 45.963243,
          "velocity": 0.11811023622047244
        },
        {
          "duration": 0.27522899999999595,
          "durationTicks": 192,
          "midi": 66,
          "name": "F#4",
          "ticks": 32256,
          "time": 46.238472,
          "velocity": 0.11811023622047244
        },
        {
          "duration": 0.27522899999999595,
          "durationTicks": 192,
          "midi": 43,
          "name": "G2",
          "ticks": 32256,
          "time": 46.238472,
          "velocity": 0.11811023622047244
        },
        {
          "duration": 0.27522900000000305,
          "durationTicks": 192,
          "midi": 59,
          "name": "B3",
          "ticks": 32448,
          "time": 46.513701,
          "velocity": 0.11811023622047244
        },
        {
          "duration": 0.27522900000000305,
          "durationTicks": 192,
          "midi": 47,
          "name": "B2",
          "ticks": 32448,
          "time": 46.513701,
          "velocity": 0.11811023622047244
        },
        {
          "duration": 0.27522900000000305,
          "durationTicks": 192,
          "midi": 66,
          "name": "F#4",
          "ticks": 32640,
          "time": 46.78893,
          "velocity": 0.11811023622047244
        },
        {
          "duration": 0.27522900000000305,
          "durationTicks": 192,
          "midi": 50,
          "name": "D3",
          "ticks": 32640,
          "time": 46.78893,
          "velocity": 0.11811023622047244
        },
        {
          "duration": 0.27522899999999595,
          "durationTicks": 192,
          "midi": 47,
          "name": "B2",
          "ticks": 32832,
          "time": 47.064159000000004,
          "velocity": 0.11811023622047244
        },
        {
          "duration": 0.27522899999999595,
          "durationTicks": 192,
          "midi": 59,
          "name": "B3",
          "ticks": 32832,
          "time": 47.064159000000004,
          "velocity": 0.11811023622047244
        },
        {
          "duration": 0.27522900000000305,
          "durationTicks": 192,
          "midi": 66,
          "name": "F#4",
          "ticks": 33024,
          "time": 47.339388,
          "velocity": 0.11811023622047244
        },
        {
          "duration": 0.27522900000000305,
          "durationTicks": 192,
          "midi": 50,
          "name": "D3",
          "ticks": 33024,
          "time": 47.339388,
          "velocity": 0.11811023622047244
        },
        {
          "duration": 0.27522899999999595,
          "durationTicks": 192,
          "midi": 59,
          "name": "B3",
          "ticks": 33216,
          "time": 47.614617,
          "velocity": 0.11811023622047244
        },
        {
          "duration": 0.27522899999999595,
          "durationTicks": 192,
          "midi": 47,
          "name": "B2",
          "ticks": 33216,
          "time": 47.614617,
          "velocity": 0.11811023622047244
        },
        {
          "duration": 0.27522900000000305,
          "durationTicks": 192,
          "midi": 43,
          "name": "G2",
          "ticks": 33408,
          "time": 47.889846,
          "velocity": 0.11811023622047244
        },
        {
          "duration": 0.27522900000000305,
          "durationTicks": 192,
          "midi": 66,
          "name": "F#4",
          "ticks": 33408,
          "time": 47.889846,
          "velocity": 0.11811023622047244
        },
        {
          "duration": 0.27522899999999595,
          "durationTicks": 192,
          "midi": 46,
          "name": "A#2",
          "ticks": 33600,
          "time": 48.165075,
          "velocity": 0.11811023622047244
        },
        {
          "duration": 0.27522899999999595,
          "durationTicks": 192,
          "midi": 58,
          "name": "A#3",
          "ticks": 33600,
          "time": 48.165075,
          "velocity": 0.11811023622047244
        },
        {
          "duration": 0.27522900000000305,
          "durationTicks": 192,
          "midi": 66,
          "name": "F#4",
          "ticks": 33792,
          "time": 48.440304,
          "velocity": 0.11811023622047244
        },
        {
          "duration": 0.27522900000000305,
          "durationTicks": 192,
          "midi": 50,
          "name": "D3",
          "ticks": 33792,
          "time": 48.440304,
          "velocity": 0.11811023622047244
        },
        {
          "duration": 0.27522900000000305,
          "durationTicks": 192,
          "midi": 58,
          "name": "A#3",
          "ticks": 33984,
          "time": 48.715533,
          "velocity": 0.11811023622047244
        },
        {
          "duration": 0.27522900000000305,
          "durationTicks": 192,
          "midi": 46,
          "name": "A#2",
          "ticks": 33984,
          "time": 48.715533,
          "velocity": 0.11811023622047244
        },
        {
          "duration": 0.550457999999999,
          "durationTicks": 384,
          "midi": 67,
          "name": "G4",
          "ticks": 34176,
          "time": 48.990762000000004,
          "velocity": 0.11811023622047244
        },
        {
          "duration": 0.27522899999999595,
          "durationTicks": 192,
          "midi": 50,
          "name": "D3",
          "ticks": 34176,
          "time": 48.990762000000004,
          "velocity": 0.11811023622047244
        },
        {
          "duration": 0.27522900000000305,
          "durationTicks": 192,
          "midi": 46,
          "name": "A#2",
          "ticks": 34368,
          "time": 49.265991,
          "velocity": 0.11811023622047244
        },
        {
          "duration": 0.27522899999999595,
          "durationTicks": 192,
          "midi": 50,
          "name": "D3",
          "ticks": 34560,
          "time": 49.54122,
          "velocity": 0.11811023622047244
        },
        {
          "duration": 0.27522899999999595,
          "durationTicks": 192,
          "midi": 66,
          "name": "F#4",
          "ticks": 34560,
          "time": 49.54122,
          "velocity": 0.11811023622047244
        },
        {
          "duration": 0.27522900000000305,
          "durationTicks": 192,
          "midi": 54,
          "name": "F#3",
          "ticks": 34752,
          "time": 49.816449,
          "velocity": 0.11811023622047244
        },
        {
          "duration": 0.27522900000000305,
          "durationTicks": 192,
          "midi": 62,
          "name": "D4",
          "ticks": 34752,
          "time": 49.816449,
          "velocity": 0.11811023622047244
        },
        {
          "duration": 0.27522899999999595,
          "durationTicks": 192,
          "midi": 66,
          "name": "F#4",
          "ticks": 34944,
          "time": 50.091678,
          "velocity": 0.11811023622047244
        },
        {
          "duration": 0.27522899999999595,
          "durationTicks": 192,
          "midi": 57,
          "name": "A3",
          "ticks": 34944,
          "time": 50.091678,
          "velocity": 0.11811023622047244
        },
        {
          "duration": 0.27522900000000305,
          "durationTicks": 192,
          "midi": 62,
          "name": "D4",
          "ticks": 35136,
          "time": 50.366907,
          "velocity": 0.11811023622047244
        },
        {
          "duration": 0.27522900000000305,
          "durationTicks": 192,
          "midi": 54,
          "name": "F#3",
          "ticks": 35136,
          "time": 50.366907,
          "velocity": 0.11811023622047244
        },
        {
          "duration": 0.27522900000000305,
          "durationTicks": 192,
          "midi": 64,
          "name": "E4",
          "ticks": 35328,
          "time": 50.642136,
          "velocity": 0.11811023622047244
        },
        {
          "duration": 0.27522900000000305,
          "durationTicks": 192,
          "midi": 57,
          "name": "A3",
          "ticks": 35328,
          "time": 50.642136,
          "velocity": 0.11811023622047244
        },
        {
          "duration": 0.27522899999999595,
          "durationTicks": 192,
          "midi": 66,
          "name": "F#4",
          "ticks": 35520,
          "time": 50.917365000000004,
          "velocity": 0.11811023622047244
        },
        {
          "duration": 0.27522899999999595,
          "durationTicks": 192,
          "midi": 54,
          "name": "F#3",
          "ticks": 35520,
          "time": 50.917365000000004,
          "velocity": 0.11811023622047244
        },
        {
          "duration": 0.550457999999999,
          "durationTicks": 384,
          "midi": 61,
          "name": "C#4",
          "ticks": 35712,
          "time": 51.192594,
          "velocity": 0.11811023622047244
        },
        {
          "duration": 0.27522900000000305,
          "durationTicks": 192,
          "midi": 50,
          "name": "D3",
          "ticks": 35712,
          "time": 51.192594,
          "velocity": 0.11811023622047244
        },
        {
          "duration": 0.27522899999999595,
          "durationTicks": 192,
          "midi": 54,
          "name": "F#3",
          "ticks": 35904,
          "time": 51.467823,
          "velocity": 0.11811023622047244
        },
        {
          "duration": 0.27522900000000305,
          "durationTicks": 192,
          "midi": 57,
          "name": "A3",
          "ticks": 36096,
          "time": 51.743052,
          "velocity": 0.11811023622047244
        },
        {
          "duration": 0.550457999999999,
          "durationTicks": 384,
          "midi": 66,
          "name": "F#4",
          "ticks": 36096,
          "time": 51.743052,
          "velocity": 0.11811023622047244
        },
        {
          "duration": 0.27522899999999595,
          "durationTicks": 192,
          "midi": 54,
          "name": "F#3",
          "ticks": 36288,
          "time": 52.018281,
          "velocity": 0.11811023622047244
        },
        {
          "duration": 0.5504580000000061,
          "durationTicks": 384,
          "midi": 61,
          "name": "C#4",
          "ticks": 36480,
          "time": 52.29351,
          "velocity": 0.11811023622047244
        },
        {
          "duration": 0.27522900000000305,
          "durationTicks": 192,
          "midi": 57,
          "name": "A3",
          "ticks": 36480,
          "time": 52.29351,
          "velocity": 0.11811023622047244
        },
        {
          "duration": 0.27522900000000305,
          "durationTicks": 192,
          "midi": 54,
          "name": "F#3",
          "ticks": 36672,
          "time": 52.568739,
          "velocity": 0.11811023622047244
        },
        {
          "duration": 0.27522899999999595,
          "durationTicks": 192,
          "midi": 55,
          "name": "G3",
          "ticks": 36864,
          "time": 52.843968000000004,
          "velocity": 0.11811023622047244
        },
        {
          "duration": 0.825686999999995,
          "durationTicks": 576,
          "midi": 62,
          "name": "D4",
          "ticks": 36864,
          "time": 52.843968000000004,
          "velocity": 0.11811023622047244
        },
        {
          "duration": 0.27522900000000305,
          "durationTicks": 192,
          "midi": 50,
          "name": "D3",
          "ticks": 37056,
          "time": 53.119197,
          "velocity": 0.11811023622047244
        },
        {
          "duration": 0.27522899999999595,
          "durationTicks": 192,
          "midi": 55,
          "name": "G3",
          "ticks": 37248,
          "time": 53.394426,
          "velocity": 0.11811023622047244
        },
        {
          "duration": 0.27522900000000305,
          "durationTicks": 192,
          "midi": 50,
          "name": "D3",
          "ticks": 37440,
          "time": 53.669655,
          "velocity": 0.11811023622047244
        },
        {
          "duration": 0.27522900000000305,
          "durationTicks": 192,
          "midi": 57,
          "name": "A3",
          "ticks": 37440,
          "time": 53.669655,
          "velocity": 0.11811023622047244
        },
        {
          "duration": 0.27522899999999595,
          "durationTicks": 192,
          "midi": 55,
          "name": "G3",
          "ticks": 37632,
          "time": 53.944884,
          "velocity": 0.11811023622047244
        },
        {
          "duration": 0.27522899999999595,
          "durationTicks": 192,
          "midi": 59,
          "name": "B3",
          "ticks": 37632,
          "time": 53.944884,
          "velocity": 0.11811023622047244
        },
        {
          "duration": 0.27522900000000305,
          "durationTicks": 192,
          "midi": 54,
          "name": "F#3",
          "ticks": 37824,
          "time": 54.220113,
          "velocity": 0.11811023622047244
        },
        {
          "duration": 0.27522900000000305,
          "durationTicks": 192,
          "midi": 61,
          "name": "C#4",
          "ticks": 37824,
          "time": 54.220113,
          "velocity": 0.11811023622047244
        },
        {
          "duration": 0.550457999999999,
          "durationTicks": 384,
          "midi": 62,
          "name": "D4",
          "ticks": 38016,
          "time": 54.495342,
          "velocity": 0.11811023622047244
        },
        {
          "duration": 0.27522899999999595,
          "durationTicks": 192,
          "midi": 52,
          "name": "E3",
          "ticks": 38016,
          "time": 54.495342,
          "velocity": 0.11811023622047244
        },
        {
          "duration": 0.27522900000000305,
          "durationTicks": 192,
          "midi": 50,
          "name": "D3",
          "ticks": 38208,
          "time": 54.770571,
          "velocity": 0.11811023622047244
        },
        {
          "duration": 0.550457999999999,
          "durationTicks": 384,
          "midi": 61,
          "name": "C#4",
          "ticks": 38400,
          "time": 55.0458,
          "velocity": 0.11811023622047244
        },
        {
          "duration": 0.27522900000000305,
          "durationTicks": 192,
          "midi": 54,
          "name": "F#3",
          "ticks": 38400,
          "time": 55.0458,
          "velocity": 0.11811023622047244
        },
        {
          "duration": 0.27522899999999595,
          "durationTicks": 192,
          "midi": 45,
          "name": "A2",
          "ticks": 38592,
          "time": 55.321029,
          "velocity": 0.11811023622047244
        },
        {
          "duration": 0.27522900000000305,
          "durationTicks": 192,
          "midi": 47,
          "name": "B2",
          "ticks": 38784,
          "time": 55.596258,
          "velocity": 0.11811023622047244
        },
        {
          "duration": 0.550457999999999,
          "durationTicks": 384,
          "midi": 62,
          "name": "D4",
          "ticks": 38784,
          "time": 55.596258,
          "velocity": 0.11811023622047244
        },
        {
          "duration": 0.27522899999999595,
          "durationTicks": 192,
          "midi": 49,
          "name": "C#3",
          "ticks": 38976,
          "time": 55.871487,
          "velocity": 0.11811023622047244
        },
        {
          "duration": 0.8256870000000021,
          "durationTicks": 576,
          "midi": 57,
          "name": "A3",
          "ticks": 39168,
          "time": 56.146716,
          "velocity": 0.11811023622047244
        },
        {
          "duration": 0.27522900000000305,
          "durationTicks": 192,
          "midi": 52,
          "name": "E3",
          "ticks": 39168,
          "time": 56.146716,
          "velocity": 0.11811023622047244
        },
        {
          "duration": 0.27522899999999595,
          "durationTicks": 192,
          "midi": 54,
          "name": "F#3",
          "ticks": 39360,
          "time": 56.421945,
          "velocity": 0.11811023622047244
        },
        {
          "duration": 0.27522900000000305,
          "durationTicks": 192,
          "midi": 49,
          "name": "C#3",
          "ticks": 39552,
          "time": 56.697174,
          "velocity": 0.11811023622047244
        },
        {
          "duration": 0.27522900000000305,
          "durationTicks": 192,
          "midi": 59,
          "name": "B3",
          "ticks": 39744,
          "time": 56.972403,
          "velocity": 0.11811023622047244
        },
        {
          "duration": 0.27522900000000305,
          "durationTicks": 192,
          "midi": 54,
          "name": "F#3",
          "ticks": 39744,
          "time": 56.972403,
          "velocity": 0.11811023622047244
        },
        {
          "duration": 0.27522899999999595,
          "durationTicks": 192,
          "midi": 49,
          "name": "C#3",
          "ticks": 39936,
          "time": 57.247632,
          "velocity": 0.11811023622047244
        },
        {
          "duration": 0.27522899999999595,
          "durationTicks": 192,
          "midi": 57,
          "name": "A3",
          "ticks": 39936,
          "time": 57.247632,
          "velocity": 0.11811023622047244
        },
        {
          "duration": 0.27522900000000305,
          "durationTicks": 192,
          "midi": 55,
          "name": "G3",
          "ticks": 40128,
          "time": 57.522861,
          "velocity": 0.11811023622047244
        },
        {
          "duration": 0.27522900000000305,
          "durationTicks": 192,
          "midi": 43,
          "name": "G2",
          "ticks": 40128,
          "time": 57.522861,
          "velocity": 0.11811023622047244
        },
        {
          "duration": 0.27522899999999595,
          "durationTicks": 192,
          "midi": 45,
          "name": "A2",
          "ticks": 40320,
          "time": 57.79809,
          "velocity": 0.11811023622047244
        },
        {
          "duration": 0.550457999999999,
          "durationTicks": 384,
          "midi": 54,
          "name": "F#3",
          "ticks": 40320,
          "time": 57.79809,
          "velocity": 0.11811023622047244
        },
        {
          "duration": 0.27522900000000305,
          "durationTicks": 192,
          "midi": 49,
          "name": "C#3",
          "ticks": 40512,
          "time": 58.073319,
          "velocity": 0.11811023622047244
        },
        {
          "duration": 0.27522899999999595,
          "durationTicks": 192,
          "midi": 57,
          "name": "A3",
          "ticks": 40704,
          "time": 58.348548,
          "velocity": 0.11811023622047244
        },
        {
          "duration": 0.550457999999999,
          "durationTicks": 384,
          "midi": 66,
          "name": "F#4",
          "ticks": 40704,
          "time": 58.348548,
          "velocity": 0.11811023622047244
        },
        {
          "duration": 0.27522900000000305,
          "durationTicks": 192,
          "midi": 50,
          "name": "D3",
          "ticks": 40896,
          "time": 58.623777,
          "velocity": 0.11811023622047244
        },
        {
          "duration": 0.27522900000000305,
          "durationTicks": 192,
          "midi": 55,
          "name": "G3",
          "ticks": 41088,
          "time": 58.899006,
          "velocity": 0.11811023622047244
        },
        {
          "duration": 0.550457999999999,
          "durationTicks": 384,
          "midi": 64,
          "name": "E4",
          "ticks": 41088,
          "time": 58.899006,
          "velocity": 0.11811023622047244
        },
        {
          "duration": 0.27522899999999595,
          "durationTicks": 192,
          "midi": 54,
          "name": "F#3",
          "ticks": 41280,
          "time": 59.174235,
          "velocity": 0.11811023622047244
        },
        {
          "duration": 0.8256870000000021,
          "durationTicks": 576,
          "midi": 62,
          "name": "D4",
          "ticks": 41472,
          "time": 59.449464,
          "velocity": 0.11811023622047244
        },
        {
          "duration": 0.27522900000000305,
          "durationTicks": 192,
          "midi": 47,
          "name": "B2",
          "ticks": 41472,
          "time": 59.449464,
          "velocity": 0.11811023622047244
        },
        {
          "duration": 0.27522899999999595,
          "durationTicks": 192,
          "midi": 50,
          "name": "D3",
          "ticks": 41664,
          "time": 59.724693,
          "velocity": 0.11811023622047244
        },
        {
          "duration": 0.27522900000000305,
          "durationTicks": 192,
          "midi": 54,
          "name": "F#3",
          "ticks": 41856,
          "time": 59.999922,
          "velocity": 0.11811023622047244
        },
        {
          "duration": 0.27522899999999595,
          "durationTicks": 192,
          "midi": 57,
          "name": "A3",
          "ticks": 42048,
          "time": 60.275151,
          "velocity": 0.11811023622047244
        },
        {
          "duration": 0.27522899999999595,
          "durationTicks": 192,
          "midi": 50,
          "name": "D3",
          "ticks": 42048,
          "time": 60.275151,
          "velocity": 0.11811023622047244
        },
        {
          "duration": 0.27522900000000305,
          "durationTicks": 192,
          "midi": 54,
          "name": "F#3",
          "ticks": 42240,
          "time": 60.55038,
          "velocity": 0.11811023622047244
        },
        {
          "duration": 0.27522900000000305,
          "durationTicks": 192,
          "midi": 59,
          "name": "B3",
          "ticks": 42240,
          "time": 60.55038,
          "velocity": 0.11811023622047244
        },
        {
          "duration": 0.27522900000000305,
          "durationTicks": 192,
          "midi": 47,
          "name": "B2",
          "ticks": 42432,
          "time": 60.825609,
          "velocity": 0.11811023622047244
        },
        {
          "duration": 0.27522900000000305,
          "durationTicks": 192,
          "midi": 61,
          "name": "C#4",
          "ticks": 42432,
          "time": 60.825609,
          "velocity": 0.11811023622047244
        },
        {
          "duration": 0.550457999999999,
          "durationTicks": 384,
          "midi": 62,
          "name": "D4",
          "ticks": 42624,
          "time": 61.100838,
          "velocity": 0.11811023622047244
        },
        {
          "duration": 0.27522899999999595,
          "durationTicks": 192,
          "midi": 45,
          "name": "A2",
          "ticks": 42624,
          "time": 61.100838,
          "velocity": 0.11811023622047244
        },
        {
          "duration": 0.27522900000000305,
          "durationTicks": 192,
          "midi": 49,
          "name": "C#3",
          "ticks": 42816,
          "time": 61.376067,
          "velocity": 0.11811023622047244
        },
        {
          "duration": 0.550457999999999,
          "durationTicks": 384,
          "midi": 61,
          "name": "C#4",
          "ticks": 43008,
          "time": 61.651296,
          "velocity": 0.11811023622047244
        },
        {
          "duration": 0.27522899999999595,
          "durationTicks": 192,
          "midi": 52,
          "name": "E3",
          "ticks": 43008,
          "time": 61.651296,
          "velocity": 0.11811023622047244
        },
        {
          "duration": 0.27522900000000305,
          "durationTicks": 192,
          "midi": 49,
          "name": "C#3",
          "ticks": 43200,
          "time": 61.926525,
          "velocity": 0.11811023622047244
        },
        {
          "duration": 0.27522899999999595,
          "durationTicks": 192,
          "midi": 54,
          "name": "F#3",
          "ticks": 43392,
          "time": 62.201754,
          "velocity": 0.11811023622047244
        },
        {
          "duration": 0.550457999999999,
          "durationTicks": 384,
          "midi": 62,
          "name": "D4",
          "ticks": 43392,
          "time": 62.201754,
          "velocity": 0.11811023622047244
        },
        {
          "duration": 0.27522900000000305,
          "durationTicks": 192,
          "midi": 58,
          "name": "A#3",
          "ticks": 43584,
          "time": 62.476983,
          "velocity": 0.11811023622047244
        },
        {
          "duration": 0.27522900000000305,
          "durationTicks": 192,
          "midi": 59,
          "name": "B3",
          "ticks": 43776,
          "time": 62.752212,
          "velocity": 0.11811023622047244
        },
        {
          "duration": 0.8256870000000021,
          "durationTicks": 576,
          "midi": 66,
          "name": "F#4",
          "ticks": 43776,
          "time": 62.752212,
          "velocity": 0.11811023622047244
        },
        {
          "duration": 0.27522899999999595,
          "durationTicks": 192,
          "midi": 54,
          "name": "F#3",
          "ticks": 43968,
          "time": 63.027441,
          "velocity": 0.11811023622047244
        },
        {
          "duration": 0.27522900000000305,
          "durationTicks": 192,
          "midi": 52,
          "name": "E3",
          "ticks": 44160,
          "time": 63.30267,
          "velocity": 0.11811023622047244
        },
        {
          "duration": 0.27522899999999595,
          "durationTicks": 192,
          "midi": 47,
          "name": "B2",
          "ticks": 44352,
          "time": 63.577899,
          "velocity": 0.11811023622047244
        },
        {
          "duration": 0.27522899999999595,
          "durationTicks": 192,
          "midi": 67,
          "name": "G4",
          "ticks": 44352,
          "time": 63.577899,
          "velocity": 0.11811023622047244
        },
        {
          "duration": 0.27522899999999595,
          "durationTicks": 192,
          "midi": 50,
          "name": "D3",
          "ticks": 44544,
          "time": 63.853128,
          "velocity": 0.11811023622047244
        },
        {
          "duration": 0.27522899999999595,
          "durationTicks": 192,
          "midi": 66,
          "name": "F#4",
          "ticks": 44544,
          "time": 63.853128,
          "velocity": 0.11811023622047244
        },
        {
          "duration": 0.27522900000001016,
          "durationTicks": 192,
          "midi": 64,
          "name": "E4",
          "ticks": 44736,
          "time": 64.128357,
          "velocity": 0.11811023622047244
        },
        {
          "duration": 0.27522900000001016,
          "durationTicks": 192,
          "midi": 55,
          "name": "G3",
          "ticks": 44736,
          "time": 64.128357,
          "velocity": 0.11811023622047244
        },
        {
          "duration": 0.5504579999999919,
          "durationTicks": 384,
          "midi": 62,
          "name": "D4",
          "ticks": 44928,
          "time": 64.403586,
          "velocity": 0.11811023622047244
        },
        {
          "duration": 0.27522899999999595,
          "durationTicks": 192,
          "midi": 57,
          "name": "A3",
          "ticks": 44928,
          "time": 64.403586,
          "velocity": 0.11811023622047244
        },
        {
          "duration": 0.27522899999999595,
          "durationTicks": 192,
          "midi": 54,
          "name": "F#3",
          "ticks": 45120,
          "time": 64.678815,
          "velocity": 0.11811023622047244
        },
        {
          "duration": 0.27522900000001016,
          "durationTicks": 192,
          "midi": 52,
          "name": "E3",
          "ticks": 45312,
          "time": 64.954044,
          "velocity": 0.11811023622047244
        },
        {
          "duration": 0.5504580000000061,
          "durationTicks": 384,
          "midi": 64,
          "name": "E4",
          "ticks": 45312,
          "time": 64.954044,
          "velocity": 0.11811023622047244
        },
        {
          "duration": 0.27522899999999595,
          "durationTicks": 192,
          "midi": 50,
          "name": "D3",
          "ticks": 45504,
          "time": 65.229273,
          "velocity": 0.11811023622047244
        },
        {
          "duration": 0.27522899999999595,
          "durationTicks": 192,
          "midi": 52,
          "name": "E3",
          "ticks": 45696,
          "time": 65.504502,
          "velocity": 0.11811023622047244
        },
        {
          "duration": 0.5504579999999919,
          "durationTicks": 384,
          "midi": 61,
          "name": "C#4",
          "ticks": 45696,
          "time": 65.504502,
          "velocity": 0.11811023622047244
        },
        {
          "duration": 0.27522899999999595,
          "durationTicks": 192,
          "midi": 54,
          "name": "F#3",
          "ticks": 45888,
          "time": 65.779731,
          "velocity": 0.11811023622047244
        },
        {
          "duration": 0.8256870000000021,
          "durationTicks": 576,
          "midi": 62,
          "name": "D4",
          "ticks": 46080,
          "time": 66.05496,
          "velocity": 0.11811023622047244
        },
        {
          "duration": 0.27522900000001016,
          "durationTicks": 192,
          "midi": 55,
          "name": "G3",
          "ticks": 46080,
          "time": 66.05496,
          "velocity": 0.11811023622047244
        },
        {
          "duration": 0.27522899999999595,
          "durationTicks": 192,
          "midi": 50,
          "name": "D3",
          "ticks": 46272,
          "time": 66.330189,
          "velocity": 0.11811023622047244
        },
        {
          "duration": 0.27522899999999595,
          "durationTicks": 192,
          "midi": 55,
          "name": "G3",
          "ticks": 46464,
          "time": 66.605418,
          "velocity": 0.11811023622047244
        },
        {
          "duration": 0.27522900000001016,
          "durationTicks": 192,
          "midi": 57,
          "name": "A3",
          "ticks": 46656,
          "time": 66.880647,
          "velocity": 0.11811023622047244
        },
        {
          "duration": 0.27522900000001016,
          "durationTicks": 192,
          "midi": 50,
          "name": "D3",
          "ticks": 46656,
          "time": 66.880647,
          "velocity": 0.11811023622047244
        },
        {
          "duration": 0.27522899999999595,
          "durationTicks": 192,
          "midi": 59,
          "name": "B3",
          "ticks": 46848,
          "time": 67.155876,
          "velocity": 0.11811023622047244
        },
        {
          "duration": 0.27522899999999595,
          "durationTicks": 192,
          "midi": 55,
          "name": "G3",
          "ticks": 46848,
          "time": 67.155876,
          "velocity": 0.11811023622047244
        },
        {
          "duration": 0.27522899999999595,
          "durationTicks": 192,
          "midi": 61,
          "name": "C#4",
          "ticks": 47040,
          "time": 67.431105,
          "velocity": 0.11811023622047244
        },
        {
          "duration": 0.27522899999999595,
          "durationTicks": 192,
          "midi": 54,
          "name": "F#3",
          "ticks": 47040,
          "time": 67.431105,
          "velocity": 0.11811023622047244
        },
        {
          "duration": 0.5504580000000061,
          "durationTicks": 384,
          "midi": 62,
          "name": "D4",
          "ticks": 47232,
          "time": 67.706334,
          "velocity": 0.11811023622047244
        },
        {
          "duration": 0.27522899999999595,
          "durationTicks": 192,
          "midi": 52,
          "name": "E3",
          "ticks": 47232,
          "time": 67.706334,
          "velocity": 0.11811023622047244
        },
        {
          "duration": 0.27522900000001016,
          "durationTicks": 192,
          "midi": 50,
          "name": "D3",
          "ticks": 47424,
          "time": 67.981563,
          "velocity": 0.11811023622047244
        },
        {
          "duration": 0.5504579999999919,
          "durationTicks": 384,
          "midi": 61,
          "name": "C#4",
          "ticks": 47616,
          "time": 68.256792,
          "velocity": 0.11811023622047244
        },
        {
          "duration": 0.27522899999999595,
          "durationTicks": 192,
          "midi": 54,
          "name": "F#3",
          "ticks": 47616,
          "time": 68.256792,
          "velocity": 0.11811023622047244
        },
        {
          "duration": 0.27522899999999595,
          "durationTicks": 192,
          "midi": 45,
          "name": "A2",
          "ticks": 47808,
          "time": 68.532021,
          "velocity": 0.11811023622047244
        },
        {
          "duration": 0.5504580000000061,
          "durationTicks": 384,
          "midi": 62,
          "name": "D4",
          "ticks": 48000,
          "time": 68.80725,
          "velocity": 0.11811023622047244
        },
        {
          "duration": 0.27522900000001016,
          "durationTicks": 192,
          "midi": 47,
          "name": "B2",
          "ticks": 48000,
          "time": 68.80725,
          "velocity": 0.11811023622047244
        },
        {
          "duration": 0.27522899999999595,
          "durationTicks": 192,
          "midi": 49,
          "name": "C#3",
          "ticks": 48192,
          "time": 69.082479,
          "velocity": 0.11811023622047244
        },
        {
          "duration": 0.8256870000000021,
          "durationTicks": 576,
          "midi": 57,
          "name": "A3",
          "ticks": 48384,
          "time": 69.357708,
          "velocity": 0.11811023622047244
        },
        {
          "duration": 0.27522899999999595,
          "durationTicks": 192,
          "midi": 52,
          "name": "E3",
          "ticks": 48384,
          "time": 69.357708,
          "velocity": 0.11811023622047244
        },
        {
          "duration": 0.27522899999999595,
          "durationTicks": 192,
          "midi": 54,
          "name": "F#3",
          "ticks": 48576,
          "time": 69.632937,
          "velocity": 0.11811023622047244
        },
        {
          "duration": 0.27522900000001016,
          "durationTicks": 192,
          "midi": 49,
          "name": "C#3",
          "ticks": 48768,
          "time": 69.908166,
          "velocity": 0.11811023622047244
        },
        {
          "duration": 0.27522899999999595,
          "durationTicks": 192,
          "midi": 54,
          "name": "F#3",
          "ticks": 48960,
          "time": 70.183395,
          "velocity": 0.11811023622047244
        },
        {
          "duration": 0.27522899999999595,
          "durationTicks": 192,
          "midi": 59,
          "name": "B3",
          "ticks": 48960,
          "time": 70.183395,
          "velocity": 0.11811023622047244
        },
        {
          "duration": 0.27522899999999595,
          "durationTicks": 192,
          "midi": 57,
          "name": "A3",
          "ticks": 49152,
          "time": 70.458624,
          "velocity": 0.11811023622047244
        },
        {
          "duration": 0.27522899999999595,
          "durationTicks": 192,
          "midi": 49,
          "name": "C#3",
          "ticks": 49152,
          "time": 70.458624,
          "velocity": 0.11811023622047244
        },
        {
          "duration": 0.27522900000001016,
          "durationTicks": 192,
          "midi": 55,
          "name": "G3",
          "ticks": 49344,
          "time": 70.733853,
          "velocity": 0.11811023622047244
        },
        {
          "duration": 0.27522900000001016,
          "durationTicks": 192,
          "midi": 43,
          "name": "G2",
          "ticks": 49344,
          "time": 70.733853,
          "velocity": 0.11811023622047244
        },
        {
          "duration": 0.27522899999999595,
          "durationTicks": 192,
          "midi": 45,
          "name": "A2",
          "ticks": 49536,
          "time": 71.009082,
          "velocity": 0.11811023622047244
        },
        {
          "duration": 0.5504579999999919,
          "durationTicks": 384,
          "midi": 54,
          "name": "F#3",
          "ticks": 49536,
          "time": 71.009082,
          "velocity": 0.11811023622047244
        },
        {
          "duration": 0.27522899999999595,
          "durationTicks": 192,
          "midi": 49,
          "name": "C#3",
          "ticks": 49728,
          "time": 71.284311,
          "velocity": 0.11811023622047244
        },
        {
          "duration": 0.27522899999999595,
          "durationTicks": 192,
          "midi": 57,
          "name": "A3",
          "ticks": 49920,
          "time": 71.55954,
          "velocity": 0.11811023622047244
        },
        {
          "duration": 0.5504580000000061,
          "durationTicks": 384,
          "midi": 62,
          "name": "D4",
          "ticks": 49920,
          "time": 71.55954,
          "velocity": 0.11811023622047244
        },
        {
          "duration": 0.5504580000000061,
          "durationTicks": 384,
          "midi": 66,
          "name": "F#4",
          "ticks": 49920,
          "time": 71.55954,
          "velocity": 0.11811023622047244
        },
        {
          "duration": 0.27522900000001016,
          "durationTicks": 192,
          "midi": 50,
          "name": "D3",
          "ticks": 50112,
          "time": 71.834769,
          "velocity": 0.11811023622047244
        },
        {
          "duration": 0.27522899999999595,
          "durationTicks": 192,
          "midi": 55,
          "name": "G3",
          "ticks": 50304,
          "time": 72.109998,
          "velocity": 0.11811023622047244
        },
        {
          "duration": 0.5504579999999919,
          "durationTicks": 384,
          "midi": 64,
          "name": "E4",
          "ticks": 50304,
          "time": 72.109998,
          "velocity": 0.11811023622047244
        },
        {
          "duration": 0.5504579999999919,
          "durationTicks": 384,
          "midi": 61,
          "name": "C#4",
          "ticks": 50304,
          "time": 72.109998,
          "velocity": 0.11811023622047244
        },
        {
          "duration": 0.27522899999999595,
          "durationTicks": 192,
          "midi": 54,
          "name": "F#3",
          "ticks": 50496,
          "time": 72.385227,
          "velocity": 0.11811023622047244
        },
        {
          "duration": 0.8256870000000021,
          "durationTicks": 576,
          "midi": 59,
          "name": "B3",
          "ticks": 50688,
          "time": 72.660456,
          "velocity": 0.11811023622047244
        },
        {
          "duration": 0.8256870000000021,
          "durationTicks": 576,
          "midi": 62,
          "name": "D4",
          "ticks": 50688,
          "time": 72.660456,
          "velocity": 0.11811023622047244
        },
        {
          "duration": 0.27522900000001016,
          "durationTicks": 192,
          "midi": 47,
          "name": "B2",
          "ticks": 50688,
          "time": 72.660456,
          "velocity": 0.11811023622047244
        },
        {
          "duration": 0.27522899999999595,
          "durationTicks": 192,
          "midi": 50,
          "name": "D3",
          "ticks": 50880,
          "time": 72.935685,
          "velocity": 0.11811023622047244
        },
        {
          "duration": 0.27522899999999595,
          "durationTicks": 192,
          "midi": 54,
          "name": "F#3",
          "ticks": 51072,
          "time": 73.210914,
          "velocity": 0.11811023622047244
        },
        {
          "duration": 0.27522899999999595,
          "durationTicks": 192,
          "midi": 57,
          "name": "A3",
          "ticks": 51264,
          "time": 73.486143,
          "velocity": 0.11811023622047244
        },
        {
          "duration": 0.27522899999999595,
          "durationTicks": 192,
          "midi": 50,
          "name": "D3",
          "ticks": 51264,
          "time": 73.486143,
          "velocity": 0.11811023622047244
        },
        {
          "duration": 0.27522900000001016,
          "durationTicks": 192,
          "midi": 54,
          "name": "F#3",
          "ticks": 51456,
          "time": 73.761372,
          "velocity": 0.11811023622047244
        },
        {
          "duration": 0.27522900000001016,
          "durationTicks": 192,
          "midi": 59,
          "name": "B3",
          "ticks": 51456,
          "time": 73.761372,
          "velocity": 0.11811023622047244
        },
        {
          "duration": 0.27522899999999595,
          "durationTicks": 192,
          "midi": 47,
          "name": "B2",
          "ticks": 51648,
          "time": 74.036601,
          "velocity": 0.11811023622047244
        },
        {
          "duration": 0.27522899999999595,
          "durationTicks": 192,
          "midi": 61,
          "name": "C#4",
          "ticks": 51648,
          "time": 74.036601,
          "velocity": 0.11811023622047244
        },
        {
          "duration": 0.5504580000000061,
          "durationTicks": 384,
          "midi": 62,
          "name": "D4",
          "ticks": 51840,
          "time": 74.31183,
          "velocity": 0.11811023622047244
        },
        {
          "duration": 0.27522899999999595,
          "durationTicks": 192,
          "midi": 45,
          "name": "A2",
          "ticks": 51840,
          "time": 74.31183,
          "velocity": 0.11811023622047244
        },
        {
          "duration": 0.27522900000001016,
          "durationTicks": 192,
          "midi": 49,
          "name": "C#3",
          "ticks": 52032,
          "time": 74.587059,
          "velocity": 0.11811023622047244
        },
        {
          "duration": 0.5504579999999919,
          "durationTicks": 384,
          "midi": 61,
          "name": "C#4",
          "ticks": 52224,
          "time": 74.862288,
          "velocity": 0.11811023622047244
        },
        {
          "duration": 0.27522899999999595,
          "durationTicks": 192,
          "midi": 52,
          "name": "E3",
          "ticks": 52224,
          "time": 74.862288,
          "velocity": 0.11811023622047244
        },
        {
          "duration": 0.27522899999999595,
          "durationTicks": 192,
          "midi": 49,
          "name": "C#3",
          "ticks": 52416,
          "time": 75.137517,
          "velocity": 0.11811023622047244
        },
        {
          "duration": 0.27522899999999595,
          "durationTicks": 192,
          "midi": 54,
          "name": "F#3",
          "ticks": 52608,
          "time": 75.412746,
          "velocity": 0.11811023622047244
        },
        {
          "duration": 0.5504580000000061,
          "durationTicks": 384,
          "midi": 62,
          "name": "D4",
          "ticks": 52608,
          "time": 75.412746,
          "velocity": 0.11811023622047244
        },
        {
          "duration": 0.27522900000001016,
          "durationTicks": 192,
          "midi": 58,
          "name": "A#3",
          "ticks": 52800,
          "time": 75.687975,
          "velocity": 0.11811023622047244
        },
        {
          "duration": 0.27522899999999595,
          "durationTicks": 192,
          "midi": 66,
          "name": "F#4",
          "ticks": 52992,
          "time": 75.963204,
          "velocity": 0.11811023622047244
        },
        {
          "duration": 0.27522899999999595,
          "durationTicks": 192,
          "midi": 59,
          "name": "B3",
          "ticks": 52992,
          "time": 75.963204,
          "velocity": 0.11811023622047244
        },
        {
          "duration": 0.27522899999999595,
          "durationTicks": 192,
          "midi": 62,
          "name": "D4",
          "ticks": 53184,
          "time": 76.238433,
          "velocity": 0.11811023622047244
        },
        {
          "duration": 0.27522899999999595,
          "durationTicks": 192,
          "midi": 54,
          "name": "F#3",
          "ticks": 53184,
          "time": 76.238433,
          "velocity": 0.11811023622047244
        },
        {
          "duration": 0.27522900000001016,
          "durationTicks": 192,
          "midi": 59,
          "name": "B3",
          "ticks": 53376,
          "time": 76.513662,
          "velocity": 0.11811023622047244
        },
        {
          "duration": 0.27522900000001016,
          "durationTicks": 192,
          "midi": 66,
          "name": "F#4",
          "ticks": 53376,
          "time": 76.513662,
          "velocity": 0.11811023622047244
        },
        {
          "duration": 0.27522899999999595,
          "durationTicks": 192,
          "midi": 54,
          "name": "F#3",
          "ticks": 53568,
          "time": 76.788891,
          "velocity": 0.11811023622047244
        },
        {
          "duration": 0.27522899999999595,
          "durationTicks": 192,
          "midi": 62,
          "name": "D4",
          "ticks": 53568,
          "time": 76.788891,
          "velocity": 0.11811023622047244
        },
        {
          "duration": 0.27522899999999595,
          "durationTicks": 192,
          "midi": 64,
          "name": "E4",
          "ticks": 53760,
          "time": 77.06412,
          "velocity": 0.11811023622047244
        },
        {
          "duration": 0.27522899999999595,
          "durationTicks": 192,
          "midi": 59,
          "name": "B3",
          "ticks": 53760,
          "time": 77.06412,
          "velocity": 0.11811023622047244
        },
        {
          "duration": 0.27522899999999595,
          "durationTicks": 192,
          "midi": 54,
          "name": "F#3",
          "ticks": 53952,
          "time": 77.339349,
          "velocity": 0.11811023622047244
        },
        {
          "duration": 0.27522899999999595,
          "durationTicks": 192,
          "midi": 66,
          "name": "F#4",
          "ticks": 53952,
          "time": 77.339349,
          "velocity": 0.11811023622047244
        },
        {
          "duration": 0.5504580000000061,
          "durationTicks": 384,
          "midi": 64,
          "name": "E4",
          "ticks": 54144,
          "time": 77.614578,
          "velocity": 0.11811023622047244
        },
        {
          "duration": 0.27522900000001016,
          "durationTicks": 192,
          "midi": 49,
          "name": "C#3",
          "ticks": 54144,
          "time": 77.614578,
          "velocity": 0.11811023622047244
        },
        {
          "duration": 0.27522899999999595,
          "durationTicks": 192,
          "midi": 52,
          "name": "E3",
          "ticks": 54336,
          "time": 77.889807,
          "velocity": 0.11811023622047244
        },
        {
          "duration": 0.27522899999999595,
          "durationTicks": 192,
          "midi": 57,
          "name": "A3",
          "ticks": 54528,
          "time": 78.165036,
          "velocity": 0.11811023622047244
        },
        {
          "duration": 0.5504580000000061,
          "durationTicks": 384,
          "midi": 62,
          "name": "D4",
          "ticks": 54528,
          "time": 78.165036,
          "velocity": 0.11811023622047244
        },
        {
          "duration": 0.27522900000001016,
          "durationTicks": 192,
          "midi": 52,
          "name": "E3",
          "ticks": 54720,
          "time": 78.440265,
          "velocity": 0.11811023622047244
        },
        {
          "duration": 0.27522899999999595,
          "durationTicks": 192,
          "midi": 57,
          "name": "A3",
          "ticks": 54912,
          "time": 78.715494,
          "velocity": 0.11811023622047244
        },
        {
          "duration": 0.5504579999999919,
          "durationTicks": 384,
          "midi": 61,
          "name": "C#4",
          "ticks": 54912,
          "time": 78.715494,
          "velocity": 0.11811023622047244
        },
        {
          "duration": 0.27522899999999595,
          "durationTicks": 192,
          "midi": 52,
          "name": "E3",
          "ticks": 55104,
          "time": 78.990723,
          "velocity": 0.11811023622047244
        },
        {
          "duration": 0.27522899999999595,
          "durationTicks": 192,
          "midi": 50,
          "name": "D3",
          "ticks": 55296,
          "time": 79.265952,
          "velocity": 0.11811023622047244
        },
        {
          "duration": 0.13761450000001219,
          "durationTicks": 96,
          "midi": 54,
          "name": "F#3",
          "ticks": 55488,
          "time": 79.541181,
          "velocity": 0.11811023622047244
        },
        {
          "duration": 0.13761450000001219,
          "durationTicks": 96,
          "midi": 57,
          "name": "A3",
          "ticks": 55488,
          "time": 79.541181,
          "velocity": 0.11811023622047244
        },
        {
          "duration": 0.13761449999999797,
          "durationTicks": 96,
          "midi": 57,
          "name": "A3",
          "ticks": 55680,
          "time": 79.81641,
          "velocity": 0.11811023622047244
        },
        {
          "duration": 0.13761449999999797,
          "durationTicks": 96,
          "midi": 54,
          "name": "F#3",
          "ticks": 55680,
          "time": 79.81641,
          "velocity": 0.11811023622047244
        },
        {
          "duration": 0.27522899999999595,
          "durationTicks": 192,
          "midi": 57,
          "name": "A3",
          "ticks": 55680,
          "time": 79.81641,
          "velocity": 0.11811023622047244
        },
        {
          "duration": 0.27522899999999595,
          "durationTicks": 192,
          "midi": 50,
          "name": "D3",
          "ticks": 55872,
          "time": 80.091639,
          "velocity": 0.11811023622047244
        },
        {
          "duration": 0.8256870000000021,
          "durationTicks": 576,
          "midi": 69,
          "name": "A4",
          "ticks": 55872,
          "time": 80.091639,
          "velocity": 0.11811023622047244
        },
        {
          "duration": 0.13761449999999797,
          "durationTicks": 96,
          "midi": 54,
          "name": "F#3",
          "ticks": 56064,
          "time": 80.366868,
          "velocity": 0.11811023622047244
        },
        {
          "duration": 0.13761449999999797,
          "durationTicks": 96,
          "midi": 57,
          "name": "A3",
          "ticks": 56064,
          "time": 80.366868,
          "velocity": 0.11811023622047244
        },
        {
          "duration": 0.13761449999999797,
          "durationTicks": 96,
          "midi": 54,
          "name": "F#3",
          "ticks": 56256,
          "time": 80.642097,
          "velocity": 0.11811023622047244
        },
        {
          "duration": 0.13761449999999797,
          "durationTicks": 96,
          "midi": 57,
          "name": "A3",
          "ticks": 56256,
          "time": 80.642097,
          "velocity": 0.11811023622047244
        },
        {
          "duration": 1.6513740000000041,
          "durationTicks": 1152,
          "midi": 64,
          "name": "E4",
          "ticks": 56448,
          "time": 80.917326,
          "velocity": 0.11811023622047244
        },
        {
          "duration": 0.27522899999999595,
          "durationTicks": 192,
          "midi": 49,
          "name": "C#3",
          "ticks": 56448,
          "time": 80.917326,
          "velocity": 0.11811023622047244
        },
        {
          "duration": 0.13761449999999797,
          "durationTicks": 96,
          "midi": 52,
          "name": "E3",
          "ticks": 56640,
          "time": 81.192555,
          "velocity": 0.11811023622047244
        },
        {
          "duration": 0.13761449999999797,
          "durationTicks": 96,
          "midi": 57,
          "name": "A3",
          "ticks": 56640,
          "time": 81.192555,
          "velocity": 0.11811023622047244
        },
        {
          "duration": 0.13761450000001219,
          "durationTicks": 96,
          "midi": 57,
          "name": "A3",
          "ticks": 56832,
          "time": 81.467784,
          "velocity": 0.11811023622047244
        },
        {
          "duration": 0.13761450000001219,
          "durationTicks": 96,
          "midi": 52,
          "name": "E3",
          "ticks": 56832,
          "time": 81.467784,
          "velocity": 0.11811023622047244
        },
        {
          "duration": 0.27522899999999595,
          "durationTicks": 192,
          "midi": 49,
          "name": "C#3",
          "ticks": 57024,
          "time": 81.743013,
          "velocity": 0.11811023622047244
        },
        {
          "duration": 0.13761449999999797,
          "durationTicks": 96,
          "midi": 52,
          "name": "E3",
          "ticks": 57216,
          "time": 82.018242,
          "velocity": 0.11811023622047244
        },
        {
          "duration": 0.13761449999999797,
          "durationTicks": 96,
          "midi": 57,
          "name": "A3",
          "ticks": 57216,
          "time": 82.018242,
          "velocity": 0.11811023622047244
        },
        {
          "duration": 0.13761449999999797,
          "durationTicks": 96,
          "midi": 57,
          "name": "A3",
          "ticks": 57408,
          "time": 82.293471,
          "velocity": 0.11811023622047244
        },
        {
          "duration": 0.13761449999999797,
          "durationTicks": 96,
          "midi": 52,
          "name": "E3",
          "ticks": 57408,
          "time": 82.293471,
          "velocity": 0.11811023622047244
        },
        {
          "duration": 0.8256869999999878,
          "durationTicks": 576,
          "midi": 62,
          "name": "D4",
          "ticks": 57600,
          "time": 82.5687,
          "velocity": 0.11811023622047244
        },
        {
          "duration": 0.27522899999999595,
          "durationTicks": 192,
          "midi": 47,
          "name": "B2",
          "ticks": 57600,
          "time": 82.5687,
          "velocity": 0.11811023622047244
        },
        {
          "duration": 0.13761449999999797,
          "durationTicks": 96,
          "midi": 54,
          "name": "F#3",
          "ticks": 57792,
          "time": 82.843929,
          "velocity": 0.11811023622047244
        },
        {
          "duration": 0.13761449999999797,
          "durationTicks": 96,
          "midi": 50,
          "name": "D3",
          "ticks": 57792,
          "time": 82.843929,
          "velocity": 0.11811023622047244
        },
        {
          "duration": 0.13761449999999797,
          "durationTicks": 96,
          "midi": 54,
          "name": "F#3",
          "ticks": 57984,
          "time": 83.119158,
          "velocity": 0.11811023622047244
        },
        {
          "duration": 0.13761449999999797,
          "durationTicks": 96,
          "midi": 50,
          "name": "D3",
          "ticks": 57984,
          "time": 83.119158,
          "velocity": 0.11811023622047244
        },
        {
          "duration": 0.8256870000000021,
          "durationTicks": 576,
          "midi": 69,
          "name": "A4",
          "ticks": 58176,
          "time": 83.394387,
          "velocity": 0.11811023622047244
        },
        {
          "duration": 0.27522900000001016,
          "durationTicks": 192,
          "midi": 47,
          "name": "B2",
          "ticks": 58176,
          "time": 83.394387,
          "velocity": 0.11811023622047244
        },
        {
          "duration": 0.13761449999999797,
          "durationTicks": 96,
          "midi": 50,
          "name": "D3",
          "ticks": 58368,
          "time": 83.669616,
          "velocity": 0.11811023622047244
        },
        {
          "duration": 0.13761449999999797,
          "durationTicks": 96,
          "midi": 54,
          "name": "F#3",
          "ticks": 58368,
          "time": 83.669616,
          "velocity": 0.11811023622047244
        },
        {
          "duration": 0.13761449999999797,
          "durationTicks": 96,
          "midi": 54,
          "name": "F#3",
          "ticks": 58560,
          "time": 83.944845,
          "velocity": 0.11811023622047244
        },
        {
          "duration": 0.13761449999999797,
          "durationTicks": 96,
          "midi": 50,
          "name": "D3",
          "ticks": 58560,
          "time": 83.944845,
          "velocity": 0.11811023622047244
        },
        {
          "duration": 0.27522900000001016,
          "durationTicks": 192,
          "midi": 45,
          "name": "A2",
          "ticks": 58752,
          "time": 84.220074,
          "velocity": 0.11811023622047244
        },
        {
          "duration": 1.6513740000000041,
          "durationTicks": 1152,
          "midi": 57,
          "name": "A3",
          "ticks": 58752,
          "time": 84.220074,
          "velocity": 0.11811023622047244
        },
        {
          "duration": 0.13761449999999797,
          "durationTicks": 96,
          "midi": 49,
          "name": "C#3",
          "ticks": 58944,
          "time": 84.495303,
          "velocity": 0.11811023622047244
        },
        {
          "duration": 0.13761449999999797,
          "durationTicks": 96,
          "midi": 52,
          "name": "E3",
          "ticks": 58944,
          "time": 84.495303,
          "velocity": 0.11811023622047244
        },
        {
          "duration": 0.13761449999999797,
          "durationTicks": 96,
          "midi": 49,
          "name": "C#3",
          "ticks": 59136,
          "time": 84.770532,
          "velocity": 0.11811023622047244
        },
        {
          "duration": 0.13761449999999797,
          "durationTicks": 96,
          "midi": 52,
          "name": "E3",
          "ticks": 59136,
          "time": 84.770532,
          "velocity": 0.11811023622047244
        },
        {
          "duration": 0.27522899999999595,
          "durationTicks": 192,
          "midi": 45,
          "name": "A2",
          "ticks": 59328,
          "time": 85.045761,
          "velocity": 0.11811023622047244
        },
        {
          "duration": 0.13761450000001219,
          "durationTicks": 96,
          "midi": 49,
          "name": "C#3",
          "ticks": 59520,
          "time": 85.32099,
          "velocity": 0.11811023622047244
        },
        {
          "duration": 0.13761450000001219,
          "durationTicks": 96,
          "midi": 52,
          "name": "E3",
          "ticks": 59520,
          "time": 85.32099,
          "velocity": 0.11811023622047244
        },
        {
          "duration": 0.13761449999999797,
          "durationTicks": 96,
          "midi": 52,
          "name": "E3",
          "ticks": 59712,
          "time": 85.596219,
          "velocity": 0.11811023622047244
        },
        {
          "duration": 0.13761449999999797,
          "durationTicks": 96,
          "midi": 49,
          "name": "C#3",
          "ticks": 59712,
          "time": 85.596219,
          "velocity": 0.11811023622047244
        },
        {
          "duration": 0.8256870000000021,
          "durationTicks": 576,
          "midi": 57,
          "name": "A3",
          "ticks": 59904,
          "time": 85.871448,
          "velocity": 0.11811023622047244
        },
        {
          "duration": 0.27522899999999595,
          "durationTicks": 192,
          "midi": 43,
          "name": "G2",
          "ticks": 59904,
          "time": 85.871448,
          "velocity": 0.11811023622047244
        },
        {
          "duration": 0.13761449999999797,
          "durationTicks": 96,
          "midi": 47,
          "name": "B2",
          "ticks": 60096,
          "time": 86.146677,
          "velocity": 0.11811023622047244
        },
        {
          "duration": 0.13761449999999797,
          "durationTicks": 96,
          "midi": 50,
          "name": "D3",
          "ticks": 60096,
          "time": 86.146677,
          "velocity": 0.11811023622047244
        },
        {
          "duration": 0.13761449999999797,
          "durationTicks": 96,
          "midi": 50,
          "name": "D3",
          "ticks": 60288,
          "time": 86.421906,
          "velocity": 0.11811023622047244
        },
        {
          "duration": 0.13761449999999797,
          "durationTicks": 96,
          "midi": 47,
          "name": "B2",
          "ticks": 60288,
          "time": 86.421906,
          "velocity": 0.11811023622047244
        },
        {
          "duration": 0.8256870000000021,
          "durationTicks": 576,
          "midi": 62,
          "name": "D4",
          "ticks": 60480,
          "time": 86.697135,
          "velocity": 0.11811023622047244
        },
        {
          "duration": 0.27522899999999595,
          "durationTicks": 192,
          "midi": 43,
          "name": "G2",
          "ticks": 60480,
          "time": 86.697135,
          "velocity": 0.11811023622047244
        },
        {
          "duration": 0.13761449999999797,
          "durationTicks": 96,
          "midi": 47,
          "name": "B2",
          "ticks": 60672,
          "time": 86.972364,
          "velocity": 0.11811023622047244
        },
        {
          "duration": 0.13761449999999797,
          "durationTicks": 96,
          "midi": 50,
          "name": "D3",
          "ticks": 60672,
          "time": 86.972364,
          "velocity": 0.11811023622047244
        },
        {
          "duration": 0.13761450000001219,
          "durationTicks": 96,
          "midi": 50,
          "name": "D3",
          "ticks": 60864,
          "time": 87.247593,
          "velocity": 0.11811023622047244
        },
        {
          "duration": 0.13761450000001219,
          "durationTicks": 96,
          "midi": 47,
          "name": "B2",
          "ticks": 60864,
          "time": 87.247593,
          "velocity": 0.11811023622047244
        },
        {
          "duration": 0.27522899999999595,
          "durationTicks": 192,
          "midi": 42,
          "name": "F#2",
          "ticks": 61056,
          "time": 87.522822,
          "velocity": 0.11811023622047244
        },
        {
          "duration": 1.376144999999994,
          "durationTicks": 960,
          "midi": 69,
          "name": "A4",
          "ticks": 61056,
          "time": 87.522822,
          "velocity": 0.11811023622047244
        },
        {
          "duration": 0.13761449999999797,
          "durationTicks": 96,
          "midi": 50,
          "name": "D3",
          "ticks": 61248,
          "time": 87.798051,
          "velocity": 0.11811023622047244
        },
        {
          "duration": 0.13761449999999797,
          "durationTicks": 96,
          "midi": 45,
          "name": "A2",
          "ticks": 61248,
          "time": 87.798051,
          "velocity": 0.11811023622047244
        },
        {
          "duration": 0.13761449999999797,
          "durationTicks": 96,
          "midi": 50,
          "name": "D3",
          "ticks": 61440,
          "time": 88.07328,
          "velocity": 0.11811023622047244
        },
        {
          "duration": 0.13761449999999797,
          "durationTicks": 96,
          "midi": 45,
          "name": "A2",
          "ticks": 61440,
          "time": 88.07328,
          "velocity": 0.11811023622047244
        },
        {
          "duration": 0.27522899999999595,
          "durationTicks": 192,
          "midi": 42,
          "name": "F#2",
          "ticks": 61632,
          "time": 88.348509,
          "velocity": 0.11811023622047244
        },
        {
          "duration": 0.13761449999999797,
          "durationTicks": 96,
          "midi": 45,
          "name": "A2",
          "ticks": 61824,
          "time": 88.623738,
          "velocity": 0.11811023622047244
        },
        {
          "duration": 0.13761449999999797,
          "durationTicks": 96,
          "midi": 50,
          "name": "D3",
          "ticks": 61824,
          "time": 88.623738,
          "velocity": 0.11811023622047244
        },
        {
          "duration": 0.13761449999999797,
          "durationTicks": 96,
          "midi": 50,
          "name": "D3",
          "ticks": 62016,
          "time": 88.898967,
          "velocity": 0.11811023622047244
        },
        {
          "duration": 0.27522899999999595,
          "durationTicks": 192,
          "midi": 71,
          "name": "B4",
          "ticks": 62016,
          "time": 88.898967,
          "velocity": 0.11811023622047244
        },
        {
          "duration": 0.13761449999999797,
          "durationTicks": 96,
          "midi": 45,
          "name": "A2",
          "ticks": 62016,
          "time": 88.898967,
          "velocity": 0.11811023622047244
        },
        {
          "duration": 0.27522900000001016,
          "durationTicks": 192,
          "midi": 40,
          "name": "E2",
          "ticks": 62208,
          "time": 89.174196,
          "velocity": 0.11811023622047244
        },
        {
          "duration": 0.8256870000000021,
          "durationTicks": 576,
          "midi": 69,
          "name": "A4",
          "ticks": 62208,
          "time": 89.174196,
          "velocity": 0.11811023622047244
        },
        {
          "duration": 0.13761449999999797,
          "durationTicks": 96,
          "midi": 47,
          "name": "B2",
          "ticks": 62400,
          "time": 89.449425,
          "velocity": 0.11811023622047244
        },
        {
          "duration": 0.13761449999999797,
          "durationTicks": 96,
          "midi": 43,
          "name": "G2",
          "ticks": 62400,
          "time": 89.449425,
          "velocity": 0.11811023622047244
        },
        {
          "duration": 0.13761449999999797,
          "durationTicks": 96,
          "midi": 43,
          "name": "G2",
          "ticks": 62592,
          "time": 89.724654,
          "velocity": 0.11811023622047244
        },
        {
          "duration": 0.13761449999999797,
          "durationTicks": 96,
          "midi": 47,
          "name": "B2",
          "ticks": 62592,
          "time": 89.724654,
          "velocity": 0.11811023622047244
        },
        {
          "duration": 0.27522900000001016,
          "durationTicks": 192,
          "midi": 40,
          "name": "E2",
          "ticks": 62784,
          "time": 89.999883,
          "velocity": 0.11811023622047244
        },
        {
          "duration": 0.8256870000000021,
          "durationTicks": 576,
          "midi": 64,
          "name": "E4",
          "ticks": 62784,
          "time": 89.999883,
          "velocity": 0.11811023622047244
        },
        {
          "duration": 0.13761449999999797,
          "durationTicks": 96,
          "midi": 47,
          "name": "B2",
          "ticks": 62976,
          "time": 90.27511200000001,
          "velocity": 0.11811023622047244
        },
        {
          "duration": 0.13761449999999797,
          "durationTicks": 96,
          "midi": 43,
          "name": "G2",
          "ticks": 62976,
          "time": 90.27511200000001,
          "velocity": 0.11811023622047244
        },
        {
          "duration": 0.13761449999999797,
          "durationTicks": 96,
          "midi": 43,
          "name": "G2",
          "ticks": 63168,
          "time": 90.550341,
          "velocity": 0.11811023622047244
        },
        {
          "duration": 0.13761449999999797,
          "durationTicks": 96,
          "midi": 47,
          "name": "B2",
          "ticks": 63168,
          "time": 90.550341,
          "velocity": 0.11811023622047244
        },
        {
          "duration": 1.6513740000000041,
          "durationTicks": 1152,
          "midi": 62,
          "name": "D4",
          "ticks": 63360,
          "time": 90.82557,
          "velocity": 0.11811023622047244
        },
        {
          "duration": 0.27522899999999595,
          "durationTicks": 192,
          "midi": 45,
          "name": "A2",
          "ticks": 63360,
          "time": 90.82557,
          "velocity": 0.11811023622047244
        },
        {
          "duration": 0.13761450000001219,
          "durationTicks": 96,
          "midi": 52,
          "name": "E3",
          "ticks": 63552,
          "time": 91.100799,
          "velocity": 0.11811023622047244
        },
        {
          "duration": 0.13761450000001219,
          "durationTicks": 96,
          "midi": 49,
          "name": "C#3",
          "ticks": 63552,
          "time": 91.100799,
          "velocity": 0.11811023622047244
        },
        {
          "duration": 0.13761449999999797,
          "durationTicks": 96,
          "midi": 49,
          "name": "C#3",
          "ticks": 63744,
          "time": 91.376028,
          "velocity": 0.11811023622047244
        },
        {
          "duration": 0.13761449999999797,
          "durationTicks": 96,
          "midi": 52,
          "name": "E3",
          "ticks": 63744,
          "time": 91.376028,
          "velocity": 0.11811023622047244
        },
        {
          "duration": 0.27522899999999595,
          "durationTicks": 192,
          "midi": 45,
          "name": "A2",
          "ticks": 63936,
          "time": 91.651257,
          "velocity": 0.11811023622047244
        },
        {
          "duration": 0.13761449999999797,
          "durationTicks": 96,
          "midi": 49,
          "name": "C#3",
          "ticks": 64128,
          "time": 91.926486,
          "velocity": 0.11811023622047244
        },
        {
          "duration": 0.13761449999999797,
          "durationTicks": 96,
          "midi": 52,
          "name": "E3",
          "ticks": 64128,
          "time": 91.926486,
          "velocity": 0.11811023622047244
        },
        {
          "duration": 0.13761449999999797,
          "durationTicks": 96,
          "midi": 52,
          "name": "E3",
          "ticks": 64320,
          "time": 92.20171500000001,
          "velocity": 0.11811023622047244
        },
        {
          "duration": 0.13761449999999797,
          "durationTicks": 96,
          "midi": 49,
          "name": "C#3",
          "ticks": 64320,
          "time": 92.20171500000001,
          "velocity": 0.11811023622047244
        },
        {
          "duration": 0.27522899999999595,
          "durationTicks": 192,
          "midi": 50,
          "name": "D3",
          "ticks": 64512,
          "time": 92.476944,
          "velocity": 0.11811023622047244
        },
        {
          "duration": 0.13761449999999797,
          "durationTicks": 96,
          "midi": 57,
          "name": "A3",
          "ticks": 64704,
          "time": 92.752173,
          "velocity": 0.11811023622047244
        },
        {
          "duration": 0.13761449999999797,
          "durationTicks": 96,
          "midi": 54,
          "name": "F#3",
          "ticks": 64704,
          "time": 92.752173,
          "velocity": 0.11811023622047244
        },
        {
          "duration": 0.13761450000001219,
          "durationTicks": 96,
          "midi": 57,
          "name": "A3",
          "ticks": 64896,
          "time": 93.027402,
          "velocity": 0.11811023622047244
        },
        {
          "duration": 0.27522900000001016,
          "durationTicks": 192,
          "midi": 57,
          "name": "A3",
          "ticks": 64896,
          "time": 93.027402,
          "velocity": 0.11811023622047244
        },
        {
          "duration": 0.13761450000001219,
          "durationTicks": 96,
          "midi": 54,
          "name": "F#3",
          "ticks": 64896,
          "time": 93.027402,
          "velocity": 0.11811023622047244
        },
        {
          "duration": 0.27522900000001016,
          "durationTicks": 192,
          "midi": 57,
          "name": "A3",
          "ticks": 64896,
          "time": 93.027402,
          "velocity": 0.11811023622047244
        },
        {
          "duration": 0.8256870000000021,
          "durationTicks": 576,
          "midi": 69,
          "name": "A4",
          "ticks": 65088,
          "time": 93.302631,
          "velocity": 0.11811023622047244
        },
        {
          "duration": 0.8256870000000021,
          "durationTicks": 576,
          "midi": 69,
          "name": "A4",
          "ticks": 65088,
          "time": 93.302631,
          "velocity": 0.11811023622047244
        },
        {
          "duration": 0.27522899999999595,
          "durationTicks": 192,
          "midi": 50,
          "name": "D3",
          "ticks": 65088,
          "time": 93.302631,
          "velocity": 0.11811023622047244
        },
        {
          "duration": 0.13761449999999797,
          "durationTicks": 96,
          "midi": 54,
          "name": "F#3",
          "ticks": 65280,
          "time": 93.57786,
          "velocity": 0.11811023622047244
        },
        {
          "duration": 0.13761449999999797,
          "durationTicks": 96,
          "midi": 57,
          "name": "A3",
          "ticks": 65280,
          "time": 93.57786,
          "velocity": 0.11811023622047244
        },
        {
          "duration": 0.13761449999999797,
          "durationTicks": 96,
          "midi": 54,
          "name": "F#3",
          "ticks": 65472,
          "time": 93.853089,
          "velocity": 0.11811023622047244
        },
        {
          "duration": 0.13761449999999797,
          "durationTicks": 96,
          "midi": 57,
          "name": "A3",
          "ticks": 65472,
          "time": 93.853089,
          "velocity": 0.11811023622047244
        },
        {
          "duration": 0.27522899999999595,
          "durationTicks": 192,
          "midi": 64,
          "name": "E4",
          "ticks": 65664,
          "time": 94.12831800000001,
          "velocity": 0.11811023622047244
        },
        {
          "duration": 0.27522899999999595,
          "durationTicks": 192,
          "midi": 49,
          "name": "C#3",
          "ticks": 65664,
          "time": 94.12831800000001,
          "velocity": 0.11811023622047244
        },
        {
          "duration": 0.13761449999999797,
          "durationTicks": 96,
          "midi": 57,
          "name": "A3",
          "ticks": 65856,
          "time": 94.403547,
          "velocity": 0.11811023622047244
        },
        {
          "duration": 0.13761449999999797,
          "durationTicks": 96,
          "midi": 52,
          "name": "E3",
          "ticks": 65856,
          "time": 94.403547,
          "velocity": 0.11811023622047244
        },
        {
          "duration": 0.13761449999999797,
          "durationTicks": 96,
          "midi": 62,
          "name": "D4",
          "ticks": 65856,
          "time": 94.403547,
          "velocity": 0.11811023622047244
        },
        {
          "duration": 0.13761449999999797,
          "durationTicks": 96,
          "midi": 52,
          "name": "E3",
          "ticks": 66048,
          "time": 94.678776,
          "velocity": 0.11811023622047244
        },
        {
          "duration": 0.13761449999999797,
          "durationTicks": 96,
          "midi": 57,
          "name": "A3",
          "ticks": 66048,
          "time": 94.678776,
          "velocity": 0.11811023622047244
        },
        {
          "duration": 0.13761449999999797,
          "durationTicks": 96,
          "midi": 64,
          "name": "E4",
          "ticks": 66048,
          "time": 94.678776,
          "velocity": 0.11811023622047244
        },
        {
          "duration": 0.41284350000000813,
          "durationTicks": 288,
          "midi": 64,
          "name": "E4",
          "ticks": 66048,
          "time": 94.678776,
          "velocity": 0.11811023622047244
        },
        {
          "duration": 0.13761450000001219,
          "durationTicks": 96,
          "midi": 66,
          "name": "F#4",
          "ticks": 66240,
          "time": 94.954005,
          "velocity": 0.11811023622047244
        },
        {
          "duration": 0.27522900000001016,
          "durationTicks": 192,
          "midi": 49,
          "name": "C#3",
          "ticks": 66240,
          "time": 94.954005,
          "velocity": 0.11811023622047244
        },
        {
          "duration": 0.13761449999999797,
          "durationTicks": 96,
          "midi": 62,
          "name": "D4",
          "ticks": 66368,
          "time": 95.13749100000001,
          "velocity": 0.11811023622047244
        },
        {
          "duration": 0.13761449999999797,
          "durationTicks": 96,
          "midi": 52,
          "name": "E3",
          "ticks": 66432,
          "time": 95.229234,
          "velocity": 0.11811023622047244
        },
        {
          "duration": 0.13761449999999797,
          "durationTicks": 96,
          "midi": 57,
          "name": "A3",
          "ticks": 66432,
          "time": 95.229234,
          "velocity": 0.11811023622047244
        },
        {
          "duration": 0.13761449999999797,
          "durationTicks": 96,
          "midi": 52,
          "name": "E3",
          "ticks": 66624,
          "time": 95.504463,
          "velocity": 0.11811023622047244
        },
        {
          "duration": 0.13761449999999797,
          "durationTicks": 96,
          "midi": 57,
          "name": "A3",
          "ticks": 66624,
          "time": 95.504463,
          "velocity": 0.11811023622047244
        },
        {
          "duration": 0.13761449999999797,
          "durationTicks": 96,
          "midi": 64,
          "name": "E4",
          "ticks": 66624,
          "time": 95.504463,
          "velocity": 0.11811023622047244
        },
        {
          "duration": 0.27522899999999595,
          "durationTicks": 192,
          "midi": 64,
          "name": "E4",
          "ticks": 66624,
          "time": 95.504463,
          "velocity": 0.11811023622047244
        },
        {
          "duration": 0.8256870000000021,
          "durationTicks": 576,
          "midi": 62,
          "name": "D4",
          "ticks": 66816,
          "time": 95.779692,
          "velocity": 0.11811023622047244
        },
        {
          "duration": 0.8256870000000021,
          "durationTicks": 576,
          "midi": 62,
          "name": "D4",
          "ticks": 66816,
          "time": 95.779692,
          "velocity": 0.11811023622047244
        },
        {
          "duration": 0.27522900000001016,
          "durationTicks": 192,
          "midi": 47,
          "name": "B2",
          "ticks": 66816,
          "time": 95.779692,
          "velocity": 0.11811023622047244
        },
        {
          "duration": 0.13761449999999797,
          "durationTicks": 96,
          "midi": 50,
          "name": "D3",
          "ticks": 67008,
          "time": 96.05492100000001,
          "velocity": 0.11811023622047244
        },
        {
          "duration": 0.13761449999999797,
          "durationTicks": 96,
          "midi": 54,
          "name": "F#3",
          "ticks": 67008,
          "time": 96.05492100000001,
          "velocity": 0.11811023622047244
        },
        {
          "duration": 0.13761449999999797,
          "durationTicks": 96,
          "midi": 54,
          "name": "F#3",
          "ticks": 67200,
          "time": 96.33015,
          "velocity": 0.11811023622047244
        },
        {
          "duration": 0.13761449999999797,
          "durationTicks": 96,
          "midi": 50,
          "name": "D3",
          "ticks": 67200,
          "time": 96.33015,
          "velocity": 0.11811023622047244
        },
        {
          "duration": 0.27522899999999595,
          "durationTicks": 192,
          "midi": 47,
          "name": "B2",
          "ticks": 67392,
          "time": 96.605379,
          "velocity": 0.11811023622047244
        },
        {
          "duration": 0.8256870000000021,
          "durationTicks": 576,
          "midi": 69,
          "name": "A4",
          "ticks": 67392,
          "time": 96.605379,
          "velocity": 0.11811023622047244
        },
        {
          "duration": 0.8256870000000021,
          "durationTicks": 576,
          "midi": 69,
          "name": "A4",
          "ticks": 67392,
          "time": 96.605379,
          "velocity": 0.11811023622047244
        },
        {
          "duration": 0.13761450000001219,
          "durationTicks": 96,
          "midi": 54,
          "name": "F#3",
          "ticks": 67584,
          "time": 96.880608,
          "velocity": 0.11811023622047244
        },
        {
          "duration": 0.13761450000001219,
          "durationTicks": 96,
          "midi": 50,
          "name": "D3",
          "ticks": 67584,
          "time": 96.880608,
          "velocity": 0.11811023622047244
        },
        {
          "duration": 0.13761449999999797,
          "durationTicks": 96,
          "midi": 54,
          "name": "F#3",
          "ticks": 67776,
          "time": 97.155837,
          "velocity": 0.11811023622047244
        },
        {
          "duration": 0.13761449999999797,
          "durationTicks": 96,
          "midi": 50,
          "name": "D3",
          "ticks": 67776,
          "time": 97.155837,
          "velocity": 0.11811023622047244
        },
        {
          "duration": 0.27522899999999595,
          "durationTicks": 192,
          "midi": 57,
          "name": "A3",
          "ticks": 67968,
          "time": 97.431066,
          "velocity": 0.11811023622047244
        },
        {
          "duration": 0.27522899999999595,
          "durationTicks": 192,
          "midi": 45,
          "name": "A2",
          "ticks": 67968,
          "time": 97.431066,
          "velocity": 0.11811023622047244
        },
        {
          "duration": 1.6513740000000041,
          "durationTicks": 1152,
          "midi": 57,
          "name": "A3",
          "ticks": 67968,
          "time": 97.431066,
          "velocity": 0.11811023622047244
        },
        {
          "duration": 0.13761449999999797,
          "durationTicks": 96,
          "midi": 52,
          "name": "E3",
          "ticks": 68160,
          "time": 97.706295,
          "velocity": 0.11811023622047244
        },
        {
          "duration": 0.13761449999999797,
          "durationTicks": 96,
          "midi": 62,
          "name": "D4",
          "ticks": 68160,
          "time": 97.706295,
          "velocity": 0.11811023622047244
        },
        {
          "duration": 0.6880725000000041,
          "durationTicks": 480,
          "midi": 62,
          "name": "D4",
          "ticks": 68160,
          "time": 97.706295,
          "velocity": 0.11811023622047244
        },
        {
          "duration": 0.13761449999999797,
          "durationTicks": 96,
          "midi": 49,
          "name": "C#3",
          "ticks": 68160,
          "time": 97.706295,
          "velocity": 0.11811023622047244
        },
        {
          "duration": 0.13761449999999797,
          "durationTicks": 96,
          "midi": 49,
          "name": "C#3",
          "ticks": 68352,
          "time": 97.98152400000001,
          "velocity": 0.11811023622047244
        },
        {
          "duration": 0.27522899999999595,
          "durationTicks": 192,
          "midi": 64,
          "name": "E4",
          "ticks": 68352,
          "time": 97.98152400000001,
          "velocity": 0.11811023622047244
        },
        {
          "duration": 0.13761449999999797,
          "durationTicks": 96,
          "midi": 52,
          "name": "E3",
          "ticks": 68352,
          "time": 97.98152400000001,
          "velocity": 0.11811023622047244
        },
        {
          "duration": 0.4128434999999939,
          "durationTicks": 288,
          "midi": 64,
          "name": "E4",
          "ticks": 68352,
          "time": 97.98152400000001,
          "velocity": 0.11811023622047244
        },
        {
          "duration": 0.13761449999999797,
          "durationTicks": 96,
          "midi": 66,
          "name": "F#4",
          "ticks": 68544,
          "time": 98.256753,
          "velocity": 0.11811023622047244
        },
        {
          "duration": 0.27522899999999595,
          "durationTicks": 192,
          "midi": 45,
          "name": "A2",
          "ticks": 68544,
          "time": 98.256753,
          "velocity": 0.11811023622047244
        },
        {
          "duration": 0.13761449999999797,
          "durationTicks": 96,
          "midi": 64,
          "name": "E4",
          "ticks": 68640,
          "time": 98.3943675,
          "velocity": 0.11811023622047244
        },
        {
          "duration": 0.13761449999999797,
          "durationTicks": 96,
          "midi": 52,
          "name": "E3",
          "ticks": 68737,
          "time": 98.533415484375,
          "velocity": 0.11811023622047244
        },
        {
          "duration": 0.13761449999999797,
          "durationTicks": 96,
          "midi": 49,
          "name": "C#3",
          "ticks": 68737,
          "time": 98.533415484375,
          "velocity": 0.11811023622047244
        },
        {
          "duration": 0.13761449999999797,
          "durationTicks": 96,
          "midi": 62,
          "name": "D4",
          "ticks": 68737,
          "time": 98.533415484375,
          "velocity": 0.11811023622047244
        },
        {
          "duration": 0.13761449999999797,
          "durationTicks": 96,
          "midi": 52,
          "name": "E3",
          "ticks": 68929,
          "time": 98.808644484375,
          "velocity": 0.11811023622047244
        },
        {
          "duration": 0.13761449999999797,
          "durationTicks": 96,
          "midi": 49,
          "name": "C#3",
          "ticks": 68929,
          "time": 98.808644484375,
          "velocity": 0.11811023622047244
        },
        {
          "duration": 0.13761449999999797,
          "durationTicks": 96,
          "midi": 69,
          "name": "A4",
          "ticks": 68929,
          "time": 98.808644484375,
          "velocity": 0.11811023622047244
        },
        {
          "duration": 0.27522900000001016,
          "durationTicks": 192,
          "midi": 43,
          "name": "G2",
          "ticks": 69121,
          "time": 99.08387348437499,
          "velocity": 0.11811023622047244
        },
        {
          "duration": 0.8256870000000021,
          "durationTicks": 576,
          "midi": 57,
          "name": "A3",
          "ticks": 69121,
          "time": 99.08387348437499,
          "velocity": 0.11811023622047244
        },
        {
          "duration": 0.8256870000000021,
          "durationTicks": 576,
          "midi": 66,
          "name": "F#4",
          "ticks": 69121,
          "time": 99.08387348437499,
          "velocity": 0.11811023622047244
        },
        {
          "duration": 0.13761449999999797,
          "durationTicks": 96,
          "midi": 50,
          "name": "D3",
          "ticks": 69313,
          "time": 99.359102484375,
          "velocity": 0.11811023622047244
        },
        {
          "duration": 0.13761449999999797,
          "durationTicks": 96,
          "midi": 47,
          "name": "B2",
          "ticks": 69313,
          "time": 99.359102484375,
          "velocity": 0.11811023622047244
        },
        {
          "duration": 0.13761449999999797,
          "durationTicks": 96,
          "midi": 47,
          "name": "B2",
          "ticks": 69505,
          "time": 99.634331484375,
          "velocity": 0.11811023622047244
        },
        {
          "duration": 0.13761449999999797,
          "durationTicks": 96,
          "midi": 50,
          "name": "D3",
          "ticks": 69505,
          "time": 99.634331484375,
          "velocity": 0.11811023622047244
        },
        {
          "duration": 0.27522899999999595,
          "durationTicks": 192,
          "midi": 43,
          "name": "G2",
          "ticks": 69697,
          "time": 99.90956048437499,
          "velocity": 0.11811023622047244
        },
        {
          "duration": 0.5504580000000061,
          "durationTicks": 384,
          "midi": 67,
          "name": "G4",
          "ticks": 69697,
          "time": 99.90956048437499,
          "velocity": 0.11811023622047244
        },
        {
          "duration": 0.8256870000000021,
          "durationTicks": 576,
          "midi": 62,
          "name": "D4",
          "ticks": 69697,
          "time": 99.90956048437499,
          "velocity": 0.11811023622047244
        },
        {
          "duration": 0.13761450000001219,
          "durationTicks": 96,
          "midi": 50,
          "name": "D3",
          "ticks": 69889,
          "time": 100.18478948437499,
          "velocity": 0.11811023622047244
        },
        {
          "duration": 0.13761450000001219,
          "durationTicks": 96,
          "midi": 47,
          "name": "B2",
          "ticks": 69889,
          "time": 100.18478948437499,
          "velocity": 0.11811023622047244
        },
        {
          "duration": 0.13761449999999797,
          "durationTicks": 96,
          "midi": 50,
          "name": "D3",
          "ticks": 70081,
          "time": 100.460018484375,
          "velocity": 0.11811023622047244
        },
        {
          "duration": 0.13761449999999797,
          "durationTicks": 96,
          "midi": 47,
          "name": "B2",
          "ticks": 70081,
          "time": 100.460018484375,
          "velocity": 0.11811023622047244
        },
        {
          "duration": 0.27522899999999595,
          "durationTicks": 192,
          "midi": 66,
          "name": "F#4",
          "ticks": 70081,
          "time": 100.460018484375,
          "velocity": 0.11811023622047244
        },
        {
          "duration": 0.27522899999999595,
          "durationTicks": 192,
          "midi": 42,
          "name": "F#2",
          "ticks": 70273,
          "time": 100.735247484375,
          "velocity": 0.11811023622047244
        },
        {
          "duration": 0.8256870000000021,
          "durationTicks": 576,
          "midi": 64,
          "name": "E4",
          "ticks": 70273,
          "time": 100.735247484375,
          "velocity": 0.11811023622047244
        },
        {
          "duration": 1.376144999999994,
          "durationTicks": 960,
          "midi": 69,
          "name": "A4",
          "ticks": 70273,
          "time": 100.735247484375,
          "velocity": 0.11811023622047244
        },
        {
          "duration": 0.13761449999999797,
          "durationTicks": 96,
          "midi": 50,
          "name": "D3",
          "ticks": 70465,
          "time": 101.01047648437499,
          "velocity": 0.11811023622047244
        },
        {
          "duration": 0.13761449999999797,
          "durationTicks": 96,
          "midi": 45,
          "name": "A2",
          "ticks": 70465,
          "time": 101.01047648437499,
          "velocity": 0.11811023622047244
        },
        {
          "duration": 0.13761449999999797,
          "durationTicks": 96,
          "midi": 50,
          "name": "D3",
          "ticks": 70657,
          "time": 101.285705484375,
          "velocity": 0.11811023622047244
        },
        {
          "duration": 0.13761449999999797,
          "durationTicks": 96,
          "midi": 45,
          "name": "A2",
          "ticks": 70657,
          "time": 101.285705484375,
          "velocity": 0.11811023622047244
        },
        {
          "duration": 0.27522899999999595,
          "durationTicks": 192,
          "midi": 42,
          "name": "F#2",
          "ticks": 70849,
          "time": 101.560934484375,
          "velocity": 0.11811023622047244
        },
        {
          "duration": 0.5504579999999919,
          "durationTicks": 384,
          "midi": 62,
          "name": "D4",
          "ticks": 70849,
          "time": 101.560934484375,
          "velocity": 0.11811023622047244
        },
        {
          "duration": 0.13761449999999797,
          "durationTicks": 96,
          "midi": 50,
          "name": "D3",
          "ticks": 71041,
          "time": 101.83616348437499,
          "velocity": 0.11811023622047244
        },
        {
          "duration": 0.13761449999999797,
          "durationTicks": 96,
          "midi": 45,
          "name": "A2",
          "ticks": 71041,
          "time": 101.83616348437499,
          "velocity": 0.11811023622047244
        },
        {
          "duration": 0.13761450000001219,
          "durationTicks": 96,
          "midi": 50,
          "name": "D3",
          "ticks": 71233,
          "time": 102.11139248437499,
          "velocity": 0.11811023622047244
        },
        {
          "duration": 0.27522900000001016,
          "durationTicks": 192,
          "midi": 64,
          "name": "E4",
          "ticks": 71233,
          "time": 102.11139248437499,
          "velocity": 0.11811023622047244
        },
        {
          "duration": 0.27522900000001016,
          "durationTicks": 192,
          "midi": 71,
          "name": "B4",
          "ticks": 71233,
          "time": 102.11139248437499,
          "velocity": 0.11811023622047244
        },
        {
          "duration": 0.13761450000001219,
          "durationTicks": 96,
          "midi": 45,
          "name": "A2",
          "ticks": 71233,
          "time": 102.11139248437499,
          "velocity": 0.11811023622047244
        },
        {
          "duration": 0.8256870000000021,
          "durationTicks": 576,
          "midi": 66,
          "name": "F#4",
          "ticks": 71425,
          "time": 102.386621484375,
          "velocity": 0.11811023622047244
        },
        {
          "duration": 0.27522899999999595,
          "durationTicks": 192,
          "midi": 40,
          "name": "E2",
          "ticks": 71425,
          "time": 102.386621484375,
          "velocity": 0.11811023622047244
        },
        {
          "duration": 0.8256870000000021,
          "durationTicks": 576,
          "midi": 69,
          "name": "A4",
          "ticks": 71425,
          "time": 102.386621484375,
          "velocity": 0.11811023622047244
        },
        {
          "duration": 0.13761449999999797,
          "durationTicks": 96,
          "midi": 43,
          "name": "G2",
          "ticks": 71617,
          "time": 102.661850484375,
          "velocity": 0.11811023622047244
        },
        {
          "duration": 0.13761449999999797,
          "durationTicks": 96,
          "midi": 47,
          "name": "B2",
          "ticks": 71617,
          "time": 102.661850484375,
          "velocity": 0.11811023622047244
        },
        {
          "duration": 0.13761449999999797,
          "durationTicks": 96,
          "midi": 47,
          "name": "B2",
          "ticks": 71809,
          "time": 102.93707948437499,
          "velocity": 0.11811023622047244
        },
        {
          "duration": 0.13761449999999797,
          "durationTicks": 96,
          "midi": 43,
          "name": "G2",
          "ticks": 71809,
          "time": 102.93707948437499,
          "velocity": 0.11811023622047244
        },
        {
          "duration": 0.27522899999999595,
          "durationTicks": 192,
          "midi": 40,
          "name": "E2",
          "ticks": 72001,
          "time": 103.212308484375,
          "velocity": 0.11811023622047244
        },
        {
          "duration": 0.5504579999999919,
          "durationTicks": 384,
          "midi": 67,
          "name": "G4",
          "ticks": 72001,
          "time": 103.212308484375,
          "velocity": 0.11811023622047244
        },
        {
          "duration": 0.8256869999999878,
          "durationTicks": 576,
          "midi": 64,
          "name": "E4",
          "ticks": 72001,
          "time": 103.212308484375,
          "velocity": 0.11811023622047244
        },
        {
          "duration": 0.13761449999999797,
          "durationTicks": 96,
          "midi": 43,
          "name": "G2",
          "ticks": 72193,
          "time": 103.487537484375,
          "velocity": 0.11811023622047244
        },
        {
          "duration": 0.13761449999999797,
          "durationTicks": 96,
          "midi": 47,
          "name": "B2",
          "ticks": 72193,
          "time": 103.487537484375,
          "velocity": 0.11811023622047244
        },
        {
          "duration": 0.13761449999999797,
          "durationTicks": 96,
          "midi": 47,
          "name": "B2",
          "ticks": 72385,
          "time": 103.76276648437499,
          "velocity": 0.11811023622047244
        },
        {
          "duration": 0.13761449999999797,
          "durationTicks": 96,
          "midi": 43,
          "name": "G2",
          "ticks": 72385,
          "time": 103.76276648437499,
          "velocity": 0.11811023622047244
        },
        {
          "duration": 0.27522899999999595,
          "durationTicks": 192,
          "midi": 71,
          "name": "B4",
          "ticks": 72385,
          "time": 103.76276648437499,
          "velocity": 0.11811023622047244
        },
        {
          "duration": 1.6513740000000041,
          "durationTicks": 1152,
          "midi": 69,
          "name": "A4",
          "ticks": 72577,
          "time": 104.03799548437499,
          "velocity": 0.11811023622047244
        },
        {
          "duration": 0.27522900000001016,
          "durationTicks": 192,
          "midi": 45,
          "name": "A2",
          "ticks": 72577,
          "time": 104.03799548437499,
          "velocity": 0.11811023622047244
        },
        {
          "duration": 1.6513740000000041,
          "durationTicks": 1152,
          "midi": 62,
          "name": "D4",
          "ticks": 72577,
          "time": 104.03799548437499,
          "velocity": 0.11811023622047244
        },
        {
          "duration": 0.13761449999999797,
          "durationTicks": 96,
          "midi": 52,
          "name": "E3",
          "ticks": 72769,
          "time": 104.313224484375,
          "velocity": 0.11811023622047244
        },
        {
          "duration": 0.13761449999999797,
          "durationTicks": 96,
          "midi": 49,
          "name": "C#3",
          "ticks": 72769,
          "time": 104.313224484375,
          "velocity": 0.11811023622047244
        },
        {
          "duration": 0.13761449999999797,
          "durationTicks": 96,
          "midi": 49,
          "name": "C#3",
          "ticks": 72961,
          "time": 104.588453484375,
          "velocity": 0.11811023622047244
        },
        {
          "duration": 0.13761449999999797,
          "durationTicks": 96,
          "midi": 52,
          "name": "E3",
          "ticks": 72961,
          "time": 104.588453484375,
          "velocity": 0.11811023622047244
        },
        {
          "duration": 0.27522900000001016,
          "durationTicks": 192,
          "midi": 45,
          "name": "A2",
          "ticks": 73153,
          "time": 104.86368248437499,
          "velocity": 0.11811023622047244
        },
        {
          "duration": 0.13761449999999797,
          "durationTicks": 96,
          "midi": 52,
          "name": "E3",
          "ticks": 73345,
          "time": 105.138911484375,
          "velocity": 0.11811023622047244
        },
        {
          "duration": 0.13761449999999797,
          "durationTicks": 96,
          "midi": 49,
          "name": "C#3",
          "ticks": 73345,
          "time": 105.138911484375,
          "velocity": 0.11811023622047244
        },
        {
          "duration": 0.13761449999999797,
          "durationTicks": 96,
          "midi": 52,
          "name": "E3",
          "ticks": 73537,
          "time": 105.414140484375,
          "velocity": 0.11811023622047244
        },
        {
          "duration": 0.13761449999999797,
          "durationTicks": 96,
          "midi": 49,
          "name": "C#3",
          "ticks": 73537,
          "time": 105.414140484375,
          "velocity": 0.11811023622047244
        },
        {
          "duration": 0.27522899999999595,
          "durationTicks": 192,
          "midi": 43,
          "name": "G2",
          "ticks": 73729,
          "time": 105.68936948437499,
          "velocity": 0.11811023622047244
        },
        {
          "duration": 0.13761449999999797,
          "durationTicks": 96,
          "midi": 54,
          "name": "F#3",
          "ticks": 73729,
          "time": 105.68936948437499,
          "velocity": 0.11811023622047244
        },
        {
          "duration": 0.8256870000000021,
          "durationTicks": 576,
          "midi": 57,
          "name": "A3",
          "ticks": 73729,
          "time": 105.68936948437499,
          "velocity": 0.11811023622047244
        },
        {
          "duration": 0.8256870000000021,
          "durationTicks": 576,
          "midi": 57,
          "name": "A3",
          "ticks": 73729,
          "time": 105.68936948437499,
          "velocity": 0.11811023622047244
        },
        {
          "duration": 0.13761449999999797,
          "durationTicks": 96,
          "midi": 47,
          "name": "B2",
          "ticks": 73825,
          "time": 105.82698398437499,
          "velocity": 0.11811023622047244
        },
        {
          "duration": 0.13761450000001219,
          "durationTicks": 96,
          "midi": 50,
          "name": "D3",
          "ticks": 73921,
          "time": 105.96459848437499,
          "velocity": 0.11811023622047244
        },
        {
          "duration": 0.13761450000001219,
          "durationTicks": 96,
          "midi": 47,
          "name": "B2",
          "ticks": 73921,
          "time": 105.96459848437499,
          "velocity": 0.11811023622047244
        },
        {
          "duration": 0.13761450000001219,
          "durationTicks": 96,
          "midi": 54,
          "name": "F#3",
          "ticks": 73921,
          "time": 105.96459848437499,
          "velocity": 0.11811023622047244
        },
        {
          "duration": 0.13761449999999797,
          "durationTicks": 96,
          "midi": 47,
          "name": "B2",
          "ticks": 74017,
          "time": 106.102212984375,
          "velocity": 0.11811023622047244
        },
        {
          "duration": 0.13761449999999797,
          "durationTicks": 96,
          "midi": 47,
          "name": "B2",
          "ticks": 74113,
          "time": 106.239827484375,
          "velocity": 0.11811023622047244
        },
        {
          "duration": 0.13761449999999797,
          "durationTicks": 96,
          "midi": 50,
          "name": "D3",
          "ticks": 74113,
          "time": 106.239827484375,
          "velocity": 0.11811023622047244
        },
        {
          "duration": 0.13761449999999797,
          "durationTicks": 96,
          "midi": 54,
          "name": "F#3",
          "ticks": 74113,
          "time": 106.239827484375,
          "velocity": 0.11811023622047244
        },
        {
          "duration": 0.13761449999999797,
          "durationTicks": 96,
          "midi": 47,
          "name": "B2",
          "ticks": 74209,
          "time": 106.377441984375,
          "velocity": 0.11811023622047244
        },
        {
          "duration": 0.13761449999999797,
          "durationTicks": 96,
          "midi": 54,
          "name": "F#3",
          "ticks": 74305,
          "time": 106.515056484375,
          "velocity": 0.11811023622047244
        },
        {
          "duration": 0.5504580000000061,
          "durationTicks": 384,
          "midi": 69,
          "name": "A4",
          "ticks": 74305,
          "time": 106.515056484375,
          "velocity": 0.11811023622047244
        },
        {
          "duration": 0.5504580000000061,
          "durationTicks": 384,
          "midi": 69,
          "name": "A4",
          "ticks": 74305,
          "time": 106.515056484375,
          "velocity": 0.11811023622047244
        },
        {
          "duration": 0.27522899999999595,
          "durationTicks": 192,
          "midi": 43,
          "name": "G2",
          "ticks": 74305,
          "time": 106.515056484375,
          "velocity": 0.11811023622047244
        },
        {
          "duration": 0.13761449999999797,
          "durationTicks": 96,
          "midi": 47,
          "name": "B2",
          "ticks": 74401,
          "time": 106.65267098437499,
          "velocity": 0.11811023622047244
        },
        {
          "duration": 0.13761449999999797,
          "durationTicks": 96,
          "midi": 50,
          "name": "D3",
          "ticks": 74497,
          "time": 106.79028548437499,
          "velocity": 0.11811023622047244
        },
        {
          "duration": 0.13761449999999797,
          "durationTicks": 96,
          "midi": 47,
          "name": "B2",
          "ticks": 74497,
          "time": 106.79028548437499,
          "velocity": 0.11811023622047244
        },
        {
          "duration": 0.13761449999999797,
          "durationTicks": 96,
          "midi": 54,
          "name": "F#3",
          "ticks": 74497,
          "time": 106.79028548437499,
          "velocity": 0.11811023622047244
        },
        {
          "duration": 0.13761450000001219,
          "durationTicks": 96,
          "midi": 47,
          "name": "B2",
          "ticks": 74593,
          "time": 106.92789998437499,
          "velocity": 0.11811023622047244
        },
        {
          "duration": 0.27522899999999595,
          "durationTicks": 192,
          "midi": 66,
          "name": "F#4",
          "ticks": 74689,
          "time": 107.065514484375,
          "velocity": 0.11811023622047244
        },
        {
          "duration": 0.27522899999999595,
          "durationTicks": 192,
          "midi": 66,
          "name": "F#4",
          "ticks": 74689,
          "time": 107.065514484375,
          "velocity": 0.11811023622047244
        },
        {
          "duration": 0.13761449999999797,
          "durationTicks": 96,
          "midi": 54,
          "name": "F#3",
          "ticks": 74689,
          "time": 107.065514484375,
          "velocity": 0.11811023622047244
        },
        {
          "duration": 0.13761449999999797,
          "durationTicks": 96,
          "midi": 47,
          "name": "B2",
          "ticks": 74689,
          "time": 107.065514484375,
          "velocity": 0.11811023622047244
        },
        {
          "duration": 0.13761449999999797,
          "durationTicks": 96,
          "midi": 50,
          "name": "D3",
          "ticks": 74689,
          "time": 107.065514484375,
          "velocity": 0.11811023622047244
        },
        {
          "duration": 0.13761449999999797,
          "durationTicks": 96,
          "midi": 47,
          "name": "B2",
          "ticks": 74785,
          "time": 107.203128984375,
          "velocity": 0.11811023622047244
        },
        {
          "duration": 0.5504579999999919,
          "durationTicks": 384,
          "midi": 64,
          "name": "E4",
          "ticks": 74881,
          "time": 107.340743484375,
          "velocity": 0.11811023622047244
        },
        {
          "duration": 0.27522899999999595,
          "durationTicks": 192,
          "midi": 43,
          "name": "G2",
          "ticks": 74881,
          "time": 107.340743484375,
          "velocity": 0.11811023622047244
        },
        {
          "duration": 0.13761449999999797,
          "durationTicks": 96,
          "midi": 54,
          "name": "F#3",
          "ticks": 74881,
          "time": 107.340743484375,
          "velocity": 0.11811023622047244
        },
        {
          "duration": 0.5504579999999919,
          "durationTicks": 384,
          "midi": 64,
          "name": "E4",
          "ticks": 74881,
          "time": 107.340743484375,
          "velocity": 0.11811023622047244
        },
        {
          "duration": 0.13761449999999797,
          "durationTicks": 96,
          "midi": 47,
          "name": "B2",
          "ticks": 74977,
          "time": 107.478357984375,
          "velocity": 0.11811023622047244
        },
        {
          "duration": 0.13761449999999797,
          "durationTicks": 96,
          "midi": 50,
          "name": "D3",
          "ticks": 75073,
          "time": 107.61597248437499,
          "velocity": 0.11811023622047244
        },
        {
          "duration": 0.13761449999999797,
          "durationTicks": 96,
          "midi": 47,
          "name": "B2",
          "ticks": 75073,
          "time": 107.61597248437499,
          "velocity": 0.11811023622047244
        },
        {
          "duration": 0.13761449999999797,
          "durationTicks": 96,
          "midi": 54,
          "name": "F#3",
          "ticks": 75073,
          "time": 107.61597248437499,
          "velocity": 0.11811023622047244
        },
        {
          "duration": 0.13761449999999797,
          "durationTicks": 96,
          "midi": 47,
          "name": "B2",
          "ticks": 75169,
          "time": 107.75358698437499,
          "velocity": 0.11811023622047244
        },
        {
          "duration": 0.13761450000001219,
          "durationTicks": 96,
          "midi": 47,
          "name": "B2",
          "ticks": 75265,
          "time": 107.89120148437499,
          "velocity": 0.11811023622047244
        },
        {
          "duration": 0.13761450000001219,
          "durationTicks": 96,
          "midi": 54,
          "name": "F#3",
          "ticks": 75265,
          "time": 107.89120148437499,
          "velocity": 0.11811023622047244
        },
        {
          "duration": 0.13761450000001219,
          "durationTicks": 96,
          "midi": 50,
          "name": "D3",
          "ticks": 75265,
          "time": 107.89120148437499,
          "velocity": 0.11811023622047244
        },
        {
          "duration": 0.27522900000001016,
          "durationTicks": 192,
          "midi": 62,
          "name": "D4",
          "ticks": 75265,
          "time": 107.89120148437499,
          "velocity": 0.11811023622047244
        },
        {
          "duration": 0.27522900000001016,
          "durationTicks": 192,
          "midi": 62,
          "name": "D4",
          "ticks": 75265,
          "time": 107.89120148437499,
          "velocity": 0.11811023622047244
        },
        {
          "duration": 0.13761449999999797,
          "durationTicks": 96,
          "midi": 47,
          "name": "B2",
          "ticks": 75361,
          "time": 108.028815984375,
          "velocity": 0.11811023622047244
        },
        {
          "duration": 0.5504579999999919,
          "durationTicks": 384,
          "midi": 61,
          "name": "C#4",
          "ticks": 75457,
          "time": 108.166430484375,
          "velocity": 0.11811023622047244
        },
        {
          "duration": 0.5504579999999919,
          "durationTicks": 384,
          "midi": 61,
          "name": "C#4",
          "ticks": 75457,
          "time": 108.166430484375,
          "velocity": 0.11811023622047244
        },
        {
          "duration": 0.13761449999999797,
          "durationTicks": 96,
          "midi": 54,
          "name": "F#3",
          "ticks": 75457,
          "time": 108.166430484375,
          "velocity": 0.11811023622047244
        },
        {
          "duration": 0.27522899999999595,
          "durationTicks": 192,
          "midi": 43,
          "name": "G2",
          "ticks": 75457,
          "time": 108.166430484375,
          "velocity": 0.11811023622047244
        },
        {
          "duration": 0.13761449999999797,
          "durationTicks": 96,
          "midi": 47,
          "name": "B2",
          "ticks": 75553,
          "time": 108.304044984375,
          "velocity": 0.11811023622047244
        },
        {
          "duration": 0.13761449999999797,
          "durationTicks": 96,
          "midi": 54,
          "name": "F#3",
          "ticks": 75649,
          "time": 108.441659484375,
          "velocity": 0.11811023622047244
        },
        {
          "duration": 0.13761449999999797,
          "durationTicks": 96,
          "midi": 50,
          "name": "D3",
          "ticks": 75649,
          "time": 108.441659484375,
          "velocity": 0.11811023622047244
        },
        {
          "duration": 0.13761449999999797,
          "durationTicks": 96,
          "midi": 47,
          "name": "B2",
          "ticks": 75649,
          "time": 108.441659484375,
          "velocity": 0.11811023622047244
        },
        {
          "duration": 0.13761449999999797,
          "durationTicks": 96,
          "midi": 47,
          "name": "B2",
          "ticks": 75745,
          "time": 108.57927398437499,
          "velocity": 0.11811023622047244
        },
        {
          "duration": 0.27522900000001016,
          "durationTicks": 192,
          "midi": 62,
          "name": "D4",
          "ticks": 75841,
          "time": 108.71688848437499,
          "velocity": 0.11811023622047244
        },
        {
          "duration": 0.27522900000001016,
          "durationTicks": 192,
          "midi": 62,
          "name": "D4",
          "ticks": 75841,
          "time": 108.71688848437499,
          "velocity": 0.11811023622047244
        },
        {
          "duration": 0.13761449999999797,
          "durationTicks": 96,
          "midi": 54,
          "name": "F#3",
          "ticks": 75841,
          "time": 108.71688848437499,
          "velocity": 0.11811023622047244
        },
        {
          "duration": 0.13761449999999797,
          "durationTicks": 96,
          "midi": 50,
          "name": "D3",
          "ticks": 75841,
          "time": 108.71688848437499,
          "velocity": 0.11811023622047244
        },
        {
          "duration": 0.13761449999999797,
          "durationTicks": 96,
          "midi": 47,
          "name": "B2",
          "ticks": 75841,
          "time": 108.71688848437499,
          "velocity": 0.11811023622047244
        },
        {
          "duration": 0.13761450000001219,
          "durationTicks": 96,
          "midi": 47,
          "name": "B2",
          "ticks": 75937,
          "time": 108.85450298437499,
          "velocity": 0.11811023622047244
        },
        {
          "duration": 0.13761450000001219,
          "durationTicks": 96,
          "midi": 47,
          "name": "B2",
          "ticks": 75937,
          "time": 108.85450298437499,
          "velocity": 0.11811023622047244
        },
        {
          "duration": 0.27522899999999595,
          "durationTicks": 192,
          "midi": 42,
          "name": "F#2",
          "ticks": 76033,
          "time": 108.992117484375,
          "velocity": 0.11811023622047244
        },
        {
          "duration": 0.6880724999999899,
          "durationTicks": 480,
          "midi": 64,
          "name": "E4",
          "ticks": 76033,
          "time": 108.992117484375,
          "velocity": 0.11811023622047244
        },
        {
          "duration": 0.13761449999999797,
          "durationTicks": 96,
          "midi": 52,
          "name": "E3",
          "ticks": 76033,
          "time": 108.992117484375,
          "velocity": 0.11811023622047244
        },
        {
          "duration": 0.6880724999999899,
          "durationTicks": 480,
          "midi": 64,
          "name": "E4",
          "ticks": 76033,
          "time": 108.992117484375,
          "velocity": 0.11811023622047244
        },
        {
          "duration": 0.13761449999999797,
          "durationTicks": 96,
          "midi": 45,
          "name": "A2",
          "ticks": 76129,
          "time": 109.129731984375,
          "velocity": 0.11811023622047244
        },
        {
          "duration": 0.13761449999999797,
          "durationTicks": 96,
          "midi": 52,
          "name": "E3",
          "ticks": 76225,
          "time": 109.267346484375,
          "velocity": 0.11811023622047244
        },
        {
          "duration": 0.13761449999999797,
          "durationTicks": 96,
          "midi": 45,
          "name": "A2",
          "ticks": 76225,
          "time": 109.267346484375,
          "velocity": 0.11811023622047244
        },
        {
          "duration": 0.13761449999999797,
          "durationTicks": 96,
          "midi": 49,
          "name": "C#3",
          "ticks": 76225,
          "time": 109.267346484375,
          "velocity": 0.11811023622047244
        },
        {
          "duration": 0.13761449999999797,
          "durationTicks": 96,
          "midi": 45,
          "name": "A2",
          "ticks": 76321,
          "time": 109.404960984375,
          "velocity": 0.11811023622047244
        },
        {
          "duration": 0.13761449999999797,
          "durationTicks": 96,
          "midi": 52,
          "name": "E3",
          "ticks": 76417,
          "time": 109.54257548437499,
          "velocity": 0.11811023622047244
        },
        {
          "duration": 0.13761449999999797,
          "durationTicks": 96,
          "midi": 49,
          "name": "C#3",
          "ticks": 76417,
          "time": 109.54257548437499,
          "velocity": 0.11811023622047244
        },
        {
          "duration": 0.13761449999999797,
          "durationTicks": 96,
          "midi": 45,
          "name": "A2",
          "ticks": 76417,
          "time": 109.54257548437499,
          "velocity": 0.11811023622047244
        },
        {
          "duration": 0.13761449999999797,
          "durationTicks": 96,
          "midi": 71,
          "name": "B4",
          "ticks": 76513,
          "time": 109.68018998437499,
          "velocity": 0.11811023622047244
        },
        {
          "duration": 0.13761449999999797,
          "durationTicks": 96,
          "midi": 71,
          "name": "B4",
          "ticks": 76513,
          "time": 109.68018998437499,
          "velocity": 0.11811023622047244
        },
        {
          "duration": 0.13761449999999797,
          "durationTicks": 96,
          "midi": 45,
          "name": "A2",
          "ticks": 76513,
          "time": 109.68018998437499,
          "velocity": 0.11811023622047244
        },
        {
          "duration": 0.13761449999999797,
          "durationTicks": 96,
          "midi": 72,
          "name": "C5",
          "ticks": 76561,
          "time": 109.748997234375,
          "velocity": 0.11811023622047244
        },
        {
          "duration": 0.13761449999999797,
          "durationTicks": 96,
          "midi": 72,
          "name": "C5",
          "ticks": 76561,
          "time": 109.748997234375,
          "velocity": 0.11811023622047244
        },
        {
          "duration": 0.27522900000001016,
          "durationTicks": 192,
          "midi": 42,
          "name": "F#2",
          "ticks": 76609,
          "time": 109.81780448437499,
          "velocity": 0.11811023622047244
        },
        {
          "duration": 0.13761450000001219,
          "durationTicks": 96,
          "midi": 73,
          "name": "C#5",
          "ticks": 76609,
          "time": 109.81780448437499,
          "velocity": 0.11811023622047244
        },
        {
          "duration": 0.13761450000001219,
          "durationTicks": 96,
          "midi": 52,
          "name": "E3",
          "ticks": 76609,
          "time": 109.81780448437499,
          "velocity": 0.11811023622047244
        },
        {
          "duration": 0.13761450000001219,
          "durationTicks": 96,
          "midi": 73,
          "name": "C#5",
          "ticks": 76609,
          "time": 109.81780448437499,
          "velocity": 0.11811023622047244
        },
        {
          "duration": 0.13761449999999797,
          "durationTicks": 96,
          "midi": 45,
          "name": "A2",
          "ticks": 76705,
          "time": 109.955418984375,
          "velocity": 0.11811023622047244
        },
        {
          "duration": 0.13761449999999797,
          "durationTicks": 96,
          "midi": 72,
          "name": "C5",
          "ticks": 76801,
          "time": 110.093033484375,
          "velocity": 0.11811023622047244
        },
        {
          "duration": 0.13761449999999797,
          "durationTicks": 96,
          "midi": 45,
          "name": "A2",
          "ticks": 76801,
          "time": 110.093033484375,
          "velocity": 0.11811023622047244
        },
        {
          "duration": 0.13761449999999797,
          "durationTicks": 96,
          "midi": 49,
          "name": "C#3",
          "ticks": 76801,
          "time": 110.093033484375,
          "velocity": 0.11811023622047244
        },
        {
          "duration": 0.13761449999999797,
          "durationTicks": 96,
          "midi": 52,
          "name": "E3",
          "ticks": 76801,
          "time": 110.093033484375,
          "velocity": 0.11811023622047244
        },
        {
          "duration": 0.13761449999999797,
          "durationTicks": 96,
          "midi": 72,
          "name": "C5",
          "ticks": 76801,
          "time": 110.093033484375,
          "velocity": 0.11811023622047244
        },
        {
          "duration": 0.13761449999999797,
          "durationTicks": 96,
          "midi": 45,
          "name": "A2",
          "ticks": 76897,
          "time": 110.230647984375,
          "velocity": 0.11811023622047244
        },
        {
          "duration": 0.13761449999999797,
          "durationTicks": 96,
          "midi": 45,
          "name": "A2",
          "ticks": 76993,
          "time": 110.368262484375,
          "velocity": 0.11811023622047244
        },
        {
          "duration": 0.13761449999999797,
          "durationTicks": 96,
          "midi": 49,
          "name": "C#3",
          "ticks": 76993,
          "time": 110.368262484375,
          "velocity": 0.11811023622047244
        },
        {
          "duration": 0.13761449999999797,
          "durationTicks": 96,
          "midi": 71,
          "name": "B4",
          "ticks": 76993,
          "time": 110.368262484375,
          "velocity": 0.11811023622047244
        },
        {
          "duration": 0.13761449999999797,
          "durationTicks": 96,
          "midi": 71,
          "name": "B4",
          "ticks": 76993,
          "time": 110.368262484375,
          "velocity": 0.11811023622047244
        },
        {
          "duration": 0.13761449999999797,
          "durationTicks": 96,
          "midi": 52,
          "name": "E3",
          "ticks": 76993,
          "time": 110.368262484375,
          "velocity": 0.11811023622047244
        },
        {
          "duration": 0.13761449999999797,
          "durationTicks": 96,
          "midi": 45,
          "name": "A2",
          "ticks": 77089,
          "time": 110.50587698437499,
          "velocity": 0.11811023622047244
        },
        {
          "duration": 0.13761449999999797,
          "durationTicks": 96,
          "midi": 52,
          "name": "E3",
          "ticks": 77185,
          "time": 110.64349148437499,
          "velocity": 0.11811023622047244
        },
        {
          "duration": 1.6513740000000041,
          "durationTicks": 1152,
          "midi": 69,
          "name": "A4",
          "ticks": 77185,
          "time": 110.64349148437499,
          "velocity": 0.11811023622047244
        },
        {
          "duration": 1.6513740000000041,
          "durationTicks": 1152,
          "midi": 69,
          "name": "A4",
          "ticks": 77185,
          "time": 110.64349148437499,
          "velocity": 0.11811023622047244
        },
        {
          "duration": 0.27522900000001016,
          "durationTicks": 192,
          "midi": 42,
          "name": "F#2",
          "ticks": 77185,
          "time": 110.64349148437499,
          "velocity": 0.11811023622047244
        },
        {
          "duration": 0.13761450000001219,
          "durationTicks": 96,
          "midi": 45,
          "name": "A2",
          "ticks": 77281,
          "time": 110.78110598437499,
          "velocity": 0.11811023622047244
        },
        {
          "duration": 0.13761449999999797,
          "durationTicks": 96,
          "midi": 52,
          "name": "E3",
          "ticks": 77377,
          "time": 110.918720484375,
          "velocity": 0.11811023622047244
        },
        {
          "duration": 0.13761449999999797,
          "durationTicks": 96,
          "midi": 45,
          "name": "A2",
          "ticks": 77377,
          "time": 110.918720484375,
          "velocity": 0.11811023622047244
        },
        {
          "duration": 0.13761449999999797,
          "durationTicks": 96,
          "midi": 49,
          "name": "C#3",
          "ticks": 77377,
          "time": 110.918720484375,
          "velocity": 0.11811023622047244
        },
        {
          "duration": 0.13761449999999797,
          "durationTicks": 96,
          "midi": 45,
          "name": "A2",
          "ticks": 77473,
          "time": 111.056334984375,
          "velocity": 0.11811023622047244
        },
        {
          "duration": 0.13761449999999797,
          "durationTicks": 96,
          "midi": 45,
          "name": "A2",
          "ticks": 77569,
          "time": 111.193949484375,
          "velocity": 0.11811023622047244
        },
        {
          "duration": 0.13761449999999797,
          "durationTicks": 96,
          "midi": 49,
          "name": "C#3",
          "ticks": 77569,
          "time": 111.193949484375,
          "velocity": 0.11811023622047244
        },
        {
          "duration": 0.13761449999999797,
          "durationTicks": 96,
          "midi": 52,
          "name": "E3",
          "ticks": 77569,
          "time": 111.193949484375,
          "velocity": 0.11811023622047244
        },
        {
          "duration": 0.13761449999999797,
          "durationTicks": 96,
          "midi": 45,
          "name": "A2",
          "ticks": 77665,
          "time": 111.331563984375,
          "velocity": 0.11811023622047244
        },
        {
          "duration": 0.13761449999999797,
          "durationTicks": 96,
          "midi": 52,
          "name": "E3",
          "ticks": 77761,
          "time": 111.46917848437499,
          "velocity": 0.11811023622047244
        },
        {
          "duration": 0.27522899999999595,
          "durationTicks": 192,
          "midi": 42,
          "name": "F#2",
          "ticks": 77761,
          "time": 111.46917848437499,
          "velocity": 0.11811023622047244
        },
        {
          "duration": 0.13761449999999797,
          "durationTicks": 96,
          "midi": 45,
          "name": "A2",
          "ticks": 77857,
          "time": 111.60679298437499,
          "velocity": 0.11811023622047244
        },
        {
          "duration": 0.13761450000001219,
          "durationTicks": 96,
          "midi": 52,
          "name": "E3",
          "ticks": 77953,
          "time": 111.74440748437499,
          "velocity": 0.11811023622047244
        },
        {
          "duration": 0.13761450000001219,
          "durationTicks": 96,
          "midi": 45,
          "name": "A2",
          "ticks": 77953,
          "time": 111.74440748437499,
          "velocity": 0.11811023622047244
        },
        {
          "duration": 0.13761450000001219,
          "durationTicks": 96,
          "midi": 49,
          "name": "C#3",
          "ticks": 77953,
          "time": 111.74440748437499,
          "velocity": 0.11811023622047244
        },
        {
          "duration": 0.13761449999999797,
          "durationTicks": 96,
          "midi": 45,
          "name": "A2",
          "ticks": 78049,
          "time": 111.882021984375,
          "velocity": 0.11811023622047244
        },
        {
          "duration": 0.13761449999999797,
          "durationTicks": 96,
          "midi": 45,
          "name": "A2",
          "ticks": 78145,
          "time": 112.019636484375,
          "velocity": 0.11811023622047244
        },
        {
          "duration": 0.13761449999999797,
          "durationTicks": 96,
          "midi": 52,
          "name": "E3",
          "ticks": 78145,
          "time": 112.019636484375,
          "velocity": 0.11811023622047244
        },
        {
          "duration": 0.13761449999999797,
          "durationTicks": 96,
          "midi": 49,
          "name": "C#3",
          "ticks": 78145,
          "time": 112.019636484375,
          "velocity": 0.11811023622047244
        },
        {
          "duration": 0.13761449999999797,
          "durationTicks": 96,
          "midi": 45,
          "name": "A2",
          "ticks": 78241,
          "time": 112.157250984375,
          "velocity": 0.11811023622047244
        },
        {
          "duration": 0.13761449999999797,
          "durationTicks": 96,
          "midi": 45,
          "name": "A2",
          "ticks": 78241,
          "time": 112.157250984375,
          "velocity": 0.11811023622047244
        },
        {
          "duration": 0.13761449999999797,
          "durationTicks": 96,
          "midi": 47,
          "name": "B2",
          "ticks": 78337,
          "time": 112.294865484375,
          "velocity": 0.11811023622047244
        },
        {
          "duration": 0.8256870000000021,
          "durationTicks": 576,
          "midi": 59,
          "name": "B3",
          "ticks": 78337,
          "time": 112.294865484375,
          "velocity": 0.11811023622047244
        },
        {
          "duration": 0.8256870000000021,
          "durationTicks": 576,
          "midi": 59,
          "name": "B3",
          "ticks": 78337,
          "time": 112.294865484375,
          "velocity": 0.11811023622047244
        },
        {
          "duration": 0.27522899999999595,
          "durationTicks": 192,
          "midi": 40,
          "name": "E2",
          "ticks": 78337,
          "time": 112.294865484375,
          "velocity": 0.11811023622047244
        },
        {
          "duration": 0.13761449999999797,
          "durationTicks": 96,
          "midi": 43,
          "name": "G2",
          "ticks": 78433,
          "time": 112.432479984375,
          "velocity": 0.11811023622047244
        },
        {
          "duration": 0.13761449999999797,
          "durationTicks": 96,
          "midi": 47,
          "name": "B2",
          "ticks": 78529,
          "time": 112.57009448437499,
          "velocity": 0.11811023622047244
        },
        {
          "duration": 0.13761449999999797,
          "durationTicks": 96,
          "midi": 43,
          "name": "G2",
          "ticks": 78529,
          "time": 112.57009448437499,
          "velocity": 0.11811023622047244
        },
        {
          "duration": 0.13761449999999797,
          "durationTicks": 96,
          "midi": 47,
          "name": "B2",
          "ticks": 78529,
          "time": 112.57009448437499,
          "velocity": 0.11811023622047244
        },
        {
          "duration": 0.13761450000001219,
          "durationTicks": 96,
          "midi": 43,
          "name": "G2",
          "ticks": 78625,
          "time": 112.70770898437499,
          "velocity": 0.11811023622047244
        },
        {
          "duration": 0.13761449999999797,
          "durationTicks": 96,
          "midi": 43,
          "name": "G2",
          "ticks": 78721,
          "time": 112.845323484375,
          "velocity": 0.11811023622047244
        },
        {
          "duration": 0.13761449999999797,
          "durationTicks": 96,
          "midi": 47,
          "name": "B2",
          "ticks": 78721,
          "time": 112.845323484375,
          "velocity": 0.11811023622047244
        },
        {
          "duration": 0.13761449999999797,
          "durationTicks": 96,
          "midi": 47,
          "name": "B2",
          "ticks": 78721,
          "time": 112.845323484375,
          "velocity": 0.11811023622047244
        },
        {
          "duration": 0.13761449999999797,
          "durationTicks": 96,
          "midi": 43,
          "name": "G2",
          "ticks": 78817,
          "time": 112.982937984375,
          "velocity": 0.11811023622047244
        },
        {
          "duration": 0.5504579999999919,
          "durationTicks": 384,
          "midi": 69,
          "name": "A4",
          "ticks": 78913,
          "time": 113.120552484375,
          "velocity": 0.11811023622047244
        },
        {
          "duration": 0.5504579999999919,
          "durationTicks": 384,
          "midi": 69,
          "name": "A4",
          "ticks": 78913,
          "time": 113.120552484375,
          "velocity": 0.11811023622047244
        },
        {
          "duration": 0.13761449999999797,
          "durationTicks": 96,
          "midi": 47,
          "name": "B2",
          "ticks": 78913,
          "time": 113.120552484375,
          "velocity": 0.11811023622047244
        },
        {
          "duration": 0.27522899999999595,
          "durationTicks": 192,
          "midi": 40,
          "name": "E2",
          "ticks": 78913,
          "time": 113.120552484375,
          "velocity": 0.11811023622047244
        },
        {
          "duration": 0.13761449999999797,
          "durationTicks": 96,
          "midi": 43,
          "name": "G2",
          "ticks": 79009,
          "time": 113.258166984375,
          "velocity": 0.11811023622047244
        },
        {
          "duration": 0.13761449999999797,
          "durationTicks": 96,
          "midi": 43,
          "name": "G2",
          "ticks": 79105,
          "time": 113.395781484375,
          "velocity": 0.11811023622047244
        },
        {
          "duration": 0.13761449999999797,
          "durationTicks": 96,
          "midi": 47,
          "name": "B2",
          "ticks": 79105,
          "time": 113.395781484375,
          "velocity": 0.11811023622047244
        },
        {
          "duration": 0.13761449999999797,
          "durationTicks": 96,
          "midi": 47,
          "name": "B2",
          "ticks": 79105,
          "time": 113.395781484375,
          "velocity": 0.11811023622047244
        },
        {
          "duration": 0.13761449999999797,
          "durationTicks": 96,
          "midi": 43,
          "name": "G2",
          "ticks": 79201,
          "time": 113.53339598437499,
          "velocity": 0.11811023622047244
        },
        {
          "duration": 0.27522900000001016,
          "durationTicks": 192,
          "midi": 66,
          "name": "F#4",
          "ticks": 79297,
          "time": 113.67101048437499,
          "velocity": 0.11811023622047244
        },
        {
          "duration": 0.13761450000001219,
          "durationTicks": 96,
          "midi": 43,
          "name": "G2",
          "ticks": 79297,
          "time": 113.67101048437499,
          "velocity": 0.11811023622047244
        },
        {
          "duration": 0.13761450000001219,
          "durationTicks": 96,
          "midi": 47,
          "name": "B2",
          "ticks": 79297,
          "time": 113.67101048437499,
          "velocity": 0.11811023622047244
        },
        {
          "duration": 0.13761450000001219,
          "durationTicks": 96,
          "midi": 47,
          "name": "B2",
          "ticks": 79297,
          "time": 113.67101048437499,
          "velocity": 0.11811023622047244
        },
        {
          "duration": 0.27522900000001016,
          "durationTicks": 192,
          "midi": 66,
          "name": "F#4",
          "ticks": 79297,
          "time": 113.67101048437499,
          "velocity": 0.11811023622047244
        },
        {
          "duration": 0.6880725000000041,
          "durationTicks": 480,
          "midi": 66,
          "name": "F#4",
          "ticks": 79297,
          "time": 113.67101048437499,
          "velocity": 0.11811023622047244
        },
        {
          "duration": 0.13761449999999797,
          "durationTicks": 96,
          "midi": 43,
          "name": "G2",
          "ticks": 79393,
          "time": 113.808624984375,
          "velocity": 0.11811023622047244
        },
        {
          "duration": 0.13761449999999797,
          "durationTicks": 96,
          "midi": 43,
          "name": "G2",
          "ticks": 79393,
          "time": 113.808624984375,
          "velocity": 0.11811023622047244
        },
        {
          "duration": 0.13761449999999797,
          "durationTicks": 96,
          "midi": 52,
          "name": "E3",
          "ticks": 79489,
          "time": 113.946239484375,
          "velocity": 0.11811023622047244
        },
        {
          "duration": 0.4128434999999939,
          "durationTicks": 288,
          "midi": 64,
          "name": "E4",
          "ticks": 79489,
          "time": 113.946239484375,
          "velocity": 0.11811023622047244
        },
        {
          "duration": 0.5060199843750013,
          "durationTicks": 353,
          "midi": 64,
          "name": "E4",
          "ticks": 79489,
          "time": 113.946239484375,
          "velocity": 0.11811023622047244
        },
        {
          "duration": 0.13761449999999797,
          "durationTicks": 96,
          "midi": 45,
          "name": "A2",
          "ticks": 79585,
          "time": 114.083853984375,
          "velocity": 0.11811023622047244
        },
        {
          "duration": 0.13761449999999797,
          "durationTicks": 96,
          "midi": 45,
          "name": "A2",
          "ticks": 79585,
          "time": 114.083853984375,
          "velocity": 0.11811023622047244
        },
        {
          "duration": 0.13761449999999797,
          "durationTicks": 96,
          "midi": 49,
          "name": "C#3",
          "ticks": 79681,
          "time": 114.221468484375,
          "velocity": 0.11811023622047244
        },
        {
          "duration": 0.13761449999999797,
          "durationTicks": 96,
          "midi": 52,
          "name": "E3",
          "ticks": 79681,
          "time": 114.221468484375,
          "velocity": 0.11811023622047244
        },
        {
          "duration": 0.13761449999999797,
          "durationTicks": 96,
          "midi": 52,
          "name": "E3",
          "ticks": 79681,
          "time": 114.221468484375,
          "velocity": 0.11811023622047244
        },
        {
          "duration": 0.13761449999999797,
          "durationTicks": 96,
          "midi": 45,
          "name": "A2",
          "ticks": 79777,
          "time": 114.359082984375,
          "velocity": 0.11811023622047244
        },
        {
          "duration": 0.04443801562499061,
          "durationTicks": 31,
          "midi": 64,
          "name": "E4",
          "ticks": 79842,
          "time": 114.45225946875,
          "velocity": 0.11811023622047244
        },
        {
          "duration": 0.27522899999999595,
          "durationTicks": 192,
          "midi": 62,
          "name": "D4",
          "ticks": 79874,
          "time": 114.49813096875,
          "velocity": 0.11811023622047244
        },
        {
          "duration": 0.27522899999999595,
          "durationTicks": 192,
          "midi": 62,
          "name": "D4",
          "ticks": 79874,
          "time": 114.49813096875,
          "velocity": 0.11811023622047244
        },
        {
          "duration": 0.13761449999999797,
          "durationTicks": 96,
          "midi": 52,
          "name": "E3",
          "ticks": 79874,
          "time": 114.49813096875,
          "velocity": 0.11811023622047244
        },
        {
          "duration": 0.13761449999999797,
          "durationTicks": 96,
          "midi": 49,
          "name": "C#3",
          "ticks": 79874,
          "time": 114.49813096875,
          "velocity": 0.11811023622047244
        },
        {
          "duration": 0.13761449999999797,
          "durationTicks": 96,
          "midi": 52,
          "name": "E3",
          "ticks": 79874,
          "time": 114.49813096875,
          "velocity": 0.11811023622047244
        },
        {
          "duration": 0.13761449999999797,
          "durationTicks": 96,
          "midi": 45,
          "name": "A2",
          "ticks": 79970,
          "time": 114.63574546875,
          "velocity": 0.11811023622047244
        },
        {
          "duration": 0.5504580000000061,
          "durationTicks": 384,
          "midi": 64,
          "name": "E4",
          "ticks": 80066,
          "time": 114.77335996875,
          "velocity": 0.11811023622047244
        },
        {
          "duration": 0.13761450000001219,
          "durationTicks": 96,
          "midi": 52,
          "name": "E3",
          "ticks": 80066,
          "time": 114.77335996875,
          "velocity": 0.11811023622047244
        },
        {
          "duration": 0.5504580000000061,
          "durationTicks": 384,
          "midi": 64,
          "name": "E4",
          "ticks": 80066,
          "time": 114.77335996875,
          "velocity": 0.11811023622047244
        },
        {
          "duration": 0.13761449999999797,
          "durationTicks": 96,
          "midi": 45,
          "name": "A2",
          "ticks": 80162,
          "time": 114.91097446875001,
          "velocity": 0.11811023622047244
        },
        {
          "duration": 0.13761449999999797,
          "durationTicks": 96,
          "midi": 45,
          "name": "A2",
          "ticks": 80162,
          "time": 114.91097446875001,
          "velocity": 0.11811023622047244
        },
        {
          "duration": 0.13761449999999797,
          "durationTicks": 96,
          "midi": 52,
          "name": "E3",
          "ticks": 80258,
          "time": 115.04858896875001,
          "velocity": 0.11811023622047244
        },
        {
          "duration": 0.13761449999999797,
          "durationTicks": 96,
          "midi": 49,
          "name": "C#3",
          "ticks": 80258,
          "time": 115.04858896875001,
          "velocity": 0.11811023622047244
        },
        {
          "duration": 0.13761449999999797,
          "durationTicks": 96,
          "midi": 52,
          "name": "E3",
          "ticks": 80258,
          "time": 115.04858896875001,
          "velocity": 0.11811023622047244
        },
        {
          "duration": 0.13761449999999797,
          "durationTicks": 96,
          "midi": 45,
          "name": "A2",
          "ticks": 80354,
          "time": 115.18620346875001,
          "velocity": 0.11811023622047244
        },
        {
          "duration": 0.27522899999999595,
          "durationTicks": 192,
          "midi": 66,
          "name": "F#4",
          "ticks": 80450,
          "time": 115.32381796875,
          "velocity": 0.11811023622047244
        },
        {
          "duration": 0.13761449999999797,
          "durationTicks": 96,
          "midi": 49,
          "name": "C#3",
          "ticks": 80450,
          "time": 115.32381796875,
          "velocity": 0.11811023622047244
        },
        {
          "duration": 0.13761449999999797,
          "durationTicks": 96,
          "midi": 52,
          "name": "E3",
          "ticks": 80450,
          "time": 115.32381796875,
          "velocity": 0.11811023622047244
        },
        {
          "duration": 0.13761449999999797,
          "durationTicks": 96,
          "midi": 52,
          "name": "E3",
          "ticks": 80450,
          "time": 115.32381796875,
          "velocity": 0.11811023622047244
        },
        {
          "duration": 0.27522899999999595,
          "durationTicks": 192,
          "midi": 66,
          "name": "F#4",
          "ticks": 80450,
          "time": 115.32381796875,
          "velocity": 0.11811023622047244
        },
        {
          "duration": 0.13761449999999797,
          "durationTicks": 96,
          "midi": 45,
          "name": "A2",
          "ticks": 80546,
          "time": 115.46143246875,
          "velocity": 0.11811023622047244
        },
        {
          "duration": 0.13761449999999797,
          "durationTicks": 96,
          "midi": 45,
          "name": "A2",
          "ticks": 80546,
          "time": 115.46143246875,
          "velocity": 0.11811023622047244
        },
        {
          "duration": 0.8256870000000021,
          "durationTicks": 576,
          "midi": 61,
          "name": "C#4",
          "ticks": 80642,
          "time": 115.59904696875,
          "velocity": 0.11811023622047244
        },
        {
          "duration": 0.13761449999999797,
          "durationTicks": 96,
          "midi": 52,
          "name": "E3",
          "ticks": 80642,
          "time": 115.59904696875,
          "velocity": 0.11811023622047244
        },
        {
          "duration": 0.8256870000000021,
          "durationTicks": 576,
          "midi": 61,
          "name": "C#4",
          "ticks": 80642,
          "time": 115.59904696875,
          "velocity": 0.11811023622047244
        },
        {
          "duration": 0.13761450000001219,
          "durationTicks": 96,
          "midi": 46,
          "name": "A#2",
          "ticks": 80738,
          "time": 115.73666146875,
          "velocity": 0.11811023622047244
        },
        {
          "duration": 0.13761450000001219,
          "durationTicks": 96,
          "midi": 46,
          "name": "A#2",
          "ticks": 80738,
          "time": 115.73666146875,
          "velocity": 0.11811023622047244
        },
        {
          "duration": 0.13761449999999797,
          "durationTicks": 96,
          "midi": 52,
          "name": "E3",
          "ticks": 80834,
          "time": 115.87427596875001,
          "velocity": 0.11811023622047244
        },
        {
          "duration": 0.13761449999999797,
          "durationTicks": 96,
          "midi": 49,
          "name": "C#3",
          "ticks": 80834,
          "time": 115.87427596875001,
          "velocity": 0.11811023622047244
        },
        {
          "duration": 0.13761449999999797,
          "durationTicks": 96,
          "midi": 52,
          "name": "E3",
          "ticks": 80834,
          "time": 115.87427596875001,
          "velocity": 0.11811023622047244
        },
        {
          "duration": 0.13761449999999797,
          "durationTicks": 96,
          "midi": 46,
          "name": "A#2",
          "ticks": 80930,
          "time": 116.01189046875001,
          "velocity": 0.11811023622047244
        },
        {
          "duration": 0.13761449999999797,
          "durationTicks": 96,
          "midi": 52,
          "name": "E3",
          "ticks": 81026,
          "time": 116.14950496875001,
          "velocity": 0.11811023622047244
        },
        {
          "duration": 0.13761449999999797,
          "durationTicks": 96,
          "midi": 49,
          "name": "C#3",
          "ticks": 81026,
          "time": 116.14950496875001,
          "velocity": 0.11811023622047244
        },
        {
          "duration": 0.13761449999999797,
          "durationTicks": 96,
          "midi": 52,
          "name": "E3",
          "ticks": 81026,
          "time": 116.14950496875001,
          "velocity": 0.11811023622047244
        },
        {
          "duration": 0.13761449999999797,
          "durationTicks": 96,
          "midi": 46,
          "name": "A#2",
          "ticks": 81122,
          "time": 116.28711946875,
          "velocity": 0.11811023622047244
        },
        {
          "duration": 0.13761449999999797,
          "durationTicks": 96,
          "midi": 52,
          "name": "E3",
          "ticks": 81218,
          "time": 116.42473396875,
          "velocity": 0.11811023622047244
        },
        {
          "duration": 0.8256870000000021,
          "durationTicks": 576,
          "midi": 64,
          "name": "E4",
          "ticks": 81218,
          "time": 116.42473396875,
          "velocity": 0.11811023622047244
        },
        {
          "duration": 0.8256870000000021,
          "durationTicks": 576,
          "midi": 64,
          "name": "E4",
          "ticks": 81218,
          "time": 116.42473396875,
          "velocity": 0.11811023622047244
        },
        {
          "duration": 0.13761449999999797,
          "durationTicks": 96,
          "midi": 46,
          "name": "A#2",
          "ticks": 81314,
          "time": 116.56234846875,
          "velocity": 0.11811023622047244
        },
        {
          "duration": 0.13761449999999797,
          "durationTicks": 96,
          "midi": 46,
          "name": "A#2",
          "ticks": 81314,
          "time": 116.56234846875,
          "velocity": 0.11811023622047244
        },
        {
          "duration": 0.13761450000001219,
          "durationTicks": 96,
          "midi": 52,
          "name": "E3",
          "ticks": 81410,
          "time": 116.69996296875,
          "velocity": 0.11811023622047244
        },
        {
          "duration": 0.13761450000001219,
          "durationTicks": 96,
          "midi": 52,
          "name": "E3",
          "ticks": 81410,
          "time": 116.69996296875,
          "velocity": 0.11811023622047244
        },
        {
          "duration": 0.13761450000001219,
          "durationTicks": 96,
          "midi": 49,
          "name": "C#3",
          "ticks": 81410,
          "time": 116.69996296875,
          "velocity": 0.11811023622047244
        },
        {
          "duration": 0.13761449999999797,
          "durationTicks": 96,
          "midi": 46,
          "name": "A#2",
          "ticks": 81506,
          "time": 116.83757746875001,
          "velocity": 0.11811023622047244
        },
        {
          "duration": 0.13761449999999797,
          "durationTicks": 96,
          "midi": 52,
          "name": "E3",
          "ticks": 81602,
          "time": 116.97519196875001,
          "velocity": 0.11811023622047244
        },
        {
          "duration": 0.13761449999999797,
          "durationTicks": 96,
          "midi": 52,
          "name": "E3",
          "ticks": 81602,
          "time": 116.97519196875001,
          "velocity": 0.11811023622047244
        },
        {
          "duration": 0.13761449999999797,
          "durationTicks": 96,
          "midi": 49,
          "name": "C#3",
          "ticks": 81602,
          "time": 116.97519196875001,
          "velocity": 0.11811023622047244
        },
        {
          "duration": 0.27522899999999595,
          "durationTicks": 192,
          "midi": 49,
          "name": "C#3",
          "ticks": 81602,
          "time": 116.97519196875001,
          "velocity": 0.11811023622047244
        },
        {
          "duration": 0.13761449999999797,
          "durationTicks": 96,
          "midi": 46,
          "name": "A#2",
          "ticks": 81698,
          "time": 117.11280646875001,
          "velocity": 0.11811023622047244
        },
        {
          "duration": 0.27522899999999595,
          "durationTicks": 192,
          "midi": 47,
          "name": "B2",
          "ticks": 81794,
          "time": 117.25042096875,
          "velocity": 0.11811023622047244
        },
        {
          "duration": 0.8256870000000021,
          "durationTicks": 576,
          "midi": 47,
          "name": "B2",
          "ticks": 81794,
          "time": 117.25042096875,
          "velocity": 0.11811023622047244
        },
        {
          "duration": 0.5504580000000061,
          "durationTicks": 384,
          "midi": 64,
          "name": "E4",
          "ticks": 81794,
          "time": 117.25042096875,
          "velocity": 0.11811023622047244
        },
        {
          "duration": 0.5504580000000061,
          "durationTicks": 384,
          "midi": 63,
          "name": "D#4",
          "ticks": 81794,
          "time": 117.25042096875,
          "velocity": 0.11811023622047244
        },
        {
          "duration": 0.13761449999999797,
          "durationTicks": 96,
          "midi": 50,
          "name": "D3",
          "ticks": 81986,
          "time": 117.52564996875,
          "velocity": 0.11811023622047244
        },
        {
          "duration": 0.5504580000000061,
          "durationTicks": 384,
          "midi": 50,
          "name": "D3",
          "ticks": 81986,
          "time": 117.52564996875,
          "velocity": 0.11811023622047244
        },
        {
          "duration": 0.13761449999999797,
          "durationTicks": 96,
          "midi": 54,
          "name": "F#3",
          "ticks": 81986,
          "time": 117.52564996875,
          "velocity": 0.11811023622047244
        },
        {
          "duration": 0.13761449999999797,
          "durationTicks": 96,
          "midi": 62,
          "name": "D4",
          "ticks": 82178,
          "time": 117.80087896875001,
          "velocity": 0.11811023622047244
        },
        {
          "duration": 0.13761449999999797,
          "durationTicks": 96,
          "midi": 62,
          "name": "D4",
          "ticks": 82178,
          "time": 117.80087896875001,
          "velocity": 0.11811023622047244
        },
        {
          "duration": 0.13761449999999797,
          "durationTicks": 96,
          "midi": 57,
          "name": "A3",
          "ticks": 82178,
          "time": 117.80087896875001,
          "velocity": 0.11811023622047244
        },
        {
          "duration": 0.13761449999999797,
          "durationTicks": 96,
          "midi": 54,
          "name": "F#3",
          "ticks": 82178,
          "time": 117.80087896875001,
          "velocity": 0.11811023622047244
        },
        {
          "duration": 0.27522899999999595,
          "durationTicks": 192,
          "midi": 54,
          "name": "F#3",
          "ticks": 82178,
          "time": 117.80087896875001,
          "velocity": 0.11811023622047244
        },
        {
          "duration": 0.5504579999999919,
          "durationTicks": 384,
          "midi": 61,
          "name": "C#4",
          "ticks": 82370,
          "time": 118.07610796875001,
          "velocity": 0.11811023622047244
        },
        {
          "duration": 0.27522899999999595,
          "durationTicks": 192,
          "midi": 45,
          "name": "A2",
          "ticks": 82370,
          "time": 118.07610796875001,
          "velocity": 0.11811023622047244
        },
        {
          "duration": 0.5504579999999919,
          "durationTicks": 384,
          "midi": 61,
          "name": "C#4",
          "ticks": 82370,
          "time": 118.07610796875001,
          "velocity": 0.11811023622047244
        },
        {
          "duration": 0.8256870000000021,
          "durationTicks": 576,
          "midi": 45,
          "name": "A2",
          "ticks": 82370,
          "time": 118.07610796875001,
          "velocity": 0.11811023622047244
        },
        {
          "duration": 0.13761449999999797,
          "durationTicks": 96,
          "midi": 49,
          "name": "C#3",
          "ticks": 82562,
          "time": 118.35133696875,
          "velocity": 0.11811023622047244
        },
        {
          "duration": 0.5504580000000061,
          "durationTicks": 384,
          "midi": 49,
          "name": "C#3",
          "ticks": 82562,
          "time": 118.35133696875,
          "velocity": 0.11811023622047244
        },
        {
          "duration": 0.13761449999999797,
          "durationTicks": 96,
          "midi": 52,
          "name": "E3",
          "ticks": 82562,
          "time": 118.35133696875,
          "velocity": 0.11811023622047244
        },
        {
          "duration": 0.13761450000001219,
          "durationTicks": 96,
          "midi": 52,
          "name": "E3",
          "ticks": 82754,
          "time": 118.62656596875,
          "velocity": 0.11811023622047244
        },
        {
          "duration": 0.27522900000001016,
          "durationTicks": 192,
          "midi": 52,
          "name": "E3",
          "ticks": 82754,
          "time": 118.62656596875,
          "velocity": 0.11811023622047244
        },
        {
          "duration": 0.13761450000001219,
          "durationTicks": 96,
          "midi": 57,
          "name": "A3",
          "ticks": 82754,
          "time": 118.62656596875,
          "velocity": 0.11811023622047244
        },
        {
          "duration": 0.13761450000001219,
          "durationTicks": 96,
          "midi": 62,
          "name": "D4",
          "ticks": 82754,
          "time": 118.62656596875,
          "velocity": 0.11811023622047244
        },
        {
          "duration": 0.13761450000001219,
          "durationTicks": 96,
          "midi": 62,
          "name": "D4",
          "ticks": 82754,
          "time": 118.62656596875,
          "velocity": 0.11811023622047244
        },
        {
          "duration": 0.27522899999999595,
          "durationTicks": 192,
          "midi": 43,
          "name": "G2",
          "ticks": 82946,
          "time": 118.90179496875001,
          "velocity": 0.11811023622047244
        },
        {
          "duration": 0.8256870000000021,
          "durationTicks": 576,
          "midi": 57,
          "name": "A3",
          "ticks": 82946,
          "time": 118.90179496875001,
          "velocity": 0.11811023622047244
        },
        {
          "duration": 0.13761449999999797,
          "durationTicks": 96,
          "midi": 54,
          "name": "F#3",
          "ticks": 82946,
          "time": 118.90179496875001,
          "velocity": 0.11811023622047244
        },
        {
          "duration": 0.8256870000000021,
          "durationTicks": 576,
          "midi": 57,
          "name": "A3",
          "ticks": 82946,
          "time": 118.90179496875001,
          "velocity": 0.11811023622047244
        },
        {
          "duration": 0.13761449999999797,
          "durationTicks": 96,
          "midi": 47,
          "name": "B2",
          "ticks": 83042,
          "time": 119.03940946875001,
          "velocity": 0.11811023622047244
        },
        {
          "duration": 0.13761449999999797,
          "durationTicks": 96,
          "midi": 47,
          "name": "B2",
          "ticks": 83138,
          "time": 119.17702396875,
          "velocity": 0.11811023622047244
        },
        {
          "duration": 0.13761449999999797,
          "durationTicks": 96,
          "midi": 50,
          "name": "D3",
          "ticks": 83138,
          "time": 119.17702396875,
          "velocity": 0.11811023622047244
        },
        {
          "duration": 0.13761449999999797,
          "durationTicks": 96,
          "midi": 54,
          "name": "F#3",
          "ticks": 83138,
          "time": 119.17702396875,
          "velocity": 0.11811023622047244
        },
        {
          "duration": 0.13761449999999797,
          "durationTicks": 96,
          "midi": 47,
          "name": "B2",
          "ticks": 83234,
          "time": 119.31463846875,
          "velocity": 0.11811023622047244
        },
        {
          "duration": 0.13761449999999797,
          "durationTicks": 96,
          "midi": 50,
          "name": "D3",
          "ticks": 83330,
          "time": 119.45225296875,
          "velocity": 0.11811023622047244
        },
        {
          "duration": 0.13761449999999797,
          "durationTicks": 96,
          "midi": 54,
          "name": "F#3",
          "ticks": 83330,
          "time": 119.45225296875,
          "velocity": 0.11811023622047244
        },
        {
          "duration": 0.13761449999999797,
          "durationTicks": 96,
          "midi": 47,
          "name": "B2",
          "ticks": 83330,
          "time": 119.45225296875,
          "velocity": 0.11811023622047244
        },
        {
          "duration": 0.13761450000001219,
          "durationTicks": 96,
          "midi": 47,
          "name": "B2",
          "ticks": 83426,
          "time": 119.58986746875,
          "velocity": 0.11811023622047244
        },
        {
          "duration": 0.5504579999999919,
          "durationTicks": 384,
          "midi": 69,
          "name": "A4",
          "ticks": 83522,
          "time": 119.72748196875001,
          "velocity": 0.11811023622047244
        },
        {
          "duration": 0.5504579999999919,
          "durationTicks": 384,
          "midi": 69,
          "name": "A4",
          "ticks": 83522,
          "time": 119.72748196875001,
          "velocity": 0.11811023622047244
        },
        {
          "duration": 0.13761449999999797,
          "durationTicks": 96,
          "midi": 54,
          "name": "F#3",
          "ticks": 83522,
          "time": 119.72748196875001,
          "velocity": 0.11811023622047244
        },
        {
          "duration": 0.27522899999999595,
          "durationTicks": 192,
          "midi": 43,
          "name": "G2",
          "ticks": 83522,
          "time": 119.72748196875001,
          "velocity": 0.11811023622047244
        },
        {
          "duration": 0.13761449999999797,
          "durationTicks": 96,
          "midi": 47,
          "name": "B2",
          "ticks": 83618,
          "time": 119.86509646875001,
          "velocity": 0.11811023622047244
        },
        {
          "duration": 0.13761449999999797,
          "durationTicks": 96,
          "midi": 50,
          "name": "D3",
          "ticks": 83714,
          "time": 120.00271096875001,
          "velocity": 0.11811023622047244
        },
        {
          "duration": 0.13761449999999797,
          "durationTicks": 96,
          "midi": 54,
          "name": "F#3",
          "ticks": 83714,
          "time": 120.00271096875001,
          "velocity": 0.11811023622047244
        },
        {
          "duration": 0.13761449999999797,
          "durationTicks": 96,
          "midi": 47,
          "name": "B2",
          "ticks": 83714,
          "time": 120.00271096875001,
          "velocity": 0.11811023622047244
        },
        {
          "duration": 0.13761449999999797,
          "durationTicks": 96,
          "midi": 47,
          "name": "B2",
          "ticks": 83810,
          "time": 120.14032546875,
          "velocity": 0.11811023622047244
        },
        {
          "duration": 0.27522899999999595,
          "durationTicks": 192,
          "midi": 66,
          "name": "F#4",
          "ticks": 83906,
          "time": 120.27793996875,
          "velocity": 0.11811023622047244
        },
        {
          "duration": 0.13761449999999797,
          "durationTicks": 96,
          "midi": 54,
          "name": "F#3",
          "ticks": 83906,
          "time": 120.27793996875,
          "velocity": 0.11811023622047244
        },
        {
          "duration": 0.27522899999999595,
          "durationTicks": 192,
          "midi": 66,
          "name": "F#4",
          "ticks": 83906,
          "time": 120.27793996875,
          "velocity": 0.11811023622047244
        },
        {
          "duration": 0.13761449999999797,
          "durationTicks": 96,
          "midi": 50,
          "name": "D3",
          "ticks": 83906,
          "time": 120.27793996875,
          "velocity": 0.11811023622047244
        },
        {
          "duration": 0.13761449999999797,
          "durationTicks": 96,
          "midi": 47,
          "name": "B2",
          "ticks": 83906,
          "time": 120.27793996875,
          "velocity": 0.11811023622047244
        },
        {
          "duration": 0.13761449999999797,
          "durationTicks": 96,
          "midi": 47,
          "name": "B2",
          "ticks": 84002,
          "time": 120.41555446875,
          "velocity": 0.11811023622047244
        },
        {
          "duration": 0.13761450000001219,
          "durationTicks": 96,
          "midi": 54,
          "name": "F#3",
          "ticks": 84098,
          "time": 120.55316896875,
          "velocity": 0.11811023622047244
        },
        {
          "duration": 0.27522900000001016,
          "durationTicks": 192,
          "midi": 43,
          "name": "G2",
          "ticks": 84098,
          "time": 120.55316896875,
          "velocity": 0.11811023622047244
        },
        {
          "duration": 0.5504580000000061,
          "durationTicks": 384,
          "midi": 64,
          "name": "E4",
          "ticks": 84098,
          "time": 120.55316896875,
          "velocity": 0.11811023622047244
        },
        {
          "duration": 0.5504580000000061,
          "durationTicks": 384,
          "midi": 64,
          "name": "E4",
          "ticks": 84098,
          "time": 120.55316896875,
          "velocity": 0.11811023622047244
        },
        {
          "duration": 0.13761449999999797,
          "durationTicks": 96,
          "midi": 47,
          "name": "B2",
          "ticks": 84194,
          "time": 120.69078346875001,
          "velocity": 0.11811023622047244
        },
        {
          "duration": 0.13761449999999797,
          "durationTicks": 96,
          "midi": 47,
          "name": "B2",
          "ticks": 84290,
          "time": 120.82839796875001,
          "velocity": 0.11811023622047244
        },
        {
          "duration": 0.13761449999999797,
          "durationTicks": 96,
          "midi": 50,
          "name": "D3",
          "ticks": 84290,
          "time": 120.82839796875001,
          "velocity": 0.11811023622047244
        },
        {
          "duration": 0.13761449999999797,
          "durationTicks": 96,
          "midi": 54,
          "name": "F#3",
          "ticks": 84290,
          "time": 120.82839796875001,
          "velocity": 0.11811023622047244
        },
        {
          "duration": 0.13761449999999797,
          "durationTicks": 96,
          "midi": 47,
          "name": "B2",
          "ticks": 84386,
          "time": 120.96601246875001,
          "velocity": 0.11811023622047244
        },
        {
          "duration": 0.27522899999999595,
          "durationTicks": 192,
          "midi": 62,
          "name": "D4",
          "ticks": 84482,
          "time": 121.10362696875,
          "velocity": 0.11811023622047244
        },
        {
          "duration": 0.13761449999999797,
          "durationTicks": 96,
          "midi": 50,
          "name": "D3",
          "ticks": 84482,
          "time": 121.10362696875,
          "velocity": 0.11811023622047244
        },
        {
          "duration": 0.13761449999999797,
          "durationTicks": 96,
          "midi": 54,
          "name": "F#3",
          "ticks": 84482,
          "time": 121.10362696875,
          "velocity": 0.11811023622047244
        },
        {
          "duration": 0.13761449999999797,
          "durationTicks": 96,
          "midi": 47,
          "name": "B2",
          "ticks": 84482,
          "time": 121.10362696875,
          "velocity": 0.11811023622047244
        },
        {
          "duration": 0.27522899999999595,
          "durationTicks": 192,
          "midi": 62,
          "name": "D4",
          "ticks": 84482,
          "time": 121.10362696875,
          "velocity": 0.11811023622047244
        },
        {
          "duration": 0.13761449999999797,
          "durationTicks": 96,
          "midi": 47,
          "name": "B2",
          "ticks": 84578,
          "time": 121.24124146875,
          "velocity": 0.11811023622047244
        },
        {
          "duration": 0.13761449999999797,
          "durationTicks": 96,
          "midi": 54,
          "name": "F#3",
          "ticks": 84674,
          "time": 121.37885596875,
          "velocity": 0.11811023622047244
        },
        {
          "duration": 0.27522900000001016,
          "durationTicks": 192,
          "midi": 43,
          "name": "G2",
          "ticks": 84674,
          "time": 121.37885596875,
          "velocity": 0.11811023622047244
        },
        {
          "duration": 0.5504580000000061,
          "durationTicks": 384,
          "midi": 61,
          "name": "C#4",
          "ticks": 84674,
          "time": 121.37885596875,
          "velocity": 0.11811023622047244
        },
        {
          "duration": 0.5504580000000061,
          "durationTicks": 384,
          "midi": 61,
          "name": "C#4",
          "ticks": 84674,
          "time": 121.37885596875,
          "velocity": 0.11811023622047244
        },
        {
          "duration": 0.13761450000001219,
          "durationTicks": 96,
          "midi": 47,
          "name": "B2",
          "ticks": 84770,
          "time": 121.51647046875,
          "velocity": 0.11811023622047244
        },
        {
          "duration": 0.13761449999999797,
          "durationTicks": 96,
          "midi": 50,
          "name": "D3",
          "ticks": 84866,
          "time": 121.65408496875001,
          "velocity": 0.11811023622047244
        },
        {
          "duration": 0.13761449999999797,
          "durationTicks": 96,
          "midi": 47,
          "name": "B2",
          "ticks": 84866,
          "time": 121.65408496875001,
          "velocity": 0.11811023622047244
        },
        {
          "duration": 0.13761449999999797,
          "durationTicks": 96,
          "midi": 54,
          "name": "F#3",
          "ticks": 84866,
          "time": 121.65408496875001,
          "velocity": 0.11811023622047244
        },
        {
          "duration": 0.13761449999999797,
          "durationTicks": 96,
          "midi": 47,
          "name": "B2",
          "ticks": 84962,
          "time": 121.79169946875001,
          "velocity": 0.11811023622047244
        },
        {
          "duration": 0.13761449999999797,
          "durationTicks": 96,
          "midi": 50,
          "name": "D3",
          "ticks": 85058,
          "time": 121.92931396875001,
          "velocity": 0.11811023622047244
        },
        {
          "duration": 0.13761449999999797,
          "durationTicks": 96,
          "midi": 47,
          "name": "B2",
          "ticks": 85058,
          "time": 121.92931396875001,
          "velocity": 0.11811023622047244
        },
        {
          "duration": 0.27522899999999595,
          "durationTicks": 192,
          "midi": 62,
          "name": "D4",
          "ticks": 85058,
          "time": 121.92931396875001,
          "velocity": 0.11811023622047244
        },
        {
          "duration": 0.13761449999999797,
          "durationTicks": 96,
          "midi": 54,
          "name": "F#3",
          "ticks": 85058,
          "time": 121.92931396875001,
          "velocity": 0.11811023622047244
        },
        {
          "duration": 0.27522899999999595,
          "durationTicks": 192,
          "midi": 62,
          "name": "D4",
          "ticks": 85058,
          "time": 121.92931396875001,
          "velocity": 0.11811023622047244
        },
        {
          "duration": 0.13761449999999797,
          "durationTicks": 96,
          "midi": 47,
          "name": "B2",
          "ticks": 85154,
          "time": 122.06692846875,
          "velocity": 0.11811023622047244
        },
        {
          "duration": 0.13761449999999797,
          "durationTicks": 96,
          "midi": 47,
          "name": "B2",
          "ticks": 85154,
          "time": 122.06692846875,
          "velocity": 0.11811023622047244
        },
        {
          "duration": 0.13761449999999797,
          "durationTicks": 96,
          "midi": 50,
          "name": "D3",
          "ticks": 85186,
          "time": 122.11279996875,
          "velocity": 0.11811023622047244
        },
        {
          "duration": 0.6880725000000041,
          "durationTicks": 480,
          "midi": 64,
          "name": "E4",
          "ticks": 85250,
          "time": 122.20454296875,
          "velocity": 0.11811023622047244
        },
        {
          "duration": 0.6880725000000041,
          "durationTicks": 480,
          "midi": 57,
          "name": "A3",
          "ticks": 85250,
          "time": 122.20454296875,
          "velocity": 0.11811023622047244
        },
        {
          "duration": 0.6880725000000041,
          "durationTicks": 480,
          "midi": 64,
          "name": "E4",
          "ticks": 85250,
          "time": 122.20454296875,
          "velocity": 0.11811023622047244
        },
        {
          "duration": 0.27522899999999595,
          "durationTicks": 192,
          "midi": 42,
          "name": "F#2",
          "ticks": 85250,
          "time": 122.20454296875,
          "velocity": 0.11811023622047244
        },
        {
          "duration": 0.13761449999999797,
          "durationTicks": 96,
          "midi": 52,
          "name": "E3",
          "ticks": 85250,
          "time": 122.20454296875,
          "velocity": 0.11811023622047244
        },
        {
          "duration": 0.13761449999999797,
          "durationTicks": 96,
          "midi": 45,
          "name": "A2",
          "ticks": 85346,
          "time": 122.34215746875,
          "velocity": 0.11811023622047244
        },
        {
          "duration": 0.13761450000001219,
          "durationTicks": 96,
          "midi": 49,
          "name": "C#3",
          "ticks": 85442,
          "time": 122.47977196875,
          "velocity": 0.11811023622047244
        },
        {
          "duration": 0.13761450000001219,
          "durationTicks": 96,
          "midi": 45,
          "name": "A2",
          "ticks": 85442,
          "time": 122.47977196875,
          "velocity": 0.11811023622047244
        },
        {
          "duration": 0.13761450000001219,
          "durationTicks": 96,
          "midi": 52,
          "name": "E3",
          "ticks": 85442,
          "time": 122.47977196875,
          "velocity": 0.11811023622047244
        },
        {
          "duration": 0.13761449999999797,
          "durationTicks": 96,
          "midi": 45,
          "name": "A2",
          "ticks": 85538,
          "time": 122.61738646875001,
          "velocity": 0.11811023622047244
        },
        {
          "duration": 0.13761449999999797,
          "durationTicks": 96,
          "midi": 52,
          "name": "E3",
          "ticks": 85634,
          "time": 122.75500096875001,
          "velocity": 0.11811023622047244
        },
        {
          "duration": 0.13761449999999797,
          "durationTicks": 96,
          "midi": 49,
          "name": "C#3",
          "ticks": 85634,
          "time": 122.75500096875001,
          "velocity": 0.11811023622047244
        },
        {
          "duration": 0.13761449999999797,
          "durationTicks": 96,
          "midi": 45,
          "name": "A2",
          "ticks": 85634,
          "time": 122.75500096875001,
          "velocity": 0.11811023622047244
        },
        {
          "duration": 0.13761449999999797,
          "durationTicks": 96,
          "midi": 71,
          "name": "B4",
          "ticks": 85730,
          "time": 122.89261546875001,
          "velocity": 0.11811023622047244
        },
        {
          "duration": 0.13761449999999797,
          "durationTicks": 96,
          "midi": 45,
          "name": "A2",
          "ticks": 85730,
          "time": 122.89261546875001,
          "velocity": 0.11811023622047244
        },
        {
          "duration": 0.13761449999999797,
          "durationTicks": 96,
          "midi": 71,
          "name": "B4",
          "ticks": 85730,
          "time": 122.89261546875001,
          "velocity": 0.11811023622047244
        },
        {
          "duration": 0.13761450000001219,
          "durationTicks": 96,
          "midi": 72,
          "name": "C5",
          "ticks": 85778,
          "time": 122.96142271875,
          "velocity": 0.11811023622047244
        },
        {
          "duration": 0.13761450000001219,
          "durationTicks": 96,
          "midi": 72,
          "name": "C5",
          "ticks": 85778,
          "time": 122.96142271875,
          "velocity": 0.11811023622047244
        },
        {
          "duration": 0.13761449999999797,
          "durationTicks": 96,
          "midi": 73,
          "name": "C#5",
          "ticks": 85826,
          "time": 123.03022996875,
          "velocity": 0.11811023622047244
        },
        {
          "duration": 0.13761449999999797,
          "durationTicks": 96,
          "midi": 57,
          "name": "A3",
          "ticks": 85826,
          "time": 123.03022996875,
          "velocity": 0.11811023622047244
        },
        {
          "duration": 0.13761449999999797,
          "durationTicks": 96,
          "midi": 52,
          "name": "E3",
          "ticks": 85826,
          "time": 123.03022996875,
          "velocity": 0.11811023622047244
        },
        {
          "duration": 0.27522899999999595,
          "durationTicks": 192,
          "midi": 42,
          "name": "F#2",
          "ticks": 85826,
          "time": 123.03022996875,
          "velocity": 0.11811023622047244
        },
        {
          "duration": 0.13761449999999797,
          "durationTicks": 96,
          "midi": 73,
          "name": "C#5",
          "ticks": 85826,
          "time": 123.03022996875,
          "velocity": 0.11811023622047244
        },
        {
          "duration": 0.13761449999999797,
          "durationTicks": 96,
          "midi": 45,
          "name": "A2",
          "ticks": 85922,
          "time": 123.16784446875,
          "velocity": 0.11811023622047244
        },
        {
          "duration": 0.13761449999999797,
          "durationTicks": 96,
          "midi": 59,
          "name": "B3",
          "ticks": 86018,
          "time": 123.30545896875,
          "velocity": 0.11811023622047244
        },
        {
          "duration": 0.13761449999999797,
          "durationTicks": 96,
          "midi": 49,
          "name": "C#3",
          "ticks": 86018,
          "time": 123.30545896875,
          "velocity": 0.11811023622047244
        },
        {
          "duration": 0.13761449999999797,
          "durationTicks": 96,
          "midi": 45,
          "name": "A2",
          "ticks": 86018,
          "time": 123.30545896875,
          "velocity": 0.11811023622047244
        },
        {
          "duration": 0.13761449999999797,
          "durationTicks": 96,
          "midi": 72,
          "name": "C5",
          "ticks": 86018,
          "time": 123.30545896875,
          "velocity": 0.11811023622047244
        },
        {
          "duration": 0.13761449999999797,
          "durationTicks": 96,
          "midi": 52,
          "name": "E3",
          "ticks": 86018,
          "time": 123.30545896875,
          "velocity": 0.11811023622047244
        },
        {
          "duration": 0.13761449999999797,
          "durationTicks": 96,
          "midi": 72,
          "name": "C5",
          "ticks": 86018,
          "time": 123.30545896875,
          "velocity": 0.11811023622047244
        },
        {
          "duration": 0.13761450000001219,
          "durationTicks": 96,
          "midi": 45,
          "name": "A2",
          "ticks": 86114,
          "time": 123.44307346875,
          "velocity": 0.11811023622047244
        },
        {
          "duration": 0.13761449999999797,
          "durationTicks": 96,
          "midi": 71,
          "name": "B4",
          "ticks": 86210,
          "time": 123.58068796875001,
          "velocity": 0.11811023622047244
        },
        {
          "duration": 0.13761449999999797,
          "durationTicks": 96,
          "midi": 52,
          "name": "E3",
          "ticks": 86210,
          "time": 123.58068796875001,
          "velocity": 0.11811023622047244
        },
        {
          "duration": 0.13761449999999797,
          "durationTicks": 96,
          "midi": 45,
          "name": "A2",
          "ticks": 86210,
          "time": 123.58068796875001,
          "velocity": 0.11811023622047244
        },
        {
          "duration": 0.13761449999999797,
          "durationTicks": 96,
          "midi": 60,
          "name": "C4",
          "ticks": 86210,
          "time": 123.58068796875001,
          "velocity": 0.11811023622047244
        },
        {
          "duration": 0.13761449999999797,
          "durationTicks": 96,
          "midi": 49,
          "name": "C#3",
          "ticks": 86210,
          "time": 123.58068796875001,
          "velocity": 0.11811023622047244
        },
        {
          "duration": 0.13761449999999797,
          "durationTicks": 96,
          "midi": 71,
          "name": "B4",
          "ticks": 86210,
          "time": 123.58068796875001,
          "velocity": 0.11811023622047244
        },
        {
          "duration": 0.13761449999999797,
          "durationTicks": 96,
          "midi": 45,
          "name": "A2",
          "ticks": 86306,
          "time": 123.71830246875001,
          "velocity": 0.11811023622047244
        },
        {
          "duration": 1.6513740000000041,
          "durationTicks": 1152,
          "midi": 69,
          "name": "A4",
          "ticks": 86402,
          "time": 123.85591696875001,
          "velocity": 0.11811023622047244
        },
        {
          "duration": 1.6513740000000041,
          "durationTicks": 1152,
          "midi": 69,
          "name": "A4",
          "ticks": 86402,
          "time": 123.85591696875001,
          "velocity": 0.11811023622047244
        },
        {
          "duration": 0.13761449999999797,
          "durationTicks": 96,
          "midi": 52,
          "name": "E3",
          "ticks": 86402,
          "time": 123.85591696875001,
          "velocity": 0.11811023622047244
        },
        {
          "duration": 0.27522899999999595,
          "durationTicks": 192,
          "midi": 42,
          "name": "F#2",
          "ticks": 86402,
          "time": 123.85591696875001,
          "velocity": 0.11811023622047244
        },
        {
          "duration": 1.6513740000000041,
          "durationTicks": 1152,
          "midi": 61,
          "name": "C#4",
          "ticks": 86402,
          "time": 123.85591696875001,
          "velocity": 0.11811023622047244
        },
        {
          "duration": 0.13761449999999797,
          "durationTicks": 96,
          "midi": 45,
          "name": "A2",
          "ticks": 86498,
          "time": 123.99353146875,
          "velocity": 0.11811023622047244
        },
        {
          "duration": 0.13761449999999797,
          "durationTicks": 96,
          "midi": 45,
          "name": "A2",
          "ticks": 86594,
          "time": 124.13114596875,
          "velocity": 0.11811023622047244
        },
        {
          "duration": 0.13761449999999797,
          "durationTicks": 96,
          "midi": 52,
          "name": "E3",
          "ticks": 86594,
          "time": 124.13114596875,
          "velocity": 0.11811023622047244
        },
        {
          "duration": 0.13761449999999797,
          "durationTicks": 96,
          "midi": 49,
          "name": "C#3",
          "ticks": 86594,
          "time": 124.13114596875,
          "velocity": 0.11811023622047244
        },
        {
          "duration": 0.13761449999999797,
          "durationTicks": 96,
          "midi": 45,
          "name": "A2",
          "ticks": 86690,
          "time": 124.26876046875,
          "velocity": 0.11811023622047244
        },
        {
          "duration": 0.13761450000001219,
          "durationTicks": 96,
          "midi": 45,
          "name": "A2",
          "ticks": 86786,
          "time": 124.40637496875,
          "velocity": 0.11811023622047244
        },
        {
          "duration": 0.13761450000001219,
          "durationTicks": 96,
          "midi": 49,
          "name": "C#3",
          "ticks": 86786,
          "time": 124.40637496875,
          "velocity": 0.11811023622047244
        },
        {
          "duration": 0.13761450000001219,
          "durationTicks": 96,
          "midi": 52,
          "name": "E3",
          "ticks": 86786,
          "time": 124.40637496875,
          "velocity": 0.11811023622047244
        },
        {
          "duration": 0.13761449999999797,
          "durationTicks": 96,
          "midi": 45,
          "name": "A2",
          "ticks": 86882,
          "time": 124.54398946875001,
          "velocity": 0.11811023622047244
        },
        {
          "duration": 0.13761449999999797,
          "durationTicks": 96,
          "midi": 52,
          "name": "E3",
          "ticks": 86978,
          "time": 124.68160396875001,
          "velocity": 0.11811023622047244
        },
        {
          "duration": 0.27522899999999595,
          "durationTicks": 192,
          "midi": 42,
          "name": "F#2",
          "ticks": 86978,
          "time": 124.68160396875001,
          "velocity": 0.11811023622047244
        },
        {
          "duration": 0.13761449999999797,
          "durationTicks": 96,
          "midi": 45,
          "name": "A2",
          "ticks": 87074,
          "time": 124.81921846875001,
          "velocity": 0.11811023622047244
        },
        {
          "duration": 0.13761449999999797,
          "durationTicks": 96,
          "midi": 52,
          "name": "E3",
          "ticks": 87170,
          "time": 124.95683296875,
          "velocity": 0.11811023622047244
        },
        {
          "duration": 0.13761449999999797,
          "durationTicks": 96,
          "midi": 49,
          "name": "C#3",
          "ticks": 87170,
          "time": 124.95683296875,
          "velocity": 0.11811023622047244
        },
        {
          "duration": 0.13761449999999797,
          "durationTicks": 96,
          "midi": 45,
          "name": "A2",
          "ticks": 87170,
          "time": 124.95683296875,
          "velocity": 0.11811023622047244
        },
        {
          "duration": 0.13761449999999797,
          "durationTicks": 96,
          "midi": 45,
          "name": "A2",
          "ticks": 87266,
          "time": 125.09444746875,
          "velocity": 0.11811023622047244
        },
        {
          "duration": 0.13761449999999797,
          "durationTicks": 96,
          "midi": 45,
          "name": "A2",
          "ticks": 87362,
          "time": 125.23206196875,
          "velocity": 0.11811023622047244
        },
        {
          "duration": 0.13761449999999797,
          "durationTicks": 96,
          "midi": 52,
          "name": "E3",
          "ticks": 87362,
          "time": 125.23206196875,
          "velocity": 0.11811023622047244
        },
        {
          "duration": 0.13761449999999797,
          "durationTicks": 96,
          "midi": 49,
          "name": "C#3",
          "ticks": 87362,
          "time": 125.23206196875,
          "velocity": 0.11811023622047244
        },
        {
          "duration": 0.13761450000001219,
          "durationTicks": 96,
          "midi": 45,
          "name": "A2",
          "ticks": 87458,
          "time": 125.36967646875,
          "velocity": 0.11811023622047244
        },
        {
          "duration": 0.13761450000001219,
          "durationTicks": 96,
          "midi": 45,
          "name": "A2",
          "ticks": 87458,
          "time": 125.36967646875,
          "velocity": 0.11811023622047244
        },
        {
          "duration": 0.8256869999999878,
          "durationTicks": 576,
          "midi": 59,
          "name": "B3",
          "ticks": 87554,
          "time": 125.50729096875001,
          "velocity": 0.11811023622047244
        },
        {
          "duration": 0.13761449999999797,
          "durationTicks": 96,
          "midi": 47,
          "name": "B2",
          "ticks": 87554,
          "time": 125.50729096875001,
          "velocity": 0.11811023622047244
        },
        {
          "duration": 0.27522899999999595,
          "durationTicks": 192,
          "midi": 40,
          "name": "E2",
          "ticks": 87554,
          "time": 125.50729096875001,
          "velocity": 0.11811023622047244
        },
        {
          "duration": 0.8256869999999878,
          "durationTicks": 576,
          "midi": 59,
          "name": "B3",
          "ticks": 87554,
          "time": 125.50729096875001,
          "velocity": 0.11811023622047244
        },
        {
          "duration": 0.13761449999999797,
          "durationTicks": 96,
          "midi": 43,
          "name": "G2",
          "ticks": 87650,
          "time": 125.64490546875001,
          "velocity": 0.11811023622047244
        },
        {
          "duration": 0.13761449999999797,
          "durationTicks": 96,
          "midi": 47,
          "name": "B2",
          "ticks": 87746,
          "time": 125.78251996875001,
          "velocity": 0.11811023622047244
        },
        {
          "duration": 0.13761449999999797,
          "durationTicks": 96,
          "midi": 43,
          "name": "G2",
          "ticks": 87746,
          "time": 125.78251996875001,
          "velocity": 0.11811023622047244
        },
        {
          "duration": 0.13761449999999797,
          "durationTicks": 96,
          "midi": 47,
          "name": "B2",
          "ticks": 87746,
          "time": 125.78251996875001,
          "velocity": 0.11811023622047244
        },
        {
          "duration": 0.13761449999999797,
          "durationTicks": 96,
          "midi": 43,
          "name": "G2",
          "ticks": 87842,
          "time": 125.92013446875,
          "velocity": 0.11811023622047244
        },
        {
          "duration": 0.13761449999999797,
          "durationTicks": 96,
          "midi": 47,
          "name": "B2",
          "ticks": 87938,
          "time": 126.05774896875,
          "velocity": 0.11811023622047244
        },
        {
          "duration": 0.13761449999999797,
          "durationTicks": 96,
          "midi": 47,
          "name": "B2",
          "ticks": 87938,
          "time": 126.05774896875,
          "velocity": 0.11811023622047244
        },
        {
          "duration": 0.13761449999999797,
          "durationTicks": 96,
          "midi": 43,
          "name": "G2",
          "ticks": 87938,
          "time": 126.05774896875,
          "velocity": 0.11811023622047244
        },
        {
          "duration": 0.13761449999999797,
          "durationTicks": 96,
          "midi": 43,
          "name": "G2",
          "ticks": 88034,
          "time": 126.19536346875,
          "velocity": 0.11811023622047244
        },
        {
          "duration": 0.5504580000000061,
          "durationTicks": 384,
          "midi": 69,
          "name": "A4",
          "ticks": 88130,
          "time": 126.33297796875,
          "velocity": 0.11811023622047244
        },
        {
          "duration": 0.5504580000000061,
          "durationTicks": 384,
          "midi": 69,
          "name": "A4",
          "ticks": 88130,
          "time": 126.33297796875,
          "velocity": 0.11811023622047244
        },
        {
          "duration": 0.27522900000001016,
          "durationTicks": 192,
          "midi": 40,
          "name": "E2",
          "ticks": 88130,
          "time": 126.33297796875,
          "velocity": 0.11811023622047244
        },
        {
          "duration": 0.13761450000001219,
          "durationTicks": 96,
          "midi": 47,
          "name": "B2",
          "ticks": 88130,
          "time": 126.33297796875,
          "velocity": 0.11811023622047244
        },
        {
          "duration": 0.13761449999999797,
          "durationTicks": 96,
          "midi": 43,
          "name": "G2",
          "ticks": 88226,
          "time": 126.47059246875001,
          "velocity": 0.11811023622047244
        },
        {
          "duration": 0.13761449999999797,
          "durationTicks": 96,
          "midi": 47,
          "name": "B2",
          "ticks": 88322,
          "time": 126.60820696875001,
          "velocity": 0.11811023622047244
        },
        {
          "duration": 0.13761449999999797,
          "durationTicks": 96,
          "midi": 47,
          "name": "B2",
          "ticks": 88322,
          "time": 126.60820696875001,
          "velocity": 0.11811023622047244
        },
        {
          "duration": 0.13761449999999797,
          "durationTicks": 96,
          "midi": 43,
          "name": "G2",
          "ticks": 88322,
          "time": 126.60820696875001,
          "velocity": 0.11811023622047244
        },
        {
          "duration": 0.13761449999999797,
          "durationTicks": 96,
          "midi": 43,
          "name": "G2",
          "ticks": 88418,
          "time": 126.74582146875001,
          "velocity": 0.11811023622047244
        },
        {
          "duration": 0.27522899999999595,
          "durationTicks": 192,
          "midi": 66,
          "name": "F#4",
          "ticks": 88514,
          "time": 126.88343596875,
          "velocity": 0.11811023622047244
        },
        {
          "duration": 0.13761449999999797,
          "durationTicks": 96,
          "midi": 43,
          "name": "G2",
          "ticks": 88514,
          "time": 126.88343596875,
          "velocity": 0.11811023622047244
        },
        {
          "duration": 0.13761449999999797,
          "durationTicks": 96,
          "midi": 47,
          "name": "B2",
          "ticks": 88514,
          "time": 126.88343596875,
          "velocity": 0.11811023622047244
        },
        {
          "duration": 0.13761449999999797,
          "durationTicks": 96,
          "midi": 47,
          "name": "B2",
          "ticks": 88514,
          "time": 126.88343596875,
          "velocity": 0.11811023622047244
        },
        {
          "duration": 0.27522899999999595,
          "durationTicks": 192,
          "midi": 66,
          "name": "F#4",
          "ticks": 88514,
          "time": 126.88343596875,
          "velocity": 0.11811023622047244
        },
        {
          "duration": 0.6880725000000041,
          "durationTicks": 480,
          "midi": 66,
          "name": "F#4",
          "ticks": 88514,
          "time": 126.88343596875,
          "velocity": 0.11811023622047244
        },
        {
          "duration": 0.13761449999999797,
          "durationTicks": 96,
          "midi": 43,
          "name": "G2",
          "ticks": 88610,
          "time": 127.02105046875,
          "velocity": 0.11811023622047244
        },
        {
          "duration": 0.13761449999999797,
          "durationTicks": 96,
          "midi": 43,
          "name": "G2",
          "ticks": 88610,
          "time": 127.02105046875,
          "velocity": 0.11811023622047244
        },
        {
          "duration": 0.13761449999999797,
          "durationTicks": 96,
          "midi": 52,
          "name": "E3",
          "ticks": 88706,
          "time": 127.15866496875,
          "velocity": 0.11811023622047244
        },
        {
          "duration": 0.41284350000000813,
          "durationTicks": 288,
          "midi": 64,
          "name": "E4",
          "ticks": 88706,
          "time": 127.15866496875,
          "velocity": 0.11811023622047244
        },
        {
          "duration": 0.5060199843749871,
          "durationTicks": 353,
          "midi": 64,
          "name": "E4",
          "ticks": 88706,
          "time": 127.15866496875,
          "velocity": 0.11811023622047244
        },
        {
          "duration": 0.13761450000001219,
          "durationTicks": 96,
          "midi": 45,
          "name": "A2",
          "ticks": 88802,
          "time": 127.29627946875,
          "velocity": 0.11811023622047244
        },
        {
          "duration": 0.13761450000001219,
          "durationTicks": 96,
          "midi": 45,
          "name": "A2",
          "ticks": 88802,
          "time": 127.29627946875,
          "velocity": 0.11811023622047244
        },
        {
          "duration": 0.13761449999999797,
          "durationTicks": 96,
          "midi": 52,
          "name": "E3",
          "ticks": 88898,
          "time": 127.43389396875001,
          "velocity": 0.11811023622047244
        },
        {
          "duration": 0.13761449999999797,
          "durationTicks": 96,
          "midi": 52,
          "name": "E3",
          "ticks": 88898,
          "time": 127.43389396875001,
          "velocity": 0.11811023622047244
        },
        {
          "duration": 0.13761449999999797,
          "durationTicks": 96,
          "midi": 49,
          "name": "C#3",
          "ticks": 88898,
          "time": 127.43389396875001,
          "velocity": 0.11811023622047244
        },
        {
          "duration": 0.13761449999999797,
          "durationTicks": 96,
          "midi": 45,
          "name": "A2",
          "ticks": 88994,
          "time": 127.57150846875001,
          "velocity": 0.11811023622047244
        },
        {
          "duration": 0.044438015625019034,
          "durationTicks": 31,
          "midi": 64,
          "name": "E4",
          "ticks": 89059,
          "time": 127.66468495312499,
          "velocity": 0.11811023622047244
        },
        {
          "duration": 0.27522900000001016,
          "durationTicks": 192,
          "midi": 62,
          "name": "D4",
          "ticks": 89091,
          "time": 127.710556453125,
          "velocity": 0.11811023622047244
        },
        {
          "duration": 0.27522900000001016,
          "durationTicks": 192,
          "midi": 62,
          "name": "D4",
          "ticks": 89091,
          "time": 127.710556453125,
          "velocity": 0.11811023622047244
        },
        {
          "duration": 0.13761450000001219,
          "durationTicks": 96,
          "midi": 52,
          "name": "E3",
          "ticks": 89091,
          "time": 127.710556453125,
          "velocity": 0.11811023622047244
        },
        {
          "duration": 0.13761450000001219,
          "durationTicks": 96,
          "midi": 52,
          "name": "E3",
          "ticks": 89091,
          "time": 127.710556453125,
          "velocity": 0.11811023622047244
        },
        {
          "duration": 0.13761450000001219,
          "durationTicks": 96,
          "midi": 49,
          "name": "C#3",
          "ticks": 89091,
          "time": 127.710556453125,
          "velocity": 0.11811023622047244
        },
        {
          "duration": 0.13761449999999797,
          "durationTicks": 96,
          "midi": 45,
          "name": "A2",
          "ticks": 89187,
          "time": 127.848170953125,
          "velocity": 0.11811023622047244
        },
        {
          "duration": 0.5504579999999919,
          "durationTicks": 384,
          "midi": 64,
          "name": "E4",
          "ticks": 89283,
          "time": 127.985785453125,
          "velocity": 0.11811023622047244
        },
        {
          "duration": 0.13761449999998376,
          "durationTicks": 96,
          "midi": 52,
          "name": "E3",
          "ticks": 89283,
          "time": 127.985785453125,
          "velocity": 0.11811023622047244
        },
        {
          "duration": 0.5504579999999919,
          "durationTicks": 384,
          "midi": 64,
          "name": "E4",
          "ticks": 89283,
          "time": 127.985785453125,
          "velocity": 0.11811023622047244
        },
        {
          "duration": 0.13761450000001219,
          "durationTicks": 96,
          "midi": 45,
          "name": "A2",
          "ticks": 89379,
          "time": 128.123399953125,
          "velocity": 0.11811023622047244
        },
        {
          "duration": 0.13761450000001219,
          "durationTicks": 96,
          "midi": 45,
          "name": "A2",
          "ticks": 89379,
          "time": 128.123399953125,
          "velocity": 0.11811023622047244
        },
        {
          "duration": 0.13761450000001219,
          "durationTicks": 96,
          "midi": 49,
          "name": "C#3",
          "ticks": 89475,
          "time": 128.261014453125,
          "velocity": 0.11811023622047244
        },
        {
          "duration": 0.13761450000001219,
          "durationTicks": 96,
          "midi": 52,
          "name": "E3",
          "ticks": 89475,
          "time": 128.261014453125,
          "velocity": 0.11811023622047244
        },
        {
          "duration": 0.13761450000001219,
          "durationTicks": 96,
          "midi": 52,
          "name": "E3",
          "ticks": 89475,
          "time": 128.261014453125,
          "velocity": 0.11811023622047244
        },
        {
          "duration": 0.13761449999998376,
          "durationTicks": 96,
          "midi": 45,
          "name": "A2",
          "ticks": 89571,
          "time": 128.398628953125,
          "velocity": 0.11811023622047244
        },
        {
          "duration": 0.13761450000001219,
          "durationTicks": 96,
          "midi": 52,
          "name": "E3",
          "ticks": 89667,
          "time": 128.536243453125,
          "velocity": 0.11811023622047244
        },
        {
          "duration": 0.13761450000001219,
          "durationTicks": 96,
          "midi": 52,
          "name": "E3",
          "ticks": 89667,
          "time": 128.536243453125,
          "velocity": 0.11811023622047244
        },
        {
          "duration": 0.27522899999999595,
          "durationTicks": 192,
          "midi": 66,
          "name": "F#4",
          "ticks": 89667,
          "time": 128.536243453125,
          "velocity": 0.11811023622047244
        },
        {
          "duration": 0.27522899999999595,
          "durationTicks": 192,
          "midi": 66,
          "name": "F#4",
          "ticks": 89667,
          "time": 128.536243453125,
          "velocity": 0.11811023622047244
        },
        {
          "duration": 0.13761450000001219,
          "durationTicks": 96,
          "midi": 49,
          "name": "C#3",
          "ticks": 89667,
          "time": 128.536243453125,
          "velocity": 0.11811023622047244
        },
        {
          "duration": 0.13761449999998376,
          "durationTicks": 96,
          "midi": 45,
          "name": "A2",
          "ticks": 89763,
          "time": 128.673857953125,
          "velocity": 0.11811023622047244
        },
        {
          "duration": 0.13761449999998376,
          "durationTicks": 96,
          "midi": 45,
          "name": "A2",
          "ticks": 89763,
          "time": 128.673857953125,
          "velocity": 0.11811023622047244
        },
        {
          "duration": 0.8256870000000163,
          "durationTicks": 576,
          "midi": 58,
          "name": "A#3",
          "ticks": 89859,
          "time": 128.811472453125,
          "velocity": 0.11811023622047244
        },
        {
          "duration": 0.8256870000000163,
          "durationTicks": 576,
          "midi": 61,
          "name": "C#4",
          "ticks": 89859,
          "time": 128.811472453125,
          "velocity": 0.11811023622047244
        },
        {
          "duration": 0.8256870000000163,
          "durationTicks": 576,
          "midi": 61,
          "name": "C#4",
          "ticks": 89859,
          "time": 128.811472453125,
          "velocity": 0.11811023622047244
        },
        {
          "duration": 0.13761450000001219,
          "durationTicks": 96,
          "midi": 52,
          "name": "E3",
          "ticks": 89859,
          "time": 128.811472453125,
          "velocity": 0.11811023622047244
        },
        {
          "duration": 0.13761449999998376,
          "durationTicks": 96,
          "midi": 46,
          "name": "A#2",
          "ticks": 89955,
          "time": 128.949086953125,
          "velocity": 0.11811023622047244
        },
        {
          "duration": 0.13761449999998376,
          "durationTicks": 96,
          "midi": 46,
          "name": "A#2",
          "ticks": 89955,
          "time": 128.949086953125,
          "velocity": 0.11811023622047244
        },
        {
          "duration": 0.13761450000001219,
          "durationTicks": 96,
          "midi": 49,
          "name": "C#3",
          "ticks": 90051,
          "time": 129.086701453125,
          "velocity": 0.11811023622047244
        },
        {
          "duration": 0.13761450000001219,
          "durationTicks": 96,
          "midi": 52,
          "name": "E3",
          "ticks": 90051,
          "time": 129.086701453125,
          "velocity": 0.11811023622047244
        },
        {
          "duration": 0.13761450000001219,
          "durationTicks": 96,
          "midi": 52,
          "name": "E3",
          "ticks": 90051,
          "time": 129.086701453125,
          "velocity": 0.11811023622047244
        },
        {
          "duration": 0.13761450000001219,
          "durationTicks": 96,
          "midi": 46,
          "name": "A#2",
          "ticks": 90147,
          "time": 129.224315953125,
          "velocity": 0.11811023622047244
        },
        {
          "duration": 0.13761449999998376,
          "durationTicks": 96,
          "midi": 49,
          "name": "C#3",
          "ticks": 90243,
          "time": 129.361930453125,
          "velocity": 0.11811023622047244
        },
        {
          "duration": 0.13761449999998376,
          "durationTicks": 96,
          "midi": 52,
          "name": "E3",
          "ticks": 90243,
          "time": 129.361930453125,
          "velocity": 0.11811023622047244
        },
        {
          "duration": 0.13761449999998376,
          "durationTicks": 96,
          "midi": 52,
          "name": "E3",
          "ticks": 90243,
          "time": 129.361930453125,
          "velocity": 0.11811023622047244
        },
        {
          "duration": 0.27522899999999595,
          "durationTicks": 192,
          "midi": 52,
          "name": "E3",
          "ticks": 90243,
          "time": 129.361930453125,
          "velocity": 0.11811023622047244
        },
        {
          "duration": 0.13761450000001219,
          "durationTicks": 96,
          "midi": 46,
          "name": "A#2",
          "ticks": 90339,
          "time": 129.499544953125,
          "velocity": 0.11811023622047244
        },
        {
          "duration": 0.8256869999999878,
          "durationTicks": 576,
          "midi": 64,
          "name": "E4",
          "ticks": 90435,
          "time": 129.637159453125,
          "velocity": 0.11811023622047244
        },
        {
          "duration": 0.8256869999999878,
          "durationTicks": 576,
          "midi": 61,
          "name": "C#4",
          "ticks": 90435,
          "time": 129.637159453125,
          "velocity": 0.11811023622047244
        },
        {
          "duration": 0.8256869999999878,
          "durationTicks": 576,
          "midi": 64,
          "name": "E4",
          "ticks": 90435,
          "time": 129.637159453125,
          "velocity": 0.11811023622047244
        },
        {
          "duration": 0.13761449999998376,
          "durationTicks": 96,
          "midi": 52,
          "name": "E3",
          "ticks": 90435,
          "time": 129.637159453125,
          "velocity": 0.11811023622047244
        },
        {
          "duration": 0.8256869999999878,
          "durationTicks": 576,
          "midi": 58,
          "name": "A#3",
          "ticks": 90435,
          "time": 129.637159453125,
          "velocity": 0.11811023622047244
        },
        {
          "duration": 0.13761450000001219,
          "durationTicks": 96,
          "midi": 46,
          "name": "A#2",
          "ticks": 90531,
          "time": 129.774773953125,
          "velocity": 0.11811023622047244
        },
        {
          "duration": 0.13761450000001219,
          "durationTicks": 96,
          "midi": 46,
          "name": "A#2",
          "ticks": 90531,
          "time": 129.774773953125,
          "velocity": 0.11811023622047244
        },
        {
          "duration": 0.13761449999998376,
          "durationTicks": 96,
          "midi": 52,
          "name": "E3",
          "ticks": 90627,
          "time": 129.912388453125,
          "velocity": 0.11811023622047244
        },
        {
          "duration": 0.13761449999998376,
          "durationTicks": 96,
          "midi": 49,
          "name": "C#3",
          "ticks": 90627,
          "time": 129.912388453125,
          "velocity": 0.11811023622047244
        },
        {
          "duration": 0.13761449999998376,
          "durationTicks": 96,
          "midi": 52,
          "name": "E3",
          "ticks": 90627,
          "time": 129.912388453125,
          "velocity": 0.11811023622047244
        },
        {
          "duration": 0.13761450000001219,
          "durationTicks": 96,
          "midi": 46,
          "name": "A#2",
          "ticks": 90723,
          "time": 130.050002953125,
          "velocity": 0.11811023622047244
        },
        {
          "duration": 0.13761450000001219,
          "durationTicks": 96,
          "midi": 49,
          "name": "C#3",
          "ticks": 90819,
          "time": 130.187617453125,
          "velocity": 0.11811023622047244
        },
        {
          "duration": 0.13761450000001219,
          "durationTicks": 96,
          "midi": 52,
          "name": "E3",
          "ticks": 90819,
          "time": 130.187617453125,
          "velocity": 0.11811023622047244
        },
        {
          "duration": 0.13761450000001219,
          "durationTicks": 96,
          "midi": 52,
          "name": "E3",
          "ticks": 90819,
          "time": 130.187617453125,
          "velocity": 0.11811023622047244
        },
        {
          "duration": 0.27522899999999595,
          "durationTicks": 192,
          "midi": 49,
          "name": "C#3",
          "ticks": 90819,
          "time": 130.187617453125,
          "velocity": 0.11811023622047244
        },
        {
          "duration": 0.27522899999999595,
          "durationTicks": 192,
          "midi": 47,
          "name": "B2",
          "ticks": 91011,
          "time": 130.462846453125,
          "velocity": 0.11811023622047244
        },
        {
          "duration": 0.5504579999999919,
          "durationTicks": 384,
          "midi": 64,
          "name": "E4",
          "ticks": 91011,
          "time": 130.462846453125,
          "velocity": 0.11811023622047244
        },
        {
          "duration": 0.5504579999999919,
          "durationTicks": 384,
          "midi": 64,
          "name": "E4",
          "ticks": 91011,
          "time": 130.462846453125,
          "velocity": 0.11811023622047244
        },
        {
          "duration": 0.8256870000000163,
          "durationTicks": 576,
          "midi": 47,
          "name": "B2",
          "ticks": 91011,
          "time": 130.462846453125,
          "velocity": 0.11811023622047244
        },
        {
          "duration": 0.5504579999999919,
          "durationTicks": 384,
          "midi": 63,
          "name": "D#4",
          "ticks": 91011,
          "time": 130.462846453125,
          "velocity": 0.11811023622047244
        },
        {
          "duration": 0.13761450000001219,
          "durationTicks": 96,
          "midi": 54,
          "name": "F#3",
          "ticks": 91203,
          "time": 130.738075453125,
          "velocity": 0.11811023622047244
        },
        {
          "duration": 0.13761450000001219,
          "durationTicks": 96,
          "midi": 50,
          "name": "D3",
          "ticks": 91203,
          "time": 130.738075453125,
          "velocity": 0.11811023622047244
        },
        {
          "duration": 0.5504580000000203,
          "durationTicks": 384,
          "midi": 50,
          "name": "D3",
          "ticks": 91203,
          "time": 130.738075453125,
          "velocity": 0.11811023622047244
        },
        {
          "duration": 0.13761450000001219,
          "durationTicks": 96,
          "midi": 57,
          "name": "A3",
          "ticks": 91395,
          "time": 131.013304453125,
          "velocity": 0.11811023622047244
        },
        {
          "duration": 0.13761450000001219,
          "durationTicks": 96,
          "midi": 62,
          "name": "D4",
          "ticks": 91395,
          "time": 131.013304453125,
          "velocity": 0.11811023622047244
        },
        {
          "duration": 0.13761450000001219,
          "durationTicks": 96,
          "midi": 62,
          "name": "D4",
          "ticks": 91395,
          "time": 131.013304453125,
          "velocity": 0.11811023622047244
        },
        {
          "duration": 0.13761450000001219,
          "durationTicks": 96,
          "midi": 54,
          "name": "F#3",
          "ticks": 91395,
          "time": 131.013304453125,
          "velocity": 0.11811023622047244
        },
        {
          "duration": 0.13761450000001219,
          "durationTicks": 96,
          "midi": 62,
          "name": "D4",
          "ticks": 91395,
          "time": 131.013304453125,
          "velocity": 0.11811023622047244
        },
        {
          "duration": 0.27522900000002437,
          "durationTicks": 192,
          "midi": 54,
          "name": "F#3",
          "ticks": 91395,
          "time": 131.013304453125,
          "velocity": 0.11811023622047244
        },
        {
          "duration": 0.5504579999999919,
          "durationTicks": 384,
          "midi": 61,
          "name": "C#4",
          "ticks": 91587,
          "time": 131.288533453125,
          "velocity": 0.11811023622047244
        },
        {
          "duration": 0.27522899999999595,
          "durationTicks": 192,
          "midi": 45,
          "name": "A2",
          "ticks": 91587,
          "time": 131.288533453125,
          "velocity": 0.11811023622047244
        },
        {
          "duration": 0.5504579999999919,
          "durationTicks": 384,
          "midi": 61,
          "name": "C#4",
          "ticks": 91587,
          "time": 131.288533453125,
          "velocity": 0.11811023622047244
        },
        {
          "duration": 0.8256869999999878,
          "durationTicks": 576,
          "midi": 45,
          "name": "A2",
          "ticks": 91587,
          "time": 131.288533453125,
          "velocity": 0.11811023622047244
        },
        {
          "duration": 0.5504579999999919,
          "durationTicks": 384,
          "midi": 61,
          "name": "C#4",
          "ticks": 91587,
          "time": 131.288533453125,
          "velocity": 0.11811023622047244
        },
        {
          "duration": 0.13761449999998376,
          "durationTicks": 96,
          "midi": 49,
          "name": "C#3",
          "ticks": 91779,
          "time": 131.563762453125,
          "velocity": 0.11811023622047244
        },
        {
          "duration": 0.13761449999998376,
          "durationTicks": 96,
          "midi": 52,
          "name": "E3",
          "ticks": 91779,
          "time": 131.563762453125,
          "velocity": 0.11811023622047244
        },
        {
          "duration": 0.5504579999999919,
          "durationTicks": 384,
          "midi": 49,
          "name": "C#3",
          "ticks": 91779,
          "time": 131.563762453125,
          "velocity": 0.11811023622047244
        },
        {
          "duration": 0.13761449999998376,
          "durationTicks": 96,
          "midi": 62,
          "name": "D4",
          "ticks": 91971,
          "time": 131.838991453125,
          "velocity": 0.11811023622047244
        },
        {
          "duration": 0.13761449999998376,
          "durationTicks": 96,
          "midi": 62,
          "name": "D4",
          "ticks": 91971,
          "time": 131.838991453125,
          "velocity": 0.11811023622047244
        },
        {
          "duration": 0.13761449999998376,
          "durationTicks": 96,
          "midi": 62,
          "name": "D4",
          "ticks": 91971,
          "time": 131.838991453125,
          "velocity": 0.11811023622047244
        },
        {
          "duration": 0.13761449999998376,
          "durationTicks": 96,
          "midi": 52,
          "name": "E3",
          "ticks": 91971,
          "time": 131.838991453125,
          "velocity": 0.11811023622047244
        },
        {
          "duration": 0.13761449999998376,
          "durationTicks": 96,
          "midi": 57,
          "name": "A3",
          "ticks": 91971,
          "time": 131.838991453125,
          "velocity": 0.11811023622047244
        },
        {
          "duration": 0.27522899999999595,
          "durationTicks": 192,
          "midi": 52,
          "name": "E3",
          "ticks": 91971,
          "time": 131.838991453125,
          "velocity": 0.11811023622047244
        },
        {
          "duration": 1.6513740000000041,
          "durationTicks": 1152,
          "midi": 38,
          "name": "D2",
          "ticks": 92163,
          "time": 132.114220453125,
          "velocity": 0.11811023622047244
        },
        {
          "duration": 0.5504579999999919,
          "durationTicks": 384,
          "midi": 57,
          "name": "A3",
          "ticks": 92163,
          "time": 132.114220453125,
          "velocity": 0.11811023622047244
        },
        {
          "duration": 0.27522899999999595,
          "durationTicks": 192,
          "midi": 50,
          "name": "D3",
          "ticks": 92547,
          "time": 132.664678453125,
          "velocity": 0.11811023622047244
        },
        {
          "duration": 0.5504580000000203,
          "durationTicks": 384,
          "midi": 52,
          "name": "E3",
          "ticks": 92739,
          "time": 132.939907453125,
          "velocity": 0.11811023622047244
        },
        {
          "duration": 0.27522899999999595,
          "durationTicks": 192,
          "midi": 50,
          "name": "D3",
          "ticks": 93123,
          "time": 133.490365453125,
          "velocity": 0.11811023622047244
        },
        {
          "duration": 0.5504579999999919,
          "durationTicks": 384,
          "midi": 44,
          "name": "G#2",
          "ticks": 93315,
          "time": 133.765594453125,
          "velocity": 0.11811023622047244
        },
        {
          "duration": 0.27522899999999595,
          "durationTicks": 192,
          "midi": 50,
          "name": "D3",
          "ticks": 93699,
          "time": 134.316052453125,
          "velocity": 0.11811023622047244
        },
        {
          "duration": 0.5504580000000203,
          "durationTicks": 384,
          "midi": 52,
          "name": "E3",
          "ticks": 93891,
          "time": 134.591281453125,
          "velocity": 0.11811023622047244
        },
        {
          "duration": 0.27522899999999595,
          "durationTicks": 192,
          "midi": 50,
          "name": "D3",
          "ticks": 94275,
          "time": 135.141739453125,
          "velocity": 0.11811023622047244
        },
        {
          "duration": 0.5504579999999919,
          "durationTicks": 384,
          "midi": 43,
          "name": "G2",
          "ticks": 94467,
          "time": 135.416968453125,
          "velocity": 0.11811023622047244
        },
        {
          "duration": 0.27522899999999595,
          "durationTicks": 192,
          "midi": 50,
          "name": "D3",
          "ticks": 94851,
          "time": 135.967426453125,
          "velocity": 0.11811023622047244
        },
        {
          "duration": 0.5504579999999919,
          "durationTicks": 384,
          "midi": 52,
          "name": "E3",
          "ticks": 95043,
          "time": 136.242655453125,
          "velocity": 0.11811023622047244
        },
        {
          "duration": 0.27522900000002437,
          "durationTicks": 192,
          "midi": 55,
          "name": "G3",
          "ticks": 95427,
          "time": 136.793113453125,
          "velocity": 0.11811023622047244
        },
        {
          "duration": 1.6513739999999757,
          "durationTicks": 1152,
          "midi": 38,
          "name": "D2",
          "ticks": 95619,
          "time": 137.068342453125,
          "velocity": 0.11811023622047244
        },
        {
          "duration": 0.5504579999999919,
          "durationTicks": 384,
          "midi": 54,
          "name": "F#3",
          "ticks": 95619,
          "time": 137.068342453125,
          "velocity": 0.11811023622047244
        },
        {
          "duration": 0.27522899999999595,
          "durationTicks": 192,
          "midi": 52,
          "name": "E3",
          "ticks": 96003,
          "time": 137.618800453125,
          "velocity": 0.11811023622047244
        },
        {
          "duration": 0.5504579999999919,
          "durationTicks": 384,
          "midi": 50,
          "name": "D3",
          "ticks": 96195,
          "time": 137.894029453125,
          "velocity": 0.11811023622047244
        },
        {
          "duration": 0.27522899999999595,
          "durationTicks": 192,
          "midi": 45,
          "name": "A2",
          "ticks": 96579,
          "time": 138.444487453125,
          "velocity": 0.11811023622047244
        },
        {
          "duration": 0.5504580000000203,
          "durationTicks": 384,
          "midi": 57,
          "name": "A3",
          "ticks": 96771,
          "time": 138.719716453125,
          "velocity": 0.11811023622047244
        },
        {
          "duration": 1.6513740000000041,
          "durationTicks": 1152,
          "midi": 38,
          "name": "D2",
          "ticks": 96771,
          "time": 138.719716453125,
          "velocity": 0.11811023622047244
        },
        {
          "duration": 0.27522899999999595,
          "durationTicks": 192,
          "midi": 50,
          "name": "D3",
          "ticks": 97155,
          "time": 139.270174453125,
          "velocity": 0.11811023622047244
        },
        {
          "duration": 0.5504579999999919,
          "durationTicks": 384,
          "midi": 52,
          "name": "E3",
          "ticks": 97347,
          "time": 139.545403453125,
          "velocity": 0.11811023622047244
        },
        {
          "duration": 0.27522899999999595,
          "durationTicks": 192,
          "midi": 50,
          "name": "D3",
          "ticks": 97731,
          "time": 140.095861453125,
          "velocity": 0.11811023622047244
        },
        {
          "duration": 0.5504580000000203,
          "durationTicks": 384,
          "midi": 44,
          "name": "G#2",
          "ticks": 97923,
          "time": 140.371090453125,
          "velocity": 0.11811023622047244
        },
        {
          "duration": 0.27522899999999595,
          "durationTicks": 192,
          "midi": 50,
          "name": "D3",
          "ticks": 98307,
          "time": 140.921548453125,
          "velocity": 0.11811023622047244
        },
        {
          "duration": 0.5504579999999919,
          "durationTicks": 384,
          "midi": 52,
          "name": "E3",
          "ticks": 98499,
          "time": 141.196777453125,
          "velocity": 0.11811023622047244
        },
        {
          "duration": 0.27522899999999595,
          "durationTicks": 192,
          "midi": 50,
          "name": "D3",
          "ticks": 98883,
          "time": 141.747235453125,
          "velocity": 0.11811023622047244
        },
        {
          "duration": 0.5504579999999919,
          "durationTicks": 384,
          "midi": 43,
          "name": "G2",
          "ticks": 99075,
          "time": 142.022464453125,
          "velocity": 0.11811023622047244
        },
        {
          "duration": 0.27522900000002437,
          "durationTicks": 192,
          "midi": 50,
          "name": "D3",
          "ticks": 99459,
          "time": 142.572922453125,
          "velocity": 0.11811023622047244
        },
        {
          "duration": 0.5504579999999919,
          "durationTicks": 384,
          "midi": 52,
          "name": "E3",
          "ticks": 99651,
          "time": 142.848151453125,
          "velocity": 0.11811023622047244
        },
        {
          "duration": 0.27522899999999595,
          "durationTicks": 192,
          "midi": 55,
          "name": "G3",
          "ticks": 100035,
          "time": 143.398609453125,
          "velocity": 0.11811023622047244
        },
        {
          "duration": 0.5504579999999919,
          "durationTicks": 384,
          "midi": 54,
          "name": "F#3",
          "ticks": 100227,
          "time": 143.673838453125,
          "velocity": 0.11811023622047244
        },
        {
          "duration": 1.6513740000000041,
          "durationTicks": 1152,
          "midi": 38,
          "name": "D2",
          "ticks": 100227,
          "time": 143.673838453125,
          "velocity": 0.11811023622047244
        },
        {
          "duration": 0.27522899999999595,
          "durationTicks": 192,
          "midi": 52,
          "name": "E3",
          "ticks": 100611,
          "time": 144.224296453125,
          "velocity": 0.11811023622047244
        },
        {
          "duration": 0.5504580000000203,
          "durationTicks": 384,
          "midi": 50,
          "name": "D3",
          "ticks": 100803,
          "time": 144.499525453125,
          "velocity": 0.11811023622047244
        },
        {
          "duration": 1.6513740000000041,
          "durationTicks": 1152,
          "midi": 43,
          "name": "G2",
          "ticks": 101379,
          "time": 145.325212453125,
          "velocity": 0.11811023622047244
        },
        {
          "duration": 0.5504579999999919,
          "durationTicks": 384,
          "midi": 57,
          "name": "A3",
          "ticks": 101379,
          "time": 145.325212453125,
          "velocity": 0.11811023622047244
        },
        {
          "duration": 0.27522899999999595,
          "durationTicks": 192,
          "midi": 50,
          "name": "D3",
          "ticks": 101763,
          "time": 145.875670453125,
          "velocity": 0.11811023622047244
        },
        {
          "duration": 0.5504580000000203,
          "durationTicks": 384,
          "midi": 52,
          "name": "E3",
          "ticks": 101955,
          "time": 146.150899453125,
          "velocity": 0.11811023622047244
        },
        {
          "duration": 0.27522899999999595,
          "durationTicks": 192,
          "midi": 50,
          "name": "D3",
          "ticks": 102339,
          "time": 146.701357453125,
          "velocity": 0.11811023622047244
        },
        {
          "duration": 0.5504579999999919,
          "durationTicks": 384,
          "midi": 45,
          "name": "A2",
          "ticks": 102531,
          "time": 146.976586453125,
          "velocity": 0.11811023622047244
        },
        {
          "duration": 0.27522899999999595,
          "durationTicks": 192,
          "midi": 50,
          "name": "D3",
          "ticks": 102915,
          "time": 147.527044453125,
          "velocity": 0.11811023622047244
        },
        {
          "duration": 0.5504579999999919,
          "durationTicks": 384,
          "midi": 52,
          "name": "E3",
          "ticks": 103107,
          "time": 147.802273453125,
          "velocity": 0.11811023622047244
        },
        {
          "duration": 0.13761450000001219,
          "durationTicks": 96,
          "midi": 54,
          "name": "F#3",
          "ticks": 103491,
          "time": 148.352731453125,
          "velocity": 0.11811023622047244
        },
        {
          "duration": 0.13761450000001219,
          "durationTicks": 96,
          "midi": 52,
          "name": "E3",
          "ticks": 103587,
          "time": 148.490345953125,
          "velocity": 0.11811023622047244
        },
        {
          "duration": 0.27522899999999595,
          "durationTicks": 192,
          "midi": 50,
          "name": "D3",
          "ticks": 103683,
          "time": 148.627960453125,
          "velocity": 0.11811023622047244
        },
        {
          "duration": 1.6513739999999757,
          "durationTicks": 1152,
          "midi": 45,
          "name": "A2",
          "ticks": 103683,
          "time": 148.627960453125,
          "velocity": 0.11811023622047244
        }
      ],
      "endOfTrackTicks": 104835
    }
  ]
}
