{
  "header": {
    "keySignatures": [],
    "meta": [],
    "name": "",
    "ppq": 384,
    "tempos": [
      {
        "bpm": 96,
        "ticks": 0
      }
    ],
    "timeSignatures": [
      {
        "ticks": 0,
        "timeSignature": [
          1,
          4
        ],
        "measures": 0
      }
    ]
  },
  "tracks": [
    {
      "channel": 0,
      "controlChanges": {},
      "pitchBends": [],
      "instrument": {
        "family": "piano",
        "number": 0,
        "name": "acoustic grand piano"
      },
      "name": "Grand Piano",
      "notes": [
        {
          "duration": 1.25,
          "durationTicks": 768,
          "midi": 68,
          "name": "G#4",
          "ticks": 0,
          "time": 0,
          "velocity": 0.3937007874015748
        },
        {
          "duration": 1.25,
          "durationTicks": 768,
          "midi": 80,
          "name": "G#5",
          "ticks": 0,
          "time": 0,
          "velocity": 0.3937007874015748
        },
        {
          "duration": 1.25,
          "durationTicks": 768,
          "midi": 61,
          "name": "C#4",
          "ticks": 0,
          "time": 0,
          "velocity": 0.3937007874015748
        },
        {
          "duration": 1.25,
          "durationTicks": 768,
          "midi": 77,
          "name": "F5",
          "ticks": 0,
          "time": 0,
          "velocity": 0.3937007874015748
        },
        {
          "duration": 1.25,
          "durationTicks": 768,
          "midi": 79,
          "name": "G5",
          "ticks": 768,
          "time": 1.25,
          "velocity": 0.3937007874015748
        },
        {
          "duration": 1.25,
          "durationTicks": 768,
          "midi": 60,
          "name": "C4",
          "ticks": 768,
          "time": 1.25,
          "velocity": 0.3937007874015748
        },
        {
          "duration": 1.25,
          "durationTicks": 768,
          "midi": 67,
          "name": "G4",
          "ticks": 768,
          "time": 1.25,
          "velocity": 0.3937007874015748
        },
        {
          "duration": 1.25,
          "durationTicks": 768,
          "midi": 76,
          "name": "E5",
          "ticks": 768,
          "time": 1.25,
          "velocity": 0.3937007874015748
        },
        {
          "duration": 1.25,
          "durationTicks": 768,
          "midi": 65,
          "name": "F4",
          "ticks": 1536,
          "time": 2.5,
          "velocity": 0.3937007874015748
        },
        {
          "duration": 1.25,
          "durationTicks": 768,
          "midi": 84,
          "name": "C6",
          "ticks": 1536,
          "time": 2.5,
          "velocity": 0.3937007874015748
        },
        {
          "duration": 1.25,
          "durationTicks": 768,
          "midi": 72,
          "name": "C5",
          "ticks": 1536,
          "time": 2.5,
          "velocity": 0.3937007874015748
        },
        {
          "duration": 1.25,
          "durationTicks": 768,
          "midi": 80,
          "name": "G#5",
          "ticks": 1536,
          "time": 2.5,
          "velocity": 0.3937007874015748
        },
        {
          "duration": 0.625,
          "durationTicks": 384,
          "midi": 75,
          "name": "D#5",
          "ticks": 2304,
          "time": 3.75,
          "velocity": 0.3937007874015748
        },
        {
          "duration": 0.625,
          "durationTicks": 384,
          "midi": 78,
          "name": "F#5",
          "ticks": 2304,
          "time": 3.75,
          "velocity": 0.3937007874015748
        },
        {
          "duration": 0.625,
          "durationTicks": 384,
          "midi": 82,
          "name": "A#5",
          "ticks": 2304,
          "time": 3.75,
          "velocity": 0.3937007874015748
        },
        {
          "duration": 0.625,
          "durationTicks": 384,
          "midi": 63,
          "name": "D#4",
          "ticks": 2304,
          "time": 3.75,
          "velocity": 0.3937007874015748
        },
        {
          "duration": 0.625,
          "durationTicks": 384,
          "midi": 70,
          "name": "A#4",
          "ticks": 2304,
          "time": 3.75,
          "velocity": 0.3937007874015748
        },
        {
          "duration": 0.625,
          "durationTicks": 384,
          "midi": 70,
          "name": "A#4",
          "ticks": 2688,
          "time": 4.375,
          "velocity": 0.3937007874015748
        },
        {
          "duration": 0.625,
          "durationTicks": 384,
          "midi": 75,
          "name": "D#5",
          "ticks": 2688,
          "time": 4.375,
          "velocity": 0.3937007874015748
        },
        {
          "duration": 0.625,
          "durationTicks": 384,
          "midi": 84,
          "name": "C6",
          "ticks": 2688,
          "time": 4.375,
          "velocity": 0.3937007874015748
        },
        {
          "duration": 0.625,
          "durationTicks": 384,
          "midi": 68,
          "name": "G#4",
          "ticks": 2688,
          "time": 4.375,
          "velocity": 0.3937007874015748
        },
        {
          "duration": 0.625,
          "durationTicks": 384,
          "midi": 78,
          "name": "F#5",
          "ticks": 2688,
          "time": 4.375,
          "velocity": 0.3937007874015748
        },
        {
          "duration": 1.25,
          "durationTicks": 768,
          "midi": 73,
          "name": "C#5",
          "ticks": 3072,
          "time": 5,
          "velocity": 0.3937007874015748
        },
        {
          "duration": 1.25,
          "durationTicks": 768,
          "midi": 80,
          "name": "G#5",
          "ticks": 3072,
          "time": 5,
          "velocity": 0.3937007874015748
        },
        {
          "duration": 1.25,
          "durationTicks": 768,
          "midi": 68,
          "name": "G#4",
          "ticks": 3072,
          "time": 5,
          "velocity": 0.3937007874015748
        },
        {
          "duration": 1.25,
          "durationTicks": 768,
          "midi": 61,
          "name": "C#4",
          "ticks": 3072,
          "time": 5,
          "velocity": 0.3937007874015748
        },
        {
          "duration": 1.25,
          "durationTicks": 768,
          "midi": 85,
          "name": "C#6",
          "ticks": 3072,
          "time": 5,
          "velocity": 0.3937007874015748
        },
        {
          "duration": 1.25,
          "durationTicks": 768,
          "midi": 72,
          "name": "C5",
          "ticks": 3840,
          "time": 6.25,
          "velocity": 0.3937007874015748
        },
        {
          "duration": 1.25,
          "durationTicks": 768,
          "midi": 67,
          "name": "G4",
          "ticks": 3840,
          "time": 6.25,
          "velocity": 0.3937007874015748
        },
        {
          "duration": 1.25,
          "durationTicks": 768,
          "midi": 60,
          "name": "C4",
          "ticks": 3840,
          "time": 6.25,
          "velocity": 0.3937007874015748
        },
        {
          "duration": 1.25,
          "durationTicks": 768,
          "midi": 88,
          "name": "E6",
          "ticks": 3840,
          "time": 6.25,
          "velocity": 0.3937007874015748
        },
        {
          "duration": 1.25,
          "durationTicks": 768,
          "midi": 84,
          "name": "C6",
          "ticks": 3840,
          "time": 6.25,
          "velocity": 0.3937007874015748
        },
        {
          "duration": 1.875,
          "durationTicks": 1152,
          "midi": 65,
          "name": "F4",
          "ticks": 4608,
          "time": 7.5,
          "velocity": 0.3937007874015748
        },
        {
          "duration": 1.875,
          "durationTicks": 1152,
          "midi": 80,
          "name": "G#5",
          "ticks": 4608,
          "time": 7.5,
          "velocity": 0.3937007874015748
        },
        {
          "duration": 1.875,
          "durationTicks": 1152,
          "midi": 89,
          "name": "F6",
          "ticks": 4608,
          "time": 7.5,
          "velocity": 0.3937007874015748
        },
        {
          "duration": 1.875,
          "durationTicks": 1152,
          "midi": 84,
          "name": "C6",
          "ticks": 4608,
          "time": 7.5,
          "velocity": 0.3937007874015748
        },
        {
          "duration": 1.875,
          "durationTicks": 1152,
          "midi": 53,
          "name": "F3",
          "ticks": 4608,
          "time": 7.5,
          "velocity": 0.3937007874015748
        },
        {
          "duration": 1.875,
          "durationTicks": 1152,
          "midi": 60,
          "name": "C4",
          "ticks": 4608,
          "time": 7.5,
          "velocity": 0.3937007874015748
        },
        {
          "duration": 1.25,
          "durationTicks": 768,
          "midi": 65,
          "name": "F4",
          "ticks": 6144,
          "time": 10,
          "velocity": 0.3937007874015748
        },
        {
          "duration": 1.25,
          "durationTicks": 768,
          "midi": 49,
          "name": "C#3",
          "ticks": 6144,
          "time": 10,
          "velocity": 0.3937007874015748
        },
        {
          "duration": 1.25,
          "durationTicks": 768,
          "midi": 56,
          "name": "G#3",
          "ticks": 6144,
          "time": 10,
          "velocity": 0.3937007874015748
        },
        {
          "duration": 1.25,
          "durationTicks": 768,
          "midi": 60,
          "name": "C4",
          "ticks": 6144,
          "time": 10,
          "velocity": 0.3937007874015748
        },
        {
          "duration": 0.15625,
          "durationTicks": 96,
          "midi": 80,
          "name": "G#5",
          "ticks": 6336,
          "time": 10.3125,
          "velocity": 0.3937007874015748
        },
        {
          "duration": 0.15625,
          "durationTicks": 96,
          "midi": 80,
          "name": "G#5",
          "ticks": 6432,
          "time": 10.46875,
          "velocity": 0.3937007874015748
        },
        {
          "duration": 0.3125,
          "durationTicks": 192,
          "midi": 80,
          "name": "G#5",
          "ticks": 6528,
          "time": 10.625,
          "velocity": 0.3937007874015748
        },
        {
          "duration": 0.3125,
          "durationTicks": 192,
          "midi": 77,
          "name": "F5",
          "ticks": 6720,
          "time": 10.9375,
          "velocity": 0.3937007874015748
        },
        {
          "duration": 1.25,
          "durationTicks": 768,
          "midi": 58,
          "name": "A#3",
          "ticks": 6912,
          "time": 11.25,
          "velocity": 0.3937007874015748
        },
        {
          "duration": 1.25,
          "durationTicks": 768,
          "midi": 48,
          "name": "C3",
          "ticks": 6912,
          "time": 11.25,
          "velocity": 0.3937007874015748
        },
        {
          "duration": 1.25,
          "durationTicks": 768,
          "midi": 64,
          "name": "E4",
          "ticks": 6912,
          "time": 11.25,
          "velocity": 0.3937007874015748
        },
        {
          "duration": 1.25,
          "durationTicks": 768,
          "midi": 55,
          "name": "G3",
          "ticks": 6912,
          "time": 11.25,
          "velocity": 0.3937007874015748
        },
        {
          "duration": 0.15625,
          "durationTicks": 96,
          "midi": 79,
          "name": "G5",
          "ticks": 7104,
          "time": 11.5625,
          "velocity": 0.3937007874015748
        },
        {
          "duration": 0.15625,
          "durationTicks": 96,
          "midi": 79,
          "name": "G5",
          "ticks": 7200,
          "time": 11.71875,
          "velocity": 0.3937007874015748
        },
        {
          "duration": 0.15625,
          "durationTicks": 96,
          "midi": 79,
          "name": "G5",
          "ticks": 7296,
          "time": 11.875,
          "velocity": 0.3937007874015748
        },
        {
          "duration": 0.15625,
          "durationTicks": 96,
          "midi": 76,
          "name": "E5",
          "ticks": 7392,
          "time": 12.03125,
          "velocity": 0.3937007874015748
        },
        {
          "duration": 1.25,
          "durationTicks": 768,
          "midi": 53,
          "name": "F3",
          "ticks": 7680,
          "time": 12.5,
          "velocity": 0.3937007874015748
        },
        {
          "duration": 1.25,
          "durationTicks": 768,
          "midi": 60,
          "name": "C4",
          "ticks": 7680,
          "time": 12.5,
          "velocity": 0.3937007874015748
        },
        {
          "duration": 1.25,
          "durationTicks": 768,
          "midi": 65,
          "name": "F4",
          "ticks": 7680,
          "time": 12.5,
          "velocity": 0.3937007874015748
        },
        {
          "duration": 1.25,
          "durationTicks": 768,
          "midi": 68,
          "name": "G#4",
          "ticks": 7680,
          "time": 12.5,
          "velocity": 0.3937007874015748
        },
        {
          "duration": 0.15625,
          "durationTicks": 96,
          "midi": 80,
          "name": "G#5",
          "ticks": 7872,
          "time": 12.8125,
          "velocity": 0.3937007874015748
        },
        {
          "duration": 0.15625,
          "durationTicks": 96,
          "midi": 80,
          "name": "G#5",
          "ticks": 7968,
          "time": 12.96875,
          "velocity": 0.3937007874015748
        },
        {
          "duration": 0.15625,
          "durationTicks": 96,
          "midi": 80,
          "name": "G#5",
          "ticks": 8064,
          "time": 13.125,
          "velocity": 0.3937007874015748
        },
        {
          "duration": 0.15625,
          "durationTicks": 96,
          "midi": 80,
          "name": "G#5",
          "ticks": 8160,
          "time": 13.28125,
          "velocity": 0.3937007874015748
        },
        {
          "duration": 0.15625,
          "durationTicks": 96,
          "midi": 80,
          "name": "G#5",
          "ticks": 8256,
          "time": 13.4375,
          "velocity": 0.3937007874015748
        },
        {
          "duration": 0.15625,
          "durationTicks": 96,
          "midi": 80,
          "name": "G#5",
          "ticks": 8352,
          "time": 13.59375,
          "velocity": 0.3937007874015748
        },
        {
          "duration": 0.625,
          "durationTicks": 384,
          "midi": 51,
          "name": "D#3",
          "ticks": 8448,
          "time": 13.75,
          "velocity": 0.3937007874015748
        },
        {
          "duration": 0.625,
          "durationTicks": 384,
          "midi": 66,
          "name": "F#4",
          "ticks": 8448,
          "time": 13.75,
          "velocity": 0.3937007874015748
        },
        {
          "duration": 0.625,
          "durationTicks": 384,
          "midi": 58,
          "name": "A#3",
          "ticks": 8448,
          "time": 13.75,
          "velocity": 0.3937007874015748
        },
        {
          "duration": 0.3125,
          "durationTicks": 192,
          "midi": 78,
          "name": "F#5",
          "ticks": 8448,
          "time": 13.75,
          "velocity": 0.3937007874015748
        },
        {
          "duration": 0.15625,
          "durationTicks": 96,
          "midi": 78,
          "name": "F#5",
          "ticks": 8640,
          "time": 14.0625,
          "velocity": 0.3937007874015748
        },
        {
          "duration": 0.15625,
          "durationTicks": 96,
          "midi": 78,
          "name": "F#5",
          "ticks": 8736,
          "time": 14.21875,
          "velocity": 0.3937007874015748
        },
        {
          "duration": 0.3125,
          "durationTicks": 192,
          "midi": 80,
          "name": "G#5",
          "ticks": 8832,
          "time": 14.375,
          "velocity": 0.3937007874015748
        },
        {
          "duration": 0.625,
          "durationTicks": 384,
          "midi": 66,
          "name": "F#4",
          "ticks": 8832,
          "time": 14.375,
          "velocity": 0.3937007874015748
        },
        {
          "duration": 0.625,
          "durationTicks": 384,
          "midi": 63,
          "name": "D#4",
          "ticks": 8832,
          "time": 14.375,
          "velocity": 0.3937007874015748
        },
        {
          "duration": 0.625,
          "durationTicks": 384,
          "midi": 56,
          "name": "G#3",
          "ticks": 8832,
          "time": 14.375,
          "velocity": 0.3937007874015748
        },
        {
          "duration": 0.15625,
          "durationTicks": 96,
          "midi": 80,
          "name": "G#5",
          "ticks": 9024,
          "time": 14.6875,
          "velocity": 0.3937007874015748
        },
        {
          "duration": 0.15625,
          "durationTicks": 96,
          "midi": 80,
          "name": "G#5",
          "ticks": 9120,
          "time": 14.84375,
          "velocity": 0.3937007874015748
        },
        {
          "duration": 1.25,
          "durationTicks": 768,
          "midi": 56,
          "name": "G#3",
          "ticks": 9216,
          "time": 15,
          "velocity": 0.3937007874015748
        },
        {
          "duration": 1.25,
          "durationTicks": 768,
          "midi": 60,
          "name": "C4",
          "ticks": 9216,
          "time": 15,
          "velocity": 0.3937007874015748
        },
        {
          "duration": 0.3125,
          "durationTicks": 192,
          "midi": 77,
          "name": "F5",
          "ticks": 9216,
          "time": 15,
          "velocity": 0.3937007874015748
        },
        {
          "duration": 1.25,
          "durationTicks": 768,
          "midi": 49,
          "name": "C#3",
          "ticks": 9216,
          "time": 15,
          "velocity": 0.3937007874015748
        },
        {
          "duration": 1.25,
          "durationTicks": 768,
          "midi": 65,
          "name": "F4",
          "ticks": 9216,
          "time": 15,
          "velocity": 0.3937007874015748
        },
        {
          "duration": 0.15625,
          "durationTicks": 96,
          "midi": 77,
          "name": "F5",
          "ticks": 9408,
          "time": 15.3125,
          "velocity": 0.3937007874015748
        },
        {
          "duration": 0.15625,
          "durationTicks": 96,
          "midi": 77,
          "name": "F5",
          "ticks": 9504,
          "time": 15.46875,
          "velocity": 0.3937007874015748
        },
        {
          "duration": 0.15625,
          "durationTicks": 96,
          "midi": 77,
          "name": "F5",
          "ticks": 9696,
          "time": 15.78125,
          "velocity": 0.3937007874015748
        },
        {
          "duration": 0.15625,
          "durationTicks": 96,
          "midi": 77,
          "name": "F5",
          "ticks": 9792,
          "time": 15.9375,
          "velocity": 0.3937007874015748
        },
        {
          "duration": 0.15625,
          "durationTicks": 96,
          "midi": 77,
          "name": "F5",
          "ticks": 9888,
          "time": 16.09375,
          "velocity": 0.3937007874015748
        },
        {
          "duration": 1.25,
          "durationTicks": 768,
          "midi": 58,
          "name": "A#3",
          "ticks": 9984,
          "time": 16.25,
          "velocity": 0.3937007874015748
        },
        {
          "duration": 0.3125,
          "durationTicks": 192,
          "midi": 76,
          "name": "E5",
          "ticks": 9984,
          "time": 16.25,
          "velocity": 0.3937007874015748
        },
        {
          "duration": 1.25,
          "durationTicks": 768,
          "midi": 55,
          "name": "G3",
          "ticks": 9984,
          "time": 16.25,
          "velocity": 0.3937007874015748
        },
        {
          "duration": 1.25,
          "durationTicks": 768,
          "midi": 48,
          "name": "C3",
          "ticks": 9984,
          "time": 16.25,
          "velocity": 0.3937007874015748
        },
        {
          "duration": 1.25,
          "durationTicks": 768,
          "midi": 64,
          "name": "E4",
          "ticks": 9984,
          "time": 16.25,
          "velocity": 0.3937007874015748
        },
        {
          "duration": 0.3125,
          "durationTicks": 192,
          "midi": 76,
          "name": "E5",
          "ticks": 10176,
          "time": 16.5625,
          "velocity": 0.3937007874015748
        },
        {
          "duration": 0.15625,
          "durationTicks": 96,
          "midi": 76,
          "name": "E5",
          "ticks": 10368,
          "time": 16.875,
          "velocity": 0.3937007874015748
        },
        {
          "duration": 0.15625,
          "durationTicks": 96,
          "midi": 72,
          "name": "C5",
          "ticks": 10464,
          "time": 17.03125,
          "velocity": 0.3937007874015748
        },
        {
          "duration": 2.5,
          "durationTicks": 1536,
          "midi": 65,
          "name": "F4",
          "ticks": 10752,
          "time": 17.5,
          "velocity": 0.3937007874015748
        },
        {
          "duration": 2.5,
          "durationTicks": 1536,
          "midi": 56,
          "name": "G#3",
          "ticks": 10752,
          "time": 17.5,
          "velocity": 0.3937007874015748
        },
        {
          "duration": 2.5,
          "durationTicks": 1536,
          "midi": 60,
          "name": "C4",
          "ticks": 10752,
          "time": 17.5,
          "velocity": 0.3937007874015748
        },
        {
          "duration": 1.875,
          "durationTicks": 1152,
          "midi": 53,
          "name": "F3",
          "ticks": 10752,
          "time": 17.5,
          "velocity": 0.3937007874015748
        },
        {
          "duration": 0.15625,
          "durationTicks": 96,
          "midi": 77,
          "name": "F5",
          "ticks": 10848,
          "time": 17.65625,
          "velocity": 0.3937007874015748
        },
        {
          "duration": 0.15625,
          "durationTicks": 96,
          "midi": 77,
          "name": "F5",
          "ticks": 10944,
          "time": 17.8125,
          "velocity": 0.3937007874015748
        },
        {
          "duration": 0.15625,
          "durationTicks": 96,
          "midi": 77,
          "name": "F5",
          "ticks": 11040,
          "time": 17.96875,
          "velocity": 0.3937007874015748
        },
        {
          "duration": 0.15625,
          "durationTicks": 96,
          "midi": 77,
          "name": "F5",
          "ticks": 11136,
          "time": 18.125,
          "velocity": 0.3937007874015748
        },
        {
          "duration": 0.15625,
          "durationTicks": 96,
          "midi": 77,
          "name": "F5",
          "ticks": 11232,
          "time": 18.28125,
          "velocity": 0.3937007874015748
        },
        {
          "duration": 0.15625,
          "durationTicks": 96,
          "midi": 77,
          "name": "F5",
          "ticks": 11328,
          "time": 18.4375,
          "velocity": 0.3937007874015748
        },
        {
          "duration": 0.15625,
          "durationTicks": 96,
          "midi": 77,
          "name": "F5",
          "ticks": 11424,
          "time": 18.59375,
          "velocity": 0.3937007874015748
        },
        {
          "duration": 0.3125,
          "durationTicks": 192,
          "midi": 77,
          "name": "F5",
          "ticks": 11520,
          "time": 18.75,
          "velocity": 0.3937007874015748
        },
        {
          "duration": 0.3125,
          "durationTicks": 192,
          "midi": 77,
          "name": "F5",
          "ticks": 11712,
          "time": 19.0625,
          "velocity": 0.3937007874015748
        },
        {
          "duration": 0.15625,
          "durationTicks": 96,
          "midi": 77,
          "name": "F5",
          "ticks": 11904,
          "time": 19.375,
          "velocity": 0.3937007874015748
        },
        {
          "duration": 0.625,
          "durationTicks": 384,
          "midi": 48,
          "name": "C3",
          "ticks": 11904,
          "time": 19.375,
          "velocity": 0.3937007874015748
        },
        {
          "duration": 0.15625,
          "durationTicks": 96,
          "midi": 72,
          "name": "C5",
          "ticks": 12000,
          "time": 19.53125,
          "velocity": 0.3937007874015748
        },
        {
          "duration": 1.25,
          "durationTicks": 768,
          "midi": 60,
          "name": "C4",
          "ticks": 12288,
          "time": 20,
          "velocity": 0.3937007874015748
        },
        {
          "duration": 1.25,
          "durationTicks": 768,
          "midi": 56,
          "name": "G#3",
          "ticks": 12288,
          "time": 20,
          "velocity": 0.3937007874015748
        },
        {
          "duration": 1.25,
          "durationTicks": 768,
          "midi": 65,
          "name": "F4",
          "ticks": 12288,
          "time": 20,
          "velocity": 0.3937007874015748
        },
        {
          "duration": 1.25,
          "durationTicks": 768,
          "midi": 49,
          "name": "C#3",
          "ticks": 12288,
          "time": 20,
          "velocity": 0.3937007874015748
        },
        {
          "duration": 0.15625,
          "durationTicks": 96,
          "midi": 77,
          "name": "F5",
          "ticks": 12384,
          "time": 20.15625,
          "velocity": 0.3937007874015748
        },
        {
          "duration": 0.15625,
          "durationTicks": 96,
          "midi": 80,
          "name": "G#5",
          "ticks": 12480,
          "time": 20.3125,
          "velocity": 0.3937007874015748
        },
        {
          "duration": 0.15625,
          "durationTicks": 96,
          "midi": 80,
          "name": "G#5",
          "ticks": 12576,
          "time": 20.46875,
          "velocity": 0.3937007874015748
        },
        {
          "duration": 0.15625,
          "durationTicks": 96,
          "midi": 80,
          "name": "G#5",
          "ticks": 12672,
          "time": 20.625,
          "velocity": 0.3937007874015748
        },
        {
          "duration": 0.15625,
          "durationTicks": 96,
          "midi": 80,
          "name": "G#5",
          "ticks": 12768,
          "time": 20.78125,
          "velocity": 0.3937007874015748
        },
        {
          "duration": 0.15625,
          "durationTicks": 96,
          "midi": 80,
          "name": "G#5",
          "ticks": 12864,
          "time": 20.9375,
          "velocity": 0.3937007874015748
        },
        {
          "duration": 0.15625,
          "durationTicks": 96,
          "midi": 80,
          "name": "G#5",
          "ticks": 12960,
          "time": 21.09375,
          "velocity": 0.3937007874015748
        },
        {
          "duration": 1.25,
          "durationTicks": 768,
          "midi": 58,
          "name": "A#3",
          "ticks": 13056,
          "time": 21.25,
          "velocity": 0.3937007874015748
        },
        {
          "duration": 1.25,
          "durationTicks": 768,
          "midi": 48,
          "name": "C3",
          "ticks": 13056,
          "time": 21.25,
          "velocity": 0.3937007874015748
        },
        {
          "duration": 1.25,
          "durationTicks": 768,
          "midi": 64,
          "name": "E4",
          "ticks": 13056,
          "time": 21.25,
          "velocity": 0.3937007874015748
        },
        {
          "duration": 0.15625,
          "durationTicks": 96,
          "midi": 79,
          "name": "G5",
          "ticks": 13056,
          "time": 21.25,
          "velocity": 0.3937007874015748
        },
        {
          "duration": 1.25,
          "durationTicks": 768,
          "midi": 55,
          "name": "G3",
          "ticks": 13056,
          "time": 21.25,
          "velocity": 0.3937007874015748
        },
        {
          "duration": 0.15625,
          "durationTicks": 96,
          "midi": 79,
          "name": "G5",
          "ticks": 13152,
          "time": 21.40625,
          "velocity": 0.3937007874015748
        },
        {
          "duration": 0.3125,
          "durationTicks": 192,
          "midi": 79,
          "name": "G5",
          "ticks": 13248,
          "time": 21.5625,
          "velocity": 0.3937007874015748
        },
        {
          "duration": 0.3125,
          "durationTicks": 192,
          "midi": 79,
          "name": "G5",
          "ticks": 13440,
          "time": 21.875,
          "velocity": 0.3937007874015748
        },
        {
          "duration": 1.25,
          "durationTicks": 768,
          "midi": 68,
          "name": "G#4",
          "ticks": 13824,
          "time": 22.5,
          "velocity": 0.3937007874015748
        },
        {
          "duration": 1.25,
          "durationTicks": 768,
          "midi": 53,
          "name": "F3",
          "ticks": 13824,
          "time": 22.5,
          "velocity": 0.3937007874015748
        },
        {
          "duration": 1.25,
          "durationTicks": 768,
          "midi": 60,
          "name": "C4",
          "ticks": 13824,
          "time": 22.5,
          "velocity": 0.3937007874015748
        },
        {
          "duration": 1.25,
          "durationTicks": 768,
          "midi": 65,
          "name": "F4",
          "ticks": 13824,
          "time": 22.5,
          "velocity": 0.3937007874015748
        },
        {
          "duration": 0.15625,
          "durationTicks": 96,
          "midi": 80,
          "name": "G#5",
          "ticks": 14016,
          "time": 22.8125,
          "velocity": 0.3937007874015748
        },
        {
          "duration": 0.15625,
          "durationTicks": 96,
          "midi": 80,
          "name": "G#5",
          "ticks": 14112,
          "time": 22.96875,
          "velocity": 0.3937007874015748
        },
        {
          "duration": 0.3125,
          "durationTicks": 192,
          "midi": 80,
          "name": "G#5",
          "ticks": 14208,
          "time": 23.125,
          "velocity": 0.3937007874015748
        },
        {
          "duration": 0.15625,
          "durationTicks": 96,
          "midi": 80,
          "name": "G#5",
          "ticks": 14400,
          "time": 23.4375,
          "velocity": 0.3937007874015748
        },
        {
          "duration": 0.15625,
          "durationTicks": 96,
          "midi": 80,
          "name": "G#5",
          "ticks": 14496,
          "time": 23.59375,
          "velocity": 0.3937007874015748
        },
        {
          "duration": 0.15625,
          "durationTicks": 96,
          "midi": 78,
          "name": "F#5",
          "ticks": 14592,
          "time": 23.75,
          "velocity": 0.3937007874015748
        },
        {
          "duration": 0.625,
          "durationTicks": 384,
          "midi": 58,
          "name": "A#3",
          "ticks": 14592,
          "time": 23.75,
          "velocity": 0.3937007874015748
        },
        {
          "duration": 0.625,
          "durationTicks": 384,
          "midi": 66,
          "name": "F#4",
          "ticks": 14592,
          "time": 23.75,
          "velocity": 0.3937007874015748
        },
        {
          "duration": 0.625,
          "durationTicks": 384,
          "midi": 51,
          "name": "D#3",
          "ticks": 14592,
          "time": 23.75,
          "velocity": 0.3937007874015748
        },
        {
          "duration": 0.15625,
          "durationTicks": 96,
          "midi": 78,
          "name": "F#5",
          "ticks": 14688,
          "time": 23.90625,
          "velocity": 0.3937007874015748
        },
        {
          "duration": 0.15625,
          "durationTicks": 96,
          "midi": 78,
          "name": "F#5",
          "ticks": 14784,
          "time": 24.0625,
          "velocity": 0.3937007874015748
        },
        {
          "duration": 0.15625,
          "durationTicks": 96,
          "midi": 78,
          "name": "F#5",
          "ticks": 14880,
          "time": 24.21875,
          "velocity": 0.3937007874015748
        },
        {
          "duration": 0.625,
          "durationTicks": 384,
          "midi": 63,
          "name": "D#4",
          "ticks": 14976,
          "time": 24.375,
          "velocity": 0.3937007874015748
        },
        {
          "duration": 0.625,
          "durationTicks": 384,
          "midi": 66,
          "name": "F#4",
          "ticks": 14976,
          "time": 24.375,
          "velocity": 0.3937007874015748
        },
        {
          "duration": 0.625,
          "durationTicks": 384,
          "midi": 56,
          "name": "G#3",
          "ticks": 14976,
          "time": 24.375,
          "velocity": 0.3937007874015748
        },
        {
          "duration": 0.3125,
          "durationTicks": 192,
          "midi": 80,
          "name": "G#5",
          "ticks": 14976,
          "time": 24.375,
          "velocity": 0.3937007874015748
        },
        {
          "duration": 0.15625,
          "durationTicks": 96,
          "midi": 80,
          "name": "G#5",
          "ticks": 15168,
          "time": 24.6875,
          "velocity": 0.3937007874015748
        },
        {
          "duration": 0.15625,
          "durationTicks": 96,
          "midi": 77,
          "name": "F5",
          "ticks": 15264,
          "time": 24.84375,
          "velocity": 0.3937007874015748
        },
        {
          "duration": 1.25,
          "durationTicks": 768,
          "midi": 60,
          "name": "C4",
          "ticks": 15360,
          "time": 25,
          "velocity": 0.3937007874015748
        },
        {
          "duration": 1.25,
          "durationTicks": 768,
          "midi": 49,
          "name": "C#3",
          "ticks": 15360,
          "time": 25,
          "velocity": 0.3937007874015748
        },
        {
          "duration": 1.25,
          "durationTicks": 768,
          "midi": 56,
          "name": "G#3",
          "ticks": 15360,
          "time": 25,
          "velocity": 0.3937007874015748
        },
        {
          "duration": 1.25,
          "durationTicks": 768,
          "midi": 65,
          "name": "F4",
          "ticks": 15360,
          "time": 25,
          "velocity": 0.3937007874015748
        },
        {
          "duration": 0.3125,
          "durationTicks": 192,
          "midi": 77,
          "name": "F5",
          "ticks": 15552,
          "time": 25.3125,
          "velocity": 0.3937007874015748
        },
        {
          "duration": 0.3125,
          "durationTicks": 192,
          "midi": 77,
          "name": "F5",
          "ticks": 15744,
          "time": 25.625,
          "velocity": 0.3937007874015748
        },
        {
          "duration": 0.3125,
          "durationTicks": 192,
          "midi": 77,
          "name": "F5",
          "ticks": 15936,
          "time": 25.9375,
          "velocity": 0.3937007874015748
        },
        {
          "duration": 1.25,
          "durationTicks": 768,
          "midi": 48,
          "name": "C3",
          "ticks": 16128,
          "time": 26.25,
          "velocity": 0.3937007874015748
        },
        {
          "duration": 1.25,
          "durationTicks": 768,
          "midi": 55,
          "name": "G3",
          "ticks": 16128,
          "time": 26.25,
          "velocity": 0.3937007874015748
        },
        {
          "duration": 1.25,
          "durationTicks": 768,
          "midi": 58,
          "name": "A#3",
          "ticks": 16128,
          "time": 26.25,
          "velocity": 0.3937007874015748
        },
        {
          "duration": 0.15625,
          "durationTicks": 96,
          "midi": 76,
          "name": "E5",
          "ticks": 16128,
          "time": 26.25,
          "velocity": 0.3937007874015748
        },
        {
          "duration": 1.25,
          "durationTicks": 768,
          "midi": 64,
          "name": "E4",
          "ticks": 16128,
          "time": 26.25,
          "velocity": 0.3937007874015748
        },
        {
          "duration": 0.3125,
          "durationTicks": 192,
          "midi": 76,
          "name": "E5",
          "ticks": 16224,
          "time": 26.40625,
          "velocity": 0.3937007874015748
        },
        {
          "duration": 0.15625,
          "durationTicks": 96,
          "midi": 76,
          "name": "E5",
          "ticks": 16416,
          "time": 26.71875,
          "velocity": 0.3937007874015748
        },
        {
          "duration": 1.875,
          "durationTicks": 1152,
          "midi": 65,
          "name": "F4",
          "ticks": 16896,
          "time": 27.5,
          "velocity": 0.3937007874015748
        },
        {
          "duration": 1.875,
          "durationTicks": 1152,
          "midi": 56,
          "name": "G#3",
          "ticks": 16896,
          "time": 27.5,
          "velocity": 0.3937007874015748
        },
        {
          "duration": 1.875,
          "durationTicks": 1152,
          "midi": 53,
          "name": "F3",
          "ticks": 16896,
          "time": 27.5,
          "velocity": 0.3937007874015748
        },
        {
          "duration": 1.875,
          "durationTicks": 1152,
          "midi": 60,
          "name": "C4",
          "ticks": 16896,
          "time": 27.5,
          "velocity": 0.3937007874015748
        },
        {
          "duration": 0.3125,
          "durationTicks": 192,
          "midi": 77,
          "name": "F5",
          "ticks": 17088,
          "time": 27.8125,
          "velocity": 0.3937007874015748
        },
        {
          "duration": 0.3125,
          "durationTicks": 192,
          "midi": 77,
          "name": "F5",
          "ticks": 17280,
          "time": 28.125,
          "velocity": 0.3937007874015748
        },
        {
          "duration": 0.3125,
          "durationTicks": 192,
          "midi": 77,
          "name": "F5",
          "ticks": 17472,
          "time": 28.4375,
          "velocity": 0.3937007874015748
        },
        {
          "duration": 0.15625,
          "durationTicks": 96,
          "midi": 77,
          "name": "F5",
          "ticks": 17664,
          "time": 28.75,
          "velocity": 0.3937007874015748
        },
        {
          "duration": 0.3125,
          "durationTicks": 192,
          "midi": 77,
          "name": "F5",
          "ticks": 17760,
          "time": 28.90625,
          "velocity": 0.3937007874015748
        },
        {
          "duration": 0.15625,
          "durationTicks": 96,
          "midi": 77,
          "name": "F5",
          "ticks": 17952,
          "time": 29.21875,
          "velocity": 0.3937007874015748
        },
        {
          "duration": 0.15625,
          "durationTicks": 96,
          "midi": 77,
          "name": "F5",
          "ticks": 18240,
          "time": 29.6875,
          "velocity": 0.3937007874015748
        },
        {
          "duration": 0.15625,
          "durationTicks": 96,
          "midi": 89,
          "name": "F6",
          "ticks": 18240,
          "time": 29.6875,
          "velocity": 0.3937007874015748
        },
        {
          "duration": 0.15625,
          "durationTicks": 96,
          "midi": 77,
          "name": "F5",
          "ticks": 18336,
          "time": 29.84375,
          "velocity": 0.3937007874015748
        },
        {
          "duration": 0.15625,
          "durationTicks": 96,
          "midi": 89,
          "name": "F6",
          "ticks": 18336,
          "time": 29.84375,
          "velocity": 0.3937007874015748
        },
        {
          "duration": 0.625,
          "durationTicks": 384,
          "midi": 37,
          "name": "C#2",
          "ticks": 18432,
          "time": 30,
          "velocity": 0.3937007874015748
        },
        {
          "duration": 0.3125,
          "durationTicks": 192,
          "midi": 77,
          "name": "F5",
          "ticks": 18432,
          "time": 30,
          "velocity": 0.3937007874015748
        },
        {
          "duration": 0.625,
          "durationTicks": 384,
          "midi": 49,
          "name": "C#3",
          "ticks": 18432,
          "time": 30,
          "velocity": 0.3937007874015748
        },
        {
          "duration": 0.625,
          "durationTicks": 384,
          "midi": 68,
          "name": "G#4",
          "ticks": 18432,
          "time": 30,
          "velocity": 0.3937007874015748
        },
        {
          "duration": 0.625,
          "durationTicks": 384,
          "midi": 61,
          "name": "C#4",
          "ticks": 18432,
          "time": 30,
          "velocity": 0.3937007874015748
        },
        {
          "duration": 0.3125,
          "durationTicks": 192,
          "midi": 89,
          "name": "F6",
          "ticks": 18432,
          "time": 30,
          "velocity": 0.3937007874015748
        },
        {
          "duration": 0.625,
          "durationTicks": 384,
          "midi": 56,
          "name": "G#3",
          "ticks": 18432,
          "time": 30,
          "velocity": 0.3937007874015748
        },
        {
          "duration": 0.3125,
          "durationTicks": 192,
          "midi": 89,
          "name": "F6",
          "ticks": 18624,
          "time": 30.3125,
          "velocity": 0.3937007874015748
        },
        {
          "duration": 0.3125,
          "durationTicks": 192,
          "midi": 77,
          "name": "F5",
          "ticks": 18624,
          "time": 30.3125,
          "velocity": 0.3937007874015748
        },
        {
          "duration": 0.15625,
          "durationTicks": 96,
          "midi": 80,
          "name": "G#5",
          "ticks": 18816,
          "time": 30.625,
          "velocity": 0.3937007874015748
        },
        {
          "duration": 0.15625,
          "durationTicks": 96,
          "midi": 92,
          "name": "G#6",
          "ticks": 18816,
          "time": 30.625,
          "velocity": 0.3937007874015748
        },
        {
          "duration": 0.625,
          "durationTicks": 384,
          "midi": 68,
          "name": "G#4",
          "ticks": 18816,
          "time": 30.625,
          "velocity": 0.3937007874015748
        },
        {
          "duration": 0.625,
          "durationTicks": 384,
          "midi": 65,
          "name": "F4",
          "ticks": 18816,
          "time": 30.625,
          "velocity": 0.3937007874015748
        },
        {
          "duration": 0.625,
          "durationTicks": 384,
          "midi": 61,
          "name": "C#4",
          "ticks": 18816,
          "time": 30.625,
          "velocity": 0.3937007874015748
        },
        {
          "duration": 0.625,
          "durationTicks": 384,
          "midi": 72,
          "name": "C5",
          "ticks": 18816,
          "time": 30.625,
          "velocity": 0.3937007874015748
        },
        {
          "duration": 0.15625,
          "durationTicks": 96,
          "midi": 91,
          "name": "G6",
          "ticks": 18912,
          "time": 30.78125,
          "velocity": 0.3937007874015748
        },
        {
          "duration": 0.15625,
          "durationTicks": 96,
          "midi": 79,
          "name": "G5",
          "ticks": 18912,
          "time": 30.78125,
          "velocity": 0.3937007874015748
        },
        {
          "duration": 0.15625,
          "durationTicks": 96,
          "midi": 77,
          "name": "F5",
          "ticks": 19008,
          "time": 30.9375,
          "velocity": 0.3937007874015748
        },
        {
          "duration": 0.15625,
          "durationTicks": 96,
          "midi": 89,
          "name": "F6",
          "ticks": 19008,
          "time": 30.9375,
          "velocity": 0.3937007874015748
        },
        {
          "duration": 0.15625,
          "durationTicks": 96,
          "midi": 91,
          "name": "G6",
          "ticks": 19104,
          "time": 31.09375,
          "velocity": 0.3937007874015748
        },
        {
          "duration": 0.15625,
          "durationTicks": 96,
          "midi": 79,
          "name": "G5",
          "ticks": 19104,
          "time": 31.09375,
          "velocity": 0.3937007874015748
        },
        {
          "duration": 0.3125,
          "durationTicks": 192,
          "midi": 79,
          "name": "G5",
          "ticks": 19200,
          "time": 31.25,
          "velocity": 0.3937007874015748
        },
        {
          "duration": 0.625,
          "durationTicks": 384,
          "midi": 41,
          "name": "F2",
          "ticks": 19200,
          "time": 31.25,
          "velocity": 0.3937007874015748
        },
        {
          "duration": 0.625,
          "durationTicks": 384,
          "midi": 53,
          "name": "F3",
          "ticks": 19200,
          "time": 31.25,
          "velocity": 0.3937007874015748
        },
        {
          "duration": 0.3125,
          "durationTicks": 192,
          "midi": 91,
          "name": "G6",
          "ticks": 19200,
          "time": 31.25,
          "velocity": 0.3937007874015748
        },
        {
          "duration": 0.625,
          "durationTicks": 384,
          "midi": 68,
          "name": "G#4",
          "ticks": 19200,
          "time": 31.25,
          "velocity": 0.3937007874015748
        },
        {
          "duration": 0.625,
          "durationTicks": 384,
          "midi": 60,
          "name": "C4",
          "ticks": 19200,
          "time": 31.25,
          "velocity": 0.3937007874015748
        },
        {
          "duration": 0.625,
          "durationTicks": 384,
          "midi": 72,
          "name": "C5",
          "ticks": 19200,
          "time": 31.25,
          "velocity": 0.3937007874015748
        },
        {
          "duration": 0.3125,
          "durationTicks": 192,
          "midi": 92,
          "name": "G#6",
          "ticks": 19392,
          "time": 31.5625,
          "velocity": 0.3937007874015748
        },
        {
          "duration": 0.3125,
          "durationTicks": 192,
          "midi": 80,
          "name": "G#5",
          "ticks": 19392,
          "time": 31.5625,
          "velocity": 0.3937007874015748
        },
        {
          "duration": 0.625,
          "durationTicks": 384,
          "midi": 72,
          "name": "C5",
          "ticks": 19584,
          "time": 31.875,
          "velocity": 0.3937007874015748
        },
        {
          "duration": 0.625,
          "durationTicks": 384,
          "midi": 65,
          "name": "F4",
          "ticks": 19584,
          "time": 31.875,
          "velocity": 0.3937007874015748
        },
        {
          "duration": 0.625,
          "durationTicks": 384,
          "midi": 68,
          "name": "G#4",
          "ticks": 19584,
          "time": 31.875,
          "velocity": 0.3937007874015748
        },
        {
          "duration": 0.625,
          "durationTicks": 384,
          "midi": 60,
          "name": "C4",
          "ticks": 19584,
          "time": 31.875,
          "velocity": 0.3937007874015748
        },
        {
          "duration": 0.15625,
          "durationTicks": 96,
          "midi": 89,
          "name": "F6",
          "ticks": 19776,
          "time": 32.1875,
          "velocity": 0.3937007874015748
        },
        {
          "duration": 0.15625,
          "durationTicks": 96,
          "midi": 77,
          "name": "F5",
          "ticks": 19776,
          "time": 32.1875,
          "velocity": 0.3937007874015748
        },
        {
          "duration": 0.15625,
          "durationTicks": 96,
          "midi": 77,
          "name": "F5",
          "ticks": 19872,
          "time": 32.34375,
          "velocity": 0.3937007874015748
        },
        {
          "duration": 0.15625,
          "durationTicks": 96,
          "midi": 89,
          "name": "F6",
          "ticks": 19872,
          "time": 32.34375,
          "velocity": 0.3937007874015748
        },
        {
          "duration": 0.3125,
          "durationTicks": 192,
          "midi": 89,
          "name": "F6",
          "ticks": 19968,
          "time": 32.5,
          "velocity": 0.3937007874015748
        },
        {
          "duration": 0.625,
          "durationTicks": 384,
          "midi": 37,
          "name": "C#2",
          "ticks": 19968,
          "time": 32.5,
          "velocity": 0.3937007874015748
        },
        {
          "duration": 0.625,
          "durationTicks": 384,
          "midi": 61,
          "name": "C#4",
          "ticks": 19968,
          "time": 32.5,
          "velocity": 0.3937007874015748
        },
        {
          "duration": 0.3125,
          "durationTicks": 192,
          "midi": 77,
          "name": "F5",
          "ticks": 19968,
          "time": 32.5,
          "velocity": 0.3937007874015748
        },
        {
          "duration": 0.625,
          "durationTicks": 384,
          "midi": 68,
          "name": "G#4",
          "ticks": 19968,
          "time": 32.5,
          "velocity": 0.3937007874015748
        },
        {
          "duration": 0.625,
          "durationTicks": 384,
          "midi": 49,
          "name": "C#3",
          "ticks": 19968,
          "time": 32.5,
          "velocity": 0.3937007874015748
        },
        {
          "duration": 0.625,
          "durationTicks": 384,
          "midi": 56,
          "name": "G#3",
          "ticks": 19968,
          "time": 32.5,
          "velocity": 0.3937007874015748
        },
        {
          "duration": 0.3125,
          "durationTicks": 192,
          "midi": 89,
          "name": "F6",
          "ticks": 20160,
          "time": 32.8125,
          "velocity": 0.3937007874015748
        },
        {
          "duration": 0.3125,
          "durationTicks": 192,
          "midi": 77,
          "name": "F5",
          "ticks": 20160,
          "time": 32.8125,
          "velocity": 0.3937007874015748
        },
        {
          "duration": 0.15625,
          "durationTicks": 96,
          "midi": 80,
          "name": "G#5",
          "ticks": 20352,
          "time": 33.125,
          "velocity": 0.3937007874015748
        },
        {
          "duration": 0.15625,
          "durationTicks": 96,
          "midi": 92,
          "name": "G#6",
          "ticks": 20352,
          "time": 33.125,
          "velocity": 0.3937007874015748
        },
        {
          "duration": 0.625,
          "durationTicks": 384,
          "midi": 56,
          "name": "G#3",
          "ticks": 20352,
          "time": 33.125,
          "velocity": 0.3937007874015748
        },
        {
          "duration": 0.625,
          "durationTicks": 384,
          "midi": 41,
          "name": "F2",
          "ticks": 20352,
          "time": 33.125,
          "velocity": 0.3937007874015748
        },
        {
          "duration": 0.625,
          "durationTicks": 384,
          "midi": 68,
          "name": "G#4",
          "ticks": 20352,
          "time": 33.125,
          "velocity": 0.3937007874015748
        },
        {
          "duration": 0.625,
          "durationTicks": 384,
          "midi": 49,
          "name": "C#3",
          "ticks": 20352,
          "time": 33.125,
          "velocity": 0.3937007874015748
        },
        {
          "duration": 0.625,
          "durationTicks": 384,
          "midi": 61,
          "name": "C#4",
          "ticks": 20352,
          "time": 33.125,
          "velocity": 0.3937007874015748
        },
        {
          "duration": 0.625,
          "durationTicks": 384,
          "midi": 72,
          "name": "C5",
          "ticks": 20352,
          "time": 33.125,
          "velocity": 0.3937007874015748
        },
        {
          "duration": 0.15625,
          "durationTicks": 96,
          "midi": 91,
          "name": "G6",
          "ticks": 20448,
          "time": 33.28125,
          "velocity": 0.3937007874015748
        },
        {
          "duration": 0.15625,
          "durationTicks": 96,
          "midi": 79,
          "name": "G5",
          "ticks": 20448,
          "time": 33.28125,
          "velocity": 0.3937007874015748
        },
        {
          "duration": 0.15625,
          "durationTicks": 96,
          "midi": 77,
          "name": "F5",
          "ticks": 20544,
          "time": 33.4375,
          "velocity": 0.3937007874015748
        },
        {
          "duration": 0.15625,
          "durationTicks": 96,
          "midi": 89,
          "name": "F6",
          "ticks": 20544,
          "time": 33.4375,
          "velocity": 0.3937007874015748
        },
        {
          "duration": 0.15625,
          "durationTicks": 96,
          "midi": 84,
          "name": "C6",
          "ticks": 20640,
          "time": 33.59375,
          "velocity": 0.3937007874015748
        },
        {
          "duration": 0.625,
          "durationTicks": 384,
          "midi": 41,
          "name": "F2",
          "ticks": 20736,
          "time": 33.75,
          "velocity": 0.3937007874015748
        },
        {
          "duration": 0.625,
          "durationTicks": 384,
          "midi": 68,
          "name": "G#4",
          "ticks": 20736,
          "time": 33.75,
          "velocity": 0.3937007874015748
        },
        {
          "duration": 0.3125,
          "durationTicks": 192,
          "midi": 84,
          "name": "C6",
          "ticks": 20736,
          "time": 33.75,
          "velocity": 0.3937007874015748
        },
        {
          "duration": 0.625,
          "durationTicks": 384,
          "midi": 60,
          "name": "C4",
          "ticks": 20736,
          "time": 33.75,
          "velocity": 0.3937007874015748
        },
        {
          "duration": 0.625,
          "durationTicks": 384,
          "midi": 53,
          "name": "F3",
          "ticks": 20736,
          "time": 33.75,
          "velocity": 0.3937007874015748
        },
        {
          "duration": 0.625,
          "durationTicks": 384,
          "midi": 72,
          "name": "C5",
          "ticks": 20736,
          "time": 33.75,
          "velocity": 0.3937007874015748
        },
        {
          "duration": 0.3125,
          "durationTicks": 192,
          "midi": 77,
          "name": "F5",
          "ticks": 20928,
          "time": 34.0625,
          "velocity": 0.3937007874015748
        },
        {
          "duration": 0.3125,
          "durationTicks": 192,
          "midi": 89,
          "name": "F6",
          "ticks": 20928,
          "time": 34.0625,
          "velocity": 0.3937007874015748
        },
        {
          "duration": 0.625,
          "durationTicks": 384,
          "midi": 72,
          "name": "C5",
          "ticks": 21120,
          "time": 34.375,
          "velocity": 0.3937007874015748
        },
        {
          "duration": 0.625,
          "durationTicks": 384,
          "midi": 68,
          "name": "G#4",
          "ticks": 21120,
          "time": 34.375,
          "velocity": 0.3937007874015748
        },
        {
          "duration": 0.625,
          "durationTicks": 384,
          "midi": 60,
          "name": "C4",
          "ticks": 21120,
          "time": 34.375,
          "velocity": 0.3937007874015748
        },
        {
          "duration": 0.625,
          "durationTicks": 384,
          "midi": 65,
          "name": "F4",
          "ticks": 21120,
          "time": 34.375,
          "velocity": 0.3937007874015748
        },
        {
          "duration": 0.15625,
          "durationTicks": 96,
          "midi": 89,
          "name": "F6",
          "ticks": 21312,
          "time": 34.6875,
          "velocity": 0.3937007874015748
        },
        {
          "duration": 0.15625,
          "durationTicks": 96,
          "midi": 77,
          "name": "F5",
          "ticks": 21312,
          "time": 34.6875,
          "velocity": 0.3937007874015748
        },
        {
          "duration": 0.15625,
          "durationTicks": 96,
          "midi": 89,
          "name": "F6",
          "ticks": 21408,
          "time": 34.84375,
          "velocity": 0.3937007874015748
        },
        {
          "duration": 0.15625,
          "durationTicks": 96,
          "midi": 77,
          "name": "F5",
          "ticks": 21408,
          "time": 34.84375,
          "velocity": 0.3937007874015748
        },
        {
          "duration": 0.625,
          "durationTicks": 384,
          "midi": 56,
          "name": "G#3",
          "ticks": 21504,
          "time": 35,
          "velocity": 0.3937007874015748
        },
        {
          "duration": 0.3125,
          "durationTicks": 192,
          "midi": 77,
          "name": "F5",
          "ticks": 21504,
          "time": 35,
          "velocity": 0.3937007874015748
        },
        {
          "duration": 0.625,
          "durationTicks": 384,
          "midi": 61,
          "name": "C#4",
          "ticks": 21504,
          "time": 35,
          "velocity": 0.3937007874015748
        },
        {
          "duration": 0.625,
          "durationTicks": 384,
          "midi": 49,
          "name": "C#3",
          "ticks": 21504,
          "time": 35,
          "velocity": 0.3937007874015748
        },
        {
          "duration": 0.625,
          "durationTicks": 384,
          "midi": 37,
          "name": "C#2",
          "ticks": 21504,
          "time": 35,
          "velocity": 0.3937007874015748
        },
        {
          "duration": 0.625,
          "durationTicks": 384,
          "midi": 68,
          "name": "G#4",
          "ticks": 21504,
          "time": 35,
          "velocity": 0.3937007874015748
        },
        {
          "duration": 0.3125,
          "durationTicks": 192,
          "midi": 89,
          "name": "F6",
          "ticks": 21504,
          "time": 35,
          "velocity": 0.3937007874015748
        },
        {
          "duration": 0.3125,
          "durationTicks": 192,
          "midi": 89,
          "name": "F6",
          "ticks": 21696,
          "time": 35.3125,
          "velocity": 0.3937007874015748
        },
        {
          "duration": 0.3125,
          "durationTicks": 192,
          "midi": 77,
          "name": "F5",
          "ticks": 21696,
          "time": 35.3125,
          "velocity": 0.3937007874015748
        },
        {
          "duration": 0.15625,
          "durationTicks": 96,
          "midi": 92,
          "name": "G#6",
          "ticks": 21888,
          "time": 35.625,
          "velocity": 0.3937007874015748
        },
        {
          "duration": 0.15625,
          "durationTicks": 96,
          "midi": 80,
          "name": "G#5",
          "ticks": 21888,
          "time": 35.625,
          "velocity": 0.3937007874015748
        },
        {
          "duration": 0.625,
          "durationTicks": 384,
          "midi": 72,
          "name": "C5",
          "ticks": 21888,
          "time": 35.625,
          "velocity": 0.3937007874015748
        },
        {
          "duration": 0.625,
          "durationTicks": 384,
          "midi": 68,
          "name": "G#4",
          "ticks": 21888,
          "time": 35.625,
          "velocity": 0.3937007874015748
        },
        {
          "duration": 0.625,
          "durationTicks": 384,
          "midi": 65,
          "name": "F4",
          "ticks": 21888,
          "time": 35.625,
          "velocity": 0.3937007874015748
        },
        {
          "duration": 0.625,
          "durationTicks": 384,
          "midi": 61,
          "name": "C#4",
          "ticks": 21888,
          "time": 35.625,
          "velocity": 0.3937007874015748
        },
        {
          "duration": 0.15625,
          "durationTicks": 96,
          "midi": 79,
          "name": "G5",
          "ticks": 21984,
          "time": 35.78125,
          "velocity": 0.3937007874015748
        },
        {
          "duration": 0.15625,
          "durationTicks": 96,
          "midi": 91,
          "name": "G6",
          "ticks": 21984,
          "time": 35.78125,
          "velocity": 0.3937007874015748
        },
        {
          "duration": 0.15625,
          "durationTicks": 96,
          "midi": 89,
          "name": "F6",
          "ticks": 22080,
          "time": 35.9375,
          "velocity": 0.3937007874015748
        },
        {
          "duration": 0.15625,
          "durationTicks": 96,
          "midi": 77,
          "name": "F5",
          "ticks": 22080,
          "time": 35.9375,
          "velocity": 0.3937007874015748
        },
        {
          "duration": 0.15625,
          "durationTicks": 96,
          "midi": 91,
          "name": "G6",
          "ticks": 22176,
          "time": 36.09375,
          "velocity": 0.3937007874015748
        },
        {
          "duration": 0.15625,
          "durationTicks": 96,
          "midi": 79,
          "name": "G5",
          "ticks": 22176,
          "time": 36.09375,
          "velocity": 0.3937007874015748
        },
        {
          "duration": 0.625,
          "durationTicks": 384,
          "midi": 53,
          "name": "F3",
          "ticks": 22272,
          "time": 36.25,
          "velocity": 0.3937007874015748
        },
        {
          "duration": 0.625,
          "durationTicks": 384,
          "midi": 68,
          "name": "G#4",
          "ticks": 22272,
          "time": 36.25,
          "velocity": 0.3937007874015748
        },
        {
          "duration": 0.3125,
          "durationTicks": 192,
          "midi": 79,
          "name": "G5",
          "ticks": 22272,
          "time": 36.25,
          "velocity": 0.3937007874015748
        },
        {
          "duration": 0.625,
          "durationTicks": 384,
          "midi": 72,
          "name": "C5",
          "ticks": 22272,
          "time": 36.25,
          "velocity": 0.3937007874015748
        },
        {
          "duration": 0.3125,
          "durationTicks": 192,
          "midi": 91,
          "name": "G6",
          "ticks": 22272,
          "time": 36.25,
          "velocity": 0.3937007874015748
        },
        {
          "duration": 0.625,
          "durationTicks": 384,
          "midi": 60,
          "name": "C4",
          "ticks": 22272,
          "time": 36.25,
          "velocity": 0.3937007874015748
        },
        {
          "duration": 0.625,
          "durationTicks": 384,
          "midi": 41,
          "name": "F2",
          "ticks": 22272,
          "time": 36.25,
          "velocity": 0.3937007874015748
        },
        {
          "duration": 0.3125,
          "durationTicks": 192,
          "midi": 92,
          "name": "G#6",
          "ticks": 22464,
          "time": 36.5625,
          "velocity": 0.3937007874015748
        },
        {
          "duration": 0.3125,
          "durationTicks": 192,
          "midi": 80,
          "name": "G#5",
          "ticks": 22464,
          "time": 36.5625,
          "velocity": 0.3937007874015748
        },
        {
          "duration": 0.625,
          "durationTicks": 384,
          "midi": 68,
          "name": "G#4",
          "ticks": 22656,
          "time": 36.875,
          "velocity": 0.3937007874015748
        },
        {
          "duration": 0.625,
          "durationTicks": 384,
          "midi": 72,
          "name": "C5",
          "ticks": 22656,
          "time": 36.875,
          "velocity": 0.3937007874015748
        },
        {
          "duration": 0.625,
          "durationTicks": 384,
          "midi": 60,
          "name": "C4",
          "ticks": 22656,
          "time": 36.875,
          "velocity": 0.3937007874015748
        },
        {
          "duration": 0.625,
          "durationTicks": 384,
          "midi": 65,
          "name": "F4",
          "ticks": 22656,
          "time": 36.875,
          "velocity": 0.3937007874015748
        },
        {
          "duration": 0.15625,
          "durationTicks": 96,
          "midi": 82,
          "name": "A#5",
          "ticks": 22848,
          "time": 37.1875,
          "velocity": 0.3937007874015748
        },
        {
          "duration": 0.15625,
          "durationTicks": 96,
          "midi": 80,
          "name": "G#5",
          "ticks": 22944,
          "time": 37.34375,
          "velocity": 0.3937007874015748
        },
        {
          "duration": 0.625,
          "durationTicks": 384,
          "midi": 73,
          "name": "C#5",
          "ticks": 23040,
          "time": 37.5,
          "velocity": 0.3937007874015748
        },
        {
          "duration": 0.625,
          "durationTicks": 384,
          "midi": 54,
          "name": "F#3",
          "ticks": 23040,
          "time": 37.5,
          "velocity": 0.3937007874015748
        },
        {
          "duration": 0.2083333333333357,
          "durationTicks": 128,
          "midi": 82,
          "name": "A#5",
          "ticks": 23040,
          "time": 37.5,
          "velocity": 0.3937007874015748
        },
        {
          "duration": 0.625,
          "durationTicks": 384,
          "midi": 61,
          "name": "C#4",
          "ticks": 23040,
          "time": 37.5,
          "velocity": 0.3937007874015748
        },
        {
          "duration": 0.625,
          "durationTicks": 384,
          "midi": 66,
          "name": "F#4",
          "ticks": 23040,
          "time": 37.5,
          "velocity": 0.3937007874015748
        },
        {
          "duration": 0.2083333333333286,
          "durationTicks": 128,
          "midi": 82,
          "name": "A#5",
          "ticks": 23168,
          "time": 37.708333333333336,
          "velocity": 0.3937007874015748
        },
        {
          "duration": 0.2083333333333357,
          "durationTicks": 128,
          "midi": 80,
          "name": "G#5",
          "ticks": 23296,
          "time": 37.916666666666664,
          "velocity": 0.3937007874015748
        },
        {
          "duration": 0.625,
          "durationTicks": 384,
          "midi": 66,
          "name": "F#4",
          "ticks": 23424,
          "time": 38.125,
          "velocity": 0.3937007874015748
        },
        {
          "duration": 0.2083333333333357,
          "durationTicks": 128,
          "midi": 82,
          "name": "A#5",
          "ticks": 23424,
          "time": 38.125,
          "velocity": 0.3937007874015748
        },
        {
          "duration": 0.625,
          "durationTicks": 384,
          "midi": 73,
          "name": "C#5",
          "ticks": 23424,
          "time": 38.125,
          "velocity": 0.3937007874015748
        },
        {
          "duration": 0.625,
          "durationTicks": 384,
          "midi": 70,
          "name": "A#4",
          "ticks": 23424,
          "time": 38.125,
          "velocity": 0.3937007874015748
        },
        {
          "duration": 0.625,
          "durationTicks": 384,
          "midi": 77,
          "name": "F5",
          "ticks": 23424,
          "time": 38.125,
          "velocity": 0.3937007874015748
        },
        {
          "duration": 0.2083333333333286,
          "durationTicks": 128,
          "midi": 82,
          "name": "A#5",
          "ticks": 23552,
          "time": 38.333333333333336,
          "velocity": 0.3937007874015748
        },
        {
          "duration": 0.2083333333333357,
          "durationTicks": 128,
          "midi": 84,
          "name": "C6",
          "ticks": 23680,
          "time": 38.541666666666664,
          "velocity": 0.3937007874015748
        },
        {
          "duration": 0.3125,
          "durationTicks": 192,
          "midi": 82,
          "name": "A#5",
          "ticks": 23808,
          "time": 38.75,
          "velocity": 0.3937007874015748
        },
        {
          "duration": 0.625,
          "durationTicks": 384,
          "midi": 60,
          "name": "C4",
          "ticks": 23808,
          "time": 38.75,
          "velocity": 0.3937007874015748
        },
        {
          "duration": 0.625,
          "durationTicks": 384,
          "midi": 76,
          "name": "E5",
          "ticks": 23808,
          "time": 38.75,
          "velocity": 0.3937007874015748
        },
        {
          "duration": 0.625,
          "durationTicks": 384,
          "midi": 67,
          "name": "G4",
          "ticks": 23808,
          "time": 38.75,
          "velocity": 0.3937007874015748
        },
        {
          "duration": 0.625,
          "durationTicks": 384,
          "midi": 70,
          "name": "A#4",
          "ticks": 23808,
          "time": 38.75,
          "velocity": 0.3937007874015748
        },
        {
          "duration": 0.625,
          "durationTicks": 384,
          "midi": 64,
          "name": "E4",
          "ticks": 23808,
          "time": 38.75,
          "velocity": 0.3937007874015748
        },
        {
          "duration": 0.3125,
          "durationTicks": 192,
          "midi": 77,
          "name": "F5",
          "ticks": 24000,
          "time": 39.0625,
          "velocity": 0.3937007874015748
        },
        {
          "duration": 0.625,
          "durationTicks": 384,
          "midi": 48,
          "name": "C3",
          "ticks": 24192,
          "time": 39.375,
          "velocity": 0.3937007874015748
        },
        {
          "duration": 0.625,
          "durationTicks": 384,
          "midi": 60,
          "name": "C4",
          "ticks": 24192,
          "time": 39.375,
          "velocity": 0.3937007874015748
        },
        {
          "duration": 0.625,
          "durationTicks": 384,
          "midi": 55,
          "name": "G3",
          "ticks": 24192,
          "time": 39.375,
          "velocity": 0.3937007874015748
        },
        {
          "duration": 0.625,
          "durationTicks": 384,
          "midi": 64,
          "name": "E4",
          "ticks": 24192,
          "time": 39.375,
          "velocity": 0.3937007874015748
        },
        {
          "duration": 0.15625,
          "durationTicks": 96,
          "midi": 84,
          "name": "C6",
          "ticks": 24192,
          "time": 39.375,
          "velocity": 0.3937007874015748
        },
        {
          "duration": 0.15625,
          "durationTicks": 96,
          "midi": 82,
          "name": "A#5",
          "ticks": 24288,
          "time": 39.53125,
          "velocity": 0.3937007874015748
        },
        {
          "duration": 0.15625,
          "durationTicks": 96,
          "midi": 80,
          "name": "G#5",
          "ticks": 24384,
          "time": 39.6875,
          "velocity": 0.3937007874015748
        },
        {
          "duration": 0.15625,
          "durationTicks": 96,
          "midi": 82,
          "name": "A#5",
          "ticks": 24480,
          "time": 39.84375,
          "velocity": 0.3937007874015748
        },
        {
          "duration": 0.625,
          "durationTicks": 384,
          "midi": 37,
          "name": "C#2",
          "ticks": 24576,
          "time": 40,
          "velocity": 0.3937007874015748
        },
        {
          "duration": 0.625,
          "durationTicks": 384,
          "midi": 56,
          "name": "G#3",
          "ticks": 24576,
          "time": 40,
          "velocity": 0.3937007874015748
        },
        {
          "duration": 0.625,
          "durationTicks": 384,
          "midi": 49,
          "name": "C#3",
          "ticks": 24576,
          "time": 40,
          "velocity": 0.3937007874015748
        },
        {
          "duration": 0.3125,
          "durationTicks": 192,
          "midi": 77,
          "name": "F5",
          "ticks": 24576,
          "time": 40,
          "velocity": 0.3937007874015748
        },
        {
          "duration": 0.625,
          "durationTicks": 384,
          "midi": 68,
          "name": "G#4",
          "ticks": 24576,
          "time": 40,
          "velocity": 0.3937007874015748
        },
        {
          "duration": 0.625,
          "durationTicks": 384,
          "midi": 61,
          "name": "C#4",
          "ticks": 24576,
          "time": 40,
          "velocity": 0.3937007874015748
        },
        {
          "duration": 0.15625,
          "durationTicks": 96,
          "midi": 77,
          "name": "F5",
          "ticks": 24768,
          "time": 40.3125,
          "velocity": 0.3937007874015748
        },
        {
          "duration": 0.15625,
          "durationTicks": 96,
          "midi": 77,
          "name": "F5",
          "ticks": 24864,
          "time": 40.46875,
          "velocity": 0.3937007874015748
        },
        {
          "duration": 0.3125,
          "durationTicks": 192,
          "midi": 84,
          "name": "C6",
          "ticks": 24960,
          "time": 40.625,
          "velocity": 0.3937007874015748
        },
        {
          "duration": 0.625,
          "durationTicks": 384,
          "midi": 72,
          "name": "C5",
          "ticks": 24960,
          "time": 40.625,
          "velocity": 0.3937007874015748
        },
        {
          "duration": 0.625,
          "durationTicks": 384,
          "midi": 68,
          "name": "G#4",
          "ticks": 24960,
          "time": 40.625,
          "velocity": 0.3937007874015748
        },
        {
          "duration": 0.625,
          "durationTicks": 384,
          "midi": 61,
          "name": "C#4",
          "ticks": 24960,
          "time": 40.625,
          "velocity": 0.3937007874015748
        },
        {
          "duration": 0.625,
          "durationTicks": 384,
          "midi": 65,
          "name": "F4",
          "ticks": 24960,
          "time": 40.625,
          "velocity": 0.3937007874015748
        },
        {
          "duration": 0.15625,
          "durationTicks": 96,
          "midi": 87,
          "name": "D#6",
          "ticks": 25152,
          "time": 40.9375,
          "velocity": 0.3937007874015748
        },
        {
          "duration": 0.15625,
          "durationTicks": 96,
          "midi": 87,
          "name": "D#6",
          "ticks": 25248,
          "time": 41.09375,
          "velocity": 0.3937007874015748
        },
        {
          "duration": 0.625,
          "durationTicks": 384,
          "midi": 56,
          "name": "G#3",
          "ticks": 25344,
          "time": 41.25,
          "velocity": 0.3937007874015748
        },
        {
          "duration": 0.3125,
          "durationTicks": 192,
          "midi": 84,
          "name": "C6",
          "ticks": 25344,
          "time": 41.25,
          "velocity": 0.3937007874015748
        },
        {
          "duration": 0.625,
          "durationTicks": 384,
          "midi": 60,
          "name": "C4",
          "ticks": 25344,
          "time": 41.25,
          "velocity": 0.3937007874015748
        },
        {
          "duration": 0.625,
          "durationTicks": 384,
          "midi": 44,
          "name": "G#2",
          "ticks": 25344,
          "time": 41.25,
          "velocity": 0.3937007874015748
        },
        {
          "duration": 0.625,
          "durationTicks": 384,
          "midi": 72,
          "name": "C5",
          "ticks": 25344,
          "time": 41.25,
          "velocity": 0.3937007874015748
        },
        {
          "duration": 0.625,
          "durationTicks": 384,
          "midi": 67,
          "name": "G4",
          "ticks": 25344,
          "time": 41.25,
          "velocity": 0.3937007874015748
        },
        {
          "duration": 0.15625,
          "durationTicks": 96,
          "midi": 84,
          "name": "C6",
          "ticks": 25728,
          "time": 41.875,
          "velocity": 0.3937007874015748
        },
        {
          "duration": 0.625,
          "durationTicks": 384,
          "midi": 60,
          "name": "C4",
          "ticks": 25728,
          "time": 41.875,
          "velocity": 0.3937007874015748
        },
        {
          "duration": 0.625,
          "durationTicks": 384,
          "midi": 67,
          "name": "G4",
          "ticks": 25728,
          "time": 41.875,
          "velocity": 0.3937007874015748
        },
        {
          "duration": 0.625,
          "durationTicks": 384,
          "midi": 72,
          "name": "C5",
          "ticks": 25728,
          "time": 41.875,
          "velocity": 0.3937007874015748
        },
        {
          "duration": 0.625,
          "durationTicks": 384,
          "midi": 63,
          "name": "D#4",
          "ticks": 25728,
          "time": 41.875,
          "velocity": 0.3937007874015748
        },
        {
          "duration": 0.15625,
          "durationTicks": 96,
          "midi": 82,
          "name": "A#5",
          "ticks": 25824,
          "time": 42.03125,
          "velocity": 0.3937007874015748
        },
        {
          "duration": 0.15625,
          "durationTicks": 96,
          "midi": 80,
          "name": "G#5",
          "ticks": 25920,
          "time": 42.1875,
          "velocity": 0.3937007874015748
        },
        {
          "duration": 0.15625,
          "durationTicks": 96,
          "midi": 82,
          "name": "A#5",
          "ticks": 26016,
          "time": 42.34375,
          "velocity": 0.3937007874015748
        },
        {
          "duration": 0.625,
          "durationTicks": 384,
          "midi": 37,
          "name": "C#2",
          "ticks": 26112,
          "time": 42.5,
          "velocity": 0.3937007874015748
        },
        {
          "duration": 0.625,
          "durationTicks": 384,
          "midi": 61,
          "name": "C#4",
          "ticks": 26112,
          "time": 42.5,
          "velocity": 0.3937007874015748
        },
        {
          "duration": 0.625,
          "durationTicks": 384,
          "midi": 68,
          "name": "G#4",
          "ticks": 26112,
          "time": 42.5,
          "velocity": 0.3937007874015748
        },
        {
          "duration": 0.3125,
          "durationTicks": 192,
          "midi": 77,
          "name": "F5",
          "ticks": 26112,
          "time": 42.5,
          "velocity": 0.3937007874015748
        },
        {
          "duration": 0.625,
          "durationTicks": 384,
          "midi": 49,
          "name": "C#3",
          "ticks": 26112,
          "time": 42.5,
          "velocity": 0.3937007874015748
        },
        {
          "duration": 0.625,
          "durationTicks": 384,
          "midi": 56,
          "name": "G#3",
          "ticks": 26112,
          "time": 42.5,
          "velocity": 0.3937007874015748
        },
        {
          "duration": 0.15625,
          "durationTicks": 96,
          "midi": 77,
          "name": "F5",
          "ticks": 26304,
          "time": 42.8125,
          "velocity": 0.3937007874015748
        },
        {
          "duration": 0.15625,
          "durationTicks": 96,
          "midi": 77,
          "name": "F5",
          "ticks": 26400,
          "time": 42.96875,
          "velocity": 0.3937007874015748
        },
        {
          "duration": 0.625,
          "durationTicks": 384,
          "midi": 72,
          "name": "C5",
          "ticks": 26496,
          "time": 43.125,
          "velocity": 0.3937007874015748
        },
        {
          "duration": 0.625,
          "durationTicks": 384,
          "midi": 61,
          "name": "C#4",
          "ticks": 26496,
          "time": 43.125,
          "velocity": 0.3937007874015748
        },
        {
          "duration": 0.625,
          "durationTicks": 384,
          "midi": 65,
          "name": "F4",
          "ticks": 26496,
          "time": 43.125,
          "velocity": 0.3937007874015748
        },
        {
          "duration": 0.625,
          "durationTicks": 384,
          "midi": 68,
          "name": "G#4",
          "ticks": 26496,
          "time": 43.125,
          "velocity": 0.3937007874015748
        },
        {
          "duration": 0.3125,
          "durationTicks": 192,
          "midi": 84,
          "name": "C6",
          "ticks": 26496,
          "time": 43.125,
          "velocity": 0.3937007874015748
        },
        {
          "duration": 0.15625,
          "durationTicks": 96,
          "midi": 87,
          "name": "D#6",
          "ticks": 26688,
          "time": 43.4375,
          "velocity": 0.3937007874015748
        },
        {
          "duration": 0.15625,
          "durationTicks": 96,
          "midi": 87,
          "name": "D#6",
          "ticks": 26784,
          "time": 43.59375,
          "velocity": 0.3937007874015748
        },
        {
          "duration": 0.625,
          "durationTicks": 384,
          "midi": 67,
          "name": "G4",
          "ticks": 26880,
          "time": 43.75,
          "velocity": 0.3937007874015748
        },
        {
          "duration": 0.625,
          "durationTicks": 384,
          "midi": 72,
          "name": "C5",
          "ticks": 26880,
          "time": 43.75,
          "velocity": 0.3937007874015748
        },
        {
          "duration": 0.625,
          "durationTicks": 384,
          "midi": 56,
          "name": "G#3",
          "ticks": 26880,
          "time": 43.75,
          "velocity": 0.3937007874015748
        },
        {
          "duration": 0.3125,
          "durationTicks": 192,
          "midi": 84,
          "name": "C6",
          "ticks": 26880,
          "time": 43.75,
          "velocity": 0.3937007874015748
        },
        {
          "duration": 0.625,
          "durationTicks": 384,
          "midi": 44,
          "name": "G#2",
          "ticks": 26880,
          "time": 43.75,
          "velocity": 0.3937007874015748
        },
        {
          "duration": 0.625,
          "durationTicks": 384,
          "midi": 60,
          "name": "C4",
          "ticks": 26880,
          "time": 43.75,
          "velocity": 0.3937007874015748
        },
        {
          "duration": 0.15625,
          "durationTicks": 96,
          "midi": 77,
          "name": "F5",
          "ticks": 27072,
          "time": 44.0625,
          "velocity": 0.3937007874015748
        },
        {
          "duration": 0.15625,
          "durationTicks": 96,
          "midi": 77,
          "name": "F5",
          "ticks": 27168,
          "time": 44.21875,
          "velocity": 0.3937007874015748
        },
        {
          "duration": 0.15625,
          "durationTicks": 96,
          "midi": 84,
          "name": "C6",
          "ticks": 27264,
          "time": 44.375,
          "velocity": 0.3937007874015748
        },
        {
          "duration": 0.625,
          "durationTicks": 384,
          "midi": 72,
          "name": "C5",
          "ticks": 27264,
          "time": 44.375,
          "velocity": 0.3937007874015748
        },
        {
          "duration": 0.625,
          "durationTicks": 384,
          "midi": 60,
          "name": "C4",
          "ticks": 27264,
          "time": 44.375,
          "velocity": 0.3937007874015748
        },
        {
          "duration": 0.625,
          "durationTicks": 384,
          "midi": 63,
          "name": "D#4",
          "ticks": 27264,
          "time": 44.375,
          "velocity": 0.3937007874015748
        },
        {
          "duration": 0.625,
          "durationTicks": 384,
          "midi": 67,
          "name": "G4",
          "ticks": 27264,
          "time": 44.375,
          "velocity": 0.3937007874015748
        },
        {
          "duration": 0.15625,
          "durationTicks": 96,
          "midi": 82,
          "name": "A#5",
          "ticks": 27360,
          "time": 44.53125,
          "velocity": 0.3937007874015748
        },
        {
          "duration": 0.15625,
          "durationTicks": 96,
          "midi": 80,
          "name": "G#5",
          "ticks": 27456,
          "time": 44.6875,
          "velocity": 0.3937007874015748
        },
        {
          "duration": 0.15625,
          "durationTicks": 96,
          "midi": 82,
          "name": "A#5",
          "ticks": 27552,
          "time": 44.84375,
          "velocity": 0.3937007874015748
        },
        {
          "duration": 0.625,
          "durationTicks": 384,
          "midi": 37,
          "name": "C#2",
          "ticks": 27648,
          "time": 45,
          "velocity": 0.3937007874015748
        },
        {
          "duration": 0.625,
          "durationTicks": 384,
          "midi": 61,
          "name": "C#4",
          "ticks": 27648,
          "time": 45,
          "velocity": 0.3937007874015748
        },
        {
          "duration": 0.625,
          "durationTicks": 384,
          "midi": 68,
          "name": "G#4",
          "ticks": 27648,
          "time": 45,
          "velocity": 0.3937007874015748
        },
        {
          "duration": 0.3125,
          "durationTicks": 192,
          "midi": 77,
          "name": "F5",
          "ticks": 27648,
          "time": 45,
          "velocity": 0.3937007874015748
        },
        {
          "duration": 0.625,
          "durationTicks": 384,
          "midi": 49,
          "name": "C#3",
          "ticks": 27648,
          "time": 45,
          "velocity": 0.3937007874015748
        },
        {
          "duration": 0.625,
          "durationTicks": 384,
          "midi": 56,
          "name": "G#3",
          "ticks": 27648,
          "time": 45,
          "velocity": 0.3937007874015748
        },
        {
          "duration": 0.15625,
          "durationTicks": 96,
          "midi": 77,
          "name": "F5",
          "ticks": 27840,
          "time": 45.3125,
          "velocity": 0.3937007874015748
        },
        {
          "duration": 0.15625,
          "durationTicks": 96,
          "midi": 77,
          "name": "F5",
          "ticks": 27936,
          "time": 45.46875,
          "velocity": 0.3937007874015748
        },
        {
          "duration": 0.625,
          "durationTicks": 384,
          "midi": 72,
          "name": "C5",
          "ticks": 28032,
          "time": 45.625,
          "velocity": 0.3937007874015748
        },
        {
          "duration": 0.3125,
          "durationTicks": 192,
          "midi": 84,
          "name": "C6",
          "ticks": 28032,
          "time": 45.625,
          "velocity": 0.3937007874015748
        },
        {
          "duration": 0.625,
          "durationTicks": 384,
          "midi": 65,
          "name": "F4",
          "ticks": 28032,
          "time": 45.625,
          "velocity": 0.3937007874015748
        },
        {
          "duration": 0.625,
          "durationTicks": 384,
          "midi": 61,
          "name": "C#4",
          "ticks": 28032,
          "time": 45.625,
          "velocity": 0.3937007874015748
        },
        {
          "duration": 0.625,
          "durationTicks": 384,
          "midi": 68,
          "name": "G#4",
          "ticks": 28032,
          "time": 45.625,
          "velocity": 0.3937007874015748
        },
        {
          "duration": 0.15625,
          "durationTicks": 96,
          "midi": 87,
          "name": "D#6",
          "ticks": 28224,
          "time": 45.9375,
          "velocity": 0.3937007874015748
        },
        {
          "duration": 0.15625,
          "durationTicks": 96,
          "midi": 87,
          "name": "D#6",
          "ticks": 28320,
          "time": 46.09375,
          "velocity": 0.3937007874015748
        },
        {
          "duration": 0.625,
          "durationTicks": 384,
          "midi": 60,
          "name": "C4",
          "ticks": 28416,
          "time": 46.25,
          "velocity": 0.3937007874015748
        },
        {
          "duration": 0.625,
          "durationTicks": 384,
          "midi": 67,
          "name": "G4",
          "ticks": 28416,
          "time": 46.25,
          "velocity": 0.3937007874015748
        },
        {
          "duration": 0.625,
          "durationTicks": 384,
          "midi": 56,
          "name": "G#3",
          "ticks": 28416,
          "time": 46.25,
          "velocity": 0.3937007874015748
        },
        {
          "duration": 0.625,
          "durationTicks": 384,
          "midi": 72,
          "name": "C5",
          "ticks": 28416,
          "time": 46.25,
          "velocity": 0.3937007874015748
        },
        {
          "duration": 0.3125,
          "durationTicks": 192,
          "midi": 84,
          "name": "C6",
          "ticks": 28416,
          "time": 46.25,
          "velocity": 0.3937007874015748
        },
        {
          "duration": 0.625,
          "durationTicks": 384,
          "midi": 44,
          "name": "G#2",
          "ticks": 28416,
          "time": 46.25,
          "velocity": 0.3937007874015748
        },
        {
          "duration": 0.15625,
          "durationTicks": 96,
          "midi": 82,
          "name": "A#5",
          "ticks": 28608,
          "time": 46.5625,
          "velocity": 0.3937007874015748
        },
        {
          "duration": 0.15625,
          "durationTicks": 96,
          "midi": 80,
          "name": "G#5",
          "ticks": 28704,
          "time": 46.71875,
          "velocity": 0.3937007874015748
        },
        {
          "duration": 0.625,
          "durationTicks": 384,
          "midi": 60,
          "name": "C4",
          "ticks": 28800,
          "time": 46.875,
          "velocity": 0.3937007874015748
        },
        {
          "duration": 0.625,
          "durationTicks": 384,
          "midi": 67,
          "name": "G4",
          "ticks": 28800,
          "time": 46.875,
          "velocity": 0.3937007874015748
        },
        {
          "duration": 0.625,
          "durationTicks": 384,
          "midi": 72,
          "name": "C5",
          "ticks": 28800,
          "time": 46.875,
          "velocity": 0.3937007874015748
        },
        {
          "duration": 0.2083333333333286,
          "durationTicks": 128,
          "midi": 82,
          "name": "A#5",
          "ticks": 28800,
          "time": 46.875,
          "velocity": 0.3937007874015748
        },
        {
          "duration": 0.625,
          "durationTicks": 384,
          "midi": 63,
          "name": "D#4",
          "ticks": 28800,
          "time": 46.875,
          "velocity": 0.3937007874015748
        },
        {
          "duration": 0.2083333333333428,
          "durationTicks": 128,
          "midi": 82,
          "name": "A#5",
          "ticks": 28928,
          "time": 47.08333333333333,
          "velocity": 0.3937007874015748
        },
        {
          "duration": 0.2083333333333286,
          "durationTicks": 128,
          "midi": 80,
          "name": "G#5",
          "ticks": 29056,
          "time": 47.29166666666667,
          "velocity": 0.3937007874015748
        },
        {
          "duration": 0.625,
          "durationTicks": 384,
          "midi": 61,
          "name": "C#4",
          "ticks": 29184,
          "time": 47.5,
          "velocity": 0.3937007874015748
        },
        {
          "duration": 0.3125,
          "durationTicks": 192,
          "midi": 82,
          "name": "A#5",
          "ticks": 29184,
          "time": 47.5,
          "velocity": 0.3937007874015748
        },
        {
          "duration": 0.625,
          "durationTicks": 384,
          "midi": 66,
          "name": "F#4",
          "ticks": 29184,
          "time": 47.5,
          "velocity": 0.3937007874015748
        },
        {
          "duration": 0.625,
          "durationTicks": 384,
          "midi": 73,
          "name": "C#5",
          "ticks": 29184,
          "time": 47.5,
          "velocity": 0.3937007874015748
        },
        {
          "duration": 0.625,
          "durationTicks": 384,
          "midi": 54,
          "name": "F#3",
          "ticks": 29184,
          "time": 47.5,
          "velocity": 0.3937007874015748
        },
        {
          "duration": 0.15625,
          "durationTicks": 96,
          "midi": 80,
          "name": "G#5",
          "ticks": 29376,
          "time": 47.8125,
          "velocity": 0.3937007874015748
        },
        {
          "duration": 0.3125,
          "durationTicks": 192,
          "midi": 82,
          "name": "A#5",
          "ticks": 29472,
          "time": 47.96875,
          "velocity": 0.3937007874015748
        },
        {
          "duration": 0.625,
          "durationTicks": 384,
          "midi": 70,
          "name": "A#4",
          "ticks": 29568,
          "time": 48.125,
          "velocity": 0.3937007874015748
        },
        {
          "duration": 0.625,
          "durationTicks": 384,
          "midi": 77,
          "name": "F5",
          "ticks": 29568,
          "time": 48.125,
          "velocity": 0.3937007874015748
        },
        {
          "duration": 0.625,
          "durationTicks": 384,
          "midi": 73,
          "name": "C#5",
          "ticks": 29568,
          "time": 48.125,
          "velocity": 0.3937007874015748
        },
        {
          "duration": 0.625,
          "durationTicks": 384,
          "midi": 66,
          "name": "F#4",
          "ticks": 29568,
          "time": 48.125,
          "velocity": 0.3937007874015748
        },
        {
          "duration": 0.3125,
          "durationTicks": 192,
          "midi": 80,
          "name": "G#5",
          "ticks": 29664,
          "time": 48.28125,
          "velocity": 0.3937007874015748
        },
        {
          "duration": 0.3125,
          "durationTicks": 192,
          "midi": 84,
          "name": "C6",
          "ticks": 29856,
          "time": 48.59375,
          "velocity": 0.3937007874015748
        },
        {
          "duration": 0.625,
          "durationTicks": 384,
          "midi": 64,
          "name": "E4",
          "ticks": 29952,
          "time": 48.75,
          "velocity": 0.3937007874015748
        },
        {
          "duration": 0.625,
          "durationTicks": 384,
          "midi": 67,
          "name": "G4",
          "ticks": 29952,
          "time": 48.75,
          "velocity": 0.3937007874015748
        },
        {
          "duration": 0.625,
          "durationTicks": 384,
          "midi": 60,
          "name": "C4",
          "ticks": 29952,
          "time": 48.75,
          "velocity": 0.3937007874015748
        },
        {
          "duration": 0.625,
          "durationTicks": 384,
          "midi": 76,
          "name": "E5",
          "ticks": 29952,
          "time": 48.75,
          "velocity": 0.3937007874015748
        },
        {
          "duration": 0.625,
          "durationTicks": 384,
          "midi": 70,
          "name": "A#4",
          "ticks": 29952,
          "time": 48.75,
          "velocity": 0.3937007874015748
        },
        {
          "duration": 0.46875,
          "durationTicks": 288,
          "midi": 82,
          "name": "A#5",
          "ticks": 30048,
          "time": 48.90625,
          "velocity": 0.3937007874015748
        },
        {
          "duration": 0.625,
          "durationTicks": 384,
          "midi": 48,
          "name": "C3",
          "ticks": 30336,
          "time": 49.375,
          "velocity": 0.3937007874015748
        },
        {
          "duration": 0.625,
          "durationTicks": 384,
          "midi": 64,
          "name": "E4",
          "ticks": 30336,
          "time": 49.375,
          "velocity": 0.3937007874015748
        },
        {
          "duration": 0.625,
          "durationTicks": 384,
          "midi": 60,
          "name": "C4",
          "ticks": 30336,
          "time": 49.375,
          "velocity": 0.3937007874015748
        },
        {
          "duration": 0.15625,
          "durationTicks": 96,
          "midi": 84,
          "name": "C6",
          "ticks": 30336,
          "time": 49.375,
          "velocity": 0.3937007874015748
        },
        {
          "duration": 0.625,
          "durationTicks": 384,
          "midi": 55,
          "name": "G3",
          "ticks": 30336,
          "time": 49.375,
          "velocity": 0.3937007874015748
        },
        {
          "duration": 0.15625,
          "durationTicks": 96,
          "midi": 82,
          "name": "A#5",
          "ticks": 30432,
          "time": 49.53125,
          "velocity": 0.3937007874015748
        },
        {
          "duration": 0.15625,
          "durationTicks": 96,
          "midi": 80,
          "name": "G#5",
          "ticks": 30528,
          "time": 49.6875,
          "velocity": 0.3937007874015748
        },
        {
          "duration": 0.15625,
          "durationTicks": 96,
          "midi": 82,
          "name": "A#5",
          "ticks": 30624,
          "time": 49.84375,
          "velocity": 0.3937007874015748
        },
        {
          "duration": 0.625,
          "durationTicks": 384,
          "midi": 56,
          "name": "G#3",
          "ticks": 30720,
          "time": 50,
          "velocity": 0.3937007874015748
        },
        {
          "duration": 0.625,
          "durationTicks": 384,
          "midi": 60,
          "name": "C4",
          "ticks": 30720,
          "time": 50,
          "velocity": 0.3937007874015748
        },
        {
          "duration": 0.625,
          "durationTicks": 384,
          "midi": 65,
          "name": "F4",
          "ticks": 30720,
          "time": 50,
          "velocity": 0.3937007874015748
        },
        {
          "duration": 0.625,
          "durationTicks": 384,
          "midi": 49,
          "name": "C#3",
          "ticks": 30720,
          "time": 50,
          "velocity": 0.3937007874015748
        },
        {
          "duration": 0.625,
          "durationTicks": 384,
          "midi": 37,
          "name": "C#2",
          "ticks": 30720,
          "time": 50,
          "velocity": 0.3937007874015748
        },
        {
          "duration": 0.625,
          "durationTicks": 384,
          "midi": 65,
          "name": "F4",
          "ticks": 31104,
          "time": 50.625,
          "velocity": 0.3937007874015748
        },
        {
          "duration": 0.625,
          "durationTicks": 384,
          "midi": 77,
          "name": "F5",
          "ticks": 31104,
          "time": 50.625,
          "velocity": 0.3937007874015748
        },
        {
          "duration": 0.625,
          "durationTicks": 384,
          "midi": 72,
          "name": "C5",
          "ticks": 31104,
          "time": 50.625,
          "velocity": 0.3937007874015748
        },
        {
          "duration": 0.625,
          "durationTicks": 384,
          "midi": 68,
          "name": "G#4",
          "ticks": 31104,
          "time": 50.625,
          "velocity": 0.3937007874015748
        },
        {
          "duration": 0.3125,
          "durationTicks": 192,
          "midi": 84,
          "name": "C6",
          "ticks": 31296,
          "time": 50.9375,
          "velocity": 0.3937007874015748
        },
        {
          "duration": 0.3125,
          "durationTicks": 192,
          "midi": 76,
          "name": "E5",
          "ticks": 31488,
          "time": 51.25,
          "velocity": 0.3937007874015748
        },
        {
          "duration": 0.3125,
          "durationTicks": 192,
          "midi": 70,
          "name": "A#4",
          "ticks": 31488,
          "time": 51.25,
          "velocity": 0.3937007874015748
        },
        {
          "duration": 0.3125,
          "durationTicks": 192,
          "midi": 60,
          "name": "C4",
          "ticks": 31488,
          "time": 51.25,
          "velocity": 0.3937007874015748
        },
        {
          "duration": 0.3125,
          "durationTicks": 192,
          "midi": 82,
          "name": "A#5",
          "ticks": 31488,
          "time": 51.25,
          "velocity": 0.3937007874015748
        },
        {
          "duration": 0.3125,
          "durationTicks": 192,
          "midi": 67,
          "name": "G4",
          "ticks": 31488,
          "time": 51.25,
          "velocity": 0.3937007874015748
        },
        {
          "duration": 0.3125,
          "durationTicks": 192,
          "midi": 70,
          "name": "A#4",
          "ticks": 31776,
          "time": 51.71875,
          "velocity": 0.3937007874015748
        },
        {
          "duration": 0.3125,
          "durationTicks": 192,
          "midi": 67,
          "name": "G4",
          "ticks": 31776,
          "time": 51.71875,
          "velocity": 0.3937007874015748
        },
        {
          "duration": 0.3125,
          "durationTicks": 192,
          "midi": 87,
          "name": "D#6",
          "ticks": 31776,
          "time": 51.71875,
          "velocity": 0.3937007874015748
        },
        {
          "duration": 0.3125,
          "durationTicks": 192,
          "midi": 76,
          "name": "E5",
          "ticks": 31776,
          "time": 51.71875,
          "velocity": 0.3937007874015748
        },
        {
          "duration": 0.3125,
          "durationTicks": 192,
          "midi": 60,
          "name": "C4",
          "ticks": 31776,
          "time": 51.71875,
          "velocity": 0.3937007874015748
        },
        {
          "duration": 0.9375,
          "durationTicks": 576,
          "midi": 68,
          "name": "G#4",
          "ticks": 32064,
          "time": 52.1875,
          "velocity": 0.3937007874015748
        },
        {
          "duration": 0.9375,
          "durationTicks": 576,
          "midi": 77,
          "name": "F5",
          "ticks": 32064,
          "time": 52.1875,
          "velocity": 0.3937007874015748
        },
        {
          "duration": 0.9375,
          "durationTicks": 576,
          "midi": 84,
          "name": "C6",
          "ticks": 32064,
          "time": 52.1875,
          "velocity": 0.3937007874015748
        },
        {
          "duration": 0.625,
          "durationTicks": 384,
          "midi": 53,
          "name": "F3",
          "ticks": 32064,
          "time": 52.1875,
          "velocity": 0.3937007874015748
        },
        {
          "duration": 0.625,
          "durationTicks": 384,
          "midi": 60,
          "name": "C4",
          "ticks": 32064,
          "time": 52.1875,
          "velocity": 0.3937007874015748
        },
        {
          "duration": 0.9375,
          "durationTicks": 576,
          "midi": 65,
          "name": "F4",
          "ticks": 32064,
          "time": 52.1875,
          "velocity": 0.3937007874015748
        },
        {
          "duration": 0.3125,
          "durationTicks": 192,
          "midi": 55,
          "name": "G3",
          "ticks": 32448,
          "time": 52.8125,
          "velocity": 0.3937007874015748
        },
        {
          "duration": 0.3125,
          "durationTicks": 192,
          "midi": 56,
          "name": "G#3",
          "ticks": 32640,
          "time": 53.125,
          "velocity": 0.3937007874015748
        },
        {
          "duration": 0.3125,
          "durationTicks": 192,
          "midi": 77,
          "name": "F5",
          "ticks": 32640,
          "time": 53.125,
          "velocity": 0.3937007874015748
        },
        {
          "duration": 0.3125,
          "durationTicks": 192,
          "midi": 84,
          "name": "C6",
          "ticks": 32832,
          "time": 53.4375,
          "velocity": 0.3937007874015748
        },
        {
          "duration": 0.3125,
          "durationTicks": 192,
          "midi": 60,
          "name": "C4",
          "ticks": 32832,
          "time": 53.4375,
          "velocity": 0.3937007874015748
        },
        {
          "duration": 0.3125,
          "durationTicks": 192,
          "midi": 70,
          "name": "A#4",
          "ticks": 33024,
          "time": 53.75,
          "velocity": 0.3937007874015748
        },
        {
          "duration": 0.3125,
          "durationTicks": 192,
          "midi": 75,
          "name": "D#5",
          "ticks": 33024,
          "time": 53.75,
          "velocity": 0.3937007874015748
        },
        {
          "duration": 0.3125,
          "durationTicks": 192,
          "midi": 78,
          "name": "F#5",
          "ticks": 33024,
          "time": 53.75,
          "velocity": 0.3937007874015748
        },
        {
          "duration": 0.3125,
          "durationTicks": 192,
          "midi": 66,
          "name": "F#4",
          "ticks": 33024,
          "time": 53.75,
          "velocity": 0.3937007874015748
        },
        {
          "duration": 0.3125,
          "durationTicks": 192,
          "midi": 82,
          "name": "A#5",
          "ticks": 33024,
          "time": 53.75,
          "velocity": 0.3937007874015748
        },
        {
          "duration": 0.3125,
          "durationTicks": 192,
          "midi": 58,
          "name": "A#3",
          "ticks": 33024,
          "time": 53.75,
          "velocity": 0.3937007874015748
        },
        {
          "duration": 0.3125,
          "durationTicks": 192,
          "midi": 63,
          "name": "D#4",
          "ticks": 33024,
          "time": 53.75,
          "velocity": 0.3937007874015748
        },
        {
          "duration": 0.3125,
          "durationTicks": 192,
          "midi": 78,
          "name": "F#5",
          "ticks": 33312,
          "time": 54.21875,
          "velocity": 0.3937007874015748
        },
        {
          "duration": 0.3125,
          "durationTicks": 192,
          "midi": 70,
          "name": "A#4",
          "ticks": 33312,
          "time": 54.21875,
          "velocity": 0.3937007874015748
        },
        {
          "duration": 0.3125,
          "durationTicks": 192,
          "midi": 60,
          "name": "C4",
          "ticks": 33312,
          "time": 54.21875,
          "velocity": 0.3937007874015748
        },
        {
          "duration": 0.3125,
          "durationTicks": 192,
          "midi": 80,
          "name": "G#5",
          "ticks": 33312,
          "time": 54.21875,
          "velocity": 0.3937007874015748
        },
        {
          "duration": 0.3125,
          "durationTicks": 192,
          "midi": 72,
          "name": "C5",
          "ticks": 33312,
          "time": 54.21875,
          "velocity": 0.3937007874015748
        },
        {
          "duration": 0.3125,
          "durationTicks": 192,
          "midi": 66,
          "name": "F#4",
          "ticks": 33312,
          "time": 54.21875,
          "velocity": 0.3937007874015748
        },
        {
          "duration": 0.3125,
          "durationTicks": 192,
          "midi": 56,
          "name": "G#3",
          "ticks": 33312,
          "time": 54.21875,
          "velocity": 0.3937007874015748
        },
        {
          "duration": 0.9375,
          "durationTicks": 576,
          "midi": 53,
          "name": "F3",
          "ticks": 33600,
          "time": 54.6875,
          "velocity": 0.3937007874015748
        },
        {
          "duration": 0.9375,
          "durationTicks": 576,
          "midi": 72,
          "name": "C5",
          "ticks": 33600,
          "time": 54.6875,
          "velocity": 0.3937007874015748
        },
        {
          "duration": 0.9375,
          "durationTicks": 576,
          "midi": 61,
          "name": "C#4",
          "ticks": 33600,
          "time": 54.6875,
          "velocity": 0.3937007874015748
        },
        {
          "duration": 0.9375,
          "durationTicks": 576,
          "midi": 68,
          "name": "G#4",
          "ticks": 33600,
          "time": 54.6875,
          "velocity": 0.3937007874015748
        },
        {
          "duration": 0.9375,
          "durationTicks": 576,
          "midi": 65,
          "name": "F4",
          "ticks": 33600,
          "time": 54.6875,
          "velocity": 0.3937007874015748
        },
        {
          "duration": 0.9375,
          "durationTicks": 576,
          "midi": 77,
          "name": "F5",
          "ticks": 33600,
          "time": 54.6875,
          "velocity": 0.3937007874015748
        },
        {
          "duration": 0.625,
          "durationTicks": 384,
          "midi": 77,
          "name": "F5",
          "ticks": 34176,
          "time": 55.625,
          "velocity": 0.3937007874015748
        },
        {
          "duration": 0.625,
          "durationTicks": 384,
          "midi": 65,
          "name": "F4",
          "ticks": 34176,
          "time": 55.625,
          "velocity": 0.3937007874015748
        },
        {
          "duration": 0.625,
          "durationTicks": 384,
          "midi": 68,
          "name": "G#4",
          "ticks": 34176,
          "time": 55.625,
          "velocity": 0.3937007874015748
        },
        {
          "duration": 0.625,
          "durationTicks": 384,
          "midi": 72,
          "name": "C5",
          "ticks": 34176,
          "time": 55.625,
          "velocity": 0.3937007874015748
        },
        {
          "duration": 0.3125,
          "durationTicks": 192,
          "midi": 84,
          "name": "C6",
          "ticks": 34368,
          "time": 55.9375,
          "velocity": 0.3937007874015748
        },
        {
          "duration": 0.3125,
          "durationTicks": 192,
          "midi": 76,
          "name": "E5",
          "ticks": 34560,
          "time": 56.25,
          "velocity": 0.3937007874015748
        },
        {
          "duration": 0.3125,
          "durationTicks": 192,
          "midi": 70,
          "name": "A#4",
          "ticks": 34560,
          "time": 56.25,
          "velocity": 0.3937007874015748
        },
        {
          "duration": 0.3125,
          "durationTicks": 192,
          "midi": 60,
          "name": "C4",
          "ticks": 34560,
          "time": 56.25,
          "velocity": 0.3937007874015748
        },
        {
          "duration": 0.3125,
          "durationTicks": 192,
          "midi": 82,
          "name": "A#5",
          "ticks": 34560,
          "time": 56.25,
          "velocity": 0.3937007874015748
        },
        {
          "duration": 0.3125,
          "durationTicks": 192,
          "midi": 67,
          "name": "G4",
          "ticks": 34560,
          "time": 56.25,
          "velocity": 0.3937007874015748
        },
        {
          "duration": 0.3125,
          "durationTicks": 192,
          "midi": 76,
          "name": "E5",
          "ticks": 34848,
          "time": 56.71875,
          "velocity": 0.3937007874015748
        },
        {
          "duration": 0.3125,
          "durationTicks": 192,
          "midi": 87,
          "name": "D#6",
          "ticks": 34848,
          "time": 56.71875,
          "velocity": 0.3937007874015748
        },
        {
          "duration": 0.3125,
          "durationTicks": 192,
          "midi": 70,
          "name": "A#4",
          "ticks": 34848,
          "time": 56.71875,
          "velocity": 0.3937007874015748
        },
        {
          "duration": 0.3125,
          "durationTicks": 192,
          "midi": 60,
          "name": "C4",
          "ticks": 34848,
          "time": 56.71875,
          "velocity": 0.3937007874015748
        },
        {
          "duration": 0.3125,
          "durationTicks": 192,
          "midi": 67,
          "name": "G4",
          "ticks": 34848,
          "time": 56.71875,
          "velocity": 0.3937007874015748
        },
        {
          "duration": 0.9375,
          "durationTicks": 576,
          "midi": 84,
          "name": "C6",
          "ticks": 35136,
          "time": 57.1875,
          "velocity": 0.3937007874015748
        },
        {
          "duration": 0.625,
          "durationTicks": 384,
          "midi": 60,
          "name": "C4",
          "ticks": 35136,
          "time": 57.1875,
          "velocity": 0.3937007874015748
        },
        {
          "duration": 0.9375,
          "durationTicks": 576,
          "midi": 65,
          "name": "F4",
          "ticks": 35136,
          "time": 57.1875,
          "velocity": 0.3937007874015748
        },
        {
          "duration": 0.9375,
          "durationTicks": 576,
          "midi": 68,
          "name": "G#4",
          "ticks": 35136,
          "time": 57.1875,
          "velocity": 0.3937007874015748
        },
        {
          "duration": 0.9375,
          "durationTicks": 576,
          "midi": 77,
          "name": "F5",
          "ticks": 35136,
          "time": 57.1875,
          "velocity": 0.3937007874015748
        },
        {
          "duration": 0.3125,
          "durationTicks": 192,
          "midi": 41,
          "name": "F2",
          "ticks": 35328,
          "time": 57.5,
          "velocity": 0.3937007874015748
        },
        {
          "duration": 0.3125,
          "durationTicks": 192,
          "midi": 48,
          "name": "C3",
          "ticks": 35520,
          "time": 57.8125,
          "velocity": 0.3937007874015748
        },
        {
          "duration": 0.3125,
          "durationTicks": 192,
          "midi": 53,
          "name": "F3",
          "ticks": 35712,
          "time": 58.125,
          "velocity": 0.3937007874015748
        },
        {
          "duration": 0.3125,
          "durationTicks": 192,
          "midi": 55,
          "name": "G3",
          "ticks": 35904,
          "time": 58.4375,
          "velocity": 0.3937007874015748
        },
        {
          "duration": 0.3125,
          "durationTicks": 192,
          "midi": 56,
          "name": "G#3",
          "ticks": 36096,
          "time": 58.75,
          "velocity": 0.3937007874015748
        },
        {
          "duration": 0.3125,
          "durationTicks": 192,
          "midi": 60,
          "name": "C4",
          "ticks": 36288,
          "time": 59.0625,
          "velocity": 0.3937007874015748
        },
        {
          "duration": 0.3125,
          "durationTicks": 192,
          "midi": 65,
          "name": "F4",
          "ticks": 36480,
          "time": 59.375,
          "velocity": 0.3937007874015748
        },
        {
          "duration": 0.3125,
          "durationTicks": 192,
          "midi": 68,
          "name": "G#4",
          "ticks": 36672,
          "time": 59.6875,
          "velocity": 0.3937007874015748
        },
        {
          "duration": 0.625,
          "durationTicks": 384,
          "midi": 72,
          "name": "C5",
          "ticks": 36864,
          "time": 60,
          "velocity": 0.3937007874015748
        },
        {
          "duration": 0.625,
          "durationTicks": 384,
          "midi": 61,
          "name": "C#4",
          "ticks": 36864,
          "time": 60,
          "velocity": 0.3937007874015748
        },
        {
          "duration": 0.625,
          "durationTicks": 384,
          "midi": 68,
          "name": "G#4",
          "ticks": 36864,
          "time": 60,
          "velocity": 0.3937007874015748
        },
        {
          "duration": 0.625,
          "durationTicks": 384,
          "midi": 37,
          "name": "C#2",
          "ticks": 36864,
          "time": 60,
          "velocity": 0.3937007874015748
        },
        {
          "duration": 0.625,
          "durationTicks": 384,
          "midi": 44,
          "name": "G#2",
          "ticks": 36864,
          "time": 60,
          "velocity": 0.3937007874015748
        },
        {
          "duration": 0.625,
          "durationTicks": 384,
          "midi": 49,
          "name": "C#3",
          "ticks": 36864,
          "time": 60,
          "velocity": 0.3937007874015748
        },
        {
          "duration": 0.625,
          "durationTicks": 384,
          "midi": 53,
          "name": "F3",
          "ticks": 36864,
          "time": 60,
          "velocity": 0.3937007874015748
        },
        {
          "duration": 0.625,
          "durationTicks": 384,
          "midi": 61,
          "name": "C#4",
          "ticks": 37248,
          "time": 60.625,
          "velocity": 0.3937007874015748
        },
        {
          "duration": 0.625,
          "durationTicks": 384,
          "midi": 72,
          "name": "C5",
          "ticks": 37248,
          "time": 60.625,
          "velocity": 0.3937007874015748
        },
        {
          "duration": 0.625,
          "durationTicks": 384,
          "midi": 68,
          "name": "G#4",
          "ticks": 37248,
          "time": 60.625,
          "velocity": 0.3937007874015748
        },
        {
          "duration": 0.625,
          "durationTicks": 384,
          "midi": 65,
          "name": "F4",
          "ticks": 37248,
          "time": 60.625,
          "velocity": 0.3937007874015748
        },
        {
          "duration": 0.3125,
          "durationTicks": 192,
          "midi": 84,
          "name": "C6",
          "ticks": 37440,
          "time": 60.9375,
          "velocity": 0.3937007874015748
        },
        {
          "duration": 0.3125,
          "durationTicks": 192,
          "midi": 82,
          "name": "A#5",
          "ticks": 37632,
          "time": 61.25,
          "velocity": 0.3937007874015748
        },
        {
          "duration": 0.3125,
          "durationTicks": 192,
          "midi": 60,
          "name": "C4",
          "ticks": 37632,
          "time": 61.25,
          "velocity": 0.3937007874015748
        },
        {
          "duration": 0.3125,
          "durationTicks": 192,
          "midi": 67,
          "name": "G4",
          "ticks": 37632,
          "time": 61.25,
          "velocity": 0.3937007874015748
        },
        {
          "duration": 0.3125,
          "durationTicks": 192,
          "midi": 70,
          "name": "A#4",
          "ticks": 37632,
          "time": 61.25,
          "velocity": 0.3937007874015748
        },
        {
          "duration": 0.3125,
          "durationTicks": 192,
          "midi": 52,
          "name": "E3",
          "ticks": 37632,
          "time": 61.25,
          "velocity": 0.3937007874015748
        },
        {
          "duration": 0.3125,
          "durationTicks": 192,
          "midi": 52,
          "name": "E3",
          "ticks": 37920,
          "time": 61.71875,
          "velocity": 0.3937007874015748
        },
        {
          "duration": 0.3125,
          "durationTicks": 192,
          "midi": 70,
          "name": "A#4",
          "ticks": 37920,
          "time": 61.71875,
          "velocity": 0.3937007874015748
        },
        {
          "duration": 0.3125,
          "durationTicks": 192,
          "midi": 60,
          "name": "C4",
          "ticks": 37920,
          "time": 61.71875,
          "velocity": 0.3937007874015748
        },
        {
          "duration": 0.3125,
          "durationTicks": 192,
          "midi": 87,
          "name": "D#6",
          "ticks": 37920,
          "time": 61.71875,
          "velocity": 0.3937007874015748
        },
        {
          "duration": 0.3125,
          "durationTicks": 192,
          "midi": 67,
          "name": "G4",
          "ticks": 37920,
          "time": 61.71875,
          "velocity": 0.3937007874015748
        },
        {
          "duration": 0.9375,
          "durationTicks": 576,
          "midi": 68,
          "name": "G#4",
          "ticks": 38208,
          "time": 62.1875,
          "velocity": 0.3937007874015748
        },
        {
          "duration": 0.9375,
          "durationTicks": 576,
          "midi": 60,
          "name": "C4",
          "ticks": 38208,
          "time": 62.1875,
          "velocity": 0.3937007874015748
        },
        {
          "duration": 0.9375,
          "durationTicks": 576,
          "midi": 53,
          "name": "F3",
          "ticks": 38208,
          "time": 62.1875,
          "velocity": 0.3937007874015748
        },
        {
          "duration": 0.9375,
          "durationTicks": 576,
          "midi": 65,
          "name": "F4",
          "ticks": 38208,
          "time": 62.1875,
          "velocity": 0.3937007874015748
        },
        {
          "duration": 0.9375,
          "durationTicks": 576,
          "midi": 84,
          "name": "C6",
          "ticks": 38208,
          "time": 62.1875,
          "velocity": 0.3937007874015748
        },
        {
          "duration": 0.3125,
          "durationTicks": 192,
          "midi": 77,
          "name": "F5",
          "ticks": 38784,
          "time": 63.125,
          "velocity": 0.3937007874015748
        },
        {
          "duration": 0.625,
          "durationTicks": 384,
          "midi": 56,
          "name": "G#3",
          "ticks": 38784,
          "time": 63.125,
          "velocity": 0.3937007874015748
        },
        {
          "duration": 0.625,
          "durationTicks": 384,
          "midi": 60,
          "name": "C4",
          "ticks": 38784,
          "time": 63.125,
          "velocity": 0.3937007874015748
        },
        {
          "duration": 0.625,
          "durationTicks": 384,
          "midi": 53,
          "name": "F3",
          "ticks": 38784,
          "time": 63.125,
          "velocity": 0.3937007874015748
        },
        {
          "duration": 0.625,
          "durationTicks": 384,
          "midi": 65,
          "name": "F4",
          "ticks": 38784,
          "time": 63.125,
          "velocity": 0.3937007874015748
        },
        {
          "duration": 0.3125,
          "durationTicks": 192,
          "midi": 84,
          "name": "C6",
          "ticks": 38976,
          "time": 63.4375,
          "velocity": 0.3937007874015748
        },
        {
          "duration": 0.3125,
          "durationTicks": 192,
          "midi": 58,
          "name": "A#3",
          "ticks": 39168,
          "time": 63.75,
          "velocity": 0.3937007874015748
        },
        {
          "duration": 0.3125,
          "durationTicks": 192,
          "midi": 70,
          "name": "A#4",
          "ticks": 39168,
          "time": 63.75,
          "velocity": 0.3937007874015748
        },
        {
          "duration": 0.3125,
          "durationTicks": 192,
          "midi": 66,
          "name": "F#4",
          "ticks": 39168,
          "time": 63.75,
          "velocity": 0.3937007874015748
        },
        {
          "duration": 0.3125,
          "durationTicks": 192,
          "midi": 78,
          "name": "F#5",
          "ticks": 39168,
          "time": 63.75,
          "velocity": 0.3937007874015748
        },
        {
          "duration": 0.3125,
          "durationTicks": 192,
          "midi": 75,
          "name": "D#5",
          "ticks": 39168,
          "time": 63.75,
          "velocity": 0.3937007874015748
        },
        {
          "duration": 0.3125,
          "durationTicks": 192,
          "midi": 51,
          "name": "D#3",
          "ticks": 39168,
          "time": 63.75,
          "velocity": 0.3937007874015748
        },
        {
          "duration": 0.3125,
          "durationTicks": 192,
          "midi": 82,
          "name": "A#5",
          "ticks": 39168,
          "time": 63.75,
          "velocity": 0.3937007874015748
        },
        {
          "duration": 0.3125,
          "durationTicks": 192,
          "midi": 56,
          "name": "G#3",
          "ticks": 39456,
          "time": 64.21875,
          "velocity": 0.3937007874015748
        },
        {
          "duration": 0.3125,
          "durationTicks": 192,
          "midi": 80,
          "name": "G#5",
          "ticks": 39456,
          "time": 64.21875,
          "velocity": 0.3937007874015748
        },
        {
          "duration": 0.3125,
          "durationTicks": 192,
          "midi": 70,
          "name": "A#4",
          "ticks": 39456,
          "time": 64.21875,
          "velocity": 0.3937007874015748
        },
        {
          "duration": 0.3125,
          "durationTicks": 192,
          "midi": 48,
          "name": "C3",
          "ticks": 39456,
          "time": 64.21875,
          "velocity": 0.3937007874015748
        },
        {
          "duration": 0.3125,
          "durationTicks": 192,
          "midi": 78,
          "name": "F#5",
          "ticks": 39456,
          "time": 64.21875,
          "velocity": 0.3937007874015748
        },
        {
          "duration": 0.3125,
          "durationTicks": 192,
          "midi": 66,
          "name": "F#4",
          "ticks": 39456,
          "time": 64.21875,
          "velocity": 0.3937007874015748
        },
        {
          "duration": 0.3125,
          "durationTicks": 192,
          "midi": 72,
          "name": "C5",
          "ticks": 39456,
          "time": 64.21875,
          "velocity": 0.3937007874015748
        },
        {
          "duration": 0.9375,
          "durationTicks": 576,
          "midi": 65,
          "name": "F4",
          "ticks": 39744,
          "time": 64.6875,
          "velocity": 0.3937007874015748
        },
        {
          "duration": 0.9375,
          "durationTicks": 576,
          "midi": 72,
          "name": "C5",
          "ticks": 39744,
          "time": 64.6875,
          "velocity": 0.3937007874015748
        },
        {
          "duration": 0.9375,
          "durationTicks": 576,
          "midi": 53,
          "name": "F3",
          "ticks": 39744,
          "time": 64.6875,
          "velocity": 0.3937007874015748
        },
        {
          "duration": 0.9375,
          "durationTicks": 576,
          "midi": 68,
          "name": "G#4",
          "ticks": 39744,
          "time": 64.6875,
          "velocity": 0.3937007874015748
        },
        {
          "duration": 0.9375,
          "durationTicks": 576,
          "midi": 49,
          "name": "C#3",
          "ticks": 39744,
          "time": 64.6875,
          "velocity": 0.3937007874015748
        },
        {
          "duration": 0.9375,
          "durationTicks": 576,
          "midi": 77,
          "name": "F5",
          "ticks": 39744,
          "time": 64.6875,
          "velocity": 0.3937007874015748
        },
        {
          "duration": 0.625,
          "durationTicks": 384,
          "midi": 72,
          "name": "C5",
          "ticks": 40320,
          "time": 65.625,
          "velocity": 0.3937007874015748
        },
        {
          "duration": 0.625,
          "durationTicks": 384,
          "midi": 61,
          "name": "C#4",
          "ticks": 40320,
          "time": 65.625,
          "velocity": 0.3937007874015748
        },
        {
          "duration": 0.625,
          "durationTicks": 384,
          "midi": 68,
          "name": "G#4",
          "ticks": 40320,
          "time": 65.625,
          "velocity": 0.3937007874015748
        },
        {
          "duration": 0.625,
          "durationTicks": 384,
          "midi": 65,
          "name": "F4",
          "ticks": 40320,
          "time": 65.625,
          "velocity": 0.3937007874015748
        },
        {
          "duration": 0.3125,
          "durationTicks": 192,
          "midi": 84,
          "name": "C6",
          "ticks": 40512,
          "time": 65.9375,
          "velocity": 0.3937007874015748
        },
        {
          "duration": 0.3125,
          "durationTicks": 192,
          "midi": 76,
          "name": "E5",
          "ticks": 40704,
          "time": 66.25,
          "velocity": 0.3937007874015748
        },
        {
          "duration": 0.3125,
          "durationTicks": 192,
          "midi": 60,
          "name": "C4",
          "ticks": 40704,
          "time": 66.25,
          "velocity": 0.3937007874015748
        },
        {
          "duration": 0.3125,
          "durationTicks": 192,
          "midi": 70,
          "name": "A#4",
          "ticks": 40704,
          "time": 66.25,
          "velocity": 0.3937007874015748
        },
        {
          "duration": 0.3125,
          "durationTicks": 192,
          "midi": 52,
          "name": "E3",
          "ticks": 40704,
          "time": 66.25,
          "velocity": 0.3937007874015748
        },
        {
          "duration": 0.3125,
          "durationTicks": 192,
          "midi": 67,
          "name": "G4",
          "ticks": 40704,
          "time": 66.25,
          "velocity": 0.3937007874015748
        },
        {
          "duration": 0.3125,
          "durationTicks": 192,
          "midi": 82,
          "name": "A#5",
          "ticks": 40704,
          "time": 66.25,
          "velocity": 0.3937007874015748
        },
        {
          "duration": 0.3125,
          "durationTicks": 192,
          "midi": 70,
          "name": "A#4",
          "ticks": 40992,
          "time": 66.71875,
          "velocity": 0.3937007874015748
        },
        {
          "duration": 0.3125,
          "durationTicks": 192,
          "midi": 67,
          "name": "G4",
          "ticks": 40992,
          "time": 66.71875,
          "velocity": 0.3937007874015748
        },
        {
          "duration": 0.3125,
          "durationTicks": 192,
          "midi": 60,
          "name": "C4",
          "ticks": 40992,
          "time": 66.71875,
          "velocity": 0.3937007874015748
        },
        {
          "duration": 0.3125,
          "durationTicks": 192,
          "midi": 87,
          "name": "D#6",
          "ticks": 40992,
          "time": 66.71875,
          "velocity": 0.3937007874015748
        },
        {
          "duration": 0.3125,
          "durationTicks": 192,
          "midi": 52,
          "name": "E3",
          "ticks": 40992,
          "time": 66.71875,
          "velocity": 0.3937007874015748
        },
        {
          "duration": 0.3125,
          "durationTicks": 192,
          "midi": 76,
          "name": "E5",
          "ticks": 40992,
          "time": 66.71875,
          "velocity": 0.3937007874015748
        },
        {
          "duration": 0.9375,
          "durationTicks": 576,
          "midi": 65,
          "name": "F4",
          "ticks": 41280,
          "time": 67.1875,
          "velocity": 0.3937007874015748
        },
        {
          "duration": 1.5625,
          "durationTicks": 960,
          "midi": 84,
          "name": "C6",
          "ticks": 41280,
          "time": 67.1875,
          "velocity": 0.3937007874015748
        },
        {
          "duration": 0.625,
          "durationTicks": 384,
          "midi": 60,
          "name": "C4",
          "ticks": 41280,
          "time": 67.1875,
          "velocity": 0.3937007874015748
        },
        {
          "duration": 1.25,
          "durationTicks": 768,
          "midi": 68,
          "name": "G#4",
          "ticks": 41280,
          "time": 67.1875,
          "velocity": 0.3937007874015748
        },
        {
          "duration": 0.625,
          "durationTicks": 384,
          "midi": 53,
          "name": "F3",
          "ticks": 41280,
          "time": 67.1875,
          "velocity": 0.3937007874015748
        },
        {
          "duration": 1.5625,
          "durationTicks": 960,
          "midi": 77,
          "name": "F5",
          "ticks": 41280,
          "time": 67.1875,
          "velocity": 0.3937007874015748
        },
        {
          "duration": 0.3125,
          "durationTicks": 192,
          "midi": 60,
          "name": "C4",
          "ticks": 41664,
          "time": 67.8125,
          "velocity": 0.3937007874015748
        },
        {
          "duration": 0.3125,
          "durationTicks": 192,
          "midi": 65,
          "name": "F4",
          "ticks": 41856,
          "time": 68.125,
          "velocity": 0.3937007874015748
        },
        {
          "duration": 0.3125,
          "durationTicks": 192,
          "midi": 67,
          "name": "G4",
          "ticks": 42048,
          "time": 68.4375,
          "velocity": 0.3937007874015748
        },
        {
          "duration": 0.3125,
          "durationTicks": 192,
          "midi": 68,
          "name": "G#4",
          "ticks": 42240,
          "time": 68.75,
          "velocity": 0.3937007874015748
        },
        {
          "duration": 0.3125,
          "durationTicks": 192,
          "midi": 72,
          "name": "C5",
          "ticks": 42432,
          "time": 69.0625,
          "velocity": 0.3937007874015748
        },
        {
          "duration": 0.3125,
          "durationTicks": 192,
          "midi": 77,
          "name": "F5",
          "ticks": 42624,
          "time": 69.375,
          "velocity": 0.3937007874015748
        },
        {
          "duration": 0.3125,
          "durationTicks": 192,
          "midi": 80,
          "name": "G#5",
          "ticks": 42816,
          "time": 69.6875,
          "velocity": 0.3937007874015748
        },
        {
          "duration": 1.25,
          "durationTicks": 768,
          "midi": 72,
          "name": "C5",
          "ticks": 43008,
          "time": 70,
          "velocity": 0.3937007874015748
        },
        {
          "duration": 0.625,
          "durationTicks": 384,
          "midi": 77,
          "name": "F5",
          "ticks": 43008,
          "time": 70,
          "velocity": 0.3937007874015748
        },
        {
          "duration": 1.25,
          "durationTicks": 768,
          "midi": 61,
          "name": "C#4",
          "ticks": 43008,
          "time": 70,
          "velocity": 0.3937007874015748
        },
        {
          "duration": 0.3125,
          "durationTicks": 192,
          "midi": 84,
          "name": "C6",
          "ticks": 43008,
          "time": 70,
          "velocity": 0.3937007874015748
        },
        {
          "duration": 1.25,
          "durationTicks": 768,
          "midi": 68,
          "name": "G#4",
          "ticks": 43008,
          "time": 70,
          "velocity": 0.3937007874015748
        },
        {
          "duration": 0.15625,
          "durationTicks": 96,
          "midi": 82,
          "name": "A#5",
          "ticks": 43200,
          "time": 70.3125,
          "velocity": 0.3937007874015748
        },
        {
          "duration": 0.15625,
          "durationTicks": 96,
          "midi": 80,
          "name": "G#5",
          "ticks": 43296,
          "time": 70.46875,
          "velocity": 0.3937007874015748
        },
        {
          "duration": 0.15625,
          "durationTicks": 96,
          "midi": 77,
          "name": "F5",
          "ticks": 43488,
          "time": 70.78125,
          "velocity": 0.3937007874015748
        },
        {
          "duration": 0.3125,
          "durationTicks": 192,
          "midi": 84,
          "name": "C6",
          "ticks": 43680,
          "time": 71.09375,
          "velocity": 0.3937007874015748
        },
        {
          "duration": 1.25,
          "durationTicks": 768,
          "midi": 76,
          "name": "E5",
          "ticks": 43776,
          "time": 71.25,
          "velocity": 0.3937007874015748
        },
        {
          "duration": 1.25,
          "durationTicks": 768,
          "midi": 70,
          "name": "A#4",
          "ticks": 43776,
          "time": 71.25,
          "velocity": 0.3937007874015748
        },
        {
          "duration": 1.25,
          "durationTicks": 768,
          "midi": 60,
          "name": "C4",
          "ticks": 43776,
          "time": 71.25,
          "velocity": 0.3937007874015748
        },
        {
          "duration": 0.15625,
          "durationTicks": 96,
          "midi": 82,
          "name": "A#5",
          "ticks": 43872,
          "time": 71.40625,
          "velocity": 0.3937007874015748
        },
        {
          "duration": 0.625,
          "durationTicks": 384,
          "midi": 84,
          "name": "C6",
          "ticks": 43968,
          "time": 71.5625,
          "velocity": 0.3937007874015748
        },
        {
          "duration": 0.625,
          "durationTicks": 384,
          "midi": 75,
          "name": "D#5",
          "ticks": 44544,
          "time": 72.5,
          "velocity": 0.3937007874015748
        },
        {
          "duration": 1.25,
          "durationTicks": 768,
          "midi": 70,
          "name": "A#4",
          "ticks": 44544,
          "time": 72.5,
          "velocity": 0.3937007874015748
        },
        {
          "duration": 1.25,
          "durationTicks": 768,
          "midi": 66,
          "name": "F#4",
          "ticks": 44544,
          "time": 72.5,
          "velocity": 0.3937007874015748
        },
        {
          "duration": 1.25,
          "durationTicks": 768,
          "midi": 59,
          "name": "B3",
          "ticks": 44544,
          "time": 72.5,
          "velocity": 0.3937007874015748
        },
        {
          "duration": 0.3125,
          "durationTicks": 192,
          "midi": 82,
          "name": "A#5",
          "ticks": 44544,
          "time": 72.5,
          "velocity": 0.3937007874015748
        },
        {
          "duration": 0.15625,
          "durationTicks": 96,
          "midi": 80,
          "name": "G#5",
          "ticks": 44736,
          "time": 72.8125,
          "velocity": 0.3937007874015748
        },
        {
          "duration": 0.15625,
          "durationTicks": 96,
          "midi": 78,
          "name": "F#5",
          "ticks": 44832,
          "time": 72.96875,
          "velocity": 0.3937007874015748
        },
        {
          "duration": 0.15625,
          "durationTicks": 96,
          "midi": 75,
          "name": "D#5",
          "ticks": 45024,
          "time": 73.28125,
          "velocity": 0.3937007874015748
        },
        {
          "duration": 1.40625,
          "durationTicks": 864,
          "midi": 82,
          "name": "A#5",
          "ticks": 45216,
          "time": 73.59375,
          "velocity": 0.3937007874015748
        },
        {
          "duration": 1.25,
          "durationTicks": 768,
          "midi": 58,
          "name": "A#3",
          "ticks": 45312,
          "time": 73.75,
          "velocity": 0.3937007874015748
        },
        {
          "duration": 1.25,
          "durationTicks": 768,
          "midi": 68,
          "name": "G#4",
          "ticks": 45312,
          "time": 73.75,
          "velocity": 0.3937007874015748
        },
        {
          "duration": 1.25,
          "durationTicks": 768,
          "midi": 74,
          "name": "D5",
          "ticks": 45312,
          "time": 73.75,
          "velocity": 0.3937007874015748
        },
        {
          "duration": 1.25,
          "durationTicks": 768,
          "midi": 68,
          "name": "G#4",
          "ticks": 46080,
          "time": 75,
          "velocity": 0.3937007874015748
        },
        {
          "duration": 0.3125,
          "durationTicks": 192,
          "midi": 80,
          "name": "G#5",
          "ticks": 46080,
          "time": 75,
          "velocity": 0.3937007874015748
        },
        {
          "duration": 1.25,
          "durationTicks": 768,
          "midi": 57,
          "name": "A3",
          "ticks": 46080,
          "time": 75,
          "velocity": 0.3937007874015748
        },
        {
          "duration": 0.625,
          "durationTicks": 384,
          "midi": 73,
          "name": "C#5",
          "ticks": 46080,
          "time": 75,
          "velocity": 0.3937007874015748
        },
        {
          "duration": 1.25,
          "durationTicks": 768,
          "midi": 64,
          "name": "E4",
          "ticks": 46080,
          "time": 75,
          "velocity": 0.3937007874015748
        },
        {
          "duration": 0.15625,
          "durationTicks": 96,
          "midi": 78,
          "name": "F#5",
          "ticks": 46272,
          "time": 75.3125,
          "velocity": 0.3937007874015748
        },
        {
          "duration": 0.15625,
          "durationTicks": 96,
          "midi": 76,
          "name": "E5",
          "ticks": 46368,
          "time": 75.46875,
          "velocity": 0.3937007874015748
        },
        {
          "duration": 0.15625,
          "durationTicks": 96,
          "midi": 73,
          "name": "C#5",
          "ticks": 46560,
          "time": 75.78125,
          "velocity": 0.3937007874015748
        },
        {
          "duration": 0.3125,
          "durationTicks": 192,
          "midi": 80,
          "name": "G#5",
          "ticks": 46752,
          "time": 76.09375,
          "velocity": 0.3937007874015748
        },
        {
          "duration": 1.25,
          "durationTicks": 768,
          "midi": 63,
          "name": "D#4",
          "ticks": 46848,
          "time": 76.25,
          "velocity": 0.3937007874015748
        },
        {
          "duration": 1.25,
          "durationTicks": 768,
          "midi": 66,
          "name": "F#4",
          "ticks": 46848,
          "time": 76.25,
          "velocity": 0.3937007874015748
        },
        {
          "duration": 1.25,
          "durationTicks": 768,
          "midi": 72,
          "name": "C5",
          "ticks": 46848,
          "time": 76.25,
          "velocity": 0.3937007874015748
        },
        {
          "duration": 1.25,
          "durationTicks": 768,
          "midi": 56,
          "name": "G#3",
          "ticks": 46848,
          "time": 76.25,
          "velocity": 0.3937007874015748
        },
        {
          "duration": 0.15625,
          "durationTicks": 96,
          "midi": 78,
          "name": "F#5",
          "ticks": 46944,
          "time": 76.40625,
          "velocity": 0.3937007874015748
        },
        {
          "duration": 0.625,
          "durationTicks": 384,
          "midi": 80,
          "name": "G#5",
          "ticks": 47040,
          "time": 76.5625,
          "velocity": 0.3937007874015748
        },
        {
          "duration": 0.3125,
          "durationTicks": 192,
          "midi": 78,
          "name": "F#5",
          "ticks": 47424,
          "time": 77.1875,
          "velocity": 0.3937007874015748
        },
        {
          "duration": 0.3125,
          "durationTicks": 192,
          "midi": 68,
          "name": "G#4",
          "ticks": 47616,
          "time": 77.5,
          "velocity": 0.3937007874015748
        },
        {
          "duration": 0.3125,
          "durationTicks": 192,
          "midi": 61,
          "name": "C#4",
          "ticks": 47616,
          "time": 77.5,
          "velocity": 0.3937007874015748
        },
        {
          "duration": 0.3125,
          "durationTicks": 192,
          "midi": 77,
          "name": "F5",
          "ticks": 47616,
          "time": 77.5,
          "velocity": 0.3937007874015748
        },
        {
          "duration": 0.3125,
          "durationTicks": 192,
          "midi": 72,
          "name": "C5",
          "ticks": 47616,
          "time": 77.5,
          "velocity": 0.3937007874015748
        },
        {
          "duration": 0.3125,
          "durationTicks": 192,
          "midi": 68,
          "name": "G#4",
          "ticks": 47904,
          "time": 77.96875,
          "velocity": 0.3937007874015748
        },
        {
          "duration": 0.3125,
          "durationTicks": 192,
          "midi": 80,
          "name": "G#5",
          "ticks": 47904,
          "time": 77.96875,
          "velocity": 0.3937007874015748
        },
        {
          "duration": 0.3125,
          "durationTicks": 192,
          "midi": 72,
          "name": "C5",
          "ticks": 47904,
          "time": 77.96875,
          "velocity": 0.3937007874015748
        },
        {
          "duration": 0.3125,
          "durationTicks": 192,
          "midi": 61,
          "name": "C#4",
          "ticks": 47904,
          "time": 77.96875,
          "velocity": 0.3937007874015748
        },
        {
          "duration": 1.25,
          "durationTicks": 768,
          "midi": 87,
          "name": "D#6",
          "ticks": 48192,
          "time": 78.4375,
          "velocity": 0.3937007874015748
        },
        {
          "duration": 1.25,
          "durationTicks": 768,
          "midi": 82,
          "name": "A#5",
          "ticks": 48192,
          "time": 78.4375,
          "velocity": 0.3937007874015748
        },
        {
          "duration": 1.25,
          "durationTicks": 768,
          "midi": 77,
          "name": "F5",
          "ticks": 48192,
          "time": 78.4375,
          "velocity": 0.3937007874015748
        },
        {
          "duration": 1.25,
          "durationTicks": 768,
          "midi": 61,
          "name": "C#4",
          "ticks": 48192,
          "time": 78.4375,
          "velocity": 0.3937007874015748
        },
        {
          "duration": 1.25,
          "durationTicks": 768,
          "midi": 54,
          "name": "F#3",
          "ticks": 48192,
          "time": 78.4375,
          "velocity": 0.3937007874015748
        },
        {
          "duration": 1.25,
          "durationTicks": 768,
          "midi": 66,
          "name": "F#4",
          "ticks": 48192,
          "time": 78.4375,
          "velocity": 0.3937007874015748
        },
        {
          "duration": 0.3125,
          "durationTicks": 192,
          "midi": 72,
          "name": "C5",
          "ticks": 49152,
          "time": 80,
          "velocity": 0.3937007874015748
        },
        {
          "duration": 1.25,
          "durationTicks": 768,
          "midi": 49,
          "name": "C#3",
          "ticks": 49152,
          "time": 80,
          "velocity": 0.3937007874015748
        },
        {
          "duration": 0.625,
          "durationTicks": 384,
          "midi": 65,
          "name": "F4",
          "ticks": 49152,
          "time": 80,
          "velocity": 0.3937007874015748
        },
        {
          "duration": 1.25,
          "durationTicks": 768,
          "midi": 60,
          "name": "C4",
          "ticks": 49152,
          "time": 80,
          "velocity": 0.3937007874015748
        },
        {
          "duration": 1.25,
          "durationTicks": 768,
          "midi": 56,
          "name": "G#3",
          "ticks": 49152,
          "time": 80,
          "velocity": 0.3937007874015748
        },
        {
          "duration": 0.15625,
          "durationTicks": 96,
          "midi": 70,
          "name": "A#4",
          "ticks": 49344,
          "time": 80.3125,
          "velocity": 0.3937007874015748
        },
        {
          "duration": 0.15625,
          "durationTicks": 96,
          "midi": 68,
          "name": "G#4",
          "ticks": 49440,
          "time": 80.46875,
          "velocity": 0.3937007874015748
        },
        {
          "duration": 0.15625,
          "durationTicks": 96,
          "midi": 65,
          "name": "F4",
          "ticks": 49632,
          "time": 80.78125,
          "velocity": 0.3937007874015748
        },
        {
          "duration": 0.3125,
          "durationTicks": 192,
          "midi": 72,
          "name": "C5",
          "ticks": 49824,
          "time": 81.09375,
          "velocity": 0.3937007874015748
        },
        {
          "duration": 1.25,
          "durationTicks": 768,
          "midi": 48,
          "name": "C3",
          "ticks": 49920,
          "time": 81.25,
          "velocity": 0.3937007874015748
        },
        {
          "duration": 1.25,
          "durationTicks": 768,
          "midi": 58,
          "name": "A#3",
          "ticks": 49920,
          "time": 81.25,
          "velocity": 0.3937007874015748
        },
        {
          "duration": 1.25,
          "durationTicks": 768,
          "midi": 64,
          "name": "E4",
          "ticks": 49920,
          "time": 81.25,
          "velocity": 0.3937007874015748
        },
        {
          "duration": 0.15625,
          "durationTicks": 96,
          "midi": 70,
          "name": "A#4",
          "ticks": 50016,
          "time": 81.40625,
          "velocity": 0.3937007874015748
        },
        {
          "duration": 0.625,
          "durationTicks": 384,
          "midi": 72,
          "name": "C5",
          "ticks": 50112,
          "time": 81.5625,
          "velocity": 0.3937007874015748
        },
        {
          "duration": 1.25,
          "durationTicks": 768,
          "midi": 58,
          "name": "A#3",
          "ticks": 50688,
          "time": 82.5,
          "velocity": 0.3937007874015748
        },
        {
          "duration": 0.3125,
          "durationTicks": 192,
          "midi": 70,
          "name": "A#4",
          "ticks": 50688,
          "time": 82.5,
          "velocity": 0.3937007874015748
        },
        {
          "duration": 0.625,
          "durationTicks": 384,
          "midi": 63,
          "name": "D#4",
          "ticks": 50688,
          "time": 82.5,
          "velocity": 0.3937007874015748
        },
        {
          "duration": 1.25,
          "durationTicks": 768,
          "midi": 47,
          "name": "B2",
          "ticks": 50688,
          "time": 82.5,
          "velocity": 0.3937007874015748
        },
        {
          "duration": 1.25,
          "durationTicks": 768,
          "midi": 54,
          "name": "F#3",
          "ticks": 50688,
          "time": 82.5,
          "velocity": 0.3937007874015748
        },
        {
          "duration": 0.15625,
          "durationTicks": 96,
          "midi": 68,
          "name": "G#4",
          "ticks": 50880,
          "time": 82.8125,
          "velocity": 0.3937007874015748
        },
        {
          "duration": 0.15625,
          "durationTicks": 96,
          "midi": 66,
          "name": "F#4",
          "ticks": 50976,
          "time": 82.96875,
          "velocity": 0.3937007874015748
        },
        {
          "duration": 0.15625,
          "durationTicks": 96,
          "midi": 63,
          "name": "D#4",
          "ticks": 51168,
          "time": 83.28125,
          "velocity": 0.3937007874015748
        },
        {
          "duration": 1.40625,
          "durationTicks": 864,
          "midi": 70,
          "name": "A#4",
          "ticks": 51360,
          "time": 83.59375,
          "velocity": 0.3937007874015748
        },
        {
          "duration": 1.25,
          "durationTicks": 768,
          "midi": 46,
          "name": "A#2",
          "ticks": 51456,
          "time": 83.75,
          "velocity": 0.3937007874015748
        },
        {
          "duration": 1.25,
          "durationTicks": 768,
          "midi": 56,
          "name": "G#3",
          "ticks": 51456,
          "time": 83.75,
          "velocity": 0.3937007874015748
        },
        {
          "duration": 1.25,
          "durationTicks": 768,
          "midi": 62,
          "name": "D4",
          "ticks": 51456,
          "time": 83.75,
          "velocity": 0.3937007874015748
        },
        {
          "duration": 0.3125,
          "durationTicks": 192,
          "midi": 68,
          "name": "G#4",
          "ticks": 52224,
          "time": 85,
          "velocity": 0.3937007874015748
        },
        {
          "duration": 1.25,
          "durationTicks": 768,
          "midi": 45,
          "name": "A2",
          "ticks": 52224,
          "time": 85,
          "velocity": 0.3937007874015748
        },
        {
          "duration": 1.25,
          "durationTicks": 768,
          "midi": 56,
          "name": "G#3",
          "ticks": 52224,
          "time": 85,
          "velocity": 0.3937007874015748
        },
        {
          "duration": 0.625,
          "durationTicks": 384,
          "midi": 61,
          "name": "C#4",
          "ticks": 52224,
          "time": 85,
          "velocity": 0.3937007874015748
        },
        {
          "duration": 1.25,
          "durationTicks": 768,
          "midi": 52,
          "name": "E3",
          "ticks": 52224,
          "time": 85,
          "velocity": 0.3937007874015748
        },
        {
          "duration": 0.15625,
          "durationTicks": 96,
          "midi": 66,
          "name": "F#4",
          "ticks": 52416,
          "time": 85.3125,
          "velocity": 0.3937007874015748
        },
        {
          "duration": 0.15625,
          "durationTicks": 96,
          "midi": 64,
          "name": "E4",
          "ticks": 52512,
          "time": 85.46875,
          "velocity": 0.3937007874015748
        },
        {
          "duration": 0.15625,
          "durationTicks": 96,
          "midi": 61,
          "name": "C#4",
          "ticks": 52704,
          "time": 85.78125,
          "velocity": 0.3937007874015748
        },
        {
          "duration": 0.3125,
          "durationTicks": 192,
          "midi": 68,
          "name": "G#4",
          "ticks": 52896,
          "time": 86.09375,
          "velocity": 0.3937007874015748
        },
        {
          "duration": 1.25,
          "durationTicks": 768,
          "midi": 51,
          "name": "D#3",
          "ticks": 52992,
          "time": 86.25,
          "velocity": 0.3937007874015748
        },
        {
          "duration": 1.25,
          "durationTicks": 768,
          "midi": 44,
          "name": "G#2",
          "ticks": 52992,
          "time": 86.25,
          "velocity": 0.3937007874015748
        },
        {
          "duration": 1.25,
          "durationTicks": 768,
          "midi": 54,
          "name": "F#3",
          "ticks": 52992,
          "time": 86.25,
          "velocity": 0.3937007874015748
        },
        {
          "duration": 1.25,
          "durationTicks": 768,
          "midi": 60,
          "name": "C4",
          "ticks": 52992,
          "time": 86.25,
          "velocity": 0.3937007874015748
        },
        {
          "duration": 0.15625,
          "durationTicks": 96,
          "midi": 66,
          "name": "F#4",
          "ticks": 53088,
          "time": 86.40625,
          "velocity": 0.3937007874015748
        },
        {
          "duration": 0.625,
          "durationTicks": 384,
          "midi": 68,
          "name": "G#4",
          "ticks": 53184,
          "time": 86.5625,
          "velocity": 0.3937007874015748
        },
        {
          "duration": 0.3125,
          "durationTicks": 192,
          "midi": 66,
          "name": "F#4",
          "ticks": 53568,
          "time": 87.1875,
          "velocity": 0.3937007874015748
        },
        {
          "duration": 0.3125,
          "durationTicks": 192,
          "midi": 56,
          "name": "G#3",
          "ticks": 53760,
          "time": 87.5,
          "velocity": 0.3937007874015748
        },
        {
          "duration": 0.3125,
          "durationTicks": 192,
          "midi": 65,
          "name": "F4",
          "ticks": 53760,
          "time": 87.5,
          "velocity": 0.3937007874015748
        },
        {
          "duration": 0.3125,
          "durationTicks": 192,
          "midi": 49,
          "name": "C#3",
          "ticks": 53760,
          "time": 87.5,
          "velocity": 0.3937007874015748
        },
        {
          "duration": 0.3125,
          "durationTicks": 192,
          "midi": 60,
          "name": "C4",
          "ticks": 53760,
          "time": 87.5,
          "velocity": 0.3937007874015748
        },
        {
          "duration": 0.3125,
          "durationTicks": 192,
          "midi": 49,
          "name": "C#3",
          "ticks": 54048,
          "time": 87.96875,
          "velocity": 0.3937007874015748
        },
        {
          "duration": 0.3125,
          "durationTicks": 192,
          "midi": 60,
          "name": "C4",
          "ticks": 54048,
          "time": 87.96875,
          "velocity": 0.3937007874015748
        },
        {
          "duration": 0.3125,
          "durationTicks": 192,
          "midi": 68,
          "name": "G#4",
          "ticks": 54048,
          "time": 87.96875,
          "velocity": 0.3937007874015748
        },
        {
          "duration": 0.3125,
          "durationTicks": 192,
          "midi": 56,
          "name": "G#3",
          "ticks": 54048,
          "time": 87.96875,
          "velocity": 0.3937007874015748
        },
        {
          "duration": 2.5,
          "durationTicks": 1536,
          "midi": 75,
          "name": "D#5",
          "ticks": 54336,
          "time": 88.4375,
          "velocity": 0.3937007874015748
        },
        {
          "duration": 2.5,
          "durationTicks": 1536,
          "midi": 54,
          "name": "F#3",
          "ticks": 54336,
          "time": 88.4375,
          "velocity": 0.3937007874015748
        },
        {
          "duration": 2.5,
          "durationTicks": 1536,
          "midi": 65,
          "name": "F4",
          "ticks": 54336,
          "time": 88.4375,
          "velocity": 0.3937007874015748
        },
        {
          "duration": 2.5,
          "durationTicks": 1536,
          "midi": 70,
          "name": "A#4",
          "ticks": 54336,
          "time": 88.4375,
          "velocity": 0.3937007874015748
        },
        {
          "duration": 2.5,
          "durationTicks": 1536,
          "midi": 42,
          "name": "F#2",
          "ticks": 54336,
          "time": 88.4375,
          "velocity": 0.3937007874015748
        },
        {
          "duration": 2.5,
          "durationTicks": 1536,
          "midi": 49,
          "name": "C#3",
          "ticks": 54336,
          "time": 88.4375,
          "velocity": 0.3937007874015748
        },
        {
          "duration": 1.25,
          "durationTicks": 768,
          "midi": 65,
          "name": "F4",
          "ticks": 56064,
          "time": 91.25,
          "velocity": 0.3937007874015748
        },
        {
          "duration": 1.25,
          "durationTicks": 768,
          "midi": 56,
          "name": "G#3",
          "ticks": 56064,
          "time": 91.25,
          "velocity": 0.3937007874015748
        },
        {
          "duration": 1.25,
          "durationTicks": 768,
          "midi": 49,
          "name": "C#3",
          "ticks": 56064,
          "time": 91.25,
          "velocity": 0.3937007874015748
        },
        {
          "duration": 1.25,
          "durationTicks": 768,
          "midi": 68,
          "name": "G#4",
          "ticks": 56064,
          "time": 91.25,
          "velocity": 0.3937007874015748
        },
        {
          "duration": 1.25,
          "durationTicks": 768,
          "midi": 67,
          "name": "G4",
          "ticks": 56832,
          "time": 92.5,
          "velocity": 0.3937007874015748
        },
        {
          "duration": 1.25,
          "durationTicks": 768,
          "midi": 48,
          "name": "C3",
          "ticks": 56832,
          "time": 92.5,
          "velocity": 0.3937007874015748
        },
        {
          "duration": 1.25,
          "durationTicks": 768,
          "midi": 55,
          "name": "G3",
          "ticks": 56832,
          "time": 92.5,
          "velocity": 0.3937007874015748
        },
        {
          "duration": 1.25,
          "durationTicks": 768,
          "midi": 64,
          "name": "E4",
          "ticks": 56832,
          "time": 92.5,
          "velocity": 0.3937007874015748
        },
        {
          "duration": 1.25,
          "durationTicks": 768,
          "midi": 68,
          "name": "G#4",
          "ticks": 57600,
          "time": 93.75,
          "velocity": 0.3937007874015748
        },
        {
          "duration": 1.25,
          "durationTicks": 768,
          "midi": 72,
          "name": "C5",
          "ticks": 57600,
          "time": 93.75,
          "velocity": 0.3937007874015748
        },
        {
          "duration": 1.25,
          "durationTicks": 768,
          "midi": 53,
          "name": "F3",
          "ticks": 57600,
          "time": 93.75,
          "velocity": 0.3937007874015748
        },
        {
          "duration": 1.25,
          "durationTicks": 768,
          "midi": 60,
          "name": "C4",
          "ticks": 57600,
          "time": 93.75,
          "velocity": 0.3937007874015748
        },
        {
          "duration": 0.625,
          "durationTicks": 384,
          "midi": 63,
          "name": "D#4",
          "ticks": 58368,
          "time": 95,
          "velocity": 0.3937007874015748
        },
        {
          "duration": 0.625,
          "durationTicks": 384,
          "midi": 51,
          "name": "D#3",
          "ticks": 58368,
          "time": 95,
          "velocity": 0.3937007874015748
        },
        {
          "duration": 0.625,
          "durationTicks": 384,
          "midi": 66,
          "name": "F#4",
          "ticks": 58368,
          "time": 95,
          "velocity": 0.3937007874015748
        },
        {
          "duration": 0.625,
          "durationTicks": 384,
          "midi": 58,
          "name": "A#3",
          "ticks": 58368,
          "time": 95,
          "velocity": 0.3937007874015748
        },
        {
          "duration": 0.625,
          "durationTicks": 384,
          "midi": 70,
          "name": "A#4",
          "ticks": 58368,
          "time": 95,
          "velocity": 0.3937007874015748
        },
        {
          "duration": 0.625,
          "durationTicks": 384,
          "midi": 56,
          "name": "G#3",
          "ticks": 58752,
          "time": 95.625,
          "velocity": 0.3937007874015748
        },
        {
          "duration": 0.625,
          "durationTicks": 384,
          "midi": 72,
          "name": "C5",
          "ticks": 58752,
          "time": 95.625,
          "velocity": 0.3937007874015748
        },
        {
          "duration": 0.625,
          "durationTicks": 384,
          "midi": 63,
          "name": "D#4",
          "ticks": 58752,
          "time": 95.625,
          "velocity": 0.3937007874015748
        },
        {
          "duration": 0.625,
          "durationTicks": 384,
          "midi": 66,
          "name": "F#4",
          "ticks": 58752,
          "time": 95.625,
          "velocity": 0.3937007874015748
        },
        {
          "duration": 0.625,
          "durationTicks": 384,
          "midi": 58,
          "name": "A#3",
          "ticks": 58752,
          "time": 95.625,
          "velocity": 0.3937007874015748
        },
        {
          "duration": 1.25,
          "durationTicks": 768,
          "midi": 56,
          "name": "G#3",
          "ticks": 59136,
          "time": 96.25,
          "velocity": 0.3937007874015748
        },
        {
          "duration": 1.25,
          "durationTicks": 768,
          "midi": 73,
          "name": "C#5",
          "ticks": 59136,
          "time": 96.25,
          "velocity": 0.3937007874015748
        },
        {
          "duration": 1.25,
          "durationTicks": 768,
          "midi": 61,
          "name": "C#4",
          "ticks": 59136,
          "time": 96.25,
          "velocity": 0.3937007874015748
        },
        {
          "duration": 1.25,
          "durationTicks": 768,
          "midi": 49,
          "name": "C#3",
          "ticks": 59136,
          "time": 96.25,
          "velocity": 0.3937007874015748
        },
        {
          "duration": 1.25,
          "durationTicks": 768,
          "midi": 68,
          "name": "G#4",
          "ticks": 59136,
          "time": 96.25,
          "velocity": 0.3937007874015748
        },
        {
          "duration": 1.25,
          "durationTicks": 768,
          "midi": 76,
          "name": "E5",
          "ticks": 59904,
          "time": 97.5,
          "velocity": 0.3937007874015748
        },
        {
          "duration": 1.25,
          "durationTicks": 768,
          "midi": 60,
          "name": "C4",
          "ticks": 59904,
          "time": 97.5,
          "velocity": 0.3937007874015748
        },
        {
          "duration": 1.25,
          "durationTicks": 768,
          "midi": 72,
          "name": "C5",
          "ticks": 59904,
          "time": 97.5,
          "velocity": 0.3937007874015748
        },
        {
          "duration": 1.25,
          "durationTicks": 768,
          "midi": 55,
          "name": "G3",
          "ticks": 59904,
          "time": 97.5,
          "velocity": 0.3937007874015748
        },
        {
          "duration": 1.25,
          "durationTicks": 768,
          "midi": 48,
          "name": "C3",
          "ticks": 59904,
          "time": 97.5,
          "velocity": 0.3937007874015748
        },
        {
          "duration": 2.1875,
          "durationTicks": 1344,
          "midi": 77,
          "name": "F5",
          "ticks": 60672,
          "time": 98.75,
          "velocity": 0.3937007874015748
        },
        {
          "duration": 2.1875,
          "durationTicks": 1344,
          "midi": 53,
          "name": "F3",
          "ticks": 60672,
          "time": 98.75,
          "velocity": 0.3937007874015748
        },
        {
          "duration": 2.1875,
          "durationTicks": 1344,
          "midi": 41,
          "name": "F2",
          "ticks": 60672,
          "time": 98.75,
          "velocity": 0.3937007874015748
        },
        {
          "duration": 2.1875,
          "durationTicks": 1344,
          "midi": 48,
          "name": "C3",
          "ticks": 60672,
          "time": 98.75,
          "velocity": 0.3937007874015748
        },
        {
          "duration": 2.1875,
          "durationTicks": 1344,
          "midi": 72,
          "name": "C5",
          "ticks": 60672,
          "time": 98.75,
          "velocity": 0.3937007874015748
        },
        {
          "duration": 2.1875,
          "durationTicks": 1344,
          "midi": 68,
          "name": "G#4",
          "ticks": 60672,
          "time": 98.75,
          "velocity": 0.3937007874015748
        },
        {
          "duration": 0.15625,
          "durationTicks": 96,
          "midi": 77,
          "name": "F5",
          "ticks": 62208,
          "time": 101.25,
          "velocity": 0.3937007874015748
        },
        {
          "duration": 2.5,
          "durationTicks": 1536,
          "midi": 61,
          "name": "C#4",
          "ticks": 62208,
          "time": 101.25,
          "velocity": 0.3937007874015748
        },
        {
          "duration": 2.5,
          "durationTicks": 1536,
          "midi": 68,
          "name": "G#4",
          "ticks": 62208,
          "time": 101.25,
          "velocity": 0.3937007874015748
        },
        {
          "duration": 2.5,
          "durationTicks": 1536,
          "midi": 56,
          "name": "G#3",
          "ticks": 62208,
          "time": 101.25,
          "velocity": 0.3937007874015748
        },
        {
          "duration": 2.5,
          "durationTicks": 1536,
          "midi": 65,
          "name": "F4",
          "ticks": 62208,
          "time": 101.25,
          "velocity": 0.3937007874015748
        },
        {
          "duration": 0.3125,
          "durationTicks": 192,
          "midi": 77,
          "name": "F5",
          "ticks": 62304,
          "time": 101.40625,
          "velocity": 0.3937007874015748
        },
        {
          "duration": 0.3125,
          "durationTicks": 192,
          "midi": 77,
          "name": "F5",
          "ticks": 62496,
          "time": 101.71875,
          "velocity": 0.3937007874015748
        },
        {
          "duration": 0.15625,
          "durationTicks": 96,
          "midi": 79,
          "name": "G5",
          "ticks": 62688,
          "time": 102.03125,
          "velocity": 0.3937007874015748
        },
        {
          "duration": 0.9375,
          "durationTicks": 576,
          "midi": 80,
          "name": "G#5",
          "ticks": 62784,
          "time": 102.1875,
          "velocity": 0.3937007874015748
        },
        {
          "duration": 2.5,
          "durationTicks": 1536,
          "midi": 63,
          "name": "D#4",
          "ticks": 63744,
          "time": 103.75,
          "velocity": 0.3937007874015748
        },
        {
          "duration": 0.15625,
          "durationTicks": 96,
          "midi": 79,
          "name": "G5",
          "ticks": 63744,
          "time": 103.75,
          "velocity": 0.3937007874015748
        },
        {
          "duration": 2.5,
          "durationTicks": 1536,
          "midi": 67,
          "name": "G4",
          "ticks": 63744,
          "time": 103.75,
          "velocity": 0.3937007874015748
        },
        {
          "duration": 2.5,
          "durationTicks": 1536,
          "midi": 51,
          "name": "D#3",
          "ticks": 63744,
          "time": 103.75,
          "velocity": 0.3937007874015748
        },
        {
          "duration": 2.5,
          "durationTicks": 1536,
          "midi": 72,
          "name": "C5",
          "ticks": 63744,
          "time": 103.75,
          "velocity": 0.3937007874015748
        },
        {
          "duration": 2.5,
          "durationTicks": 1536,
          "midi": 58,
          "name": "A#3",
          "ticks": 63744,
          "time": 103.75,
          "velocity": 0.3937007874015748
        },
        {
          "duration": 0.3125,
          "durationTicks": 192,
          "midi": 80,
          "name": "G#5",
          "ticks": 63840,
          "time": 103.90625,
          "velocity": 0.3937007874015748
        },
        {
          "duration": 0.3125,
          "durationTicks": 192,
          "midi": 79,
          "name": "G5",
          "ticks": 64032,
          "time": 104.21875,
          "velocity": 0.3937007874015748
        },
        {
          "duration": 0.3125,
          "durationTicks": 192,
          "midi": 75,
          "name": "D#5",
          "ticks": 64224,
          "time": 104.53125,
          "velocity": 0.3937007874015748
        },
        {
          "duration": 0.78125,
          "durationTicks": 480,
          "midi": 84,
          "name": "C6",
          "ticks": 64416,
          "time": 104.84375,
          "velocity": 0.3937007874015748
        },
        {
          "duration": 0.3125,
          "durationTicks": 192,
          "midi": 82,
          "name": "A#5",
          "ticks": 64896,
          "time": 105.625,
          "velocity": 0.3937007874015748
        },
        {
          "duration": 0.3125,
          "durationTicks": 192,
          "midi": 80,
          "name": "G#5",
          "ticks": 65088,
          "time": 105.9375,
          "velocity": 0.3937007874015748
        },
        {
          "duration": 2.5,
          "durationTicks": 1536,
          "midi": 67,
          "name": "G4",
          "ticks": 65280,
          "time": 106.25,
          "velocity": 0.3937007874015748
        },
        {
          "duration": 2.5,
          "durationTicks": 1536,
          "midi": 63,
          "name": "D#4",
          "ticks": 65280,
          "time": 106.25,
          "velocity": 0.3937007874015748
        },
        {
          "duration": 2.5,
          "durationTicks": 1536,
          "midi": 56,
          "name": "G#3",
          "ticks": 65280,
          "time": 106.25,
          "velocity": 0.3937007874015748
        },
        {
          "duration": 2.5,
          "durationTicks": 1536,
          "midi": 70,
          "name": "A#4",
          "ticks": 65280,
          "time": 106.25,
          "velocity": 0.3937007874015748
        },
        {
          "duration": 0.3125,
          "durationTicks": 192,
          "midi": 82,
          "name": "A#5",
          "ticks": 65280,
          "time": 106.25,
          "velocity": 0.3937007874015748
        },
        {
          "duration": 0.15625,
          "durationTicks": 96,
          "midi": 80,
          "name": "G#5",
          "ticks": 65472,
          "time": 106.5625,
          "velocity": 0.3937007874015748
        },
        {
          "duration": 0.3125,
          "durationTicks": 192,
          "midi": 82,
          "name": "A#5",
          "ticks": 65568,
          "time": 106.71875,
          "velocity": 0.3937007874015748
        },
        {
          "duration": 0.3125,
          "durationTicks": 192,
          "midi": 80,
          "name": "G#5",
          "ticks": 65760,
          "time": 107.03125,
          "velocity": 0.3937007874015748
        },
        {
          "duration": 0.3125,
          "durationTicks": 192,
          "midi": 82,
          "name": "A#5",
          "ticks": 65952,
          "time": 107.34375,
          "velocity": 0.3937007874015748
        },
        {
          "duration": 0.46875,
          "durationTicks": 288,
          "midi": 80,
          "name": "G#5",
          "ticks": 66144,
          "time": 107.65625,
          "velocity": 0.3937007874015748
        },
        {
          "duration": 0.3125,
          "durationTicks": 192,
          "midi": 77,
          "name": "F5",
          "ticks": 66432,
          "time": 108.125,
          "velocity": 0.3937007874015748
        },
        {
          "duration": 0.3125,
          "durationTicks": 192,
          "midi": 75,
          "name": "D#5",
          "ticks": 66624,
          "time": 108.4375,
          "velocity": 0.3937007874015748
        },
        {
          "duration": 0.3125,
          "durationTicks": 192,
          "midi": 77,
          "name": "F5",
          "ticks": 66816,
          "time": 108.75,
          "velocity": 0.3937007874015748
        },
        {
          "duration": 1.875,
          "durationTicks": 1152,
          "midi": 56,
          "name": "G#3",
          "ticks": 66816,
          "time": 108.75,
          "velocity": 0.3937007874015748
        },
        {
          "duration": 1.875,
          "durationTicks": 1152,
          "midi": 53,
          "name": "F3",
          "ticks": 66816,
          "time": 108.75,
          "velocity": 0.3937007874015748
        },
        {
          "duration": 1.875,
          "durationTicks": 1152,
          "midi": 63,
          "name": "D#4",
          "ticks": 66816,
          "time": 108.75,
          "velocity": 0.3937007874015748
        },
        {
          "duration": 1.875,
          "durationTicks": 1152,
          "midi": 60,
          "name": "C4",
          "ticks": 66816,
          "time": 108.75,
          "velocity": 0.3937007874015748
        },
        {
          "duration": 0.15625,
          "durationTicks": 96,
          "midi": 75,
          "name": "D#5",
          "ticks": 67008,
          "time": 109.0625,
          "velocity": 0.3937007874015748
        },
        {
          "duration": 0.3125,
          "durationTicks": 192,
          "midi": 72,
          "name": "C5",
          "ticks": 67104,
          "time": 109.21875,
          "velocity": 0.3937007874015748
        },
        {
          "duration": 0.3125,
          "durationTicks": 192,
          "midi": 70,
          "name": "A#4",
          "ticks": 67296,
          "time": 109.53125,
          "velocity": 0.3937007874015748
        },
        {
          "duration": 0.78125,
          "durationTicks": 480,
          "midi": 72,
          "name": "C5",
          "ticks": 67488,
          "time": 109.84375,
          "velocity": 0.3937007874015748
        },
        {
          "duration": 0.625,
          "durationTicks": 384,
          "midi": 60,
          "name": "C4",
          "ticks": 67968,
          "time": 110.625,
          "velocity": 0.3937007874015748
        },
        {
          "duration": 0.625,
          "durationTicks": 384,
          "midi": 53,
          "name": "F3",
          "ticks": 67968,
          "time": 110.625,
          "velocity": 0.3937007874015748
        },
        {
          "duration": 0.625,
          "durationTicks": 384,
          "midi": 57,
          "name": "A3",
          "ticks": 67968,
          "time": 110.625,
          "velocity": 0.3937007874015748
        },
        {
          "duration": 0.625,
          "durationTicks": 384,
          "midi": 63,
          "name": "D#4",
          "ticks": 67968,
          "time": 110.625,
          "velocity": 0.3937007874015748
        },
        {
          "duration": 0.625,
          "durationTicks": 384,
          "midi": 66,
          "name": "F#4",
          "ticks": 67968,
          "time": 110.625,
          "velocity": 0.3937007874015748
        },
        {
          "duration": 0.15625,
          "durationTicks": 96,
          "midi": 77,
          "name": "F5",
          "ticks": 68352,
          "time": 111.25,
          "velocity": 0.3937007874015748
        },
        {
          "duration": 2.5,
          "durationTicks": 1536,
          "midi": 56,
          "name": "G#3",
          "ticks": 68352,
          "time": 111.25,
          "velocity": 0.3937007874015748
        },
        {
          "duration": 2.5,
          "durationTicks": 1536,
          "midi": 61,
          "name": "C#4",
          "ticks": 68352,
          "time": 111.25,
          "velocity": 0.3937007874015748
        },
        {
          "duration": 2.5,
          "durationTicks": 1536,
          "midi": 65,
          "name": "F4",
          "ticks": 68352,
          "time": 111.25,
          "velocity": 0.3937007874015748
        },
        {
          "duration": 2.5,
          "durationTicks": 1536,
          "midi": 68,
          "name": "G#4",
          "ticks": 68352,
          "time": 111.25,
          "velocity": 0.3937007874015748
        },
        {
          "duration": 0.3125,
          "durationTicks": 192,
          "midi": 77,
          "name": "F5",
          "ticks": 68448,
          "time": 111.40625,
          "velocity": 0.3937007874015748
        },
        {
          "duration": 0.3125,
          "durationTicks": 192,
          "midi": 77,
          "name": "F5",
          "ticks": 68640,
          "time": 111.71875,
          "velocity": 0.3937007874015748
        },
        {
          "duration": 0.15625,
          "durationTicks": 96,
          "midi": 79,
          "name": "G5",
          "ticks": 68832,
          "time": 112.03125,
          "velocity": 0.3937007874015748
        },
        {
          "duration": 0.9375,
          "durationTicks": 576,
          "midi": 80,
          "name": "G#5",
          "ticks": 68928,
          "time": 112.1875,
          "velocity": 0.3937007874015748
        },
        {
          "duration": 2.5,
          "durationTicks": 1536,
          "midi": 63,
          "name": "D#4",
          "ticks": 69888,
          "time": 113.75,
          "velocity": 0.3937007874015748
        },
        {
          "duration": 2.5,
          "durationTicks": 1536,
          "midi": 58,
          "name": "A#3",
          "ticks": 69888,
          "time": 113.75,
          "velocity": 0.3937007874015748
        },
        {
          "duration": 2.5,
          "durationTicks": 1536,
          "midi": 67,
          "name": "G4",
          "ticks": 69888,
          "time": 113.75,
          "velocity": 0.3937007874015748
        },
        {
          "duration": 2.5,
          "durationTicks": 1536,
          "midi": 72,
          "name": "C5",
          "ticks": 69888,
          "time": 113.75,
          "velocity": 0.3937007874015748
        },
        {
          "duration": 0.15625,
          "durationTicks": 96,
          "midi": 79,
          "name": "G5",
          "ticks": 69888,
          "time": 113.75,
          "velocity": 0.3937007874015748
        },
        {
          "duration": 2.5,
          "durationTicks": 1536,
          "midi": 51,
          "name": "D#3",
          "ticks": 69888,
          "time": 113.75,
          "velocity": 0.3937007874015748
        },
        {
          "duration": 0.3125,
          "durationTicks": 192,
          "midi": 80,
          "name": "G#5",
          "ticks": 69984,
          "time": 113.90625,
          "velocity": 0.3937007874015748
        },
        {
          "duration": 0.3125,
          "durationTicks": 192,
          "midi": 79,
          "name": "G5",
          "ticks": 70176,
          "time": 114.21875,
          "velocity": 0.3937007874015748
        },
        {
          "duration": 0.3125,
          "durationTicks": 192,
          "midi": 75,
          "name": "D#5",
          "ticks": 70368,
          "time": 114.53125,
          "velocity": 0.3937007874015748
        },
        {
          "duration": 0.78125,
          "durationTicks": 480,
          "midi": 84,
          "name": "C6",
          "ticks": 70560,
          "time": 114.84375,
          "velocity": 0.3937007874015748
        },
        {
          "duration": 0.3125,
          "durationTicks": 192,
          "midi": 82,
          "name": "A#5",
          "ticks": 71040,
          "time": 115.625,
          "velocity": 0.3937007874015748
        },
        {
          "duration": 0.3125,
          "durationTicks": 192,
          "midi": 80,
          "name": "G#5",
          "ticks": 71232,
          "time": 115.9375,
          "velocity": 0.3937007874015748
        },
        {
          "duration": 0.3125,
          "durationTicks": 192,
          "midi": 82,
          "name": "A#5",
          "ticks": 71424,
          "time": 116.25,
          "velocity": 0.3937007874015748
        },
        {
          "duration": 2.5,
          "durationTicks": 1536,
          "midi": 67,
          "name": "G4",
          "ticks": 71424,
          "time": 116.25,
          "velocity": 0.3937007874015748
        },
        {
          "duration": 2.5,
          "durationTicks": 1536,
          "midi": 56,
          "name": "G#3",
          "ticks": 71424,
          "time": 116.25,
          "velocity": 0.3937007874015748
        },
        {
          "duration": 2.5,
          "durationTicks": 1536,
          "midi": 70,
          "name": "A#4",
          "ticks": 71424,
          "time": 116.25,
          "velocity": 0.3937007874015748
        },
        {
          "duration": 2.5,
          "durationTicks": 1536,
          "midi": 63,
          "name": "D#4",
          "ticks": 71424,
          "time": 116.25,
          "velocity": 0.3937007874015748
        },
        {
          "duration": 0.15625,
          "durationTicks": 96,
          "midi": 80,
          "name": "G#5",
          "ticks": 71616,
          "time": 116.5625,
          "velocity": 0.3937007874015748
        },
        {
          "duration": 0.3125,
          "durationTicks": 192,
          "midi": 82,
          "name": "A#5",
          "ticks": 71712,
          "time": 116.71875,
          "velocity": 0.3937007874015748
        },
        {
          "duration": 0.3125,
          "durationTicks": 192,
          "midi": 80,
          "name": "G#5",
          "ticks": 71904,
          "time": 117.03125,
          "velocity": 0.3937007874015748
        },
        {
          "duration": 0.3125,
          "durationTicks": 192,
          "midi": 82,
          "name": "A#5",
          "ticks": 72096,
          "time": 117.34375,
          "velocity": 0.3937007874015748
        },
        {
          "duration": 0.46875,
          "durationTicks": 288,
          "midi": 80,
          "name": "G#5",
          "ticks": 72288,
          "time": 117.65625,
          "velocity": 0.3937007874015748
        },
        {
          "duration": 0.3125,
          "durationTicks": 192,
          "midi": 80,
          "name": "G#5",
          "ticks": 72576,
          "time": 118.125,
          "velocity": 0.3937007874015748
        },
        {
          "duration": 0.3125,
          "durationTicks": 192,
          "midi": 80,
          "name": "G#5",
          "ticks": 72768,
          "time": 118.4375,
          "velocity": 0.3937007874015748
        },
        {
          "duration": 0.3125,
          "durationTicks": 192,
          "midi": 84,
          "name": "C6",
          "ticks": 72960,
          "time": 118.75,
          "velocity": 0.3937007874015748
        },
        {
          "duration": 1.875,
          "durationTicks": 1152,
          "midi": 60,
          "name": "C4",
          "ticks": 72960,
          "time": 118.75,
          "velocity": 0.3937007874015748
        },
        {
          "duration": 1.875,
          "durationTicks": 1152,
          "midi": 53,
          "name": "F3",
          "ticks": 72960,
          "time": 118.75,
          "velocity": 0.3937007874015748
        },
        {
          "duration": 0.3125,
          "durationTicks": 192,
          "midi": 72,
          "name": "C5",
          "ticks": 72960,
          "time": 118.75,
          "velocity": 0.3937007874015748
        },
        {
          "duration": 1.875,
          "durationTicks": 1152,
          "midi": 56,
          "name": "G#3",
          "ticks": 72960,
          "time": 118.75,
          "velocity": 0.3937007874015748
        },
        {
          "duration": 1.875,
          "durationTicks": 1152,
          "midi": 63,
          "name": "D#4",
          "ticks": 72960,
          "time": 118.75,
          "velocity": 0.3937007874015748
        },
        {
          "duration": 0.15625,
          "durationTicks": 96,
          "midi": 85,
          "name": "C#6",
          "ticks": 73152,
          "time": 119.0625,
          "velocity": 0.3937007874015748
        },
        {
          "duration": 0.15625,
          "durationTicks": 96,
          "midi": 73,
          "name": "C#5",
          "ticks": 73152,
          "time": 119.0625,
          "velocity": 0.3937007874015748
        },
        {
          "duration": 0.3125,
          "durationTicks": 192,
          "midi": 84,
          "name": "C6",
          "ticks": 73248,
          "time": 119.21875,
          "velocity": 0.3937007874015748
        },
        {
          "duration": 0.3125,
          "durationTicks": 192,
          "midi": 72,
          "name": "C5",
          "ticks": 73248,
          "time": 119.21875,
          "velocity": 0.3937007874015748
        },
        {
          "duration": 0.3125,
          "durationTicks": 192,
          "midi": 73,
          "name": "C#5",
          "ticks": 73440,
          "time": 119.53125,
          "velocity": 0.3937007874015748
        },
        {
          "duration": 0.3125,
          "durationTicks": 192,
          "midi": 85,
          "name": "C#6",
          "ticks": 73440,
          "time": 119.53125,
          "velocity": 0.3937007874015748
        },
        {
          "duration": 0.78125,
          "durationTicks": 480,
          "midi": 72,
          "name": "C5",
          "ticks": 73632,
          "time": 119.84375,
          "velocity": 0.3937007874015748
        },
        {
          "duration": 0.78125,
          "durationTicks": 480,
          "midi": 84,
          "name": "C6",
          "ticks": 73632,
          "time": 119.84375,
          "velocity": 0.3937007874015748
        },
        {
          "duration": 0.625,
          "durationTicks": 384,
          "midi": 56,
          "name": "G#3",
          "ticks": 74112,
          "time": 120.625,
          "velocity": 0.3937007874015748
        },
        {
          "duration": 0.625,
          "durationTicks": 384,
          "midi": 63,
          "name": "D#4",
          "ticks": 74112,
          "time": 120.625,
          "velocity": 0.3937007874015748
        },
        {
          "duration": 0.625,
          "durationTicks": 384,
          "midi": 51,
          "name": "D#3",
          "ticks": 74112,
          "time": 120.625,
          "velocity": 0.3937007874015748
        },
        {
          "duration": 0.625,
          "durationTicks": 384,
          "midi": 48,
          "name": "C3",
          "ticks": 74112,
          "time": 120.625,
          "velocity": 0.3937007874015748
        },
        {
          "duration": 0.15625,
          "durationTicks": 96,
          "midi": 77,
          "name": "F5",
          "ticks": 74304,
          "time": 120.9375,
          "velocity": 0.3937007874015748
        },
        {
          "duration": 0.15625,
          "durationTicks": 96,
          "midi": 89,
          "name": "F6",
          "ticks": 74304,
          "time": 120.9375,
          "velocity": 0.3937007874015748
        },
        {
          "duration": 0.15625,
          "durationTicks": 96,
          "midi": 77,
          "name": "F5",
          "ticks": 74400,
          "time": 121.09375,
          "velocity": 0.3937007874015748
        },
        {
          "duration": 0.15625,
          "durationTicks": 96,
          "midi": 89,
          "name": "F6",
          "ticks": 74400,
          "time": 121.09375,
          "velocity": 0.3937007874015748
        },
        {
          "duration": 0.625,
          "durationTicks": 384,
          "midi": 68,
          "name": "G#4",
          "ticks": 74496,
          "time": 121.25,
          "velocity": 0.3937007874015748
        },
        {
          "duration": 0.3125,
          "durationTicks": 192,
          "midi": 77,
          "name": "F5",
          "ticks": 74496,
          "time": 121.25,
          "velocity": 0.3937007874015748
        },
        {
          "duration": 0.625,
          "durationTicks": 384,
          "midi": 61,
          "name": "C#4",
          "ticks": 74496,
          "time": 121.25,
          "velocity": 0.3937007874015748
        },
        {
          "duration": 0.625,
          "durationTicks": 384,
          "midi": 56,
          "name": "G#3",
          "ticks": 74496,
          "time": 121.25,
          "velocity": 0.3937007874015748
        },
        {
          "duration": 0.625,
          "durationTicks": 384,
          "midi": 37,
          "name": "C#2",
          "ticks": 74496,
          "time": 121.25,
          "velocity": 0.3937007874015748
        },
        {
          "duration": 0.625,
          "durationTicks": 384,
          "midi": 49,
          "name": "C#3",
          "ticks": 74496,
          "time": 121.25,
          "velocity": 0.3937007874015748
        },
        {
          "duration": 0.3125,
          "durationTicks": 192,
          "midi": 89,
          "name": "F6",
          "ticks": 74496,
          "time": 121.25,
          "velocity": 0.3937007874015748
        },
        {
          "duration": 0.3125,
          "durationTicks": 192,
          "midi": 89,
          "name": "F6",
          "ticks": 74688,
          "time": 121.5625,
          "velocity": 0.3937007874015748
        },
        {
          "duration": 0.3125,
          "durationTicks": 192,
          "midi": 77,
          "name": "F5",
          "ticks": 74688,
          "time": 121.5625,
          "velocity": 0.3937007874015748
        },
        {
          "duration": 0.625,
          "durationTicks": 384,
          "midi": 65,
          "name": "F4",
          "ticks": 74880,
          "time": 121.875,
          "velocity": 0.3937007874015748
        },
        {
          "duration": 0.15625,
          "durationTicks": 96,
          "midi": 92,
          "name": "G#6",
          "ticks": 74880,
          "time": 121.875,
          "velocity": 0.3937007874015748
        },
        {
          "duration": 0.625,
          "durationTicks": 384,
          "midi": 68,
          "name": "G#4",
          "ticks": 74880,
          "time": 121.875,
          "velocity": 0.3937007874015748
        },
        {
          "duration": 0.625,
          "durationTicks": 384,
          "midi": 72,
          "name": "C5",
          "ticks": 74880,
          "time": 121.875,
          "velocity": 0.3937007874015748
        },
        {
          "duration": 0.625,
          "durationTicks": 384,
          "midi": 61,
          "name": "C#4",
          "ticks": 74880,
          "time": 121.875,
          "velocity": 0.3937007874015748
        },
        {
          "duration": 0.15625,
          "durationTicks": 96,
          "midi": 80,
          "name": "G#5",
          "ticks": 74880,
          "time": 121.875,
          "velocity": 0.3937007874015748
        },
        {
          "duration": 0.15625,
          "durationTicks": 96,
          "midi": 91,
          "name": "G6",
          "ticks": 74976,
          "time": 122.03125,
          "velocity": 0.3937007874015748
        },
        {
          "duration": 0.15625,
          "durationTicks": 96,
          "midi": 79,
          "name": "G5",
          "ticks": 74976,
          "time": 122.03125,
          "velocity": 0.3937007874015748
        },
        {
          "duration": 0.15625,
          "durationTicks": 96,
          "midi": 77,
          "name": "F5",
          "ticks": 75072,
          "time": 122.1875,
          "velocity": 0.3937007874015748
        },
        {
          "duration": 0.15625,
          "durationTicks": 96,
          "midi": 89,
          "name": "F6",
          "ticks": 75072,
          "time": 122.1875,
          "velocity": 0.3937007874015748
        },
        {
          "duration": 0.15625,
          "durationTicks": 96,
          "midi": 79,
          "name": "G5",
          "ticks": 75168,
          "time": 122.34375,
          "velocity": 0.3937007874015748
        },
        {
          "duration": 0.15625,
          "durationTicks": 96,
          "midi": 91,
          "name": "G6",
          "ticks": 75168,
          "time": 122.34375,
          "velocity": 0.3937007874015748
        },
        {
          "duration": 0.625,
          "durationTicks": 384,
          "midi": 68,
          "name": "G#4",
          "ticks": 75264,
          "time": 122.5,
          "velocity": 0.3937007874015748
        },
        {
          "duration": 0.625,
          "durationTicks": 384,
          "midi": 60,
          "name": "C4",
          "ticks": 75264,
          "time": 122.5,
          "velocity": 0.3937007874015748
        },
        {
          "duration": 0.625,
          "durationTicks": 384,
          "midi": 72,
          "name": "C5",
          "ticks": 75264,
          "time": 122.5,
          "velocity": 0.3937007874015748
        },
        {
          "duration": 0.3125,
          "durationTicks": 192,
          "midi": 79,
          "name": "G5",
          "ticks": 75264,
          "time": 122.5,
          "velocity": 0.3937007874015748
        },
        {
          "duration": 0.3125,
          "durationTicks": 192,
          "midi": 91,
          "name": "G6",
          "ticks": 75264,
          "time": 122.5,
          "velocity": 0.3937007874015748
        },
        {
          "duration": 0.625,
          "durationTicks": 384,
          "midi": 41,
          "name": "F2",
          "ticks": 75264,
          "time": 122.5,
          "velocity": 0.3937007874015748
        },
        {
          "duration": 0.625,
          "durationTicks": 384,
          "midi": 53,
          "name": "F3",
          "ticks": 75264,
          "time": 122.5,
          "velocity": 0.3937007874015748
        },
        {
          "duration": 0.3125,
          "durationTicks": 192,
          "midi": 80,
          "name": "G#5",
          "ticks": 75456,
          "time": 122.8125,
          "velocity": 0.3937007874015748
        },
        {
          "duration": 0.3125,
          "durationTicks": 192,
          "midi": 92,
          "name": "G#6",
          "ticks": 75456,
          "time": 122.8125,
          "velocity": 0.3937007874015748
        },
        {
          "duration": 0.625,
          "durationTicks": 384,
          "midi": 72,
          "name": "C5",
          "ticks": 75648,
          "time": 123.125,
          "velocity": 0.3937007874015748
        },
        {
          "duration": 0.625,
          "durationTicks": 384,
          "midi": 60,
          "name": "C4",
          "ticks": 75648,
          "time": 123.125,
          "velocity": 0.3937007874015748
        },
        {
          "duration": 0.625,
          "durationTicks": 384,
          "midi": 65,
          "name": "F4",
          "ticks": 75648,
          "time": 123.125,
          "velocity": 0.3937007874015748
        },
        {
          "duration": 0.625,
          "durationTicks": 384,
          "midi": 68,
          "name": "G#4",
          "ticks": 75648,
          "time": 123.125,
          "velocity": 0.3937007874015748
        },
        {
          "duration": 0.15625,
          "durationTicks": 96,
          "midi": 77,
          "name": "F5",
          "ticks": 75840,
          "time": 123.4375,
          "velocity": 0.3937007874015748
        },
        {
          "duration": 0.15625,
          "durationTicks": 96,
          "midi": 89,
          "name": "F6",
          "ticks": 75840,
          "time": 123.4375,
          "velocity": 0.3937007874015748
        },
        {
          "duration": 0.15625,
          "durationTicks": 96,
          "midi": 89,
          "name": "F6",
          "ticks": 75936,
          "time": 123.59375,
          "velocity": 0.3937007874015748
        },
        {
          "duration": 0.15625,
          "durationTicks": 96,
          "midi": 77,
          "name": "F5",
          "ticks": 75936,
          "time": 123.59375,
          "velocity": 0.3937007874015748
        },
        {
          "duration": 0.625,
          "durationTicks": 384,
          "midi": 49,
          "name": "C#3",
          "ticks": 76032,
          "time": 123.75,
          "velocity": 0.3937007874015748
        },
        {
          "duration": 0.625,
          "durationTicks": 384,
          "midi": 61,
          "name": "C#4",
          "ticks": 76032,
          "time": 123.75,
          "velocity": 0.3937007874015748
        },
        {
          "duration": 0.3125,
          "durationTicks": 192,
          "midi": 77,
          "name": "F5",
          "ticks": 76032,
          "time": 123.75,
          "velocity": 0.3937007874015748
        },
        {
          "duration": 0.625,
          "durationTicks": 384,
          "midi": 37,
          "name": "C#2",
          "ticks": 76032,
          "time": 123.75,
          "velocity": 0.3937007874015748
        },
        {
          "duration": 0.625,
          "durationTicks": 384,
          "midi": 68,
          "name": "G#4",
          "ticks": 76032,
          "time": 123.75,
          "velocity": 0.3937007874015748
        },
        {
          "duration": 0.3125,
          "durationTicks": 192,
          "midi": 89,
          "name": "F6",
          "ticks": 76032,
          "time": 123.75,
          "velocity": 0.3937007874015748
        },
        {
          "duration": 0.625,
          "durationTicks": 384,
          "midi": 56,
          "name": "G#3",
          "ticks": 76032,
          "time": 123.75,
          "velocity": 0.3937007874015748
        },
        {
          "duration": 0.3125,
          "durationTicks": 192,
          "midi": 77,
          "name": "F5",
          "ticks": 76224,
          "time": 124.0625,
          "velocity": 0.3937007874015748
        },
        {
          "duration": 0.3125,
          "durationTicks": 192,
          "midi": 89,
          "name": "F6",
          "ticks": 76224,
          "time": 124.0625,
          "velocity": 0.3937007874015748
        },
        {
          "duration": 0.625,
          "durationTicks": 384,
          "midi": 41,
          "name": "F2",
          "ticks": 76416,
          "time": 124.375,
          "velocity": 0.3937007874015748
        },
        {
          "duration": 0.625,
          "durationTicks": 384,
          "midi": 72,
          "name": "C5",
          "ticks": 76416,
          "time": 124.375,
          "velocity": 0.3937007874015748
        },
        {
          "duration": 0.625,
          "durationTicks": 384,
          "midi": 49,
          "name": "C#3",
          "ticks": 76416,
          "time": 124.375,
          "velocity": 0.3937007874015748
        },
        {
          "duration": 0.625,
          "durationTicks": 384,
          "midi": 56,
          "name": "G#3",
          "ticks": 76416,
          "time": 124.375,
          "velocity": 0.3937007874015748
        },
        {
          "duration": 0.15625,
          "durationTicks": 96,
          "midi": 92,
          "name": "G#6",
          "ticks": 76416,
          "time": 124.375,
          "velocity": 0.3937007874015748
        },
        {
          "duration": 0.15625,
          "durationTicks": 96,
          "midi": 80,
          "name": "G#5",
          "ticks": 76416,
          "time": 124.375,
          "velocity": 0.3937007874015748
        },
        {
          "duration": 0.625,
          "durationTicks": 384,
          "midi": 61,
          "name": "C#4",
          "ticks": 76416,
          "time": 124.375,
          "velocity": 0.3937007874015748
        },
        {
          "duration": 0.625,
          "durationTicks": 384,
          "midi": 68,
          "name": "G#4",
          "ticks": 76416,
          "time": 124.375,
          "velocity": 0.3937007874015748
        },
        {
          "duration": 0.15625,
          "durationTicks": 96,
          "midi": 91,
          "name": "G6",
          "ticks": 76512,
          "time": 124.53125,
          "velocity": 0.3937007874015748
        },
        {
          "duration": 0.15625,
          "durationTicks": 96,
          "midi": 79,
          "name": "G5",
          "ticks": 76512,
          "time": 124.53125,
          "velocity": 0.3937007874015748
        },
        {
          "duration": 0.15625,
          "durationTicks": 96,
          "midi": 77,
          "name": "F5",
          "ticks": 76608,
          "time": 124.6875,
          "velocity": 0.3937007874015748
        },
        {
          "duration": 0.15625,
          "durationTicks": 96,
          "midi": 89,
          "name": "F6",
          "ticks": 76608,
          "time": 124.6875,
          "velocity": 0.3937007874015748
        },
        {
          "duration": 0.15625,
          "durationTicks": 96,
          "midi": 84,
          "name": "C6",
          "ticks": 76704,
          "time": 124.84375,
          "velocity": 0.3937007874015748
        },
        {
          "duration": 0.625,
          "durationTicks": 384,
          "midi": 53,
          "name": "F3",
          "ticks": 76800,
          "time": 125,
          "velocity": 0.3937007874015748
        },
        {
          "duration": 0.625,
          "durationTicks": 384,
          "midi": 60,
          "name": "C4",
          "ticks": 76800,
          "time": 125,
          "velocity": 0.3937007874015748
        },
        {
          "duration": 0.625,
          "durationTicks": 384,
          "midi": 72,
          "name": "C5",
          "ticks": 76800,
          "time": 125,
          "velocity": 0.3937007874015748
        },
        {
          "duration": 0.3125,
          "durationTicks": 192,
          "midi": 84,
          "name": "C6",
          "ticks": 76800,
          "time": 125,
          "velocity": 0.3937007874015748
        },
        {
          "duration": 0.625,
          "durationTicks": 384,
          "midi": 68,
          "name": "G#4",
          "ticks": 76800,
          "time": 125,
          "velocity": 0.3937007874015748
        },
        {
          "duration": 0.625,
          "durationTicks": 384,
          "midi": 41,
          "name": "F2",
          "ticks": 76800,
          "time": 125,
          "velocity": 0.3937007874015748
        },
        {
          "duration": 0.3125,
          "durationTicks": 192,
          "midi": 89,
          "name": "F6",
          "ticks": 76992,
          "time": 125.3125,
          "velocity": 0.3937007874015748
        },
        {
          "duration": 0.3125,
          "durationTicks": 192,
          "midi": 77,
          "name": "F5",
          "ticks": 76992,
          "time": 125.3125,
          "velocity": 0.3937007874015748
        },
        {
          "duration": 0.625,
          "durationTicks": 384,
          "midi": 60,
          "name": "C4",
          "ticks": 77184,
          "time": 125.625,
          "velocity": 0.3937007874015748
        },
        {
          "duration": 0.625,
          "durationTicks": 384,
          "midi": 72,
          "name": "C5",
          "ticks": 77184,
          "time": 125.625,
          "velocity": 0.3937007874015748
        },
        {
          "duration": 0.625,
          "durationTicks": 384,
          "midi": 65,
          "name": "F4",
          "ticks": 77184,
          "time": 125.625,
          "velocity": 0.3937007874015748
        },
        {
          "duration": 0.625,
          "durationTicks": 384,
          "midi": 68,
          "name": "G#4",
          "ticks": 77184,
          "time": 125.625,
          "velocity": 0.3937007874015748
        },
        {
          "duration": 0.15625,
          "durationTicks": 96,
          "midi": 89,
          "name": "F6",
          "ticks": 77376,
          "time": 125.9375,
          "velocity": 0.3937007874015748
        },
        {
          "duration": 0.15625,
          "durationTicks": 96,
          "midi": 77,
          "name": "F5",
          "ticks": 77376,
          "time": 125.9375,
          "velocity": 0.3937007874015748
        },
        {
          "duration": 0.15625,
          "durationTicks": 96,
          "midi": 89,
          "name": "F6",
          "ticks": 77472,
          "time": 126.09375,
          "velocity": 0.3937007874015748
        },
        {
          "duration": 0.15625,
          "durationTicks": 96,
          "midi": 77,
          "name": "F5",
          "ticks": 77472,
          "time": 126.09375,
          "velocity": 0.3937007874015748
        },
        {
          "duration": 0.3125,
          "durationTicks": 192,
          "midi": 89,
          "name": "F6",
          "ticks": 77568,
          "time": 126.25,
          "velocity": 0.3937007874015748
        },
        {
          "duration": 0.625,
          "durationTicks": 384,
          "midi": 37,
          "name": "C#2",
          "ticks": 77568,
          "time": 126.25,
          "velocity": 0.3937007874015748
        },
        {
          "duration": 0.3125,
          "durationTicks": 192,
          "midi": 77,
          "name": "F5",
          "ticks": 77568,
          "time": 126.25,
          "velocity": 0.3937007874015748
        },
        {
          "duration": 0.625,
          "durationTicks": 384,
          "midi": 61,
          "name": "C#4",
          "ticks": 77568,
          "time": 126.25,
          "velocity": 0.3937007874015748
        },
        {
          "duration": 0.625,
          "durationTicks": 384,
          "midi": 49,
          "name": "C#3",
          "ticks": 77568,
          "time": 126.25,
          "velocity": 0.3937007874015748
        },
        {
          "duration": 0.625,
          "durationTicks": 384,
          "midi": 56,
          "name": "G#3",
          "ticks": 77568,
          "time": 126.25,
          "velocity": 0.3937007874015748
        },
        {
          "duration": 0.625,
          "durationTicks": 384,
          "midi": 68,
          "name": "G#4",
          "ticks": 77568,
          "time": 126.25,
          "velocity": 0.3937007874015748
        },
        {
          "duration": 0.3125,
          "durationTicks": 192,
          "midi": 77,
          "name": "F5",
          "ticks": 77760,
          "time": 126.5625,
          "velocity": 0.3937007874015748
        },
        {
          "duration": 0.3125,
          "durationTicks": 192,
          "midi": 89,
          "name": "F6",
          "ticks": 77760,
          "time": 126.5625,
          "velocity": 0.3937007874015748
        },
        {
          "duration": 0.625,
          "durationTicks": 384,
          "midi": 68,
          "name": "G#4",
          "ticks": 77952,
          "time": 126.875,
          "velocity": 0.3937007874015748
        },
        {
          "duration": 0.625,
          "durationTicks": 384,
          "midi": 61,
          "name": "C#4",
          "ticks": 77952,
          "time": 126.875,
          "velocity": 0.3937007874015748
        },
        {
          "duration": 0.15625,
          "durationTicks": 96,
          "midi": 92,
          "name": "G#6",
          "ticks": 77952,
          "time": 126.875,
          "velocity": 0.3937007874015748
        },
        {
          "duration": 0.15625,
          "durationTicks": 96,
          "midi": 80,
          "name": "G#5",
          "ticks": 77952,
          "time": 126.875,
          "velocity": 0.3937007874015748
        },
        {
          "duration": 0.625,
          "durationTicks": 384,
          "midi": 65,
          "name": "F4",
          "ticks": 77952,
          "time": 126.875,
          "velocity": 0.3937007874015748
        },
        {
          "duration": 0.625,
          "durationTicks": 384,
          "midi": 72,
          "name": "C5",
          "ticks": 77952,
          "time": 126.875,
          "velocity": 0.3937007874015748
        },
        {
          "duration": 0.15625,
          "durationTicks": 96,
          "midi": 79,
          "name": "G5",
          "ticks": 78048,
          "time": 127.03125,
          "velocity": 0.3937007874015748
        },
        {
          "duration": 0.15625,
          "durationTicks": 96,
          "midi": 91,
          "name": "G6",
          "ticks": 78048,
          "time": 127.03125,
          "velocity": 0.3937007874015748
        },
        {
          "duration": 0.15625,
          "durationTicks": 96,
          "midi": 77,
          "name": "F5",
          "ticks": 78144,
          "time": 127.1875,
          "velocity": 0.3937007874015748
        },
        {
          "duration": 0.15625,
          "durationTicks": 96,
          "midi": 89,
          "name": "F6",
          "ticks": 78144,
          "time": 127.1875,
          "velocity": 0.3937007874015748
        },
        {
          "duration": 0.15625,
          "durationTicks": 96,
          "midi": 91,
          "name": "G6",
          "ticks": 78240,
          "time": 127.34375,
          "velocity": 0.3937007874015748
        },
        {
          "duration": 0.15625,
          "durationTicks": 96,
          "midi": 79,
          "name": "G5",
          "ticks": 78240,
          "time": 127.34375,
          "velocity": 0.3937007874015748
        },
        {
          "duration": 0.625,
          "durationTicks": 384,
          "midi": 41,
          "name": "F2",
          "ticks": 78336,
          "time": 127.5,
          "velocity": 0.3937007874015748
        },
        {
          "duration": 0.625,
          "durationTicks": 384,
          "midi": 60,
          "name": "C4",
          "ticks": 78336,
          "time": 127.5,
          "velocity": 0.3937007874015748
        },
        {
          "duration": 0.3125,
          "durationTicks": 192,
          "midi": 91,
          "name": "G6",
          "ticks": 78336,
          "time": 127.5,
          "velocity": 0.3937007874015748
        },
        {
          "duration": 0.3125,
          "durationTicks": 192,
          "midi": 79,
          "name": "G5",
          "ticks": 78336,
          "time": 127.5,
          "velocity": 0.3937007874015748
        },
        {
          "duration": 0.625,
          "durationTicks": 384,
          "midi": 53,
          "name": "F3",
          "ticks": 78336,
          "time": 127.5,
          "velocity": 0.3937007874015748
        },
        {
          "duration": 0.625,
          "durationTicks": 384,
          "midi": 72,
          "name": "C5",
          "ticks": 78336,
          "time": 127.5,
          "velocity": 0.3937007874015748
        },
        {
          "duration": 0.625,
          "durationTicks": 384,
          "midi": 68,
          "name": "G#4",
          "ticks": 78336,
          "time": 127.5,
          "velocity": 0.3937007874015748
        },
        {
          "duration": 0.3125,
          "durationTicks": 192,
          "midi": 80,
          "name": "G#5",
          "ticks": 78528,
          "time": 127.8125,
          "velocity": 0.3937007874015748
        },
        {
          "duration": 0.3125,
          "durationTicks": 192,
          "midi": 92,
          "name": "G#6",
          "ticks": 78528,
          "time": 127.8125,
          "velocity": 0.3937007874015748
        },
        {
          "duration": 0.625,
          "durationTicks": 384,
          "midi": 65,
          "name": "F4",
          "ticks": 78720,
          "time": 128.125,
          "velocity": 0.3937007874015748
        },
        {
          "duration": 0.625,
          "durationTicks": 384,
          "midi": 60,
          "name": "C4",
          "ticks": 78720,
          "time": 128.125,
          "velocity": 0.3937007874015748
        },
        {
          "duration": 0.625,
          "durationTicks": 384,
          "midi": 68,
          "name": "G#4",
          "ticks": 78720,
          "time": 128.125,
          "velocity": 0.3937007874015748
        },
        {
          "duration": 0.625,
          "durationTicks": 384,
          "midi": 72,
          "name": "C5",
          "ticks": 78720,
          "time": 128.125,
          "velocity": 0.3937007874015748
        },
        {
          "duration": 0.15625,
          "durationTicks": 96,
          "midi": 82,
          "name": "A#5",
          "ticks": 78912,
          "time": 128.4375,
          "velocity": 0.3937007874015748
        },
        {
          "duration": 0.15625,
          "durationTicks": 96,
          "midi": 80,
          "name": "G#5",
          "ticks": 79008,
          "time": 128.59375,
          "velocity": 0.3937007874015748
        },
        {
          "duration": 0.625,
          "durationTicks": 384,
          "midi": 73,
          "name": "C#5",
          "ticks": 79104,
          "time": 128.75,
          "velocity": 0.3937007874015748
        },
        {
          "duration": 0.625,
          "durationTicks": 384,
          "midi": 54,
          "name": "F#3",
          "ticks": 79104,
          "time": 128.75,
          "velocity": 0.3937007874015748
        },
        {
          "duration": 0.625,
          "durationTicks": 384,
          "midi": 66,
          "name": "F#4",
          "ticks": 79104,
          "time": 128.75,
          "velocity": 0.3937007874015748
        },
        {
          "duration": 0.2083333333333428,
          "durationTicks": 128,
          "midi": 82,
          "name": "A#5",
          "ticks": 79104,
          "time": 128.75,
          "velocity": 0.3937007874015748
        },
        {
          "duration": 0.625,
          "durationTicks": 384,
          "midi": 61,
          "name": "C#4",
          "ticks": 79104,
          "time": 128.75,
          "velocity": 0.3937007874015748
        },
        {
          "duration": 0.20833333333331439,
          "durationTicks": 128,
          "midi": 82,
          "name": "A#5",
          "ticks": 79232,
          "time": 128.95833333333334,
          "velocity": 0.3937007874015748
        },
        {
          "duration": 0.2083333333333428,
          "durationTicks": 128,
          "midi": 80,
          "name": "G#5",
          "ticks": 79360,
          "time": 129.16666666666666,
          "velocity": 0.3937007874015748
        },
        {
          "duration": 0.625,
          "durationTicks": 384,
          "midi": 70,
          "name": "A#4",
          "ticks": 79488,
          "time": 129.375,
          "velocity": 0.3937007874015748
        },
        {
          "duration": 0.625,
          "durationTicks": 384,
          "midi": 66,
          "name": "F#4",
          "ticks": 79488,
          "time": 129.375,
          "velocity": 0.3937007874015748
        },
        {
          "duration": 0.625,
          "durationTicks": 384,
          "midi": 77,
          "name": "F5",
          "ticks": 79488,
          "time": 129.375,
          "velocity": 0.3937007874015748
        },
        {
          "duration": 0.2083333333333428,
          "durationTicks": 128,
          "midi": 82,
          "name": "A#5",
          "ticks": 79488,
          "time": 129.375,
          "velocity": 0.3937007874015748
        },
        {
          "duration": 0.625,
          "durationTicks": 384,
          "midi": 73,
          "name": "C#5",
          "ticks": 79488,
          "time": 129.375,
          "velocity": 0.3937007874015748
        },
        {
          "duration": 0.20833333333331439,
          "durationTicks": 128,
          "midi": 82,
          "name": "A#5",
          "ticks": 79616,
          "time": 129.58333333333334,
          "velocity": 0.3937007874015748
        },
        {
          "duration": 0.2083333333333428,
          "durationTicks": 128,
          "midi": 84,
          "name": "C6",
          "ticks": 79744,
          "time": 129.79166666666666,
          "velocity": 0.3937007874015748
        },
        {
          "duration": 0.625,
          "durationTicks": 384,
          "midi": 64,
          "name": "E4",
          "ticks": 79872,
          "time": 130,
          "velocity": 0.3937007874015748
        },
        {
          "duration": 0.625,
          "durationTicks": 384,
          "midi": 70,
          "name": "A#4",
          "ticks": 79872,
          "time": 130,
          "velocity": 0.3937007874015748
        },
        {
          "duration": 0.625,
          "durationTicks": 384,
          "midi": 60,
          "name": "C4",
          "ticks": 79872,
          "time": 130,
          "velocity": 0.3937007874015748
        },
        {
          "duration": 0.625,
          "durationTicks": 384,
          "midi": 76,
          "name": "E5",
          "ticks": 79872,
          "time": 130,
          "velocity": 0.3937007874015748
        },
        {
          "duration": 0.625,
          "durationTicks": 384,
          "midi": 67,
          "name": "G4",
          "ticks": 79872,
          "time": 130,
          "velocity": 0.3937007874015748
        },
        {
          "duration": 0.3125,
          "durationTicks": 192,
          "midi": 82,
          "name": "A#5",
          "ticks": 79872,
          "time": 130,
          "velocity": 0.3937007874015748
        },
        {
          "duration": 0.3125,
          "durationTicks": 192,
          "midi": 77,
          "name": "F5",
          "ticks": 80064,
          "time": 130.3125,
          "velocity": 0.3937007874015748
        },
        {
          "duration": 0.625,
          "durationTicks": 384,
          "midi": 48,
          "name": "C3",
          "ticks": 80256,
          "time": 130.625,
          "velocity": 0.3937007874015748
        },
        {
          "duration": 0.625,
          "durationTicks": 384,
          "midi": 55,
          "name": "G3",
          "ticks": 80256,
          "time": 130.625,
          "velocity": 0.3937007874015748
        },
        {
          "duration": 0.625,
          "durationTicks": 384,
          "midi": 60,
          "name": "C4",
          "ticks": 80256,
          "time": 130.625,
          "velocity": 0.3937007874015748
        },
        {
          "duration": 0.625,
          "durationTicks": 384,
          "midi": 64,
          "name": "E4",
          "ticks": 80256,
          "time": 130.625,
          "velocity": 0.3937007874015748
        },
        {
          "duration": 0.15625,
          "durationTicks": 96,
          "midi": 84,
          "name": "C6",
          "ticks": 80256,
          "time": 130.625,
          "velocity": 0.3937007874015748
        },
        {
          "duration": 0.15625,
          "durationTicks": 96,
          "midi": 82,
          "name": "A#5",
          "ticks": 80352,
          "time": 130.78125,
          "velocity": 0.3937007874015748
        },
        {
          "duration": 0.15625,
          "durationTicks": 96,
          "midi": 80,
          "name": "G#5",
          "ticks": 80448,
          "time": 130.9375,
          "velocity": 0.3937007874015748
        },
        {
          "duration": 0.15625,
          "durationTicks": 96,
          "midi": 82,
          "name": "A#5",
          "ticks": 80544,
          "time": 131.09375,
          "velocity": 0.3937007874015748
        },
        {
          "duration": 0.3125,
          "durationTicks": 192,
          "midi": 77,
          "name": "F5",
          "ticks": 80640,
          "time": 131.25,
          "velocity": 0.3937007874015748
        },
        {
          "duration": 0.625,
          "durationTicks": 384,
          "midi": 61,
          "name": "C#4",
          "ticks": 80640,
          "time": 131.25,
          "velocity": 0.3937007874015748
        },
        {
          "duration": 0.625,
          "durationTicks": 384,
          "midi": 68,
          "name": "G#4",
          "ticks": 80640,
          "time": 131.25,
          "velocity": 0.3937007874015748
        },
        {
          "duration": 0.625,
          "durationTicks": 384,
          "midi": 49,
          "name": "C#3",
          "ticks": 80640,
          "time": 131.25,
          "velocity": 0.3937007874015748
        },
        {
          "duration": 0.625,
          "durationTicks": 384,
          "midi": 37,
          "name": "C#2",
          "ticks": 80640,
          "time": 131.25,
          "velocity": 0.3937007874015748
        },
        {
          "duration": 0.625,
          "durationTicks": 384,
          "midi": 56,
          "name": "G#3",
          "ticks": 80640,
          "time": 131.25,
          "velocity": 0.3937007874015748
        },
        {
          "duration": 0.15625,
          "durationTicks": 96,
          "midi": 77,
          "name": "F5",
          "ticks": 80832,
          "time": 131.5625,
          "velocity": 0.3937007874015748
        },
        {
          "duration": 0.15625,
          "durationTicks": 96,
          "midi": 77,
          "name": "F5",
          "ticks": 80928,
          "time": 131.71875,
          "velocity": 0.3937007874015748
        },
        {
          "duration": 0.625,
          "durationTicks": 384,
          "midi": 61,
          "name": "C#4",
          "ticks": 81024,
          "time": 131.875,
          "velocity": 0.3937007874015748
        },
        {
          "duration": 0.625,
          "durationTicks": 384,
          "midi": 65,
          "name": "F4",
          "ticks": 81024,
          "time": 131.875,
          "velocity": 0.3937007874015748
        },
        {
          "duration": 0.625,
          "durationTicks": 384,
          "midi": 68,
          "name": "G#4",
          "ticks": 81024,
          "time": 131.875,
          "velocity": 0.3937007874015748
        },
        {
          "duration": 0.625,
          "durationTicks": 384,
          "midi": 72,
          "name": "C5",
          "ticks": 81024,
          "time": 131.875,
          "velocity": 0.3937007874015748
        },
        {
          "duration": 0.3125,
          "durationTicks": 192,
          "midi": 84,
          "name": "C6",
          "ticks": 81024,
          "time": 131.875,
          "velocity": 0.3937007874015748
        },
        {
          "duration": 0.15625,
          "durationTicks": 96,
          "midi": 87,
          "name": "D#6",
          "ticks": 81216,
          "time": 132.1875,
          "velocity": 0.3937007874015748
        },
        {
          "duration": 0.3125,
          "durationTicks": 192,
          "midi": 84,
          "name": "C6",
          "ticks": 81312,
          "time": 132.34375,
          "velocity": 0.3937007874015748
        },
        {
          "duration": 0.625,
          "durationTicks": 384,
          "midi": 56,
          "name": "G#3",
          "ticks": 81408,
          "time": 132.5,
          "velocity": 0.3937007874015748
        },
        {
          "duration": 0.625,
          "durationTicks": 384,
          "midi": 67,
          "name": "G4",
          "ticks": 81408,
          "time": 132.5,
          "velocity": 0.3937007874015748
        },
        {
          "duration": 0.625,
          "durationTicks": 384,
          "midi": 44,
          "name": "G#2",
          "ticks": 81408,
          "time": 132.5,
          "velocity": 0.3937007874015748
        },
        {
          "duration": 0.625,
          "durationTicks": 384,
          "midi": 60,
          "name": "C4",
          "ticks": 81408,
          "time": 132.5,
          "velocity": 0.3937007874015748
        },
        {
          "duration": 0.625,
          "durationTicks": 384,
          "midi": 72,
          "name": "C5",
          "ticks": 81408,
          "time": 132.5,
          "velocity": 0.3937007874015748
        },
        {
          "duration": 0.15625,
          "durationTicks": 96,
          "midi": 84,
          "name": "C6",
          "ticks": 81792,
          "time": 133.125,
          "velocity": 0.3937007874015748
        },
        {
          "duration": 0.625,
          "durationTicks": 384,
          "midi": 63,
          "name": "D#4",
          "ticks": 81792,
          "time": 133.125,
          "velocity": 0.3937007874015748
        },
        {
          "duration": 0.625,
          "durationTicks": 384,
          "midi": 67,
          "name": "G4",
          "ticks": 81792,
          "time": 133.125,
          "velocity": 0.3937007874015748
        },
        {
          "duration": 0.625,
          "durationTicks": 384,
          "midi": 60,
          "name": "C4",
          "ticks": 81792,
          "time": 133.125,
          "velocity": 0.3937007874015748
        },
        {
          "duration": 0.625,
          "durationTicks": 384,
          "midi": 72,
          "name": "C5",
          "ticks": 81792,
          "time": 133.125,
          "velocity": 0.3937007874015748
        },
        {
          "duration": 0.15625,
          "durationTicks": 96,
          "midi": 82,
          "name": "A#5",
          "ticks": 81888,
          "time": 133.28125,
          "velocity": 0.3937007874015748
        },
        {
          "duration": 0.15625,
          "durationTicks": 96,
          "midi": 80,
          "name": "G#5",
          "ticks": 81984,
          "time": 133.4375,
          "velocity": 0.3937007874015748
        },
        {
          "duration": 0.15625,
          "durationTicks": 96,
          "midi": 82,
          "name": "A#5",
          "ticks": 82080,
          "time": 133.59375,
          "velocity": 0.3937007874015748
        },
        {
          "duration": 0.625,
          "durationTicks": 384,
          "midi": 61,
          "name": "C#4",
          "ticks": 82176,
          "time": 133.75,
          "velocity": 0.3937007874015748
        },
        {
          "duration": 0.3125,
          "durationTicks": 192,
          "midi": 77,
          "name": "F5",
          "ticks": 82176,
          "time": 133.75,
          "velocity": 0.3937007874015748
        },
        {
          "duration": 0.625,
          "durationTicks": 384,
          "midi": 68,
          "name": "G#4",
          "ticks": 82176,
          "time": 133.75,
          "velocity": 0.3937007874015748
        },
        {
          "duration": 0.625,
          "durationTicks": 384,
          "midi": 37,
          "name": "C#2",
          "ticks": 82176,
          "time": 133.75,
          "velocity": 0.3937007874015748
        },
        {
          "duration": 0.625,
          "durationTicks": 384,
          "midi": 49,
          "name": "C#3",
          "ticks": 82176,
          "time": 133.75,
          "velocity": 0.3937007874015748
        },
        {
          "duration": 0.625,
          "durationTicks": 384,
          "midi": 56,
          "name": "G#3",
          "ticks": 82176,
          "time": 133.75,
          "velocity": 0.3937007874015748
        },
        {
          "duration": 0.15625,
          "durationTicks": 96,
          "midi": 77,
          "name": "F5",
          "ticks": 82368,
          "time": 134.0625,
          "velocity": 0.3937007874015748
        },
        {
          "duration": 0.15625,
          "durationTicks": 96,
          "midi": 77,
          "name": "F5",
          "ticks": 82464,
          "time": 134.21875,
          "velocity": 0.3937007874015748
        },
        {
          "duration": 0.15625,
          "durationTicks": 96,
          "midi": 77,
          "name": "F5",
          "ticks": 82560,
          "time": 134.375,
          "velocity": 0.3937007874015748
        },
        {
          "duration": 0.625,
          "durationTicks": 384,
          "midi": 61,
          "name": "C#4",
          "ticks": 82560,
          "time": 134.375,
          "velocity": 0.3937007874015748
        },
        {
          "duration": 0.625,
          "durationTicks": 384,
          "midi": 65,
          "name": "F4",
          "ticks": 82560,
          "time": 134.375,
          "velocity": 0.3937007874015748
        },
        {
          "duration": 0.625,
          "durationTicks": 384,
          "midi": 68,
          "name": "G#4",
          "ticks": 82560,
          "time": 134.375,
          "velocity": 0.3937007874015748
        },
        {
          "duration": 0.625,
          "durationTicks": 384,
          "midi": 72,
          "name": "C5",
          "ticks": 82560,
          "time": 134.375,
          "velocity": 0.3937007874015748
        },
        {
          "duration": 0.3125,
          "durationTicks": 192,
          "midi": 85,
          "name": "C#6",
          "ticks": 82656,
          "time": 134.53125,
          "velocity": 0.3937007874015748
        },
        {
          "duration": 0.46875,
          "durationTicks": 288,
          "midi": 84,
          "name": "C6",
          "ticks": 82848,
          "time": 134.84375,
          "velocity": 0.3937007874015748
        },
        {
          "duration": 0.625,
          "durationTicks": 384,
          "midi": 56,
          "name": "G#3",
          "ticks": 82944,
          "time": 135,
          "velocity": 0.3937007874015748
        },
        {
          "duration": 0.625,
          "durationTicks": 384,
          "midi": 60,
          "name": "C4",
          "ticks": 82944,
          "time": 135,
          "velocity": 0.3937007874015748
        },
        {
          "duration": 0.625,
          "durationTicks": 384,
          "midi": 72,
          "name": "C5",
          "ticks": 82944,
          "time": 135,
          "velocity": 0.3937007874015748
        },
        {
          "duration": 0.625,
          "durationTicks": 384,
          "midi": 67,
          "name": "G4",
          "ticks": 82944,
          "time": 135,
          "velocity": 0.3937007874015748
        },
        {
          "duration": 0.625,
          "durationTicks": 384,
          "midi": 44,
          "name": "G#2",
          "ticks": 82944,
          "time": 135,
          "velocity": 0.3937007874015748
        },
        {
          "duration": 0.625,
          "durationTicks": 384,
          "midi": 63,
          "name": "D#4",
          "ticks": 83328,
          "time": 135.625,
          "velocity": 0.3937007874015748
        },
        {
          "duration": 0.625,
          "durationTicks": 384,
          "midi": 60,
          "name": "C4",
          "ticks": 83328,
          "time": 135.625,
          "velocity": 0.3937007874015748
        },
        {
          "duration": 0.625,
          "durationTicks": 384,
          "midi": 72,
          "name": "C5",
          "ticks": 83328,
          "time": 135.625,
          "velocity": 0.3937007874015748
        },
        {
          "duration": 0.2083333333333428,
          "durationTicks": 128,
          "midi": 84,
          "name": "C6",
          "ticks": 83328,
          "time": 135.625,
          "velocity": 0.3937007874015748
        },
        {
          "duration": 0.625,
          "durationTicks": 384,
          "midi": 67,
          "name": "G4",
          "ticks": 83328,
          "time": 135.625,
          "velocity": 0.3937007874015748
        },
        {
          "duration": 0.20833333333331439,
          "durationTicks": 128,
          "midi": 82,
          "name": "A#5",
          "ticks": 83456,
          "time": 135.83333333333334,
          "velocity": 0.3937007874015748
        },
        {
          "duration": 0.2083333333333428,
          "durationTicks": 128,
          "midi": 80,
          "name": "G#5",
          "ticks": 83584,
          "time": 136.04166666666666,
          "velocity": 0.3937007874015748
        },
        {
          "duration": 0.3125,
          "durationTicks": 192,
          "midi": 82,
          "name": "A#5",
          "ticks": 83712,
          "time": 136.25,
          "velocity": 0.3937007874015748
        },
        {
          "duration": 0.625,
          "durationTicks": 384,
          "midi": 37,
          "name": "C#2",
          "ticks": 83712,
          "time": 136.25,
          "velocity": 0.3937007874015748
        },
        {
          "duration": 0.625,
          "durationTicks": 384,
          "midi": 56,
          "name": "G#3",
          "ticks": 83712,
          "time": 136.25,
          "velocity": 0.3937007874015748
        },
        {
          "duration": 0.625,
          "durationTicks": 384,
          "midi": 68,
          "name": "G#4",
          "ticks": 83712,
          "time": 136.25,
          "velocity": 0.3937007874015748
        },
        {
          "duration": 0.625,
          "durationTicks": 384,
          "midi": 61,
          "name": "C#4",
          "ticks": 83712,
          "time": 136.25,
          "velocity": 0.3937007874015748
        },
        {
          "duration": 0.625,
          "durationTicks": 384,
          "midi": 49,
          "name": "C#3",
          "ticks": 83712,
          "time": 136.25,
          "velocity": 0.3937007874015748
        },
        {
          "duration": 0.3125,
          "durationTicks": 192,
          "midi": 80,
          "name": "G#5",
          "ticks": 83904,
          "time": 136.5625,
          "velocity": 0.3937007874015748
        },
        {
          "duration": 0.625,
          "durationTicks": 384,
          "midi": 61,
          "name": "C#4",
          "ticks": 84096,
          "time": 136.875,
          "velocity": 0.3937007874015748
        },
        {
          "duration": 0.625,
          "durationTicks": 384,
          "midi": 65,
          "name": "F4",
          "ticks": 84096,
          "time": 136.875,
          "velocity": 0.3937007874015748
        },
        {
          "duration": 0.625,
          "durationTicks": 384,
          "midi": 68,
          "name": "G#4",
          "ticks": 84096,
          "time": 136.875,
          "velocity": 0.3937007874015748
        },
        {
          "duration": 0.625,
          "durationTicks": 384,
          "midi": 72,
          "name": "C5",
          "ticks": 84096,
          "time": 136.875,
          "velocity": 0.3937007874015748
        },
        {
          "duration": 0.2083333333333428,
          "durationTicks": 128,
          "midi": 84,
          "name": "C6",
          "ticks": 84096,
          "time": 136.875,
          "velocity": 0.3937007874015748
        },
        {
          "duration": 0.20833333333331439,
          "durationTicks": 128,
          "midi": 82,
          "name": "A#5",
          "ticks": 84224,
          "time": 137.08333333333334,
          "velocity": 0.3937007874015748
        },
        {
          "duration": 0.2083333333333428,
          "durationTicks": 128,
          "midi": 80,
          "name": "G#5",
          "ticks": 84352,
          "time": 137.29166666666666,
          "velocity": 0.3937007874015748
        },
        {
          "duration": 0.625,
          "durationTicks": 384,
          "midi": 72,
          "name": "C5",
          "ticks": 84480,
          "time": 137.5,
          "velocity": 0.3937007874015748
        },
        {
          "duration": 0.625,
          "durationTicks": 384,
          "midi": 44,
          "name": "G#2",
          "ticks": 84480,
          "time": 137.5,
          "velocity": 0.3937007874015748
        },
        {
          "duration": 0.625,
          "durationTicks": 384,
          "midi": 60,
          "name": "C4",
          "ticks": 84480,
          "time": 137.5,
          "velocity": 0.3937007874015748
        },
        {
          "duration": 0.625,
          "durationTicks": 384,
          "midi": 56,
          "name": "G#3",
          "ticks": 84480,
          "time": 137.5,
          "velocity": 0.3937007874015748
        },
        {
          "duration": 0.625,
          "durationTicks": 384,
          "midi": 67,
          "name": "G4",
          "ticks": 84480,
          "time": 137.5,
          "velocity": 0.3937007874015748
        },
        {
          "duration": 0.3125,
          "durationTicks": 192,
          "midi": 82,
          "name": "A#5",
          "ticks": 84480,
          "time": 137.5,
          "velocity": 0.3937007874015748
        },
        {
          "duration": 0.3125,
          "durationTicks": 192,
          "midi": 80,
          "name": "G#5",
          "ticks": 84672,
          "time": 137.8125,
          "velocity": 0.3937007874015748
        },
        {
          "duration": 0.625,
          "durationTicks": 384,
          "midi": 63,
          "name": "D#4",
          "ticks": 84864,
          "time": 138.125,
          "velocity": 0.3937007874015748
        },
        {
          "duration": 0.2083333333333428,
          "durationTicks": 128,
          "midi": 84,
          "name": "C6",
          "ticks": 84864,
          "time": 138.125,
          "velocity": 0.3937007874015748
        },
        {
          "duration": 0.625,
          "durationTicks": 384,
          "midi": 72,
          "name": "C5",
          "ticks": 84864,
          "time": 138.125,
          "velocity": 0.3937007874015748
        },
        {
          "duration": 0.625,
          "durationTicks": 384,
          "midi": 60,
          "name": "C4",
          "ticks": 84864,
          "time": 138.125,
          "velocity": 0.3937007874015748
        },
        {
          "duration": 0.625,
          "durationTicks": 384,
          "midi": 67,
          "name": "G4",
          "ticks": 84864,
          "time": 138.125,
          "velocity": 0.3937007874015748
        },
        {
          "duration": 0.20833333333331439,
          "durationTicks": 128,
          "midi": 82,
          "name": "A#5",
          "ticks": 84992,
          "time": 138.33333333333334,
          "velocity": 0.3937007874015748
        },
        {
          "duration": 0.2083333333333428,
          "durationTicks": 128,
          "midi": 80,
          "name": "G#5",
          "ticks": 85120,
          "time": 138.54166666666666,
          "velocity": 0.3937007874015748
        },
        {
          "duration": 0.3125,
          "durationTicks": 192,
          "midi": 84,
          "name": "C6",
          "ticks": 85248,
          "time": 138.75,
          "velocity": 0.3937007874015748
        },
        {
          "duration": 0.625,
          "durationTicks": 384,
          "midi": 73,
          "name": "C#5",
          "ticks": 85248,
          "time": 138.75,
          "velocity": 0.3937007874015748
        },
        {
          "duration": 0.625,
          "durationTicks": 384,
          "midi": 61,
          "name": "C#4",
          "ticks": 85248,
          "time": 138.75,
          "velocity": 0.3937007874015748
        },
        {
          "duration": 0.625,
          "durationTicks": 384,
          "midi": 54,
          "name": "F#3",
          "ticks": 85248,
          "time": 138.75,
          "velocity": 0.3937007874015748
        },
        {
          "duration": 0.625,
          "durationTicks": 384,
          "midi": 66,
          "name": "F#4",
          "ticks": 85248,
          "time": 138.75,
          "velocity": 0.3937007874015748
        },
        {
          "duration": 0.15625,
          "durationTicks": 96,
          "midi": 85,
          "name": "C#6",
          "ticks": 85440,
          "time": 139.0625,
          "velocity": 0.3937007874015748
        },
        {
          "duration": 0.46875,
          "durationTicks": 288,
          "midi": 84,
          "name": "C6",
          "ticks": 85536,
          "time": 139.21875,
          "velocity": 0.3937007874015748
        },
        {
          "duration": 0.625,
          "durationTicks": 384,
          "midi": 77,
          "name": "F5",
          "ticks": 85632,
          "time": 139.375,
          "velocity": 0.3937007874015748
        },
        {
          "duration": 0.625,
          "durationTicks": 384,
          "midi": 66,
          "name": "F#4",
          "ticks": 85632,
          "time": 139.375,
          "velocity": 0.3937007874015748
        },
        {
          "duration": 0.625,
          "durationTicks": 384,
          "midi": 73,
          "name": "C#5",
          "ticks": 85632,
          "time": 139.375,
          "velocity": 0.3937007874015748
        },
        {
          "duration": 0.625,
          "durationTicks": 384,
          "midi": 70,
          "name": "A#4",
          "ticks": 85632,
          "time": 139.375,
          "velocity": 0.3937007874015748
        },
        {
          "duration": 0.3125,
          "durationTicks": 192,
          "midi": 85,
          "name": "C#6",
          "ticks": 85824,
          "time": 139.6875,
          "velocity": 0.3937007874015748
        },
        {
          "duration": 0.625,
          "durationTicks": 384,
          "midi": 60,
          "name": "C4",
          "ticks": 86016,
          "time": 140,
          "velocity": 0.3937007874015748
        },
        {
          "duration": 0.625,
          "durationTicks": 384,
          "midi": 76,
          "name": "E5",
          "ticks": 86016,
          "time": 140,
          "velocity": 0.3937007874015748
        },
        {
          "duration": 0.625,
          "durationTicks": 384,
          "midi": 70,
          "name": "A#4",
          "ticks": 86016,
          "time": 140,
          "velocity": 0.3937007874015748
        },
        {
          "duration": 0.625,
          "durationTicks": 384,
          "midi": 64,
          "name": "E4",
          "ticks": 86016,
          "time": 140,
          "velocity": 0.3937007874015748
        },
        {
          "duration": 0.3125,
          "durationTicks": 192,
          "midi": 84,
          "name": "C6",
          "ticks": 86016,
          "time": 140,
          "velocity": 0.3937007874015748
        },
        {
          "duration": 0.625,
          "durationTicks": 384,
          "midi": 67,
          "name": "G4",
          "ticks": 86016,
          "time": 140,
          "velocity": 0.3937007874015748
        },
        {
          "duration": 0.625,
          "durationTicks": 384,
          "midi": 64,
          "name": "E4",
          "ticks": 86400,
          "time": 140.625,
          "velocity": 0.3937007874015748
        },
        {
          "duration": 0.625,
          "durationTicks": 384,
          "midi": 48,
          "name": "C3",
          "ticks": 86400,
          "time": 140.625,
          "velocity": 0.3937007874015748
        },
        {
          "duration": 0.625,
          "durationTicks": 384,
          "midi": 60,
          "name": "C4",
          "ticks": 86400,
          "time": 140.625,
          "velocity": 0.3937007874015748
        },
        {
          "duration": 0.15625,
          "durationTicks": 96,
          "midi": 84,
          "name": "C6",
          "ticks": 86400,
          "time": 140.625,
          "velocity": 0.3937007874015748
        },
        {
          "duration": 0.625,
          "durationTicks": 384,
          "midi": 55,
          "name": "G3",
          "ticks": 86400,
          "time": 140.625,
          "velocity": 0.3937007874015748
        },
        {
          "duration": 0.15625,
          "durationTicks": 96,
          "midi": 82,
          "name": "A#5",
          "ticks": 86496,
          "time": 140.78125,
          "velocity": 0.3937007874015748
        },
        {
          "duration": 0.15625,
          "durationTicks": 96,
          "midi": 80,
          "name": "G#5",
          "ticks": 86592,
          "time": 140.9375,
          "velocity": 0.3937007874015748
        },
        {
          "duration": 0.15625,
          "durationTicks": 96,
          "midi": 82,
          "name": "A#5",
          "ticks": 86688,
          "time": 141.09375,
          "velocity": 0.3937007874015748
        },
        {
          "duration": 0.625,
          "durationTicks": 384,
          "midi": 49,
          "name": "C#3",
          "ticks": 86784,
          "time": 141.25,
          "velocity": 0.3937007874015748
        },
        {
          "duration": 0.625,
          "durationTicks": 384,
          "midi": 56,
          "name": "G#3",
          "ticks": 86784,
          "time": 141.25,
          "velocity": 0.3937007874015748
        },
        {
          "duration": 0.625,
          "durationTicks": 384,
          "midi": 60,
          "name": "C4",
          "ticks": 86784,
          "time": 141.25,
          "velocity": 0.3937007874015748
        },
        {
          "duration": 0.625,
          "durationTicks": 384,
          "midi": 65,
          "name": "F4",
          "ticks": 86784,
          "time": 141.25,
          "velocity": 0.3937007874015748
        },
        {
          "duration": 0.625,
          "durationTicks": 384,
          "midi": 37,
          "name": "C#2",
          "ticks": 86784,
          "time": 141.25,
          "velocity": 0.3937007874015748
        },
        {
          "duration": 0.625,
          "durationTicks": 384,
          "midi": 68,
          "name": "G#4",
          "ticks": 87168,
          "time": 141.875,
          "velocity": 0.3937007874015748
        },
        {
          "duration": 0.625,
          "durationTicks": 384,
          "midi": 65,
          "name": "F4",
          "ticks": 87168,
          "time": 141.875,
          "velocity": 0.3937007874015748
        },
        {
          "duration": 0.625,
          "durationTicks": 384,
          "midi": 72,
          "name": "C5",
          "ticks": 87168,
          "time": 141.875,
          "velocity": 0.3937007874015748
        },
        {
          "duration": 0.625,
          "durationTicks": 384,
          "midi": 77,
          "name": "F5",
          "ticks": 87168,
          "time": 141.875,
          "velocity": 0.3937007874015748
        },
        {
          "duration": 0.3125,
          "durationTicks": 192,
          "midi": 84,
          "name": "C6",
          "ticks": 87360,
          "time": 142.1875,
          "velocity": 0.3937007874015748
        },
        {
          "duration": 0.3125,
          "durationTicks": 192,
          "midi": 70,
          "name": "A#4",
          "ticks": 87552,
          "time": 142.5,
          "velocity": 0.3937007874015748
        },
        {
          "duration": 0.3125,
          "durationTicks": 192,
          "midi": 60,
          "name": "C4",
          "ticks": 87552,
          "time": 142.5,
          "velocity": 0.3937007874015748
        },
        {
          "duration": 0.3125,
          "durationTicks": 192,
          "midi": 82,
          "name": "A#5",
          "ticks": 87552,
          "time": 142.5,
          "velocity": 0.3937007874015748
        },
        {
          "duration": 0.3125,
          "durationTicks": 192,
          "midi": 67,
          "name": "G4",
          "ticks": 87552,
          "time": 142.5,
          "velocity": 0.3937007874015748
        },
        {
          "duration": 0.3125,
          "durationTicks": 192,
          "midi": 76,
          "name": "E5",
          "ticks": 87552,
          "time": 142.5,
          "velocity": 0.3937007874015748
        },
        {
          "duration": 0.3125,
          "durationTicks": 192,
          "midi": 60,
          "name": "C4",
          "ticks": 87840,
          "time": 142.96875,
          "velocity": 0.3937007874015748
        },
        {
          "duration": 0.3125,
          "durationTicks": 192,
          "midi": 76,
          "name": "E5",
          "ticks": 87840,
          "time": 142.96875,
          "velocity": 0.3937007874015748
        },
        {
          "duration": 0.3125,
          "durationTicks": 192,
          "midi": 67,
          "name": "G4",
          "ticks": 87840,
          "time": 142.96875,
          "velocity": 0.3937007874015748
        },
        {
          "duration": 0.3125,
          "durationTicks": 192,
          "midi": 87,
          "name": "D#6",
          "ticks": 87840,
          "time": 142.96875,
          "velocity": 0.3937007874015748
        },
        {
          "duration": 0.3125,
          "durationTicks": 192,
          "midi": 70,
          "name": "A#4",
          "ticks": 87840,
          "time": 142.96875,
          "velocity": 0.3937007874015748
        },
        {
          "duration": 0.9375,
          "durationTicks": 576,
          "midi": 84,
          "name": "C6",
          "ticks": 88128,
          "time": 143.4375,
          "velocity": 0.3937007874015748
        },
        {
          "duration": 0.625,
          "durationTicks": 384,
          "midi": 60,
          "name": "C4",
          "ticks": 88128,
          "time": 143.4375,
          "velocity": 0.3937007874015748
        },
        {
          "duration": 0.9375,
          "durationTicks": 576,
          "midi": 77,
          "name": "F5",
          "ticks": 88128,
          "time": 143.4375,
          "velocity": 0.3937007874015748
        },
        {
          "duration": 0.9375,
          "durationTicks": 576,
          "midi": 65,
          "name": "F4",
          "ticks": 88128,
          "time": 143.4375,
          "velocity": 0.3937007874015748
        },
        {
          "duration": 0.9375,
          "durationTicks": 576,
          "midi": 68,
          "name": "G#4",
          "ticks": 88128,
          "time": 143.4375,
          "velocity": 0.3937007874015748
        },
        {
          "duration": 0.625,
          "durationTicks": 384,
          "midi": 53,
          "name": "F3",
          "ticks": 88128,
          "time": 143.4375,
          "velocity": 0.3937007874015748
        },
        {
          "duration": 0.3125,
          "durationTicks": 192,
          "midi": 55,
          "name": "G3",
          "ticks": 88512,
          "time": 144.0625,
          "velocity": 0.3937007874015748
        },
        {
          "duration": 0.3125,
          "durationTicks": 192,
          "midi": 77,
          "name": "F5",
          "ticks": 88704,
          "time": 144.375,
          "velocity": 0.3937007874015748
        },
        {
          "duration": 0.3125,
          "durationTicks": 192,
          "midi": 56,
          "name": "G#3",
          "ticks": 88704,
          "time": 144.375,
          "velocity": 0.3937007874015748
        },
        {
          "duration": 0.3125,
          "durationTicks": 192,
          "midi": 60,
          "name": "C4",
          "ticks": 88896,
          "time": 144.6875,
          "velocity": 0.3937007874015748
        },
        {
          "duration": 0.3125,
          "durationTicks": 192,
          "midi": 84,
          "name": "C6",
          "ticks": 88896,
          "time": 144.6875,
          "velocity": 0.3937007874015748
        },
        {
          "duration": 0.3125,
          "durationTicks": 192,
          "midi": 66,
          "name": "F#4",
          "ticks": 89088,
          "time": 145,
          "velocity": 0.3937007874015748
        },
        {
          "duration": 0.3125,
          "durationTicks": 192,
          "midi": 70,
          "name": "A#4",
          "ticks": 89088,
          "time": 145,
          "velocity": 0.3937007874015748
        },
        {
          "duration": 0.3125,
          "durationTicks": 192,
          "midi": 63,
          "name": "D#4",
          "ticks": 89088,
          "time": 145,
          "velocity": 0.3937007874015748
        },
        {
          "duration": 0.3125,
          "durationTicks": 192,
          "midi": 75,
          "name": "D#5",
          "ticks": 89088,
          "time": 145,
          "velocity": 0.3937007874015748
        },
        {
          "duration": 0.3125,
          "durationTicks": 192,
          "midi": 58,
          "name": "A#3",
          "ticks": 89088,
          "time": 145,
          "velocity": 0.3937007874015748
        },
        {
          "duration": 0.3125,
          "durationTicks": 192,
          "midi": 82,
          "name": "A#5",
          "ticks": 89088,
          "time": 145,
          "velocity": 0.3937007874015748
        },
        {
          "duration": 0.3125,
          "durationTicks": 192,
          "midi": 78,
          "name": "F#5",
          "ticks": 89088,
          "time": 145,
          "velocity": 0.3937007874015748
        },
        {
          "duration": 0.3125,
          "durationTicks": 192,
          "midi": 56,
          "name": "G#3",
          "ticks": 89376,
          "time": 145.46875,
          "velocity": 0.3937007874015748
        },
        {
          "duration": 0.3125,
          "durationTicks": 192,
          "midi": 80,
          "name": "G#5",
          "ticks": 89376,
          "time": 145.46875,
          "velocity": 0.3937007874015748
        },
        {
          "duration": 0.3125,
          "durationTicks": 192,
          "midi": 60,
          "name": "C4",
          "ticks": 89376,
          "time": 145.46875,
          "velocity": 0.3937007874015748
        },
        {
          "duration": 0.3125,
          "durationTicks": 192,
          "midi": 70,
          "name": "A#4",
          "ticks": 89376,
          "time": 145.46875,
          "velocity": 0.3937007874015748
        },
        {
          "duration": 0.3125,
          "durationTicks": 192,
          "midi": 72,
          "name": "C5",
          "ticks": 89376,
          "time": 145.46875,
          "velocity": 0.3937007874015748
        },
        {
          "duration": 0.3125,
          "durationTicks": 192,
          "midi": 78,
          "name": "F#5",
          "ticks": 89376,
          "time": 145.46875,
          "velocity": 0.3937007874015748
        },
        {
          "duration": 0.3125,
          "durationTicks": 192,
          "midi": 66,
          "name": "F#4",
          "ticks": 89376,
          "time": 145.46875,
          "velocity": 0.3937007874015748
        },
        {
          "duration": 0.9375,
          "durationTicks": 576,
          "midi": 53,
          "name": "F3",
          "ticks": 89664,
          "time": 145.9375,
          "velocity": 0.3937007874015748
        },
        {
          "duration": 0.9375,
          "durationTicks": 576,
          "midi": 61,
          "name": "C#4",
          "ticks": 89664,
          "time": 145.9375,
          "velocity": 0.3937007874015748
        },
        {
          "duration": 0.9375,
          "durationTicks": 576,
          "midi": 77,
          "name": "F5",
          "ticks": 89664,
          "time": 145.9375,
          "velocity": 0.3937007874015748
        },
        {
          "duration": 0.9375,
          "durationTicks": 576,
          "midi": 68,
          "name": "G#4",
          "ticks": 89664,
          "time": 145.9375,
          "velocity": 0.3937007874015748
        },
        {
          "duration": 0.9375,
          "durationTicks": 576,
          "midi": 72,
          "name": "C5",
          "ticks": 89664,
          "time": 145.9375,
          "velocity": 0.3937007874015748
        },
        {
          "duration": 0.9375,
          "durationTicks": 576,
          "midi": 65,
          "name": "F4",
          "ticks": 89664,
          "time": 145.9375,
          "velocity": 0.3937007874015748
        },
        {
          "duration": 0.625,
          "durationTicks": 384,
          "midi": 68,
          "name": "G#4",
          "ticks": 90240,
          "time": 146.875,
          "velocity": 0.3937007874015748
        },
        {
          "duration": 0.625,
          "durationTicks": 384,
          "midi": 77,
          "name": "F5",
          "ticks": 90240,
          "time": 146.875,
          "velocity": 0.3937007874015748
        },
        {
          "duration": 0.625,
          "durationTicks": 384,
          "midi": 72,
          "name": "C5",
          "ticks": 90240,
          "time": 146.875,
          "velocity": 0.3937007874015748
        },
        {
          "duration": 0.625,
          "durationTicks": 384,
          "midi": 65,
          "name": "F4",
          "ticks": 90240,
          "time": 146.875,
          "velocity": 0.3937007874015748
        },
        {
          "duration": 0.3125,
          "durationTicks": 192,
          "midi": 84,
          "name": "C6",
          "ticks": 90432,
          "time": 147.1875,
          "velocity": 0.3937007874015748
        },
        {
          "duration": 0.3125,
          "durationTicks": 192,
          "midi": 67,
          "name": "G4",
          "ticks": 90624,
          "time": 147.5,
          "velocity": 0.3937007874015748
        },
        {
          "duration": 0.3125,
          "durationTicks": 192,
          "midi": 76,
          "name": "E5",
          "ticks": 90624,
          "time": 147.5,
          "velocity": 0.3937007874015748
        },
        {
          "duration": 0.3125,
          "durationTicks": 192,
          "midi": 60,
          "name": "C4",
          "ticks": 90624,
          "time": 147.5,
          "velocity": 0.3937007874015748
        },
        {
          "duration": 0.3125,
          "durationTicks": 192,
          "midi": 70,
          "name": "A#4",
          "ticks": 90624,
          "time": 147.5,
          "velocity": 0.3937007874015748
        },
        {
          "duration": 0.3125,
          "durationTicks": 192,
          "midi": 82,
          "name": "A#5",
          "ticks": 90624,
          "time": 147.5,
          "velocity": 0.3937007874015748
        },
        {
          "duration": 0.3125,
          "durationTicks": 192,
          "midi": 76,
          "name": "E5",
          "ticks": 90912,
          "time": 147.96875,
          "velocity": 0.3937007874015748
        },
        {
          "duration": 0.3125,
          "durationTicks": 192,
          "midi": 87,
          "name": "D#6",
          "ticks": 90912,
          "time": 147.96875,
          "velocity": 0.3937007874015748
        },
        {
          "duration": 0.3125,
          "durationTicks": 192,
          "midi": 60,
          "name": "C4",
          "ticks": 90912,
          "time": 147.96875,
          "velocity": 0.3937007874015748
        },
        {
          "duration": 0.3125,
          "durationTicks": 192,
          "midi": 67,
          "name": "G4",
          "ticks": 90912,
          "time": 147.96875,
          "velocity": 0.3937007874015748
        },
        {
          "duration": 0.3125,
          "durationTicks": 192,
          "midi": 70,
          "name": "A#4",
          "ticks": 90912,
          "time": 147.96875,
          "velocity": 0.3937007874015748
        },
        {
          "duration": 0.9375,
          "durationTicks": 576,
          "midi": 84,
          "name": "C6",
          "ticks": 91200,
          "time": 148.4375,
          "velocity": 0.3937007874015748
        },
        {
          "duration": 0.9375,
          "durationTicks": 576,
          "midi": 77,
          "name": "F5",
          "ticks": 91200,
          "time": 148.4375,
          "velocity": 0.3937007874015748
        },
        {
          "duration": 0.625,
          "durationTicks": 384,
          "midi": 60,
          "name": "C4",
          "ticks": 91200,
          "time": 148.4375,
          "velocity": 0.3937007874015748
        },
        {
          "duration": 0.9375,
          "durationTicks": 576,
          "midi": 68,
          "name": "G#4",
          "ticks": 91200,
          "time": 148.4375,
          "velocity": 0.3937007874015748
        },
        {
          "duration": 0.9375,
          "durationTicks": 576,
          "midi": 65,
          "name": "F4",
          "ticks": 91200,
          "time": 148.4375,
          "velocity": 0.3937007874015748
        },
        {
          "duration": 0.3125,
          "durationTicks": 192,
          "midi": 41,
          "name": "F2",
          "ticks": 91392,
          "time": 148.75,
          "velocity": 0.3937007874015748
        },
        {
          "duration": 0.3125,
          "durationTicks": 192,
          "midi": 48,
          "name": "C3",
          "ticks": 91584,
          "time": 149.0625,
          "velocity": 0.3937007874015748
        },
        {
          "duration": 0.3125,
          "durationTicks": 192,
          "midi": 53,
          "name": "F3",
          "ticks": 91776,
          "time": 149.375,
          "velocity": 0.3937007874015748
        },
        {
          "duration": 0.3125,
          "durationTicks": 192,
          "midi": 55,
          "name": "G3",
          "ticks": 91968,
          "time": 149.6875,
          "velocity": 0.3937007874015748
        },
        {
          "duration": 0.15625,
          "durationTicks": 96,
          "midi": 80,
          "name": "G#5",
          "ticks": 91968,
          "time": 149.6875,
          "velocity": 0.3937007874015748
        },
        {
          "duration": 0.15625,
          "durationTicks": 96,
          "midi": 80,
          "name": "G#5",
          "ticks": 92064,
          "time": 149.84375,
          "velocity": 0.3937007874015748
        },
        {
          "duration": 0.3125,
          "durationTicks": 192,
          "midi": 79,
          "name": "G5",
          "ticks": 92160,
          "time": 150,
          "velocity": 0.3937007874015748
        },
        {
          "duration": 0.3125,
          "durationTicks": 192,
          "midi": 56,
          "name": "G#3",
          "ticks": 92160,
          "time": 150,
          "velocity": 0.3937007874015748
        },
        {
          "duration": 0.3125,
          "durationTicks": 192,
          "midi": 60,
          "name": "C4",
          "ticks": 92352,
          "time": 150.3125,
          "velocity": 0.3937007874015748
        },
        {
          "duration": 0.3125,
          "durationTicks": 192,
          "midi": 80,
          "name": "G#5",
          "ticks": 92352,
          "time": 150.3125,
          "velocity": 0.3937007874015748
        },
        {
          "duration": 0.3125,
          "durationTicks": 192,
          "midi": 65,
          "name": "F4",
          "ticks": 92544,
          "time": 150.625,
          "velocity": 0.3937007874015748
        },
        {
          "duration": 0.3125,
          "durationTicks": 192,
          "midi": 82,
          "name": "A#5",
          "ticks": 92544,
          "time": 150.625,
          "velocity": 0.3937007874015748
        },
        {
          "duration": 0.3125,
          "durationTicks": 192,
          "midi": 68,
          "name": "G#4",
          "ticks": 92736,
          "time": 150.9375,
          "velocity": 0.3937007874015748
        },
        {
          "duration": 0.3125,
          "durationTicks": 192,
          "midi": 80,
          "name": "G#5",
          "ticks": 92736,
          "time": 150.9375,
          "velocity": 0.3937007874015748
        },
        {
          "duration": 0.625,
          "durationTicks": 384,
          "midi": 44,
          "name": "G#2",
          "ticks": 92928,
          "time": 151.25,
          "velocity": 0.3937007874015748
        },
        {
          "duration": 0.625,
          "durationTicks": 384,
          "midi": 68,
          "name": "G#4",
          "ticks": 92928,
          "time": 151.25,
          "velocity": 0.3937007874015748
        },
        {
          "duration": 0.625,
          "durationTicks": 384,
          "midi": 61,
          "name": "C#4",
          "ticks": 92928,
          "time": 151.25,
          "velocity": 0.3937007874015748
        },
        {
          "duration": 0.625,
          "durationTicks": 384,
          "midi": 37,
          "name": "C#2",
          "ticks": 92928,
          "time": 151.25,
          "velocity": 0.3937007874015748
        },
        {
          "duration": 0.625,
          "durationTicks": 384,
          "midi": 53,
          "name": "F3",
          "ticks": 92928,
          "time": 151.25,
          "velocity": 0.3937007874015748
        },
        {
          "duration": 0.625,
          "durationTicks": 384,
          "midi": 49,
          "name": "C#3",
          "ticks": 92928,
          "time": 151.25,
          "velocity": 0.3937007874015748
        },
        {
          "duration": 0.625,
          "durationTicks": 384,
          "midi": 72,
          "name": "C5",
          "ticks": 92928,
          "time": 151.25,
          "velocity": 0.3937007874015748
        },
        {
          "duration": 0.625,
          "durationTicks": 384,
          "midi": 68,
          "name": "G#4",
          "ticks": 93312,
          "time": 151.875,
          "velocity": 0.3937007874015748
        },
        {
          "duration": 0.625,
          "durationTicks": 384,
          "midi": 61,
          "name": "C#4",
          "ticks": 93312,
          "time": 151.875,
          "velocity": 0.3937007874015748
        },
        {
          "duration": 0.625,
          "durationTicks": 384,
          "midi": 65,
          "name": "F4",
          "ticks": 93312,
          "time": 151.875,
          "velocity": 0.3937007874015748
        },
        {
          "duration": 0.625,
          "durationTicks": 384,
          "midi": 72,
          "name": "C5",
          "ticks": 93312,
          "time": 151.875,
          "velocity": 0.3937007874015748
        },
        {
          "duration": 0.3125,
          "durationTicks": 192,
          "midi": 84,
          "name": "C6",
          "ticks": 93504,
          "time": 152.1875,
          "velocity": 0.3937007874015748
        },
        {
          "duration": 0.3125,
          "durationTicks": 192,
          "midi": 82,
          "name": "A#5",
          "ticks": 93696,
          "time": 152.5,
          "velocity": 0.3937007874015748
        },
        {
          "duration": 0.3125,
          "durationTicks": 192,
          "midi": 60,
          "name": "C4",
          "ticks": 93696,
          "time": 152.5,
          "velocity": 0.3937007874015748
        },
        {
          "duration": 0.3125,
          "durationTicks": 192,
          "midi": 67,
          "name": "G4",
          "ticks": 93696,
          "time": 152.5,
          "velocity": 0.3937007874015748
        },
        {
          "duration": 0.3125,
          "durationTicks": 192,
          "midi": 52,
          "name": "E3",
          "ticks": 93696,
          "time": 152.5,
          "velocity": 0.3937007874015748
        },
        {
          "duration": 0.3125,
          "durationTicks": 192,
          "midi": 70,
          "name": "A#4",
          "ticks": 93696,
          "time": 152.5,
          "velocity": 0.3937007874015748
        },
        {
          "duration": 0.3125,
          "durationTicks": 192,
          "midi": 60,
          "name": "C4",
          "ticks": 93984,
          "time": 152.96875,
          "velocity": 0.3937007874015748
        },
        {
          "duration": 0.3125,
          "durationTicks": 192,
          "midi": 67,
          "name": "G4",
          "ticks": 93984,
          "time": 152.96875,
          "velocity": 0.3937007874015748
        },
        {
          "duration": 0.3125,
          "durationTicks": 192,
          "midi": 70,
          "name": "A#4",
          "ticks": 93984,
          "time": 152.96875,
          "velocity": 0.3937007874015748
        },
        {
          "duration": 0.3125,
          "durationTicks": 192,
          "midi": 87,
          "name": "D#6",
          "ticks": 93984,
          "time": 152.96875,
          "velocity": 0.3937007874015748
        },
        {
          "duration": 0.3125,
          "durationTicks": 192,
          "midi": 52,
          "name": "E3",
          "ticks": 93984,
          "time": 152.96875,
          "velocity": 0.3937007874015748
        },
        {
          "duration": 0.9375,
          "durationTicks": 576,
          "midi": 53,
          "name": "F3",
          "ticks": 94272,
          "time": 153.4375,
          "velocity": 0.3937007874015748
        },
        {
          "duration": 0.9375,
          "durationTicks": 576,
          "midi": 68,
          "name": "G#4",
          "ticks": 94272,
          "time": 153.4375,
          "velocity": 0.3937007874015748
        },
        {
          "duration": 0.9375,
          "durationTicks": 576,
          "midi": 84,
          "name": "C6",
          "ticks": 94272,
          "time": 153.4375,
          "velocity": 0.3937007874015748
        },
        {
          "duration": 0.9375,
          "durationTicks": 576,
          "midi": 60,
          "name": "C4",
          "ticks": 94272,
          "time": 153.4375,
          "velocity": 0.3937007874015748
        },
        {
          "duration": 0.9375,
          "durationTicks": 576,
          "midi": 65,
          "name": "F4",
          "ticks": 94272,
          "time": 153.4375,
          "velocity": 0.3937007874015748
        },
        {
          "duration": 0.625,
          "durationTicks": 384,
          "midi": 56,
          "name": "G#3",
          "ticks": 94848,
          "time": 154.375,
          "velocity": 0.3937007874015748
        },
        {
          "duration": 0.625,
          "durationTicks": 384,
          "midi": 60,
          "name": "C4",
          "ticks": 94848,
          "time": 154.375,
          "velocity": 0.3937007874015748
        },
        {
          "duration": 0.625,
          "durationTicks": 384,
          "midi": 53,
          "name": "F3",
          "ticks": 94848,
          "time": 154.375,
          "velocity": 0.3937007874015748
        },
        {
          "duration": 0.3125,
          "durationTicks": 192,
          "midi": 77,
          "name": "F5",
          "ticks": 94848,
          "time": 154.375,
          "velocity": 0.3937007874015748
        },
        {
          "duration": 0.625,
          "durationTicks": 384,
          "midi": 65,
          "name": "F4",
          "ticks": 94848,
          "time": 154.375,
          "velocity": 0.3937007874015748
        },
        {
          "duration": 0.3125,
          "durationTicks": 192,
          "midi": 84,
          "name": "C6",
          "ticks": 95040,
          "time": 154.6875,
          "velocity": 0.3937007874015748
        },
        {
          "duration": 0.3125,
          "durationTicks": 192,
          "midi": 82,
          "name": "A#5",
          "ticks": 95232,
          "time": 155,
          "velocity": 0.3937007874015748
        },
        {
          "duration": 0.3125,
          "durationTicks": 192,
          "midi": 58,
          "name": "A#3",
          "ticks": 95232,
          "time": 155,
          "velocity": 0.3937007874015748
        },
        {
          "duration": 0.3125,
          "durationTicks": 192,
          "midi": 70,
          "name": "A#4",
          "ticks": 95232,
          "time": 155,
          "velocity": 0.3937007874015748
        },
        {
          "duration": 0.3125,
          "durationTicks": 192,
          "midi": 66,
          "name": "F#4",
          "ticks": 95232,
          "time": 155,
          "velocity": 0.3937007874015748
        },
        {
          "duration": 0.3125,
          "durationTicks": 192,
          "midi": 75,
          "name": "D#5",
          "ticks": 95232,
          "time": 155,
          "velocity": 0.3937007874015748
        },
        {
          "duration": 0.3125,
          "durationTicks": 192,
          "midi": 78,
          "name": "F#5",
          "ticks": 95232,
          "time": 155,
          "velocity": 0.3937007874015748
        },
        {
          "duration": 0.3125,
          "durationTicks": 192,
          "midi": 51,
          "name": "D#3",
          "ticks": 95232,
          "time": 155,
          "velocity": 0.3937007874015748
        },
        {
          "duration": 0.3125,
          "durationTicks": 192,
          "midi": 72,
          "name": "C5",
          "ticks": 95520,
          "time": 155.46875,
          "velocity": 0.3937007874015748
        },
        {
          "duration": 0.3125,
          "durationTicks": 192,
          "midi": 70,
          "name": "A#4",
          "ticks": 95520,
          "time": 155.46875,
          "velocity": 0.3937007874015748
        },
        {
          "duration": 0.3125,
          "durationTicks": 192,
          "midi": 56,
          "name": "G#3",
          "ticks": 95520,
          "time": 155.46875,
          "velocity": 0.3937007874015748
        },
        {
          "duration": 0.3125,
          "durationTicks": 192,
          "midi": 66,
          "name": "F#4",
          "ticks": 95520,
          "time": 155.46875,
          "velocity": 0.3937007874015748
        },
        {
          "duration": 0.3125,
          "durationTicks": 192,
          "midi": 78,
          "name": "F#5",
          "ticks": 95520,
          "time": 155.46875,
          "velocity": 0.3937007874015748
        },
        {
          "duration": 0.3125,
          "durationTicks": 192,
          "midi": 48,
          "name": "C3",
          "ticks": 95520,
          "time": 155.46875,
          "velocity": 0.3937007874015748
        },
        {
          "duration": 0.3125,
          "durationTicks": 192,
          "midi": 80,
          "name": "G#5",
          "ticks": 95520,
          "time": 155.46875,
          "velocity": 0.3937007874015748
        },
        {
          "duration": 0.9375,
          "durationTicks": 576,
          "midi": 68,
          "name": "G#4",
          "ticks": 95808,
          "time": 155.9375,
          "velocity": 0.3937007874015748
        },
        {
          "duration": 0.9375,
          "durationTicks": 576,
          "midi": 65,
          "name": "F4",
          "ticks": 95808,
          "time": 155.9375,
          "velocity": 0.3937007874015748
        },
        {
          "duration": 0.9375,
          "durationTicks": 576,
          "midi": 72,
          "name": "C5",
          "ticks": 95808,
          "time": 155.9375,
          "velocity": 0.3937007874015748
        },
        {
          "duration": 0.9375,
          "durationTicks": 576,
          "midi": 49,
          "name": "C#3",
          "ticks": 95808,
          "time": 155.9375,
          "velocity": 0.3937007874015748
        },
        {
          "duration": 0.9375,
          "durationTicks": 576,
          "midi": 53,
          "name": "F3",
          "ticks": 95808,
          "time": 155.9375,
          "velocity": 0.3937007874015748
        },
        {
          "duration": 0.9375,
          "durationTicks": 576,
          "midi": 77,
          "name": "F5",
          "ticks": 95808,
          "time": 155.9375,
          "velocity": 0.3937007874015748
        },
        {
          "duration": 0.625,
          "durationTicks": 384,
          "midi": 72,
          "name": "C5",
          "ticks": 96384,
          "time": 156.875,
          "velocity": 0.3937007874015748
        },
        {
          "duration": 0.625,
          "durationTicks": 384,
          "midi": 61,
          "name": "C#4",
          "ticks": 96384,
          "time": 156.875,
          "velocity": 0.3937007874015748
        },
        {
          "duration": 0.625,
          "durationTicks": 384,
          "midi": 68,
          "name": "G#4",
          "ticks": 96384,
          "time": 156.875,
          "velocity": 0.3937007874015748
        },
        {
          "duration": 0.625,
          "durationTicks": 384,
          "midi": 65,
          "name": "F4",
          "ticks": 96384,
          "time": 156.875,
          "velocity": 0.3937007874015748
        },
        {
          "duration": 0.3125,
          "durationTicks": 192,
          "midi": 84,
          "name": "C6",
          "ticks": 96576,
          "time": 157.1875,
          "velocity": 0.3937007874015748
        },
        {
          "duration": 0.3125,
          "durationTicks": 192,
          "midi": 76,
          "name": "E5",
          "ticks": 96768,
          "time": 157.5,
          "velocity": 0.3937007874015748
        },
        {
          "duration": 0.3125,
          "durationTicks": 192,
          "midi": 52,
          "name": "E3",
          "ticks": 96768,
          "time": 157.5,
          "velocity": 0.3937007874015748
        },
        {
          "duration": 0.3125,
          "durationTicks": 192,
          "midi": 82,
          "name": "A#5",
          "ticks": 96768,
          "time": 157.5,
          "velocity": 0.3937007874015748
        },
        {
          "duration": 0.3125,
          "durationTicks": 192,
          "midi": 60,
          "name": "C4",
          "ticks": 96768,
          "time": 157.5,
          "velocity": 0.3937007874015748
        },
        {
          "duration": 0.3125,
          "durationTicks": 192,
          "midi": 70,
          "name": "A#4",
          "ticks": 96768,
          "time": 157.5,
          "velocity": 0.3937007874015748
        },
        {
          "duration": 0.3125,
          "durationTicks": 192,
          "midi": 67,
          "name": "G4",
          "ticks": 96768,
          "time": 157.5,
          "velocity": 0.3937007874015748
        },
        {
          "duration": 0.3125,
          "durationTicks": 192,
          "midi": 70,
          "name": "A#4",
          "ticks": 97056,
          "time": 157.96875,
          "velocity": 0.3937007874015748
        },
        {
          "duration": 0.3125,
          "durationTicks": 192,
          "midi": 52,
          "name": "E3",
          "ticks": 97056,
          "time": 157.96875,
          "velocity": 0.3937007874015748
        },
        {
          "duration": 0.3125,
          "durationTicks": 192,
          "midi": 76,
          "name": "E5",
          "ticks": 97056,
          "time": 157.96875,
          "velocity": 0.3937007874015748
        },
        {
          "duration": 0.3125,
          "durationTicks": 192,
          "midi": 60,
          "name": "C4",
          "ticks": 97056,
          "time": 157.96875,
          "velocity": 0.3937007874015748
        },
        {
          "duration": 0.3125,
          "durationTicks": 192,
          "midi": 87,
          "name": "D#6",
          "ticks": 97056,
          "time": 157.96875,
          "velocity": 0.3937007874015748
        },
        {
          "duration": 0.3125,
          "durationTicks": 192,
          "midi": 67,
          "name": "G4",
          "ticks": 97056,
          "time": 157.96875,
          "velocity": 0.3937007874015748
        },
        {
          "duration": 0.9375,
          "durationTicks": 576,
          "midi": 65,
          "name": "F4",
          "ticks": 97344,
          "time": 158.4375,
          "velocity": 0.3937007874015748
        },
        {
          "duration": 1.5625,
          "durationTicks": 960,
          "midi": 84,
          "name": "C6",
          "ticks": 97344,
          "time": 158.4375,
          "velocity": 0.3937007874015748
        },
        {
          "duration": 1.5625,
          "durationTicks": 960,
          "midi": 77,
          "name": "F5",
          "ticks": 97344,
          "time": 158.4375,
          "velocity": 0.3937007874015748
        },
        {
          "duration": 0.625,
          "durationTicks": 384,
          "midi": 53,
          "name": "F3",
          "ticks": 97344,
          "time": 158.4375,
          "velocity": 0.3937007874015748
        },
        {
          "duration": 0.625,
          "durationTicks": 384,
          "midi": 60,
          "name": "C4",
          "ticks": 97344,
          "time": 158.4375,
          "velocity": 0.3937007874015748
        },
        {
          "duration": 1.25,
          "durationTicks": 768,
          "midi": 68,
          "name": "G#4",
          "ticks": 97344,
          "time": 158.4375,
          "velocity": 0.3937007874015748
        },
        {
          "duration": 0.3125,
          "durationTicks": 192,
          "midi": 41,
          "name": "F2",
          "ticks": 97536,
          "time": 158.75,
          "velocity": 0.3937007874015748
        },
        {
          "duration": 0.3125,
          "durationTicks": 192,
          "midi": 48,
          "name": "C3",
          "ticks": 97728,
          "time": 159.0625,
          "velocity": 0.3937007874015748
        },
        {
          "duration": 0.3125,
          "durationTicks": 192,
          "midi": 53,
          "name": "F3",
          "ticks": 97920,
          "time": 159.375,
          "velocity": 0.3937007874015748
        },
        {
          "duration": 0.3125,
          "durationTicks": 192,
          "midi": 55,
          "name": "G3",
          "ticks": 98112,
          "time": 159.6875,
          "velocity": 0.3937007874015748
        },
        {
          "duration": 0.15625,
          "durationTicks": 96,
          "midi": 80,
          "name": "G#5",
          "ticks": 98112,
          "time": 159.6875,
          "velocity": 0.3937007874015748
        },
        {
          "duration": 0.15625,
          "durationTicks": 96,
          "midi": 80,
          "name": "G#5",
          "ticks": 98208,
          "time": 159.84375,
          "velocity": 0.3937007874015748
        },
        {
          "duration": 0.3125,
          "durationTicks": 192,
          "midi": 79,
          "name": "G5",
          "ticks": 98304,
          "time": 160,
          "velocity": 0.3937007874015748
        },
        {
          "duration": 0.3125,
          "durationTicks": 192,
          "midi": 56,
          "name": "G#3",
          "ticks": 98304,
          "time": 160,
          "velocity": 0.3937007874015748
        },
        {
          "duration": 0.3125,
          "durationTicks": 192,
          "midi": 80,
          "name": "G#5",
          "ticks": 98496,
          "time": 160.3125,
          "velocity": 0.3937007874015748
        },
        {
          "duration": 0.3125,
          "durationTicks": 192,
          "midi": 60,
          "name": "C4",
          "ticks": 98496,
          "time": 160.3125,
          "velocity": 0.3937007874015748
        },
        {
          "duration": 0.3125,
          "durationTicks": 192,
          "midi": 82,
          "name": "A#5",
          "ticks": 98688,
          "time": 160.625,
          "velocity": 0.3937007874015748
        },
        {
          "duration": 0.3125,
          "durationTicks": 192,
          "midi": 65,
          "name": "F4",
          "ticks": 98688,
          "time": 160.625,
          "velocity": 0.3937007874015748
        },
        {
          "duration": 0.3125,
          "durationTicks": 192,
          "midi": 68,
          "name": "G#4",
          "ticks": 98880,
          "time": 160.9375,
          "velocity": 0.3937007874015748
        },
        {
          "duration": 0.3125,
          "durationTicks": 192,
          "midi": 80,
          "name": "G#5",
          "ticks": 98880,
          "time": 160.9375,
          "velocity": 0.3937007874015748
        },
        {
          "duration": 0.625,
          "durationTicks": 384,
          "midi": 65,
          "name": "F4",
          "ticks": 99072,
          "time": 161.25,
          "velocity": 0.3937007874015748
        },
        {
          "duration": 0.625,
          "durationTicks": 384,
          "midi": 49,
          "name": "C#3",
          "ticks": 99072,
          "time": 161.25,
          "velocity": 0.3937007874015748
        },
        {
          "duration": 0.625,
          "durationTicks": 384,
          "midi": 61,
          "name": "C#4",
          "ticks": 99072,
          "time": 161.25,
          "velocity": 0.3937007874015748
        },
        {
          "duration": 0.625,
          "durationTicks": 384,
          "midi": 72,
          "name": "C5",
          "ticks": 99072,
          "time": 161.25,
          "velocity": 0.3937007874015748
        },
        {
          "duration": 0.625,
          "durationTicks": 384,
          "midi": 61,
          "name": "C#4",
          "ticks": 99456,
          "time": 161.875,
          "velocity": 0.3937007874015748
        },
        {
          "duration": 0.625,
          "durationTicks": 384,
          "midi": 72,
          "name": "C5",
          "ticks": 99456,
          "time": 161.875,
          "velocity": 0.3937007874015748
        },
        {
          "duration": 0.625,
          "durationTicks": 384,
          "midi": 65,
          "name": "F4",
          "ticks": 99456,
          "time": 161.875,
          "velocity": 0.3937007874015748
        },
        {
          "duration": 0.625,
          "durationTicks": 384,
          "midi": 56,
          "name": "G#3",
          "ticks": 99456,
          "time": 161.875,
          "velocity": 0.3937007874015748
        },
        {
          "duration": 0.3125,
          "durationTicks": 192,
          "midi": 77,
          "name": "F5",
          "ticks": 99456,
          "time": 161.875,
          "velocity": 0.3937007874015748
        },
        {
          "duration": 0.3125,
          "durationTicks": 192,
          "midi": 75,
          "name": "D#5",
          "ticks": 99648,
          "time": 162.1875,
          "velocity": 0.3937007874015748
        },
        {
          "duration": 0.3125,
          "durationTicks": 192,
          "midi": 70,
          "name": "A#4",
          "ticks": 99840,
          "time": 162.5,
          "velocity": 0.3937007874015748
        },
        {
          "duration": 0.3125,
          "durationTicks": 192,
          "midi": 48,
          "name": "C3",
          "ticks": 99840,
          "time": 162.5,
          "velocity": 0.3937007874015748
        },
        {
          "duration": 0.3125,
          "durationTicks": 192,
          "midi": 55,
          "name": "G3",
          "ticks": 99840,
          "time": 162.5,
          "velocity": 0.3937007874015748
        },
        {
          "duration": 0.3125,
          "durationTicks": 192,
          "midi": 72,
          "name": "C5",
          "ticks": 99840,
          "time": 162.5,
          "velocity": 0.3937007874015748
        },
        {
          "duration": 0.3125,
          "durationTicks": 192,
          "midi": 64,
          "name": "E4",
          "ticks": 99840,
          "time": 162.5,
          "velocity": 0.3937007874015748
        },
        {
          "duration": 0.3125,
          "durationTicks": 192,
          "midi": 55,
          "name": "G3",
          "ticks": 100128,
          "time": 162.96875,
          "velocity": 0.3937007874015748
        },
        {
          "duration": 0.3125,
          "durationTicks": 192,
          "midi": 75,
          "name": "D#5",
          "ticks": 100128,
          "time": 162.96875,
          "velocity": 0.3937007874015748
        },
        {
          "duration": 0.3125,
          "durationTicks": 192,
          "midi": 70,
          "name": "A#4",
          "ticks": 100128,
          "time": 162.96875,
          "velocity": 0.3937007874015748
        },
        {
          "duration": 0.3125,
          "durationTicks": 192,
          "midi": 60,
          "name": "C4",
          "ticks": 100128,
          "time": 162.96875,
          "velocity": 0.3937007874015748
        },
        {
          "duration": 0.3125,
          "durationTicks": 192,
          "midi": 64,
          "name": "E4",
          "ticks": 100128,
          "time": 162.96875,
          "velocity": 0.3937007874015748
        },
        {
          "duration": 0.9375,
          "durationTicks": 576,
          "midi": 72,
          "name": "C5",
          "ticks": 100416,
          "time": 163.4375,
          "velocity": 0.3937007874015748
        },
        {
          "duration": 0.9375,
          "durationTicks": 576,
          "midi": 53,
          "name": "F3",
          "ticks": 100416,
          "time": 163.4375,
          "velocity": 0.3937007874015748
        },
        {
          "duration": 0.9375,
          "durationTicks": 576,
          "midi": 68,
          "name": "G#4",
          "ticks": 100416,
          "time": 163.4375,
          "velocity": 0.3937007874015748
        },
        {
          "duration": 0.9375,
          "durationTicks": 576,
          "midi": 60,
          "name": "C4",
          "ticks": 100416,
          "time": 163.4375,
          "velocity": 0.3937007874015748
        },
        {
          "duration": 0.625,
          "durationTicks": 384,
          "midi": 60,
          "name": "C4",
          "ticks": 100992,
          "time": 164.375,
          "velocity": 0.3937007874015748
        },
        {
          "duration": 0.625,
          "durationTicks": 384,
          "midi": 56,
          "name": "G#3",
          "ticks": 100992,
          "time": 164.375,
          "velocity": 0.3937007874015748
        },
        {
          "duration": 0.625,
          "durationTicks": 384,
          "midi": 53,
          "name": "F3",
          "ticks": 100992,
          "time": 164.375,
          "velocity": 0.3937007874015748
        },
        {
          "duration": 0.3125,
          "durationTicks": 192,
          "midi": 65,
          "name": "F4",
          "ticks": 100992,
          "time": 164.375,
          "velocity": 0.3937007874015748
        },
        {
          "duration": 0.3125,
          "durationTicks": 192,
          "midi": 72,
          "name": "C5",
          "ticks": 101184,
          "time": 164.6875,
          "velocity": 0.3937007874015748
        },
        {
          "duration": 0.3125,
          "durationTicks": 192,
          "midi": 63,
          "name": "D#4",
          "ticks": 101376,
          "time": 165,
          "velocity": 0.3937007874015748
        },
        {
          "duration": 0.3125,
          "durationTicks": 192,
          "midi": 58,
          "name": "A#3",
          "ticks": 101376,
          "time": 165,
          "velocity": 0.3937007874015748
        },
        {
          "duration": 0.3125,
          "durationTicks": 192,
          "midi": 51,
          "name": "D#3",
          "ticks": 101376,
          "time": 165,
          "velocity": 0.3937007874015748
        },
        {
          "duration": 0.3125,
          "durationTicks": 192,
          "midi": 70,
          "name": "A#4",
          "ticks": 101376,
          "time": 165,
          "velocity": 0.3937007874015748
        },
        {
          "duration": 0.3125,
          "durationTicks": 192,
          "midi": 68,
          "name": "G#4",
          "ticks": 101664,
          "time": 165.46875,
          "velocity": 0.3937007874015748
        },
        {
          "duration": 0.3125,
          "durationTicks": 192,
          "midi": 63,
          "name": "D#4",
          "ticks": 101664,
          "time": 165.46875,
          "velocity": 0.3937007874015748
        },
        {
          "duration": 0.3125,
          "durationTicks": 192,
          "midi": 54,
          "name": "F#3",
          "ticks": 101664,
          "time": 165.46875,
          "velocity": 0.3937007874015748
        },
        {
          "duration": 0.3125,
          "durationTicks": 192,
          "midi": 58,
          "name": "A#3",
          "ticks": 101664,
          "time": 165.46875,
          "velocity": 0.3937007874015748
        },
        {
          "duration": 0.9375,
          "durationTicks": 576,
          "midi": 60,
          "name": "C4",
          "ticks": 101952,
          "time": 165.9375,
          "velocity": 0.3937007874015748
        },
        {
          "duration": 0.9375,
          "durationTicks": 576,
          "midi": 49,
          "name": "C#3",
          "ticks": 101952,
          "time": 165.9375,
          "velocity": 0.3937007874015748
        },
        {
          "duration": 0.9375,
          "durationTicks": 576,
          "midi": 56,
          "name": "G#3",
          "ticks": 101952,
          "time": 165.9375,
          "velocity": 0.3937007874015748
        },
        {
          "duration": 0.9375,
          "durationTicks": 576,
          "midi": 65,
          "name": "F4",
          "ticks": 101952,
          "time": 165.9375,
          "velocity": 0.3937007874015748
        },
        {
          "duration": 0.625,
          "durationTicks": 384,
          "midi": 61,
          "name": "C#4",
          "ticks": 102528,
          "time": 166.875,
          "velocity": 0.3937007874015748
        },
        {
          "duration": 0.625,
          "durationTicks": 384,
          "midi": 56,
          "name": "G#3",
          "ticks": 102528,
          "time": 166.875,
          "velocity": 0.3937007874015748
        },
        {
          "duration": 0.625,
          "durationTicks": 384,
          "midi": 72,
          "name": "C5",
          "ticks": 102528,
          "time": 166.875,
          "velocity": 0.3937007874015748
        },
        {
          "duration": 0.3125,
          "durationTicks": 192,
          "midi": 77,
          "name": "F5",
          "ticks": 102528,
          "time": 166.875,
          "velocity": 0.3937007874015748
        },
        {
          "duration": 0.625,
          "durationTicks": 384,
          "midi": 65,
          "name": "F4",
          "ticks": 102528,
          "time": 166.875,
          "velocity": 0.3937007874015748
        },
        {
          "duration": 0.3125,
          "durationTicks": 192,
          "midi": 75,
          "name": "D#5",
          "ticks": 102720,
          "time": 167.1875,
          "velocity": 0.3937007874015748
        },
        {
          "duration": 0.3125,
          "durationTicks": 192,
          "midi": 72,
          "name": "C5",
          "ticks": 102912,
          "time": 167.5,
          "velocity": 0.3937007874015748
        },
        {
          "duration": 0.3125,
          "durationTicks": 192,
          "midi": 55,
          "name": "G3",
          "ticks": 102912,
          "time": 167.5,
          "velocity": 0.3937007874015748
        },
        {
          "duration": 0.3125,
          "durationTicks": 192,
          "midi": 48,
          "name": "C3",
          "ticks": 102912,
          "time": 167.5,
          "velocity": 0.3937007874015748
        },
        {
          "duration": 0.3125,
          "durationTicks": 192,
          "midi": 70,
          "name": "A#4",
          "ticks": 102912,
          "time": 167.5,
          "velocity": 0.3937007874015748
        },
        {
          "duration": 0.3125,
          "durationTicks": 192,
          "midi": 64,
          "name": "E4",
          "ticks": 102912,
          "time": 167.5,
          "velocity": 0.3937007874015748
        },
        {
          "duration": 0.3125,
          "durationTicks": 192,
          "midi": 70,
          "name": "A#4",
          "ticks": 103200,
          "time": 167.96875,
          "velocity": 0.3937007874015748
        },
        {
          "duration": 0.3125,
          "durationTicks": 192,
          "midi": 64,
          "name": "E4",
          "ticks": 103200,
          "time": 167.96875,
          "velocity": 0.3937007874015748
        },
        {
          "duration": 0.3125,
          "durationTicks": 192,
          "midi": 75,
          "name": "D#5",
          "ticks": 103200,
          "time": 167.96875,
          "velocity": 0.3937007874015748
        },
        {
          "duration": 0.3125,
          "durationTicks": 192,
          "midi": 60,
          "name": "C4",
          "ticks": 103200,
          "time": 167.96875,
          "velocity": 0.3937007874015748
        },
        {
          "duration": 0.3125,
          "durationTicks": 192,
          "midi": 55,
          "name": "G3",
          "ticks": 103200,
          "time": 167.96875,
          "velocity": 0.3937007874015748
        },
        {
          "duration": 0.9375,
          "durationTicks": 576,
          "midi": 53,
          "name": "F3",
          "ticks": 103488,
          "time": 168.4375,
          "velocity": 0.3937007874015748
        },
        {
          "duration": 0.9375,
          "durationTicks": 576,
          "midi": 72,
          "name": "C5",
          "ticks": 103488,
          "time": 168.4375,
          "velocity": 0.3937007874015748
        },
        {
          "duration": 0.9375,
          "durationTicks": 576,
          "midi": 68,
          "name": "G#4",
          "ticks": 103488,
          "time": 168.4375,
          "velocity": 0.3937007874015748
        },
        {
          "duration": 0.9375,
          "durationTicks": 576,
          "midi": 60,
          "name": "C4",
          "ticks": 103488,
          "time": 168.4375,
          "velocity": 0.3937007874015748
        },
        {
          "duration": 0.3125,
          "durationTicks": 192,
          "midi": 55,
          "name": "G3",
          "ticks": 103872,
          "time": 169.0625,
          "velocity": 0.3937007874015748
        },
        {
          "duration": 0.3125,
          "durationTicks": 192,
          "midi": 56,
          "name": "G#3",
          "ticks": 104064,
          "time": 169.375,
          "velocity": 0.3937007874015748
        },
        {
          "duration": 0.15625,
          "durationTicks": 96,
          "midi": 80,
          "name": "G#5",
          "ticks": 104256,
          "time": 169.6875,
          "velocity": 0.3937007874015748
        },
        {
          "duration": 0.3125,
          "durationTicks": 192,
          "midi": 60,
          "name": "C4",
          "ticks": 104256,
          "time": 169.6875,
          "velocity": 0.3937007874015748
        },
        {
          "duration": 0.15625,
          "durationTicks": 96,
          "midi": 80,
          "name": "G#5",
          "ticks": 104352,
          "time": 169.84375,
          "velocity": 0.3937007874015748
        },
        {
          "duration": 0.3125,
          "durationTicks": 192,
          "midi": 79,
          "name": "G5",
          "ticks": 104448,
          "time": 170,
          "velocity": 0.3937007874015748
        },
        {
          "duration": 0.3125,
          "durationTicks": 192,
          "midi": 65,
          "name": "F4",
          "ticks": 104448,
          "time": 170,
          "velocity": 0.3937007874015748
        },
        {
          "duration": 0.3125,
          "durationTicks": 192,
          "midi": 68,
          "name": "G#4",
          "ticks": 104640,
          "time": 170.3125,
          "velocity": 0.3937007874015748
        },
        {
          "duration": 0.3125,
          "durationTicks": 192,
          "midi": 80,
          "name": "G#5",
          "ticks": 104640,
          "time": 170.3125,
          "velocity": 0.3937007874015748
        },
        {
          "duration": 0.3125,
          "durationTicks": 192,
          "midi": 82,
          "name": "A#5",
          "ticks": 104832,
          "time": 170.625,
          "velocity": 0.3937007874015748
        },
        {
          "duration": 0.3125,
          "durationTicks": 192,
          "midi": 72,
          "name": "C5",
          "ticks": 104832,
          "time": 170.625,
          "velocity": 0.3937007874015748
        },
        {
          "duration": 0.3125,
          "durationTicks": 192,
          "midi": 77,
          "name": "F5",
          "ticks": 105024,
          "time": 170.9375,
          "velocity": 0.3937007874015748
        },
        {
          "duration": 0.3125,
          "durationTicks": 192,
          "midi": 80,
          "name": "G#5",
          "ticks": 105024,
          "time": 170.9375,
          "velocity": 0.3937007874015748
        },
        {
          "duration": 1.25,
          "durationTicks": 768,
          "midi": 61,
          "name": "C#4",
          "ticks": 105216,
          "time": 171.25,
          "velocity": 0.3937007874015748
        },
        {
          "duration": 0.625,
          "durationTicks": 384,
          "midi": 77,
          "name": "F5",
          "ticks": 105216,
          "time": 171.25,
          "velocity": 0.3937007874015748
        },
        {
          "duration": 1.25,
          "durationTicks": 768,
          "midi": 68,
          "name": "G#4",
          "ticks": 105216,
          "time": 171.25,
          "velocity": 0.3937007874015748
        },
        {
          "duration": 1.25,
          "durationTicks": 768,
          "midi": 72,
          "name": "C5",
          "ticks": 105216,
          "time": 171.25,
          "velocity": 0.3937007874015748
        },
        {
          "duration": 1.25,
          "durationTicks": 768,
          "midi": 65,
          "name": "F4",
          "ticks": 105216,
          "time": 171.25,
          "velocity": 0.3937007874015748
        },
        {
          "duration": 0.3125,
          "durationTicks": 192,
          "midi": 77,
          "name": "F5",
          "ticks": 105600,
          "time": 171.875,
          "velocity": 0.3937007874015748
        },
        {
          "duration": 0.3125,
          "durationTicks": 192,
          "midi": 84,
          "name": "C6",
          "ticks": 105792,
          "time": 172.1875,
          "velocity": 0.3937007874015748
        },
        {
          "duration": 0.9375,
          "durationTicks": 576,
          "midi": 60,
          "name": "C4",
          "ticks": 105984,
          "time": 172.5,
          "velocity": 0.3937007874015748
        },
        {
          "duration": 0.9375,
          "durationTicks": 576,
          "midi": 67,
          "name": "G4",
          "ticks": 105984,
          "time": 172.5,
          "velocity": 0.3937007874015748
        },
        {
          "duration": 0.9375,
          "durationTicks": 576,
          "midi": 70,
          "name": "A#4",
          "ticks": 105984,
          "time": 172.5,
          "velocity": 0.3937007874015748
        },
        {
          "duration": 0.46875,
          "durationTicks": 288,
          "midi": 82,
          "name": "A#5",
          "ticks": 105984,
          "time": 172.5,
          "velocity": 0.3937007874015748
        },
        {
          "duration": 0.9375,
          "durationTicks": 576,
          "midi": 64,
          "name": "E4",
          "ticks": 105984,
          "time": 172.5,
          "velocity": 0.3937007874015748
        },
        {
          "duration": 0.46875,
          "durationTicks": 288,
          "midi": 87,
          "name": "D#6",
          "ticks": 106272,
          "time": 172.96875,
          "velocity": 0.3937007874015748
        },
        {
          "duration": 1.5625,
          "durationTicks": 960,
          "midi": 65,
          "name": "F4",
          "ticks": 106560,
          "time": 173.4375,
          "velocity": 0.3937007874015748
        },
        {
          "duration": 1.5625,
          "durationTicks": 960,
          "midi": 72,
          "name": "C5",
          "ticks": 106560,
          "time": 173.4375,
          "velocity": 0.3937007874015748
        },
        {
          "duration": 0.9375,
          "durationTicks": 576,
          "midi": 84,
          "name": "C6",
          "ticks": 106560,
          "time": 173.4375,
          "velocity": 0.3937007874015748
        },
        {
          "duration": 1.5625,
          "durationTicks": 960,
          "midi": 68,
          "name": "G#4",
          "ticks": 106560,
          "time": 173.4375,
          "velocity": 0.3937007874015748
        },
        {
          "duration": 0.9375,
          "durationTicks": 576,
          "midi": 77,
          "name": "F5",
          "ticks": 106560,
          "time": 173.4375,
          "velocity": 0.3937007874015748
        },
        {
          "duration": 0.3125,
          "durationTicks": 192,
          "midi": 77,
          "name": "F5",
          "ticks": 107136,
          "time": 174.375,
          "velocity": 0.3937007874015748
        },
        {
          "duration": 0.3125,
          "durationTicks": 192,
          "midi": 84,
          "name": "C6",
          "ticks": 107328,
          "time": 174.6875,
          "velocity": 0.3937007874015748
        },
        {
          "duration": 0.46875,
          "durationTicks": 288,
          "midi": 82,
          "name": "A#5",
          "ticks": 107520,
          "time": 175,
          "velocity": 0.3937007874015748
        },
        {
          "duration": 0.9375,
          "durationTicks": 576,
          "midi": 75,
          "name": "D#5",
          "ticks": 107520,
          "time": 175,
          "velocity": 0.3937007874015748
        },
        {
          "duration": 0.9375,
          "durationTicks": 576,
          "midi": 66,
          "name": "F#4",
          "ticks": 107520,
          "time": 175,
          "velocity": 0.3937007874015748
        },
        {
          "duration": 0.9375,
          "durationTicks": 576,
          "midi": 70,
          "name": "A#4",
          "ticks": 107520,
          "time": 175,
          "velocity": 0.3937007874015748
        },
        {
          "duration": 0.9375,
          "durationTicks": 576,
          "midi": 72,
          "name": "C5",
          "ticks": 107520,
          "time": 175,
          "velocity": 0.3937007874015748
        },
        {
          "duration": 0.46875,
          "durationTicks": 288,
          "midi": 80,
          "name": "G#5",
          "ticks": 107808,
          "time": 175.46875,
          "velocity": 0.3937007874015748
        },
        {
          "duration": 1.5625,
          "durationTicks": 960,
          "midi": 61,
          "name": "C#4",
          "ticks": 108096,
          "time": 175.9375,
          "velocity": 0.3937007874015748
        },
        {
          "duration": 1.5625,
          "durationTicks": 960,
          "midi": 68,
          "name": "G#4",
          "ticks": 108096,
          "time": 175.9375,
          "velocity": 0.3937007874015748
        },
        {
          "duration": 1.5625,
          "durationTicks": 960,
          "midi": 65,
          "name": "F4",
          "ticks": 108096,
          "time": 175.9375,
          "velocity": 0.3937007874015748
        },
        {
          "duration": 1.5625,
          "durationTicks": 960,
          "midi": 72,
          "name": "C5",
          "ticks": 108096,
          "time": 175.9375,
          "velocity": 0.3937007874015748
        },
        {
          "duration": 0.9375,
          "durationTicks": 576,
          "midi": 77,
          "name": "F5",
          "ticks": 108096,
          "time": 175.9375,
          "velocity": 0.3937007874015748
        },
        {
          "duration": 0.3125,
          "durationTicks": 192,
          "midi": 77,
          "name": "F5",
          "ticks": 108672,
          "time": 176.875,
          "velocity": 0.3937007874015748
        },
        {
          "duration": 0.3125,
          "durationTicks": 192,
          "midi": 84,
          "name": "C6",
          "ticks": 108864,
          "time": 177.1875,
          "velocity": 0.3937007874015748
        },
        {
          "duration": 0.46875,
          "durationTicks": 288,
          "midi": 82,
          "name": "A#5",
          "ticks": 109056,
          "time": 177.5,
          "velocity": 0.3937007874015748
        },
        {
          "duration": 0.9375,
          "durationTicks": 576,
          "midi": 67,
          "name": "G4",
          "ticks": 109056,
          "time": 177.5,
          "velocity": 0.3937007874015748
        },
        {
          "duration": 0.9375,
          "durationTicks": 576,
          "midi": 70,
          "name": "A#4",
          "ticks": 109056,
          "time": 177.5,
          "velocity": 0.3937007874015748
        },
        {
          "duration": 0.9375,
          "durationTicks": 576,
          "midi": 64,
          "name": "E4",
          "ticks": 109056,
          "time": 177.5,
          "velocity": 0.3937007874015748
        },
        {
          "duration": 0.9375,
          "durationTicks": 576,
          "midi": 60,
          "name": "C4",
          "ticks": 109056,
          "time": 177.5,
          "velocity": 0.3937007874015748
        },
        {
          "duration": 0.46875,
          "durationTicks": 288,
          "midi": 87,
          "name": "D#6",
          "ticks": 109344,
          "time": 177.96875,
          "velocity": 0.3937007874015748
        },
        {
          "duration": 4.0625,
          "durationTicks": 2496,
          "midi": 68,
          "name": "G#4",
          "ticks": 109632,
          "time": 178.4375,
          "velocity": 0.3937007874015748
        },
        {
          "duration": 4.0625,
          "durationTicks": 2496,
          "midi": 84,
          "name": "C6",
          "ticks": 109632,
          "time": 178.4375,
          "velocity": 0.3937007874015748
        },
        {
          "duration": 4.0625,
          "durationTicks": 2496,
          "midi": 80,
          "name": "G#5",
          "ticks": 109632,
          "time": 178.4375,
          "velocity": 0.3937007874015748
        },
        {
          "duration": 4.0625,
          "durationTicks": 2496,
          "midi": 77,
          "name": "F5",
          "ticks": 109632,
          "time": 178.4375,
          "velocity": 0.3937007874015748
        },
        {
          "duration": 4.0625,
          "durationTicks": 2496,
          "midi": 53,
          "name": "F3",
          "ticks": 109632,
          "time": 178.4375,
          "velocity": 0.3937007874015748
        },
        {
          "duration": 4.0625,
          "durationTicks": 2496,
          "midi": 60,
          "name": "C4",
          "ticks": 109632,
          "time": 178.4375,
          "velocity": 0.3937007874015748
        }
      ],
      "endOfTrackTicks": 112128
    }
  ]
}
